M48
;Layer_Color=9474304
;FILE_FORMAT=4:4
METRIC,LZ
;TYPE=PLATED
T1F00S00C0.2000
T2F00S00C0.5000
T3F00S00C1.0000
T4F00S00C1.5000
T5F00S00C2.5000
%
T01
X00265Y00327
Y00382
X008845Y0032
X00935Y00337
X00988Y003225
X01164Y00357
X01174
X01184
X0117Y002795
X012265Y0036365
X012Y00507
Y00517
Y00527
Y00661
Y00671
Y00681
X0118115Y00616
Y004635
X01045Y00429
X01039
X008655Y004775
X00863Y00594
X00873
X00883
X00853
X00843
X00833
X00823
X0082Y005655
X0086225Y00737
X00863Y00769
X00873
X00883
X00893
X00853
X00843
X00833
X009855Y006475
X00658Y00725
X00606Y00777
X00561Y00772
X00435Y0074425
X00425
X00415
X00405
X00598Y006095
X00395Y0074425
X00265Y006145
Y005595
T02
X008Y00325
X00822Y00375
X00876
X00909Y00388
X0092
X00991Y00283
Y00272
X01002
Y00283
X01046Y00296
Y00307
X01057
Y00296
X01115Y00299
Y00288
X01126
Y00299
Y00459
X01115
Y0047
X01126
X01056
X01045
Y00459
X01056
X0092Y00432
Y00421
Y0041
Y00399
X00909
Y0041
Y00421
Y00432
X00876Y00436
X00822
X008Y00405
X007975Y0053
X0086225Y00516
X00949Y00556
Y00567
X0096
Y00578
X00949
Y00589
X0096
Y006
X00949
X0096Y00556
Y00685
X00949
Y00696
Y00707
X0096
Y00696
Y00718
Y00729
Y0074
X00949
Y00729
Y00718
X0086225Y00686
X007975Y0061
X01045Y00629
X01056
Y0064
X01045
X01115
Y00629
X01126
Y0064
T03
X003016Y00276
Y003014
Y003268
Y003522
Y003776
X00327
Y003522
Y003268
Y003014
Y00276
X003725Y002872
Y003126
Y00338
Y003634
Y003888
X004995
Y003634
Y00338
Y003126
Y002872
X0057
Y003126
Y00338
Y003634
Y003888
X00535Y003887
Y003633
Y003379
X00697Y00338
Y003634
Y003888
X00733Y003887
Y003633
Y003379
X00697Y003126
Y002872
X007334Y00276
X007588
X007842
X008096
X0085024
X0087564
X0090104
X0092644
X012375Y00425
Y00575
Y007275
X011875
Y00575
Y00425
X007975Y004825
Y006925
X007475
X00697Y0068
Y006546
Y006292
Y006038
Y005784
Y00553
Y005276
Y005022
Y00465
Y004396
Y004142
X00733Y004141
X007475Y004825
X00733Y005529
Y005783
Y006037
Y006291
X007334Y007586
X007588
X00708
X006826
X006572
X006318
X006064
X00581
X0057Y0068
Y006546
Y006292
Y006038
Y005784
Y00553
Y005276
Y005022
Y00465
Y004396
Y004142
X00535Y004141
X004995Y004142
Y004396
Y00465
Y005022
Y005276
Y00553
Y005784
Y006038
Y006292
Y006546
Y0068
X00535Y006291
Y006037
Y005783
Y005529
X003725Y00553
Y005276
Y005022
Y00465
Y004396
Y004142
X00327Y00403
X003016
Y004284
Y004538
Y004792
Y005046
Y0053
Y005554
Y005808
Y006062
Y006316
Y00657
Y006824
Y007078
X00327
Y006824
Y00657
Y006316
Y006062
Y005808
Y005554
Y0053
Y005046
Y004792
Y004538
Y004284
X003725Y005784
Y006038
Y006292
Y006546
Y0068
T04
X012Y0027
Y00325
X012525Y00475
Y00525
Y00625
Y006775
T05
X00705Y0072
X0079Y007625
M30
