G04 Layer_Physical_Order=3*
G04 Layer_Color=16440176*
%FSLAX44Y44*%
%MOMM*%
G71*
G01*
G75*
%ADD22C,0.2032*%
%ADD23C,2.3000*%
%ADD24C,1.7500*%
%ADD25C,2.0000*%
%ADD26C,3.0000*%
%ADD27C,1.5000*%
%ADD28R,2.0000X1.5000*%
%ADD29O,2.0000X1.5000*%
%ADD30R,1.5000X2.0000*%
%ADD31O,1.5000X2.0000*%
%ADD32C,0.3810*%
G36*
X588374Y693498D02*
Y601902D01*
X574708Y588236D01*
X572500Y588527D01*
X567500D01*
X564879Y588182D01*
X562437Y587170D01*
X560339Y585561D01*
X558896Y583679D01*
X558037Y583812D01*
X557626Y584018D01*
Y598182D01*
X558037Y598388D01*
X558896Y598521D01*
X560339Y596639D01*
X562437Y595030D01*
X564879Y594018D01*
X567500Y593673D01*
X572500D01*
X575121Y594018D01*
X577563Y595030D01*
X579661Y596639D01*
X581270Y598737D01*
X582282Y601179D01*
X582627Y603800D01*
X582282Y606421D01*
X581270Y608863D01*
X579661Y610961D01*
X577563Y612570D01*
X575121Y613582D01*
X572500Y613927D01*
X567500D01*
X564879Y613582D01*
X562437Y612570D01*
X560339Y610961D01*
X558896Y609079D01*
X558037Y609212D01*
X557626Y609418D01*
Y611698D01*
X565292Y619364D01*
X567500Y619073D01*
X572500D01*
X575121Y619418D01*
X577563Y620430D01*
X579661Y622039D01*
X581270Y624137D01*
X582282Y626579D01*
X582627Y629200D01*
X582282Y631821D01*
X581270Y634263D01*
X579661Y636361D01*
X577563Y637970D01*
X575121Y638982D01*
X572500Y639327D01*
X567500D01*
X564879Y638982D01*
X562437Y637970D01*
X560339Y636361D01*
X558730Y634263D01*
X557718Y631821D01*
X557373Y629200D01*
X557718Y626579D01*
X558730Y624137D01*
X559199Y623526D01*
X551436Y615764D01*
X550650Y614588D01*
X550374Y613200D01*
X550374Y613200D01*
Y496000D01*
X550374Y496000D01*
X550650Y494613D01*
X551436Y493436D01*
X560436Y484436D01*
X560436Y484436D01*
X561613Y483650D01*
X563000Y483374D01*
X582498D01*
X590374Y475498D01*
Y439702D01*
X574708Y424036D01*
X572500Y424327D01*
X567500D01*
X564879Y423982D01*
X562437Y422970D01*
X560339Y421361D01*
X558730Y419263D01*
X557718Y416821D01*
X557373Y414200D01*
X557718Y411579D01*
X558730Y409137D01*
X560339Y407039D01*
X562437Y405430D01*
X564879Y404418D01*
X567500Y404073D01*
X572500D01*
X575121Y404418D01*
X577563Y405430D01*
X579661Y407039D01*
X581270Y409137D01*
X582282Y411579D01*
X582627Y414200D01*
X582282Y416821D01*
X581270Y419263D01*
X580801Y419874D01*
X596564Y435636D01*
X597350Y436813D01*
X597626Y438200D01*
X597626Y438200D01*
Y477000D01*
X597350Y478387D01*
X596564Y479564D01*
X596564Y479564D01*
X586564Y489564D01*
X585387Y490350D01*
X584000Y490626D01*
X584000Y490626D01*
X564502D01*
X563521Y491606D01*
X564241Y492683D01*
X564879Y492418D01*
X567500Y492073D01*
X572500D01*
X575121Y492418D01*
X577563Y493430D01*
X579661Y495039D01*
X581270Y497137D01*
X582282Y499579D01*
X582627Y502200D01*
X582282Y504821D01*
X581270Y507263D01*
X579661Y509361D01*
X577563Y510970D01*
X575121Y511982D01*
X572500Y512327D01*
X567500D01*
X564879Y511982D01*
X562437Y510970D01*
X560339Y509361D01*
X558896Y507479D01*
X558037Y507612D01*
X557626Y507818D01*
Y521982D01*
X558037Y522188D01*
X558896Y522321D01*
X560339Y520439D01*
X562437Y518830D01*
X564879Y517818D01*
X567500Y517473D01*
X572500D01*
X574708Y517764D01*
X611036Y481436D01*
X611036Y481436D01*
X612212Y480650D01*
X613600Y480374D01*
X720498D01*
X755174Y445698D01*
Y287865D01*
X753737Y287270D01*
X751639Y285661D01*
X750030Y283563D01*
X749018Y281121D01*
X748673Y278500D01*
Y273500D01*
X749018Y270879D01*
X750030Y268437D01*
X751639Y266339D01*
X752218Y265896D01*
X751786Y264626D01*
X740414D01*
X739982Y265896D01*
X740561Y266339D01*
X742170Y268437D01*
X743182Y270879D01*
X743527Y273500D01*
Y278500D01*
X743182Y281121D01*
X742170Y283563D01*
X740561Y285661D01*
X738463Y287270D01*
X736021Y288282D01*
X733400Y288627D01*
X730779Y288282D01*
X728337Y287270D01*
X726239Y285661D01*
X724630Y283563D01*
X723618Y281121D01*
X723273Y278500D01*
Y273500D01*
X723618Y270879D01*
X724630Y268437D01*
X726239Y266339D01*
X726818Y265896D01*
X726386Y264626D01*
X623102D01*
X580801Y306926D01*
X581270Y307537D01*
X582282Y309979D01*
X582627Y312600D01*
X582282Y315221D01*
X581270Y317663D01*
X579661Y319761D01*
X579157Y320147D01*
X579511Y321476D01*
X580387Y321650D01*
X581564Y322436D01*
X593564Y334436D01*
X593564Y334436D01*
X594350Y335612D01*
X594626Y337000D01*
Y350000D01*
X594626Y350000D01*
X594350Y351387D01*
X593564Y352564D01*
X593564Y352564D01*
X582611Y363516D01*
X582282Y366021D01*
X581270Y368463D01*
X579661Y370561D01*
X577563Y372170D01*
X575121Y373182D01*
X572500Y373527D01*
X567500D01*
X564879Y373182D01*
X562437Y372170D01*
X560339Y370561D01*
X558730Y368463D01*
X557718Y366021D01*
X557373Y363400D01*
X557718Y360779D01*
X558730Y358337D01*
X560339Y356239D01*
X562437Y354630D01*
X564879Y353618D01*
X567500Y353273D01*
X572500D01*
X575121Y353618D01*
X577563Y354630D01*
X579645Y356227D01*
X587374Y348498D01*
Y338502D01*
X583235Y334363D01*
X582159Y335082D01*
X582282Y335379D01*
X582627Y338000D01*
X582282Y340621D01*
X581270Y343063D01*
X579661Y345161D01*
X577563Y346770D01*
X575121Y347782D01*
X572500Y348127D01*
X567500D01*
X564879Y347782D01*
X562437Y346770D01*
X560339Y345161D01*
X558730Y343063D01*
X557718Y340621D01*
X557373Y338000D01*
X557718Y335379D01*
X558730Y332937D01*
X560339Y330839D01*
X561569Y329896D01*
X561138Y328626D01*
X559000D01*
X559000Y328626D01*
X557612Y328350D01*
X556436Y327564D01*
X556436Y327564D01*
X531498Y302626D01*
X507856D01*
X507144Y303759D01*
X507149Y303896D01*
X509161Y305439D01*
X510770Y307537D01*
X511782Y309979D01*
X512127Y312600D01*
X511782Y315221D01*
X510770Y317663D01*
X509161Y319761D01*
X507063Y321370D01*
X504621Y322382D01*
X502439Y322669D01*
X502522Y323939D01*
X534800D01*
X538465Y324421D01*
X541881Y325836D01*
X544813Y328087D01*
X547064Y331019D01*
X548479Y334435D01*
X548961Y338100D01*
X548479Y341765D01*
X547064Y345181D01*
X544813Y348114D01*
X542306Y350038D01*
X542211Y350304D01*
Y351297D01*
X542306Y351562D01*
X544813Y353487D01*
X547064Y356419D01*
X548479Y359835D01*
X548961Y363500D01*
X548479Y367165D01*
X547064Y370581D01*
X544813Y373513D01*
X542306Y375438D01*
X542211Y375704D01*
Y376697D01*
X542306Y376962D01*
X544813Y378887D01*
X547064Y381819D01*
X548479Y385235D01*
X548961Y388900D01*
X548479Y392565D01*
X547064Y395981D01*
X544813Y398913D01*
X542306Y400838D01*
X542211Y401104D01*
Y402096D01*
X542306Y402362D01*
X544453Y404010D01*
X545000D01*
X545991Y404207D01*
X546831Y404769D01*
X547393Y405609D01*
X547590Y406600D01*
Y408489D01*
X548479Y410635D01*
X548961Y414300D01*
X548479Y417965D01*
X547590Y420111D01*
Y421600D01*
X547393Y422591D01*
X546831Y423431D01*
X545991Y423993D01*
X545000Y424190D01*
X544908D01*
X544813Y424314D01*
X541881Y426564D01*
X538465Y427979D01*
X534800Y428461D01*
X499400D01*
X495735Y427979D01*
X492319Y426564D01*
X489387Y424314D01*
X487136Y421381D01*
X485721Y417965D01*
X485239Y414300D01*
X485721Y410635D01*
X487136Y407219D01*
X489387Y404287D01*
X491894Y402362D01*
X491988Y402096D01*
Y401104D01*
X491894Y400838D01*
X489387Y398913D01*
X487136Y395981D01*
X485721Y392565D01*
X485239Y388900D01*
X485721Y385235D01*
X487136Y381819D01*
X489387Y378887D01*
X491894Y376962D01*
X491988Y376697D01*
Y375704D01*
X491894Y375438D01*
X489387Y373513D01*
X487136Y370581D01*
X485721Y367165D01*
X485239Y363500D01*
X485721Y359835D01*
X487136Y356419D01*
X489387Y353487D01*
X491894Y351562D01*
X491988Y351297D01*
Y350304D01*
X491894Y350038D01*
X489387Y348114D01*
X487136Y345181D01*
X485721Y341765D01*
X485239Y338100D01*
X485721Y334435D01*
X487136Y331019D01*
X489387Y328087D01*
X492319Y325836D01*
X495735Y324421D01*
X498961Y323997D01*
X498878Y322727D01*
X497000D01*
X494379Y322382D01*
X491937Y321370D01*
X489839Y319761D01*
X488230Y317663D01*
X487218Y315221D01*
X486873Y312600D01*
X487218Y309979D01*
X488230Y307537D01*
X489839Y305439D01*
X491851Y303896D01*
X491856Y303759D01*
X491144Y302626D01*
X438402D01*
X383301Y357726D01*
X383770Y358337D01*
X384782Y360779D01*
X385127Y363400D01*
X384782Y366021D01*
X383770Y368463D01*
X382161Y370561D01*
X380063Y372170D01*
X377621Y373182D01*
X375000Y373527D01*
X370000D01*
X367792Y373236D01*
X361626Y379402D01*
Y381246D01*
X362451Y381526D01*
X362896Y381596D01*
X364937Y380030D01*
X367379Y379018D01*
X370000Y378673D01*
X375000D01*
X377621Y379018D01*
X380063Y380030D01*
X382161Y381639D01*
X383770Y383737D01*
X384782Y386179D01*
X385127Y388800D01*
X384782Y391421D01*
X383770Y393863D01*
X382161Y395961D01*
X380063Y397570D01*
X377621Y398582D01*
X375000Y398927D01*
X370000D01*
X367379Y398582D01*
X364937Y397570D01*
X362896Y396004D01*
X362451Y396074D01*
X361626Y396354D01*
Y406646D01*
X362451Y406926D01*
X362896Y406996D01*
X364937Y405430D01*
X367379Y404418D01*
X370000Y404073D01*
X375000D01*
X377621Y404418D01*
X380063Y405430D01*
X382161Y407039D01*
X383770Y409137D01*
X384782Y411579D01*
X385127Y414200D01*
X384782Y416821D01*
X383770Y419263D01*
X383301Y419874D01*
X396564Y433136D01*
X396564Y433136D01*
X397350Y434313D01*
X397626Y435700D01*
X397626Y435700D01*
Y607700D01*
X397626Y607700D01*
X397350Y609087D01*
X396564Y610264D01*
X396564Y610264D01*
X383301Y623526D01*
X383770Y624137D01*
X384782Y626579D01*
X385127Y629200D01*
X384782Y631821D01*
X383770Y634263D01*
X382161Y636361D01*
X380063Y637970D01*
X377621Y638982D01*
X375000Y639327D01*
X370000D01*
X367379Y638982D01*
X364937Y637970D01*
X362839Y636361D01*
X361230Y634263D01*
X360218Y631821D01*
X359873Y629200D01*
X360218Y626579D01*
X361230Y624137D01*
X362839Y622039D01*
X364937Y620430D01*
X367379Y619418D01*
X370000Y619073D01*
X375000D01*
X377208Y619364D01*
X390374Y606198D01*
Y567313D01*
X389201Y566827D01*
X383301Y572726D01*
X383770Y573337D01*
X384782Y575779D01*
X385127Y578400D01*
X384782Y581021D01*
X383770Y583463D01*
X382161Y585561D01*
X380063Y587170D01*
X377621Y588182D01*
X375000Y588527D01*
X370000D01*
X367379Y588182D01*
X364937Y587170D01*
X362839Y585561D01*
X361230Y583463D01*
X360218Y581021D01*
X359873Y578400D01*
X360218Y575779D01*
X361230Y573337D01*
X362839Y571239D01*
X364937Y569630D01*
X367379Y568618D01*
X370000Y568273D01*
X375000D01*
X377208Y568564D01*
X386374Y559398D01*
Y553253D01*
X385104Y553170D01*
X384991Y554031D01*
X384782Y555621D01*
X383770Y558063D01*
X382161Y560161D01*
X380063Y561770D01*
X377621Y562782D01*
X375000Y563127D01*
X370000D01*
X367379Y562782D01*
X364937Y561770D01*
X362839Y560161D01*
X361230Y558063D01*
X360218Y555621D01*
X359873Y553000D01*
X360218Y550379D01*
X361230Y547937D01*
X362839Y545839D01*
X364937Y544230D01*
X367379Y543218D01*
X370000Y542873D01*
X375000D01*
X377621Y543218D01*
X380063Y544230D01*
X382161Y545839D01*
X383770Y547937D01*
X384782Y550379D01*
X384991Y551969D01*
X385104Y552830D01*
X386374Y552747D01*
Y527853D01*
X385104Y527770D01*
X384991Y528631D01*
X384782Y530221D01*
X383770Y532663D01*
X382161Y534761D01*
X380063Y536370D01*
X377621Y537382D01*
X375000Y537727D01*
X370000D01*
X367379Y537382D01*
X364937Y536370D01*
X362839Y534761D01*
X361230Y532663D01*
X360218Y530221D01*
X359873Y527600D01*
X360218Y524979D01*
X361230Y522537D01*
X362839Y520439D01*
X364937Y518830D01*
X367379Y517818D01*
X370000Y517473D01*
X375000D01*
X377621Y517818D01*
X380063Y518830D01*
X382161Y520439D01*
X383770Y522537D01*
X384782Y524979D01*
X384991Y526569D01*
X385104Y527430D01*
X386374Y527347D01*
Y502453D01*
X385104Y502370D01*
X384991Y503231D01*
X384782Y504821D01*
X383770Y507263D01*
X382161Y509361D01*
X380063Y510970D01*
X377621Y511982D01*
X375000Y512327D01*
X370000D01*
X367792Y512036D01*
X350626Y529202D01*
Y611600D01*
X350626Y611600D01*
X350350Y612988D01*
X349564Y614164D01*
X349564Y614164D01*
X337801Y625926D01*
X338270Y626537D01*
X339282Y628979D01*
X339627Y631600D01*
X339282Y634221D01*
X338270Y636663D01*
X336661Y638761D01*
X334563Y640370D01*
X332121Y641382D01*
X329500Y641727D01*
X324500D01*
X321879Y641382D01*
X319437Y640370D01*
X317339Y638761D01*
X315730Y636663D01*
X314987Y634870D01*
X313613D01*
X312870Y636663D01*
X311261Y638761D01*
X309163Y640370D01*
X306721Y641382D01*
X304100Y641727D01*
X299100D01*
X296479Y641382D01*
X294037Y640370D01*
X291939Y638761D01*
X290330Y636663D01*
X289318Y634221D01*
X288973Y631600D01*
X289318Y628979D01*
X290330Y626537D01*
X291939Y624439D01*
X294037Y622830D01*
X296479Y621818D01*
X299100Y621473D01*
X304100D01*
X306721Y621818D01*
X309163Y622830D01*
X311261Y624439D01*
X312870Y626537D01*
X313613Y628330D01*
X314987D01*
X315730Y626537D01*
X317339Y624439D01*
X319437Y622830D01*
X321879Y621818D01*
X324500Y621473D01*
X329500D01*
X331708Y621764D01*
X343374Y610098D01*
Y527700D01*
X343374Y527700D01*
X343650Y526313D01*
X344436Y525136D01*
X361699Y507874D01*
X361230Y507263D01*
X360218Y504821D01*
X359873Y502200D01*
X360218Y499579D01*
X361230Y497137D01*
X362839Y495039D01*
X364937Y493430D01*
X367379Y492418D01*
X370000Y492073D01*
X375000D01*
X377621Y492418D01*
X380063Y493430D01*
X382161Y495039D01*
X383770Y497137D01*
X384782Y499579D01*
X384991Y501169D01*
X385104Y502030D01*
X386374Y501947D01*
Y439853D01*
X385104Y439770D01*
X384782Y442221D01*
X383770Y444663D01*
X382161Y446761D01*
X380063Y448370D01*
X377621Y449382D01*
X375000Y449727D01*
X370000D01*
X367379Y449382D01*
X364937Y448370D01*
X362839Y446761D01*
X361230Y444663D01*
X360635Y443226D01*
X333526D01*
X333273Y444496D01*
X334563Y445030D01*
X336661Y446639D01*
X338270Y448737D01*
X339282Y451179D01*
X339627Y453800D01*
X339282Y456421D01*
X338270Y458863D01*
X336661Y460961D01*
X334563Y462570D01*
X332121Y463582D01*
X329500Y463927D01*
X324500D01*
X321879Y463582D01*
X319437Y462570D01*
X317339Y460961D01*
X315730Y458863D01*
X314987Y457070D01*
X313613D01*
X312870Y458863D01*
X311261Y460961D01*
X309163Y462570D01*
X306721Y463582D01*
X304100Y463927D01*
X299100D01*
X296479Y463582D01*
X294037Y462570D01*
X291939Y460961D01*
X290330Y458863D01*
X289318Y456421D01*
X288973Y453800D01*
X289318Y451179D01*
X290330Y448737D01*
X291939Y446639D01*
X294037Y445030D01*
X295327Y444496D01*
X295074Y443226D01*
X289902D01*
X280626Y452502D01*
Y630898D01*
X296892Y647164D01*
X299100Y646873D01*
X304100D01*
X306721Y647218D01*
X309163Y648230D01*
X311261Y649839D01*
X312870Y651937D01*
X313613Y653730D01*
X314987D01*
X315730Y651937D01*
X317339Y649839D01*
X319437Y648230D01*
X321879Y647218D01*
X324500Y646873D01*
X329500D01*
X332121Y647218D01*
X334563Y648230D01*
X336661Y649839D01*
X338270Y651937D01*
X339282Y654379D01*
X339627Y657000D01*
X339282Y659621D01*
X338270Y662063D01*
X337801Y662674D01*
X358737Y683609D01*
X359910Y683123D01*
Y672500D01*
X360107Y671509D01*
X360669Y670669D01*
X361509Y670107D01*
X362500Y669910D01*
X382500D01*
X383491Y670107D01*
X384331Y670669D01*
X384893Y671509D01*
X385090Y672500D01*
Y687500D01*
X384893Y688491D01*
X384331Y689331D01*
X383491Y689893D01*
X382500Y690090D01*
X366877D01*
X366391Y691263D01*
X375502Y700374D01*
X581498D01*
X588374Y693498D01*
D02*
G37*
G36*
X255000Y783351D02*
X255000Y783351D01*
X255000Y783351D01*
X1263000Y783351D01*
X1263567Y783351D01*
X1264615Y782916D01*
X1265417Y782115D01*
X1265851Y781067D01*
X1265851Y780500D01*
Y681356D01*
X1264581Y681104D01*
X1263454Y683824D01*
X1261444Y686444D01*
X1258824Y688454D01*
X1255774Y689717D01*
X1252500Y690148D01*
X1249226Y689717D01*
X1246176Y688454D01*
X1243556Y686444D01*
X1241546Y683824D01*
X1240283Y680774D01*
X1239852Y677500D01*
X1240283Y674226D01*
X1241546Y671176D01*
X1243556Y668556D01*
X1246176Y666546D01*
X1249226Y665283D01*
X1252500Y664852D01*
X1255774Y665283D01*
X1258824Y666546D01*
X1261444Y668556D01*
X1263454Y671176D01*
X1264581Y673896D01*
X1265851Y673644D01*
Y528856D01*
X1264581Y528604D01*
X1263454Y531324D01*
X1261444Y533944D01*
X1258824Y535954D01*
X1255774Y537217D01*
X1252500Y537648D01*
X1249226Y537217D01*
X1246176Y535954D01*
X1243556Y533944D01*
X1241546Y531324D01*
X1240283Y528274D01*
X1239852Y525000D01*
X1240283Y521726D01*
X1241546Y518676D01*
X1243556Y516056D01*
X1246176Y514046D01*
X1249226Y512783D01*
X1252500Y512352D01*
X1255774Y512783D01*
X1258824Y514046D01*
X1261444Y516056D01*
X1263454Y518676D01*
X1264581Y521396D01*
X1265851Y521144D01*
Y254500D01*
X1265851Y253933D01*
X1265416Y252885D01*
X1264615Y252083D01*
X1263567Y251649D01*
X909013D01*
X908487Y252920D01*
X920766Y265199D01*
X921377Y264730D01*
X923819Y263718D01*
X926440Y263373D01*
X929061Y263718D01*
X931503Y264730D01*
X933601Y266339D01*
X935210Y268437D01*
X936222Y270879D01*
X936567Y273500D01*
Y278500D01*
X936222Y281121D01*
X935210Y283563D01*
X933601Y285661D01*
X931503Y287270D01*
X929061Y288282D01*
X926440Y288627D01*
X923819Y288282D01*
X921377Y287270D01*
X919279Y285661D01*
X917670Y283563D01*
X916658Y281121D01*
X916313Y278500D01*
Y273500D01*
X916604Y271292D01*
X903938Y258626D01*
X773613D01*
X773127Y259799D01*
X778526Y265199D01*
X779137Y264730D01*
X781579Y263718D01*
X784200Y263373D01*
X786821Y263718D01*
X789263Y264730D01*
X791361Y266339D01*
X792970Y268437D01*
X793982Y270879D01*
X794327Y273500D01*
Y278500D01*
X793982Y281121D01*
X792970Y283563D01*
X791361Y285661D01*
X789263Y287270D01*
X786821Y288282D01*
X784200Y288627D01*
X781579Y288282D01*
X779137Y287270D01*
X777039Y285661D01*
X775430Y283563D01*
X774418Y281121D01*
X774073Y278500D01*
Y273500D01*
X774364Y271292D01*
X767698Y264626D01*
X765814D01*
X765382Y265896D01*
X765961Y266339D01*
X767570Y268437D01*
X768582Y270879D01*
X768927Y273500D01*
Y278500D01*
X768582Y281121D01*
X767570Y283563D01*
X765961Y285661D01*
X763863Y287270D01*
X762426Y287865D01*
Y447200D01*
X762150Y448587D01*
X761364Y449764D01*
X761364Y449764D01*
X724564Y486564D01*
X723388Y487350D01*
X722000Y487626D01*
X722000Y487626D01*
X615102D01*
X580801Y521926D01*
X581270Y522537D01*
X582282Y524979D01*
X582627Y527600D01*
X582282Y530221D01*
X581270Y532663D01*
X579661Y534761D01*
X577563Y536370D01*
X575121Y537382D01*
X572500Y537727D01*
X567500D01*
X564879Y537382D01*
X562437Y536370D01*
X560339Y534761D01*
X558896Y532879D01*
X558037Y533012D01*
X557626Y533218D01*
Y547382D01*
X558037Y547588D01*
X558896Y547721D01*
X560339Y545839D01*
X562437Y544230D01*
X564879Y543218D01*
X567500Y542873D01*
X572500D01*
X575121Y543218D01*
X577563Y544230D01*
X579661Y545839D01*
X581270Y547937D01*
X582282Y550379D01*
X582627Y553000D01*
X582282Y555621D01*
X581270Y558063D01*
X579661Y560161D01*
X577563Y561770D01*
X575121Y562782D01*
X572500Y563127D01*
X567500D01*
X564879Y562782D01*
X562437Y561770D01*
X560339Y560161D01*
X558896Y558279D01*
X558037Y558412D01*
X557626Y558618D01*
Y572782D01*
X558037Y572988D01*
X558896Y573121D01*
X560339Y571239D01*
X562437Y569630D01*
X564879Y568618D01*
X567500Y568273D01*
X572500D01*
X575121Y568618D01*
X577563Y569630D01*
X579661Y571239D01*
X581270Y573337D01*
X582282Y575779D01*
X582627Y578400D01*
X582282Y581021D01*
X581270Y583463D01*
X580801Y584074D01*
X594564Y597836D01*
X594564Y597836D01*
X595350Y599012D01*
X595626Y600400D01*
X595626Y600400D01*
Y604329D01*
X596896Y605188D01*
X598000Y604968D01*
X599734Y605313D01*
X601205Y606295D01*
X602187Y607766D01*
X602532Y609500D01*
X602187Y611234D01*
X601205Y612705D01*
X599734Y613687D01*
X598000Y614032D01*
X596896Y613812D01*
X595626Y614671D01*
Y695000D01*
X595626Y695000D01*
X595350Y696387D01*
X594564Y697564D01*
X594564Y697564D01*
X585564Y706564D01*
X584388Y707350D01*
X583000Y707626D01*
X583000Y707626D01*
X374000D01*
X374000Y707626D01*
X372612Y707350D01*
X371436Y706564D01*
X371436Y706564D01*
X331708Y666836D01*
X329500Y667127D01*
X324500D01*
X321879Y666782D01*
X319437Y665770D01*
X317339Y664161D01*
X315730Y662063D01*
X314987Y660270D01*
X313613D01*
X312870Y662063D01*
X311261Y664161D01*
X309163Y665770D01*
X306721Y666782D01*
X304100Y667127D01*
X299100D01*
X296479Y666782D01*
X294037Y665770D01*
X291939Y664161D01*
X290330Y662063D01*
X289318Y659621D01*
X288973Y657000D01*
X289318Y654379D01*
X290330Y651937D01*
X290799Y651326D01*
X274436Y634964D01*
X273650Y633787D01*
X273374Y632400D01*
X273374Y632400D01*
Y451000D01*
X273374Y451000D01*
X273650Y449613D01*
X274436Y448436D01*
X285836Y437036D01*
X285836Y437036D01*
X287013Y436250D01*
X288400Y435974D01*
X288400Y435974D01*
X290656D01*
X291282Y434704D01*
X290330Y433463D01*
X289318Y431021D01*
X288973Y428400D01*
X289318Y425779D01*
X290330Y423337D01*
X291939Y421239D01*
X294037Y419630D01*
X296479Y418618D01*
X299100Y418273D01*
X304100D01*
X306721Y418618D01*
X309163Y419630D01*
X311261Y421239D01*
X312870Y423337D01*
X313613Y425130D01*
X314987D01*
X315730Y423337D01*
X317339Y421239D01*
X319437Y419630D01*
X321879Y418618D01*
X324500Y418273D01*
X329500D01*
X332121Y418618D01*
X334563Y419630D01*
X336661Y421239D01*
X338270Y423337D01*
X339282Y425779D01*
X339627Y428400D01*
X339282Y431021D01*
X338270Y433463D01*
X337318Y434704D01*
X337944Y435974D01*
X360635D01*
X361230Y434537D01*
X362839Y432439D01*
X364129Y431450D01*
X364005Y429944D01*
X363436Y429564D01*
X363436Y429564D01*
X355436Y421564D01*
X354650Y420387D01*
X354374Y419000D01*
X354374Y419000D01*
Y377900D01*
X354374Y377900D01*
X354650Y376513D01*
X355436Y375336D01*
X361699Y369074D01*
X361230Y368463D01*
X360218Y366021D01*
X359873Y363400D01*
X360218Y360779D01*
X361230Y358337D01*
X362839Y356239D01*
X364937Y354630D01*
X367379Y353618D01*
X370000Y353273D01*
X375000D01*
X377208Y353564D01*
X434336Y296436D01*
X434336Y296436D01*
X435513Y295650D01*
X436900Y295374D01*
X436900Y295374D01*
X533000D01*
X533000Y295374D01*
X534388Y295650D01*
X535564Y296436D01*
X558246Y319118D01*
X559202Y318279D01*
X558730Y317663D01*
X557718Y315221D01*
X557373Y312600D01*
X557718Y309979D01*
X558730Y307537D01*
X560339Y305439D01*
X562437Y303830D01*
X564879Y302818D01*
X567500Y302473D01*
X572500D01*
X574708Y302764D01*
X617673Y259799D01*
X617188Y258626D01*
X431602D01*
X383301Y306926D01*
X383770Y307537D01*
X384782Y309979D01*
X385127Y312600D01*
X384782Y315221D01*
X383770Y317663D01*
X382161Y319761D01*
X380063Y321370D01*
X377621Y322382D01*
X375000Y322727D01*
X370000D01*
X367379Y322382D01*
X364937Y321370D01*
X362839Y319761D01*
X361230Y317663D01*
X360218Y315221D01*
X359873Y312600D01*
X360218Y309979D01*
X361230Y307537D01*
X362839Y305439D01*
X364937Y303830D01*
X367379Y302818D01*
X370000Y302473D01*
X375000D01*
X377208Y302764D01*
X427053Y252920D01*
X426527Y251649D01*
X255000D01*
X254333Y251649D01*
X253102Y252160D01*
X252160Y253102D01*
X251649Y254333D01*
Y255000D01*
X251649Y780000D01*
X251649Y780000D01*
X251649Y780000D01*
X251649Y780667D01*
X252160Y781898D01*
X253102Y782840D01*
X254333Y783351D01*
X255000Y783351D01*
D02*
G37*
%LPC*%
G36*
X572500Y398927D02*
X567500D01*
X564879Y398582D01*
X562437Y397570D01*
X560339Y395961D01*
X558730Y393863D01*
X557718Y391421D01*
X557373Y388800D01*
X557718Y386179D01*
X558730Y383737D01*
X560339Y381639D01*
X562437Y380030D01*
X564879Y379018D01*
X567500Y378673D01*
X572500D01*
X575121Y379018D01*
X577563Y380030D01*
X579661Y381639D01*
X581270Y383737D01*
X582282Y386179D01*
X582627Y388800D01*
X582282Y391421D01*
X581270Y393863D01*
X579661Y395961D01*
X577563Y397570D01*
X575121Y398582D01*
X572500Y398927D01*
D02*
G37*
G36*
X699500Y475127D02*
X694500D01*
X691879Y474782D01*
X689437Y473770D01*
X687339Y472161D01*
X685730Y470063D01*
X684718Y467621D01*
X684373Y465000D01*
X684718Y462379D01*
X685730Y459937D01*
X687339Y457839D01*
X689437Y456230D01*
X691879Y455218D01*
X694500Y454873D01*
X699500D01*
X702121Y455218D01*
X704563Y456230D01*
X706661Y457839D01*
X708270Y459937D01*
X709282Y462379D01*
X709627Y465000D01*
X709282Y467621D01*
X708270Y470063D01*
X706661Y472161D01*
X704563Y473770D01*
X702121Y474782D01*
X699500Y475127D01*
D02*
G37*
G36*
X499500Y691387D02*
X486000D01*
X483053Y690999D01*
X480306Y689862D01*
X477948Y688052D01*
X452948Y663052D01*
X451138Y660694D01*
X450001Y657947D01*
X449613Y655000D01*
Y492000D01*
X450001Y489053D01*
X451138Y486306D01*
X452948Y483948D01*
X479948Y456948D01*
X482306Y455138D01*
X485053Y454001D01*
X488000Y453613D01*
X499500D01*
X502447Y454001D01*
X505194Y455138D01*
X506093Y455828D01*
X507063Y456230D01*
X509161Y457839D01*
X510770Y459937D01*
X511782Y462379D01*
X512127Y465000D01*
X511782Y467621D01*
X510770Y470063D01*
X509161Y472161D01*
X507063Y473770D01*
X506093Y474172D01*
X505194Y474862D01*
X502447Y475999D01*
X499500Y476387D01*
X492717D01*
X472387Y496717D01*
Y650283D01*
X490717Y668613D01*
X499500D01*
X502447Y669001D01*
X505194Y670138D01*
X506093Y670828D01*
X507063Y671230D01*
X509161Y672839D01*
X510770Y674937D01*
X511782Y677379D01*
X512127Y680000D01*
X511782Y682621D01*
X510770Y685063D01*
X509161Y687161D01*
X507063Y688770D01*
X506093Y689172D01*
X505194Y689862D01*
X502447Y690999D01*
X499500Y691387D01*
D02*
G37*
G36*
X382500Y475090D02*
X362500D01*
X361509Y474893D01*
X360669Y474331D01*
X360107Y473491D01*
X359910Y472500D01*
Y457500D01*
X360107Y456509D01*
X360669Y455669D01*
X361509Y455107D01*
X362500Y454910D01*
X382500D01*
X383491Y455107D01*
X384331Y455669D01*
X384893Y456509D01*
X385090Y457500D01*
Y472500D01*
X384893Y473491D01*
X384331Y474331D01*
X383491Y474893D01*
X382500Y475090D01*
D02*
G37*
G36*
X580000D02*
X560000D01*
X559009Y474893D01*
X558169Y474331D01*
X557607Y473491D01*
X557410Y472500D01*
Y457500D01*
X557607Y456509D01*
X558169Y455669D01*
X559009Y455107D01*
X560000Y454910D01*
X580000D01*
X580991Y455107D01*
X581831Y455669D01*
X582393Y456509D01*
X582590Y457500D01*
Y472500D01*
X582393Y473491D01*
X581831Y474331D01*
X580991Y474893D01*
X580000Y475090D01*
D02*
G37*
G36*
X572500Y449727D02*
X567500D01*
X564879Y449382D01*
X562437Y448370D01*
X560339Y446761D01*
X558730Y444663D01*
X557718Y442221D01*
X557373Y439600D01*
X557718Y436979D01*
X558730Y434537D01*
X560339Y432439D01*
X562437Y430830D01*
X564879Y429818D01*
X567500Y429473D01*
X572500D01*
X575121Y429818D01*
X577563Y430830D01*
X579661Y432439D01*
X581270Y434537D01*
X582282Y436979D01*
X582627Y439600D01*
X582282Y442221D01*
X581270Y444663D01*
X579661Y446761D01*
X577563Y448370D01*
X575121Y449382D01*
X572500Y449727D01*
D02*
G37*
G36*
X732800Y428461D02*
X696900D01*
X693235Y427979D01*
X689819Y426564D01*
X686887Y424314D01*
X684636Y421381D01*
X683221Y417965D01*
X682739Y414300D01*
X683221Y410635D01*
X684636Y407219D01*
X686887Y404287D01*
X689394Y402362D01*
X689489Y402096D01*
Y401104D01*
X689394Y400838D01*
X686887Y398913D01*
X684636Y395981D01*
X683221Y392565D01*
X682739Y388900D01*
X683221Y385235D01*
X684636Y381819D01*
X686887Y378887D01*
X689394Y376962D01*
X689489Y376697D01*
Y375704D01*
X689394Y375438D01*
X686887Y373513D01*
X684636Y370581D01*
X683221Y367165D01*
X682739Y363500D01*
X683221Y359835D01*
X684636Y356419D01*
X686887Y353487D01*
X689394Y351562D01*
X689489Y351297D01*
Y350304D01*
X689394Y350038D01*
X686887Y348114D01*
X684636Y345181D01*
X683221Y341765D01*
X682739Y338100D01*
X683221Y334435D01*
X684636Y331019D01*
X686887Y328087D01*
X689819Y325836D01*
X693235Y324421D01*
X696461Y323997D01*
X696378Y322727D01*
X694500D01*
X691879Y322382D01*
X689437Y321370D01*
X687339Y319761D01*
X685730Y317663D01*
X684718Y315221D01*
X684373Y312600D01*
X684718Y309979D01*
X685730Y307537D01*
X687339Y305439D01*
X689437Y303830D01*
X691879Y302818D01*
X694500Y302473D01*
X699500D01*
X702121Y302818D01*
X704563Y303830D01*
X706661Y305439D01*
X708270Y307537D01*
X709282Y309979D01*
X709627Y312600D01*
X709282Y315221D01*
X708270Y317663D01*
X706661Y319761D01*
X704563Y321370D01*
X702121Y322382D01*
X699939Y322669D01*
X700022Y323939D01*
X732800D01*
X736465Y324421D01*
X739881Y325836D01*
X742813Y328087D01*
X745064Y331019D01*
X746479Y334435D01*
X746961Y338100D01*
X746479Y341765D01*
X745064Y345181D01*
X742813Y348114D01*
X740306Y350038D01*
X740211Y350304D01*
Y351297D01*
X740306Y351562D01*
X742813Y353487D01*
X745064Y356419D01*
X746479Y359835D01*
X746961Y363500D01*
X746479Y367165D01*
X745064Y370581D01*
X742813Y373513D01*
X740306Y375438D01*
X740211Y375704D01*
Y376697D01*
X740306Y376962D01*
X742813Y378887D01*
X745064Y381819D01*
X746479Y385235D01*
X746961Y388900D01*
X746479Y392565D01*
X745064Y395981D01*
X742813Y398913D01*
X740306Y400838D01*
X740211Y401104D01*
Y402096D01*
X740306Y402362D01*
X742453Y404010D01*
X743000D01*
X743991Y404207D01*
X744831Y404769D01*
X745393Y405609D01*
X745590Y406600D01*
Y408489D01*
X746479Y410635D01*
X746961Y414300D01*
X746479Y417965D01*
X745590Y420111D01*
Y421600D01*
X745393Y422591D01*
X744831Y423431D01*
X743991Y423993D01*
X743000Y424190D01*
X742908D01*
X742813Y424314D01*
X739881Y426564D01*
X736465Y427979D01*
X732800Y428461D01*
D02*
G37*
G36*
X580000Y690090D02*
X560000D01*
X559009Y689893D01*
X558169Y689331D01*
X557607Y688491D01*
X557410Y687500D01*
Y672500D01*
X557607Y671509D01*
X558169Y670669D01*
X559009Y670107D01*
X560000Y669910D01*
X580000D01*
X580991Y670107D01*
X581831Y670669D01*
X582393Y671509D01*
X582590Y672500D01*
Y687500D01*
X582393Y688491D01*
X581831Y689331D01*
X580991Y689893D01*
X580000Y690090D01*
D02*
G37*
G36*
X572500Y664727D02*
X567500D01*
X564879Y664382D01*
X562437Y663370D01*
X560339Y661761D01*
X558730Y659663D01*
X557718Y657221D01*
X557373Y654600D01*
X557718Y651979D01*
X558730Y649537D01*
X560339Y647439D01*
X562437Y645830D01*
X564879Y644818D01*
X567500Y644473D01*
X572500D01*
X575121Y644818D01*
X577563Y645830D01*
X579661Y647439D01*
X581270Y649537D01*
X582282Y651979D01*
X582627Y654600D01*
X582282Y657221D01*
X581270Y659663D01*
X579661Y661761D01*
X577563Y663370D01*
X575121Y664382D01*
X572500Y664727D01*
D02*
G37*
G36*
X375000D02*
X370000D01*
X367379Y664382D01*
X364937Y663370D01*
X362839Y661761D01*
X361230Y659663D01*
X360218Y657221D01*
X359873Y654600D01*
X360218Y651979D01*
X361230Y649537D01*
X362839Y647439D01*
X364937Y645830D01*
X367379Y644818D01*
X370000Y644473D01*
X375000D01*
X377621Y644818D01*
X380063Y645830D01*
X382161Y647439D01*
X383770Y649537D01*
X384782Y651979D01*
X385127Y654600D01*
X384782Y657221D01*
X383770Y659663D01*
X382161Y661761D01*
X380063Y663370D01*
X377621Y664382D01*
X375000Y664727D01*
D02*
G37*
G36*
X534900Y643361D02*
X499500D01*
X495835Y642879D01*
X492419Y641464D01*
X489487Y639213D01*
X487236Y636281D01*
X485821Y632865D01*
X485339Y629200D01*
X485821Y625535D01*
X487236Y622119D01*
X489487Y619187D01*
X491875Y617354D01*
X491961Y617124D01*
X491920Y615916D01*
X491874Y615822D01*
X489387Y613913D01*
X487136Y610981D01*
X485721Y607565D01*
X485239Y603900D01*
X485721Y600235D01*
X487136Y596819D01*
X489387Y593887D01*
X491894Y591962D01*
X491988Y591697D01*
Y590704D01*
X491894Y590438D01*
X489387Y588513D01*
X487136Y585581D01*
X485721Y582165D01*
X485239Y578500D01*
X485721Y574835D01*
X487136Y571419D01*
X489387Y568487D01*
X491894Y566562D01*
X491988Y566297D01*
Y565304D01*
X491894Y565038D01*
X489387Y563114D01*
X487136Y560181D01*
X485721Y556765D01*
X485239Y553100D01*
X485721Y549435D01*
X487136Y546019D01*
X489387Y543087D01*
X492319Y540836D01*
X495735Y539421D01*
X498961Y538997D01*
X498878Y537727D01*
X497000D01*
X494379Y537382D01*
X491937Y536370D01*
X489839Y534761D01*
X488230Y532663D01*
X487218Y530221D01*
X486873Y527600D01*
X487218Y524979D01*
X488230Y522537D01*
X489839Y520439D01*
X491937Y518830D01*
X494379Y517818D01*
X497000Y517473D01*
X502000D01*
X504621Y517818D01*
X507063Y518830D01*
X509161Y520439D01*
X510770Y522537D01*
X511782Y524979D01*
X512127Y527600D01*
X511782Y530221D01*
X510770Y532663D01*
X509161Y534761D01*
X507063Y536370D01*
X504621Y537382D01*
X502439Y537669D01*
X502522Y538939D01*
X534800D01*
X538465Y539421D01*
X541881Y540836D01*
X544813Y543087D01*
X547064Y546019D01*
X548479Y549435D01*
X548961Y553100D01*
X548479Y556765D01*
X547064Y560181D01*
X544813Y563114D01*
X542306Y565038D01*
X542211Y565304D01*
Y566297D01*
X542306Y566562D01*
X544813Y568487D01*
X547064Y571419D01*
X548479Y574835D01*
X548961Y578500D01*
X548479Y582165D01*
X547064Y585581D01*
X544813Y588513D01*
X542306Y590438D01*
X542211Y590704D01*
Y591697D01*
X542306Y591962D01*
X544813Y593887D01*
X547064Y596819D01*
X548479Y600235D01*
X548961Y603900D01*
X548479Y607565D01*
X547064Y610981D01*
X544813Y613913D01*
X542426Y615746D01*
X542339Y615976D01*
X542380Y617184D01*
X542426Y617278D01*
X544684Y619010D01*
X545000D01*
X545991Y619207D01*
X546831Y619769D01*
X547393Y620609D01*
X547590Y621600D01*
Y623148D01*
X548579Y625535D01*
X549061Y629200D01*
X548579Y632865D01*
X547590Y635253D01*
Y636600D01*
X547393Y637591D01*
X546831Y638431D01*
X545991Y638993D01*
X545000Y639190D01*
X544932D01*
X544913Y639213D01*
X541981Y641464D01*
X538565Y642879D01*
X534900Y643361D01*
D02*
G37*
G36*
X329500Y540127D02*
X324500D01*
X321879Y539782D01*
X319437Y538770D01*
X317339Y537161D01*
X315730Y535063D01*
X314987Y533270D01*
X313613D01*
X312870Y535063D01*
X311261Y537161D01*
X309163Y538770D01*
X306721Y539782D01*
X304100Y540127D01*
X299100D01*
X296479Y539782D01*
X294037Y538770D01*
X291939Y537161D01*
X290330Y535063D01*
X289318Y532621D01*
X288973Y530000D01*
X289318Y527379D01*
X290330Y524937D01*
X291939Y522839D01*
X294037Y521230D01*
X296479Y520218D01*
X299100Y519873D01*
X304100D01*
X306721Y520218D01*
X309163Y521230D01*
X311261Y522839D01*
X312870Y524937D01*
X313613Y526730D01*
X314987D01*
X315730Y524937D01*
X317339Y522839D01*
X319437Y521230D01*
X321879Y520218D01*
X324500Y519873D01*
X329500D01*
X332121Y520218D01*
X334563Y521230D01*
X336661Y522839D01*
X338270Y524937D01*
X339282Y527379D01*
X339627Y530000D01*
X339282Y532621D01*
X338270Y535063D01*
X336661Y537161D01*
X334563Y538770D01*
X332121Y539782D01*
X329500Y540127D01*
D02*
G37*
G36*
Y489327D02*
X324500D01*
X321879Y488982D01*
X319437Y487970D01*
X317339Y486361D01*
X315730Y484263D01*
X314987Y482470D01*
X313613D01*
X312870Y484263D01*
X311261Y486361D01*
X309163Y487970D01*
X306721Y488982D01*
X304100Y489327D01*
X299100D01*
X296479Y488982D01*
X294037Y487970D01*
X291939Y486361D01*
X290330Y484263D01*
X289318Y481821D01*
X288973Y479200D01*
X289318Y476579D01*
X290330Y474137D01*
X291939Y472039D01*
X294037Y470430D01*
X296479Y469418D01*
X299100Y469073D01*
X304100D01*
X306721Y469418D01*
X309163Y470430D01*
X311261Y472039D01*
X312870Y474137D01*
X313613Y475930D01*
X314987D01*
X315730Y474137D01*
X317339Y472039D01*
X319437Y470430D01*
X321879Y469418D01*
X324500Y469073D01*
X329500D01*
X332121Y469418D01*
X334563Y470430D01*
X336661Y472039D01*
X338270Y474137D01*
X339282Y476579D01*
X339627Y479200D01*
X339282Y481821D01*
X338270Y484263D01*
X336661Y486361D01*
X334563Y487970D01*
X332121Y488982D01*
X329500Y489327D01*
D02*
G37*
G36*
Y514727D02*
X324500D01*
X321879Y514382D01*
X319437Y513370D01*
X317339Y511761D01*
X315730Y509663D01*
X314987Y507870D01*
X313613D01*
X312870Y509663D01*
X311261Y511761D01*
X309163Y513370D01*
X306721Y514382D01*
X304100Y514727D01*
X299100D01*
X296479Y514382D01*
X294037Y513370D01*
X291939Y511761D01*
X290330Y509663D01*
X289318Y507221D01*
X288973Y504600D01*
X289318Y501979D01*
X290330Y499537D01*
X291939Y497439D01*
X294037Y495830D01*
X296479Y494818D01*
X299100Y494473D01*
X304100D01*
X306721Y494818D01*
X309163Y495830D01*
X311261Y497439D01*
X312870Y499537D01*
X313613Y501330D01*
X314987D01*
X315730Y499537D01*
X317339Y497439D01*
X319437Y495830D01*
X321879Y494818D01*
X324500Y494473D01*
X329500D01*
X332121Y494818D01*
X334563Y495830D01*
X336661Y497439D01*
X338270Y499537D01*
X339282Y501979D01*
X339627Y504600D01*
X339282Y507221D01*
X338270Y509663D01*
X336661Y511761D01*
X334563Y513370D01*
X332121Y514382D01*
X329500Y514727D01*
D02*
G37*
G36*
X375000Y613927D02*
X370000D01*
X367379Y613582D01*
X364937Y612570D01*
X362839Y610961D01*
X361230Y608863D01*
X360218Y606421D01*
X359873Y603800D01*
X360218Y601179D01*
X361230Y598737D01*
X362839Y596639D01*
X364937Y595030D01*
X367379Y594018D01*
X370000Y593673D01*
X375000D01*
X377621Y594018D01*
X380063Y595030D01*
X382161Y596639D01*
X383770Y598737D01*
X384782Y601179D01*
X385127Y603800D01*
X384782Y606421D01*
X383770Y608863D01*
X382161Y610961D01*
X380063Y612570D01*
X377621Y613582D01*
X375000Y613927D01*
D02*
G37*
G36*
X329500Y616327D02*
X324500D01*
X321879Y615982D01*
X319437Y614970D01*
X317339Y613361D01*
X315730Y611263D01*
X314987Y609470D01*
X313613D01*
X312870Y611263D01*
X311261Y613361D01*
X309163Y614970D01*
X306721Y615982D01*
X304100Y616327D01*
X299100D01*
X296479Y615982D01*
X294037Y614970D01*
X291939Y613361D01*
X290330Y611263D01*
X289318Y608821D01*
X288973Y606200D01*
X289318Y603579D01*
X290330Y601137D01*
X291939Y599039D01*
X294037Y597430D01*
X296479Y596418D01*
X299100Y596073D01*
X304100D01*
X306721Y596418D01*
X309163Y597430D01*
X311261Y599039D01*
X312870Y601137D01*
X313613Y602930D01*
X314987D01*
X315730Y601137D01*
X317339Y599039D01*
X319437Y597430D01*
X321879Y596418D01*
X324500Y596073D01*
X329500D01*
X332121Y596418D01*
X334563Y597430D01*
X336661Y599039D01*
X338270Y601137D01*
X339282Y603579D01*
X339627Y606200D01*
X339282Y608821D01*
X338270Y611263D01*
X336661Y613361D01*
X334563Y614970D01*
X332121Y615982D01*
X329500Y616327D01*
D02*
G37*
G36*
Y565527D02*
X324500D01*
X321879Y565182D01*
X319437Y564170D01*
X317339Y562561D01*
X315730Y560463D01*
X314987Y558670D01*
X313613D01*
X312870Y560463D01*
X311261Y562561D01*
X309163Y564170D01*
X306721Y565182D01*
X304100Y565527D01*
X299100D01*
X296479Y565182D01*
X294037Y564170D01*
X291939Y562561D01*
X290330Y560463D01*
X289318Y558021D01*
X288973Y555400D01*
X289318Y552779D01*
X290330Y550337D01*
X291939Y548239D01*
X294037Y546630D01*
X296479Y545618D01*
X299100Y545273D01*
X304100D01*
X306721Y545618D01*
X309163Y546630D01*
X311261Y548239D01*
X312870Y550337D01*
X313613Y552130D01*
X314987D01*
X315730Y550337D01*
X317339Y548239D01*
X319437Y546630D01*
X321879Y545618D01*
X324500Y545273D01*
X329500D01*
X332121Y545618D01*
X334563Y546630D01*
X336661Y548239D01*
X338270Y550337D01*
X339282Y552779D01*
X339627Y555400D01*
X339282Y558021D01*
X338270Y560463D01*
X336661Y562561D01*
X334563Y564170D01*
X332121Y565182D01*
X329500Y565527D01*
D02*
G37*
G36*
Y590927D02*
X324500D01*
X321879Y590582D01*
X319437Y589570D01*
X317339Y587961D01*
X315730Y585863D01*
X314987Y584070D01*
X313613D01*
X312870Y585863D01*
X311261Y587961D01*
X309163Y589570D01*
X306721Y590582D01*
X304100Y590927D01*
X299100D01*
X296479Y590582D01*
X294037Y589570D01*
X291939Y587961D01*
X290330Y585863D01*
X289318Y583421D01*
X288973Y580800D01*
X289318Y578179D01*
X290330Y575737D01*
X291939Y573639D01*
X294037Y572030D01*
X296479Y571018D01*
X299100Y570673D01*
X304100D01*
X306721Y571018D01*
X309163Y572030D01*
X311261Y573639D01*
X312870Y575737D01*
X313613Y577530D01*
X314987D01*
X315730Y575737D01*
X317339Y573639D01*
X319437Y572030D01*
X321879Y571018D01*
X324500Y570673D01*
X329500D01*
X332121Y571018D01*
X334563Y572030D01*
X336661Y573639D01*
X338270Y575737D01*
X339282Y578179D01*
X339627Y580800D01*
X339282Y583421D01*
X338270Y585863D01*
X336661Y587961D01*
X334563Y589570D01*
X332121Y590582D01*
X329500Y590927D01*
D02*
G37*
G36*
Y387727D02*
X324500D01*
X321879Y387382D01*
X319437Y386370D01*
X317339Y384761D01*
X315730Y382663D01*
X314987Y380870D01*
X313613D01*
X312870Y382663D01*
X311261Y384761D01*
X309163Y386370D01*
X306721Y387382D01*
X304100Y387727D01*
X299100D01*
X296479Y387382D01*
X294037Y386370D01*
X291939Y384761D01*
X290330Y382663D01*
X289318Y380221D01*
X288973Y377600D01*
X289318Y374979D01*
X290330Y372537D01*
X291939Y370439D01*
X294037Y368830D01*
X296479Y367818D01*
X299100Y367473D01*
X304100D01*
X306721Y367818D01*
X309163Y368830D01*
X311261Y370439D01*
X312870Y372537D01*
X313613Y374330D01*
X314987D01*
X315730Y372537D01*
X317339Y370439D01*
X319437Y368830D01*
X321879Y367818D01*
X324500Y367473D01*
X329500D01*
X332121Y367818D01*
X334563Y368830D01*
X336661Y370439D01*
X338270Y372537D01*
X339282Y374979D01*
X339627Y377600D01*
X339282Y380221D01*
X338270Y382663D01*
X336661Y384761D01*
X334563Y386370D01*
X332121Y387382D01*
X329500Y387727D01*
D02*
G37*
G36*
Y413127D02*
X324500D01*
X321879Y412782D01*
X319437Y411770D01*
X317339Y410161D01*
X315730Y408063D01*
X314987Y406270D01*
X313613D01*
X312870Y408063D01*
X311261Y410161D01*
X309163Y411770D01*
X306721Y412782D01*
X304100Y413127D01*
X299100D01*
X296479Y412782D01*
X294037Y411770D01*
X291939Y410161D01*
X290330Y408063D01*
X289318Y405621D01*
X288973Y403000D01*
X289318Y400379D01*
X290330Y397937D01*
X291939Y395839D01*
X294037Y394230D01*
X296479Y393218D01*
X299100Y392873D01*
X304100D01*
X306721Y393218D01*
X309163Y394230D01*
X311261Y395839D01*
X312870Y397937D01*
X313613Y399730D01*
X314987D01*
X315730Y397937D01*
X317339Y395839D01*
X319437Y394230D01*
X321879Y393218D01*
X324500Y392873D01*
X329500D01*
X332121Y393218D01*
X334563Y394230D01*
X336661Y395839D01*
X338270Y397937D01*
X339282Y400379D01*
X339627Y403000D01*
X339282Y405621D01*
X338270Y408063D01*
X336661Y410161D01*
X334563Y411770D01*
X332121Y412782D01*
X329500Y413127D01*
D02*
G37*
G36*
X800000Y411474D02*
X797522Y410982D01*
X795422Y409578D01*
X794018Y407478D01*
X793526Y405000D01*
X794018Y402522D01*
X795422Y400422D01*
X797522Y399018D01*
X800000Y398526D01*
X802478Y399018D01*
X804578Y400422D01*
X805982Y402522D01*
X806474Y405000D01*
X805982Y407478D01*
X804578Y409578D01*
X802478Y410982D01*
X800000Y411474D01*
D02*
G37*
G36*
X1184000Y361532D02*
X1182266Y361187D01*
X1180795Y360205D01*
X1179813Y358734D01*
X1179647Y357902D01*
X1178353D01*
X1178187Y358734D01*
X1177205Y360205D01*
X1175734Y361187D01*
X1174000Y361532D01*
X1172266Y361187D01*
X1170795Y360205D01*
X1169813Y358734D01*
X1169647Y357902D01*
X1168353D01*
X1168187Y358734D01*
X1167205Y360205D01*
X1165734Y361187D01*
X1164000Y361532D01*
X1162266Y361187D01*
X1160795Y360205D01*
X1159813Y358734D01*
X1159468Y357000D01*
X1159813Y355266D01*
X1160795Y353795D01*
X1162266Y352813D01*
X1164000Y352468D01*
X1165734Y352813D01*
X1167205Y353795D01*
X1168187Y355266D01*
X1168353Y356097D01*
X1169647D01*
X1169813Y355266D01*
X1170795Y353795D01*
X1172266Y352813D01*
X1174000Y352468D01*
X1175734Y352813D01*
X1177205Y353795D01*
X1178187Y355266D01*
X1178353Y356097D01*
X1179647D01*
X1179813Y355266D01*
X1180795Y353795D01*
X1182266Y352813D01*
X1184000Y352468D01*
X1185734Y352813D01*
X1187205Y353795D01*
X1188187Y355266D01*
X1188532Y357000D01*
X1188187Y358734D01*
X1187205Y360205D01*
X1185734Y361187D01*
X1184000Y361532D01*
D02*
G37*
G36*
X329500Y362327D02*
X324500D01*
X321879Y361982D01*
X319437Y360970D01*
X317339Y359361D01*
X315730Y357263D01*
X314987Y355470D01*
X313613D01*
X312870Y357263D01*
X311261Y359361D01*
X309163Y360970D01*
X306721Y361982D01*
X304100Y362327D01*
X299100D01*
X296479Y361982D01*
X294037Y360970D01*
X291939Y359361D01*
X290330Y357263D01*
X289318Y354821D01*
X288973Y352200D01*
X289318Y349579D01*
X290330Y347137D01*
X291939Y345039D01*
X294037Y343430D01*
X296479Y342418D01*
X299100Y342073D01*
X304100D01*
X306721Y342418D01*
X309163Y343430D01*
X311261Y345039D01*
X312870Y347137D01*
X313613Y348930D01*
X314987D01*
X315730Y347137D01*
X317339Y345039D01*
X319437Y343430D01*
X321879Y342418D01*
X324500Y342073D01*
X329500D01*
X332121Y342418D01*
X334563Y343430D01*
X336661Y345039D01*
X338270Y347137D01*
X339282Y349579D01*
X339627Y352200D01*
X339282Y354821D01*
X338270Y357263D01*
X336661Y359361D01*
X334563Y360970D01*
X332121Y361982D01*
X329500Y362327D01*
D02*
G37*
G36*
X822000Y381474D02*
X819522Y380982D01*
X817422Y379578D01*
X816018Y377478D01*
X815526Y375000D01*
X816018Y372522D01*
X817422Y370422D01*
X819522Y369018D01*
X822000Y368526D01*
X824478Y369018D01*
X826578Y370422D01*
X827982Y372522D01*
X828474Y375000D01*
X827982Y377478D01*
X826578Y379578D01*
X824478Y380982D01*
X822000Y381474D01*
D02*
G37*
G36*
X265000Y386532D02*
X263266Y386187D01*
X261795Y385205D01*
X260813Y383734D01*
X260468Y382000D01*
X260813Y380266D01*
X261795Y378795D01*
X263266Y377813D01*
X265000Y377468D01*
X266734Y377813D01*
X268205Y378795D01*
X269187Y380266D01*
X269532Y382000D01*
X269187Y383734D01*
X268205Y385205D01*
X266734Y386187D01*
X265000Y386532D01*
D02*
G37*
G36*
X876000Y381474D02*
X873522Y380982D01*
X871422Y379578D01*
X870018Y377478D01*
X869526Y375000D01*
X870018Y372522D01*
X871422Y370422D01*
X873522Y369018D01*
X876000Y368526D01*
X878478Y369018D01*
X880578Y370422D01*
X881982Y372522D01*
X882474Y375000D01*
X881982Y377478D01*
X880578Y379578D01*
X878478Y380982D01*
X876000Y381474D01*
D02*
G37*
G36*
X733400Y771227D02*
X730779Y770882D01*
X728337Y769870D01*
X726239Y768261D01*
X724630Y766163D01*
X723618Y763721D01*
X723273Y761100D01*
Y756100D01*
X723618Y753479D01*
X724630Y751037D01*
X726239Y748939D01*
X728337Y747330D01*
X730779Y746318D01*
X733400Y745973D01*
X736021Y746318D01*
X738463Y747330D01*
X739074Y747799D01*
X770374Y716498D01*
Y688000D01*
X770374Y688000D01*
X770650Y686612D01*
X771436Y685436D01*
X852436Y604436D01*
X852436Y604436D01*
X853613Y603650D01*
X855000Y603374D01*
X855000Y603374D01*
X889498D01*
X903374Y589498D01*
Y555000D01*
X903374Y555000D01*
X903650Y553613D01*
X904436Y552436D01*
X973436Y483436D01*
X974613Y482650D01*
X976000Y482374D01*
X976000Y482374D01*
X1157148D01*
X1176766Y462757D01*
X1176963Y461766D01*
X1177945Y460295D01*
X1179416Y459313D01*
X1181150Y458968D01*
X1182884Y459313D01*
X1184355Y460295D01*
X1185337Y461766D01*
X1185682Y463500D01*
X1185337Y465234D01*
X1184355Y466705D01*
X1182884Y467687D01*
X1181893Y467884D01*
X1161214Y488564D01*
X1160038Y489350D01*
X1158650Y489626D01*
X1158650Y489626D01*
X977502D01*
X910626Y556502D01*
Y591000D01*
X910626Y591000D01*
X910350Y592388D01*
X909564Y593564D01*
X909564Y593564D01*
X893564Y609564D01*
X892387Y610350D01*
X891000Y610626D01*
X891000Y610626D01*
X856502D01*
X777626Y689502D01*
Y718000D01*
X777350Y719388D01*
X776564Y720564D01*
X776564Y720564D01*
X743236Y753892D01*
X743527Y756100D01*
Y761100D01*
X743182Y763721D01*
X742170Y766163D01*
X740561Y768261D01*
X738463Y769870D01*
X736021Y770882D01*
X733400Y771227D01*
D02*
G37*
G36*
X920000Y438474D02*
X917522Y437982D01*
X915422Y436578D01*
X915135Y436149D01*
X913865D01*
X913578Y436578D01*
X911478Y437982D01*
X909000Y438474D01*
X906522Y437982D01*
X904422Y436578D01*
X903018Y434478D01*
X902526Y432000D01*
X903018Y429522D01*
X904422Y427422D01*
X904851Y427135D01*
Y425865D01*
X904422Y425578D01*
X903018Y423478D01*
X902526Y421000D01*
X903018Y418522D01*
X904422Y416422D01*
X904851Y416135D01*
Y414865D01*
X904422Y414578D01*
X903018Y412478D01*
X902526Y410000D01*
X903018Y407522D01*
X904422Y405422D01*
X904851Y405135D01*
Y403865D01*
X904422Y403578D01*
X903018Y401478D01*
X902526Y399000D01*
X903018Y396522D01*
X904422Y394422D01*
X904851Y394135D01*
Y392865D01*
X904422Y392578D01*
X903018Y390478D01*
X902526Y388000D01*
X903018Y385522D01*
X904422Y383422D01*
X906522Y382018D01*
X909000Y381526D01*
X911478Y382018D01*
X913578Y383422D01*
X913865Y383851D01*
X915135D01*
X915422Y383422D01*
X917522Y382018D01*
X920000Y381526D01*
X922478Y382018D01*
X924578Y383422D01*
X925982Y385522D01*
X926474Y388000D01*
X925982Y390478D01*
X924578Y392578D01*
X924149Y392865D01*
Y394135D01*
X924578Y394422D01*
X925982Y396522D01*
X926474Y399000D01*
X925982Y401478D01*
X924578Y403578D01*
X924149Y403865D01*
Y405135D01*
X924578Y405422D01*
X925982Y407522D01*
X926474Y410000D01*
X925982Y412478D01*
X924578Y414578D01*
X924149Y414865D01*
Y416135D01*
X924578Y416422D01*
X925982Y418522D01*
X926474Y421000D01*
X925982Y423478D01*
X924578Y425578D01*
X924149Y425865D01*
Y427135D01*
X924578Y427422D01*
X925982Y429522D01*
X926474Y432000D01*
X925982Y434478D01*
X924578Y436578D01*
X922478Y437982D01*
X920000Y438474D01*
D02*
G37*
G36*
X1187500Y435127D02*
X1184879Y434782D01*
X1182437Y433770D01*
X1180339Y432161D01*
X1178730Y430063D01*
X1177718Y427621D01*
X1177373Y425000D01*
X1177718Y422379D01*
X1178730Y419937D01*
X1180339Y417839D01*
X1182437Y416230D01*
X1184879Y415218D01*
X1187500Y414873D01*
X1190121Y415218D01*
X1192563Y416230D01*
X1194661Y417839D01*
X1196270Y419937D01*
X1197282Y422379D01*
X1197627Y425000D01*
X1197282Y427621D01*
X1196270Y430063D01*
X1194661Y432161D01*
X1192563Y433770D01*
X1190121Y434782D01*
X1187500Y435127D01*
D02*
G37*
G36*
X822000Y442474D02*
X819522Y441982D01*
X817422Y440578D01*
X816018Y438478D01*
X815526Y436000D01*
X816018Y433522D01*
X817422Y431422D01*
X819522Y430018D01*
X822000Y429526D01*
X824478Y430018D01*
X826578Y431422D01*
X827982Y433522D01*
X828474Y436000D01*
X827982Y438478D01*
X826578Y440578D01*
X824478Y441982D01*
X822000Y442474D01*
D02*
G37*
G36*
X1045000Y433532D02*
X1043266Y433187D01*
X1042000Y432341D01*
X1040734Y433187D01*
X1039000Y433532D01*
X1037266Y433187D01*
X1035795Y432205D01*
X1034813Y430734D01*
X1034468Y429000D01*
X1034813Y427266D01*
X1035795Y425795D01*
X1037266Y424813D01*
X1039000Y424468D01*
X1040734Y424813D01*
X1042000Y425659D01*
X1043266Y424813D01*
X1045000Y424468D01*
X1046734Y424813D01*
X1048205Y425795D01*
X1049187Y427266D01*
X1049532Y429000D01*
X1049187Y430734D01*
X1048205Y432205D01*
X1046734Y433187D01*
X1045000Y433532D01*
D02*
G37*
G36*
X876000Y442474D02*
X873522Y441982D01*
X871422Y440578D01*
X870018Y438478D01*
X869526Y436000D01*
X870018Y433522D01*
X871422Y431422D01*
X873522Y430018D01*
X876000Y429526D01*
X878478Y430018D01*
X880578Y431422D01*
X881982Y433522D01*
X882474Y436000D01*
X881982Y438478D01*
X880578Y440578D01*
X878478Y441982D01*
X876000Y442474D01*
D02*
G37*
G36*
X375000Y297327D02*
X370000D01*
X367379Y296982D01*
X364937Y295970D01*
X362839Y294361D01*
X361230Y292263D01*
X360218Y289821D01*
X359873Y287200D01*
X360218Y284579D01*
X361230Y282137D01*
X362839Y280039D01*
X364937Y278430D01*
X367379Y277418D01*
X370000Y277073D01*
X375000D01*
X377621Y277418D01*
X380063Y278430D01*
X382161Y280039D01*
X383770Y282137D01*
X384782Y284579D01*
X385127Y287200D01*
X384782Y289821D01*
X383770Y292263D01*
X382161Y294361D01*
X380063Y295970D01*
X377621Y296982D01*
X375000Y297327D01*
D02*
G37*
G36*
X1170000Y284032D02*
X1168266Y283687D01*
X1166795Y282705D01*
X1165813Y281234D01*
X1165468Y279500D01*
X1165813Y277766D01*
X1166795Y276295D01*
X1168266Y275313D01*
X1170000Y274968D01*
X1171734Y275313D01*
X1173205Y276295D01*
X1174187Y277766D01*
X1174532Y279500D01*
X1174187Y281234D01*
X1173205Y282705D01*
X1171734Y283687D01*
X1170000Y284032D01*
D02*
G37*
G36*
X572500Y297327D02*
X567500D01*
X564879Y296982D01*
X562437Y295970D01*
X560339Y294361D01*
X558730Y292263D01*
X557718Y289821D01*
X557373Y287200D01*
X557718Y284579D01*
X558730Y282137D01*
X560339Y280039D01*
X562437Y278430D01*
X564879Y277418D01*
X567500Y277073D01*
X572500D01*
X575121Y277418D01*
X577563Y278430D01*
X579661Y280039D01*
X581270Y282137D01*
X582282Y284579D01*
X582627Y287200D01*
X582282Y289821D01*
X581270Y292263D01*
X579661Y294361D01*
X577563Y295970D01*
X575121Y296982D01*
X572500Y297327D01*
D02*
G37*
G36*
X1002000Y289474D02*
X999522Y288982D01*
X997422Y287578D01*
X997135Y287149D01*
X995865D01*
X995578Y287578D01*
X993478Y288982D01*
X991000Y289474D01*
X988522Y288982D01*
X986422Y287578D01*
X985018Y285478D01*
X984526Y283000D01*
X985018Y280522D01*
X986422Y278422D01*
X986851Y278135D01*
Y276865D01*
X986422Y276578D01*
X985018Y274478D01*
X984526Y272000D01*
X985018Y269522D01*
X986422Y267422D01*
X988522Y266018D01*
X991000Y265526D01*
X993478Y266018D01*
X995578Y267422D01*
X995865Y267851D01*
X997135D01*
X997422Y267422D01*
X999522Y266018D01*
X1002000Y265526D01*
X1004478Y266018D01*
X1006578Y267422D01*
X1007982Y269522D01*
X1008474Y272000D01*
X1007982Y274478D01*
X1006578Y276578D01*
X1006149Y276865D01*
Y278135D01*
X1006578Y278422D01*
X1007982Y280522D01*
X1008474Y283000D01*
X1007982Y285478D01*
X1006578Y287578D01*
X1004478Y288982D01*
X1002000Y289474D01*
D02*
G37*
G36*
X901040Y288627D02*
X898419Y288282D01*
X895977Y287270D01*
X893879Y285661D01*
X892270Y283563D01*
X891258Y281121D01*
X890913Y278500D01*
Y273500D01*
X891258Y270879D01*
X892270Y268437D01*
X893879Y266339D01*
X895977Y264730D01*
X898419Y263718D01*
X901040Y263373D01*
X903661Y263718D01*
X906103Y264730D01*
X908201Y266339D01*
X909810Y268437D01*
X910822Y270879D01*
X911167Y273500D01*
Y278500D01*
X910822Y281121D01*
X909810Y283563D01*
X908201Y285661D01*
X906103Y287270D01*
X903661Y288282D01*
X901040Y288627D01*
D02*
G37*
G36*
X875640D02*
X873019Y288282D01*
X870577Y287270D01*
X868479Y285661D01*
X866870Y283563D01*
X865858Y281121D01*
X865513Y278500D01*
Y273500D01*
X865858Y270879D01*
X866870Y268437D01*
X868479Y266339D01*
X870577Y264730D01*
X873019Y263718D01*
X875640Y263373D01*
X878261Y263718D01*
X880703Y264730D01*
X882801Y266339D01*
X884410Y268437D01*
X885422Y270879D01*
X885767Y273500D01*
Y278500D01*
X885422Y281121D01*
X884410Y283563D01*
X882801Y285661D01*
X880703Y287270D01*
X878261Y288282D01*
X875640Y288627D01*
D02*
G37*
G36*
X817100Y288590D02*
X802100D01*
X801109Y288393D01*
X800269Y287831D01*
X799707Y286991D01*
X799510Y286000D01*
Y266000D01*
X799707Y265009D01*
X800269Y264169D01*
X801109Y263607D01*
X802100Y263410D01*
X817100D01*
X818091Y263607D01*
X818931Y264169D01*
X819493Y265009D01*
X819690Y266000D01*
Y286000D01*
X819493Y286991D01*
X818931Y287831D01*
X818091Y288393D01*
X817100Y288590D01*
D02*
G37*
G36*
X304100Y286127D02*
X299100D01*
X296479Y285782D01*
X294037Y284770D01*
X291939Y283161D01*
X290330Y281063D01*
X289318Y278621D01*
X288973Y276000D01*
X289318Y273379D01*
X290330Y270937D01*
X291939Y268839D01*
X294037Y267230D01*
X296479Y266218D01*
X299100Y265873D01*
X304100D01*
X306721Y266218D01*
X309163Y267230D01*
X311261Y268839D01*
X312870Y270937D01*
X313140Y271589D01*
X314410Y271337D01*
Y268500D01*
X314607Y267509D01*
X315169Y266669D01*
X316009Y266107D01*
X317000Y265910D01*
X337000D01*
X337991Y266107D01*
X338831Y266669D01*
X339393Y267509D01*
X339590Y268500D01*
Y283500D01*
X339393Y284491D01*
X338831Y285331D01*
X337991Y285893D01*
X337000Y286090D01*
X317000D01*
X316009Y285893D01*
X315169Y285331D01*
X314607Y284491D01*
X314410Y283500D01*
Y280663D01*
X313140Y280411D01*
X312870Y281063D01*
X311261Y283161D01*
X309163Y284770D01*
X306721Y285782D01*
X304100Y286127D01*
D02*
G37*
G36*
X857740Y288590D02*
X842740D01*
X841749Y288393D01*
X840909Y287831D01*
X840347Y286991D01*
X840150Y286000D01*
Y266000D01*
X840347Y265009D01*
X840909Y264169D01*
X841749Y263607D01*
X842740Y263410D01*
X857740D01*
X858731Y263607D01*
X859571Y264169D01*
X860133Y265009D01*
X860330Y266000D01*
Y286000D01*
X860133Y286991D01*
X859571Y287831D01*
X858731Y288393D01*
X857740Y288590D01*
D02*
G37*
G36*
X988000Y327032D02*
X986266Y326687D01*
X985425Y326126D01*
X887000D01*
X887000Y326126D01*
X885612Y325850D01*
X884436Y325064D01*
X883757Y324384D01*
X882766Y324187D01*
X881295Y323205D01*
X880313Y321734D01*
X879968Y320000D01*
X880313Y318266D01*
X881295Y316795D01*
X882766Y315813D01*
X884500Y315468D01*
X886234Y315813D01*
X887705Y316795D01*
X888687Y318266D01*
X888808Y318874D01*
X985425D01*
X986266Y318313D01*
X988000Y317968D01*
X989734Y318313D01*
X991205Y319295D01*
X992187Y320766D01*
X992532Y322500D01*
X992187Y324234D01*
X991205Y325705D01*
X989734Y326687D01*
X988000Y327032D01*
D02*
G37*
G36*
X265000Y331532D02*
X263266Y331187D01*
X261795Y330205D01*
X260813Y328734D01*
X260468Y327000D01*
X260813Y325266D01*
X261795Y323795D01*
X263266Y322813D01*
X265000Y322468D01*
X266734Y322813D01*
X268205Y323795D01*
X269187Y325266D01*
X269532Y327000D01*
X269187Y328734D01*
X268205Y330205D01*
X266734Y331187D01*
X265000Y331532D01*
D02*
G37*
G36*
X375000Y348127D02*
X370000D01*
X367379Y347782D01*
X364937Y346770D01*
X362839Y345161D01*
X361230Y343063D01*
X360218Y340621D01*
X359873Y338000D01*
X360218Y335379D01*
X361230Y332937D01*
X362839Y330839D01*
X364937Y329230D01*
X367379Y328218D01*
X370000Y327873D01*
X375000D01*
X377621Y328218D01*
X380063Y329230D01*
X382161Y330839D01*
X383770Y332937D01*
X384782Y335379D01*
X385127Y338000D01*
X384782Y340621D01*
X383770Y343063D01*
X382161Y345161D01*
X380063Y346770D01*
X377621Y347782D01*
X375000Y348127D01*
D02*
G37*
G36*
X935000Y341532D02*
X933266Y341187D01*
X931795Y340205D01*
X930813Y338734D01*
X930468Y337000D01*
X930813Y335266D01*
X931795Y333795D01*
X933266Y332813D01*
X935000Y332468D01*
X936734Y332813D01*
X938205Y333795D01*
X939187Y335266D01*
X939532Y337000D01*
X939187Y338734D01*
X938205Y340205D01*
X936734Y341187D01*
X935000Y341532D01*
D02*
G37*
G36*
X329500Y336927D02*
X324500D01*
X321879Y336582D01*
X319437Y335570D01*
X317339Y333961D01*
X315730Y331863D01*
X314987Y330070D01*
X313613D01*
X312870Y331863D01*
X311261Y333961D01*
X309163Y335570D01*
X306721Y336582D01*
X304100Y336927D01*
X299100D01*
X296479Y336582D01*
X294037Y335570D01*
X291939Y333961D01*
X290330Y331863D01*
X289318Y329421D01*
X288973Y326800D01*
X289318Y324179D01*
X290330Y321737D01*
X291939Y319639D01*
X294037Y318030D01*
X296479Y317018D01*
X299100Y316673D01*
X304100D01*
X306721Y317018D01*
X309163Y318030D01*
X311261Y319639D01*
X312870Y321737D01*
X313613Y323530D01*
X314987D01*
X315730Y321737D01*
X317339Y319639D01*
X319437Y318030D01*
X321879Y317018D01*
X324500Y316673D01*
X329500D01*
X332121Y317018D01*
X334563Y318030D01*
X336661Y319639D01*
X338270Y321737D01*
X339282Y324179D01*
X339627Y326800D01*
X339282Y329421D01*
X338270Y331863D01*
X336661Y333961D01*
X334563Y335570D01*
X332121Y336582D01*
X329500Y336927D01*
D02*
G37*
G36*
Y311527D02*
X324500D01*
X321879Y311182D01*
X319437Y310170D01*
X317339Y308561D01*
X315730Y306463D01*
X314987Y304670D01*
X313613D01*
X312870Y306463D01*
X311261Y308561D01*
X309163Y310170D01*
X306721Y311182D01*
X304100Y311527D01*
X299100D01*
X296479Y311182D01*
X294037Y310170D01*
X291939Y308561D01*
X290330Y306463D01*
X289318Y304021D01*
X288973Y301400D01*
X289318Y298779D01*
X290330Y296337D01*
X291939Y294239D01*
X294037Y292630D01*
X296479Y291618D01*
X299100Y291273D01*
X304100D01*
X306721Y291618D01*
X309163Y292630D01*
X311261Y294239D01*
X312870Y296337D01*
X313613Y298130D01*
X314987D01*
X315730Y296337D01*
X317339Y294239D01*
X319437Y292630D01*
X321879Y291618D01*
X324500Y291273D01*
X329500D01*
X332121Y291618D01*
X334563Y292630D01*
X336661Y294239D01*
X338270Y296337D01*
X339282Y298779D01*
X339627Y301400D01*
X339282Y304021D01*
X338270Y306463D01*
X336661Y308561D01*
X334563Y310170D01*
X332121Y311182D01*
X329500Y311527D01*
D02*
G37*
G36*
X1126000Y305474D02*
X1123522Y304982D01*
X1121422Y303578D01*
X1121135Y303149D01*
X1119865D01*
X1119578Y303578D01*
X1117478Y304982D01*
X1115000Y305474D01*
X1112522Y304982D01*
X1110422Y303578D01*
X1109018Y301478D01*
X1108526Y299000D01*
X1109018Y296522D01*
X1110422Y294422D01*
X1110851Y294135D01*
Y292865D01*
X1110422Y292578D01*
X1109018Y290478D01*
X1108526Y288000D01*
X1109018Y285522D01*
X1110422Y283422D01*
X1112522Y282018D01*
X1115000Y281526D01*
X1117478Y282018D01*
X1119578Y283422D01*
X1119865Y283851D01*
X1121135D01*
X1121422Y283422D01*
X1123522Y282018D01*
X1126000Y281526D01*
X1128478Y282018D01*
X1130578Y283422D01*
X1131982Y285522D01*
X1132474Y288000D01*
X1131982Y290478D01*
X1130578Y292578D01*
X1130149Y292865D01*
Y294135D01*
X1130578Y294422D01*
X1131982Y296522D01*
X1132474Y299000D01*
X1131982Y301478D01*
X1130578Y303578D01*
X1128478Y304982D01*
X1126000Y305474D01*
D02*
G37*
G36*
X1057000Y313474D02*
X1054522Y312982D01*
X1052422Y311578D01*
X1052135Y311149D01*
X1050865D01*
X1050578Y311578D01*
X1048478Y312982D01*
X1046000Y313474D01*
X1043522Y312982D01*
X1041422Y311578D01*
X1040018Y309478D01*
X1039526Y307000D01*
X1040018Y304522D01*
X1041422Y302422D01*
X1041851Y302135D01*
Y300865D01*
X1041422Y300578D01*
X1040018Y298478D01*
X1039526Y296000D01*
X1040018Y293522D01*
X1041422Y291422D01*
X1043522Y290018D01*
X1046000Y289526D01*
X1048478Y290018D01*
X1050578Y291422D01*
X1050865Y291851D01*
X1052135D01*
X1052422Y291422D01*
X1054522Y290018D01*
X1057000Y289526D01*
X1059478Y290018D01*
X1061578Y291422D01*
X1062982Y293522D01*
X1063474Y296000D01*
X1062982Y298478D01*
X1061578Y300578D01*
X1061149Y300865D01*
Y302135D01*
X1061578Y302422D01*
X1062982Y304522D01*
X1063474Y307000D01*
X1062982Y309478D01*
X1061578Y311578D01*
X1059478Y312982D01*
X1057000Y313474D01*
D02*
G37*
G36*
X800000Y331474D02*
X797522Y330982D01*
X795422Y329578D01*
X794018Y327478D01*
X793526Y325000D01*
X794018Y322522D01*
X795422Y320422D01*
X797522Y319018D01*
X800000Y318526D01*
X802478Y319018D01*
X804578Y320422D01*
X805982Y322522D01*
X806474Y325000D01*
X805982Y327478D01*
X804578Y329578D01*
X802478Y330982D01*
X800000Y331474D01*
D02*
G37*
G36*
X1200000Y337648D02*
X1196726Y337217D01*
X1193676Y335954D01*
X1191056Y333944D01*
X1189046Y331324D01*
X1187783Y328274D01*
X1187352Y325000D01*
X1187783Y321726D01*
X1189046Y318676D01*
X1191056Y316056D01*
X1193676Y314046D01*
X1196726Y312783D01*
X1200000Y312352D01*
X1203274Y312783D01*
X1206324Y314046D01*
X1208944Y316056D01*
X1210954Y318676D01*
X1212217Y321726D01*
X1212648Y325000D01*
X1212217Y328274D01*
X1210954Y331324D01*
X1208944Y333944D01*
X1206324Y335954D01*
X1203274Y337217D01*
X1200000Y337648D01*
D02*
G37*
G36*
X797500Y492627D02*
X794879Y492282D01*
X792437Y491270D01*
X790339Y489661D01*
X788730Y487563D01*
X787718Y485121D01*
X787373Y482500D01*
X787718Y479879D01*
X788730Y477437D01*
X790339Y475339D01*
X792437Y473730D01*
X794879Y472718D01*
X797500Y472373D01*
X800121Y472718D01*
X802563Y473730D01*
X804661Y475339D01*
X806270Y477437D01*
X807282Y479879D01*
X807627Y482500D01*
X807282Y485121D01*
X806270Y487563D01*
X804661Y489661D01*
X802563Y491270D01*
X800121Y492282D01*
X797500Y492627D01*
D02*
G37*
G36*
X699500Y690127D02*
X694500D01*
X691879Y689782D01*
X689437Y688770D01*
X687339Y687161D01*
X685730Y685063D01*
X684718Y682621D01*
X684373Y680000D01*
X684718Y677379D01*
X685730Y674937D01*
X687339Y672839D01*
X689437Y671230D01*
X691879Y670218D01*
X694500Y669873D01*
X699500D01*
X702121Y670218D01*
X704563Y671230D01*
X706661Y672839D01*
X708270Y674937D01*
X709282Y677379D01*
X709627Y680000D01*
X709282Y682621D01*
X708270Y685063D01*
X706661Y687161D01*
X704563Y688770D01*
X702121Y689782D01*
X699500Y690127D01*
D02*
G37*
G36*
X1200000Y685532D02*
X1198266Y685187D01*
X1196795Y684205D01*
X1195813Y682734D01*
X1195468Y681000D01*
X1195813Y679266D01*
X1196795Y677795D01*
X1198266Y676813D01*
X1199097Y676647D01*
Y675352D01*
X1198266Y675187D01*
X1196795Y674205D01*
X1195813Y672734D01*
X1195468Y671000D01*
X1195813Y669266D01*
X1196795Y667795D01*
X1198266Y666813D01*
X1199098Y666647D01*
Y665353D01*
X1198266Y665187D01*
X1196795Y664205D01*
X1195813Y662734D01*
X1195468Y661000D01*
X1195813Y659266D01*
X1196795Y657795D01*
X1198266Y656813D01*
X1200000Y656468D01*
X1201734Y656813D01*
X1203205Y657795D01*
X1204187Y659266D01*
X1204532Y661000D01*
X1204187Y662734D01*
X1203205Y664205D01*
X1201734Y665187D01*
X1200902Y665353D01*
Y666647D01*
X1201734Y666813D01*
X1203205Y667795D01*
X1204187Y669266D01*
X1204532Y671000D01*
X1204187Y672734D01*
X1203205Y674205D01*
X1201734Y675187D01*
X1200902Y675352D01*
Y676647D01*
X1201734Y676813D01*
X1203205Y677795D01*
X1204187Y679266D01*
X1204532Y681000D01*
X1204187Y682734D01*
X1203205Y684205D01*
X1201734Y685187D01*
X1200000Y685532D01*
D02*
G37*
G36*
X797500Y702627D02*
X794879Y702282D01*
X792437Y701270D01*
X790339Y699661D01*
X788730Y697563D01*
X787718Y695121D01*
X787373Y692500D01*
X787718Y689879D01*
X788730Y687437D01*
X790339Y685339D01*
X792437Y683730D01*
X794879Y682718D01*
X797500Y682373D01*
X800121Y682718D01*
X802563Y683730D01*
X804661Y685339D01*
X806270Y687437D01*
X807282Y689879D01*
X807627Y692500D01*
X807282Y695121D01*
X806270Y697563D01*
X804661Y699661D01*
X802563Y701270D01*
X800121Y702282D01*
X797500Y702627D01*
D02*
G37*
G36*
X862250Y692474D02*
X859772Y691982D01*
X857672Y690578D01*
X856268Y688478D01*
X855776Y686000D01*
X856268Y683522D01*
X857672Y681422D01*
X859772Y680018D01*
X862250Y679526D01*
X864728Y680018D01*
X866828Y681422D01*
X868232Y683522D01*
X868724Y686000D01*
X868232Y688478D01*
X866828Y690578D01*
X864728Y691982D01*
X862250Y692474D01*
D02*
G37*
G36*
X1056000Y646474D02*
X1053522Y645982D01*
X1051422Y644578D01*
X1051135Y644149D01*
X1049865D01*
X1049578Y644578D01*
X1047478Y645982D01*
X1045000Y646474D01*
X1042522Y645982D01*
X1040422Y644578D01*
X1039018Y642478D01*
X1038526Y640000D01*
X1039018Y637522D01*
X1040422Y635422D01*
X1040851Y635135D01*
Y633865D01*
X1040422Y633578D01*
X1039018Y631478D01*
X1038526Y629000D01*
X1039018Y626522D01*
X1040422Y624422D01*
X1042522Y623018D01*
X1045000Y622526D01*
X1047478Y623018D01*
X1049578Y624422D01*
X1049865Y624851D01*
X1051135D01*
X1051422Y624422D01*
X1053522Y623018D01*
X1056000Y622526D01*
X1058478Y623018D01*
X1060578Y624422D01*
X1061982Y626522D01*
X1062474Y629000D01*
X1061982Y631478D01*
X1060578Y633578D01*
X1060149Y633865D01*
Y635135D01*
X1060578Y635422D01*
X1061982Y637522D01*
X1062474Y640000D01*
X1061982Y642478D01*
X1060578Y644578D01*
X1058478Y645982D01*
X1056000Y646474D01*
D02*
G37*
G36*
X985500Y652032D02*
X983766Y651687D01*
X982295Y650705D01*
X981313Y649234D01*
X980968Y647500D01*
X981313Y645766D01*
X982295Y644295D01*
X983766Y643313D01*
X985500Y642968D01*
X987234Y643313D01*
X988705Y644295D01*
X989687Y645766D01*
X990032Y647500D01*
X989687Y649234D01*
X988705Y650705D01*
X987234Y651687D01*
X985500Y652032D01*
D02*
G37*
G36*
X1126000Y646474D02*
X1123522Y645982D01*
X1121422Y644578D01*
X1121135Y644149D01*
X1119865D01*
X1119578Y644578D01*
X1117478Y645982D01*
X1115000Y646474D01*
X1112522Y645982D01*
X1110422Y644578D01*
X1109018Y642478D01*
X1108526Y640000D01*
X1109018Y637522D01*
X1110422Y635422D01*
X1110851Y635135D01*
Y633865D01*
X1110422Y633578D01*
X1109018Y631478D01*
X1108526Y629000D01*
X1109018Y626522D01*
X1110422Y624422D01*
X1112522Y623018D01*
X1115000Y622526D01*
X1117478Y623018D01*
X1119578Y624422D01*
X1119865Y624851D01*
X1121135D01*
X1121422Y624422D01*
X1123522Y623018D01*
X1126000Y622526D01*
X1128478Y623018D01*
X1130578Y624422D01*
X1131982Y626522D01*
X1132474Y629000D01*
X1131982Y631478D01*
X1130578Y633578D01*
X1130149Y633865D01*
Y635135D01*
X1130578Y635422D01*
X1131982Y637522D01*
X1132474Y640000D01*
X1131982Y642478D01*
X1130578Y644578D01*
X1128478Y645982D01*
X1126000Y646474D01*
D02*
G37*
G36*
X631800Y771227D02*
X629179Y770882D01*
X626737Y769870D01*
X624639Y768261D01*
X623030Y766163D01*
X622018Y763721D01*
X621673Y761100D01*
Y756100D01*
X622018Y753479D01*
X623030Y751037D01*
X624639Y748939D01*
X626737Y747330D01*
X629179Y746318D01*
X631800Y745973D01*
X634421Y746318D01*
X636863Y747330D01*
X638961Y748939D01*
X640570Y751037D01*
X641582Y753479D01*
X641927Y756100D01*
Y761100D01*
X641582Y763721D01*
X640570Y766163D01*
X638961Y768261D01*
X636863Y769870D01*
X634421Y770882D01*
X631800Y771227D01*
D02*
G37*
G36*
X606400D02*
X603779Y770882D01*
X601337Y769870D01*
X599239Y768261D01*
X597630Y766163D01*
X596618Y763721D01*
X596273Y761100D01*
Y756100D01*
X596618Y753479D01*
X597630Y751037D01*
X599239Y748939D01*
X601337Y747330D01*
X603779Y746318D01*
X606400Y745973D01*
X609021Y746318D01*
X611463Y747330D01*
X613561Y748939D01*
X615170Y751037D01*
X616182Y753479D01*
X616527Y756100D01*
Y761100D01*
X616182Y763721D01*
X615170Y766163D01*
X613561Y768261D01*
X611463Y769870D01*
X609021Y770882D01*
X606400Y771227D01*
D02*
G37*
G36*
X657200D02*
X654579Y770882D01*
X652137Y769870D01*
X650039Y768261D01*
X648430Y766163D01*
X647418Y763721D01*
X647073Y761100D01*
Y756100D01*
X647418Y753479D01*
X648430Y751037D01*
X650039Y748939D01*
X652137Y747330D01*
X654579Y746318D01*
X657200Y745973D01*
X659821Y746318D01*
X662263Y747330D01*
X664361Y748939D01*
X665970Y751037D01*
X666982Y753479D01*
X667327Y756100D01*
Y761100D01*
X666982Y763721D01*
X665970Y766163D01*
X664361Y768261D01*
X662263Y769870D01*
X659821Y770882D01*
X657200Y771227D01*
D02*
G37*
G36*
X588500Y771190D02*
X573500D01*
X572509Y770993D01*
X571669Y770431D01*
X571107Y769591D01*
X570910Y768600D01*
Y762226D01*
X409350D01*
X409350Y762226D01*
X407962Y761950D01*
X406786Y761164D01*
X406786Y761164D01*
X394257Y748634D01*
X393266Y748437D01*
X391795Y747455D01*
X390813Y745984D01*
X390468Y744250D01*
X390813Y742516D01*
X391795Y741045D01*
X393266Y740063D01*
X395000Y739718D01*
X396734Y740063D01*
X398205Y741045D01*
X399187Y742516D01*
X399195Y742554D01*
X399478Y742715D01*
X400813Y742516D01*
X401795Y741045D01*
X403266Y740063D01*
X405000Y739718D01*
X406734Y740063D01*
X408205Y741045D01*
X409187Y742516D01*
X409353Y743347D01*
X410647D01*
X410813Y742516D01*
X411795Y741045D01*
X413266Y740063D01*
X415000Y739718D01*
X416734Y740063D01*
X418205Y741045D01*
X419187Y742516D01*
X419353Y743347D01*
X420647D01*
X420813Y742516D01*
X421795Y741045D01*
X423266Y740063D01*
X425000Y739718D01*
X426734Y740063D01*
X428205Y741045D01*
X429187Y742516D01*
X429353Y743347D01*
X430647D01*
X430813Y742516D01*
X431795Y741045D01*
X433266Y740063D01*
X434257Y739866D01*
X451686Y722436D01*
X451686Y722436D01*
X452863Y721650D01*
X454250Y721374D01*
X454250Y721374D01*
X655425D01*
X656266Y720813D01*
X658000Y720468D01*
X659734Y720813D01*
X661205Y721795D01*
X662187Y723266D01*
X662532Y725000D01*
X662187Y726734D01*
X661205Y728205D01*
X659734Y729187D01*
X658000Y729532D01*
X656266Y729187D01*
X655425Y728626D01*
X455752D01*
X439384Y744993D01*
X439187Y745984D01*
X438205Y747455D01*
X436734Y748437D01*
X435000Y748782D01*
X433266Y748437D01*
X431795Y747455D01*
X430813Y745984D01*
X430647Y745153D01*
X429353D01*
X429187Y745984D01*
X428205Y747455D01*
X426734Y748437D01*
X425000Y748782D01*
X423266Y748437D01*
X421795Y747455D01*
X420813Y745984D01*
X420647Y745153D01*
X419353D01*
X419187Y745984D01*
X418205Y747455D01*
X416734Y748437D01*
X415000Y748782D01*
X413266Y748437D01*
X411795Y747455D01*
X410813Y745984D01*
X410647Y745153D01*
X409353D01*
X409187Y745984D01*
X408205Y747455D01*
X406734Y748437D01*
X406214Y748541D01*
X405796Y749919D01*
X410852Y754974D01*
X570910D01*
Y748600D01*
X571107Y747609D01*
X571669Y746769D01*
X572509Y746207D01*
X573500Y746010D01*
X588500D01*
X589491Y746207D01*
X590331Y746769D01*
X590893Y747609D01*
X591090Y748600D01*
Y768600D01*
X590893Y769591D01*
X590331Y770431D01*
X589491Y770993D01*
X588500Y771190D01*
D02*
G37*
G36*
X682600Y771227D02*
X679979Y770882D01*
X677537Y769870D01*
X675439Y768261D01*
X673830Y766163D01*
X672818Y763721D01*
X672473Y761100D01*
Y756100D01*
X672818Y753479D01*
X673830Y751037D01*
X675439Y748939D01*
X677537Y747330D01*
X679979Y746318D01*
X682600Y745973D01*
X685221Y746318D01*
X687663Y747330D01*
X689761Y748939D01*
X691370Y751037D01*
X692382Y753479D01*
X692727Y756100D01*
Y761100D01*
X692382Y763721D01*
X691370Y766163D01*
X689761Y768261D01*
X687663Y769870D01*
X685221Y770882D01*
X682600Y771227D01*
D02*
G37*
G36*
X705000Y737625D02*
X701562Y737286D01*
X698255Y736283D01*
X695208Y734654D01*
X692537Y732463D01*
X690346Y729792D01*
X688717Y726745D01*
X687714Y723438D01*
X687375Y720000D01*
X687714Y716562D01*
X688717Y713255D01*
X690346Y710208D01*
X692537Y707537D01*
X695208Y705346D01*
X698255Y703717D01*
X701562Y702714D01*
X705000Y702375D01*
X708438Y702714D01*
X711745Y703717D01*
X714792Y705346D01*
X717463Y707537D01*
X719654Y710208D01*
X721283Y713255D01*
X722286Y716562D01*
X722625Y720000D01*
X722286Y723438D01*
X721283Y726745D01*
X719654Y729792D01*
X717463Y732463D01*
X714792Y734654D01*
X711745Y736283D01*
X708438Y737286D01*
X705000Y737625D01*
D02*
G37*
G36*
X329500Y692527D02*
X324500D01*
X321879Y692182D01*
X319437Y691170D01*
X317339Y689561D01*
X315730Y687463D01*
X314987Y685670D01*
X313613D01*
X312870Y687463D01*
X311261Y689561D01*
X309163Y691170D01*
X306721Y692182D01*
X304100Y692527D01*
X299100D01*
X296479Y692182D01*
X294037Y691170D01*
X291939Y689561D01*
X290330Y687463D01*
X289318Y685021D01*
X288973Y682400D01*
X289318Y679779D01*
X290330Y677337D01*
X291939Y675239D01*
X294037Y673630D01*
X296479Y672618D01*
X299100Y672273D01*
X304100D01*
X306721Y672618D01*
X309163Y673630D01*
X311261Y675239D01*
X312870Y677337D01*
X313613Y679130D01*
X314987D01*
X315730Y677337D01*
X317339Y675239D01*
X319437Y673630D01*
X321879Y672618D01*
X324500Y672273D01*
X329500D01*
X332121Y672618D01*
X334563Y673630D01*
X336661Y675239D01*
X338270Y677337D01*
X339282Y679779D01*
X339627Y682400D01*
X339282Y685021D01*
X338270Y687463D01*
X336661Y689561D01*
X334563Y691170D01*
X332121Y692182D01*
X329500Y692527D01*
D02*
G37*
G36*
X1187500Y737627D02*
X1184879Y737282D01*
X1182437Y736270D01*
X1180339Y734661D01*
X1178730Y732563D01*
X1177718Y730121D01*
X1177373Y727500D01*
X1177718Y724879D01*
X1178730Y722437D01*
X1180339Y720339D01*
X1182437Y718730D01*
X1184879Y717718D01*
X1187500Y717373D01*
X1190121Y717718D01*
X1192563Y718730D01*
X1194661Y720339D01*
X1196270Y722437D01*
X1197282Y724879D01*
X1197627Y727500D01*
X1197282Y730121D01*
X1196270Y732563D01*
X1194661Y734661D01*
X1192563Y736270D01*
X1190121Y737282D01*
X1187500Y737627D01*
D02*
G37*
G36*
X960000Y746474D02*
X957522Y745982D01*
X955422Y744578D01*
X955135Y744149D01*
X953865D01*
X953578Y744578D01*
X951478Y745982D01*
X949000Y746474D01*
X946522Y745982D01*
X944422Y744578D01*
X943018Y742478D01*
X942526Y740000D01*
X943018Y737522D01*
X944422Y735422D01*
X944851Y735135D01*
Y733865D01*
X944422Y733578D01*
X943018Y731478D01*
X942526Y729000D01*
X943018Y726522D01*
X944422Y724422D01*
X944851Y724135D01*
Y722865D01*
X944422Y722578D01*
X943018Y720478D01*
X942526Y718000D01*
X943018Y715522D01*
X944422Y713422D01*
X944851Y713135D01*
Y711865D01*
X944422Y711578D01*
X943018Y709478D01*
X942526Y707000D01*
X943018Y704522D01*
X944422Y702422D01*
X944851Y702135D01*
Y700865D01*
X944422Y700578D01*
X943018Y698478D01*
X942526Y696000D01*
X943018Y693522D01*
X944422Y691422D01*
X944851Y691135D01*
Y689865D01*
X944422Y689578D01*
X943018Y687478D01*
X942526Y685000D01*
X943018Y682522D01*
X944422Y680422D01*
X946522Y679018D01*
X949000Y678526D01*
X951478Y679018D01*
X953578Y680422D01*
X953865Y680851D01*
X955135D01*
X955422Y680422D01*
X957522Y679018D01*
X960000Y678526D01*
X962478Y679018D01*
X964578Y680422D01*
X965982Y682522D01*
X966474Y685000D01*
X965982Y687478D01*
X964578Y689578D01*
X964149Y689865D01*
Y691135D01*
X964578Y691422D01*
X965982Y693522D01*
X966474Y696000D01*
X965982Y698478D01*
X964578Y700578D01*
X964149Y700865D01*
Y702135D01*
X964578Y702422D01*
X965982Y704522D01*
X966474Y707000D01*
X965982Y709478D01*
X964578Y711578D01*
X964149Y711865D01*
Y713135D01*
X964578Y713422D01*
X965982Y715522D01*
X966474Y718000D01*
X965982Y720478D01*
X964578Y722578D01*
X964149Y722865D01*
Y724135D01*
X964578Y724422D01*
X965982Y726522D01*
X966474Y729000D01*
X965982Y731478D01*
X964578Y733578D01*
X964149Y733865D01*
Y735135D01*
X964578Y735422D01*
X965982Y737522D01*
X966474Y740000D01*
X965982Y742478D01*
X964578Y744578D01*
X962478Y745982D01*
X960000Y746474D01*
D02*
G37*
G36*
X862250Y741532D02*
X860516Y741187D01*
X859045Y740205D01*
X858063Y738734D01*
X857718Y737000D01*
X858063Y735266D01*
X859045Y733795D01*
X860516Y732813D01*
X862250Y732468D01*
X863984Y732813D01*
X865455Y733795D01*
X866437Y735266D01*
X866782Y737000D01*
X866437Y738734D01*
X865455Y740205D01*
X863984Y741187D01*
X862250Y741532D01*
D02*
G37*
G36*
Y522474D02*
X859772Y521982D01*
X857672Y520578D01*
X856268Y518478D01*
X855776Y516000D01*
X856268Y513522D01*
X857672Y511422D01*
X859772Y510018D01*
X862250Y509526D01*
X864728Y510018D01*
X866828Y511422D01*
X868232Y513522D01*
X868724Y516000D01*
X868232Y518478D01*
X866828Y520578D01*
X864728Y521982D01*
X862250Y522474D01*
D02*
G37*
G36*
X732800Y643461D02*
X696900D01*
X693235Y642979D01*
X689819Y641564D01*
X686887Y639314D01*
X684636Y636381D01*
X683221Y632965D01*
X682739Y629300D01*
X683221Y625635D01*
X684636Y622219D01*
X686887Y619287D01*
X689394Y617362D01*
X689489Y617096D01*
Y616104D01*
X689394Y615838D01*
X686887Y613913D01*
X684636Y610981D01*
X683221Y607565D01*
X682739Y603900D01*
X683221Y600235D01*
X684636Y596819D01*
X686887Y593887D01*
X689394Y591962D01*
X689489Y591697D01*
Y590704D01*
X689394Y590438D01*
X686887Y588513D01*
X684636Y585581D01*
X683221Y582165D01*
X682739Y578500D01*
X683221Y574835D01*
X684636Y571419D01*
X686887Y568487D01*
X689394Y566562D01*
X689489Y566297D01*
Y565304D01*
X689394Y565038D01*
X686887Y563114D01*
X684636Y560181D01*
X683221Y556765D01*
X682739Y553100D01*
X683221Y549435D01*
X684636Y546019D01*
X686887Y543087D01*
X689819Y540836D01*
X693235Y539421D01*
X696461Y538997D01*
X696378Y537727D01*
X694500D01*
X691879Y537382D01*
X689437Y536370D01*
X687339Y534761D01*
X685730Y532663D01*
X684718Y530221D01*
X684373Y527600D01*
X684718Y524979D01*
X685730Y522537D01*
X687339Y520439D01*
X689437Y518830D01*
X691879Y517818D01*
X694500Y517473D01*
X699500D01*
X702121Y517818D01*
X704563Y518830D01*
X706661Y520439D01*
X708270Y522537D01*
X709282Y524979D01*
X709627Y527600D01*
X709282Y530221D01*
X708270Y532663D01*
X706661Y534761D01*
X704563Y536370D01*
X702121Y537382D01*
X699939Y537669D01*
X700022Y538939D01*
X732800D01*
X736465Y539421D01*
X739881Y540836D01*
X742813Y543087D01*
X745064Y546019D01*
X746479Y549435D01*
X746961Y553100D01*
X746479Y556765D01*
X745064Y560181D01*
X742813Y563114D01*
X740306Y565038D01*
X740211Y565304D01*
Y566297D01*
X740306Y566562D01*
X742813Y568487D01*
X745064Y571419D01*
X746479Y574835D01*
X746961Y578500D01*
X746479Y582165D01*
X745064Y585581D01*
X742813Y588513D01*
X740306Y590438D01*
X740211Y590704D01*
Y591697D01*
X740306Y591962D01*
X742813Y593887D01*
X745064Y596819D01*
X746479Y600235D01*
X746961Y603900D01*
X746479Y607565D01*
X745064Y610981D01*
X742813Y613913D01*
X740306Y615838D01*
X740211Y616104D01*
Y617096D01*
X740306Y617362D01*
X742453Y619010D01*
X743000D01*
X743991Y619207D01*
X744831Y619769D01*
X745393Y620609D01*
X745590Y621600D01*
Y623489D01*
X746479Y625635D01*
X746961Y629300D01*
X746479Y632965D01*
X745590Y635111D01*
Y636600D01*
X745393Y637591D01*
X744831Y638431D01*
X743991Y638993D01*
X743000Y639190D01*
X742908D01*
X742813Y639314D01*
X739881Y641564D01*
X736465Y642979D01*
X732800Y643461D01*
D02*
G37*
G36*
X797500Y536474D02*
X795022Y535982D01*
X792922Y534578D01*
X791518Y532478D01*
X791026Y530000D01*
X791518Y527522D01*
X792922Y525422D01*
X795022Y524018D01*
X797500Y523526D01*
X799978Y524018D01*
X802078Y525422D01*
X803482Y527522D01*
X803974Y530000D01*
X803482Y532478D01*
X802078Y534578D01*
X799978Y535982D01*
X797500Y536474D01*
D02*
G37*
G36*
X1126000Y476474D02*
X1123522Y475982D01*
X1121422Y474578D01*
X1121135Y474149D01*
X1119865D01*
X1119578Y474578D01*
X1117478Y475982D01*
X1115000Y476474D01*
X1112522Y475982D01*
X1110422Y474578D01*
X1109018Y472478D01*
X1108526Y470000D01*
X1109018Y467522D01*
X1110422Y465422D01*
X1110851Y465135D01*
Y463865D01*
X1110422Y463578D01*
X1109018Y461478D01*
X1108526Y459000D01*
X1109018Y456522D01*
X1110422Y454422D01*
X1112522Y453018D01*
X1115000Y452526D01*
X1117478Y453018D01*
X1119578Y454422D01*
X1119865Y454851D01*
X1121135D01*
X1121422Y454422D01*
X1123522Y453018D01*
X1126000Y452526D01*
X1128478Y453018D01*
X1130578Y454422D01*
X1131982Y456522D01*
X1132474Y459000D01*
X1131982Y461478D01*
X1130578Y463578D01*
X1130149Y463865D01*
Y465135D01*
X1130578Y465422D01*
X1131982Y467522D01*
X1132474Y470000D01*
X1131982Y472478D01*
X1130578Y474578D01*
X1128478Y475982D01*
X1126000Y476474D01*
D02*
G37*
G36*
X1056000D02*
X1053522Y475982D01*
X1051422Y474578D01*
X1051135Y474149D01*
X1049865D01*
X1049578Y474578D01*
X1047478Y475982D01*
X1045000Y476474D01*
X1042522Y475982D01*
X1040422Y474578D01*
X1039018Y472478D01*
X1038526Y470000D01*
X1039018Y467522D01*
X1040422Y465422D01*
X1040851Y465135D01*
Y463865D01*
X1040422Y463578D01*
X1039018Y461478D01*
X1038526Y459000D01*
X1039018Y456522D01*
X1040422Y454422D01*
X1042522Y453018D01*
X1045000Y452526D01*
X1047478Y453018D01*
X1049578Y454422D01*
X1049865Y454851D01*
X1051135D01*
X1051422Y454422D01*
X1053522Y453018D01*
X1056000Y452526D01*
X1058478Y453018D01*
X1060578Y454422D01*
X1061982Y456522D01*
X1062474Y459000D01*
X1061982Y461478D01*
X1060578Y463578D01*
X1060149Y463865D01*
Y465135D01*
X1060578Y465422D01*
X1061982Y467522D01*
X1062474Y470000D01*
X1061982Y472478D01*
X1060578Y474578D01*
X1058478Y475982D01*
X1056000Y476474D01*
D02*
G37*
G36*
X1200000Y531532D02*
X1198266Y531187D01*
X1196795Y530205D01*
X1195813Y528734D01*
X1195468Y527000D01*
X1195813Y525266D01*
X1196795Y523795D01*
X1198266Y522813D01*
X1199097Y522647D01*
Y521353D01*
X1198266Y521187D01*
X1196795Y520205D01*
X1195813Y518734D01*
X1195468Y517000D01*
X1195813Y515266D01*
X1196795Y513795D01*
X1198266Y512813D01*
X1199098Y512647D01*
Y511353D01*
X1198266Y511187D01*
X1196795Y510205D01*
X1195813Y508734D01*
X1195468Y507000D01*
X1195813Y505266D01*
X1196795Y503795D01*
X1198266Y502813D01*
X1200000Y502468D01*
X1201734Y502813D01*
X1203205Y503795D01*
X1204187Y505266D01*
X1204532Y507000D01*
X1204187Y508734D01*
X1203205Y510205D01*
X1201734Y511187D01*
X1200902Y511353D01*
Y512647D01*
X1201734Y512813D01*
X1203205Y513795D01*
X1204187Y515266D01*
X1204532Y517000D01*
X1204187Y518734D01*
X1203205Y520205D01*
X1201734Y521187D01*
X1200902Y521353D01*
Y522647D01*
X1201734Y522813D01*
X1203205Y523795D01*
X1204187Y525266D01*
X1204532Y527000D01*
X1204187Y528734D01*
X1203205Y530205D01*
X1201734Y531187D01*
X1200000Y531532D01*
D02*
G37*
G36*
X960000Y606474D02*
X957522Y605982D01*
X955422Y604578D01*
X955135Y604149D01*
X953865D01*
X953578Y604578D01*
X951478Y605982D01*
X949000Y606474D01*
X946522Y605982D01*
X944422Y604578D01*
X943018Y602478D01*
X942526Y600000D01*
X943018Y597522D01*
X944422Y595422D01*
X944851Y595135D01*
Y593865D01*
X944422Y593578D01*
X943018Y591478D01*
X942526Y589000D01*
X943018Y586522D01*
X944422Y584422D01*
X944851Y584135D01*
Y582865D01*
X944422Y582578D01*
X943018Y580478D01*
X942526Y578000D01*
X943018Y575522D01*
X944422Y573422D01*
X944851Y573135D01*
Y571865D01*
X944422Y571578D01*
X943018Y569478D01*
X942526Y567000D01*
X943018Y564522D01*
X944422Y562422D01*
X944851Y562135D01*
Y560865D01*
X944422Y560578D01*
X943018Y558478D01*
X942526Y556000D01*
X943018Y553522D01*
X944422Y551422D01*
X946522Y550018D01*
X949000Y549526D01*
X951478Y550018D01*
X953578Y551422D01*
X953865Y551851D01*
X955135D01*
X955422Y551422D01*
X957522Y550018D01*
X960000Y549526D01*
X962478Y550018D01*
X964578Y551422D01*
X965982Y553522D01*
X966474Y556000D01*
X965982Y558478D01*
X964578Y560578D01*
X964149Y560865D01*
Y562135D01*
X964578Y562422D01*
X965982Y564522D01*
X966474Y567000D01*
X965982Y569478D01*
X964578Y571578D01*
X964149Y571865D01*
Y573135D01*
X964578Y573422D01*
X965982Y575522D01*
X966474Y578000D01*
X965982Y580478D01*
X964578Y582578D01*
X964149Y582865D01*
Y584135D01*
X964578Y584422D01*
X965982Y586522D01*
X966474Y589000D01*
X965982Y591478D01*
X964578Y593578D01*
X964149Y593865D01*
Y595135D01*
X964578Y595422D01*
X965982Y597522D01*
X966474Y600000D01*
X965982Y602478D01*
X964578Y604578D01*
X962478Y605982D01*
X960000Y606474D01*
D02*
G37*
G36*
X758800Y771227D02*
X756179Y770882D01*
X753737Y769870D01*
X751639Y768261D01*
X750030Y766163D01*
X749018Y763721D01*
X748673Y761100D01*
Y756100D01*
X749018Y753479D01*
X750030Y751037D01*
X751639Y748939D01*
X753737Y747330D01*
X756179Y746318D01*
X758800Y745973D01*
X761421Y746318D01*
X763863Y747330D01*
X764474Y747799D01*
X857836Y654436D01*
X857836Y654436D01*
X859013Y653650D01*
X860400Y653374D01*
X1138648D01*
X1176766Y615257D01*
X1176963Y614266D01*
X1177945Y612795D01*
X1179416Y611813D01*
X1181150Y611468D01*
X1182884Y611813D01*
X1184355Y612795D01*
X1185337Y614266D01*
X1185682Y616000D01*
X1185337Y617734D01*
X1184355Y619205D01*
X1182884Y620187D01*
X1181893Y620384D01*
X1142714Y659564D01*
X1141537Y660350D01*
X1140150Y660626D01*
X1140150Y660626D01*
X861902D01*
X768636Y753892D01*
X768927Y756100D01*
Y761100D01*
X768582Y763721D01*
X767570Y766163D01*
X765961Y768261D01*
X763863Y769870D01*
X761421Y770882D01*
X758800Y771227D01*
D02*
G37*
G36*
X265000Y619032D02*
X263266Y618687D01*
X261795Y617705D01*
X260813Y616234D01*
X260468Y614500D01*
X260813Y612766D01*
X261795Y611295D01*
X263266Y610313D01*
X265000Y609968D01*
X266734Y610313D01*
X268205Y611295D01*
X269187Y612766D01*
X269532Y614500D01*
X269187Y616234D01*
X268205Y617705D01*
X266734Y618687D01*
X265000Y619032D01*
D02*
G37*
G36*
Y564032D02*
X263266Y563687D01*
X261795Y562705D01*
X260813Y561234D01*
X260468Y559500D01*
X260813Y557766D01*
X261795Y556295D01*
X263266Y555313D01*
X265000Y554968D01*
X266734Y555313D01*
X268205Y556295D01*
X269187Y557766D01*
X269532Y559500D01*
X269187Y561234D01*
X268205Y562705D01*
X266734Y563687D01*
X265000Y564032D01*
D02*
G37*
G36*
X1187500Y585127D02*
X1184879Y584782D01*
X1182437Y583770D01*
X1180339Y582161D01*
X1178730Y580063D01*
X1177718Y577621D01*
X1177373Y575000D01*
X1177718Y572379D01*
X1178730Y569937D01*
X1180339Y567839D01*
X1182437Y566230D01*
X1184879Y565218D01*
X1187500Y564873D01*
X1190121Y565218D01*
X1192563Y566230D01*
X1194661Y567839D01*
X1196270Y569937D01*
X1197282Y572379D01*
X1197627Y575000D01*
X1197282Y577621D01*
X1196270Y580063D01*
X1194661Y582161D01*
X1192563Y583770D01*
X1190121Y584782D01*
X1187500Y585127D01*
D02*
G37*
G36*
X708000Y771227D02*
X705379Y770882D01*
X702937Y769870D01*
X700839Y768261D01*
X699230Y766163D01*
X698218Y763721D01*
X697873Y761100D01*
Y756100D01*
X698218Y753479D01*
X699230Y751037D01*
X700839Y748939D01*
X702937Y747330D01*
X705379Y746318D01*
X708000Y745973D01*
X708794Y746078D01*
X725374Y729498D01*
Y669000D01*
X725374Y669000D01*
X725650Y667613D01*
X726436Y666436D01*
X821929Y570943D01*
X821304Y569773D01*
X820000Y570032D01*
X818266Y569687D01*
X816795Y568705D01*
X815813Y567234D01*
X815468Y565500D01*
X815813Y563766D01*
X816374Y562925D01*
Y523000D01*
X816374Y523000D01*
X816650Y521613D01*
X817436Y520436D01*
X861116Y476757D01*
X861313Y475766D01*
X862295Y474295D01*
X863766Y473313D01*
X865500Y472968D01*
X867234Y473313D01*
X868705Y474295D01*
X869687Y475766D01*
X870032Y477500D01*
X869687Y479234D01*
X868705Y480705D01*
X867234Y481687D01*
X866243Y481884D01*
X823626Y524502D01*
Y562925D01*
X824187Y563766D01*
X824532Y565500D01*
X824273Y566804D01*
X825443Y567429D01*
X1016436Y376436D01*
X1017613Y375650D01*
X1019000Y375374D01*
X1019000Y375374D01*
X1209648D01*
X1222116Y362907D01*
X1222313Y361916D01*
X1223295Y360445D01*
X1224766Y359463D01*
X1226500Y359118D01*
X1228234Y359463D01*
X1229705Y360445D01*
X1230687Y361916D01*
X1231032Y363650D01*
X1230687Y365384D01*
X1229705Y366855D01*
X1228234Y367837D01*
X1227243Y368034D01*
X1213714Y381564D01*
X1212538Y382350D01*
X1211150Y382626D01*
X1211150Y382626D01*
X1020502D01*
X800251Y602877D01*
X800534Y604390D01*
X802078Y605422D01*
X803482Y607522D01*
X803974Y610000D01*
X803482Y612478D01*
X802078Y614578D01*
X799978Y615982D01*
X797500Y616474D01*
X795022Y615982D01*
X792922Y614578D01*
X791890Y613034D01*
X790377Y612751D01*
X732626Y670502D01*
Y731000D01*
X732626Y731000D01*
X732350Y732387D01*
X731564Y733564D01*
X731564Y733564D01*
X715607Y749521D01*
X716770Y751037D01*
X717782Y753479D01*
X718127Y756100D01*
Y761100D01*
X717782Y763721D01*
X716770Y766163D01*
X715161Y768261D01*
X713063Y769870D01*
X710621Y770882D01*
X708000Y771227D01*
D02*
G37*
%LPD*%
D22*
X1211150Y379000D02*
X1226500Y363650D01*
X1019000Y379000D02*
X1211150D01*
X729000Y669000D02*
X1019000Y379000D01*
X729000Y669000D02*
Y731000D01*
X708000Y752000D02*
X729000Y731000D01*
X708000Y752000D02*
Y758600D01*
X907000Y555000D02*
X976000Y486000D01*
X907000Y555000D02*
Y591000D01*
X891000Y607000D02*
X907000Y591000D01*
X855000Y607000D02*
X891000D01*
X774000Y688000D02*
X855000Y607000D01*
X887000Y322500D02*
X988000D01*
X884500Y320000D02*
X887000Y322500D01*
X430100Y255000D02*
X905440D01*
X372500Y312600D02*
X430100Y255000D01*
X905440D02*
X926440Y276000D01*
X288400Y439600D02*
X372500D01*
X277000Y451000D02*
X288400Y439600D01*
X409350Y758600D02*
X581000D01*
X395000Y744250D02*
X409350Y758600D01*
X454250Y725000D02*
X658000D01*
X435000Y744250D02*
X454250Y725000D01*
X820000Y523000D02*
X865500Y477500D01*
X820000Y523000D02*
Y565500D01*
X976000Y486000D02*
X1158650D01*
X774000Y688000D02*
Y718000D01*
X1158650Y486000D02*
X1181150Y463500D01*
X1140150Y657000D02*
X1181150Y616000D01*
X860400Y657000D02*
X1140150D01*
X758800Y758600D02*
X860400Y657000D01*
X733400Y758600D02*
X774000Y718000D01*
X277000Y451000D02*
Y632400D01*
X301600Y657000D01*
X583000Y704000D02*
X592000Y695000D01*
Y600400D02*
Y695000D01*
X570000Y578400D02*
X592000Y600400D01*
X374000Y704000D02*
X583000D01*
X327000Y657000D02*
X374000Y704000D01*
X591000Y337000D02*
Y350000D01*
X579000Y325000D02*
X591000Y337000D01*
X559000Y325000D02*
X579000D01*
X577600Y363400D02*
X591000Y350000D01*
X570000Y363400D02*
X577600D01*
X533000Y299000D02*
X559000Y325000D01*
X436900Y299000D02*
X533000D01*
X372500Y363400D02*
X436900Y299000D01*
X584000Y487000D02*
X594000Y477000D01*
Y438200D02*
Y477000D01*
X570000Y414200D02*
X594000Y438200D01*
X563000Y487000D02*
X584000D01*
X554000Y496000D02*
X563000Y487000D01*
X358000Y419000D02*
X366000Y427000D01*
X358000Y377900D02*
Y419000D01*
Y377900D02*
X372500Y363400D01*
X366000Y427000D02*
X380092D01*
X390000Y436908D01*
Y560900D01*
X372500Y578400D02*
X390000Y560900D01*
X554000Y496000D02*
Y613200D01*
X570000Y629200D01*
X372500Y414200D02*
X394000Y435700D01*
Y607700D01*
X372500Y629200D02*
X394000Y607700D01*
X769200Y261000D02*
X784200Y276000D01*
X621600Y261000D02*
X769200D01*
X570000Y312600D02*
X621600Y261000D01*
X570000Y527600D02*
X613600Y484000D01*
X722000D01*
X758800Y447200D01*
Y276000D02*
Y447200D01*
X347000Y527700D02*
X372500Y502200D01*
X347000Y527700D02*
Y611600D01*
X327000Y631600D02*
X347000Y611600D01*
D23*
X499500Y629200D02*
X534900D01*
X499400Y603900D02*
X534800D01*
X499400Y578500D02*
X534800D01*
X499400Y553100D02*
X534800D01*
X696900Y629300D02*
X732800D01*
X696900Y603900D02*
X732800D01*
X696900Y578500D02*
X732800D01*
X696900Y553100D02*
X732800D01*
X499400Y414300D02*
X534800D01*
X499400Y388900D02*
X534800D01*
X499400Y363500D02*
X534800D01*
X499400Y338100D02*
X534800D01*
X696900Y414300D02*
X732800D01*
X696900Y388900D02*
X732800D01*
X696900Y363500D02*
X732800D01*
X696900Y338100D02*
X732800D01*
D24*
X488000Y465000D02*
X499500D01*
X461000Y492000D02*
X488000Y465000D01*
X461000Y492000D02*
Y655000D01*
X486000Y680000D02*
X499500D01*
X461000Y655000D02*
X486000Y680000D01*
D25*
X1200000Y270000D02*
D03*
X1252500Y475000D02*
D03*
Y625000D02*
D03*
D26*
X790000Y762500D02*
D03*
D27*
X1237500Y425000D02*
D03*
Y575000D02*
D03*
Y727500D02*
D03*
X747500Y482500D02*
D03*
Y692500D02*
D03*
D28*
X535000Y414100D02*
D03*
X733000D02*
D03*
X535000Y629100D02*
D03*
X733000D02*
D03*
D29*
X535000Y388700D02*
D03*
Y363300D02*
D03*
Y337900D02*
D03*
X733000Y388700D02*
D03*
Y363300D02*
D03*
Y337900D02*
D03*
X535000Y603700D02*
D03*
Y578300D02*
D03*
Y552900D02*
D03*
X733000Y603700D02*
D03*
Y578300D02*
D03*
Y552900D02*
D03*
X570000Y312600D02*
D03*
Y414200D02*
D03*
Y363400D02*
D03*
X697000Y338000D02*
D03*
Y363400D02*
D03*
Y388800D02*
D03*
Y414200D02*
D03*
Y439600D02*
D03*
Y287200D02*
D03*
Y502200D02*
D03*
Y654600D02*
D03*
Y629200D02*
D03*
Y603800D02*
D03*
Y578400D02*
D03*
Y553000D02*
D03*
X570000Y578400D02*
D03*
Y629200D02*
D03*
Y527600D02*
D03*
X499500Y287200D02*
D03*
Y465000D02*
D03*
Y439600D02*
D03*
Y414200D02*
D03*
Y388800D02*
D03*
Y363400D02*
D03*
Y338000D02*
D03*
X372500Y363400D02*
D03*
Y414200D02*
D03*
Y439600D02*
D03*
Y312600D02*
D03*
Y502200D02*
D03*
Y629200D02*
D03*
Y578400D02*
D03*
X499500Y553000D02*
D03*
Y578400D02*
D03*
Y603800D02*
D03*
Y629200D02*
D03*
Y654600D02*
D03*
Y680000D02*
D03*
Y502200D02*
D03*
X301600Y707800D02*
D03*
Y657000D02*
D03*
X327000Y707800D02*
D03*
Y657000D02*
D03*
Y631600D02*
D03*
D30*
X581000Y758600D02*
D03*
D31*
X926440Y276000D02*
D03*
X784200D02*
D03*
X758800D02*
D03*
Y758600D02*
D03*
X733400D02*
D03*
X708000D02*
D03*
D32*
X893000Y769000D02*
D03*
X823000Y594000D02*
D03*
X833000D02*
D03*
Y769000D02*
D03*
X843000Y594000D02*
D03*
X883000D02*
D03*
X873000D02*
D03*
X853000D02*
D03*
X863000D02*
D03*
X863000Y769000D02*
D03*
X853000D02*
D03*
X873000D02*
D03*
X883000D02*
D03*
X843000D02*
D03*
X606000Y777000D02*
D03*
X561000Y772000D02*
D03*
X988000Y322500D02*
D03*
X658000Y725000D02*
D03*
X435000Y744250D02*
D03*
X395000D02*
D03*
X820000Y565500D02*
D03*
X865500Y477500D02*
D03*
X884500Y320000D02*
D03*
X1226500Y363650D02*
D03*
X1181150Y616000D02*
D03*
Y463500D02*
D03*
M02*
