G04 Layer_Physical_Order=1*
G04 Layer_Color=255*
%FSLAX44Y44*%
%MOMM*%
G71*
G01*
G75*
%ADD10R,1.6000X0.8000*%
%ADD11R,0.6000X1.6000*%
%ADD12R,1.0000X2.0000*%
%ADD13R,0.8000X1.6000*%
%ADD14R,5.0000X1.2000*%
%ADD15R,8.0000X1.2000*%
%ADD16R,11.0000X11.0000*%
%ADD17R,1.2000X5.0000*%
%ADD18R,1.2000X8.0000*%
%ADD19R,11.0000X11.0000*%
%ADD20R,4.0000X3.0000*%
%ADD21C,0.5000*%
%ADD22C,2.1000*%
%ADD23C,1.7500*%
%ADD24C,0.2032*%
%ADD25C,1.5000*%
%ADD26C,3.0000*%
%ADD27C,2.2500*%
%ADD28O,1.5000X2.0000*%
%ADD29R,1.5000X2.0000*%
%ADD30R,2.0000X1.5000*%
%ADD31O,2.0000X1.5000*%
%ADD32C,0.6000*%
G36*
X1265851Y370331D02*
X1231478D01*
X1231143Y370264D01*
X1230802Y370230D01*
X1230700Y370176D01*
X1230586Y370153D01*
X1230302Y369963D01*
X1230000Y369802D01*
X1229926Y369712D01*
X1229830Y369648D01*
X1229640Y369363D01*
X1229423Y369099D01*
X1229266Y368806D01*
X1228562Y368629D01*
X1226500Y369039D01*
X1224438Y368629D01*
X1223734Y368806D01*
X1223577Y369099D01*
X1223360Y369363D01*
X1223170Y369648D01*
X1223074Y369712D01*
X1223000Y369802D01*
X1222698Y369963D01*
X1222414Y370153D01*
X1222300Y370176D01*
X1222198Y370230D01*
X1221858Y370264D01*
X1221522Y370331D01*
X1215331D01*
Y447000D01*
X1215153Y447892D01*
X1214648Y448648D01*
X1213892Y449153D01*
X1213000Y449331D01*
X1190331D01*
Y489669D01*
X1265851D01*
Y370331D01*
D02*
G37*
G36*
X1263567Y783351D02*
X1264615Y782916D01*
X1265417Y782115D01*
X1265851Y781067D01*
X1265851Y780500D01*
Y780500D01*
Y780500D01*
Y644000D01*
X1190331D01*
Y694035D01*
X1214648Y718352D01*
X1215153Y719108D01*
X1215331Y720000D01*
X1215331Y783351D01*
X1263000D01*
X1263567Y783351D01*
D02*
G37*
G36*
X980000Y657247D02*
X979852Y657148D01*
X979347Y656392D01*
X979169Y655500D01*
Y639500D01*
X979347Y638608D01*
X979852Y637852D01*
X980000Y637753D01*
Y634747D01*
X979852Y634648D01*
X979347Y633892D01*
X979169Y633000D01*
Y617000D01*
X979347Y616108D01*
X979852Y615352D01*
X980000Y615253D01*
Y607331D01*
X897750D01*
X896858Y607153D01*
X896102Y606648D01*
X895597Y605892D01*
X895419Y605000D01*
Y576000D01*
X812331D01*
Y579379D01*
X812286Y579604D01*
Y579833D01*
X812198Y580045D01*
X812153Y580271D01*
X812065Y580403D01*
X812000Y580730D01*
Y588270D01*
X812059Y588567D01*
X812153Y588693D01*
X812222Y588971D01*
X812332Y589235D01*
Y589408D01*
X812374Y589576D01*
X812427Y590658D01*
X813202Y594555D01*
X814700Y598172D01*
X816907Y601475D01*
X818225Y602928D01*
X821658Y606362D01*
X823213Y607771D01*
X826747Y610133D01*
X830620Y611737D01*
X834789Y612566D01*
X836889Y612669D01*
X883000Y612669D01*
X883892Y612847D01*
X884648Y613352D01*
X885153Y614108D01*
X885331Y615000D01*
Y636000D01*
X898000D01*
Y662669D01*
X980000D01*
Y657247D01*
D02*
G37*
G36*
X1265851Y287000D02*
X1160331D01*
Y367669D01*
X1213000D01*
X1213892Y367847D01*
X1214121Y368000D01*
X1221522D01*
X1222201Y366730D01*
X1221521Y365713D01*
X1221111Y363650D01*
X1221521Y361587D01*
X1222689Y359839D01*
X1224437Y358671D01*
X1226500Y358260D01*
X1228562Y358671D01*
X1230311Y359839D01*
X1231479Y361587D01*
X1231890Y363650D01*
X1231479Y365713D01*
X1230799Y366730D01*
X1231478Y368000D01*
X1265851D01*
Y287000D01*
D02*
G37*
G36*
X1008120Y440000D02*
X1008492Y438133D01*
X1009000Y437372D01*
Y437000D01*
X1009249D01*
X1009549Y436549D01*
X1011133Y435492D01*
X1013000Y435120D01*
X1036533D01*
X1036689Y434681D01*
X1036744Y433850D01*
X1035189Y432811D01*
X1034021Y431063D01*
X1033611Y429000D01*
X1034021Y426937D01*
X1035189Y425189D01*
X1036937Y424021D01*
X1039000Y423610D01*
X1041062Y424021D01*
X1042000Y424647D01*
X1042937Y424021D01*
X1045000Y423610D01*
X1047063Y424021D01*
X1048811Y425189D01*
X1049979Y426937D01*
X1050389Y429000D01*
X1049979Y431063D01*
X1048811Y432811D01*
X1047256Y433850D01*
X1047311Y434681D01*
X1047467Y435120D01*
X1064000D01*
Y432081D01*
X1063352Y431648D01*
X1062847Y430892D01*
X1062669Y430000D01*
Y400000D01*
X1062847Y399108D01*
X1063352Y398352D01*
X1064108Y397847D01*
X1065000Y397669D01*
X1075000D01*
Y280000D01*
X1030000D01*
X1030000Y287675D01*
X1029915Y289408D01*
X1029239Y292808D01*
X1027912Y296011D01*
X1025986Y298894D01*
X1024820Y300179D01*
X1024820Y300180D01*
X1024820Y300180D01*
X1019180Y305820D01*
X1017894Y306986D01*
X1015011Y308912D01*
X1011808Y310238D01*
X1008408Y310915D01*
X1006675Y311000D01*
X1006675Y311000D01*
X1006675Y311000D01*
X995000Y311000D01*
Y375000D01*
X928001D01*
X927892Y375073D01*
X927000Y375250D01*
X897730D01*
X897549Y375286D01*
X897319D01*
X897094Y375331D01*
X897000D01*
Y485099D01*
X897021Y485120D01*
X1008120D01*
Y440000D01*
D02*
G37*
G36*
X1213000Y720000D02*
X1188000Y695000D01*
Y609331D01*
X1106000Y609331D01*
X1105108Y609153D01*
X1104352Y608648D01*
X1103919Y608000D01*
X1087000D01*
Y613758D01*
X1087153Y613988D01*
X1087331Y614880D01*
Y737669D01*
X1105000D01*
X1105892Y737847D01*
X1106648Y738352D01*
X1107153Y739108D01*
X1107331Y740000D01*
Y770000D01*
X1107153Y770892D01*
X1106648Y771648D01*
X1106000Y772081D01*
Y783351D01*
X1213000D01*
X1213000Y720000D01*
D02*
G37*
G36*
X1213000Y370000D02*
X1158000D01*
Y251649D01*
X942331D01*
Y311000D01*
X960000D01*
Y313003D01*
X960148Y313102D01*
X960653Y313858D01*
X960831Y314750D01*
Y372669D01*
X978000D01*
Y311000D01*
X992669D01*
X992847Y310108D01*
X993352Y309352D01*
X994108Y308847D01*
X995000Y308669D01*
X1006616Y308669D01*
X1008122Y308595D01*
X1011128Y307997D01*
X1013907Y306846D01*
X1016456Y305143D01*
X1017572Y304132D01*
X1023131Y298572D01*
X1024143Y297456D01*
X1025846Y294907D01*
X1026997Y292129D01*
X1027595Y289122D01*
X1027669Y287618D01*
X1027669Y280000D01*
X1027847Y279108D01*
X1028352Y278352D01*
X1029108Y277847D01*
X1030000Y277669D01*
X1075000D01*
X1075892Y277847D01*
X1076648Y278352D01*
X1077153Y279108D01*
X1077331Y280000D01*
Y397669D01*
X1105000D01*
X1105892Y397847D01*
X1106648Y398352D01*
X1107153Y399108D01*
X1107331Y400000D01*
Y430000D01*
X1107153Y430892D01*
X1106648Y431648D01*
X1106000Y432081D01*
Y447000D01*
X1213000D01*
Y370000D01*
D02*
G37*
G36*
X1063000Y771122D02*
X1062847Y770892D01*
X1062669Y770000D01*
Y740000D01*
X1062847Y739108D01*
X1063000Y738879D01*
Y738000D01*
X1063879D01*
X1064108Y737847D01*
X1065000Y737669D01*
X1085000D01*
Y614880D01*
X1021521D01*
X1012000Y624401D01*
Y658000D01*
X982331D01*
Y662669D01*
X982153Y663561D01*
X981648Y664317D01*
X981000Y664750D01*
Y665000D01*
X980000D01*
X980000Y665000D01*
X898000D01*
X896880Y665383D01*
Y703000D01*
X896508Y704867D01*
X895451Y706451D01*
X893867Y707508D01*
X892000Y707880D01*
X889581D01*
Y709000D01*
X889403Y709892D01*
X888898Y710648D01*
X888142Y711153D01*
X888000Y711182D01*
Y728818D01*
X888142Y728847D01*
X888898Y729352D01*
X889403Y730108D01*
X889581Y731000D01*
Y742669D01*
X895000D01*
X895892Y742847D01*
X896648Y743352D01*
X897153Y744108D01*
X897331Y745000D01*
Y765967D01*
X897979Y766937D01*
X898390Y769000D01*
X897979Y771062D01*
X897331Y772033D01*
Y783351D01*
X1063000D01*
Y771122D01*
D02*
G37*
G36*
X255000Y783351D02*
X255000Y783351D01*
X255000Y783351D01*
X895000Y783351D01*
Y745000D01*
X888371D01*
X888142Y745153D01*
X887250Y745331D01*
X837250D01*
X836358Y745153D01*
X836129Y745000D01*
X834901D01*
X832000Y747901D01*
Y760000D01*
X809000D01*
Y748331D01*
X795155D01*
X794819Y748264D01*
X794479Y748230D01*
X792932Y747761D01*
X790000Y747472D01*
X787068Y747761D01*
X785521Y748230D01*
X785181Y748264D01*
X784845Y748331D01*
X765528D01*
X765367Y748804D01*
X765779Y749120D01*
X767348Y751165D01*
X768334Y753545D01*
X768670Y756100D01*
Y761100D01*
X768334Y763655D01*
X767348Y766035D01*
X765779Y768080D01*
X763735Y769648D01*
X761355Y770634D01*
X758800Y770971D01*
X756245Y770634D01*
X753865Y769648D01*
X751821Y768080D01*
X750252Y766035D01*
X749266Y763655D01*
X748930Y761100D01*
Y756100D01*
X749266Y753545D01*
X750252Y751165D01*
X751821Y749120D01*
X752233Y748804D01*
X752072Y748331D01*
X740128D01*
X739967Y748804D01*
X740379Y749120D01*
X741948Y751165D01*
X742934Y753545D01*
X743270Y756100D01*
Y761100D01*
X742934Y763655D01*
X741948Y766035D01*
X740379Y768080D01*
X738335Y769648D01*
X735955Y770634D01*
X733400Y770971D01*
X730845Y770634D01*
X728465Y769648D01*
X726421Y768080D01*
X724852Y766035D01*
X723866Y763655D01*
X723530Y761100D01*
Y756100D01*
X723866Y753545D01*
X724852Y751165D01*
X726421Y749120D01*
X726833Y748804D01*
X726672Y748331D01*
X714728D01*
X714567Y748804D01*
X714979Y749120D01*
X716548Y751165D01*
X717534Y753545D01*
X717870Y756100D01*
Y761100D01*
X717534Y763655D01*
X716548Y766035D01*
X714979Y768080D01*
X712935Y769648D01*
X710555Y770634D01*
X708000Y770971D01*
X705445Y770634D01*
X703065Y769648D01*
X701021Y768080D01*
X699452Y766035D01*
X698466Y763655D01*
X698130Y761100D01*
Y756100D01*
X698466Y753545D01*
X699452Y751165D01*
X701021Y749120D01*
X701433Y748804D01*
X701272Y748331D01*
X689328D01*
X689167Y748804D01*
X689579Y749120D01*
X691148Y751165D01*
X692134Y753545D01*
X692470Y756100D01*
Y761100D01*
X692134Y763655D01*
X691148Y766035D01*
X689579Y768080D01*
X687535Y769648D01*
X685155Y770634D01*
X682600Y770971D01*
X680045Y770634D01*
X677665Y769648D01*
X675620Y768080D01*
X674052Y766035D01*
X673066Y763655D01*
X672730Y761100D01*
Y756100D01*
X673066Y753545D01*
X674052Y751165D01*
X675620Y749120D01*
X676033Y748804D01*
X675872Y748331D01*
X663928D01*
X663767Y748804D01*
X664180Y749120D01*
X665748Y751165D01*
X666734Y753545D01*
X667070Y756100D01*
Y761100D01*
X666734Y763655D01*
X665748Y766035D01*
X664180Y768080D01*
X662135Y769648D01*
X659755Y770634D01*
X657200Y770971D01*
X654645Y770634D01*
X652265Y769648D01*
X650220Y768080D01*
X648652Y766035D01*
X647666Y763655D01*
X647330Y761100D01*
Y756100D01*
X647666Y753545D01*
X648652Y751165D01*
X650220Y749120D01*
X650633Y748804D01*
X650472Y748331D01*
X638528D01*
X638367Y748804D01*
X638779Y749120D01*
X640348Y751165D01*
X641334Y753545D01*
X641670Y756100D01*
Y761100D01*
X641334Y763655D01*
X640348Y766035D01*
X638779Y768080D01*
X636735Y769648D01*
X634355Y770634D01*
X631800Y770971D01*
X629245Y770634D01*
X626865Y769648D01*
X624821Y768080D01*
X623252Y766035D01*
X622266Y763655D01*
X621930Y761100D01*
Y756100D01*
X622266Y753545D01*
X623252Y751165D01*
X624821Y749120D01*
X625233Y748804D01*
X625072Y748331D01*
X613128D01*
X612967Y748804D01*
X613380Y749120D01*
X614948Y751165D01*
X615934Y753545D01*
X616270Y756100D01*
Y761100D01*
X615934Y763655D01*
X614948Y766035D01*
X613380Y768080D01*
X611335Y769648D01*
X608955Y770634D01*
X606400Y770971D01*
X603845Y770634D01*
X601465Y769648D01*
X599421Y768080D01*
X597852Y766035D01*
X596866Y763655D01*
X596530Y761100D01*
Y756100D01*
X596866Y753545D01*
X597852Y751165D01*
X599421Y749120D01*
X599833Y748804D01*
X599672Y748331D01*
X591219D01*
X590831Y748831D01*
Y768600D01*
X590653Y769492D01*
X590148Y770248D01*
X589392Y770753D01*
X588500Y770931D01*
X573500D01*
X572608Y770753D01*
X571852Y770248D01*
X571347Y769492D01*
X571169Y768600D01*
Y748600D01*
X570948Y748331D01*
X465243Y748331D01*
X463402Y748331D01*
X463176Y748286D01*
X462947D01*
X459335Y747568D01*
X459123Y747480D01*
X458898Y747435D01*
X455496Y746026D01*
X455305Y745899D01*
X455093Y745811D01*
X452038Y743769D01*
X451876Y743607D01*
X451686Y743480D01*
X450433Y742229D01*
X450432Y742228D01*
X450431Y742227D01*
X450377Y742173D01*
X450377Y742173D01*
X441367Y733163D01*
X440674Y732535D01*
X439074Y731466D01*
X437350Y730752D01*
X435462Y730377D01*
X434528Y730331D01*
X423500D01*
X423500Y730331D01*
X415500D01*
X415500Y730331D01*
X406831D01*
X405939Y730153D01*
X405665Y729971D01*
X405392Y730153D01*
X404500Y730331D01*
X396500D01*
X395608Y730153D01*
X394852Y729648D01*
X394347Y728892D01*
X394169Y728000D01*
Y724880D01*
X390831D01*
Y728000D01*
X390653Y728892D01*
X390148Y729648D01*
X389392Y730153D01*
X388500Y730331D01*
X380500D01*
X379608Y730153D01*
X378852Y729648D01*
X378347Y728892D01*
X378169Y728000D01*
Y712000D01*
X378347Y711108D01*
X378852Y710352D01*
X379608Y709847D01*
X380500Y709669D01*
X382669D01*
Y700000D01*
D01*
Y689970D01*
X382500Y689831D01*
X362500D01*
X361608Y689653D01*
X360852Y689148D01*
X360634Y689127D01*
X350698Y699064D01*
X349605Y699793D01*
X348567Y700000D01*
X348317Y700050D01*
X290683D01*
X290433Y700000D01*
X289395Y699793D01*
X288302Y699064D01*
X278619Y689381D01*
X277890Y688288D01*
X277633Y687000D01*
Y652200D01*
X277890Y650912D01*
X278619Y649819D01*
X291139Y637300D01*
X290552Y636535D01*
X289566Y634155D01*
X289230Y631600D01*
X289566Y629045D01*
X290552Y626665D01*
X292120Y624621D01*
X294165Y623052D01*
X296545Y622066D01*
X299100Y621730D01*
X304100D01*
X306655Y622066D01*
X309035Y623052D01*
X311080Y624621D01*
X312648Y626665D01*
X313634Y629045D01*
X313659Y629238D01*
X314940D01*
X314966Y629045D01*
X315952Y626665D01*
X317521Y624621D01*
X319565Y623052D01*
X321945Y622066D01*
X324500Y621730D01*
X329500D01*
X332055Y622066D01*
X334435Y623052D01*
X336479Y624621D01*
X338048Y626665D01*
X339034Y629045D01*
X339370Y631600D01*
X339034Y634155D01*
X338048Y636535D01*
X336479Y638579D01*
X334435Y640148D01*
X332055Y641134D01*
X329500Y641470D01*
X324500D01*
X321945Y641134D01*
X319565Y640148D01*
X317521Y638579D01*
X315952Y636535D01*
X314966Y634155D01*
X314940Y633962D01*
X313659D01*
X313634Y634155D01*
X312648Y636535D01*
X311080Y638579D01*
X309035Y640148D01*
X306655Y641134D01*
X304100Y641470D01*
X299100D01*
X296794Y641167D01*
X284367Y653595D01*
Y667813D01*
X285540Y668299D01*
X291139Y662700D01*
X290552Y661935D01*
X289566Y659555D01*
X289230Y657000D01*
X289566Y654445D01*
X290552Y652065D01*
X292120Y650021D01*
X294165Y648452D01*
X296545Y647466D01*
X299100Y647130D01*
X304100D01*
X306655Y647466D01*
X309035Y648452D01*
X311080Y650021D01*
X312648Y652065D01*
X313634Y654445D01*
X313659Y654638D01*
X314940D01*
X314966Y654445D01*
X315952Y652065D01*
X317521Y650021D01*
X319565Y648452D01*
X321945Y647466D01*
X324500Y647130D01*
X329500D01*
X331806Y647433D01*
X345633Y633605D01*
Y601900D01*
X345890Y600612D01*
X346619Y599519D01*
X362039Y584100D01*
X361452Y583335D01*
X360466Y580955D01*
X360130Y578400D01*
X360466Y575845D01*
X361452Y573465D01*
X363021Y571421D01*
X365065Y569852D01*
X367445Y568866D01*
X370000Y568530D01*
X372500D01*
Y562870D01*
X370000D01*
X367445Y562534D01*
X365065Y561548D01*
X363021Y559980D01*
X361452Y557935D01*
X360466Y555555D01*
X360130Y553000D01*
X360466Y550445D01*
X361452Y548065D01*
X363021Y546021D01*
X365065Y544452D01*
X367445Y543466D01*
X370000Y543130D01*
X375000D01*
X377555Y543466D01*
X379935Y544452D01*
X381399Y545575D01*
X382669Y544949D01*
Y535651D01*
X381399Y535025D01*
X379935Y536148D01*
X377555Y537134D01*
X375000Y537471D01*
X370000D01*
X367694Y537167D01*
X353367Y551495D01*
Y583200D01*
X353110Y584488D01*
X352381Y585581D01*
X337461Y600500D01*
X338048Y601265D01*
X339034Y603645D01*
X339370Y606200D01*
X339034Y608755D01*
X338048Y611135D01*
X336479Y613180D01*
X334435Y614748D01*
X332055Y615734D01*
X329500Y616070D01*
X324500D01*
X321945Y615734D01*
X319565Y614748D01*
X317521Y613180D01*
X315952Y611135D01*
X314966Y608755D01*
X314940Y608562D01*
X313659D01*
X313634Y608755D01*
X312648Y611135D01*
X311080Y613180D01*
X309035Y614748D01*
X306655Y615734D01*
X304100Y616070D01*
X299100D01*
X296545Y615734D01*
X294165Y614748D01*
X292120Y613180D01*
X290552Y611135D01*
X289566Y608755D01*
X289230Y606200D01*
X289566Y603645D01*
X290552Y601265D01*
X292120Y599221D01*
X294165Y597652D01*
X296545Y596666D01*
X299100Y596330D01*
X304100D01*
X306655Y596666D01*
X309035Y597652D01*
X311080Y599221D01*
X312648Y601265D01*
X313634Y603645D01*
X313659Y603838D01*
X314940D01*
X314966Y603645D01*
X315952Y601265D01*
X317521Y599221D01*
X319565Y597652D01*
X321945Y596666D01*
X324500Y596330D01*
X329500D01*
X331806Y596633D01*
X346633Y581805D01*
Y550100D01*
X346890Y548812D01*
X347619Y547719D01*
X362039Y533300D01*
X361452Y532535D01*
X360466Y530155D01*
X360130Y527600D01*
X360466Y525045D01*
X361452Y522665D01*
X363021Y520620D01*
X365065Y519052D01*
X367445Y518066D01*
X370000Y517730D01*
X375000D01*
X377555Y518066D01*
X379935Y519052D01*
X381399Y520175D01*
X382669Y519549D01*
Y510251D01*
X381399Y509625D01*
X379935Y510748D01*
X377555Y511734D01*
X375000Y512071D01*
X370000D01*
X367445Y511734D01*
X365065Y510748D01*
X363021Y509179D01*
X361452Y507135D01*
X360466Y504755D01*
X360130Y502200D01*
X360466Y499645D01*
X361452Y497265D01*
X363021Y495220D01*
X365065Y493652D01*
X367445Y492666D01*
X370000Y492330D01*
X375000D01*
X377555Y492666D01*
X379935Y493652D01*
X381399Y494775D01*
X382669Y494149D01*
X382669Y474970D01*
X382500Y474831D01*
X362500D01*
X361608Y474653D01*
X360852Y474148D01*
X360347Y473392D01*
X360169Y472500D01*
Y468367D01*
X342594D01*
X337461Y473500D01*
X338048Y474265D01*
X339034Y476645D01*
X339370Y479200D01*
X339034Y481755D01*
X338048Y484135D01*
X336479Y486180D01*
X334435Y487748D01*
X332055Y488734D01*
X329500Y489070D01*
X324500D01*
X321945Y488734D01*
X319565Y487748D01*
X317521Y486180D01*
X315952Y484135D01*
X314966Y481755D01*
X314940Y481562D01*
X313659D01*
X313634Y481755D01*
X312648Y484135D01*
X311080Y486180D01*
X309035Y487748D01*
X306655Y488734D01*
X304100Y489070D01*
X299100D01*
X296545Y488734D01*
X294165Y487748D01*
X292120Y486180D01*
X290552Y484135D01*
X289566Y481755D01*
X289230Y479200D01*
X289566Y476645D01*
X290552Y474265D01*
X292120Y472220D01*
X294165Y470652D01*
X296545Y469666D01*
X299100Y469330D01*
X304100D01*
X306655Y469666D01*
X309035Y470652D01*
X311080Y472220D01*
X312648Y474265D01*
X313634Y476645D01*
X313659Y476838D01*
X314940D01*
X314966Y476645D01*
X315952Y474265D01*
X317521Y472220D01*
X319565Y470652D01*
X321945Y469666D01*
X324500Y469330D01*
X329500D01*
X331806Y469633D01*
X338819Y462619D01*
X339912Y461890D01*
X341200Y461633D01*
X360169D01*
Y457500D01*
X360347Y456608D01*
X360852Y455852D01*
X361608Y455347D01*
X362500Y455169D01*
X381399D01*
X382669Y453969D01*
Y447651D01*
X381399Y447025D01*
X379935Y448148D01*
X377555Y449134D01*
X375000Y449470D01*
X370000D01*
X367445Y449134D01*
X365065Y448148D01*
X363021Y446580D01*
X361452Y444535D01*
X360466Y442155D01*
X360130Y439600D01*
X360466Y437045D01*
X361452Y434665D01*
X363021Y432621D01*
X365065Y431052D01*
X367445Y430066D01*
X370000Y429730D01*
X375000D01*
X377555Y430066D01*
X379935Y431052D01*
X381812Y432492D01*
X382563Y432452D01*
X383290Y432242D01*
X383455Y431842D01*
X383455Y431842D01*
X383455Y431842D01*
X383773Y431367D01*
X383960Y431086D01*
X383960Y431086D01*
X383960Y431086D01*
X385086Y429961D01*
X385086Y429961D01*
X385086Y429961D01*
X385461Y429710D01*
X385842Y429455D01*
X385842Y429455D01*
X385842Y429455D01*
X387312Y428847D01*
X387312Y428846D01*
X387313Y428846D01*
X387824Y428745D01*
X388204Y428669D01*
X388204Y428669D01*
X388204Y428669D01*
X389000Y428669D01*
X465795D01*
X466020Y428714D01*
X466250D01*
X469435Y429347D01*
X469647Y429435D01*
X469872Y429480D01*
X472872Y430723D01*
X473063Y430850D01*
X473275Y430938D01*
X475975Y432742D01*
X476137Y432905D01*
X476328Y433032D01*
X477476Y434180D01*
X477477Y434180D01*
X486428Y443132D01*
X487544Y444143D01*
X490093Y445846D01*
X492871Y446997D01*
X495877Y447595D01*
X497388Y447669D01*
X505618Y447669D01*
X507122Y447595D01*
X510129Y446997D01*
X512907Y445847D01*
X515442Y444152D01*
X515442Y444152D01*
X515443Y444152D01*
X515456Y444143D01*
X516571Y443133D01*
X525816Y433887D01*
X526895Y432809D01*
X527086Y432681D01*
X527248Y432519D01*
X529784Y430825D01*
X529996Y430737D01*
X530187Y430609D01*
X533005Y429442D01*
X533230Y429397D01*
X533442Y429309D01*
X536434Y428714D01*
X536664D01*
X536889Y428669D01*
X538414Y428669D01*
X559347D01*
X559530Y428705D01*
X559715Y428699D01*
X559971Y428793D01*
X560239Y428847D01*
X560394Y428950D01*
X560568Y429015D01*
X560768Y429200D01*
X560995Y429352D01*
X561099Y429506D01*
X561235Y429633D01*
X561625Y430172D01*
X562430Y430926D01*
X563313Y430742D01*
X564945Y430066D01*
X567500Y429730D01*
X572500D01*
X575055Y430066D01*
X576687Y430742D01*
X577570Y430926D01*
X578375Y430172D01*
X578765Y429633D01*
X578901Y429506D01*
X579005Y429352D01*
X579232Y429200D01*
X579432Y429015D01*
X579606Y428950D01*
X579761Y428847D01*
X580029Y428793D01*
X580284Y428699D01*
X580470Y428705D01*
X580653Y428669D01*
X660171Y428669D01*
X661795Y428669D01*
X662020Y428714D01*
X662250D01*
X665435Y429347D01*
X665647Y429435D01*
X665872Y429480D01*
X668872Y430723D01*
X669063Y430850D01*
X669275Y430938D01*
X671975Y432742D01*
X672137Y432905D01*
X672328Y433032D01*
X673476Y434180D01*
X673477Y434180D01*
X684428Y445132D01*
X685544Y446143D01*
X688092Y447846D01*
X690871Y448997D01*
X693877Y449595D01*
X695388Y449669D01*
X708296Y449669D01*
X708928Y449607D01*
X710195Y449082D01*
X711000Y448278D01*
Y427096D01*
X697000D01*
X693662Y426657D01*
X690552Y425369D01*
X687881Y423319D01*
X685831Y420648D01*
X684543Y417538D01*
X684104Y414200D01*
X684543Y410862D01*
X685831Y407752D01*
X687881Y405081D01*
X690552Y403032D01*
X692590Y402187D01*
Y400813D01*
X690552Y399969D01*
X687881Y397919D01*
X685831Y395248D01*
X684543Y392138D01*
X684104Y388800D01*
X684543Y385462D01*
X685831Y382352D01*
X687881Y379681D01*
X690552Y377631D01*
X692590Y376787D01*
Y375413D01*
X690552Y374569D01*
X687881Y372519D01*
X685831Y369848D01*
X684543Y366738D01*
X684104Y363400D01*
X684543Y360062D01*
X685831Y356952D01*
X687881Y354281D01*
X690552Y352231D01*
X692590Y351387D01*
Y350013D01*
X690552Y349169D01*
X687881Y347119D01*
X685831Y344448D01*
X684543Y341338D01*
X684104Y338000D01*
X684543Y334662D01*
X685831Y331552D01*
X687881Y328881D01*
X690552Y326832D01*
X693059Y325793D01*
X693662Y325543D01*
X697000Y325104D01*
X732900D01*
X736238Y325543D01*
X737341Y326000D01*
X742742D01*
X742972Y325846D01*
X743048Y325831D01*
X743115Y325793D01*
X743492Y325743D01*
X743864Y325669D01*
X744706D01*
X745258Y325615D01*
X746378Y325151D01*
X747151Y324378D01*
X747615Y323259D01*
X747669Y322703D01*
X747669Y310000D01*
X747669Y309006D01*
X747669Y309006D01*
X747669Y309006D01*
X747846Y308114D01*
X747846Y308114D01*
X747846Y308114D01*
X748607Y306276D01*
X749113Y305520D01*
X749113Y305520D01*
X750519Y304113D01*
X751275Y303608D01*
X751275Y303608D01*
X753113Y302847D01*
X753113Y302847D01*
X753602Y302749D01*
X754005Y302669D01*
X755000Y302669D01*
X872000Y302669D01*
X872994D01*
X873886Y302847D01*
X875724Y303608D01*
X876480Y304113D01*
X877887Y305519D01*
X878392Y306276D01*
X879153Y308113D01*
X879273Y308717D01*
X879364Y309024D01*
X880500Y309669D01*
X888500D01*
X889392Y309847D01*
X890148Y310352D01*
X890653Y311108D01*
X890831Y312000D01*
Y328000D01*
X890653Y328892D01*
X891130Y330403D01*
X891441Y330532D01*
X892197Y331037D01*
X892197Y331037D01*
X893463Y332303D01*
X893968Y333059D01*
X894653Y334713D01*
X894830Y335605D01*
X894830Y336499D01*
X894831Y336500D01*
X894831Y373000D01*
X897094D01*
X897500Y372919D01*
X927000D01*
Y311000D01*
X940000D01*
Y251649D01*
X255000D01*
X254333Y251649D01*
X253102Y252160D01*
X252160Y253102D01*
X251649Y254333D01*
Y255000D01*
Y320000D01*
X276000D01*
Y334000D01*
X251649D01*
Y375000D01*
X276000D01*
Y389000D01*
X251649D01*
X251649Y552500D01*
X276000D01*
Y566500D01*
X251649D01*
Y607500D01*
X276000D01*
Y621500D01*
X251649D01*
Y700050D01*
Y780000D01*
X251649Y780000D01*
X251649Y780000D01*
X251649Y780667D01*
X252160Y781898D01*
X253102Y782840D01*
X254333Y783351D01*
X255000Y783351D01*
D02*
G37*
G36*
X465243Y746000D02*
X784845Y746000D01*
X786611Y745464D01*
X790000Y745130D01*
X793389Y745464D01*
X795155Y746000D01*
X817586D01*
X817586Y746000D01*
X817586Y746000D01*
X817588D01*
X819428Y745795D01*
X819990Y745683D01*
X820717Y745382D01*
X832549Y733550D01*
X832550Y733549D01*
X832926Y733298D01*
X833590Y731694D01*
X834000Y729635D01*
X834000Y728586D01*
X834000Y699000D01*
X834096Y698024D01*
X834843Y696222D01*
X835379Y695685D01*
X835602Y695352D01*
X835936Y695129D01*
X836222Y694842D01*
X838025Y694096D01*
X839000Y694000D01*
X887120Y694000D01*
Y658000D01*
X883000D01*
Y615000D01*
X836828Y615000D01*
X836828Y615000D01*
X834502Y614885D01*
X829940Y613978D01*
X825643Y612198D01*
X821776Y609614D01*
X820050Y608050D01*
X816535Y604535D01*
X816535Y604535D01*
X815065Y602913D01*
X812635Y599276D01*
X810961Y595235D01*
X810107Y590944D01*
X810046Y589690D01*
X809847Y589392D01*
X809669Y588500D01*
Y580500D01*
X809847Y579608D01*
X810000Y579379D01*
Y570621D01*
X809847Y570392D01*
X809669Y569500D01*
Y561500D01*
X809847Y560608D01*
X810000Y560379D01*
Y554621D01*
X809847Y554392D01*
X809669Y553500D01*
Y545500D01*
X809847Y544608D01*
X810000Y544379D01*
Y544000D01*
X810253D01*
X810352Y543852D01*
X811108Y543347D01*
X812000Y543169D01*
X819430D01*
X833049Y529550D01*
X833049Y529549D01*
X834633Y528492D01*
X834919Y528435D01*
Y527000D01*
X835097Y526108D01*
X835602Y525352D01*
X836358Y524847D01*
X837250Y524669D01*
X838831D01*
X839500Y524000D01*
X889000Y524000D01*
Y524000D01*
X890193D01*
X892399Y523087D01*
X894087Y521399D01*
X895000Y519193D01*
Y494880D01*
X893133Y494508D01*
X891550Y493451D01*
X891549Y493450D01*
X885930Y487831D01*
X880500D01*
X879608Y487653D01*
X878852Y487148D01*
X878753Y487000D01*
X871247Y487000D01*
X871148Y487148D01*
X870392Y487653D01*
X869500Y487831D01*
X861500D01*
X860608Y487653D01*
X859852Y487148D01*
X859347Y486392D01*
X859169Y485500D01*
Y469500D01*
X859347Y468608D01*
X859852Y467852D01*
X860000Y467753D01*
Y464747D01*
X859852Y464648D01*
X859347Y463892D01*
X859169Y463000D01*
Y447000D01*
X859347Y446108D01*
X859852Y445352D01*
X860608Y444847D01*
X861500Y444669D01*
X869500D01*
X870392Y444847D01*
X871148Y445352D01*
X871581Y446000D01*
X878419D01*
X878852Y445352D01*
X879608Y444847D01*
X880500Y444669D01*
X888500D01*
X889392Y444847D01*
X889545Y444949D01*
X890143Y444549D01*
X891049Y443643D01*
X891760Y442579D01*
X892250Y441396D01*
X892500Y440140D01*
Y439500D01*
X892500Y336500D01*
X892500Y336500D01*
X892500Y335605D01*
X891815Y333951D01*
X890549Y332685D01*
X888895Y332000D01*
X877000Y332000D01*
X877000Y310000D01*
X877000Y310000D01*
Y309005D01*
X876238Y307167D01*
X874832Y305761D01*
X872994Y305000D01*
X872000D01*
X755000Y305000D01*
X754005Y305000D01*
X752167Y305761D01*
X750761Y307168D01*
X750000Y309005D01*
X750000Y310000D01*
X750000Y322820D01*
X750000Y322821D01*
X750000Y322821D01*
X749999Y322822D01*
X749900Y323831D01*
X749573Y324622D01*
X749127Y325698D01*
X747698Y327127D01*
X745831Y327901D01*
X744820Y328000D01*
X743864D01*
X742878Y330000D01*
X744069Y331552D01*
X745357Y334662D01*
X745796Y338000D01*
X745357Y341338D01*
X744069Y344448D01*
X742019Y347119D01*
X739348Y349169D01*
X738264Y349618D01*
Y351782D01*
X739348Y352231D01*
X742019Y354281D01*
X744069Y356952D01*
X745357Y360062D01*
X745796Y363400D01*
X745357Y366738D01*
X744069Y369848D01*
X742019Y372519D01*
X739348Y374569D01*
X738264Y375018D01*
Y377182D01*
X739348Y377631D01*
X742019Y379681D01*
X744069Y382352D01*
X745357Y385462D01*
X745796Y388800D01*
X745357Y392138D01*
X744069Y395248D01*
X742019Y397919D01*
X739348Y399969D01*
X738264Y400418D01*
Y402582D01*
X739348Y403032D01*
X740961Y404269D01*
X743000D01*
X743892Y404447D01*
X744648Y404952D01*
X745153Y405708D01*
X745331Y406600D01*
Y410799D01*
X745357Y410862D01*
X745796Y414200D01*
X745357Y417538D01*
X745331Y417601D01*
Y421600D01*
X745153Y422492D01*
X744648Y423248D01*
X743892Y423753D01*
X743000Y423931D01*
X741222D01*
X739348Y425369D01*
X736238Y426657D01*
X732900Y427096D01*
X714000D01*
Y446410D01*
X714000Y446410D01*
X714000Y446410D01*
X713999Y446412D01*
X713893Y447501D01*
X713596Y448215D01*
X713058Y449516D01*
X711516Y451058D01*
X709501Y451893D01*
X708410Y452000D01*
X695325Y452000D01*
X695325Y452000D01*
X693591Y451915D01*
X690191Y451238D01*
X686988Y449912D01*
X684106Y447986D01*
X682820Y446820D01*
X671829Y435829D01*
X671828Y435828D01*
X670680Y434680D01*
X667980Y432876D01*
X664980Y431633D01*
X661795Y431000D01*
X660172Y431000D01*
X580653Y431000D01*
X580168Y431670D01*
X579771Y433000D01*
X581048Y434665D01*
X582034Y437045D01*
X582370Y439600D01*
X582034Y442155D01*
X581048Y444535D01*
X579479Y446580D01*
X577435Y448148D01*
X575055Y449134D01*
X572500Y449470D01*
X567500D01*
X564945Y449134D01*
X562565Y448148D01*
X560521Y446580D01*
X558952Y444535D01*
X557966Y442155D01*
X557630Y439600D01*
X557966Y437045D01*
X558952Y434665D01*
X560229Y433000D01*
X559832Y431670D01*
X559347Y431000D01*
X538414D01*
X536889Y431000D01*
X533897Y431595D01*
X531079Y432762D01*
X528543Y434457D01*
X527464Y435536D01*
X518180Y444820D01*
X518180Y444820D01*
X516894Y445986D01*
X516737Y446090D01*
X514011Y447912D01*
X510808Y449239D01*
X507408Y449915D01*
X505675Y450000D01*
X497325Y450000D01*
X497325Y450000D01*
X495591Y449915D01*
X492191Y449239D01*
X488988Y447912D01*
X486106Y445986D01*
X484820Y444820D01*
X475828Y435828D01*
X475828Y435828D01*
X474680Y434680D01*
X471980Y432876D01*
X468980Y431633D01*
X465795Y431000D01*
X389000D01*
X388204Y431000D01*
X386734Y431609D01*
X385609Y432734D01*
X385000Y434204D01*
X385000Y435000D01*
X385000Y551120D01*
X389745D01*
X389847Y550608D01*
X390352Y549852D01*
X391108Y549347D01*
X392000Y549169D01*
X408000D01*
X408892Y549347D01*
X409648Y549852D01*
X410153Y550608D01*
X410331Y551500D01*
Y553000D01*
X410590D01*
Y578400D01*
X410331D01*
Y578500D01*
X410153Y579392D01*
X409648Y580148D01*
X408892Y580653D01*
X408000Y580831D01*
X392000D01*
X391108Y580653D01*
X390352Y580148D01*
X389884Y579447D01*
X385000D01*
X385000Y709669D01*
X388500D01*
X389392Y709847D01*
X390148Y710352D01*
X390581Y711000D01*
X394419D01*
X394852Y710352D01*
X395608Y709847D01*
X396500Y709669D01*
X404500D01*
X405392Y709847D01*
X406148Y710352D01*
X406653Y711108D01*
X406831Y712000D01*
Y728000D01*
X434586D01*
X435748Y728057D01*
X438030Y728511D01*
X440178Y729401D01*
X442112Y730693D01*
X442975Y731475D01*
X452025Y740525D01*
X452025Y740525D01*
X452025Y740525D01*
X452080Y740579D01*
X453333Y741831D01*
X456388Y743873D01*
X459790Y745282D01*
X463401Y746000D01*
X465243Y746000D01*
D02*
G37*
G36*
X1265851Y254500D02*
X1265851Y253933D01*
X1265416Y252885D01*
X1264615Y252083D01*
X1263567Y251649D01*
X1160331D01*
Y273000D01*
X1181000D01*
Y284669D01*
X1265851D01*
Y254500D01*
D02*
G37*
G36*
Y566331D02*
X1215331D01*
X1215331Y567601D01*
X1215331Y607000D01*
X1215153Y607892D01*
X1214648Y608648D01*
X1213892Y609153D01*
X1213000Y609331D01*
X1190331D01*
Y641669D01*
X1265851D01*
Y566331D01*
D02*
G37*
G36*
X999608Y614847D02*
X1000500Y614669D01*
X1007930D01*
X1016049Y606550D01*
X1016049Y606549D01*
X1017633Y605492D01*
X1019500Y605120D01*
X1019500Y605120D01*
X1063000D01*
Y601121D01*
X1062847Y600892D01*
X1062669Y600000D01*
Y570000D01*
X1062847Y569108D01*
X1063352Y568352D01*
X1064108Y567847D01*
X1065000Y567669D01*
X1085000D01*
Y451901D01*
X1077979Y444880D01*
X1017880D01*
Y490000D01*
X1017508Y491867D01*
X1016451Y493451D01*
X1014867Y494508D01*
X1013000Y494880D01*
X897331D01*
X897331Y494880D01*
Y519193D01*
X897153Y520085D01*
X896240Y522291D01*
X895735Y523047D01*
X894047Y524735D01*
X893291Y525240D01*
X891085Y526153D01*
X890722Y526226D01*
X889581Y527000D01*
Y539000D01*
X889403Y539892D01*
X889000Y540496D01*
Y559504D01*
X889403Y560108D01*
X889581Y561000D01*
Y573000D01*
X890130Y573669D01*
X895419D01*
X896311Y573847D01*
X897067Y574352D01*
X897573Y575108D01*
X897750Y576000D01*
Y604770D01*
X897788Y604962D01*
X897980Y605000D01*
X980000D01*
X980892Y605177D01*
X981648Y605683D01*
X982153Y606439D01*
X982331Y607331D01*
Y614669D01*
X989500D01*
X990392Y614847D01*
X990621Y615000D01*
X999379D01*
X999608Y614847D01*
D02*
G37*
G36*
X1213000Y607000D02*
X1213000Y557000D01*
X1188000Y532000D01*
Y449331D01*
X1106000D01*
X1105108Y449153D01*
X1104878Y449000D01*
X1087000D01*
Y450780D01*
X1087153Y451009D01*
X1087331Y451901D01*
Y567669D01*
X1105000D01*
X1105892Y567847D01*
X1106648Y568352D01*
X1107153Y569108D01*
X1107331Y570000D01*
Y600000D01*
X1107153Y600892D01*
X1106648Y601648D01*
X1106000Y602081D01*
Y607000D01*
X1213000Y607000D01*
D02*
G37*
G36*
X1265851Y492000D02*
X1190331D01*
Y531035D01*
X1214648Y555352D01*
X1215153Y556108D01*
X1215331Y557000D01*
Y564000D01*
X1265851D01*
Y492000D01*
D02*
G37*
%LPC*%
G36*
X1237500Y737370D02*
X1234945Y737034D01*
X1232565Y736048D01*
X1230520Y734480D01*
X1228952Y732435D01*
X1227966Y730055D01*
X1227629Y727500D01*
X1227966Y724945D01*
X1228952Y722565D01*
X1230520Y720520D01*
X1232565Y718952D01*
X1234945Y717966D01*
X1237500Y717630D01*
X1240055Y717966D01*
X1242435Y718952D01*
X1244480Y720520D01*
X1246048Y722565D01*
X1247034Y724945D01*
X1247370Y727500D01*
X1247034Y730055D01*
X1246048Y732435D01*
X1244480Y734480D01*
X1242435Y736048D01*
X1240055Y737034D01*
X1237500Y737370D01*
D02*
G37*
G36*
X1181150Y621390D02*
X1179088Y620979D01*
X1177339Y619811D01*
X1176171Y618063D01*
X1175760Y616000D01*
X1176171Y613937D01*
X1177339Y612189D01*
X1179088Y611021D01*
X1181150Y610610D01*
X1183213Y611021D01*
X1184961Y612189D01*
X1186129Y613937D01*
X1186540Y616000D01*
X1186129Y618063D01*
X1184961Y619811D01*
X1183213Y620979D01*
X1181150Y621390D01*
D02*
G37*
G36*
X572500Y373270D02*
X567500D01*
X564945Y372934D01*
X562565Y371948D01*
X560521Y370379D01*
X558952Y368335D01*
X557966Y365955D01*
X557630Y363400D01*
X557966Y360845D01*
X558952Y358465D01*
X560521Y356421D01*
X562565Y354852D01*
X564945Y353866D01*
X567500Y353530D01*
X570000D01*
Y347870D01*
X567500D01*
X564945Y347534D01*
X562565Y346548D01*
X560521Y344980D01*
X558952Y342935D01*
X557966Y340555D01*
X557630Y338000D01*
X557966Y335445D01*
X558952Y333065D01*
X560521Y331021D01*
X562565Y329452D01*
X564945Y328466D01*
X567500Y328130D01*
X572500D01*
X575055Y328466D01*
X577435Y329452D01*
X579479Y331021D01*
X581048Y333065D01*
X582034Y335445D01*
X582057Y335620D01*
X587344D01*
X587347Y335608D01*
X587852Y334852D01*
X588608Y334347D01*
X589500Y334169D01*
X605500D01*
X606392Y334347D01*
X607148Y334852D01*
X607653Y335608D01*
X607831Y336500D01*
Y338000D01*
X608090D01*
Y363400D01*
X607831D01*
Y363500D01*
X607653Y364392D01*
X607148Y365148D01*
X606392Y365653D01*
X605500Y365831D01*
X589500D01*
X588608Y365653D01*
X587852Y365148D01*
X587347Y364392D01*
X587324Y364280D01*
X582255D01*
X582034Y365955D01*
X581048Y368335D01*
X579479Y370379D01*
X577435Y371948D01*
X575055Y372934D01*
X572500Y373270D01*
D02*
G37*
G36*
X329500Y362070D02*
X324500D01*
X321945Y361734D01*
X319565Y360748D01*
X317521Y359179D01*
X315952Y357135D01*
X314966Y354755D01*
X314940Y354562D01*
X313659D01*
X313634Y354755D01*
X312648Y357135D01*
X311080Y359179D01*
X309035Y360748D01*
X306655Y361734D01*
X304100Y362070D01*
X299100D01*
X296545Y361734D01*
X294165Y360748D01*
X292120Y359179D01*
X290552Y357135D01*
X289566Y354755D01*
X289230Y352200D01*
X289566Y349645D01*
X290552Y347265D01*
X292120Y345220D01*
X294165Y343652D01*
X296545Y342666D01*
X299100Y342330D01*
X304100D01*
X306655Y342666D01*
X309035Y343652D01*
X311080Y345220D01*
X312648Y347265D01*
X313634Y349645D01*
X313659Y349838D01*
X314940D01*
X314966Y349645D01*
X315952Y347265D01*
X317521Y345220D01*
X319565Y343652D01*
X321945Y342666D01*
X324500Y342330D01*
X329500D01*
X332055Y342666D01*
X334435Y343652D01*
X336479Y345220D01*
X338048Y347265D01*
X339034Y349645D01*
X339370Y352200D01*
X339034Y354755D01*
X338048Y357135D01*
X336479Y359179D01*
X334435Y360748D01*
X332055Y361734D01*
X329500Y362070D01*
D02*
G37*
G36*
Y438270D02*
X324500D01*
X321945Y437934D01*
X319565Y436948D01*
X317521Y435379D01*
X315952Y433335D01*
X314966Y430955D01*
X314940Y430762D01*
X313659D01*
X313634Y430955D01*
X312648Y433335D01*
X311080Y435379D01*
X309035Y436948D01*
X306655Y437934D01*
X304100Y438270D01*
X299100D01*
X296545Y437934D01*
X294165Y436948D01*
X292120Y435379D01*
X290552Y433335D01*
X289566Y430955D01*
X289230Y428400D01*
X289566Y425845D01*
X290552Y423465D01*
X292120Y421421D01*
X294165Y419852D01*
X296545Y418866D01*
X299100Y418530D01*
X304100D01*
X306655Y418866D01*
X309035Y419852D01*
X311080Y421421D01*
X312648Y423465D01*
X313634Y425845D01*
X313659Y426038D01*
X314940D01*
X314966Y425845D01*
X315952Y423465D01*
X317521Y421421D01*
X319565Y419852D01*
X321945Y418866D01*
X324500Y418530D01*
X329500D01*
X332055Y418866D01*
X334435Y419852D01*
X336479Y421421D01*
X338048Y423465D01*
X339034Y425845D01*
X339370Y428400D01*
X339034Y430955D01*
X338048Y433335D01*
X336479Y435379D01*
X334435Y436948D01*
X332055Y437934D01*
X329500Y438270D01*
D02*
G37*
G36*
Y463670D02*
X324500D01*
X321945Y463334D01*
X319565Y462348D01*
X317521Y460779D01*
X315952Y458735D01*
X314966Y456355D01*
X314940Y456162D01*
X313659D01*
X313634Y456355D01*
X312648Y458735D01*
X311080Y460779D01*
X309035Y462348D01*
X306655Y463334D01*
X304100Y463670D01*
X299100D01*
X296545Y463334D01*
X294165Y462348D01*
X292120Y460779D01*
X290552Y458735D01*
X289566Y456355D01*
X289230Y453800D01*
X289566Y451245D01*
X290552Y448865D01*
X292120Y446820D01*
X294165Y445252D01*
X296545Y444266D01*
X299100Y443930D01*
X304100D01*
X306655Y444266D01*
X309035Y445252D01*
X311080Y446820D01*
X312648Y448865D01*
X313634Y451245D01*
X313659Y451438D01*
X314940D01*
X314966Y451245D01*
X315952Y448865D01*
X317521Y446820D01*
X319565Y445252D01*
X321945Y444266D01*
X324500Y443930D01*
X329500D01*
X331806Y444233D01*
X346633Y429406D01*
Y411300D01*
X346890Y410012D01*
X347619Y408919D01*
X362039Y394500D01*
X361452Y393735D01*
X360466Y391355D01*
X360130Y388800D01*
X360466Y386245D01*
X361452Y383865D01*
X363021Y381820D01*
X365065Y380252D01*
X367445Y379266D01*
X370000Y378930D01*
X375000D01*
X377555Y379266D01*
X379935Y380252D01*
X381979Y381820D01*
X383548Y383865D01*
X384534Y386245D01*
X384870Y388800D01*
X384534Y391355D01*
X383548Y393735D01*
X381979Y395779D01*
X379935Y397348D01*
X377555Y398334D01*
X375000Y398670D01*
X370000D01*
X367694Y398367D01*
X353367Y412695D01*
Y430800D01*
X353110Y432088D01*
X352381Y433181D01*
X337461Y448100D01*
X338048Y448865D01*
X339034Y451245D01*
X339370Y453800D01*
X339034Y456355D01*
X338048Y458735D01*
X336479Y460779D01*
X334435Y462348D01*
X332055Y463334D01*
X329500Y463670D01*
D02*
G37*
G36*
X375000Y424070D02*
X370000D01*
X367445Y423734D01*
X365065Y422748D01*
X363021Y421180D01*
X361452Y419135D01*
X360466Y416755D01*
X360130Y414200D01*
X360466Y411645D01*
X361452Y409265D01*
X363021Y407220D01*
X365065Y405652D01*
X367445Y404666D01*
X370000Y404330D01*
X375000D01*
X377555Y404666D01*
X379935Y405652D01*
X381979Y407220D01*
X383548Y409265D01*
X384534Y411645D01*
X384870Y414200D01*
X384534Y416755D01*
X383548Y419135D01*
X381979Y421180D01*
X379935Y422748D01*
X377555Y423734D01*
X375000Y424070D01*
D02*
G37*
G36*
X572500D02*
X567500D01*
X564945Y423734D01*
X562565Y422748D01*
X560521Y421180D01*
X558952Y419135D01*
X557966Y416755D01*
X557630Y414200D01*
X557966Y411645D01*
X558952Y409265D01*
X560521Y407220D01*
X562565Y405652D01*
X564945Y404666D01*
X567500Y404330D01*
X572500D01*
X575055Y404666D01*
X577435Y405652D01*
X579479Y407220D01*
X581048Y409265D01*
X582034Y411645D01*
X582370Y414200D01*
X582034Y416755D01*
X581048Y419135D01*
X579479Y421180D01*
X577435Y422748D01*
X575055Y423734D01*
X572500Y424070D01*
D02*
G37*
G36*
X329500Y412870D02*
X324500D01*
X321945Y412534D01*
X319565Y411548D01*
X317521Y409980D01*
X315952Y407935D01*
X314966Y405555D01*
X314940Y405362D01*
X313659D01*
X313634Y405555D01*
X312648Y407935D01*
X311080Y409980D01*
X309035Y411548D01*
X306655Y412534D01*
X304100Y412870D01*
X299100D01*
X296545Y412534D01*
X294165Y411548D01*
X292120Y409980D01*
X290552Y407935D01*
X289566Y405555D01*
X289230Y403000D01*
X289566Y400445D01*
X290552Y398065D01*
X292120Y396021D01*
X294165Y394452D01*
X296545Y393466D01*
X299100Y393130D01*
X304100D01*
X306655Y393466D01*
X309035Y394452D01*
X311080Y396021D01*
X312648Y398065D01*
X313634Y400445D01*
X313659Y400638D01*
X314940D01*
X314966Y400445D01*
X315952Y398065D01*
X317521Y396021D01*
X319565Y394452D01*
X321945Y393466D01*
X324500Y393130D01*
X329500D01*
X331806Y393433D01*
X355259Y369980D01*
Y301074D01*
X355515Y299786D01*
X356245Y298694D01*
X362039Y292900D01*
X361452Y292135D01*
X360466Y289755D01*
X360130Y287200D01*
X360466Y284645D01*
X361452Y282265D01*
X361978Y281580D01*
X361021Y280740D01*
X353367Y288395D01*
Y354600D01*
X353110Y355888D01*
X352381Y356981D01*
X337461Y371900D01*
X338048Y372665D01*
X339034Y375045D01*
X339370Y377600D01*
X339034Y380155D01*
X338048Y382535D01*
X336479Y384580D01*
X334435Y386148D01*
X332055Y387134D01*
X329500Y387470D01*
X324500D01*
X321945Y387134D01*
X319565Y386148D01*
X317521Y384580D01*
X315952Y382535D01*
X314966Y380155D01*
X314940Y379962D01*
X313659D01*
X313634Y380155D01*
X312648Y382535D01*
X311080Y384580D01*
X309035Y386148D01*
X306655Y387134D01*
X304100Y387470D01*
X299100D01*
X296545Y387134D01*
X294165Y386148D01*
X292120Y384580D01*
X290552Y382535D01*
X289566Y380155D01*
X289230Y377600D01*
X289566Y375045D01*
X290552Y372665D01*
X292120Y370620D01*
X294165Y369052D01*
X296545Y368066D01*
X299100Y367730D01*
X304100D01*
X306655Y368066D01*
X309035Y369052D01*
X311080Y370620D01*
X312648Y372665D01*
X313634Y375045D01*
X313659Y375238D01*
X314940D01*
X314966Y375045D01*
X315952Y372665D01*
X317521Y370620D01*
X319565Y369052D01*
X321945Y368066D01*
X324500Y367730D01*
X329500D01*
X331806Y368033D01*
X346633Y353205D01*
Y287000D01*
X346890Y285712D01*
X347619Y284619D01*
X363619Y268619D01*
X364712Y267890D01*
X366000Y267633D01*
X553800D01*
X555088Y267890D01*
X556181Y268619D01*
X565194Y277633D01*
X567500Y277330D01*
X572500D01*
X575055Y277666D01*
X577435Y278652D01*
X579479Y280221D01*
X581048Y282265D01*
X582034Y284645D01*
X582370Y287200D01*
X582034Y289755D01*
X581048Y292135D01*
X579479Y294179D01*
X577435Y295748D01*
X575055Y296734D01*
X572500Y297070D01*
X567500D01*
X564945Y296734D01*
X562565Y295748D01*
X560521Y294179D01*
X558952Y292135D01*
X557966Y289755D01*
X557630Y287200D01*
X557966Y284645D01*
X558952Y282265D01*
X559539Y281500D01*
X552405Y274367D01*
X367395D01*
X363540Y278221D01*
X364380Y279178D01*
X365065Y278652D01*
X367445Y277666D01*
X370000Y277330D01*
X375000D01*
X377555Y277666D01*
X379935Y278652D01*
X381979Y280221D01*
X383548Y282265D01*
X384534Y284645D01*
X384870Y287200D01*
X384534Y289755D01*
X383548Y292135D01*
X381979Y294179D01*
X379935Y295748D01*
X377555Y296734D01*
X375000Y297070D01*
X370000D01*
X367694Y296767D01*
X361992Y302469D01*
Y305055D01*
X363262Y305435D01*
X365065Y304052D01*
X367445Y303066D01*
X370000Y302730D01*
X375000D01*
X377555Y303066D01*
X379935Y304052D01*
X381979Y305620D01*
X383548Y307665D01*
X384534Y310045D01*
X384870Y312600D01*
X384534Y315155D01*
X383548Y317535D01*
X381979Y319580D01*
X379935Y321148D01*
X377555Y322134D01*
X375000Y322470D01*
X370000D01*
X367445Y322134D01*
X365065Y321148D01*
X363262Y319765D01*
X361992Y320145D01*
Y330455D01*
X363262Y330835D01*
X365065Y329452D01*
X367445Y328466D01*
X370000Y328130D01*
X375000D01*
X377555Y328466D01*
X379935Y329452D01*
X381979Y331021D01*
X383548Y333065D01*
X384534Y335445D01*
X384623Y336120D01*
X389745D01*
X389847Y335608D01*
X390352Y334852D01*
X391108Y334347D01*
X392000Y334169D01*
X408000D01*
X408892Y334347D01*
X409648Y334852D01*
X410153Y335608D01*
X410331Y336500D01*
Y338000D01*
X410590D01*
Y363400D01*
X410331D01*
Y363500D01*
X410153Y364392D01*
X409648Y365148D01*
X408892Y365653D01*
X408000Y365831D01*
X392000D01*
X391108Y365653D01*
X390352Y365148D01*
X389847Y364392D01*
X389824Y364280D01*
X384755D01*
X384534Y365955D01*
X383548Y368335D01*
X381979Y370379D01*
X379935Y371948D01*
X377555Y372934D01*
X375000Y373270D01*
X370000D01*
X367445Y372934D01*
X365065Y371948D01*
X363262Y370565D01*
X361992Y370945D01*
Y371374D01*
X361736Y372663D01*
X361006Y373755D01*
X337461Y397300D01*
X338048Y398065D01*
X339034Y400445D01*
X339370Y403000D01*
X339034Y405555D01*
X338048Y407935D01*
X336479Y409980D01*
X334435Y411548D01*
X332055Y412534D01*
X329500Y412870D01*
D02*
G37*
G36*
X784200Y288370D02*
X781645Y288034D01*
X779265Y287048D01*
X777221Y285480D01*
X775652Y283435D01*
X774666Y281055D01*
X774330Y278500D01*
Y273500D01*
X774666Y270945D01*
X775652Y268565D01*
X777221Y266521D01*
X779265Y264952D01*
X781645Y263966D01*
X784200Y263629D01*
X786755Y263966D01*
X789135Y264952D01*
X791180Y266521D01*
X792748Y268565D01*
X793734Y270945D01*
X794070Y273500D01*
Y278500D01*
X793734Y281055D01*
X792748Y283435D01*
X791180Y285480D01*
X789135Y287048D01*
X786755Y288034D01*
X784200Y288370D01*
D02*
G37*
G36*
X875640D02*
X873085Y288034D01*
X870705Y287048D01*
X868661Y285480D01*
X867092Y283435D01*
X866106Y281055D01*
X865770Y278500D01*
Y273500D01*
X866106Y270945D01*
X867092Y268565D01*
X868661Y266521D01*
X870705Y264952D01*
X873085Y263966D01*
X875640Y263629D01*
X878195Y263966D01*
X880575Y264952D01*
X882619Y266521D01*
X884188Y268565D01*
X885174Y270945D01*
X885510Y273500D01*
Y278500D01*
X885174Y281055D01*
X884188Y283435D01*
X882619Y285480D01*
X880575Y287048D01*
X878195Y288034D01*
X875640Y288370D01*
D02*
G37*
G36*
X901040D02*
X898485Y288034D01*
X896105Y287048D01*
X894061Y285480D01*
X892492Y283435D01*
X891506Y281055D01*
X891170Y278500D01*
Y273500D01*
X891506Y270945D01*
X892492Y268565D01*
X894061Y266521D01*
X896105Y264952D01*
X898485Y263966D01*
X901040Y263629D01*
X903595Y263966D01*
X905975Y264952D01*
X908019Y266521D01*
X909588Y268565D01*
X910574Y270945D01*
X910910Y273500D01*
Y278500D01*
X910574Y281055D01*
X909588Y283435D01*
X908019Y285480D01*
X905975Y287048D01*
X903595Y288034D01*
X901040Y288370D01*
D02*
G37*
G36*
X572500Y398670D02*
X567500D01*
X564945Y398334D01*
X562565Y397348D01*
X560521Y395779D01*
X558952Y393735D01*
X557966Y391355D01*
X557630Y388800D01*
X557966Y386245D01*
X558952Y383865D01*
X560521Y381820D01*
X562565Y380252D01*
X564945Y379266D01*
X567500Y378930D01*
X572500D01*
X575055Y379266D01*
X577435Y380252D01*
X579479Y381820D01*
X581048Y383865D01*
X581698Y385433D01*
X609805D01*
X627633Y367606D01*
Y280394D01*
X610606Y263367D01*
X362395D01*
X344367Y281395D01*
Y312800D01*
X344110Y314088D01*
X343381Y315181D01*
X337461Y321100D01*
X338048Y321865D01*
X339034Y324245D01*
X339370Y326800D01*
X339034Y329355D01*
X338048Y331735D01*
X336479Y333779D01*
X334435Y335348D01*
X332055Y336334D01*
X329500Y336670D01*
X324500D01*
X321945Y336334D01*
X319565Y335348D01*
X317521Y333779D01*
X315952Y331735D01*
X314966Y329355D01*
X314940Y329162D01*
X313659D01*
X313634Y329355D01*
X312648Y331735D01*
X311080Y333779D01*
X309035Y335348D01*
X306655Y336334D01*
X304100Y336670D01*
X299100D01*
X296545Y336334D01*
X294165Y335348D01*
X292120Y333779D01*
X290552Y331735D01*
X289566Y329355D01*
X289230Y326800D01*
X289566Y324245D01*
X290552Y321865D01*
X292120Y319820D01*
X294165Y318252D01*
X296545Y317266D01*
X299100Y316930D01*
X304100D01*
X306655Y317266D01*
X309035Y318252D01*
X311080Y319820D01*
X312648Y321865D01*
X313634Y324245D01*
X313659Y324438D01*
X314940D01*
X314966Y324245D01*
X315952Y321865D01*
X317521Y319820D01*
X319565Y318252D01*
X321945Y317266D01*
X324500Y316930D01*
X329500D01*
X331806Y317233D01*
X337633Y311406D01*
Y308771D01*
X337312Y308662D01*
X336363Y308469D01*
X334435Y309948D01*
X332055Y310934D01*
X329500Y311270D01*
X324500D01*
X321945Y310934D01*
X319565Y309948D01*
X317521Y308379D01*
X315952Y306335D01*
X314966Y303955D01*
X314940Y303762D01*
X313659D01*
X313634Y303955D01*
X312648Y306335D01*
X311080Y308379D01*
X309035Y309948D01*
X306655Y310934D01*
X304100Y311270D01*
X299100D01*
X296545Y310934D01*
X294165Y309948D01*
X292120Y308379D01*
X290552Y306335D01*
X289566Y303955D01*
X289230Y301400D01*
X289566Y298845D01*
X290552Y296465D01*
X292120Y294421D01*
X294165Y292852D01*
X296545Y291866D01*
X299100Y291530D01*
X304100D01*
X306655Y291866D01*
X309035Y292852D01*
X311080Y294421D01*
X312648Y296465D01*
X313634Y298845D01*
X313659Y299038D01*
X314940D01*
X314966Y298845D01*
X315952Y296465D01*
X317521Y294421D01*
X319565Y292852D01*
X321945Y291866D01*
X324500Y291530D01*
X329500D01*
X332055Y291866D01*
X334435Y292852D01*
X336363Y294331D01*
X337312Y294138D01*
X337633Y294029D01*
Y286350D01*
X337000Y285831D01*
X317000D01*
X316108Y285653D01*
X315352Y285148D01*
X314847Y284392D01*
X314669Y283500D01*
Y279374D01*
X313399Y279122D01*
X312648Y280935D01*
X311080Y282980D01*
X309035Y284548D01*
X306655Y285534D01*
X304100Y285870D01*
X299100D01*
X296545Y285534D01*
X294165Y284548D01*
X292120Y282980D01*
X290552Y280935D01*
X289566Y278555D01*
X289230Y276000D01*
X289566Y273445D01*
X290552Y271065D01*
X292120Y269021D01*
X294165Y267452D01*
X296545Y266466D01*
X299100Y266130D01*
X304100D01*
X306655Y266466D01*
X309035Y267452D01*
X311080Y269021D01*
X312648Y271065D01*
X313399Y272878D01*
X314669Y272626D01*
Y268500D01*
X314847Y267608D01*
X315352Y266852D01*
X316108Y266347D01*
X317000Y266169D01*
X337000D01*
X337892Y266347D01*
X338648Y266852D01*
X339153Y267608D01*
X339331Y268500D01*
Y275249D01*
X340504Y275735D01*
X358619Y257619D01*
X359712Y256890D01*
X361000Y256633D01*
X612000D01*
X613288Y256890D01*
X614381Y257619D01*
X633381Y276619D01*
X634110Y277712D01*
X634367Y279000D01*
Y369000D01*
X634110Y370288D01*
X633381Y371381D01*
X613581Y391181D01*
X612488Y391910D01*
X611200Y392167D01*
X581698D01*
X581048Y393735D01*
X579479Y395779D01*
X577435Y397348D01*
X575055Y398334D01*
X572500Y398670D01*
D02*
G37*
G36*
X733400Y288370D02*
X730845Y288034D01*
X728465Y287048D01*
X726421Y285480D01*
X724852Y283435D01*
X723866Y281055D01*
X723530Y278500D01*
Y273500D01*
X723866Y270945D01*
X724852Y268565D01*
X726421Y266521D01*
X728465Y264952D01*
X730845Y263966D01*
X733400Y263629D01*
X735955Y263966D01*
X738335Y264952D01*
X740379Y266521D01*
X741948Y268565D01*
X742934Y270945D01*
X743270Y273500D01*
Y278500D01*
X742934Y281055D01*
X741948Y283435D01*
X740379Y285480D01*
X738335Y287048D01*
X735955Y288034D01*
X733400Y288370D01*
D02*
G37*
G36*
X758800D02*
X756245Y288034D01*
X753865Y287048D01*
X751821Y285480D01*
X750252Y283435D01*
X749266Y281055D01*
X748930Y278500D01*
Y273500D01*
X749266Y270945D01*
X750252Y268565D01*
X751821Y266521D01*
X753865Y264952D01*
X756245Y263966D01*
X758800Y263629D01*
X761355Y263966D01*
X763735Y264952D01*
X765779Y266521D01*
X767348Y268565D01*
X768334Y270945D01*
X768670Y273500D01*
Y278500D01*
X768334Y281055D01*
X767348Y283435D01*
X765779Y285480D01*
X763735Y287048D01*
X761355Y288034D01*
X758800Y288370D01*
D02*
G37*
G36*
X926440D02*
X923885Y288034D01*
X921505Y287048D01*
X919461Y285480D01*
X917892Y283435D01*
X916906Y281055D01*
X916570Y278500D01*
Y273500D01*
X916906Y270945D01*
X917892Y268565D01*
X919461Y266521D01*
X921505Y264952D01*
X923885Y263966D01*
X926440Y263629D01*
X928995Y263966D01*
X931375Y264952D01*
X933419Y266521D01*
X934988Y268565D01*
X935974Y270945D01*
X936310Y273500D01*
Y278500D01*
X935974Y281055D01*
X934988Y283435D01*
X933419Y285480D01*
X931375Y287048D01*
X928995Y288034D01*
X926440Y288370D01*
D02*
G37*
G36*
X572500Y322470D02*
X567500D01*
X564945Y322134D01*
X562565Y321148D01*
X560521Y319580D01*
X558952Y317535D01*
X557966Y315155D01*
X557630Y312600D01*
X557966Y310045D01*
X558952Y307665D01*
X560521Y305620D01*
X562565Y304052D01*
X564945Y303066D01*
X567500Y302730D01*
X572500D01*
X575055Y303066D01*
X577435Y304052D01*
X579479Y305620D01*
X581048Y307665D01*
X582034Y310045D01*
X582370Y312600D01*
X582034Y315155D01*
X581048Y317535D01*
X579479Y319580D01*
X577435Y321148D01*
X575055Y322134D01*
X572500Y322470D01*
D02*
G37*
G36*
X699500D02*
X694500D01*
X691945Y322134D01*
X689565Y321148D01*
X687521Y319580D01*
X686270Y317950D01*
X685952Y317535D01*
X684966Y315155D01*
X684630Y312600D01*
X684966Y310045D01*
X685952Y307665D01*
X686270Y307250D01*
X687521Y305620D01*
X689565Y304052D01*
X691945Y303066D01*
X694500Y302730D01*
X699500D01*
X702055Y303066D01*
X704435Y304052D01*
X706479Y305620D01*
X708048Y307665D01*
X709034Y310045D01*
X709370Y312600D01*
X709034Y315155D01*
X708048Y317535D01*
X706479Y319580D01*
X704435Y321148D01*
X702055Y322134D01*
X699500Y322470D01*
D02*
G37*
G36*
X534900Y427096D02*
X499500D01*
X496162Y426657D01*
X493052Y425369D01*
X490381Y423319D01*
X488331Y420648D01*
X487043Y417538D01*
X486604Y414200D01*
X487043Y410862D01*
X488331Y407752D01*
X490381Y405081D01*
X493052Y403032D01*
X495090Y402187D01*
Y400813D01*
X493052Y399969D01*
X490381Y397919D01*
X488331Y395248D01*
X487043Y392138D01*
X486604Y388800D01*
X487043Y385462D01*
X488331Y382352D01*
X490381Y379681D01*
X493052Y377631D01*
X495090Y376787D01*
Y375413D01*
X493052Y374569D01*
X490381Y372519D01*
X488331Y369848D01*
X487043Y366738D01*
X486604Y363400D01*
X487043Y360062D01*
X488331Y356952D01*
X490381Y354281D01*
X493052Y352231D01*
X495090Y351387D01*
Y350013D01*
X493052Y349169D01*
X490381Y347119D01*
X488331Y344448D01*
X487043Y341338D01*
X486604Y338000D01*
X487043Y334662D01*
X488331Y331552D01*
X490381Y328881D01*
X493052Y326832D01*
X496162Y325543D01*
X499500Y325104D01*
X534900D01*
X538238Y325543D01*
X541348Y326832D01*
X544019Y328881D01*
X546069Y331552D01*
X547357Y334662D01*
X547796Y338000D01*
X547357Y341338D01*
X546069Y344448D01*
X544019Y347119D01*
X541348Y349169D01*
X539310Y350013D01*
Y351387D01*
X541348Y352231D01*
X544019Y354281D01*
X546069Y356952D01*
X547357Y360062D01*
X547796Y363400D01*
X547357Y366738D01*
X546069Y369848D01*
X544019Y372519D01*
X541348Y374569D01*
X539310Y375413D01*
Y376787D01*
X541348Y377631D01*
X544019Y379681D01*
X546069Y382352D01*
X547357Y385462D01*
X547796Y388800D01*
X547357Y392138D01*
X546069Y395248D01*
X544019Y397919D01*
X541348Y399969D01*
X539310Y400813D01*
Y402187D01*
X541348Y403032D01*
X542961Y404269D01*
X545000D01*
X545892Y404447D01*
X546648Y404952D01*
X547153Y405708D01*
X547331Y406600D01*
Y410799D01*
X547357Y410862D01*
X547796Y414200D01*
X547357Y417538D01*
X547331Y417601D01*
Y421600D01*
X547153Y422492D01*
X546648Y423248D01*
X545892Y423753D01*
X545000Y423931D01*
X543222D01*
X541348Y425369D01*
X538238Y426657D01*
X534900Y427096D01*
D02*
G37*
G36*
X817100Y288331D02*
X802100D01*
X801208Y288153D01*
X800452Y287648D01*
X799947Y286892D01*
X799769Y286000D01*
Y266000D01*
X799947Y265108D01*
X800452Y264352D01*
X801208Y263847D01*
X802100Y263669D01*
X817100D01*
X817992Y263847D01*
X818748Y264352D01*
X819253Y265108D01*
X819431Y266000D01*
Y286000D01*
X819253Y286892D01*
X818748Y287648D01*
X817992Y288153D01*
X817100Y288331D01*
D02*
G37*
G36*
X857740D02*
X842740D01*
X841848Y288153D01*
X841092Y287648D01*
X840587Y286892D01*
X840409Y286000D01*
Y266000D01*
X840587Y265108D01*
X841092Y264352D01*
X841848Y263847D01*
X842740Y263669D01*
X857740D01*
X858632Y263847D01*
X859388Y264352D01*
X859893Y265108D01*
X860071Y266000D01*
Y286000D01*
X859893Y286892D01*
X859388Y287648D01*
X858632Y288153D01*
X857740Y288331D01*
D02*
G37*
G36*
X502000Y322470D02*
X497000D01*
X494445Y322134D01*
X492065Y321148D01*
X490020Y319580D01*
X488452Y317535D01*
X487466Y315155D01*
X487130Y312600D01*
X487466Y310045D01*
X488452Y307665D01*
X490020Y305620D01*
X492065Y304052D01*
X494445Y303066D01*
X497000Y302730D01*
X502000D01*
X504555Y303066D01*
X506935Y304052D01*
X508979Y305620D01*
X510548Y307665D01*
X511534Y310045D01*
X511870Y312600D01*
X511534Y315155D01*
X510548Y317535D01*
X508979Y319580D01*
X506935Y321148D01*
X504555Y322134D01*
X502000Y322470D01*
D02*
G37*
G36*
X329500Y590670D02*
X324500D01*
X321945Y590334D01*
X319565Y589348D01*
X317521Y587780D01*
X315952Y585735D01*
X314966Y583355D01*
X314940Y583162D01*
X313659D01*
X313634Y583355D01*
X312648Y585735D01*
X311080Y587780D01*
X309035Y589348D01*
X306655Y590334D01*
X304100Y590670D01*
X299100D01*
X296545Y590334D01*
X294165Y589348D01*
X292120Y587780D01*
X290552Y585735D01*
X289566Y583355D01*
X289230Y580800D01*
X289566Y578245D01*
X290552Y575865D01*
X292120Y573820D01*
X294165Y572252D01*
X296545Y571266D01*
X299100Y570930D01*
X304100D01*
X306655Y571266D01*
X309035Y572252D01*
X311080Y573820D01*
X312648Y575865D01*
X313634Y578245D01*
X313659Y578438D01*
X314940D01*
X314966Y578245D01*
X315952Y575865D01*
X317521Y573820D01*
X319565Y572252D01*
X321945Y571266D01*
X324500Y570930D01*
X329500D01*
X332055Y571266D01*
X334435Y572252D01*
X336479Y573820D01*
X338048Y575865D01*
X339034Y578245D01*
X339370Y580800D01*
X339034Y583355D01*
X338048Y585735D01*
X336479Y587780D01*
X334435Y589348D01*
X332055Y590334D01*
X329500Y590670D01*
D02*
G37*
G36*
X357500Y778081D02*
X347500D01*
X346608Y777903D01*
X345852Y777398D01*
X345347Y776642D01*
X345169Y775750D01*
Y755750D01*
X345347Y754858D01*
X345852Y754102D01*
X346608Y753597D01*
X347500Y753419D01*
X357500D01*
X358392Y753597D01*
X359148Y754102D01*
X359653Y754858D01*
X359831Y755750D01*
Y775750D01*
X359653Y776642D01*
X359148Y777398D01*
X358392Y777903D01*
X357500Y778081D01*
D02*
G37*
G36*
X452500D02*
X442500D01*
X441608Y777903D01*
X440852Y777398D01*
X440347Y776642D01*
X440169Y775750D01*
Y755750D01*
X440347Y754858D01*
X440852Y754102D01*
X441608Y753597D01*
X442500Y753419D01*
X452500D01*
X453392Y753597D01*
X454148Y754102D01*
X454653Y754858D01*
X454831Y755750D01*
Y775750D01*
X454653Y776642D01*
X454148Y777398D01*
X453392Y777903D01*
X452500Y778081D01*
D02*
G37*
G36*
X438000Y754581D02*
X432000D01*
X431108Y754403D01*
X430352Y753898D01*
X430250Y753746D01*
X429750D01*
X429648Y753898D01*
X428892Y754403D01*
X428000Y754581D01*
X422000D01*
X421108Y754403D01*
X420352Y753898D01*
X420250Y753746D01*
X419750D01*
X419648Y753898D01*
X418892Y754403D01*
X418000Y754581D01*
X412000D01*
X411108Y754403D01*
X410352Y753898D01*
X410250Y753746D01*
X409750D01*
X409648Y753898D01*
X408892Y754403D01*
X408000Y754581D01*
X402000D01*
X401108Y754403D01*
X400352Y753898D01*
X400250Y753746D01*
X399750D01*
X399648Y753898D01*
X398892Y754403D01*
X398000Y754581D01*
X392000D01*
X391108Y754403D01*
X390352Y753898D01*
X390250Y753746D01*
X389750D01*
X389648Y753898D01*
X388892Y754403D01*
X388000Y754581D01*
X382000D01*
X381108Y754403D01*
X380352Y753898D01*
X379847Y753142D01*
X379669Y752250D01*
Y744546D01*
X379610Y744250D01*
X379669Y743954D01*
Y736250D01*
X379847Y735358D01*
X380352Y734602D01*
X381108Y734097D01*
X382000Y733919D01*
X388000D01*
X388892Y734097D01*
X389648Y734602D01*
X389750Y734754D01*
X390250D01*
X390352Y734602D01*
X391108Y734097D01*
X392000Y733919D01*
X398000D01*
X398892Y734097D01*
X399648Y734602D01*
X399750Y734754D01*
X400250D01*
X400352Y734602D01*
X401108Y734097D01*
X402000Y733919D01*
X408000D01*
X408892Y734097D01*
X409648Y734602D01*
X409750Y734754D01*
X410250D01*
X410352Y734602D01*
X411108Y734097D01*
X412000Y733919D01*
X418000D01*
X418892Y734097D01*
X419648Y734602D01*
X419750Y734754D01*
X420250D01*
X420352Y734602D01*
X421108Y734097D01*
X422000Y733919D01*
X428000D01*
X428892Y734097D01*
X429648Y734602D01*
X429750Y734754D01*
X430250D01*
X430352Y734602D01*
X431108Y734097D01*
X432000Y733919D01*
X438000D01*
X438892Y734097D01*
X439648Y734602D01*
X440153Y735358D01*
X440331Y736250D01*
Y743954D01*
X440390Y744250D01*
X440331Y744546D01*
Y752250D01*
X440153Y753142D01*
X439648Y753898D01*
X438892Y754403D01*
X438000Y754581D01*
D02*
G37*
G36*
X329500Y514470D02*
X324500D01*
X321945Y514134D01*
X319565Y513148D01*
X317521Y511580D01*
X315952Y509535D01*
X314966Y507155D01*
X314940Y506962D01*
X313659D01*
X313634Y507155D01*
X312648Y509535D01*
X311080Y511580D01*
X309035Y513148D01*
X306655Y514134D01*
X304100Y514470D01*
X299100D01*
X296545Y514134D01*
X294165Y513148D01*
X292120Y511580D01*
X290552Y509535D01*
X289566Y507155D01*
X289230Y504600D01*
X289566Y502045D01*
X290552Y499665D01*
X292120Y497621D01*
X294165Y496052D01*
X296545Y495066D01*
X299100Y494730D01*
X304100D01*
X306655Y495066D01*
X309035Y496052D01*
X311080Y497621D01*
X312648Y499665D01*
X313634Y502045D01*
X313659Y502238D01*
X314940D01*
X314966Y502045D01*
X315952Y499665D01*
X317521Y497621D01*
X319565Y496052D01*
X321945Y495066D01*
X324500Y494730D01*
X329500D01*
X332055Y495066D01*
X334435Y496052D01*
X336479Y497621D01*
X338048Y499665D01*
X339034Y502045D01*
X339370Y504600D01*
X339034Y507155D01*
X338048Y509535D01*
X336479Y511580D01*
X334435Y513148D01*
X332055Y514134D01*
X329500Y514470D01*
D02*
G37*
G36*
Y565270D02*
X324500D01*
X321945Y564934D01*
X319565Y563948D01*
X317521Y562379D01*
X315952Y560335D01*
X314966Y557955D01*
X314940Y557762D01*
X313659D01*
X313634Y557955D01*
X312648Y560335D01*
X311080Y562379D01*
X309035Y563948D01*
X306655Y564934D01*
X304100Y565270D01*
X299100D01*
X296545Y564934D01*
X294165Y563948D01*
X292120Y562379D01*
X290552Y560335D01*
X289566Y557955D01*
X289230Y555400D01*
X289566Y552845D01*
X290552Y550465D01*
X292120Y548420D01*
X294165Y546852D01*
X296545Y545866D01*
X299100Y545530D01*
X304100D01*
X306655Y545866D01*
X309035Y546852D01*
X311080Y548420D01*
X312648Y550465D01*
X313634Y552845D01*
X313659Y553038D01*
X314940D01*
X314966Y552845D01*
X315952Y550465D01*
X317521Y548420D01*
X319565Y546852D01*
X321945Y545866D01*
X324500Y545530D01*
X329500D01*
X332055Y545866D01*
X334435Y546852D01*
X336479Y548420D01*
X338048Y550465D01*
X339034Y552845D01*
X339370Y555400D01*
X339034Y557955D01*
X338048Y560335D01*
X336479Y562379D01*
X334435Y563948D01*
X332055Y564934D01*
X329500Y565270D01*
D02*
G37*
G36*
Y539870D02*
X324500D01*
X321945Y539534D01*
X319565Y538548D01*
X317521Y536979D01*
X315952Y534935D01*
X314966Y532555D01*
X314940Y532362D01*
X313659D01*
X313634Y532555D01*
X312648Y534935D01*
X311080Y536979D01*
X309035Y538548D01*
X306655Y539534D01*
X304100Y539870D01*
X299100D01*
X296545Y539534D01*
X294165Y538548D01*
X292120Y536979D01*
X290552Y534935D01*
X289566Y532555D01*
X289230Y530000D01*
X289566Y527445D01*
X290552Y525065D01*
X292120Y523021D01*
X294165Y521452D01*
X296545Y520466D01*
X299100Y520130D01*
X304100D01*
X306655Y520466D01*
X309035Y521452D01*
X311080Y523021D01*
X312648Y525065D01*
X313634Y527445D01*
X313659Y527638D01*
X314940D01*
X314966Y527445D01*
X315952Y525065D01*
X317521Y523021D01*
X319565Y521452D01*
X321945Y520466D01*
X324500Y520130D01*
X329500D01*
X332055Y520466D01*
X334435Y521452D01*
X336479Y523021D01*
X338048Y525065D01*
X339034Y527445D01*
X339370Y530000D01*
X339034Y532555D01*
X338048Y534935D01*
X336479Y536979D01*
X334435Y538548D01*
X332055Y539534D01*
X329500Y539870D01*
D02*
G37*
G36*
X580000Y474831D02*
X560000D01*
X559108Y474653D01*
X558352Y474148D01*
X557847Y473392D01*
X557669Y472500D01*
Y457500D01*
X557847Y456608D01*
X558352Y455852D01*
X559108Y455347D01*
X560000Y455169D01*
X580000D01*
X580892Y455347D01*
X581648Y455852D01*
X582153Y456608D01*
X582331Y457500D01*
Y472500D01*
X582153Y473392D01*
X581648Y474148D01*
X580892Y474653D01*
X580000Y474831D01*
D02*
G37*
G36*
X502000Y664471D02*
X497000D01*
X494445Y664134D01*
X492065Y663148D01*
X490020Y661580D01*
X488452Y659535D01*
X487466Y657155D01*
X487130Y654600D01*
X487466Y652045D01*
X488452Y649665D01*
X490020Y647620D01*
X492065Y646052D01*
X494445Y645066D01*
X497000Y644730D01*
X502000D01*
X504555Y645066D01*
X506935Y646052D01*
X508979Y647620D01*
X510548Y649665D01*
X511534Y652045D01*
X511870Y654600D01*
X511534Y657155D01*
X510548Y659535D01*
X508979Y661580D01*
X506935Y663148D01*
X504555Y664134D01*
X502000Y664471D01*
D02*
G37*
G36*
X572500D02*
X567500D01*
X564945Y664134D01*
X562565Y663148D01*
X560521Y661580D01*
X558952Y659535D01*
X557966Y657155D01*
X557630Y654600D01*
X557966Y652045D01*
X558952Y649665D01*
X560521Y647620D01*
X562565Y646052D01*
X564945Y645066D01*
X567500Y644730D01*
X572500D01*
X575055Y645066D01*
X577435Y646052D01*
X579479Y647620D01*
X581048Y649665D01*
X582034Y652045D01*
X582370Y654600D01*
X582034Y657155D01*
X581048Y659535D01*
X579479Y661580D01*
X577435Y663148D01*
X575055Y664134D01*
X572500Y664471D01*
D02*
G37*
G36*
X699500D02*
X694500D01*
X691945Y664134D01*
X689565Y663148D01*
X687521Y661580D01*
X685952Y659535D01*
X684966Y657155D01*
X684630Y654600D01*
X684966Y652045D01*
X685952Y649665D01*
X687521Y647620D01*
X689565Y646052D01*
X691945Y645066D01*
X694500Y644730D01*
X699500D01*
X702055Y645066D01*
X704435Y646052D01*
X706479Y647620D01*
X708048Y649665D01*
X709034Y652045D01*
X709370Y654600D01*
X709034Y657155D01*
X708048Y659535D01*
X706479Y661580D01*
X704435Y663148D01*
X702055Y664134D01*
X699500Y664471D01*
D02*
G37*
G36*
X572500Y639071D02*
X567500D01*
X564945Y638734D01*
X562565Y637748D01*
X560521Y636180D01*
X558952Y634135D01*
X557966Y631755D01*
X557630Y629200D01*
X557966Y626645D01*
X558952Y624265D01*
X560521Y622220D01*
X562565Y620652D01*
X564945Y619666D01*
X567500Y619330D01*
X572500D01*
X575055Y619666D01*
X577435Y620652D01*
X579479Y622220D01*
X581048Y624265D01*
X582034Y626645D01*
X582370Y629200D01*
X582034Y631755D01*
X581048Y634135D01*
X579479Y636180D01*
X577435Y637748D01*
X575055Y638734D01*
X572500Y639071D01*
D02*
G37*
G36*
Y613671D02*
X567500D01*
X564945Y613334D01*
X562565Y612348D01*
X560521Y610779D01*
X558952Y608735D01*
X557966Y606355D01*
X557630Y603800D01*
X557966Y601245D01*
X558952Y598865D01*
X560521Y596820D01*
X562565Y595252D01*
X564945Y594266D01*
X567500Y593930D01*
X572500D01*
X575055Y594266D01*
X577435Y595252D01*
X579479Y596820D01*
X581048Y598865D01*
X582034Y601245D01*
X582370Y603800D01*
X582034Y606355D01*
X581048Y608735D01*
X579479Y610779D01*
X577435Y612348D01*
X575055Y613334D01*
X572500Y613671D01*
D02*
G37*
G36*
X658000Y730389D02*
X655938Y729979D01*
X654189Y728811D01*
X653021Y727063D01*
X652610Y725000D01*
X653021Y722937D01*
X654189Y721189D01*
X655938Y720021D01*
X658000Y719610D01*
X660062Y720021D01*
X661811Y721189D01*
X662979Y722937D01*
X663390Y725000D01*
X662979Y727063D01*
X661811Y728811D01*
X660062Y729979D01*
X658000Y730389D01*
D02*
G37*
G36*
X580000Y689831D02*
X560000D01*
X559108Y689653D01*
X558352Y689148D01*
X557847Y688392D01*
X557669Y687500D01*
Y672500D01*
X557847Y671608D01*
X558352Y670852D01*
X559108Y670347D01*
X560000Y670169D01*
X580000D01*
X580892Y670347D01*
X581648Y670852D01*
X582153Y671608D01*
X582331Y672500D01*
Y687500D01*
X582153Y688392D01*
X581648Y689148D01*
X580892Y689653D01*
X580000Y689831D01*
D02*
G37*
G36*
X747500Y702371D02*
X744945Y702034D01*
X742565Y701048D01*
X740520Y699480D01*
X738952Y697435D01*
X737966Y695055D01*
X737630Y692500D01*
X737966Y689945D01*
X738952Y687565D01*
X740520Y685520D01*
X742565Y683952D01*
X744945Y682966D01*
X747500Y682630D01*
X750055Y682966D01*
X752435Y683952D01*
X754480Y685520D01*
X756048Y687565D01*
X757034Y689945D01*
X757370Y692500D01*
X757034Y695055D01*
X756048Y697435D01*
X754480Y699480D01*
X752435Y701048D01*
X750055Y702034D01*
X747500Y702371D01*
D02*
G37*
G36*
X699500Y512071D02*
X694500D01*
X691945Y511734D01*
X689565Y510748D01*
X687521Y509179D01*
X685952Y507135D01*
X684966Y504755D01*
X684630Y502200D01*
X684966Y499645D01*
X685952Y497265D01*
X687521Y495220D01*
X689565Y493652D01*
X691945Y492666D01*
X694500Y492330D01*
X699500D01*
X702055Y492666D01*
X704435Y493652D01*
X706479Y495220D01*
X708048Y497265D01*
X709034Y499645D01*
X709370Y502200D01*
X709034Y504755D01*
X708048Y507135D01*
X706479Y509179D01*
X704435Y510748D01*
X702055Y511734D01*
X699500Y512071D01*
D02*
G37*
G36*
X502000Y537471D02*
X497000D01*
X494445Y537134D01*
X492065Y536148D01*
X490020Y534580D01*
X488452Y532535D01*
X487466Y530155D01*
X487130Y527600D01*
X487466Y525045D01*
X488452Y522665D01*
X490020Y520620D01*
X492065Y519052D01*
X494445Y518066D01*
X497000Y517730D01*
X502000D01*
X504555Y518066D01*
X506935Y519052D01*
X508979Y520620D01*
X510548Y522665D01*
X511534Y525045D01*
X511870Y527600D01*
X511534Y530155D01*
X510548Y532535D01*
X508979Y534580D01*
X506935Y536148D01*
X504555Y537134D01*
X502000Y537471D01*
D02*
G37*
G36*
X572500Y512071D02*
X567500D01*
X564945Y511734D01*
X562565Y510748D01*
X560521Y509179D01*
X558952Y507135D01*
X557966Y504755D01*
X557630Y502200D01*
X557966Y499645D01*
X558952Y497265D01*
X560521Y495220D01*
X562565Y493652D01*
X564945Y492666D01*
X567500Y492330D01*
X572500D01*
X575055Y492666D01*
X577435Y493652D01*
X579479Y495220D01*
X581048Y497265D01*
X582034Y499645D01*
X582370Y502200D01*
X582034Y504755D01*
X581048Y507135D01*
X579479Y509179D01*
X577435Y510748D01*
X575055Y511734D01*
X572500Y512071D01*
D02*
G37*
G36*
X747500Y492370D02*
X744945Y492034D01*
X742565Y491048D01*
X740520Y489479D01*
X738952Y487435D01*
X737966Y485055D01*
X737630Y482500D01*
X737966Y479945D01*
X738952Y477565D01*
X740520Y475521D01*
X742565Y473952D01*
X744945Y472966D01*
X747500Y472630D01*
X750055Y472966D01*
X752435Y473952D01*
X754480Y475521D01*
X756048Y477565D01*
X757034Y479945D01*
X757370Y482500D01*
X757034Y485055D01*
X756048Y487435D01*
X754480Y489479D01*
X752435Y491048D01*
X750055Y492034D01*
X747500Y492370D01*
D02*
G37*
G36*
X502000Y512071D02*
X497000D01*
X494445Y511734D01*
X492065Y510748D01*
X490020Y509179D01*
X488452Y507135D01*
X487466Y504755D01*
X487130Y502200D01*
X487466Y499645D01*
X488452Y497265D01*
X490020Y495220D01*
X492065Y493652D01*
X494445Y492666D01*
X497000Y492330D01*
X502000D01*
X504555Y492666D01*
X506935Y493652D01*
X508979Y495220D01*
X510548Y497265D01*
X511534Y499645D01*
X511870Y502200D01*
X511534Y504755D01*
X510548Y507135D01*
X508979Y509179D01*
X506935Y510748D01*
X504555Y511734D01*
X502000Y512071D01*
D02*
G37*
G36*
X732900Y642096D02*
X697000D01*
X693662Y641657D01*
X690552Y640369D01*
X687881Y638319D01*
X685831Y635648D01*
X684543Y632538D01*
X684104Y629200D01*
X684543Y625862D01*
X685831Y622752D01*
X687881Y620081D01*
X690552Y618032D01*
X691636Y617582D01*
Y615418D01*
X690552Y614969D01*
X687881Y612919D01*
X685831Y610248D01*
X684543Y607138D01*
X684104Y603800D01*
X684543Y600462D01*
X685831Y597352D01*
X687881Y594681D01*
X690552Y592631D01*
X691636Y592182D01*
Y590018D01*
X690552Y589569D01*
X687881Y587519D01*
X685831Y584848D01*
X684543Y581738D01*
X684104Y578400D01*
X684543Y575062D01*
X685831Y571952D01*
X687881Y569281D01*
X690552Y567231D01*
X691636Y566782D01*
Y564618D01*
X690552Y564169D01*
X687881Y562119D01*
X685831Y559448D01*
X684543Y556338D01*
X684104Y553000D01*
X684543Y549662D01*
X685831Y546552D01*
X687881Y543881D01*
X690552Y541832D01*
X693662Y540543D01*
X697000Y540104D01*
X732900D01*
X736238Y540543D01*
X739348Y541832D01*
X742019Y543881D01*
X744069Y546552D01*
X745357Y549662D01*
X745796Y553000D01*
X745357Y556338D01*
X744069Y559448D01*
X742019Y562119D01*
X739348Y564169D01*
X738264Y564618D01*
Y566782D01*
X739348Y567231D01*
X742019Y569281D01*
X744069Y571952D01*
X745357Y575062D01*
X745796Y578400D01*
X745357Y581738D01*
X744069Y584848D01*
X742019Y587519D01*
X739348Y589569D01*
X738264Y590018D01*
Y592182D01*
X739348Y592631D01*
X742019Y594681D01*
X744069Y597352D01*
X745357Y600462D01*
X745796Y603800D01*
X745357Y607138D01*
X744069Y610248D01*
X742019Y612919D01*
X739348Y614969D01*
X738264Y615418D01*
Y617582D01*
X739348Y618032D01*
X740961Y619269D01*
X743000D01*
X743892Y619447D01*
X744648Y619952D01*
X745153Y620708D01*
X745331Y621600D01*
Y625799D01*
X745357Y625862D01*
X745796Y629200D01*
X745357Y632538D01*
X745331Y632601D01*
Y636600D01*
X745153Y637492D01*
X744648Y638248D01*
X743892Y638753D01*
X743000Y638931D01*
X741222D01*
X739348Y640369D01*
X736238Y641657D01*
X732900Y642096D01*
D02*
G37*
G36*
X606000Y615831D02*
X590000D01*
X589108Y615653D01*
X588352Y615148D01*
X587847Y614392D01*
X587669Y613500D01*
Y612000D01*
X587410D01*
X587669Y590042D01*
Y586500D01*
X587714Y586277D01*
X587778Y580802D01*
X586372Y579380D01*
X582242D01*
X582034Y580955D01*
X581048Y583335D01*
X579479Y585379D01*
X577435Y586948D01*
X575055Y587934D01*
X572500Y588270D01*
X567500D01*
X564945Y587934D01*
X562565Y586948D01*
X560521Y585379D01*
X558952Y583335D01*
X557966Y580955D01*
X557630Y578400D01*
X557966Y575845D01*
X558952Y573465D01*
X560521Y571421D01*
X562565Y569852D01*
X564945Y568866D01*
X567500Y568530D01*
X572500D01*
X575000Y568859D01*
X575060Y568862D01*
X577000Y567507D01*
Y563770D01*
X575420Y562514D01*
X575000Y562541D01*
X572500Y562870D01*
X567500D01*
X564945Y562534D01*
X562565Y561548D01*
X560521Y559980D01*
X558952Y557935D01*
X557966Y555555D01*
X557630Y553000D01*
X557966Y550445D01*
X558952Y548065D01*
X560521Y546021D01*
X562565Y544452D01*
X564945Y543466D01*
X567500Y543130D01*
X572500D01*
X575055Y543466D01*
X577435Y544452D01*
X579479Y546021D01*
X581048Y548065D01*
X582034Y550445D01*
X582057Y550620D01*
X587844D01*
X587847Y550608D01*
X588352Y549852D01*
X589108Y549347D01*
X590000Y549169D01*
X606000D01*
X606892Y549347D01*
X607648Y549852D01*
X608153Y550608D01*
X608331Y551500D01*
Y559500D01*
X608153Y560392D01*
X608090Y560487D01*
Y569513D01*
X608153Y569608D01*
X608331Y570500D01*
Y578500D01*
X608153Y579392D01*
X608090Y579487D01*
Y585513D01*
X608153Y585608D01*
X608331Y586500D01*
Y594500D01*
X608153Y595392D01*
X608090Y595487D01*
Y604513D01*
X608153Y604608D01*
X608331Y605500D01*
Y613500D01*
X608153Y614392D01*
X607648Y615148D01*
X606892Y615653D01*
X606000Y615831D01*
D02*
G37*
G36*
X535000Y641996D02*
X499600D01*
X496262Y641557D01*
X493152Y640269D01*
X490481Y638219D01*
X488432Y635548D01*
X487143Y632438D01*
X486704Y629100D01*
X487143Y625762D01*
X488432Y622652D01*
X490481Y619981D01*
X493152Y617932D01*
X494065Y617553D01*
Y615388D01*
X493052Y614969D01*
X490381Y612919D01*
X488331Y610248D01*
X487043Y607138D01*
X486604Y603800D01*
X487043Y600462D01*
X488331Y597352D01*
X490381Y594681D01*
X493052Y592631D01*
X494136Y592182D01*
Y590018D01*
X493052Y589569D01*
X490381Y587519D01*
X488331Y584848D01*
X487043Y581738D01*
X486604Y578400D01*
X487043Y575062D01*
X488331Y571952D01*
X490381Y569281D01*
X493052Y567231D01*
X494136Y566782D01*
Y564618D01*
X493052Y564169D01*
X490381Y562119D01*
X488331Y559448D01*
X487043Y556338D01*
X486604Y553000D01*
X487043Y549662D01*
X488331Y546552D01*
X490381Y543881D01*
X493052Y541832D01*
X496162Y540543D01*
X499500Y540104D01*
X534900D01*
X538238Y540543D01*
X541348Y541832D01*
X544019Y543881D01*
X546069Y546552D01*
X547357Y549662D01*
X547796Y553000D01*
X547357Y556338D01*
X546069Y559448D01*
X544019Y562119D01*
X541348Y564169D01*
X540264Y564618D01*
Y566782D01*
X541348Y567231D01*
X544019Y569281D01*
X546069Y571952D01*
X547357Y575062D01*
X547796Y578400D01*
X547357Y581738D01*
X546069Y584848D01*
X544019Y587519D01*
X541348Y589569D01*
X540264Y590018D01*
Y592182D01*
X541348Y592631D01*
X544019Y594681D01*
X546069Y597352D01*
X547357Y600462D01*
X547796Y603800D01*
X547357Y607138D01*
X546069Y610248D01*
X544019Y612919D01*
X541348Y614969D01*
X540435Y615347D01*
Y617512D01*
X541448Y617932D01*
X543192Y619269D01*
X545000D01*
X545892Y619447D01*
X546648Y619952D01*
X547153Y620708D01*
X547331Y621600D01*
Y625458D01*
X547457Y625762D01*
X547896Y629100D01*
X547457Y632438D01*
X547331Y632742D01*
Y636600D01*
X547153Y637492D01*
X546648Y638248D01*
X545892Y638753D01*
X545000Y638931D01*
X543192D01*
X541448Y640269D01*
X538338Y641557D01*
X535000Y641996D01*
D02*
G37*
G36*
X572500Y537471D02*
X567500D01*
X564945Y537134D01*
X562565Y536148D01*
X560521Y534580D01*
X558952Y532535D01*
X557966Y530155D01*
X557630Y527600D01*
X557966Y525045D01*
X558952Y522665D01*
X560521Y520620D01*
X562565Y519052D01*
X564945Y518066D01*
X567500Y517730D01*
X572500D01*
X575055Y518066D01*
X577435Y519052D01*
X579479Y520620D01*
X581048Y522665D01*
X582034Y525045D01*
X582370Y527600D01*
X582034Y530155D01*
X581048Y532535D01*
X579479Y534580D01*
X577435Y536148D01*
X575055Y537134D01*
X572500Y537471D01*
D02*
G37*
G36*
X699500D02*
X694500D01*
X691945Y537134D01*
X689565Y536148D01*
X687521Y534580D01*
X685952Y532535D01*
X684966Y530155D01*
X684630Y527600D01*
X684966Y525045D01*
X685952Y522665D01*
X687521Y520620D01*
X689565Y519052D01*
X691945Y518066D01*
X694500Y517730D01*
X699500D01*
X702055Y518066D01*
X704435Y519052D01*
X706479Y520620D01*
X708048Y522665D01*
X709034Y525045D01*
X709370Y527600D01*
X709034Y530155D01*
X708048Y532535D01*
X706479Y534580D01*
X704435Y536148D01*
X702055Y537134D01*
X699500Y537471D01*
D02*
G37*
G36*
X1181150Y468890D02*
X1179088Y468479D01*
X1177339Y467311D01*
X1176171Y465563D01*
X1175760Y463500D01*
X1176171Y461437D01*
X1177339Y459689D01*
X1179088Y458521D01*
X1181150Y458110D01*
X1183213Y458521D01*
X1184961Y459689D01*
X1186129Y461437D01*
X1186540Y463500D01*
X1186129Y465563D01*
X1184961Y467311D01*
X1183213Y468479D01*
X1181150Y468890D01*
D02*
G37*
%LPD*%
D10*
X597500Y359500D02*
D03*
Y340500D02*
D03*
X400000Y574500D02*
D03*
Y555500D02*
D03*
Y359500D02*
D03*
Y340500D02*
D03*
X820000Y753000D02*
D03*
Y772000D02*
D03*
Y565500D02*
D03*
Y584500D02*
D03*
Y530500D02*
D03*
Y549500D02*
D03*
X598000Y574500D02*
D03*
Y555500D02*
D03*
X265000Y363000D02*
D03*
Y382000D02*
D03*
Y308000D02*
D03*
Y327000D02*
D03*
Y540500D02*
D03*
Y559500D02*
D03*
Y595500D02*
D03*
Y614500D02*
D03*
X1170000Y260500D02*
D03*
Y279500D02*
D03*
X598000Y609500D02*
D03*
Y590500D02*
D03*
D11*
X365000Y744250D02*
D03*
X375000D02*
D03*
X385000D02*
D03*
X395000D02*
D03*
X405000D02*
D03*
X415000D02*
D03*
X425000D02*
D03*
X435000D02*
D03*
D12*
X352500Y765750D02*
D03*
X447500D02*
D03*
D13*
X365500Y720000D02*
D03*
X384500D02*
D03*
X419500D02*
D03*
X400500D02*
D03*
X870500Y647500D02*
D03*
X889500D02*
D03*
X884500Y455000D02*
D03*
X865500D02*
D03*
X884500Y477500D02*
D03*
X865500D02*
D03*
X1004500Y647500D02*
D03*
X985500D02*
D03*
X1004500Y625000D02*
D03*
X985500D02*
D03*
X865500Y320000D02*
D03*
X884500D02*
D03*
D14*
X862250Y754000D02*
D03*
Y737000D02*
D03*
Y703000D02*
D03*
Y686000D02*
D03*
Y584000D02*
D03*
Y567000D02*
D03*
Y533000D02*
D03*
Y516000D02*
D03*
D15*
X877250Y720000D02*
D03*
Y550000D02*
D03*
D16*
X952750Y720000D02*
D03*
Y550000D02*
D03*
D17*
X918500Y339750D02*
D03*
X935500D02*
D03*
X969500D02*
D03*
X986500D02*
D03*
D18*
X952500Y354750D02*
D03*
D19*
Y430250D02*
D03*
D20*
X1085000Y755000D02*
D03*
X1050000Y635000D02*
D03*
X1120000D02*
D03*
Y465000D02*
D03*
X1050000D02*
D03*
X1085000Y585000D02*
D03*
Y415000D02*
D03*
X1050000Y295000D02*
D03*
X1120000D02*
D03*
D21*
X472500Y465000D02*
X499500D01*
X437500Y500000D02*
X472500Y465000D01*
X437500Y500000D02*
Y618000D01*
X499500Y680000D01*
X459500D02*
X499500D01*
X419500Y720000D02*
X459500Y680000D01*
X705000Y688000D02*
Y720000D01*
X697000Y680000D02*
X705000Y688000D01*
Y720000D02*
X770000D01*
X797500Y692500D01*
X804000Y686000D01*
X862250D01*
X870500Y677750D01*
Y647500D02*
Y677750D01*
X780000Y465000D02*
X797500Y482500D01*
X697000Y465000D02*
X780000D01*
X797500Y482500D02*
X828750D01*
X862250Y516000D01*
X834500D02*
X862250D01*
X820000Y530500D02*
X834500Y516000D01*
X797500Y388000D02*
X865500Y320000D01*
X598000Y574500D02*
Y590500D01*
X372500Y556000D02*
X397500D01*
X570000Y578400D02*
X573900Y574500D01*
X598000D01*
X570000Y553000D02*
X572500Y555500D01*
X598000D01*
X836000Y737000D02*
X862250D01*
X820000Y753000D02*
X836000Y737000D01*
X862250Y703000D02*
X892000D01*
Y650000D02*
Y703000D01*
X889500Y647500D02*
X892000Y650000D01*
X790000Y762500D02*
X799500Y772000D01*
X844250D02*
X862250Y754000D01*
X799500Y772000D02*
X820000D01*
X844250D01*
X372500Y341000D02*
X397500D01*
X570000Y338000D02*
X572500Y340500D01*
X597500D01*
X384500Y720000D02*
X400500D01*
X836500Y533000D02*
X862250D01*
X820000Y549500D02*
X836500Y533000D01*
X821500Y567000D02*
X862250D01*
X820000Y565500D02*
X821500Y567000D01*
X820000Y584500D02*
X861750D01*
X865500Y455000D02*
Y477500D01*
X884500Y455000D02*
Y477500D01*
Y479500D01*
X895000Y490000D01*
X1013000D01*
Y440000D02*
Y490000D01*
X1004500Y625000D02*
Y647500D01*
Y625000D02*
X1019500Y610000D01*
X1090000D01*
X1115000Y635000D01*
X1120000D01*
X985500Y625000D02*
Y647500D01*
X1013000Y440000D02*
X1080000D01*
X1105000Y465000D01*
X1120000D01*
X371500Y574568D02*
X395100D01*
X372500Y359400D02*
X396100D01*
X570000D02*
X593600D01*
X499500Y680000D02*
X535500Y716000D01*
X701000D01*
X705000Y720000D01*
X797500Y530000D02*
Y610000D01*
Y692500D01*
Y388000D02*
Y482500D01*
D22*
X499600Y629100D02*
X535000D01*
X499500Y603800D02*
X534900D01*
X499500Y578400D02*
X534900D01*
X499500Y553000D02*
X534900D01*
X697000Y629200D02*
X732900D01*
X697000Y603800D02*
X732900D01*
X697000Y578400D02*
X732900D01*
X697000Y553000D02*
X732900D01*
X499500Y414200D02*
X534900D01*
X499500Y388800D02*
X534900D01*
X499500Y363400D02*
X534900D01*
X499500Y338000D02*
X534900D01*
X697000Y414200D02*
X732900D01*
X697000Y388800D02*
X732900D01*
X697000Y363400D02*
X732900D01*
X697000Y338000D02*
X732900D01*
D23*
X499500Y629200D02*
X499600Y629100D01*
D24*
X327000Y657000D02*
X349000Y635000D01*
Y601900D02*
Y635000D01*
Y601900D02*
X372500Y578400D01*
X327000Y682400D02*
X334600D01*
X356000Y661000D01*
Y650000D02*
Y661000D01*
Y650000D02*
X372500Y633500D01*
Y629200D02*
Y633500D01*
X356000Y620300D02*
X372500Y603800D01*
X356000Y620300D02*
Y639000D01*
X345000Y650000D02*
X356000Y639000D01*
X327000Y606200D02*
X350000Y583200D01*
Y550100D02*
Y583200D01*
Y550100D02*
X372500Y527600D01*
X327000Y479200D02*
X341200Y465000D01*
X372500D01*
X327000Y453800D02*
X350000Y430800D01*
Y411300D02*
Y430800D01*
Y411300D02*
X372500Y388800D01*
X366000Y271000D02*
X553800D01*
X570000Y287200D01*
X612000Y260000D02*
X631000Y279000D01*
X570000Y388800D02*
X611200D01*
X631000Y369000D01*
Y279000D02*
Y369000D01*
X286000Y672600D02*
X301600Y657000D01*
X281000Y652200D02*
X301600Y631600D01*
X286000Y686000D02*
X293000Y693000D01*
X286000Y672600D02*
Y686000D01*
X281000Y652200D02*
Y687000D01*
X293000Y693000D02*
X337000D01*
X372500Y657500D01*
Y654600D02*
Y657500D01*
X365000Y680000D02*
X372500D01*
X281000Y687000D02*
X290683Y696683D01*
X348317D01*
X365000Y680000D01*
X361000Y260000D02*
X612000D01*
X350000Y287000D02*
X366000Y271000D01*
X350000Y287000D02*
Y354600D01*
X327000Y377600D02*
X350000Y354600D01*
X341000Y280000D02*
X361000Y260000D01*
X341000Y280000D02*
Y312800D01*
X327000Y326800D02*
X341000Y312800D01*
X358626Y301074D02*
X372500Y287200D01*
X358626Y301074D02*
Y371374D01*
X327000Y403000D02*
X358626Y371374D01*
X337000Y669000D02*
X345000Y661000D01*
Y650000D02*
Y661000D01*
X301600Y682400D02*
X315000Y669000D01*
X337000D01*
D25*
X1237500Y727500D02*
D03*
X1187500D02*
D03*
Y575000D02*
D03*
X1237500D02*
D03*
X747500Y692500D02*
D03*
X797500D02*
D03*
Y482500D02*
D03*
X747500D02*
D03*
X1237500Y425000D02*
D03*
X1187500D02*
D03*
D26*
X705000Y720000D02*
D03*
X790000Y762500D02*
D03*
D27*
X1253000Y675000D02*
D03*
Y627000D02*
D03*
Y523000D02*
D03*
Y477000D02*
D03*
X1200000Y325000D02*
D03*
Y270000D02*
D03*
D28*
X708000Y758600D02*
D03*
X682600D02*
D03*
X657200D02*
D03*
X631800D02*
D03*
X606400D02*
D03*
X733400D02*
D03*
X758800D02*
D03*
X733400Y276000D02*
D03*
X758800D02*
D03*
X784200D02*
D03*
X926440D02*
D03*
X901040D02*
D03*
X875640D02*
D03*
D29*
X581000Y758600D02*
D03*
X809600Y276000D02*
D03*
X850240D02*
D03*
D30*
X327000D02*
D03*
X372500Y680000D02*
D03*
Y465000D02*
D03*
X570000Y680000D02*
D03*
Y465000D02*
D03*
X733000Y629100D02*
D03*
X535000D02*
D03*
X733000Y414100D02*
D03*
X535000D02*
D03*
D31*
X327000Y301400D02*
D03*
Y326800D02*
D03*
Y352200D02*
D03*
Y377600D02*
D03*
Y403000D02*
D03*
Y428400D02*
D03*
Y453800D02*
D03*
Y479200D02*
D03*
Y504600D02*
D03*
Y530000D02*
D03*
Y555400D02*
D03*
Y580800D02*
D03*
Y606200D02*
D03*
Y631600D02*
D03*
Y657000D02*
D03*
Y682400D02*
D03*
Y707800D02*
D03*
X301600Y276000D02*
D03*
Y301400D02*
D03*
Y326800D02*
D03*
Y352200D02*
D03*
Y377600D02*
D03*
Y403000D02*
D03*
Y428400D02*
D03*
Y453800D02*
D03*
Y479200D02*
D03*
Y504600D02*
D03*
Y530000D02*
D03*
Y555400D02*
D03*
Y580800D02*
D03*
Y606200D02*
D03*
Y631600D02*
D03*
Y657000D02*
D03*
Y682400D02*
D03*
Y707800D02*
D03*
X499500Y502200D02*
D03*
Y527600D02*
D03*
Y680000D02*
D03*
Y654600D02*
D03*
Y629200D02*
D03*
Y603800D02*
D03*
Y578400D02*
D03*
Y553000D02*
D03*
X372500D02*
D03*
Y578400D02*
D03*
Y603800D02*
D03*
Y629200D02*
D03*
Y654600D02*
D03*
Y527600D02*
D03*
Y502200D02*
D03*
Y287200D02*
D03*
Y312600D02*
D03*
Y439600D02*
D03*
Y414200D02*
D03*
Y388800D02*
D03*
Y363400D02*
D03*
Y338000D02*
D03*
X499500D02*
D03*
Y363400D02*
D03*
Y388800D02*
D03*
Y414200D02*
D03*
Y439600D02*
D03*
Y465000D02*
D03*
Y312600D02*
D03*
Y287200D02*
D03*
X570000Y502200D02*
D03*
Y527600D02*
D03*
Y654600D02*
D03*
Y629200D02*
D03*
Y603800D02*
D03*
Y578400D02*
D03*
Y553000D02*
D03*
X697000D02*
D03*
Y578400D02*
D03*
Y603800D02*
D03*
Y629200D02*
D03*
Y654600D02*
D03*
Y680000D02*
D03*
Y527600D02*
D03*
Y502200D02*
D03*
Y287200D02*
D03*
Y312600D02*
D03*
Y465000D02*
D03*
Y439600D02*
D03*
Y414200D02*
D03*
Y388800D02*
D03*
Y363400D02*
D03*
Y338000D02*
D03*
X570000D02*
D03*
Y363400D02*
D03*
Y388800D02*
D03*
Y414200D02*
D03*
Y439600D02*
D03*
Y312600D02*
D03*
Y287200D02*
D03*
X733000Y552900D02*
D03*
Y578300D02*
D03*
Y603700D02*
D03*
X535000Y552900D02*
D03*
Y578300D02*
D03*
Y603700D02*
D03*
X733000Y337900D02*
D03*
Y363300D02*
D03*
Y388700D02*
D03*
X535000Y337900D02*
D03*
Y363300D02*
D03*
Y388700D02*
D03*
D32*
X385000Y744250D02*
D03*
X935000Y337000D02*
D03*
X1181150Y463500D02*
D03*
Y616000D02*
D03*
X1226500Y363650D02*
D03*
X862250Y737000D02*
D03*
X985500Y647500D02*
D03*
X949000Y740000D02*
D03*
Y729000D02*
D03*
Y718000D02*
D03*
X960000D02*
D03*
Y729000D02*
D03*
Y740000D02*
D03*
X949000Y600000D02*
D03*
Y556000D02*
D03*
X960000D02*
D03*
Y578000D02*
D03*
Y600000D02*
D03*
X909000Y432000D02*
D03*
Y421000D02*
D03*
Y410000D02*
D03*
Y388000D02*
D03*
Y399000D02*
D03*
X920000D02*
D03*
Y388000D02*
D03*
Y410000D02*
D03*
Y421000D02*
D03*
Y432000D02*
D03*
X1039000Y429000D02*
D03*
X1045000D02*
D03*
X598000Y609500D02*
D03*
X265000Y382000D02*
D03*
Y559500D02*
D03*
Y614500D02*
D03*
Y327000D02*
D03*
X960000Y589000D02*
D03*
X949000D02*
D03*
Y567000D02*
D03*
Y578000D02*
D03*
X960000Y567000D02*
D03*
Y696000D02*
D03*
X949000D02*
D03*
X960000Y707000D02*
D03*
X949000D02*
D03*
X960000Y685000D02*
D03*
X949000D02*
D03*
X1002000Y272000D02*
D03*
Y283000D02*
D03*
X991000D02*
D03*
Y272000D02*
D03*
X1126000Y288000D02*
D03*
Y299000D02*
D03*
X1115000D02*
D03*
Y288000D02*
D03*
X1056000Y459000D02*
D03*
Y470000D02*
D03*
X1045000D02*
D03*
Y459000D02*
D03*
X1126000D02*
D03*
Y470000D02*
D03*
X1115000D02*
D03*
Y459000D02*
D03*
X1056000Y640000D02*
D03*
X1045000D02*
D03*
X1126000D02*
D03*
X1115000D02*
D03*
X1126000Y629000D02*
D03*
X1115000D02*
D03*
X1056000D02*
D03*
X1045000D02*
D03*
X1057000Y296000D02*
D03*
Y307000D02*
D03*
X1046000D02*
D03*
Y296000D02*
D03*
X884500Y320000D02*
D03*
X865500Y477500D02*
D03*
X820000Y565500D02*
D03*
X395000Y744250D02*
D03*
X415000D02*
D03*
X425000D02*
D03*
X435000D02*
D03*
X658000Y725000D02*
D03*
X405000Y744250D02*
D03*
X1170000Y279500D02*
D03*
X988000Y322500D02*
D03*
X561000Y772000D02*
D03*
X606000Y777000D02*
D03*
X822000Y436000D02*
D03*
X876000D02*
D03*
Y375000D02*
D03*
X822000D02*
D03*
X800000Y325000D02*
D03*
X800000Y405000D02*
D03*
X797500Y530000D02*
D03*
Y610000D02*
D03*
X862250Y516000D02*
D03*
Y686000D02*
D03*
X843000Y769000D02*
D03*
X883000D02*
D03*
X873000D02*
D03*
X853000D02*
D03*
X863000D02*
D03*
X863000Y594000D02*
D03*
X853000D02*
D03*
X873000D02*
D03*
X883000D02*
D03*
X843000D02*
D03*
X833000Y769000D02*
D03*
Y594000D02*
D03*
X823000D02*
D03*
X893000Y769000D02*
D03*
X1200000Y527000D02*
D03*
Y507000D02*
D03*
Y517000D02*
D03*
Y681000D02*
D03*
Y661000D02*
D03*
Y671000D02*
D03*
X1164000Y357000D02*
D03*
X1184000D02*
D03*
X1174000D02*
D03*
X910000Y302000D02*
D03*
X905000Y296000D02*
D03*
X915000D02*
D03*
X900000Y302000D02*
D03*
X850000Y405000D02*
D03*
M02*
