G04 Layer_Physical_Order=2*
G04 Layer_Color=36540*
%FSLAX44Y44*%
%MOMM*%
G71*
G01*
G75*
%ADD22C,2.1000*%
%ADD23C,1.7500*%
%ADD24C,0.2032*%
%ADD25C,1.5000*%
%ADD26C,3.0000*%
%ADD27C,2.2500*%
%ADD30R,2.0000X1.5000*%
%ADD31O,2.0000X1.5000*%
%ADD32C,0.6000*%
%ADD33C,2.0000*%
G36*
X506572Y661822D02*
X507078Y661283D01*
X507344Y660833D01*
X507393Y660456D01*
X507418Y660077D01*
X507452Y660008D01*
X507462Y659931D01*
X507652Y659602D01*
X507820Y659261D01*
X508512Y658360D01*
X509263Y656546D01*
X509520Y654600D01*
X509263Y652654D01*
X508512Y650840D01*
X507317Y649283D01*
X505760Y648088D01*
X503946Y647337D01*
X501847Y647060D01*
X497153D01*
X495054Y647337D01*
X493240Y648088D01*
X491683Y649283D01*
X490488Y650840D01*
X489737Y652654D01*
X489481Y654600D01*
X489737Y656546D01*
X490488Y658360D01*
X491180Y659261D01*
X491348Y659602D01*
X491538Y659931D01*
X491548Y660008D01*
X491582Y660077D01*
X491607Y660456D01*
X491656Y660833D01*
X491922Y661283D01*
X492428Y661822D01*
X492672Y661950D01*
X506328D01*
X506572Y661822D01*
D02*
G37*
G36*
X1263567Y783351D02*
X1264615Y782916D01*
X1265417Y782115D01*
X1265851Y781067D01*
X1265851Y780500D01*
Y780500D01*
Y780500D01*
Y638000D01*
X1260900D01*
X1259826Y638824D01*
X1256534Y640188D01*
X1253000Y640653D01*
X1249466Y640188D01*
X1246174Y638824D01*
X1245100Y638000D01*
X1190000D01*
Y697000D01*
X1213000Y720000D01*
Y783351D01*
X1263000D01*
X1263567Y783351D01*
D02*
G37*
G36*
X391265Y749640D02*
X391651Y748370D01*
X391189Y748061D01*
X390021Y746312D01*
X389610Y744250D01*
X390021Y742188D01*
X391189Y740439D01*
X392000Y739897D01*
Y672367D01*
X386900D01*
X386066Y672201D01*
X385879Y672246D01*
X385035Y672853D01*
X384831Y673116D01*
Y687500D01*
X384653Y688392D01*
X384148Y689148D01*
X383392Y689653D01*
X382500Y689831D01*
X362500D01*
X361608Y689653D01*
X360852Y689148D01*
X360347Y688392D01*
X360169Y687500D01*
Y672500D01*
X360347Y671608D01*
X360852Y670852D01*
X361608Y670347D01*
X362500Y670169D01*
X381512D01*
X382038Y668899D01*
X377306Y664167D01*
X375000Y664471D01*
X370000D01*
X367445Y664134D01*
X365065Y663148D01*
X363021Y661580D01*
X361452Y659535D01*
X360466Y657155D01*
X360130Y654600D01*
X360466Y652045D01*
X361452Y649665D01*
X363021Y647620D01*
X365065Y646052D01*
X367445Y645066D01*
X370000Y644730D01*
X375000D01*
X377555Y645066D01*
X379935Y646052D01*
X381979Y647620D01*
X383548Y649665D01*
X384534Y652045D01*
X384870Y654600D01*
X384534Y657155D01*
X383548Y659535D01*
X382961Y660300D01*
X388294Y665633D01*
X402513D01*
X402999Y664460D01*
X377306Y638767D01*
X375000Y639071D01*
X370000D01*
X367445Y638734D01*
X365065Y637748D01*
X363021Y636180D01*
X361452Y634135D01*
X360466Y631755D01*
X360130Y629200D01*
X360466Y626645D01*
X361452Y624265D01*
X363021Y622220D01*
X365065Y620652D01*
X367445Y619666D01*
X370000Y619330D01*
X375000D01*
X377555Y619666D01*
X379935Y620652D01*
X381979Y622220D01*
X383548Y624265D01*
X384534Y626645D01*
X384870Y629200D01*
X384534Y631755D01*
X383548Y634135D01*
X382961Y634900D01*
X410011Y661950D01*
X488704D01*
X489331Y660680D01*
X488452Y659535D01*
X487466Y657155D01*
X487130Y654600D01*
X487466Y652045D01*
X488452Y649665D01*
X490020Y647620D01*
X492065Y646052D01*
X494445Y645066D01*
X497000Y644730D01*
X502000D01*
X504555Y645066D01*
X506935Y646052D01*
X508979Y647620D01*
X510548Y649665D01*
X511534Y652045D01*
X511870Y654600D01*
X511534Y657155D01*
X510548Y659535D01*
X509669Y660680D01*
X510296Y661950D01*
X532489D01*
X559539Y634900D01*
X558952Y634135D01*
X557966Y631755D01*
X557630Y629200D01*
X557966Y626645D01*
X558952Y624265D01*
X560521Y622220D01*
X562565Y620652D01*
X564945Y619666D01*
X567500Y619330D01*
X572500D01*
X575055Y619666D01*
X577435Y620652D01*
X579479Y622220D01*
X581048Y624265D01*
X582034Y626645D01*
X582370Y629200D01*
X582034Y631755D01*
X581048Y634135D01*
X579479Y636180D01*
X577435Y637748D01*
X575055Y638734D01*
X572500Y639071D01*
X567500D01*
X565194Y638767D01*
X539501Y664460D01*
X539987Y665633D01*
X554206D01*
X559539Y660300D01*
X558952Y659535D01*
X557966Y657155D01*
X557630Y654600D01*
X557966Y652045D01*
X558952Y649665D01*
X560521Y647620D01*
X562565Y646052D01*
X564945Y645066D01*
X567500Y644730D01*
X572500D01*
X575055Y645066D01*
X577435Y646052D01*
X579479Y647620D01*
X581048Y649665D01*
X582034Y652045D01*
X582370Y654600D01*
X582034Y657155D01*
X581048Y659535D01*
X579479Y661580D01*
X577435Y663148D01*
X575055Y664134D01*
X572500Y664471D01*
X567500D01*
X565194Y664167D01*
X562535Y666827D01*
X563021Y668000D01*
X577239D01*
X649633Y595606D01*
Y518395D01*
X614605Y483367D01*
X579787D01*
X579301Y484540D01*
X616381Y521619D01*
X617110Y522712D01*
X617367Y524000D01*
Y585000D01*
X617110Y586288D01*
X616381Y587381D01*
X597581Y606181D01*
X596488Y606910D01*
X595200Y607167D01*
X581698D01*
X581048Y608735D01*
X579479Y610779D01*
X577435Y612348D01*
X575055Y613334D01*
X572500Y613671D01*
X567500D01*
X564945Y613334D01*
X562565Y612348D01*
X560521Y610779D01*
X558952Y608735D01*
X557966Y606355D01*
X557630Y603800D01*
X557966Y601245D01*
X558952Y598865D01*
X560521Y596820D01*
X562565Y595252D01*
X564945Y594266D01*
X567500Y593930D01*
X572500D01*
X575055Y594266D01*
X577435Y595252D01*
X579479Y596820D01*
X581048Y598865D01*
X581698Y600433D01*
X593806D01*
X610633Y583605D01*
Y525395D01*
X582365Y497127D01*
X581289Y497846D01*
X582034Y499645D01*
X582370Y502200D01*
X582034Y504755D01*
X581048Y507135D01*
X579479Y509179D01*
X577435Y510748D01*
X575055Y511734D01*
X572500Y512071D01*
X567500D01*
X564945Y511734D01*
X562565Y510748D01*
X560521Y509179D01*
X558952Y507135D01*
X557966Y504755D01*
X557630Y502200D01*
X557966Y499645D01*
X558952Y497265D01*
X559539Y496500D01*
X554405Y491367D01*
X504416D01*
X504333Y492637D01*
X504555Y492666D01*
X506935Y493652D01*
X508979Y495220D01*
X510548Y497265D01*
X511534Y499645D01*
X511870Y502200D01*
X511534Y504755D01*
X510548Y507135D01*
X508979Y509179D01*
X506935Y510748D01*
X504555Y511734D01*
X502000Y512071D01*
X497000D01*
X494445Y511734D01*
X492065Y510748D01*
X490020Y509179D01*
X488452Y507135D01*
X487466Y504755D01*
X487130Y502200D01*
X487466Y499645D01*
X488452Y497265D01*
X490020Y495220D01*
X492065Y493652D01*
X494445Y492666D01*
X494667Y492637D01*
X494584Y491367D01*
X377416D01*
X377333Y492637D01*
X377555Y492666D01*
X379935Y493652D01*
X381979Y495220D01*
X383548Y497265D01*
X384534Y499645D01*
X384870Y502200D01*
X384534Y504755D01*
X383548Y507135D01*
X381979Y509179D01*
X379935Y510748D01*
X377555Y511734D01*
X375000Y512071D01*
X370000D01*
X367445Y511734D01*
X365065Y510748D01*
X363021Y509179D01*
X361452Y507135D01*
X360466Y504755D01*
X360130Y502200D01*
X360247Y501311D01*
X359044Y500718D01*
X356367Y503395D01*
Y554800D01*
X356110Y556088D01*
X355381Y557181D01*
X337461Y575100D01*
X338048Y575865D01*
X339034Y578245D01*
X339370Y580800D01*
X339034Y583355D01*
X338048Y585735D01*
X336479Y587780D01*
X334435Y589348D01*
X332055Y590334D01*
X329500Y590670D01*
X324500D01*
X321945Y590334D01*
X319565Y589348D01*
X317521Y587780D01*
X315952Y585735D01*
X314966Y583355D01*
X314940Y583162D01*
X313659D01*
X313634Y583355D01*
X312648Y585735D01*
X311080Y587780D01*
X309035Y589348D01*
X306655Y590334D01*
X304100Y590670D01*
X299100D01*
X296545Y590334D01*
X294165Y589348D01*
X292120Y587780D01*
X290552Y585735D01*
X289566Y583355D01*
X289230Y580800D01*
X289566Y578245D01*
X290552Y575865D01*
X292120Y573820D01*
X294165Y572252D01*
X296545Y571266D01*
X299100Y570930D01*
X304100D01*
X306655Y571266D01*
X309035Y572252D01*
X311080Y573820D01*
X312648Y575865D01*
X313634Y578245D01*
X313659Y578438D01*
X314940D01*
X314966Y578245D01*
X315952Y575865D01*
X317521Y573820D01*
X319565Y572252D01*
X321945Y571266D01*
X324500Y570930D01*
X329500D01*
X331806Y571233D01*
X349633Y553405D01*
Y512008D01*
X348367Y512000D01*
X348110Y513288D01*
X347381Y514381D01*
X337461Y524300D01*
X338048Y525065D01*
X339034Y527445D01*
X339370Y530000D01*
X339034Y532555D01*
X338048Y534935D01*
X336479Y536979D01*
X334435Y538548D01*
X332055Y539534D01*
X329500Y539870D01*
X324500D01*
X321945Y539534D01*
X319565Y538548D01*
X317521Y536979D01*
X315952Y534935D01*
X314966Y532555D01*
X314940Y532362D01*
X313659D01*
X313634Y532555D01*
X312648Y534935D01*
X311080Y536979D01*
X309035Y538548D01*
X306655Y539534D01*
X304100Y539870D01*
X299100D01*
X296545Y539534D01*
X294165Y538548D01*
X292120Y536979D01*
X290552Y534935D01*
X289566Y532555D01*
X289230Y530000D01*
X289566Y527445D01*
X290552Y525065D01*
X292120Y523021D01*
X294165Y521452D01*
X296545Y520466D01*
X299100Y520130D01*
X304100D01*
X306655Y520466D01*
X309035Y521452D01*
X311080Y523021D01*
X312648Y525065D01*
X313634Y527445D01*
X313659Y527638D01*
X314940D01*
X314966Y527445D01*
X315952Y525065D01*
X317521Y523021D01*
X319565Y521452D01*
X321945Y520466D01*
X324500Y520130D01*
X329500D01*
X331806Y520433D01*
X341633Y510606D01*
Y498000D01*
X341890Y496712D01*
X342619Y495619D01*
X352663Y485576D01*
X352245Y484198D01*
X352177Y484184D01*
X337461Y498900D01*
X338048Y499665D01*
X339034Y502045D01*
X339370Y504600D01*
X339034Y507155D01*
X338048Y509535D01*
X336479Y511580D01*
X334435Y513148D01*
X332055Y514134D01*
X329500Y514470D01*
X324500D01*
X321945Y514134D01*
X319565Y513148D01*
X317521Y511580D01*
X315952Y509535D01*
X314966Y507155D01*
X314940Y506962D01*
X313659D01*
X313634Y507155D01*
X312648Y509535D01*
X311080Y511580D01*
X309035Y513148D01*
X306655Y514134D01*
X304100Y514470D01*
X299100D01*
X296545Y514134D01*
X294165Y513148D01*
X292120Y511580D01*
X290552Y509535D01*
X289566Y507155D01*
X289230Y504600D01*
X289566Y502045D01*
X290552Y499665D01*
X292120Y497621D01*
X294165Y496052D01*
X296545Y495066D01*
X299100Y494730D01*
X304100D01*
X306655Y495066D01*
X309035Y496052D01*
X311080Y497621D01*
X312648Y499665D01*
X313634Y502045D01*
X313659Y502238D01*
X314940D01*
X314966Y502045D01*
X315952Y499665D01*
X317521Y497621D01*
X319565Y496052D01*
X321945Y495066D01*
X324500Y494730D01*
X329500D01*
X331806Y495033D01*
X349219Y477619D01*
X350312Y476890D01*
X351600Y476633D01*
X403113D01*
X403599Y475460D01*
X386101Y457962D01*
X384831Y458488D01*
Y472500D01*
X384653Y473392D01*
X384148Y474148D01*
X383392Y474653D01*
X382500Y474831D01*
X362500D01*
X361608Y474653D01*
X360852Y474148D01*
X360347Y473392D01*
X360169Y472500D01*
Y457500D01*
X360347Y456608D01*
X360852Y455852D01*
X361608Y455347D01*
X362500Y455169D01*
X381512D01*
X382038Y453899D01*
X377306Y449167D01*
X375000Y449470D01*
X370000D01*
X367445Y449134D01*
X365065Y448148D01*
X363021Y446580D01*
X361452Y444535D01*
X360466Y442155D01*
X360130Y439600D01*
X360466Y437045D01*
X361452Y434665D01*
X363021Y432621D01*
X365065Y431052D01*
X367445Y430066D01*
X370000Y429730D01*
X375000D01*
X377555Y430066D01*
X379935Y431052D01*
X381979Y432621D01*
X383548Y434665D01*
X384534Y437045D01*
X384870Y439600D01*
X384534Y442155D01*
X383548Y444535D01*
X382961Y445300D01*
X410294Y472633D01*
X488921D01*
X489548Y471363D01*
X488452Y469935D01*
X487466Y467555D01*
X487130Y465000D01*
X487466Y462445D01*
X488452Y460065D01*
X490020Y458021D01*
X491824Y456637D01*
X491633Y455636D01*
X491491Y455367D01*
X483000D01*
X481712Y455110D01*
X480619Y454381D01*
X448619Y422381D01*
X447890Y421288D01*
X447633Y420000D01*
Y305394D01*
X419605Y277367D01*
X380151D01*
X379898Y278637D01*
X379935Y278652D01*
X381979Y280221D01*
X383548Y282265D01*
X384534Y284645D01*
X384870Y287200D01*
X384534Y289755D01*
X383548Y292135D01*
X381979Y294179D01*
X379935Y295748D01*
X377555Y296734D01*
X375000Y297070D01*
X370000D01*
X367445Y296734D01*
X365065Y295748D01*
X363021Y294179D01*
X361452Y292135D01*
X360466Y289755D01*
X360130Y287200D01*
X360466Y284645D01*
X361452Y282265D01*
X361978Y281579D01*
X361021Y280740D01*
X339220Y302541D01*
X339034Y303955D01*
X338048Y306335D01*
X336479Y308379D01*
X334435Y309948D01*
X332055Y310934D01*
X329500Y311270D01*
X324500D01*
X321945Y310934D01*
X319565Y309948D01*
X317521Y308379D01*
X315952Y306335D01*
X314966Y303955D01*
X314940Y303762D01*
X313659D01*
X313634Y303955D01*
X312648Y306335D01*
X311080Y308379D01*
X309035Y309948D01*
X306655Y310934D01*
X304100Y311270D01*
X299100D01*
X296545Y310934D01*
X294165Y309948D01*
X292120Y308379D01*
X290552Y306335D01*
X289566Y303955D01*
X289230Y301400D01*
X289566Y298845D01*
X290552Y296465D01*
X292120Y294421D01*
X294165Y292852D01*
X296545Y291866D01*
X299100Y291530D01*
X304100D01*
X306406Y291833D01*
X312619Y285619D01*
X313712Y284890D01*
X315000Y284633D01*
X337605D01*
X359619Y262619D01*
X360712Y261890D01*
X362000Y261633D01*
X586000D01*
X587288Y261890D01*
X588381Y262619D01*
X621395Y295633D01*
X687440D01*
X687848Y294431D01*
X687521Y294179D01*
X685952Y292135D01*
X684966Y289755D01*
X684630Y287200D01*
X684966Y284645D01*
X685952Y282265D01*
X687521Y280221D01*
X689565Y278652D01*
X691945Y277666D01*
X694500Y277330D01*
X699500D01*
X702055Y277666D01*
X704435Y278652D01*
X706479Y280221D01*
X708048Y282265D01*
X709034Y284645D01*
X709370Y287200D01*
X709034Y289755D01*
X708048Y292135D01*
X706479Y294179D01*
X706152Y294431D01*
X706560Y295633D01*
X873000D01*
X874288Y295890D01*
X875381Y296619D01*
X912395Y333633D01*
X930892D01*
X931189Y333189D01*
X932937Y332021D01*
X935000Y331610D01*
X937063Y332021D01*
X938811Y333189D01*
X939979Y334938D01*
X940390Y337000D01*
X939979Y339062D01*
X938811Y340811D01*
X937063Y341979D01*
X935000Y342390D01*
X932937Y341979D01*
X931189Y340811D01*
X930892Y340367D01*
X911000D01*
X909712Y340110D01*
X908619Y339381D01*
X890734Y321495D01*
X889519Y321864D01*
X889479Y322062D01*
X888311Y323811D01*
X886562Y324979D01*
X884500Y325390D01*
X882438Y324979D01*
X880689Y323811D01*
X879521Y322062D01*
X879110Y320000D01*
X879521Y317938D01*
X880689Y316189D01*
X882438Y315021D01*
X882636Y314981D01*
X883005Y313766D01*
X871606Y302367D01*
X620000D01*
X618712Y302110D01*
X617619Y301381D01*
X584605Y268367D01*
X363395D01*
X362280Y269482D01*
X362905Y270652D01*
X363000Y270633D01*
X421000D01*
X422288Y270890D01*
X423381Y271619D01*
X453381Y301619D01*
X454110Y302712D01*
X454367Y304000D01*
Y418605D01*
X484394Y448633D01*
X490611D01*
X491042Y447363D01*
X490020Y446580D01*
X488452Y444535D01*
X487466Y442155D01*
X487130Y439600D01*
X487466Y437045D01*
X488452Y434665D01*
X490020Y432621D01*
X492065Y431052D01*
X494445Y430066D01*
X497000Y429730D01*
X502000D01*
X504555Y430066D01*
X506935Y431052D01*
X508979Y432621D01*
X510548Y434665D01*
X511534Y437045D01*
X511870Y439600D01*
X511534Y442155D01*
X510548Y444535D01*
X508979Y446580D01*
X507958Y447363D01*
X508389Y448633D01*
X557000D01*
X558288Y448890D01*
X559381Y449619D01*
X564930Y455169D01*
X579012D01*
X579538Y453899D01*
X574806Y449167D01*
X572500Y449470D01*
X567500D01*
X564945Y449134D01*
X562565Y448148D01*
X560521Y446580D01*
X558952Y444535D01*
X557966Y442155D01*
X557630Y439600D01*
X557966Y437045D01*
X558952Y434665D01*
X560521Y432621D01*
X562565Y431052D01*
X564945Y430066D01*
X567500Y429730D01*
X572500D01*
X575055Y430066D01*
X577435Y431052D01*
X579479Y432621D01*
X581048Y434665D01*
X582034Y437045D01*
X582370Y439600D01*
X582034Y442155D01*
X581048Y444535D01*
X580461Y445300D01*
X589381Y454219D01*
X590110Y455312D01*
X590367Y456600D01*
Y471000D01*
X590110Y472288D01*
X589381Y473381D01*
X587301Y475460D01*
X587787Y476633D01*
X616000D01*
X617288Y476890D01*
X618381Y477619D01*
X655381Y514619D01*
X656110Y515712D01*
X656367Y517000D01*
Y597000D01*
X656110Y598288D01*
X655381Y599381D01*
X587935Y666827D01*
X588421Y668000D01*
X814396Y668000D01*
X815291Y667099D01*
X814824Y594705D01*
X818940Y590562D01*
X819189Y590189D01*
X819550Y589948D01*
X822479Y587000D01*
X899000Y587000D01*
X1051000Y435000D01*
Y357000D01*
X945649Y251649D01*
X255000D01*
X254333Y251649D01*
X253102Y252160D01*
X252160Y253102D01*
X251649Y254333D01*
Y255000D01*
X251649Y668000D01*
X297950Y668000D01*
X298033Y666730D01*
X296545Y666534D01*
X294165Y665548D01*
X292120Y663979D01*
X290552Y661935D01*
X289566Y659555D01*
X289230Y657000D01*
X289566Y654445D01*
X290552Y652065D01*
X292120Y650021D01*
X294165Y648452D01*
X296545Y647466D01*
X299100Y647130D01*
X304100D01*
X306655Y647466D01*
X309035Y648452D01*
X311080Y650021D01*
X312648Y652065D01*
X313634Y654445D01*
X313659Y654638D01*
X314940D01*
X314966Y654445D01*
X315952Y652065D01*
X317521Y650021D01*
X319565Y648452D01*
X321945Y647466D01*
X324500Y647130D01*
X329500D01*
X332055Y647466D01*
X334435Y648452D01*
X336479Y650021D01*
X338048Y652065D01*
X339034Y654445D01*
X339370Y657000D01*
X339034Y659555D01*
X338048Y661935D01*
X336479Y663979D01*
X334435Y665548D01*
X332055Y666534D01*
X330567Y666730D01*
X330650Y668000D01*
X338000D01*
X352000Y682000D01*
Y749640D01*
X391265Y749640D01*
D02*
G37*
G36*
X1255925Y487917D02*
X1258651Y486788D01*
X1259481Y486151D01*
X1259754Y486016D01*
X1260008Y485847D01*
X1260159Y485817D01*
X1260297Y485749D01*
X1260601Y485729D01*
X1260900Y485669D01*
X1265851D01*
Y370000D01*
Y254500D01*
X1265851Y253933D01*
X1265416Y252885D01*
X1264615Y252083D01*
X1263567Y251649D01*
X1160331D01*
Y273000D01*
X1181000D01*
Y284669D01*
X1242000Y284669D01*
X1242892Y284847D01*
X1243648Y285352D01*
X1244153Y286108D01*
X1244331Y287000D01*
Y368000D01*
X1244153Y368892D01*
X1243648Y369648D01*
X1242892Y370153D01*
X1242000Y370331D01*
X1231478D01*
X1231143Y370264D01*
X1230802Y370230D01*
X1230700Y370176D01*
X1230586Y370153D01*
X1230302Y369963D01*
X1230000Y369802D01*
X1229926Y369712D01*
X1229830Y369648D01*
X1229640Y369363D01*
X1229423Y369099D01*
X1229266Y368806D01*
X1228562Y368629D01*
X1226500Y369039D01*
X1224438Y368629D01*
X1223734Y368806D01*
X1223577Y369099D01*
X1223360Y369363D01*
X1223170Y369648D01*
X1223074Y369712D01*
X1223000Y369802D01*
X1222698Y369963D01*
X1222414Y370153D01*
X1222300Y370176D01*
D01*
X1222198Y370230D01*
X1221858Y370264D01*
X1221522Y370331D01*
X1215331D01*
D01*
Y447000D01*
X1215153Y447892D01*
X1214648Y448648D01*
X1213892Y449153D01*
X1213000Y449331D01*
X1190331D01*
Y485669D01*
X1245100D01*
X1245399Y485729D01*
X1245703Y485749D01*
X1245841Y485817D01*
X1245992Y485847D01*
X1246246Y486016D01*
X1246519Y486151D01*
X1247349Y486788D01*
X1250075Y487917D01*
X1250707Y488000D01*
X1255293D01*
X1255925Y487917D01*
D02*
G37*
G36*
X1221522Y368000D02*
X1222201Y366730D01*
X1221521Y365713D01*
X1221111Y363650D01*
X1221521Y361587D01*
X1222689Y359839D01*
X1224437Y358671D01*
X1226500Y358260D01*
X1228562Y358671D01*
X1230311Y359839D01*
X1231479Y361587D01*
X1231890Y363650D01*
X1231479Y365713D01*
X1230799Y366730D01*
X1231478Y368000D01*
X1242000D01*
Y287000D01*
X1158000Y287000D01*
Y368000D01*
X1221522Y368000D01*
D02*
G37*
G36*
X1210669Y720965D02*
X1188352Y698648D01*
X1187847Y697892D01*
X1187669Y697000D01*
Y638000D01*
X1187847Y637108D01*
X1188000Y636879D01*
Y608000D01*
X1087331D01*
Y615000D01*
X1087153Y615892D01*
X1087000Y616121D01*
Y616209D01*
X1087153Y616439D01*
X1087331Y617331D01*
Y783351D01*
X1210669D01*
Y720965D01*
D02*
G37*
G36*
X1255925Y637917D02*
X1258651Y636788D01*
X1259481Y636151D01*
X1259754Y636016D01*
X1260008Y635847D01*
X1260159Y635817D01*
X1260296Y635749D01*
X1260601Y635729D01*
X1260900Y635669D01*
X1265851D01*
Y566331D01*
X1215331D01*
X1215331Y607000D01*
X1215153Y607892D01*
X1214648Y608648D01*
X1213892Y609153D01*
X1213000Y609331D01*
X1190331D01*
Y635669D01*
X1245100D01*
X1245399Y635729D01*
X1245704Y635749D01*
X1245841Y635817D01*
X1245992Y635847D01*
X1246246Y636016D01*
X1246519Y636151D01*
X1247349Y636788D01*
X1250075Y637917D01*
X1250707Y638000D01*
X1255293D01*
X1255925Y637917D01*
D02*
G37*
G36*
X1085000Y617331D02*
X996000D01*
X996000Y658000D01*
X897000Y658000D01*
Y765472D01*
X897979Y766937D01*
X898390Y769000D01*
X897979Y771062D01*
X897000Y772528D01*
Y783351D01*
X1085000D01*
Y617331D01*
D02*
G37*
G36*
X1213000Y370331D02*
X1158000Y370331D01*
X1157108Y370153D01*
X1156352Y369648D01*
X1155847Y368892D01*
X1155669Y368000D01*
Y287000D01*
X1155847Y286108D01*
X1156352Y285352D01*
X1157108Y284847D01*
X1158000Y284669D01*
Y251649D01*
X950605D01*
X950119Y252823D01*
X1052648Y355352D01*
X1053153Y356108D01*
X1053331Y357000D01*
Y435000D01*
X1053153Y435892D01*
X1052648Y436648D01*
X1049800Y439496D01*
X1050286Y440669D01*
X1085000Y440669D01*
X1085892Y440847D01*
X1086648Y441352D01*
X1087153Y442108D01*
X1087331Y443000D01*
Y447000D01*
X1213000Y447000D01*
Y370331D01*
D02*
G37*
G36*
X255000Y783351D02*
X255000Y783351D01*
X255000Y783351D01*
X894669Y783351D01*
Y772528D01*
X894714Y772303D01*
Y772073D01*
X894802Y771861D01*
X894847Y771636D01*
X894974Y771445D01*
X895062Y771233D01*
X895784Y770153D01*
X896013Y769000D01*
X895784Y767847D01*
X895062Y766767D01*
X894974Y766555D01*
X894847Y766364D01*
X894802Y766139D01*
X894714Y765927D01*
Y765697D01*
X894669Y765472D01*
Y658000D01*
X894847Y657108D01*
X895352Y656352D01*
X896108Y655847D01*
X897000Y655669D01*
X993669Y655669D01*
X993669Y617331D01*
X897000Y617331D01*
X896108Y617153D01*
X895352Y616648D01*
X894847Y615892D01*
X894669Y615000D01*
Y590000D01*
X822784D01*
X821204Y591590D01*
X821010Y591721D01*
X820886Y591845D01*
X820878Y591857D01*
X820718Y592017D01*
X820593Y592205D01*
X817161Y595659D01*
X817622Y667084D01*
X817621Y667088D01*
X817622Y667092D01*
X817536Y667532D01*
X817450Y667977D01*
X817448Y667980D01*
X817447Y667984D01*
X817196Y668363D01*
X816949Y668736D01*
X817609Y669481D01*
X817774Y669666D01*
X817797Y669699D01*
X817800Y669707D01*
X817807Y669714D01*
X817937Y669909D01*
X818026Y670122D01*
X818153Y670313D01*
X818198Y670537D01*
X818286Y670749D01*
X818286Y670979D01*
X818331Y671205D01*
Y705000D01*
X818153Y705892D01*
X817648Y706648D01*
X783648Y740648D01*
X782892Y741153D01*
X782000Y741331D01*
X440818Y741331D01*
X440061Y742601D01*
X440390Y744250D01*
X439979Y746312D01*
X438811Y748061D01*
X437062Y749229D01*
X435000Y749640D01*
X432938Y749229D01*
X431189Y748061D01*
X430764Y747424D01*
X429236D01*
X428811Y748061D01*
X427062Y749229D01*
X425000Y749640D01*
X422938Y749229D01*
X421189Y748061D01*
X420764Y747424D01*
X419236D01*
X418811Y748061D01*
X417062Y749229D01*
X415000Y749640D01*
X412938Y749229D01*
X411189Y748061D01*
X410764Y747424D01*
X409236D01*
X408811Y748061D01*
X407062Y749229D01*
X405000Y749640D01*
X402938Y749229D01*
X401189Y748061D01*
X400764Y747424D01*
X399236D01*
X398811Y748061D01*
X397062Y749229D01*
X395000Y749640D01*
X394129Y749466D01*
X393419Y750531D01*
X393229Y750816D01*
X393067Y751118D01*
X392978Y751191D01*
X392914Y751288D01*
X392629Y751478D01*
X392364Y751695D01*
X392254Y751729D01*
X392158Y751793D01*
X391822Y751860D01*
X391494Y751959D01*
X391379Y751948D01*
X391265Y751970D01*
X352000Y751970D01*
X351108Y751793D01*
X350352Y751288D01*
X349847Y750531D01*
X349669Y749640D01*
Y682965D01*
X337034Y670331D01*
X330650D01*
X330278Y670257D01*
X329901Y670207D01*
X329834Y670168D01*
X329758Y670153D01*
X329442Y669942D01*
X329114Y669752D01*
X329067Y669691D01*
X329002Y669648D01*
X328791Y669332D01*
X328560Y669031D01*
X328540Y668956D01*
X328497Y668892D01*
X328423Y668519D01*
X328325Y668152D01*
X328241Y666882D01*
X328231Y666870D01*
X324500D01*
X321945Y666534D01*
X319565Y665548D01*
X317521Y663979D01*
X315952Y661935D01*
X314966Y659555D01*
X314940Y659362D01*
X313659D01*
X313634Y659555D01*
X312648Y661935D01*
X311080Y663979D01*
X309035Y665548D01*
X306655Y666534D01*
X304100Y666870D01*
X300369D01*
X300359Y666882D01*
X300276Y668152D01*
X300177Y668519D01*
X300103Y668892D01*
X300060Y668956D01*
X300040Y669031D01*
X299809Y669332D01*
X299598Y669648D01*
X299534Y669691D01*
X299487Y669752D01*
X299158Y669942D01*
X298842Y670153D01*
X298766Y670168D01*
X298699Y670207D01*
X298322Y670257D01*
X297950Y670331D01*
X251649Y670331D01*
X251649Y671601D01*
Y780000D01*
X251649Y780000D01*
X251649Y780000D01*
X251649Y780667D01*
X252160Y781898D01*
X253102Y782840D01*
X254333Y783351D01*
X255000Y783351D01*
D02*
G37*
G36*
X1085000Y615000D02*
Y443000D01*
X1046296Y443000D01*
X900648Y588648D01*
X899892Y589153D01*
X899000Y589331D01*
X897000D01*
Y615000D01*
X1085000Y615000D01*
D02*
G37*
G36*
X1213000Y607000D02*
X1213000Y566331D01*
X1212108Y566153D01*
X1211352Y565648D01*
X1210847Y564892D01*
X1210669Y564000D01*
Y557965D01*
X1186352Y533648D01*
X1185847Y532892D01*
X1185669Y532000D01*
Y488000D01*
X1185847Y487108D01*
X1186352Y486352D01*
X1187108Y485847D01*
X1188000Y485669D01*
Y449331D01*
X1087331Y449331D01*
Y605669D01*
X1188000D01*
X1188892Y605847D01*
X1189648Y606352D01*
X1190081Y607000D01*
X1213000D01*
D02*
G37*
G36*
X816000Y705000D02*
Y671205D01*
X815869Y671009D01*
X815847Y670976D01*
X814911Y670290D01*
X814730Y670265D01*
X814403Y670331D01*
X814399Y670330D01*
X814396Y670331D01*
X588421Y670331D01*
X587529Y670153D01*
X586772Y669648D01*
X585940Y669473D01*
X585203Y669558D01*
X582319Y672442D01*
X582331Y672500D01*
Y687500D01*
X582153Y688392D01*
X581648Y689148D01*
X580892Y689653D01*
X580000Y689831D01*
X560000D01*
X559108Y689653D01*
X558352Y689148D01*
X557847Y688392D01*
X557669Y687500D01*
Y673116D01*
X557465Y672853D01*
X556621Y672246D01*
X556434Y672201D01*
X555600Y672367D01*
X394331D01*
Y738311D01*
X395000Y738860D01*
X395701Y739000D01*
X404299D01*
X405000Y738860D01*
X405701Y739000D01*
X414299D01*
X415000Y738860D01*
X415701Y739000D01*
X424299D01*
X425000Y738860D01*
X425701Y739000D01*
X434299D01*
X435000Y738860D01*
X435701Y739000D01*
X782000Y739000D01*
X816000Y705000D01*
D02*
G37*
G36*
X1265851Y488000D02*
X1260900D01*
X1259826Y488824D01*
X1256534Y490188D01*
X1253000Y490653D01*
X1249466Y490188D01*
X1246174Y488824D01*
X1245100Y488000D01*
X1188000D01*
Y532000D01*
X1213000Y557000D01*
Y564000D01*
X1265851D01*
Y488000D01*
D02*
G37*
%LPC*%
G36*
X1237500Y737370D02*
X1234945Y737034D01*
X1232565Y736048D01*
X1230520Y734480D01*
X1228952Y732435D01*
X1227966Y730055D01*
X1227629Y727500D01*
X1227966Y724945D01*
X1228952Y722565D01*
X1230520Y720520D01*
X1232565Y718952D01*
X1234945Y717966D01*
X1237500Y717630D01*
X1240055Y717966D01*
X1242435Y718952D01*
X1244480Y720520D01*
X1246048Y722565D01*
X1247034Y724945D01*
X1247370Y727500D01*
X1247034Y730055D01*
X1246048Y732435D01*
X1244480Y734480D01*
X1242435Y736048D01*
X1240055Y737034D01*
X1237500Y737370D01*
D02*
G37*
G36*
X876000Y380390D02*
X873938Y379979D01*
X872189Y378811D01*
X871021Y377062D01*
X870611Y375000D01*
X871021Y372938D01*
X872189Y371189D01*
X873938Y370021D01*
X876000Y369610D01*
X878063Y370021D01*
X879811Y371189D01*
X880979Y372938D01*
X881390Y375000D01*
X880979Y377062D01*
X879811Y378811D01*
X878063Y379979D01*
X876000Y380390D01*
D02*
G37*
G36*
X822000Y441390D02*
X819938Y440979D01*
X818189Y439811D01*
X817021Y438063D01*
X816610Y436000D01*
X817021Y433937D01*
X818189Y432189D01*
X819938Y431021D01*
X822000Y430610D01*
X824062Y431021D01*
X825811Y432189D01*
X826979Y433937D01*
X827390Y436000D01*
X826979Y438063D01*
X825811Y439811D01*
X824062Y440979D01*
X822000Y441390D01*
D02*
G37*
G36*
X375000Y373270D02*
X370000D01*
X367445Y372934D01*
X365065Y371948D01*
X363021Y370379D01*
X361452Y368335D01*
X360466Y365955D01*
X360130Y363400D01*
X360466Y360845D01*
X361452Y358465D01*
X363021Y356421D01*
X365065Y354852D01*
X367445Y353866D01*
X370000Y353530D01*
X375000D01*
X377555Y353866D01*
X379935Y354852D01*
X381979Y356421D01*
X383548Y358465D01*
X384534Y360845D01*
X384870Y363400D01*
X384534Y365955D01*
X383548Y368335D01*
X381979Y370379D01*
X379935Y371948D01*
X377555Y372934D01*
X375000Y373270D01*
D02*
G37*
G36*
X822000Y380390D02*
X819938Y379979D01*
X818189Y378811D01*
X817021Y377062D01*
X816610Y375000D01*
X817021Y372938D01*
X818189Y371189D01*
X819938Y370021D01*
X822000Y369610D01*
X824062Y370021D01*
X825811Y371189D01*
X826979Y372938D01*
X827390Y375000D01*
X826979Y377062D01*
X825811Y378811D01*
X824062Y379979D01*
X822000Y380390D01*
D02*
G37*
G36*
X876000Y441390D02*
X873938Y440979D01*
X872189Y439811D01*
X871021Y438063D01*
X870611Y436000D01*
X871021Y433937D01*
X872189Y432189D01*
X873938Y431021D01*
X876000Y430610D01*
X878063Y431021D01*
X879811Y432189D01*
X880979Y433937D01*
X881390Y436000D01*
X880979Y438063D01*
X879811Y439811D01*
X878063Y440979D01*
X876000Y441390D01*
D02*
G37*
G36*
X572500Y373270D02*
X567500D01*
X564945Y372934D01*
X562565Y371948D01*
X560521Y370379D01*
X558952Y368335D01*
X557966Y365955D01*
X557630Y363400D01*
X557966Y360845D01*
X558952Y358465D01*
X560521Y356421D01*
X562565Y354852D01*
X564945Y353866D01*
X567500Y353530D01*
X572500D01*
X575055Y353866D01*
X577435Y354852D01*
X579479Y356421D01*
X581048Y358465D01*
X582034Y360845D01*
X582370Y363400D01*
X582034Y365955D01*
X581048Y368335D01*
X579479Y370379D01*
X577435Y371948D01*
X575055Y372934D01*
X572500Y373270D01*
D02*
G37*
G36*
X329500Y362070D02*
X324500D01*
X321945Y361734D01*
X319565Y360748D01*
X317521Y359179D01*
X315952Y357135D01*
X314966Y354755D01*
X314940Y354562D01*
X313659D01*
X313634Y354755D01*
X312648Y357135D01*
X311080Y359179D01*
X309035Y360748D01*
X306655Y361734D01*
X304100Y362070D01*
X299100D01*
X296545Y361734D01*
X294165Y360748D01*
X292120Y359179D01*
X290552Y357135D01*
X289566Y354755D01*
X289230Y352200D01*
X289566Y349645D01*
X290552Y347265D01*
X292120Y345220D01*
X294165Y343652D01*
X296545Y342666D01*
X299100Y342330D01*
X304100D01*
X306655Y342666D01*
X309035Y343652D01*
X311080Y345220D01*
X312648Y347265D01*
X313634Y349645D01*
X313659Y349838D01*
X314940D01*
X314966Y349645D01*
X315952Y347265D01*
X317521Y345220D01*
X319565Y343652D01*
X321945Y342666D01*
X324500Y342330D01*
X329500D01*
X332055Y342666D01*
X334435Y343652D01*
X336479Y345220D01*
X338048Y347265D01*
X339034Y349645D01*
X339370Y352200D01*
X339034Y354755D01*
X338048Y357135D01*
X336479Y359179D01*
X334435Y360748D01*
X332055Y361734D01*
X329500Y362070D01*
D02*
G37*
G36*
X699500Y449470D02*
X694500D01*
X691945Y449134D01*
X689565Y448148D01*
X687521Y446580D01*
X685952Y444535D01*
X684966Y442155D01*
X684630Y439600D01*
X684966Y437045D01*
X685952Y434665D01*
X687521Y432621D01*
X689565Y431052D01*
X691945Y430066D01*
X694500Y429730D01*
X699500D01*
X702055Y430066D01*
X704435Y431052D01*
X706479Y432621D01*
X708048Y434665D01*
X709034Y437045D01*
X709370Y439600D01*
X709034Y442155D01*
X708048Y444535D01*
X706479Y446580D01*
X704435Y448148D01*
X702055Y449134D01*
X699500Y449470D01*
D02*
G37*
G36*
X329500Y387470D02*
X324500D01*
X321945Y387134D01*
X319565Y386148D01*
X317521Y384580D01*
X315952Y382535D01*
X314966Y380155D01*
X314940Y379962D01*
X313659D01*
X313634Y380155D01*
X312648Y382535D01*
X311080Y384580D01*
X309035Y386148D01*
X306655Y387134D01*
X304100Y387470D01*
X299100D01*
X296545Y387134D01*
X294165Y386148D01*
X292120Y384580D01*
X290552Y382535D01*
X289566Y380155D01*
X289230Y377600D01*
X289566Y375045D01*
X290552Y372665D01*
X292120Y370620D01*
X294165Y369052D01*
X296545Y368066D01*
X299100Y367730D01*
X304100D01*
X306655Y368066D01*
X309035Y369052D01*
X311080Y370620D01*
X312648Y372665D01*
X313634Y375045D01*
X313659Y375238D01*
X314940D01*
X314966Y375045D01*
X315952Y372665D01*
X317521Y370620D01*
X319565Y369052D01*
X321945Y368066D01*
X324500Y367730D01*
X329500D01*
X332055Y368066D01*
X334435Y369052D01*
X336479Y370620D01*
X338048Y372665D01*
X339034Y375045D01*
X339370Y377600D01*
X339034Y380155D01*
X338048Y382535D01*
X336479Y384580D01*
X334435Y386148D01*
X332055Y387134D01*
X329500Y387470D01*
D02*
G37*
G36*
X375000Y424070D02*
X370000D01*
X367445Y423734D01*
X365065Y422748D01*
X363021Y421180D01*
X361452Y419135D01*
X360466Y416755D01*
X360130Y414200D01*
X360466Y411645D01*
X361452Y409265D01*
X363021Y407220D01*
X365065Y405652D01*
X367445Y404666D01*
X370000Y404330D01*
X375000D01*
X377555Y404666D01*
X379935Y405652D01*
X381979Y407220D01*
X383548Y409265D01*
X384534Y411645D01*
X384870Y414200D01*
X384534Y416755D01*
X383548Y419135D01*
X381979Y421180D01*
X379935Y422748D01*
X377555Y423734D01*
X375000Y424070D01*
D02*
G37*
G36*
X850000Y410390D02*
X847937Y409979D01*
X846189Y408811D01*
X845021Y407062D01*
X844611Y405000D01*
X845021Y402938D01*
X846189Y401189D01*
X847937Y400021D01*
X850000Y399610D01*
X852063Y400021D01*
X853811Y401189D01*
X854979Y402938D01*
X855390Y405000D01*
X854979Y407062D01*
X853811Y408811D01*
X852063Y409979D01*
X850000Y410390D01*
D02*
G37*
G36*
X800000D02*
X797937Y409979D01*
X796189Y408811D01*
X795021Y407062D01*
X794611Y405000D01*
X795021Y402938D01*
X796189Y401189D01*
X797937Y400021D01*
X800000Y399610D01*
X802063Y400021D01*
X803811Y401189D01*
X804979Y402938D01*
X805390Y405000D01*
X804979Y407062D01*
X803811Y408811D01*
X802063Y409979D01*
X800000Y410390D01*
D02*
G37*
G36*
X572500Y398670D02*
X567500D01*
X564945Y398334D01*
X562565Y397348D01*
X560521Y395779D01*
X558952Y393735D01*
X557966Y391355D01*
X557630Y388800D01*
X557966Y386245D01*
X558952Y383865D01*
X560521Y381820D01*
X562565Y380252D01*
X564945Y379266D01*
X567500Y378930D01*
X572500D01*
X575055Y379266D01*
X577435Y380252D01*
X579479Y381820D01*
X581048Y383865D01*
X582034Y386245D01*
X582370Y388800D01*
X582034Y391355D01*
X581048Y393735D01*
X579479Y395779D01*
X577435Y397348D01*
X575055Y398334D01*
X572500Y398670D01*
D02*
G37*
G36*
X265000Y387389D02*
X262938Y386979D01*
X261189Y385811D01*
X260021Y384062D01*
X259611Y382000D01*
X260021Y379938D01*
X261189Y378189D01*
X262938Y377021D01*
X265000Y376610D01*
X267062Y377021D01*
X268811Y378189D01*
X269979Y379938D01*
X270390Y382000D01*
X269979Y384062D01*
X268811Y385811D01*
X267062Y386979D01*
X265000Y387389D01*
D02*
G37*
G36*
X329500Y412870D02*
X324500D01*
X321945Y412534D01*
X319565Y411548D01*
X317521Y409980D01*
X315952Y407935D01*
X314966Y405555D01*
X314940Y405362D01*
X313659D01*
X313634Y405555D01*
X312648Y407935D01*
X311080Y409980D01*
X309035Y411548D01*
X306655Y412534D01*
X304100Y412870D01*
X299100D01*
X296545Y412534D01*
X294165Y411548D01*
X292120Y409980D01*
X290552Y407935D01*
X289566Y405555D01*
X289230Y403000D01*
X289566Y400445D01*
X290552Y398065D01*
X292120Y396021D01*
X294165Y394452D01*
X296545Y393466D01*
X299100Y393130D01*
X304100D01*
X306655Y393466D01*
X309035Y394452D01*
X311080Y396021D01*
X312648Y398065D01*
X313634Y400445D01*
X313659Y400638D01*
X314940D01*
X314966Y400445D01*
X315952Y398065D01*
X317521Y396021D01*
X319565Y394452D01*
X321945Y393466D01*
X324500Y393130D01*
X329500D01*
X332055Y393466D01*
X334435Y394452D01*
X336479Y396021D01*
X338048Y398065D01*
X339034Y400445D01*
X339370Y403000D01*
X339034Y405555D01*
X338048Y407935D01*
X336479Y409980D01*
X334435Y411548D01*
X332055Y412534D01*
X329500Y412870D01*
D02*
G37*
G36*
X572500Y424070D02*
X567500D01*
X564945Y423734D01*
X562565Y422748D01*
X560521Y421180D01*
X558952Y419135D01*
X557966Y416755D01*
X557630Y414200D01*
X557966Y411645D01*
X558952Y409265D01*
X560521Y407220D01*
X562565Y405652D01*
X564945Y404666D01*
X567500Y404330D01*
X572500D01*
X575055Y404666D01*
X577435Y405652D01*
X579479Y407220D01*
X581048Y409265D01*
X582034Y411645D01*
X582370Y414200D01*
X582034Y416755D01*
X581048Y419135D01*
X579479Y421180D01*
X577435Y422748D01*
X575055Y423734D01*
X572500Y424070D01*
D02*
G37*
G36*
X375000Y398670D02*
X370000D01*
X367445Y398334D01*
X365065Y397348D01*
X363021Y395779D01*
X361452Y393735D01*
X360466Y391355D01*
X360130Y388800D01*
X360466Y386245D01*
X361452Y383865D01*
X363021Y381820D01*
X365065Y380252D01*
X367445Y379266D01*
X370000Y378930D01*
X375000D01*
X377555Y379266D01*
X379935Y380252D01*
X381979Y381820D01*
X383548Y383865D01*
X384534Y386245D01*
X384870Y388800D01*
X384534Y391355D01*
X383548Y393735D01*
X381979Y395779D01*
X379935Y397348D01*
X377555Y398334D01*
X375000Y398670D01*
D02*
G37*
G36*
X857740Y288331D02*
X842740D01*
X841848Y288153D01*
X841092Y287648D01*
X840587Y286892D01*
X840409Y286000D01*
Y266000D01*
X840587Y265108D01*
X841092Y264352D01*
X841848Y263847D01*
X842740Y263669D01*
X857740D01*
X858632Y263847D01*
X859388Y264352D01*
X859893Y265108D01*
X860071Y266000D01*
Y286000D01*
X859893Y286892D01*
X859388Y287648D01*
X858632Y288153D01*
X857740Y288331D01*
D02*
G37*
G36*
X817100D02*
X802100D01*
X801208Y288153D01*
X800452Y287648D01*
X799947Y286892D01*
X799769Y286000D01*
Y266000D01*
X799947Y265108D01*
X800452Y264352D01*
X801208Y263847D01*
X802100Y263669D01*
X817100D01*
X817992Y263847D01*
X818748Y264352D01*
X819253Y265108D01*
X819431Y266000D01*
Y286000D01*
X819253Y286892D01*
X818748Y287648D01*
X817992Y288153D01*
X817100Y288331D01*
D02*
G37*
G36*
X502000Y297070D02*
X497000D01*
X494445Y296734D01*
X492065Y295748D01*
X490020Y294179D01*
X488452Y292135D01*
X487466Y289755D01*
X487130Y287200D01*
X487466Y284645D01*
X488452Y282265D01*
X490020Y280221D01*
X492065Y278652D01*
X494445Y277666D01*
X497000Y277330D01*
X502000D01*
X504555Y277666D01*
X506935Y278652D01*
X508979Y280221D01*
X510548Y282265D01*
X511534Y284645D01*
X511870Y287200D01*
X511534Y289755D01*
X510548Y292135D01*
X508979Y294179D01*
X506935Y295748D01*
X504555Y296734D01*
X502000Y297070D01*
D02*
G37*
G36*
X375000Y322470D02*
X370000D01*
X367445Y322134D01*
X365065Y321148D01*
X363021Y319580D01*
X361452Y317535D01*
X360466Y315155D01*
X360130Y312600D01*
X360466Y310045D01*
X361452Y307665D01*
X363021Y305620D01*
X365065Y304052D01*
X367445Y303066D01*
X370000Y302730D01*
X375000D01*
X377555Y303066D01*
X379935Y304052D01*
X381979Y305620D01*
X383548Y307665D01*
X384534Y310045D01*
X384870Y312600D01*
X384534Y315155D01*
X383548Y317535D01*
X381979Y319580D01*
X379935Y321148D01*
X377555Y322134D01*
X375000Y322470D01*
D02*
G37*
G36*
X572500Y297070D02*
X567500D01*
X564945Y296734D01*
X562565Y295748D01*
X560521Y294179D01*
X558952Y292135D01*
X557966Y289755D01*
X557630Y287200D01*
X557966Y284645D01*
X558952Y282265D01*
X560521Y280221D01*
X562565Y278652D01*
X564945Y277666D01*
X567500Y277330D01*
X572500D01*
X575055Y277666D01*
X577435Y278652D01*
X579479Y280221D01*
X581048Y282265D01*
X582034Y284645D01*
X582370Y287200D01*
X582034Y289755D01*
X581048Y292135D01*
X579479Y294179D01*
X577435Y295748D01*
X575055Y296734D01*
X572500Y297070D01*
D02*
G37*
G36*
X926440Y288370D02*
X923885Y288034D01*
X921505Y287048D01*
X919461Y285480D01*
X917892Y283435D01*
X916906Y281055D01*
X916570Y278500D01*
Y273500D01*
X916906Y270945D01*
X917892Y268565D01*
X919461Y266521D01*
X921505Y264952D01*
X923885Y263966D01*
X926440Y263629D01*
X928995Y263966D01*
X931375Y264952D01*
X933419Y266521D01*
X934988Y268565D01*
X935974Y270945D01*
X936310Y273500D01*
Y278500D01*
X935974Y281055D01*
X934988Y283435D01*
X933419Y285480D01*
X931375Y287048D01*
X928995Y288034D01*
X926440Y288370D01*
D02*
G37*
G36*
X758800D02*
X756245Y288034D01*
X753865Y287048D01*
X751821Y285480D01*
X750252Y283435D01*
X749266Y281055D01*
X748930Y278500D01*
Y273500D01*
X749266Y270945D01*
X750252Y268565D01*
X751821Y266521D01*
X753865Y264952D01*
X756245Y263966D01*
X758800Y263629D01*
X761355Y263966D01*
X763735Y264952D01*
X765779Y266521D01*
X767348Y268565D01*
X768334Y270945D01*
X768670Y273500D01*
Y278500D01*
X768334Y281055D01*
X767348Y283435D01*
X765779Y285480D01*
X763735Y287048D01*
X761355Y288034D01*
X758800Y288370D01*
D02*
G37*
G36*
X733400D02*
X730845Y288034D01*
X728465Y287048D01*
X726421Y285480D01*
X724852Y283435D01*
X723866Y281055D01*
X723530Y278500D01*
Y273500D01*
X723866Y270945D01*
X724852Y268565D01*
X726421Y266521D01*
X728465Y264952D01*
X730845Y263966D01*
X733400Y263629D01*
X735955Y263966D01*
X738335Y264952D01*
X740379Y266521D01*
X741948Y268565D01*
X742934Y270945D01*
X743270Y273500D01*
Y278500D01*
X742934Y281055D01*
X741948Y283435D01*
X740379Y285480D01*
X738335Y287048D01*
X735955Y288034D01*
X733400Y288370D01*
D02*
G37*
G36*
X784200D02*
X781645Y288034D01*
X779265Y287048D01*
X777221Y285480D01*
X775652Y283435D01*
X774666Y281055D01*
X774330Y278500D01*
Y273500D01*
X774666Y270945D01*
X775652Y268565D01*
X777221Y266521D01*
X779265Y264952D01*
X781645Y263966D01*
X784200Y263629D01*
X786755Y263966D01*
X789135Y264952D01*
X791180Y266521D01*
X792748Y268565D01*
X793734Y270945D01*
X794070Y273500D01*
Y278500D01*
X793734Y281055D01*
X792748Y283435D01*
X791180Y285480D01*
X789135Y287048D01*
X786755Y288034D01*
X784200Y288370D01*
D02*
G37*
G36*
X901040D02*
X898485Y288034D01*
X896105Y287048D01*
X894061Y285480D01*
X892492Y283435D01*
X891506Y281055D01*
X891170Y278500D01*
Y273500D01*
X891506Y270945D01*
X892492Y268565D01*
X894061Y266521D01*
X896105Y264952D01*
X898485Y263966D01*
X901040Y263629D01*
X903595Y263966D01*
X905975Y264952D01*
X908019Y266521D01*
X909588Y268565D01*
X910574Y270945D01*
X910910Y273500D01*
Y278500D01*
X910574Y281055D01*
X909588Y283435D01*
X908019Y285480D01*
X905975Y287048D01*
X903595Y288034D01*
X901040Y288370D01*
D02*
G37*
G36*
X875640D02*
X873085Y288034D01*
X870705Y287048D01*
X868661Y285480D01*
X867092Y283435D01*
X866106Y281055D01*
X865770Y278500D01*
Y273500D01*
X866106Y270945D01*
X867092Y268565D01*
X868661Y266521D01*
X870705Y264952D01*
X873085Y263966D01*
X875640Y263629D01*
X878195Y263966D01*
X880575Y264952D01*
X882619Y266521D01*
X884188Y268565D01*
X885174Y270945D01*
X885510Y273500D01*
Y278500D01*
X885174Y281055D01*
X884188Y283435D01*
X882619Y285480D01*
X880575Y287048D01*
X878195Y288034D01*
X875640Y288370D01*
D02*
G37*
G36*
X732800Y427196D02*
X696900D01*
X693562Y426757D01*
X690452Y425469D01*
X687781Y423419D01*
X685731Y420748D01*
X684443Y417638D01*
X684004Y414300D01*
X684443Y410962D01*
X685731Y407852D01*
X687781Y405181D01*
X690452Y403131D01*
X692490Y402287D01*
Y400913D01*
X690452Y400069D01*
X687781Y398019D01*
X685731Y395348D01*
X684443Y392238D01*
X684004Y388900D01*
X684443Y385562D01*
X685731Y382452D01*
X687781Y379781D01*
X690452Y377732D01*
X692490Y376887D01*
Y375513D01*
X690452Y374669D01*
X687781Y372619D01*
X685731Y369948D01*
X684443Y366838D01*
X684004Y363500D01*
X684443Y360162D01*
X685731Y357052D01*
X687781Y354381D01*
X690452Y352332D01*
X692490Y351487D01*
Y350113D01*
X690452Y349269D01*
X687781Y347219D01*
X685731Y344548D01*
X684443Y341438D01*
X684004Y338100D01*
X684443Y334762D01*
X685731Y331652D01*
X687781Y328981D01*
X690452Y326931D01*
X693562Y325643D01*
X696900Y325204D01*
X732800D01*
X736138Y325643D01*
X739248Y326931D01*
X741919Y328981D01*
X743969Y331652D01*
X745257Y334762D01*
X745696Y338100D01*
X745257Y341438D01*
X743969Y344548D01*
X741919Y347219D01*
X739248Y349269D01*
X737210Y350113D01*
Y351487D01*
X739248Y352332D01*
X741919Y354381D01*
X743969Y357052D01*
X745257Y360162D01*
X745696Y363500D01*
X745257Y366838D01*
X743969Y369948D01*
X741919Y372619D01*
X739248Y374669D01*
X737210Y375513D01*
Y376887D01*
X739248Y377732D01*
X741919Y379781D01*
X743969Y382452D01*
X745257Y385562D01*
X745696Y388900D01*
X745257Y392238D01*
X743969Y395348D01*
X741919Y398019D01*
X739248Y400069D01*
X737210Y400913D01*
Y402287D01*
X739248Y403131D01*
X740731Y404269D01*
X743000D01*
X743892Y404447D01*
X744648Y404952D01*
X745153Y405708D01*
X745331Y406600D01*
Y411523D01*
X745696Y414300D01*
X745331Y417077D01*
Y421600D01*
X745153Y422492D01*
X744648Y423248D01*
X743892Y423753D01*
X743000Y423931D01*
X741252D01*
X739248Y425469D01*
X736138Y426757D01*
X732800Y427196D01*
D02*
G37*
G36*
X534800D02*
X499400D01*
X496062Y426757D01*
X492952Y425469D01*
X490281Y423419D01*
X488232Y420748D01*
X486943Y417638D01*
X486504Y414300D01*
X486943Y410962D01*
X488232Y407852D01*
X490281Y405181D01*
X492952Y403131D01*
X494990Y402287D01*
Y400913D01*
X492952Y400069D01*
X490281Y398019D01*
X488232Y395348D01*
X486943Y392238D01*
X486504Y388900D01*
X486943Y385562D01*
X488232Y382452D01*
X490281Y379781D01*
X492952Y377732D01*
X494990Y376887D01*
Y375513D01*
X492952Y374669D01*
X490281Y372619D01*
X488232Y369948D01*
X486943Y366838D01*
X486504Y363500D01*
X486943Y360162D01*
X488232Y357052D01*
X490281Y354381D01*
X492952Y352332D01*
X494990Y351487D01*
Y350113D01*
X492952Y349269D01*
X490281Y347219D01*
X488232Y344548D01*
X486943Y341438D01*
X486504Y338100D01*
X486943Y334762D01*
X488232Y331652D01*
X490281Y328981D01*
X492952Y326931D01*
X496062Y325643D01*
X499400Y325204D01*
X534800D01*
X538138Y325643D01*
X541248Y326931D01*
X543919Y328981D01*
X545969Y331652D01*
X547257Y334762D01*
X547696Y338100D01*
X547257Y341438D01*
X545969Y344548D01*
X543919Y347219D01*
X541248Y349269D01*
X539210Y350113D01*
Y351487D01*
X541248Y352332D01*
X543919Y354381D01*
X545969Y357052D01*
X547257Y360162D01*
X547696Y363500D01*
X547257Y366838D01*
X545969Y369948D01*
X543919Y372619D01*
X541248Y374669D01*
X539210Y375513D01*
Y376887D01*
X541248Y377732D01*
X543919Y379781D01*
X545969Y382452D01*
X547257Y385562D01*
X547696Y388900D01*
X547257Y392238D01*
X545969Y395348D01*
X543919Y398019D01*
X541248Y400069D01*
X539210Y400913D01*
Y402287D01*
X541248Y403131D01*
X542731Y404269D01*
X545000D01*
X545892Y404447D01*
X546648Y404952D01*
X547153Y405708D01*
X547331Y406600D01*
Y411523D01*
X547696Y414300D01*
X547331Y417077D01*
Y421600D01*
X547153Y422492D01*
X546648Y423248D01*
X545892Y423753D01*
X545000Y423931D01*
X543252D01*
X541248Y425469D01*
X538138Y426757D01*
X534800Y427196D01*
D02*
G37*
G36*
X375000Y347870D02*
X370000D01*
X367445Y347534D01*
X365065Y346548D01*
X363021Y344980D01*
X361452Y342935D01*
X360466Y340555D01*
X360130Y338000D01*
X360466Y335445D01*
X361452Y333065D01*
X363021Y331021D01*
X365065Y329452D01*
X367445Y328466D01*
X370000Y328130D01*
X375000D01*
X377555Y328466D01*
X379935Y329452D01*
X381979Y331021D01*
X383548Y333065D01*
X384534Y335445D01*
X384870Y338000D01*
X384534Y340555D01*
X383548Y342935D01*
X381979Y344980D01*
X379935Y346548D01*
X377555Y347534D01*
X375000Y347870D01*
D02*
G37*
G36*
X329500Y336670D02*
X324500D01*
X321945Y336334D01*
X319565Y335348D01*
X317521Y333779D01*
X315952Y331735D01*
X314966Y329355D01*
X314940Y329162D01*
X313659D01*
X313634Y329355D01*
X312648Y331735D01*
X311080Y333779D01*
X309035Y335348D01*
X306655Y336334D01*
X304100Y336670D01*
X299100D01*
X296545Y336334D01*
X294165Y335348D01*
X292120Y333779D01*
X290552Y331735D01*
X289566Y329355D01*
X289230Y326800D01*
X289566Y324245D01*
X290552Y321865D01*
X292120Y319820D01*
X294165Y318252D01*
X296545Y317266D01*
X299100Y316930D01*
X304100D01*
X306655Y317266D01*
X309035Y318252D01*
X311080Y319820D01*
X312648Y321865D01*
X313634Y324245D01*
X313659Y324438D01*
X314940D01*
X314966Y324245D01*
X315952Y321865D01*
X317521Y319820D01*
X319565Y318252D01*
X321945Y317266D01*
X324500Y316930D01*
X329500D01*
X332055Y317266D01*
X334435Y318252D01*
X336479Y319820D01*
X338048Y321865D01*
X339034Y324245D01*
X339370Y326800D01*
X339034Y329355D01*
X338048Y331735D01*
X336479Y333779D01*
X334435Y335348D01*
X332055Y336334D01*
X329500Y336670D01*
D02*
G37*
G36*
X572500Y347870D02*
X567500D01*
X564945Y347534D01*
X562565Y346548D01*
X560521Y344980D01*
X558952Y342935D01*
X557966Y340555D01*
X557630Y338000D01*
X557966Y335445D01*
X558952Y333065D01*
X560521Y331021D01*
X562565Y329452D01*
X564945Y328466D01*
X567500Y328130D01*
X572500D01*
X575055Y328466D01*
X577435Y329452D01*
X579479Y331021D01*
X581048Y333065D01*
X582034Y335445D01*
X582370Y338000D01*
X582034Y340555D01*
X581048Y342935D01*
X579479Y344980D01*
X577435Y346548D01*
X575055Y347534D01*
X572500Y347870D01*
D02*
G37*
G36*
X265000Y332390D02*
X262938Y331979D01*
X261189Y330811D01*
X260021Y329062D01*
X259611Y327000D01*
X260021Y324938D01*
X261189Y323189D01*
X262938Y322021D01*
X265000Y321610D01*
X267062Y322021D01*
X268811Y323189D01*
X269979Y324938D01*
X270390Y327000D01*
X269979Y329062D01*
X268811Y330811D01*
X267062Y331979D01*
X265000Y332390D01*
D02*
G37*
G36*
X910000Y307390D02*
X907937Y306979D01*
X906189Y305811D01*
X905764Y305175D01*
X904236D01*
X903811Y305811D01*
X902063Y306979D01*
X900000Y307390D01*
X897937Y306979D01*
X896189Y305811D01*
X895021Y304062D01*
X894611Y302000D01*
X895021Y299937D01*
X896189Y298189D01*
X897937Y297021D01*
X899742Y296662D01*
X899610Y296000D01*
X900021Y293937D01*
X901189Y292189D01*
X902937Y291021D01*
X905000Y290610D01*
X907063Y291021D01*
X908811Y292189D01*
X909236Y292826D01*
X910764D01*
X911189Y292189D01*
X912937Y291021D01*
X915000Y290610D01*
X917063Y291021D01*
X918811Y292189D01*
X919979Y293937D01*
X920389Y296000D01*
X919979Y298062D01*
X918811Y299811D01*
X917063Y300979D01*
X915258Y301338D01*
X915390Y302000D01*
X914979Y304062D01*
X913811Y305811D01*
X912063Y306979D01*
X910000Y307390D01*
D02*
G37*
G36*
X572500Y322470D02*
X567500D01*
X564945Y322134D01*
X562565Y321148D01*
X560521Y319580D01*
X558952Y317535D01*
X557966Y315155D01*
X557630Y312600D01*
X557966Y310045D01*
X558952Y307665D01*
X560521Y305620D01*
X562565Y304052D01*
X564945Y303066D01*
X567500Y302730D01*
X572500D01*
X575055Y303066D01*
X577435Y304052D01*
X579479Y305620D01*
X581048Y307665D01*
X582034Y310045D01*
X582370Y312600D01*
X582034Y315155D01*
X581048Y317535D01*
X579479Y319580D01*
X577435Y321148D01*
X575055Y322134D01*
X572500Y322470D01*
D02*
G37*
G36*
X800000Y330390D02*
X797937Y329979D01*
X796189Y328811D01*
X795021Y327062D01*
X794611Y325000D01*
X795021Y322938D01*
X796189Y321189D01*
X797937Y320021D01*
X800000Y319611D01*
X802063Y320021D01*
X803811Y321189D01*
X804979Y322938D01*
X805390Y325000D01*
X804979Y327062D01*
X803811Y328811D01*
X802063Y329979D01*
X800000Y330390D01*
D02*
G37*
G36*
X988000Y327890D02*
X985938Y327479D01*
X984189Y326311D01*
X983021Y324562D01*
X982610Y322500D01*
X983021Y320438D01*
X984189Y318689D01*
X985938Y317521D01*
X988000Y317110D01*
X990062Y317521D01*
X991811Y318689D01*
X992979Y320438D01*
X993390Y322500D01*
X992979Y324562D01*
X991811Y326311D01*
X990062Y327479D01*
X988000Y327890D01*
D02*
G37*
G36*
X329500Y438270D02*
X324500D01*
X321945Y437934D01*
X319565Y436948D01*
X317521Y435379D01*
X315952Y433335D01*
X314966Y430955D01*
X314940Y430762D01*
X313659D01*
X313634Y430955D01*
X312648Y433335D01*
X311080Y435379D01*
X309035Y436948D01*
X306655Y437934D01*
X304100Y438270D01*
X299100D01*
X296545Y437934D01*
X294165Y436948D01*
X292120Y435379D01*
X290552Y433335D01*
X289566Y430955D01*
X289230Y428400D01*
X289566Y425845D01*
X290552Y423465D01*
X292120Y421421D01*
X294165Y419852D01*
X296545Y418866D01*
X299100Y418530D01*
X304100D01*
X306655Y418866D01*
X309035Y419852D01*
X311080Y421421D01*
X312648Y423465D01*
X313634Y425845D01*
X313659Y426038D01*
X314940D01*
X314966Y425845D01*
X315952Y423465D01*
X317521Y421421D01*
X319565Y419852D01*
X321945Y418866D01*
X324500Y418530D01*
X329500D01*
X332055Y418866D01*
X334435Y419852D01*
X336479Y421421D01*
X338048Y423465D01*
X339034Y425845D01*
X339370Y428400D01*
X339034Y430955D01*
X338048Y433335D01*
X336479Y435379D01*
X334435Y436948D01*
X332055Y437934D01*
X329500Y438270D01*
D02*
G37*
G36*
X699500Y664471D02*
X694500D01*
X691945Y664134D01*
X689565Y663148D01*
X687521Y661580D01*
X685952Y659535D01*
X684966Y657155D01*
X684630Y654600D01*
X684966Y652045D01*
X685952Y649665D01*
X687521Y647620D01*
X689565Y646052D01*
X691945Y645066D01*
X694500Y644730D01*
X699500D01*
X702055Y645066D01*
X704435Y646052D01*
X706479Y647620D01*
X708048Y649665D01*
X709034Y652045D01*
X709370Y654600D01*
X709034Y657155D01*
X708048Y659535D01*
X706479Y661580D01*
X704435Y663148D01*
X702055Y664134D01*
X699500Y664471D01*
D02*
G37*
G36*
X329500Y616070D02*
X324500D01*
X321945Y615734D01*
X319565Y614748D01*
X317521Y613180D01*
X315952Y611135D01*
X314966Y608755D01*
X314940Y608562D01*
X313659D01*
X313634Y608755D01*
X312648Y611135D01*
X311080Y613180D01*
X309035Y614748D01*
X306655Y615734D01*
X304100Y616070D01*
X299100D01*
X296545Y615734D01*
X294165Y614748D01*
X292120Y613180D01*
X290552Y611135D01*
X289566Y608755D01*
X289230Y606200D01*
X289566Y603645D01*
X290552Y601265D01*
X292120Y599221D01*
X294165Y597652D01*
X296545Y596666D01*
X299100Y596330D01*
X304100D01*
X306655Y596666D01*
X309035Y597652D01*
X311080Y599221D01*
X312648Y601265D01*
X313634Y603645D01*
X313659Y603838D01*
X314940D01*
X314966Y603645D01*
X315952Y601265D01*
X317521Y599221D01*
X319565Y597652D01*
X321945Y596666D01*
X324500Y596330D01*
X329500D01*
X332055Y596666D01*
X334435Y597652D01*
X336479Y599221D01*
X338048Y601265D01*
X339034Y603645D01*
X339370Y606200D01*
X339034Y608755D01*
X338048Y611135D01*
X336479Y613180D01*
X334435Y614748D01*
X332055Y615734D01*
X329500Y616070D01*
D02*
G37*
G36*
X797500Y615390D02*
X795437Y614979D01*
X793689Y613811D01*
X792521Y612062D01*
X792111Y610000D01*
X792521Y607938D01*
X793689Y606189D01*
X795437Y605021D01*
X797500Y604610D01*
X799563Y605021D01*
X801311Y606189D01*
X802479Y607938D01*
X802890Y610000D01*
X802479Y612062D01*
X801311Y613811D01*
X799563Y614979D01*
X797500Y615390D01*
D02*
G37*
G36*
X265000Y619890D02*
X262938Y619479D01*
X261189Y618311D01*
X260021Y616562D01*
X259611Y614500D01*
X260021Y612438D01*
X261189Y610689D01*
X262938Y609521D01*
X265000Y609110D01*
X267062Y609521D01*
X268811Y610689D01*
X269979Y612438D01*
X270390Y614500D01*
X269979Y616562D01*
X268811Y618311D01*
X267062Y619479D01*
X265000Y619890D01*
D02*
G37*
G36*
X329500Y641470D02*
X324500D01*
X321945Y641134D01*
X319565Y640148D01*
X317521Y638579D01*
X315952Y636535D01*
X314966Y634155D01*
X314940Y633962D01*
X313659D01*
X313634Y634155D01*
X312648Y636535D01*
X311080Y638579D01*
X309035Y640148D01*
X306655Y641134D01*
X304100Y641470D01*
X299100D01*
X296545Y641134D01*
X294165Y640148D01*
X292120Y638579D01*
X290552Y636535D01*
X289566Y634155D01*
X289230Y631600D01*
X289566Y629045D01*
X290552Y626665D01*
X292120Y624621D01*
X294165Y623052D01*
X296545Y622066D01*
X299100Y621730D01*
X304100D01*
X306655Y622066D01*
X309035Y623052D01*
X311080Y624621D01*
X312648Y626665D01*
X313634Y629045D01*
X313659Y629238D01*
X314940D01*
X314966Y629045D01*
X315952Y626665D01*
X317521Y624621D01*
X319565Y623052D01*
X321945Y622066D01*
X324500Y621730D01*
X329500D01*
X332055Y622066D01*
X334435Y623052D01*
X336479Y624621D01*
X338048Y626665D01*
X339034Y629045D01*
X339370Y631600D01*
X339034Y634155D01*
X338048Y636535D01*
X336479Y638579D01*
X334435Y640148D01*
X332055Y641134D01*
X329500Y641470D01*
D02*
G37*
G36*
X699500Y512071D02*
X694500D01*
X691945Y511734D01*
X689565Y510748D01*
X687521Y509179D01*
X685952Y507135D01*
X684966Y504755D01*
X684630Y502200D01*
X684966Y499645D01*
X685952Y497265D01*
X687521Y495220D01*
X689565Y493652D01*
X691945Y492666D01*
X694500Y492330D01*
X699500D01*
X702055Y492666D01*
X704435Y493652D01*
X706479Y495220D01*
X708048Y497265D01*
X709034Y499645D01*
X709370Y502200D01*
X709034Y504755D01*
X708048Y507135D01*
X706479Y509179D01*
X704435Y510748D01*
X702055Y511734D01*
X699500Y512071D01*
D02*
G37*
G36*
X329500Y489070D02*
X324500D01*
X321945Y488734D01*
X319565Y487748D01*
X317521Y486180D01*
X315952Y484135D01*
X314966Y481755D01*
X314940Y481562D01*
X313659D01*
X313634Y481755D01*
X312648Y484135D01*
X311080Y486180D01*
X309035Y487748D01*
X306655Y488734D01*
X304100Y489070D01*
X299100D01*
X296545Y488734D01*
X294165Y487748D01*
X292120Y486180D01*
X290552Y484135D01*
X289566Y481755D01*
X289230Y479200D01*
X289566Y476645D01*
X290552Y474265D01*
X292120Y472220D01*
X294165Y470652D01*
X296545Y469666D01*
X299100Y469330D01*
X304100D01*
X306655Y469666D01*
X309035Y470652D01*
X311080Y472220D01*
X312648Y474265D01*
X313634Y476645D01*
X313659Y476838D01*
X314940D01*
X314966Y476645D01*
X315952Y474265D01*
X317521Y472220D01*
X319565Y470652D01*
X321945Y469666D01*
X324500Y469330D01*
X329500D01*
X332055Y469666D01*
X334435Y470652D01*
X336479Y472220D01*
X338048Y474265D01*
X339034Y476645D01*
X339370Y479200D01*
X339034Y481755D01*
X338048Y484135D01*
X336479Y486180D01*
X334435Y487748D01*
X332055Y488734D01*
X329500Y489070D01*
D02*
G37*
G36*
X848250Y542392D02*
X797500D01*
X794293Y541970D01*
X791304Y540732D01*
X788737Y538763D01*
X786768Y536196D01*
X785530Y533207D01*
X785108Y530000D01*
X785530Y526793D01*
X786768Y523804D01*
X788737Y521237D01*
X791304Y519268D01*
X794293Y518030D01*
X797500Y517608D01*
X843117D01*
X853487Y507238D01*
X856054Y505268D01*
X859043Y504030D01*
X862250Y503608D01*
X865457Y504030D01*
X868446Y505268D01*
X871012Y507238D01*
X872982Y509804D01*
X874220Y512793D01*
X874642Y516000D01*
X874220Y519207D01*
X872982Y522196D01*
X871012Y524762D01*
X857012Y538763D01*
X854446Y540732D01*
X851457Y541970D01*
X848250Y542392D01*
D02*
G37*
G36*
X572500Y537471D02*
X567500D01*
X564945Y537134D01*
X562565Y536148D01*
X560521Y534580D01*
X558952Y532535D01*
X557966Y530155D01*
X557630Y527600D01*
X557966Y525045D01*
X558952Y522665D01*
X560521Y520620D01*
X562565Y519052D01*
X564945Y518066D01*
X567500Y517730D01*
X572500D01*
X575055Y518066D01*
X577435Y519052D01*
X579479Y520620D01*
X581048Y522665D01*
X582034Y525045D01*
X582370Y527600D01*
X582034Y530155D01*
X581048Y532535D01*
X579479Y534580D01*
X577435Y536148D01*
X575055Y537134D01*
X572500Y537471D01*
D02*
G37*
G36*
X375000D02*
X370000D01*
X367445Y537134D01*
X365065Y536148D01*
X363021Y534580D01*
X361452Y532535D01*
X360466Y530155D01*
X360130Y527600D01*
X360466Y525045D01*
X361452Y522665D01*
X363021Y520620D01*
X365065Y519052D01*
X367445Y518066D01*
X370000Y517730D01*
X375000D01*
X377555Y518066D01*
X379935Y519052D01*
X381979Y520620D01*
X383548Y522665D01*
X384534Y525045D01*
X384870Y527600D01*
X384534Y530155D01*
X383548Y532535D01*
X381979Y534580D01*
X379935Y536148D01*
X377555Y537134D01*
X375000Y537471D01*
D02*
G37*
G36*
X329500Y463670D02*
X324500D01*
X321945Y463334D01*
X319565Y462348D01*
X317521Y460779D01*
X315952Y458735D01*
X314966Y456355D01*
X314940Y456162D01*
X313659D01*
X313634Y456355D01*
X312648Y458735D01*
X311080Y460779D01*
X309035Y462348D01*
X306655Y463334D01*
X304100Y463670D01*
X299100D01*
X296545Y463334D01*
X294165Y462348D01*
X292120Y460779D01*
X290552Y458735D01*
X289566Y456355D01*
X289230Y453800D01*
X289566Y451245D01*
X290552Y448865D01*
X292120Y446820D01*
X294165Y445252D01*
X296545Y444266D01*
X299100Y443930D01*
X304100D01*
X306655Y444266D01*
X309035Y445252D01*
X311080Y446820D01*
X312648Y448865D01*
X313634Y451245D01*
X313659Y451438D01*
X314940D01*
X314966Y451245D01*
X315952Y448865D01*
X317521Y446820D01*
X319565Y445252D01*
X321945Y444266D01*
X324500Y443930D01*
X329500D01*
X332055Y444266D01*
X334435Y445252D01*
X336479Y446820D01*
X338048Y448865D01*
X339034Y451245D01*
X339370Y453800D01*
X339034Y456355D01*
X338048Y458735D01*
X336479Y460779D01*
X334435Y462348D01*
X332055Y463334D01*
X329500Y463670D01*
D02*
G37*
G36*
X920000Y437389D02*
X917937Y436979D01*
X916189Y435811D01*
X915206Y434339D01*
X914771Y434241D01*
X914229D01*
X913794Y434339D01*
X912811Y435811D01*
X911062Y436979D01*
X909000Y437389D01*
X906937Y436979D01*
X905189Y435811D01*
X904021Y434062D01*
X903611Y432000D01*
X904021Y429938D01*
X905189Y428189D01*
X906661Y427206D01*
X906759Y426771D01*
Y426229D01*
X906661Y425794D01*
X905189Y424811D01*
X904021Y423063D01*
X903611Y421000D01*
X904021Y418937D01*
X905189Y417189D01*
X906661Y416206D01*
X906759Y415771D01*
Y415229D01*
X906661Y414794D01*
X905189Y413811D01*
X904021Y412062D01*
X903611Y410000D01*
X904021Y407938D01*
X905189Y406189D01*
X906661Y405206D01*
X906759Y404771D01*
Y404229D01*
X906661Y403794D01*
X905189Y402811D01*
X904021Y401063D01*
X903611Y399000D01*
X904021Y396937D01*
X905189Y395189D01*
X906661Y394206D01*
X906759Y393771D01*
Y393229D01*
X906661Y392794D01*
X905189Y391811D01*
X904021Y390062D01*
X903611Y388000D01*
X904021Y385938D01*
X905189Y384189D01*
X906937Y383021D01*
X909000Y382610D01*
X911062Y383021D01*
X912811Y384189D01*
X913794Y385661D01*
X914229Y385759D01*
X914771D01*
X915206Y385661D01*
X916189Y384189D01*
X917937Y383021D01*
X920000Y382610D01*
X922063Y383021D01*
X923811Y384189D01*
X924979Y385938D01*
X925390Y388000D01*
X924979Y390062D01*
X923811Y391811D01*
X922339Y392794D01*
X922241Y393229D01*
Y393771D01*
X922339Y394206D01*
X923811Y395189D01*
X924979Y396937D01*
X925390Y399000D01*
X924979Y401063D01*
X923811Y402811D01*
X922339Y403794D01*
X922241Y404229D01*
Y404771D01*
X922339Y405206D01*
X923811Y406189D01*
X924979Y407938D01*
X925390Y410000D01*
X924979Y412062D01*
X923811Y413811D01*
X922339Y414794D01*
X922241Y415229D01*
Y415771D01*
X922339Y416206D01*
X923811Y417189D01*
X924979Y418937D01*
X925390Y421000D01*
X924979Y423063D01*
X923811Y424811D01*
X922339Y425794D01*
X922241Y426229D01*
Y426771D01*
X922339Y427206D01*
X923811Y428189D01*
X924979Y429938D01*
X925390Y432000D01*
X924979Y434062D01*
X923811Y435811D01*
X922063Y436979D01*
X920000Y437389D01*
D02*
G37*
G36*
X797500Y493631D02*
X794619Y493252D01*
X791934Y492140D01*
X789629Y490371D01*
X774988Y475730D01*
X756076D01*
X755514Y476869D01*
X756048Y477565D01*
X757034Y479945D01*
X757370Y482500D01*
X757034Y485055D01*
X756048Y487435D01*
X754480Y489479D01*
X752435Y491048D01*
X750055Y492034D01*
X747500Y492370D01*
X744945Y492034D01*
X742565Y491048D01*
X740520Y489479D01*
X738952Y487435D01*
X737966Y485055D01*
X737630Y482500D01*
X737966Y479945D01*
X738952Y477565D01*
X739486Y476869D01*
X738924Y475730D01*
X699933D01*
X699881Y475752D01*
X697000Y476131D01*
X694119Y475752D01*
X691434Y474640D01*
X690535Y473950D01*
X689565Y473548D01*
X687521Y471979D01*
X685952Y469935D01*
X684966Y467555D01*
X684630Y465000D01*
X684966Y462445D01*
X685952Y460065D01*
X687521Y458021D01*
X689020Y456870D01*
X689129Y456728D01*
X691434Y454959D01*
X694119Y453847D01*
X697000Y453468D01*
X779599D01*
X782480Y453847D01*
X785165Y454959D01*
X787470Y456728D01*
X805371Y474629D01*
X807140Y476934D01*
X808252Y479619D01*
X808631Y482500D01*
X808252Y485381D01*
X807140Y488066D01*
X805371Y490371D01*
X803066Y492140D01*
X800381Y493252D01*
X797500Y493631D01*
D02*
G37*
G36*
X865500Y482890D02*
X863438Y482479D01*
X861689Y481311D01*
X860521Y479562D01*
X860110Y477500D01*
X860521Y475438D01*
X861689Y473689D01*
X863438Y472521D01*
X865500Y472110D01*
X867562Y472521D01*
X869311Y473689D01*
X870479Y475438D01*
X870890Y477500D01*
X870479Y479562D01*
X869311Y481311D01*
X867562Y482479D01*
X865500Y482890D01*
D02*
G37*
G36*
X534900Y642096D02*
X499500D01*
X496162Y641657D01*
X493052Y640369D01*
X490381Y638319D01*
X488331Y635648D01*
X487043Y632538D01*
X486604Y629200D01*
X487043Y625862D01*
X488331Y622752D01*
X490381Y620081D01*
X493052Y618032D01*
X494919Y617258D01*
Y615883D01*
X492952Y615069D01*
X490281Y613019D01*
X488232Y610348D01*
X486943Y607238D01*
X486504Y603900D01*
X486943Y600562D01*
X488232Y597452D01*
X490281Y594781D01*
X492952Y592732D01*
X494990Y591887D01*
Y590513D01*
X492952Y589669D01*
X490281Y587619D01*
X488232Y584948D01*
X486943Y581838D01*
X486504Y578500D01*
X486943Y575162D01*
X488232Y572052D01*
X490281Y569381D01*
X492952Y567332D01*
X494990Y566487D01*
Y565113D01*
X492952Y564269D01*
X490281Y562219D01*
X488232Y559548D01*
X486943Y556438D01*
X486504Y553100D01*
X486943Y549762D01*
X488232Y546652D01*
X490281Y543981D01*
X492952Y541931D01*
X496062Y540643D01*
X499400Y540204D01*
X534800D01*
X538138Y540643D01*
X541248Y541931D01*
X543919Y543981D01*
X545969Y546652D01*
X547257Y549762D01*
X547696Y553100D01*
X547257Y556438D01*
X545969Y559548D01*
X543919Y562219D01*
X541248Y564269D01*
X539210Y565113D01*
Y566487D01*
X541248Y567332D01*
X543919Y569381D01*
X545969Y572052D01*
X547257Y575162D01*
X547696Y578500D01*
X547257Y581838D01*
X545969Y584948D01*
X543919Y587619D01*
X541248Y589669D01*
X539210Y590513D01*
Y591887D01*
X541248Y592732D01*
X543919Y594781D01*
X545969Y597452D01*
X547257Y600562D01*
X547696Y603900D01*
X547257Y607238D01*
X545969Y610348D01*
X543919Y613019D01*
X541248Y615069D01*
X539381Y615842D01*
Y617217D01*
X541348Y618032D01*
X542961Y619269D01*
X545000D01*
X545892Y619447D01*
X546648Y619952D01*
X547153Y620708D01*
X547331Y621600D01*
Y625799D01*
X547357Y625862D01*
X547796Y629200D01*
X547357Y632538D01*
X547331Y632601D01*
Y636600D01*
X547153Y637492D01*
X546648Y638248D01*
X545892Y638753D01*
X545000Y638931D01*
X543222D01*
X541348Y640369D01*
X538238Y641657D01*
X534900Y642096D01*
D02*
G37*
G36*
X820000Y570890D02*
X817937Y570479D01*
X816189Y569311D01*
X815021Y567562D01*
X814611Y565500D01*
X815021Y563438D01*
X816189Y561689D01*
X817937Y560521D01*
X820000Y560110D01*
X822063Y560521D01*
X823811Y561689D01*
X824979Y563438D01*
X825390Y565500D01*
X824979Y567562D01*
X823811Y569311D01*
X822063Y570479D01*
X820000Y570890D01*
D02*
G37*
G36*
X329500Y565270D02*
X324500D01*
X321945Y564934D01*
X319565Y563948D01*
X317521Y562379D01*
X315952Y560335D01*
X314966Y557955D01*
X314940Y557762D01*
X313659D01*
X313634Y557955D01*
X312648Y560335D01*
X311080Y562379D01*
X309035Y563948D01*
X306655Y564934D01*
X304100Y565270D01*
X299100D01*
X296545Y564934D01*
X294165Y563948D01*
X292120Y562379D01*
X290552Y560335D01*
X289566Y557955D01*
X289230Y555400D01*
X289566Y552845D01*
X290552Y550465D01*
X292120Y548420D01*
X294165Y546852D01*
X296545Y545866D01*
X299100Y545530D01*
X304100D01*
X306655Y545866D01*
X309035Y546852D01*
X311080Y548420D01*
X312648Y550465D01*
X313634Y552845D01*
X313659Y553038D01*
X314940D01*
X314966Y552845D01*
X315952Y550465D01*
X317521Y548420D01*
X319565Y546852D01*
X321945Y545866D01*
X324500Y545530D01*
X329500D01*
X332055Y545866D01*
X334435Y546852D01*
X336479Y548420D01*
X338048Y550465D01*
X339034Y552845D01*
X339370Y555400D01*
X339034Y557955D01*
X338048Y560335D01*
X336479Y562379D01*
X334435Y563948D01*
X332055Y564934D01*
X329500Y565270D01*
D02*
G37*
G36*
X375000Y588270D02*
X370000D01*
X367445Y587934D01*
X365065Y586948D01*
X363021Y585379D01*
X361452Y583335D01*
X360466Y580955D01*
X360130Y578400D01*
X360466Y575845D01*
X361452Y573465D01*
X363021Y571421D01*
X365065Y569852D01*
X367445Y568866D01*
X370000Y568530D01*
X375000D01*
X377555Y568866D01*
X379935Y569852D01*
X381979Y571421D01*
X383548Y573465D01*
X384534Y575845D01*
X384870Y578400D01*
X384534Y580955D01*
X383548Y583335D01*
X381979Y585379D01*
X379935Y586948D01*
X377555Y587934D01*
X375000Y588270D01*
D02*
G37*
G36*
Y613671D02*
X370000D01*
X367445Y613334D01*
X365065Y612348D01*
X363021Y610779D01*
X361452Y608735D01*
X360466Y606355D01*
X360130Y603800D01*
X360466Y601245D01*
X361452Y598865D01*
X363021Y596820D01*
X365065Y595252D01*
X367445Y594266D01*
X370000Y593930D01*
X375000D01*
X377555Y594266D01*
X379935Y595252D01*
X381979Y596820D01*
X383548Y598865D01*
X384534Y601245D01*
X384870Y603800D01*
X384534Y606355D01*
X383548Y608735D01*
X381979Y610779D01*
X379935Y612348D01*
X377555Y613334D01*
X375000Y613671D01*
D02*
G37*
G36*
X572500Y588270D02*
X567500D01*
X564945Y587934D01*
X562565Y586948D01*
X560521Y585379D01*
X558952Y583335D01*
X557966Y580955D01*
X557630Y578400D01*
X557966Y575845D01*
X558952Y573465D01*
X560521Y571421D01*
X562565Y569852D01*
X564945Y568866D01*
X567500Y568530D01*
X572500D01*
X575055Y568866D01*
X577435Y569852D01*
X579479Y571421D01*
X581048Y573465D01*
X582034Y575845D01*
X582370Y578400D01*
X582034Y580955D01*
X581048Y583335D01*
X579479Y585379D01*
X577435Y586948D01*
X575055Y587934D01*
X572500Y588270D01*
D02*
G37*
G36*
X265000Y564889D02*
X262938Y564479D01*
X261189Y563311D01*
X260021Y561562D01*
X259611Y559500D01*
X260021Y557438D01*
X261189Y555689D01*
X262938Y554521D01*
X265000Y554110D01*
X267062Y554521D01*
X268811Y555689D01*
X269979Y557438D01*
X270390Y559500D01*
X269979Y561562D01*
X268811Y563311D01*
X267062Y564479D01*
X265000Y564889D01*
D02*
G37*
G36*
X375000Y562870D02*
X370000D01*
X367445Y562534D01*
X365065Y561548D01*
X363021Y559980D01*
X361452Y557935D01*
X360466Y555555D01*
X360130Y553000D01*
X360466Y550445D01*
X361452Y548065D01*
X363021Y546021D01*
X365065Y544452D01*
X367445Y543466D01*
X370000Y543130D01*
X375000D01*
X377555Y543466D01*
X379935Y544452D01*
X381979Y546021D01*
X383548Y548065D01*
X384534Y550445D01*
X384870Y553000D01*
X384534Y555555D01*
X383548Y557935D01*
X381979Y559980D01*
X379935Y561548D01*
X377555Y562534D01*
X375000Y562870D01*
D02*
G37*
G36*
X732800Y642196D02*
X696900D01*
X693562Y641757D01*
X690452Y640469D01*
X687781Y638419D01*
X685731Y635748D01*
X684443Y632638D01*
X684004Y629300D01*
X684443Y625962D01*
X685731Y622852D01*
X687781Y620181D01*
X690452Y618131D01*
X692490Y617287D01*
Y615913D01*
X690452Y615069D01*
X687781Y613019D01*
X685731Y610348D01*
X684443Y607238D01*
X684004Y603900D01*
X684443Y600562D01*
X685731Y597452D01*
X687781Y594781D01*
X690452Y592732D01*
X692490Y591887D01*
Y590513D01*
X690452Y589669D01*
X687781Y587619D01*
X685731Y584948D01*
X684443Y581838D01*
X684004Y578500D01*
X684443Y575162D01*
X685731Y572052D01*
X687781Y569381D01*
X690452Y567332D01*
X692490Y566487D01*
Y565113D01*
X690452Y564269D01*
X687781Y562219D01*
X685731Y559548D01*
X684443Y556438D01*
X684004Y553100D01*
X684443Y549762D01*
X685731Y546652D01*
X687781Y543981D01*
X690452Y541931D01*
X693562Y540643D01*
X696900Y540204D01*
X732800D01*
X736138Y540643D01*
X739248Y541931D01*
X741919Y543981D01*
X743969Y546652D01*
X745257Y549762D01*
X745696Y553100D01*
X745257Y556438D01*
X743969Y559548D01*
X741919Y562219D01*
X739248Y564269D01*
X737210Y565113D01*
Y566487D01*
X739248Y567332D01*
X741919Y569381D01*
X743969Y572052D01*
X745257Y575162D01*
X745696Y578500D01*
X745257Y581838D01*
X743969Y584948D01*
X741919Y587619D01*
X739248Y589669D01*
X737210Y590513D01*
Y591887D01*
X739248Y592732D01*
X741919Y594781D01*
X743969Y597452D01*
X745257Y600562D01*
X745696Y603900D01*
X745257Y607238D01*
X743969Y610348D01*
X741919Y613019D01*
X739248Y615069D01*
X737210Y615913D01*
Y617287D01*
X739248Y618131D01*
X740731Y619269D01*
X743000D01*
X743892Y619447D01*
X744648Y619952D01*
X745153Y620708D01*
X745331Y621600D01*
Y626523D01*
X745696Y629300D01*
X745331Y632077D01*
Y636600D01*
X745153Y637492D01*
X744648Y638248D01*
X743892Y638753D01*
X743000Y638931D01*
X741252D01*
X739248Y640469D01*
X736138Y641757D01*
X732800Y642196D01*
D02*
G37*
G36*
X572500Y562870D02*
X567500D01*
X564945Y562534D01*
X562565Y561548D01*
X560521Y559980D01*
X558952Y557935D01*
X557966Y555555D01*
X557630Y553000D01*
X557966Y550445D01*
X558952Y548065D01*
X560521Y546021D01*
X562565Y544452D01*
X564945Y543466D01*
X567500Y543130D01*
X572500D01*
X575055Y543466D01*
X577435Y544452D01*
X579479Y546021D01*
X581048Y548065D01*
X582034Y550445D01*
X582370Y553000D01*
X582034Y555555D01*
X581048Y557935D01*
X579479Y559980D01*
X577435Y561548D01*
X575055Y562534D01*
X572500Y562870D01*
D02*
G37*
%LPD*%
G36*
X701446Y661863D02*
X703260Y661112D01*
X704817Y659917D01*
X706012Y658360D01*
X706763Y656546D01*
X707020Y654600D01*
X706763Y652654D01*
X706012Y650840D01*
X704817Y649283D01*
X703260Y648088D01*
X701446Y647337D01*
X699347Y647060D01*
X694653D01*
X692554Y647337D01*
X690740Y648088D01*
X689183Y649283D01*
X687988Y650840D01*
X687237Y652654D01*
X686980Y654600D01*
X687237Y656546D01*
X687988Y658360D01*
X689183Y659917D01*
X690740Y661112D01*
X692554Y661863D01*
X694653Y662140D01*
X699347D01*
X701446Y661863D01*
D02*
G37*
%LPC*%
G36*
X1181150Y621390D02*
X1179088Y620979D01*
X1177339Y619811D01*
X1176171Y618063D01*
X1175760Y616000D01*
X1176171Y613937D01*
X1177339Y612189D01*
X1179088Y611021D01*
X1181150Y610610D01*
X1183213Y611021D01*
X1184961Y612189D01*
X1186129Y613937D01*
X1186540Y616000D01*
X1186129Y618063D01*
X1184961Y619811D01*
X1183213Y620979D01*
X1181150Y621390D01*
D02*
G37*
G36*
X1057000Y312390D02*
X1054938Y311979D01*
X1053189Y310811D01*
X1052206Y309339D01*
X1051771Y309241D01*
X1051229D01*
X1050794Y309339D01*
X1049811Y310811D01*
X1048063Y311979D01*
X1046000Y312390D01*
X1043938Y311979D01*
X1042189Y310811D01*
X1041021Y309062D01*
X1040610Y307000D01*
X1041021Y304937D01*
X1042189Y303189D01*
X1043661Y302206D01*
X1043759Y301771D01*
Y301229D01*
X1043661Y300794D01*
X1042189Y299811D01*
X1041021Y298062D01*
X1040610Y296000D01*
X1041021Y293937D01*
X1042189Y292189D01*
X1043938Y291021D01*
X1046000Y290610D01*
X1048063Y291021D01*
X1049811Y292189D01*
X1050794Y293661D01*
X1051229Y293759D01*
X1051771D01*
X1052206Y293661D01*
X1053189Y292189D01*
X1054938Y291021D01*
X1057000Y290610D01*
X1059062Y291021D01*
X1060811Y292189D01*
X1061979Y293937D01*
X1062390Y296000D01*
X1061979Y298062D01*
X1060811Y299811D01*
X1059339Y300794D01*
X1059241Y301229D01*
Y301771D01*
X1059339Y302206D01*
X1060811Y303189D01*
X1061979Y304937D01*
X1062390Y307000D01*
X1061979Y309062D01*
X1060811Y310811D01*
X1059062Y311979D01*
X1057000Y312390D01*
D02*
G37*
G36*
X862250Y742390D02*
X860188Y741979D01*
X858439Y740811D01*
X857271Y739062D01*
X856860Y737000D01*
X857271Y734938D01*
X858439Y733189D01*
X860188Y732021D01*
X862250Y731610D01*
X862774Y731715D01*
X880633Y713855D01*
Y656127D01*
X880890Y654839D01*
X881619Y653747D01*
X890247Y645119D01*
X891339Y644390D01*
X892627Y644133D01*
X981392D01*
X981689Y643689D01*
X983438Y642521D01*
X985500Y642111D01*
X987562Y642521D01*
X989311Y643689D01*
X990479Y645437D01*
X990890Y647500D01*
X990479Y649563D01*
X989311Y651311D01*
X987562Y652479D01*
X985500Y652890D01*
X983438Y652479D01*
X981689Y651311D01*
X981392Y650867D01*
X894022D01*
X887367Y657522D01*
Y715250D01*
X887110Y716538D01*
X886381Y717631D01*
X867535Y736476D01*
X867639Y737000D01*
X867229Y739062D01*
X866061Y740811D01*
X864313Y741979D01*
X862250Y742390D01*
D02*
G37*
G36*
Y691390D02*
X860188Y690979D01*
X858439Y689811D01*
X857271Y688063D01*
X856860Y686000D01*
X857271Y683938D01*
X858439Y682189D01*
X860188Y681021D01*
X862250Y680611D01*
X864313Y681021D01*
X866061Y682189D01*
X867229Y683938D01*
X867639Y686000D01*
X867229Y688063D01*
X866061Y689811D01*
X864313Y690979D01*
X862250Y691390D01*
D02*
G37*
G36*
X329500Y692270D02*
X324500D01*
X321945Y691934D01*
X319565Y690948D01*
X317521Y689380D01*
X315952Y687335D01*
X314966Y684955D01*
X314940Y684762D01*
X313659D01*
X313634Y684955D01*
X312648Y687335D01*
X311080Y689380D01*
X309035Y690948D01*
X306655Y691934D01*
X304100Y692270D01*
X299100D01*
X296545Y691934D01*
X294165Y690948D01*
X292120Y689380D01*
X290552Y687335D01*
X289566Y684955D01*
X289230Y682400D01*
X289566Y679845D01*
X290552Y677465D01*
X292120Y675421D01*
X294165Y673852D01*
X296545Y672866D01*
X299100Y672530D01*
X304100D01*
X306655Y672866D01*
X309035Y673852D01*
X311080Y675421D01*
X312648Y677465D01*
X313634Y679845D01*
X313659Y680038D01*
X314940D01*
X314966Y679845D01*
X315952Y677465D01*
X317521Y675421D01*
X319565Y673852D01*
X321945Y672866D01*
X324500Y672530D01*
X329500D01*
X332055Y672866D01*
X334435Y673852D01*
X336479Y675421D01*
X338048Y677465D01*
X339034Y679845D01*
X339370Y682400D01*
X339034Y684955D01*
X338048Y687335D01*
X336479Y689380D01*
X334435Y690948D01*
X332055Y691934D01*
X329500Y692270D01*
D02*
G37*
G36*
X708000Y770971D02*
X705445Y770634D01*
X703065Y769648D01*
X701021Y768080D01*
X699452Y766035D01*
X698466Y763655D01*
X698130Y761100D01*
Y756100D01*
X698466Y753545D01*
X699452Y751165D01*
X701021Y749120D01*
X703065Y747552D01*
X705445Y746566D01*
X708000Y746229D01*
X710555Y746566D01*
X712935Y747552D01*
X714979Y749120D01*
X716548Y751165D01*
X717534Y753545D01*
X717870Y756100D01*
Y761100D01*
X717534Y763655D01*
X716548Y766035D01*
X714979Y768080D01*
X712935Y769648D01*
X710555Y770634D01*
X708000Y770971D01*
D02*
G37*
G36*
X682600D02*
X680045Y770634D01*
X677665Y769648D01*
X675620Y768080D01*
X674052Y766035D01*
X673066Y763655D01*
X672730Y761100D01*
Y756100D01*
X673066Y753545D01*
X674052Y751165D01*
X675620Y749120D01*
X677665Y747552D01*
X680045Y746566D01*
X682600Y746229D01*
X685155Y746566D01*
X687535Y747552D01*
X689579Y749120D01*
X691148Y751165D01*
X692134Y753545D01*
X692470Y756100D01*
Y761100D01*
X692134Y763655D01*
X691148Y766035D01*
X689579Y768080D01*
X687535Y769648D01*
X685155Y770634D01*
X682600Y770971D01*
D02*
G37*
G36*
X733400D02*
X730845Y770634D01*
X728465Y769648D01*
X726421Y768080D01*
X724852Y766035D01*
X723866Y763655D01*
X723530Y761100D01*
Y756100D01*
X723866Y753545D01*
X724852Y751165D01*
X726421Y749120D01*
X728465Y747552D01*
X730845Y746566D01*
X733400Y746229D01*
X735955Y746566D01*
X738335Y747552D01*
X740379Y749120D01*
X741948Y751165D01*
X742934Y753545D01*
X743270Y756100D01*
Y761100D01*
X742934Y763655D01*
X741948Y766035D01*
X740379Y768080D01*
X738335Y769648D01*
X735955Y770634D01*
X733400Y770971D01*
D02*
G37*
G36*
X588500Y770931D02*
X573500D01*
X572608Y770753D01*
X571852Y770248D01*
X571347Y769492D01*
X571169Y768600D01*
Y748600D01*
X571347Y747708D01*
X571852Y746952D01*
X572608Y746447D01*
X573500Y746269D01*
X588500D01*
X589392Y746447D01*
X590148Y746952D01*
X590653Y747708D01*
X590831Y748600D01*
Y768600D01*
X590653Y769492D01*
X590148Y770248D01*
X589392Y770753D01*
X588500Y770931D01*
D02*
G37*
G36*
X758800Y770971D02*
X756245Y770634D01*
X753865Y769648D01*
X751821Y768080D01*
X750252Y766035D01*
X749266Y763655D01*
X748930Y761100D01*
Y756100D01*
X749266Y753545D01*
X750252Y751165D01*
X751821Y749120D01*
X753865Y747552D01*
X756245Y746566D01*
X758800Y746229D01*
X761355Y746566D01*
X763735Y747552D01*
X765779Y749120D01*
X767348Y751165D01*
X768334Y753545D01*
X768670Y756100D01*
Y761100D01*
X768334Y763655D01*
X767348Y766035D01*
X765779Y768080D01*
X763735Y769648D01*
X761355Y770634D01*
X758800Y770971D01*
D02*
G37*
G36*
X606400D02*
X603845Y770634D01*
X601465Y769648D01*
X599421Y768080D01*
X597852Y766035D01*
X596866Y763655D01*
X596530Y761100D01*
Y756100D01*
X596866Y753545D01*
X597852Y751165D01*
X599421Y749120D01*
X601465Y747552D01*
X603845Y746566D01*
X606400Y746229D01*
X608955Y746566D01*
X611335Y747552D01*
X613380Y749120D01*
X614948Y751165D01*
X615934Y753545D01*
X616270Y756100D01*
Y761100D01*
X615934Y763655D01*
X614948Y766035D01*
X613380Y768080D01*
X611335Y769648D01*
X608955Y770634D01*
X606400Y770971D01*
D02*
G37*
G36*
X657200D02*
X654645Y770634D01*
X652265Y769648D01*
X650220Y768080D01*
X648652Y766035D01*
X647666Y763655D01*
X647330Y761100D01*
Y756100D01*
X647666Y753545D01*
X648652Y751165D01*
X650220Y749120D01*
X652265Y747552D01*
X654645Y746566D01*
X657200Y746229D01*
X659755Y746566D01*
X662135Y747552D01*
X664180Y749120D01*
X665748Y751165D01*
X666734Y753545D01*
X667070Y756100D01*
Y761100D01*
X666734Y763655D01*
X665748Y766035D01*
X664180Y768080D01*
X662135Y769648D01*
X659755Y770634D01*
X657200Y770971D01*
D02*
G37*
G36*
X631800D02*
X629245Y770634D01*
X626865Y769648D01*
X624821Y768080D01*
X623252Y766035D01*
X622266Y763655D01*
X621930Y761100D01*
Y756100D01*
X622266Y753545D01*
X623252Y751165D01*
X624821Y749120D01*
X626865Y747552D01*
X629245Y746566D01*
X631800Y746229D01*
X634355Y746566D01*
X636735Y747552D01*
X638779Y749120D01*
X640348Y751165D01*
X641334Y753545D01*
X641670Y756100D01*
Y761100D01*
X641334Y763655D01*
X640348Y766035D01*
X638779Y768080D01*
X636735Y769648D01*
X634355Y770634D01*
X631800Y770971D01*
D02*
G37*
G36*
X1181150Y468890D02*
X1179088Y468479D01*
X1177339Y467311D01*
X1176171Y465563D01*
X1175760Y463500D01*
X1176171Y461437D01*
X1177339Y459689D01*
X1179088Y458521D01*
X1181150Y458110D01*
X1183213Y458521D01*
X1184961Y459689D01*
X1186129Y461437D01*
X1186540Y463500D01*
X1186129Y465563D01*
X1184961Y467311D01*
X1183213Y468479D01*
X1181150Y468890D01*
D02*
G37*
G36*
X747500Y702371D02*
X744945Y702034D01*
X742565Y701048D01*
X740520Y699480D01*
X738952Y697435D01*
X737966Y695055D01*
X737630Y692500D01*
X737966Y689945D01*
X738952Y687565D01*
X740520Y685520D01*
X742565Y683952D01*
X744945Y682966D01*
X747500Y682630D01*
X750055Y682966D01*
X752435Y683952D01*
X754480Y685520D01*
X756048Y687565D01*
X757034Y689945D01*
X757370Y692500D01*
X757034Y695055D01*
X756048Y697435D01*
X754480Y699480D01*
X752435Y701048D01*
X750055Y702034D01*
X747500Y702371D01*
D02*
G37*
G36*
X658000Y730389D02*
X655938Y729979D01*
X654189Y728811D01*
X653021Y727063D01*
X652610Y725000D01*
X653021Y722937D01*
X654189Y721189D01*
X655938Y720021D01*
X658000Y719610D01*
X660062Y720021D01*
X661811Y721189D01*
X662979Y722937D01*
X663390Y725000D01*
X662979Y727063D01*
X661811Y728811D01*
X660062Y729979D01*
X658000Y730389D01*
D02*
G37*
%LPD*%
G36*
X749446Y699763D02*
X751260Y699012D01*
X752817Y697817D01*
X754012Y696260D01*
X754763Y694446D01*
X755020Y692500D01*
X754763Y690554D01*
X754012Y688740D01*
X752817Y687183D01*
X751260Y685988D01*
X749446Y685237D01*
X747500Y684980D01*
X745554Y685237D01*
X743740Y685988D01*
X742183Y687183D01*
X740988Y688740D01*
X740237Y690554D01*
X739980Y692500D01*
X740237Y694446D01*
X740988Y696260D01*
X742183Y697817D01*
X743740Y699012D01*
X745554Y699763D01*
X747500Y700020D01*
X749446Y699763D01*
D02*
G37*
D22*
X499500Y629200D02*
X534900D01*
X499400Y603900D02*
X534800D01*
X499400Y578500D02*
X534800D01*
X499400Y553100D02*
X534800D01*
X696900Y629300D02*
X732800D01*
X696900Y603900D02*
X732800D01*
X696900Y578500D02*
X732800D01*
X696900Y553100D02*
X732800D01*
X499400Y414300D02*
X534800D01*
X499400Y388900D02*
X534800D01*
X499400Y363500D02*
X534800D01*
X499400Y338100D02*
X534800D01*
X696900Y414300D02*
X732800D01*
X696900Y388900D02*
X732800D01*
X696900Y363500D02*
X732800D01*
X696900Y338100D02*
X732800D01*
D23*
X697000Y464599D02*
Y465000D01*
X779599Y464599D02*
X797500Y482500D01*
X697000Y464599D02*
X779599D01*
D24*
X327000Y580800D02*
X353000Y554800D01*
Y502000D02*
Y554800D01*
Y502000D02*
X367000Y488000D01*
X555800D01*
X570000Y502200D01*
X574000Y484000D02*
X614000Y524000D01*
X327000Y504600D02*
X351600Y480000D01*
X616000D01*
X653000Y517000D01*
Y597000D01*
X570000Y680000D02*
X653000Y597000D01*
X327000Y530000D02*
X345000Y512000D01*
Y498000D02*
Y512000D01*
Y498000D02*
X359000Y484000D01*
X574000D01*
X421000Y274000D02*
X451000Y304000D01*
Y420000D01*
X327000Y301400D02*
X335600D01*
X363000Y274000D01*
X421000D01*
X372500Y439600D02*
X408900Y476000D01*
X582000D01*
X570000Y439600D02*
X587000Y456600D01*
Y471000D01*
X582000Y476000D02*
X587000Y471000D01*
X557000Y452000D02*
X570000Y465000D01*
X451000Y420000D02*
X483000Y452000D01*
X557000D01*
X372500Y629200D02*
X408617Y665317D01*
X533883D01*
X570000Y629200D01*
X372500Y654600D02*
X386900Y669000D01*
X555600D01*
X570000Y654600D01*
X301600Y301400D02*
X315000Y288000D01*
X586000Y265000D02*
X620000Y299000D01*
X362000Y265000D02*
X586000D01*
X315000Y288000D02*
X339000D01*
X362000Y265000D01*
X570000Y603800D02*
X595200D01*
X614000Y585000D01*
Y524000D02*
Y585000D01*
X862250Y737000D02*
X884000Y715250D01*
Y656127D02*
Y715250D01*
Y656127D02*
X892627Y647500D01*
X985500D01*
X620000Y299000D02*
X873000D01*
X911000Y337000D01*
X935000D01*
D25*
X1187500Y727500D02*
D03*
Y575000D02*
D03*
X1237500D02*
D03*
X747500Y692500D02*
D03*
X797500D02*
D03*
Y482500D02*
D03*
X1237500Y425000D02*
D03*
X1187500D02*
D03*
D26*
X705000Y720000D02*
D03*
X790000Y762500D02*
D03*
D27*
X1253000Y675000D02*
D03*
Y627000D02*
D03*
Y523000D02*
D03*
Y477000D02*
D03*
X1200000Y325000D02*
D03*
Y270000D02*
D03*
D30*
X327000Y276000D02*
D03*
X570000Y680000D02*
D03*
Y465000D02*
D03*
X733000Y629100D02*
D03*
X535000D02*
D03*
X733000Y414100D02*
D03*
X535000D02*
D03*
D31*
X327000Y301400D02*
D03*
Y504600D02*
D03*
Y530000D02*
D03*
Y580800D02*
D03*
Y707800D02*
D03*
X301600Y276000D02*
D03*
Y301400D02*
D03*
Y707800D02*
D03*
X499500Y527600D02*
D03*
Y680000D02*
D03*
Y654600D02*
D03*
Y629200D02*
D03*
Y603800D02*
D03*
Y578400D02*
D03*
Y553000D02*
D03*
X372500Y629200D02*
D03*
Y654600D02*
D03*
Y439600D02*
D03*
X499500Y338000D02*
D03*
Y363400D02*
D03*
Y388800D02*
D03*
Y414200D02*
D03*
Y312600D02*
D03*
X570000Y502200D02*
D03*
Y654600D02*
D03*
Y629200D02*
D03*
Y603800D02*
D03*
X697000Y553000D02*
D03*
Y578400D02*
D03*
Y603800D02*
D03*
Y629200D02*
D03*
Y654600D02*
D03*
Y680000D02*
D03*
Y527600D02*
D03*
Y312600D02*
D03*
Y465000D02*
D03*
Y414200D02*
D03*
Y388800D02*
D03*
Y363400D02*
D03*
Y338000D02*
D03*
X570000Y439600D02*
D03*
X733000Y552900D02*
D03*
Y578300D02*
D03*
Y603700D02*
D03*
X535000Y552900D02*
D03*
Y578300D02*
D03*
Y603700D02*
D03*
X733000Y337900D02*
D03*
Y363300D02*
D03*
Y388700D02*
D03*
X535000Y337900D02*
D03*
Y363300D02*
D03*
Y388700D02*
D03*
D32*
X385000Y744250D02*
D03*
X935000Y337000D02*
D03*
X862250Y737000D02*
D03*
X985500Y647500D02*
D03*
X949000Y740000D02*
D03*
Y729000D02*
D03*
Y718000D02*
D03*
X960000D02*
D03*
Y729000D02*
D03*
Y740000D02*
D03*
X949000Y600000D02*
D03*
Y556000D02*
D03*
X960000D02*
D03*
Y578000D02*
D03*
Y600000D02*
D03*
X1039000Y429000D02*
D03*
X1045000D02*
D03*
X598000Y609500D02*
D03*
X960000Y589000D02*
D03*
X949000D02*
D03*
Y567000D02*
D03*
Y578000D02*
D03*
X960000Y567000D02*
D03*
Y696000D02*
D03*
X949000D02*
D03*
X960000Y707000D02*
D03*
X949000D02*
D03*
X960000Y685000D02*
D03*
X949000D02*
D03*
X1002000Y272000D02*
D03*
Y283000D02*
D03*
X991000D02*
D03*
Y272000D02*
D03*
X1126000Y288000D02*
D03*
Y299000D02*
D03*
X1115000D02*
D03*
Y288000D02*
D03*
X1056000Y459000D02*
D03*
Y470000D02*
D03*
X1045000D02*
D03*
Y459000D02*
D03*
X1126000D02*
D03*
Y470000D02*
D03*
X1115000D02*
D03*
Y459000D02*
D03*
X1056000Y640000D02*
D03*
X1045000D02*
D03*
X1126000D02*
D03*
X1115000D02*
D03*
X1126000Y629000D02*
D03*
X1115000D02*
D03*
X1056000D02*
D03*
X1045000D02*
D03*
X561000Y772000D02*
D03*
X606000Y777000D02*
D03*
X797500Y530000D02*
D03*
X862250Y516000D02*
D03*
X843000Y769000D02*
D03*
X883000D02*
D03*
X873000D02*
D03*
X853000D02*
D03*
X863000D02*
D03*
X863000Y594000D02*
D03*
X853000D02*
D03*
X873000D02*
D03*
X883000D02*
D03*
X843000D02*
D03*
X833000Y769000D02*
D03*
Y594000D02*
D03*
X823000D02*
D03*
X893000Y769000D02*
D03*
X1200000Y527000D02*
D03*
Y507000D02*
D03*
Y517000D02*
D03*
Y681000D02*
D03*
Y661000D02*
D03*
Y671000D02*
D03*
X1164000Y357000D02*
D03*
X1184000D02*
D03*
X1174000D02*
D03*
D33*
X797500Y530000D02*
X848250D01*
X862250Y516000D01*
M02*
