G04 Layer_Color=16711935*
%FSLAX44Y44*%
%MOMM*%
G71*
G01*
G75*
%ADD42C,0.2000*%
%ADD70C,0.1000*%
%ADD71C,0.1500*%
D42*
X1203175Y340000D02*
G03*
X1196825Y340000I-3175J0D01*
G01*
X1157500Y486825D02*
G03*
X1157500Y493175I0J3175D01*
G01*
Y639325D02*
G03*
X1157500Y645675I0J3175D01*
G01*
X586500Y333000D02*
X608500D01*
Y367000D01*
X586500D02*
X608500D01*
X586500Y333000D02*
Y367000D01*
X389000Y548000D02*
X411000D01*
Y582000D01*
X389000D02*
X411000D01*
X389000Y548000D02*
Y582000D01*
Y333000D02*
X411000D01*
Y367000D01*
X389000D02*
X411000D01*
X389000Y333000D02*
Y367000D01*
X1014500Y311500D02*
Y333500D01*
X980500Y311500D02*
X1014500D01*
X980500D02*
Y333500D01*
X1014500D01*
X392000Y709000D02*
Y731000D01*
X358000Y709000D02*
X392000D01*
X358000D02*
Y731000D01*
X392000D01*
X393000Y709000D02*
Y731000D01*
Y709000D02*
X427000D01*
Y731000D01*
X393000D02*
X427000D01*
X254000Y375500D02*
X276000D01*
X254000D02*
Y409500D01*
X276000D01*
Y375500D02*
Y409500D01*
X254000Y320500D02*
X276000D01*
X254000D02*
Y354500D01*
X276000D01*
Y320500D02*
Y354500D01*
X469000Y745500D02*
X491000D01*
X469000D02*
Y779500D01*
X491000D01*
Y745500D02*
Y779500D01*
X491500Y745500D02*
X513500D01*
X491500D02*
Y779500D01*
X513500D01*
Y745500D02*
Y779500D01*
X518000Y759000D02*
Y781000D01*
X552000D01*
Y759000D02*
Y781000D01*
X518000Y759000D02*
X552000D01*
Y736500D02*
Y758500D01*
X518000Y736500D02*
X552000D01*
X518000D02*
Y758500D01*
X552000D01*
X518000Y714000D02*
Y736000D01*
X552000D01*
Y714000D02*
Y736000D01*
X518000Y714000D02*
X552000D01*
X809000Y779500D02*
X831000D01*
X809000Y745500D02*
Y779500D01*
Y745500D02*
X831000D01*
Y779500D01*
X897000Y636500D02*
Y658500D01*
X863000D02*
X897000D01*
X863000Y636500D02*
Y658500D01*
Y636500D02*
X897000D01*
X809000Y592000D02*
X831000D01*
X809000Y558000D02*
Y592000D01*
Y558000D02*
X831000D01*
Y592000D01*
X809000Y557000D02*
X831000D01*
X809000Y523000D02*
Y557000D01*
Y523000D02*
X831000D01*
Y557000D01*
X858000Y444000D02*
Y466000D01*
Y444000D02*
X892000D01*
Y466000D01*
X858000D02*
X892000D01*
X858000Y466500D02*
Y488500D01*
Y466500D02*
X892000D01*
Y488500D01*
X858000D02*
X892000D01*
X978000Y636500D02*
Y658500D01*
Y636500D02*
X1012000D01*
Y658500D01*
X978000D02*
X1012000D01*
X978000Y614000D02*
Y636000D01*
Y614000D02*
X1012000D01*
Y636000D01*
X978000D02*
X1012000D01*
X892000Y309000D02*
Y331000D01*
X858000D02*
X892000D01*
X858000Y309000D02*
Y331000D01*
Y309000D02*
X892000D01*
X518000Y691500D02*
Y713500D01*
X552000D01*
Y691500D02*
Y713500D01*
X518000Y691500D02*
X552000D01*
X518000Y646500D02*
Y668500D01*
X552000D01*
Y646500D02*
Y668500D01*
X518000Y646500D02*
X552000D01*
Y669000D02*
Y691000D01*
X518000Y669000D02*
X552000D01*
X518000D02*
Y691000D01*
X552000D01*
X650500Y714000D02*
Y736000D01*
X684500D01*
Y714000D02*
Y736000D01*
X650500Y714000D02*
X684500D01*
Y691500D02*
Y713500D01*
X650500Y691500D02*
X684500D01*
X650500D02*
Y713500D01*
X684500D01*
X650500Y669000D02*
Y691000D01*
X684500D01*
Y669000D02*
Y691000D01*
X650500Y669000D02*
X684500D01*
X755500Y630000D02*
Y670000D01*
X809500D01*
Y630000D02*
Y670000D01*
X755500Y630000D02*
X809500D01*
X755500Y590000D02*
Y630000D01*
X809500D01*
Y590000D02*
Y630000D01*
X755500Y590000D02*
X809500D01*
X755500Y550000D02*
Y590000D01*
X809500D01*
Y550000D02*
Y590000D01*
X755500Y550000D02*
X809500D01*
X755500Y510000D02*
Y550000D01*
X809500D01*
Y510000D02*
Y550000D01*
X755500Y510000D02*
X809500D01*
X758000Y425000D02*
Y465000D01*
X812000D01*
Y425000D02*
Y465000D01*
X758000Y425000D02*
X812000D01*
X758000Y385000D02*
Y425000D01*
X812000D01*
Y385000D02*
Y425000D01*
X758000Y385000D02*
X812000D01*
X758000Y345000D02*
Y385000D01*
X812000D01*
Y345000D02*
Y385000D01*
X758000Y345000D02*
X812000D01*
X758000Y305000D02*
Y345000D01*
X812000D01*
Y305000D02*
Y345000D01*
X758000Y305000D02*
X812000D01*
X993000Y466500D02*
Y488500D01*
X1027000D01*
Y466500D02*
Y488500D01*
X993000Y466500D02*
X1027000D01*
X993000Y444000D02*
Y466000D01*
X1027000D01*
Y444000D02*
Y466000D01*
X993000Y444000D02*
X1027000D01*
X993000Y421500D02*
Y443500D01*
X1027000D01*
Y421500D02*
Y443500D01*
X993000Y421500D02*
X1027000D01*
X1031000Y456000D02*
X1053000D01*
X1031000Y422000D02*
Y456000D01*
Y422000D02*
X1053000D01*
Y456000D01*
X1159000Y273000D02*
X1181000D01*
X1159000D02*
Y307000D01*
X1181000D01*
Y273000D02*
Y307000D01*
X1103000Y320000D02*
Y360000D01*
X1157000D01*
Y320000D02*
Y360000D01*
X1103000Y320000D02*
X1157000D01*
X1103000Y360000D02*
Y400000D01*
X1157000D01*
Y360000D02*
Y400000D01*
X1103000Y360000D02*
X1157000D01*
X1103000Y400000D02*
Y440000D01*
X1157000D01*
Y400000D02*
Y440000D01*
X1103000Y400000D02*
X1157000D01*
X254000Y553000D02*
X276000D01*
X254000D02*
Y587000D01*
X276000D01*
Y553000D02*
Y587000D01*
X254000Y608000D02*
X276000D01*
X254000D02*
Y642000D01*
X276000D01*
Y608000D02*
Y642000D01*
X1103000Y490000D02*
Y530000D01*
X1157000D01*
Y490000D02*
Y530000D01*
X1103000Y490000D02*
X1157000D01*
X1103000Y530000D02*
Y570000D01*
X1157000D01*
Y530000D02*
Y570000D01*
X1103000Y530000D02*
X1157000D01*
X1103000Y570000D02*
Y610000D01*
X1157000D01*
Y570000D02*
Y610000D01*
X1103000Y570000D02*
X1157000D01*
X1103000Y660000D02*
Y700000D01*
X1157000D01*
Y660000D02*
Y700000D01*
X1103000Y660000D02*
X1157000D01*
X1103000Y700000D02*
Y740000D01*
X1157000D01*
Y700000D02*
Y740000D01*
X1103000Y700000D02*
X1157000D01*
X1103000Y740000D02*
Y780000D01*
X1157000D01*
Y740000D02*
Y780000D01*
X1103000Y740000D02*
X1157000D01*
X587000Y548000D02*
X609000D01*
Y582000D01*
X587000D02*
X609000D01*
X587000Y548000D02*
Y582000D01*
X254000Y389500D02*
X276000D01*
Y355500D02*
Y389500D01*
X254000Y355500D02*
X276000D01*
X254000D02*
Y389500D01*
Y334500D02*
X276000D01*
Y300500D02*
Y334500D01*
X254000Y300500D02*
X276000D01*
X254000D02*
Y334500D01*
Y567000D02*
X276000D01*
Y533000D02*
Y567000D01*
X254000Y533000D02*
X276000D01*
X254000D02*
Y567000D01*
Y622000D02*
X276000D01*
Y588000D02*
Y622000D01*
X254000Y588000D02*
X276000D01*
X254000D02*
Y622000D01*
X1159000Y287000D02*
X1181000D01*
Y253000D02*
Y287000D01*
X1159000Y253000D02*
X1181000D01*
X1159000D02*
Y287000D01*
X587000Y583000D02*
X609000D01*
Y617000D01*
X587000D02*
X609000D01*
X587000Y583000D02*
Y617000D01*
X1157500Y340000D02*
Y400000D01*
X1242500D01*
Y340000D02*
Y400000D01*
X1203175Y340000D02*
X1242500D01*
X1157500D02*
X1196825D01*
X1157500Y532500D02*
X1217500D01*
Y447500D02*
Y532500D01*
X1157500Y447500D02*
X1217500D01*
X1157500D02*
Y486825D01*
Y493175D02*
Y532500D01*
Y685000D02*
X1217500D01*
Y600000D02*
Y685000D01*
X1157500Y600000D02*
X1217500D01*
X1157500D02*
Y639325D01*
Y645675D02*
Y685000D01*
X602500Y338000D02*
X594503D01*
Y341999D01*
X595835Y343332D01*
X598501D01*
X599834Y341999D01*
Y338000D01*
Y340666D02*
X602500Y343332D01*
Y345997D02*
Y348663D01*
Y347330D01*
X594503D01*
X595835Y345997D01*
X594503Y357994D02*
X595835Y355328D01*
X598501Y352662D01*
X601167D01*
X602500Y353995D01*
Y356661D01*
X601167Y357994D01*
X599834D01*
X598501Y356661D01*
Y352662D01*
X405000Y553000D02*
X397003D01*
Y556999D01*
X398335Y558332D01*
X401001D01*
X402334Y556999D01*
Y553000D01*
Y555666D02*
X405000Y558332D01*
Y560997D02*
Y563663D01*
Y562330D01*
X397003D01*
X398335Y560997D01*
X397003Y572994D02*
Y567662D01*
X401001D01*
X399668Y570328D01*
Y571661D01*
X401001Y572994D01*
X403667D01*
X405000Y571661D01*
Y568995D01*
X403667Y567662D01*
X405000Y338000D02*
X397003D01*
Y341999D01*
X398335Y343332D01*
X401001D01*
X402334Y341999D01*
Y338000D01*
Y340666D02*
X405000Y343332D01*
Y345997D02*
Y348663D01*
Y347330D01*
X397003D01*
X398335Y345997D01*
X405000Y357994D02*
Y352662D01*
X399668Y357994D01*
X398335D01*
X397003Y356661D01*
Y353995D01*
X398335Y352662D01*
X1009500Y317500D02*
Y325497D01*
X1005501D01*
X1004168Y324165D01*
Y321499D01*
X1005501Y320166D01*
X1009500D01*
X1006834D02*
X1004168Y317500D01*
X996171D02*
X1001503D01*
X996171Y322832D01*
Y324165D01*
X997504Y325497D01*
X1000170D01*
X1001503Y324165D01*
X993505D02*
X992172Y325497D01*
X989507D01*
X988174Y324165D01*
Y318833D01*
X989507Y317500D01*
X992172D01*
X993505Y318833D01*
Y324165D01*
X398000Y715000D02*
Y722997D01*
X401999D01*
X403332Y721665D01*
Y718999D01*
X401999Y717666D01*
X398000D01*
X400666D02*
X403332Y715000D01*
X405997D02*
X408663D01*
X407330D01*
Y722997D01*
X405997Y721665D01*
X412662Y722997D02*
X417994D01*
Y721665D01*
X412662Y716333D01*
Y715000D01*
X260000Y380500D02*
X267997D01*
Y384499D01*
X266665Y385832D01*
X263999D01*
X262666Y384499D01*
Y380500D01*
Y383166D02*
X260000Y385832D01*
Y388497D02*
Y391163D01*
Y389830D01*
X267997D01*
X266665Y388497D01*
Y395162D02*
X267997Y396495D01*
Y399161D01*
X266665Y400494D01*
X265332D01*
X263999Y399161D01*
Y397828D01*
Y399161D01*
X262666Y400494D01*
X261333D01*
X260000Y399161D01*
Y396495D01*
X261333Y395162D01*
X260000Y325500D02*
X267997D01*
Y329499D01*
X266665Y330832D01*
X263999D01*
X262666Y329499D01*
Y325500D01*
Y328166D02*
X260000Y330832D01*
Y333497D02*
Y336163D01*
Y334830D01*
X267997D01*
X266665Y333497D01*
X260000Y344161D02*
X267997D01*
X263999Y340162D01*
Y345494D01*
X481665Y755832D02*
X482998Y754499D01*
Y751833D01*
X481665Y750500D01*
X476333D01*
X475000Y751833D01*
Y754499D01*
X476333Y755832D01*
X482998Y758497D02*
Y763829D01*
X481665D01*
X476333Y758497D01*
X475000D01*
X497500Y750500D02*
X505497D01*
Y754499D01*
X504165Y755832D01*
X501499D01*
X500166Y754499D01*
Y750500D01*
Y753166D02*
X497500Y755832D01*
X505497Y758497D02*
Y763829D01*
X504165D01*
X498833Y758497D01*
X497500D01*
X528332Y768335D02*
X526999Y767002D01*
X524333D01*
X523000Y768335D01*
Y773667D01*
X524333Y775000D01*
X526999D01*
X528332Y773667D01*
X536329Y767002D02*
X530997D01*
Y771001D01*
X533663Y769668D01*
X534996D01*
X536329Y771001D01*
Y773667D01*
X534996Y775000D01*
X532330D01*
X530997Y773667D01*
X547000Y742500D02*
Y750497D01*
X543001D01*
X541668Y749165D01*
Y746499D01*
X543001Y745166D01*
X547000D01*
X544334D02*
X541668Y742500D01*
X539003Y749165D02*
X537670Y750497D01*
X535004D01*
X533671Y749165D01*
Y747832D01*
X535004Y746499D01*
X536337D01*
X535004D01*
X533671Y745166D01*
Y743833D01*
X535004Y742500D01*
X537670D01*
X539003Y743833D01*
X523000Y730000D02*
Y722003D01*
X526999D01*
X528332Y723335D01*
Y726001D01*
X526999Y727334D01*
X523000D01*
X525666D02*
X528332Y730000D01*
X534996D02*
Y722003D01*
X530997Y726001D01*
X536329D01*
X815000Y774500D02*
X822997D01*
Y770501D01*
X821665Y769168D01*
X818999D01*
X817666Y770501D01*
Y774500D01*
Y771834D02*
X815000Y769168D01*
Y761171D02*
Y766503D01*
X820332Y761171D01*
X821665D01*
X822997Y762504D01*
Y765170D01*
X821665Y766503D01*
Y758505D02*
X822997Y757172D01*
Y754506D01*
X821665Y753174D01*
X820332D01*
X818999Y754506D01*
Y755839D01*
Y754506D01*
X817666Y753174D01*
X816333D01*
X815000Y754506D01*
Y757172D01*
X816333Y758505D01*
X886668Y645835D02*
X888001Y644503D01*
X890667D01*
X892000Y645835D01*
Y651167D01*
X890667Y652500D01*
X888001D01*
X886668Y651167D01*
X884003Y652500D02*
X881337D01*
X882670D01*
Y644503D01*
X884003Y645835D01*
X872006Y644503D02*
X877338D01*
Y648501D01*
X874672Y647168D01*
X873339D01*
X872006Y648501D01*
Y651167D01*
X873339Y652500D01*
X876005D01*
X877338Y651167D01*
X815000Y587000D02*
X822997D01*
Y583001D01*
X821665Y581668D01*
X818999D01*
X817666Y583001D01*
Y587000D01*
Y584334D02*
X815000Y581668D01*
Y573671D02*
Y579003D01*
X820332Y573671D01*
X821665D01*
X822997Y575004D01*
Y577670D01*
X821665Y579003D01*
X815000Y567006D02*
X822997D01*
X818999Y571005D01*
Y565673D01*
X821665Y546668D02*
X822997Y548001D01*
Y550667D01*
X821665Y552000D01*
X816333D01*
X815000Y550667D01*
Y548001D01*
X816333Y546668D01*
X815000Y544003D02*
Y541337D01*
Y542670D01*
X822997D01*
X821665Y544003D01*
X822997Y532006D02*
X821665Y534672D01*
X818999Y537338D01*
X816333D01*
X815000Y536005D01*
Y533339D01*
X816333Y532006D01*
X817666D01*
X818999Y533339D01*
Y537338D01*
X868332Y456665D02*
X866999Y457997D01*
X864333D01*
X863000Y456665D01*
Y451333D01*
X864333Y450000D01*
X866999D01*
X868332Y451333D01*
X874996Y450000D02*
Y457997D01*
X870997Y453999D01*
X876329D01*
X878995Y456665D02*
X880328Y457997D01*
X882994D01*
X884326Y456665D01*
Y451333D01*
X882994Y450000D01*
X880328D01*
X878995Y451333D01*
Y456665D01*
X863000Y472500D02*
Y480497D01*
X866999D01*
X868332Y479165D01*
Y476499D01*
X866999Y475166D01*
X863000D01*
X865666D02*
X868332Y472500D01*
X876329D02*
X870997D01*
X876329Y477832D01*
Y479165D01*
X874996Y480497D01*
X872330D01*
X870997Y479165D01*
X884326Y472500D02*
X878995D01*
X884326Y477832D01*
Y479165D01*
X882994Y480497D01*
X880328D01*
X878995Y479165D01*
X983000Y642500D02*
Y650497D01*
X986999D01*
X988332Y649165D01*
Y646499D01*
X986999Y645166D01*
X983000D01*
X985666D02*
X988332Y642500D01*
X996329D02*
X990997D01*
X996329Y647832D01*
Y649165D01*
X994996Y650497D01*
X992330D01*
X990997Y649165D01*
X998995Y642500D02*
X1001661D01*
X1000328D01*
Y650497D01*
X998995Y649165D01*
X988332Y626665D02*
X986999Y627997D01*
X984333D01*
X983000Y626665D01*
Y621333D01*
X984333Y620000D01*
X986999D01*
X988332Y621333D01*
X990997Y626665D02*
X992330Y627997D01*
X994996D01*
X996329Y626665D01*
Y625332D01*
X994996Y623999D01*
X993663D01*
X994996D01*
X996329Y622666D01*
Y621333D01*
X994996Y620000D01*
X992330D01*
X990997Y621333D01*
X998995D02*
X1000328Y620000D01*
X1002993D01*
X1004326Y621333D01*
Y626665D01*
X1002993Y627997D01*
X1000328D01*
X998995Y626665D01*
Y625332D01*
X1000328Y623999D01*
X1004326D01*
X887000Y325000D02*
Y317003D01*
X883001D01*
X881668Y318335D01*
Y321001D01*
X883001Y322334D01*
X887000D01*
X884334D02*
X881668Y325000D01*
X879003D02*
X876337D01*
X877670D01*
Y317003D01*
X879003Y318335D01*
X872338Y323667D02*
X871005Y325000D01*
X868339D01*
X867006Y323667D01*
Y318335D01*
X868339Y317003D01*
X871005D01*
X872338Y318335D01*
Y319668D01*
X871005Y321001D01*
X867006D01*
X523000Y707500D02*
Y699503D01*
X526999D01*
X528332Y700835D01*
Y703501D01*
X526999Y704834D01*
X523000D01*
X525666D02*
X528332Y707500D01*
X536329Y699503D02*
X533663Y700835D01*
X530997Y703501D01*
Y706167D01*
X532330Y707500D01*
X534996D01*
X536329Y706167D01*
Y704834D01*
X534996Y703501D01*
X530997D01*
X528332Y655835D02*
X526999Y654503D01*
X524333D01*
X523000Y655835D01*
Y661167D01*
X524333Y662500D01*
X526999D01*
X528332Y661167D01*
X536329Y654503D02*
X533663Y655835D01*
X530997Y658501D01*
Y661167D01*
X532330Y662500D01*
X534996D01*
X536329Y661167D01*
Y659834D01*
X534996Y658501D01*
X530997D01*
X547000Y675000D02*
Y682997D01*
X543001D01*
X541668Y681665D01*
Y678999D01*
X543001Y677666D01*
X547000D01*
X544334D02*
X541668Y675000D01*
X533671Y682997D02*
X539003D01*
Y678999D01*
X536337Y680332D01*
X535004D01*
X533671Y678999D01*
Y676333D01*
X535004Y675000D01*
X537670D01*
X539003Y676333D01*
X655500Y730000D02*
Y722003D01*
X659499D01*
X660832Y723335D01*
Y726001D01*
X659499Y727334D01*
X655500D01*
X658166D02*
X660832Y730000D01*
X668829D02*
X663497D01*
X668829Y724668D01*
Y723335D01*
X667496Y722003D01*
X664830D01*
X663497Y723335D01*
X679500Y697500D02*
Y705497D01*
X675501D01*
X674168Y704165D01*
Y701499D01*
X675501Y700166D01*
X679500D01*
X676834D02*
X674168Y697500D01*
X671503D02*
X668837D01*
X670170D01*
Y705497D01*
X671503Y704165D01*
X660832Y678335D02*
X659499Y677003D01*
X656833D01*
X655500Y678335D01*
Y683667D01*
X656833Y685000D01*
X659499D01*
X660832Y683667D01*
X663497Y685000D02*
X666163D01*
X664830D01*
Y677003D01*
X663497Y678335D01*
X775832Y648335D02*
X774499Y647003D01*
X771833D01*
X770500Y648335D01*
Y653667D01*
X771833Y655000D01*
X774499D01*
X775832Y653667D01*
X778497Y648335D02*
X779830Y647003D01*
X782496D01*
X783829Y648335D01*
Y649668D01*
X782496Y651001D01*
X781163D01*
X782496D01*
X783829Y652334D01*
Y653667D01*
X782496Y655000D01*
X779830D01*
X778497Y653667D01*
X786495Y648335D02*
X787828Y647003D01*
X790494D01*
X791826Y648335D01*
Y653667D01*
X790494Y655000D01*
X787828D01*
X786495Y653667D01*
Y648335D01*
X775832Y608335D02*
X774499Y607003D01*
X771833D01*
X770500Y608335D01*
Y613667D01*
X771833Y615000D01*
X774499D01*
X775832Y613667D01*
X778497Y608335D02*
X779830Y607003D01*
X782496D01*
X783829Y608335D01*
Y609668D01*
X782496Y611001D01*
X781163D01*
X782496D01*
X783829Y612334D01*
Y613667D01*
X782496Y615000D01*
X779830D01*
X778497Y613667D01*
X786495Y615000D02*
X789161D01*
X787828D01*
Y607003D01*
X786495Y608335D01*
X775832Y568335D02*
X774499Y567003D01*
X771833D01*
X770500Y568335D01*
Y573667D01*
X771833Y575000D01*
X774499D01*
X775832Y573667D01*
X778497Y568335D02*
X779830Y567003D01*
X782496D01*
X783829Y568335D01*
Y569668D01*
X782496Y571001D01*
X781163D01*
X782496D01*
X783829Y572334D01*
Y573667D01*
X782496Y575000D01*
X779830D01*
X778497Y573667D01*
X791826Y575000D02*
X786495D01*
X791826Y569668D01*
Y568335D01*
X790494Y567003D01*
X787828D01*
X786495Y568335D01*
X775832Y528335D02*
X774499Y527003D01*
X771833D01*
X770500Y528335D01*
Y533667D01*
X771833Y535000D01*
X774499D01*
X775832Y533667D01*
X778497Y528335D02*
X779830Y527003D01*
X782496D01*
X783829Y528335D01*
Y529668D01*
X782496Y531001D01*
X781163D01*
X782496D01*
X783829Y532334D01*
Y533667D01*
X782496Y535000D01*
X779830D01*
X778497Y533667D01*
X786495Y528335D02*
X787828Y527003D01*
X790494D01*
X791826Y528335D01*
Y529668D01*
X790494Y531001D01*
X789161D01*
X790494D01*
X791826Y532334D01*
Y533667D01*
X790494Y535000D01*
X787828D01*
X786495Y533667D01*
X778332Y443335D02*
X776999Y442003D01*
X774333D01*
X773000Y443335D01*
Y448667D01*
X774333Y450000D01*
X776999D01*
X778332Y448667D01*
X780997Y450000D02*
X783663D01*
X782330D01*
Y442003D01*
X780997Y443335D01*
X791661Y450000D02*
Y442003D01*
X787662Y446001D01*
X792994D01*
X778332Y403335D02*
X776999Y402003D01*
X774333D01*
X773000Y403335D01*
Y408667D01*
X774333Y410000D01*
X776999D01*
X778332Y408667D01*
X780997Y410000D02*
X783663D01*
X782330D01*
Y402003D01*
X780997Y403335D01*
X787662D02*
X788995Y402003D01*
X791661D01*
X792994Y403335D01*
Y404668D01*
X791661Y406001D01*
X790328D01*
X791661D01*
X792994Y407334D01*
Y408667D01*
X791661Y410000D01*
X788995D01*
X787662Y408667D01*
X778332Y363335D02*
X776999Y362003D01*
X774333D01*
X773000Y363335D01*
Y368667D01*
X774333Y370000D01*
X776999D01*
X778332Y368667D01*
X780997Y370000D02*
X783663D01*
X782330D01*
Y362003D01*
X780997Y363335D01*
X792994Y370000D02*
X787662D01*
X792994Y364668D01*
Y363335D01*
X791661Y362003D01*
X788995D01*
X787662Y363335D01*
X778332Y323335D02*
X776999Y322003D01*
X774333D01*
X773000Y323335D01*
Y328667D01*
X774333Y330000D01*
X776999D01*
X778332Y328667D01*
X780997Y323335D02*
X782330Y322003D01*
X784996D01*
X786329Y323335D01*
Y324668D01*
X784996Y326001D01*
X783663D01*
X784996D01*
X786329Y327334D01*
Y328667D01*
X784996Y330000D01*
X782330D01*
X780997Y328667D01*
X792994Y330000D02*
Y322003D01*
X788995Y326001D01*
X794326D01*
X1003332Y475835D02*
X1001999Y474503D01*
X999333D01*
X998000Y475835D01*
Y481167D01*
X999333Y482500D01*
X1001999D01*
X1003332Y481167D01*
X1009996Y482500D02*
Y474503D01*
X1005997Y478501D01*
X1011329D01*
X1003332Y453335D02*
X1001999Y452003D01*
X999333D01*
X998000Y453335D01*
Y458667D01*
X999333Y460000D01*
X1001999D01*
X1003332Y458667D01*
X1005997Y453335D02*
X1007330Y452003D01*
X1009996D01*
X1011329Y453335D01*
Y454668D01*
X1009996Y456001D01*
X1008663D01*
X1009996D01*
X1011329Y457334D01*
Y458667D01*
X1009996Y460000D01*
X1007330D01*
X1005997Y458667D01*
X1003332Y430835D02*
X1001999Y429503D01*
X999333D01*
X998000Y430835D01*
Y436167D01*
X999333Y437500D01*
X1001999D01*
X1003332Y436167D01*
X1011329Y437500D02*
X1005997D01*
X1011329Y432168D01*
Y430835D01*
X1009996Y429503D01*
X1007330D01*
X1005997Y430835D01*
X1165000Y278000D02*
X1172998D01*
Y281999D01*
X1171665Y283332D01*
X1168999D01*
X1167666Y281999D01*
Y278000D01*
Y280666D02*
X1165000Y283332D01*
Y285997D02*
Y288663D01*
Y287330D01*
X1172998D01*
X1171665Y285997D01*
Y292662D02*
X1172998Y293995D01*
Y296661D01*
X1171665Y297994D01*
X1170332D01*
X1168999Y296661D01*
X1167666Y297994D01*
X1166333D01*
X1165000Y296661D01*
Y293995D01*
X1166333Y292662D01*
X1167666D01*
X1168999Y293995D01*
X1170332Y292662D01*
X1171665D01*
X1168999Y293995D02*
Y296661D01*
X1123332Y338335D02*
X1121999Y337003D01*
X1119333D01*
X1118000Y338335D01*
Y343667D01*
X1119333Y345000D01*
X1121999D01*
X1123332Y343667D01*
X1125997Y338335D02*
X1127330Y337003D01*
X1129996D01*
X1131329Y338335D01*
Y339668D01*
X1129996Y341001D01*
X1128663D01*
X1129996D01*
X1131329Y342334D01*
Y343667D01*
X1129996Y345000D01*
X1127330D01*
X1125997Y343667D01*
X1139326Y337003D02*
X1136661Y338335D01*
X1133995Y341001D01*
Y343667D01*
X1135328Y345000D01*
X1137994D01*
X1139326Y343667D01*
Y342334D01*
X1137994Y341001D01*
X1133995D01*
X1123332Y378335D02*
X1121999Y377003D01*
X1119333D01*
X1118000Y378335D01*
Y383667D01*
X1119333Y385000D01*
X1121999D01*
X1123332Y383667D01*
X1125997Y378335D02*
X1127330Y377003D01*
X1129996D01*
X1131329Y378335D01*
Y379668D01*
X1129996Y381001D01*
X1128663D01*
X1129996D01*
X1131329Y382334D01*
Y383667D01*
X1129996Y385000D01*
X1127330D01*
X1125997Y383667D01*
X1133995Y377003D02*
X1139326D01*
Y378335D01*
X1133995Y383667D01*
Y385000D01*
X1123332Y418335D02*
X1121999Y417003D01*
X1119333D01*
X1118000Y418335D01*
Y423667D01*
X1119333Y425000D01*
X1121999D01*
X1123332Y423667D01*
X1125997Y418335D02*
X1127330Y417003D01*
X1129996D01*
X1131329Y418335D01*
Y419668D01*
X1129996Y421001D01*
X1128663D01*
X1129996D01*
X1131329Y422334D01*
Y423667D01*
X1129996Y425000D01*
X1127330D01*
X1125997Y423667D01*
X1133995Y418335D02*
X1135328Y417003D01*
X1137994D01*
X1139326Y418335D01*
Y419668D01*
X1137994Y421001D01*
X1139326Y422334D01*
Y423667D01*
X1137994Y425000D01*
X1135328D01*
X1133995Y423667D01*
Y422334D01*
X1135328Y421001D01*
X1133995Y419668D01*
Y418335D01*
X1135328Y421001D02*
X1137994D01*
X260000Y558000D02*
X267997D01*
Y561999D01*
X266665Y563332D01*
X263999D01*
X262666Y561999D01*
Y558000D01*
Y560666D02*
X260000Y563332D01*
X266665Y565997D02*
X267997Y567330D01*
Y569996D01*
X266665Y571329D01*
X265332D01*
X263999Y569996D01*
X262666Y571329D01*
X261333D01*
X260000Y569996D01*
Y567330D01*
X261333Y565997D01*
X262666D01*
X263999Y567330D01*
X265332Y565997D01*
X266665D01*
X263999Y567330D02*
Y569996D01*
X260000Y613000D02*
X267997D01*
Y616999D01*
X266665Y618332D01*
X263999D01*
X262666Y616999D01*
Y613000D01*
Y615666D02*
X260000Y618332D01*
X261333Y620997D02*
X260000Y622330D01*
Y624996D01*
X261333Y626329D01*
X266665D01*
X267997Y624996D01*
Y622330D01*
X266665Y620997D01*
X265332D01*
X263999Y622330D01*
Y626329D01*
X1123332Y508335D02*
X1121999Y507003D01*
X1119333D01*
X1118000Y508335D01*
Y513667D01*
X1119333Y515000D01*
X1121999D01*
X1123332Y513667D01*
X1131329Y515000D02*
X1125997D01*
X1131329Y509668D01*
Y508335D01*
X1129996Y507003D01*
X1127330D01*
X1125997Y508335D01*
X1137994Y515000D02*
Y507003D01*
X1133995Y511001D01*
X1139326D01*
X1123332Y548335D02*
X1121999Y547003D01*
X1119333D01*
X1118000Y548335D01*
Y553667D01*
X1119333Y555000D01*
X1121999D01*
X1123332Y553667D01*
X1131329Y555000D02*
X1125997D01*
X1131329Y549668D01*
Y548335D01*
X1129996Y547003D01*
X1127330D01*
X1125997Y548335D01*
X1139326Y547003D02*
X1133995D01*
Y551001D01*
X1136661Y549668D01*
X1137994D01*
X1139326Y551001D01*
Y553667D01*
X1137994Y555000D01*
X1135328D01*
X1133995Y553667D01*
X1123332Y588335D02*
X1121999Y587003D01*
X1119333D01*
X1118000Y588335D01*
Y593667D01*
X1119333Y595000D01*
X1121999D01*
X1123332Y593667D01*
X1131329Y595000D02*
X1125997D01*
X1131329Y589668D01*
Y588335D01*
X1129996Y587003D01*
X1127330D01*
X1125997Y588335D01*
X1139326Y587003D02*
X1136661Y588335D01*
X1133995Y591001D01*
Y593667D01*
X1135328Y595000D01*
X1137994D01*
X1139326Y593667D01*
Y592334D01*
X1137994Y591001D01*
X1133995D01*
X1123332Y678335D02*
X1121999Y677003D01*
X1119333D01*
X1118000Y678335D01*
Y683667D01*
X1119333Y685000D01*
X1121999D01*
X1123332Y683667D01*
X1131329Y685000D02*
X1125997D01*
X1131329Y679668D01*
Y678335D01*
X1129996Y677003D01*
X1127330D01*
X1125997Y678335D01*
X1133995Y685000D02*
X1136661D01*
X1135328D01*
Y677003D01*
X1133995Y678335D01*
X1123332Y718335D02*
X1121999Y717003D01*
X1119333D01*
X1118000Y718335D01*
Y723667D01*
X1119333Y725000D01*
X1121999D01*
X1123332Y723667D01*
X1131329Y725000D02*
X1125997D01*
X1131329Y719668D01*
Y718335D01*
X1129996Y717003D01*
X1127330D01*
X1125997Y718335D01*
X1133995D02*
X1135328Y717003D01*
X1137994D01*
X1139326Y718335D01*
Y723667D01*
X1137994Y725000D01*
X1135328D01*
X1133995Y723667D01*
Y718335D01*
X1123332Y758335D02*
X1121999Y757002D01*
X1119333D01*
X1118000Y758335D01*
Y763667D01*
X1119333Y765000D01*
X1121999D01*
X1123332Y763667D01*
X1125997Y765000D02*
X1128663D01*
X1127330D01*
Y757002D01*
X1125997Y758335D01*
X1132662Y763667D02*
X1133995Y765000D01*
X1136661D01*
X1137994Y763667D01*
Y758335D01*
X1136661Y757002D01*
X1133995D01*
X1132662Y758335D01*
Y759668D01*
X1133995Y761001D01*
X1137994D01*
X603000Y553000D02*
X595003D01*
Y556999D01*
X596335Y558332D01*
X599001D01*
X600334Y556999D01*
Y553000D01*
Y555666D02*
X603000Y558332D01*
Y560997D02*
Y563663D01*
Y562330D01*
X595003D01*
X596335Y560997D01*
X603000Y567662D02*
Y570328D01*
Y568995D01*
X595003D01*
X596335Y567662D01*
X603000Y588000D02*
X595003D01*
Y591999D01*
X596335Y593332D01*
X599001D01*
X600334Y591999D01*
Y588000D01*
X595003Y595997D02*
X601667D01*
X603000Y597330D01*
Y599996D01*
X601667Y601329D01*
X595003D01*
Y603995D02*
X603000D01*
Y609326D01*
X595003Y611992D02*
X603000D01*
Y617324D01*
X595003Y619990D02*
X601667D01*
X603000Y621323D01*
Y623988D01*
X601667Y625321D01*
X595003D01*
X603000Y627987D02*
X595003D01*
Y631986D01*
X596335Y633319D01*
X599001D01*
X600334Y631986D01*
Y627987D01*
D70*
X388000Y719002D02*
Y722334D01*
X386334Y724000D01*
X384668Y722334D01*
Y719002D01*
X383002D02*
Y724000D01*
X380503D01*
X379669Y723167D01*
Y722334D01*
X380503Y721501D01*
X383002D01*
X380503D01*
X379669Y720668D01*
Y719835D01*
X380503Y719002D01*
X383002D01*
X378003Y724000D02*
Y720668D01*
X376337Y719002D01*
X374671Y720668D01*
Y724000D01*
Y721501D01*
X378003D01*
X373005Y719002D02*
X369673D01*
X371339D01*
Y724000D01*
X363008Y719002D02*
Y724000D01*
X359676D01*
X354678Y719002D02*
X358010D01*
Y724000D01*
X354678D01*
X358010Y721501D02*
X356344D01*
X353012Y719002D02*
Y724000D01*
X350512D01*
X349679Y723167D01*
Y719835D01*
X350512Y719002D01*
X353012D01*
X1041002Y448668D02*
Y452000D01*
X1043501D01*
Y450334D01*
Y452000D01*
X1046000D01*
X1041002Y447002D02*
X1046000D01*
Y444502D01*
X1045167Y443669D01*
X1044334D01*
X1043501Y444502D01*
Y447002D01*
Y444502D01*
X1042668Y443669D01*
X1041835D01*
X1041002Y444502D01*
Y447002D01*
X1046000Y442003D02*
Y440337D01*
Y441170D01*
X1041002D01*
X1041835Y442003D01*
X265998Y385500D02*
X261000D01*
Y383001D01*
X261833Y382168D01*
X265165D01*
X265998Y383001D01*
Y385500D01*
Y380502D02*
Y378835D01*
Y379669D01*
X261000D01*
Y380502D01*
Y378835D01*
Y376336D02*
X265998D01*
Y373837D01*
X265165Y373004D01*
X263499D01*
X262666Y373837D01*
Y376336D01*
Y374670D02*
X261000Y373004D01*
X265165Y371338D02*
X265998Y370505D01*
Y368839D01*
X265165Y368006D01*
X264332D01*
X263499Y368839D01*
Y369672D01*
Y368839D01*
X262666Y368006D01*
X261833D01*
X261000Y368839D01*
Y370505D01*
X261833Y371338D01*
X265998Y330500D02*
X261000D01*
Y328001D01*
X261833Y327168D01*
X265165D01*
X265998Y328001D01*
Y330500D01*
Y325502D02*
Y323835D01*
Y324669D01*
X261000D01*
Y325502D01*
Y323835D01*
Y321336D02*
X265998D01*
Y318837D01*
X265165Y318004D01*
X263499D01*
X262666Y318837D01*
Y321336D01*
Y319670D02*
X261000Y318004D01*
Y313839D02*
X265998D01*
X263499Y316338D01*
Y313006D01*
X265998Y563000D02*
X261000D01*
Y560501D01*
X261833Y559668D01*
X265165D01*
X265998Y560501D01*
Y563000D01*
Y558002D02*
Y556335D01*
Y557169D01*
X261000D01*
Y558002D01*
Y556335D01*
Y553836D02*
X265998D01*
Y551337D01*
X265165Y550504D01*
X263499D01*
X262666Y551337D01*
Y553836D01*
Y552170D02*
X261000Y550504D01*
Y548838D02*
Y547172D01*
Y548005D01*
X265998D01*
X265165Y548838D01*
X265998Y618000D02*
X261000D01*
Y615501D01*
X261833Y614668D01*
X265165D01*
X265998Y615501D01*
Y618000D01*
Y613002D02*
Y611335D01*
Y612169D01*
X261000D01*
Y613002D01*
Y611335D01*
Y608836D02*
X265998D01*
Y606337D01*
X265165Y605504D01*
X263499D01*
X262666Y606337D01*
Y608836D01*
Y607170D02*
X261000Y605504D01*
Y600506D02*
Y603838D01*
X264332Y600506D01*
X265165D01*
X265998Y601339D01*
Y603005D01*
X265165Y603838D01*
X1170998Y283000D02*
X1166000D01*
Y279668D01*
X1170998Y274669D02*
Y278002D01*
X1166000D01*
Y274669D01*
X1168499Y278002D02*
Y276336D01*
X1170998Y273003D02*
X1166000D01*
Y270504D01*
X1166833Y269671D01*
X1170165D01*
X1170998Y270504D01*
Y273003D01*
D71*
X1168000Y375000D02*
Y368335D01*
X1171332Y365003D01*
X1174665Y368335D01*
Y375000D01*
Y370002D01*
X1168000D01*
X1184661Y366669D02*
X1182995Y365003D01*
X1179663D01*
X1177997Y366669D01*
Y373334D01*
X1179663Y375000D01*
X1182995D01*
X1184661Y373334D01*
X1194658Y366669D02*
X1192992Y365003D01*
X1189660D01*
X1187993Y366669D01*
Y368335D01*
X1189660Y370002D01*
X1192992D01*
X1194658Y371668D01*
Y373334D01*
X1192992Y375000D01*
X1189660D01*
X1187993Y373334D01*
X1197990Y366669D02*
X1199657Y365003D01*
X1202989D01*
X1204655Y366669D01*
Y368335D01*
X1202989Y370002D01*
X1201323D01*
X1202989D01*
X1204655Y371668D01*
Y373334D01*
X1202989Y375000D01*
X1199657D01*
X1197990Y373334D01*
X1192500Y522000D02*
X1185835D01*
X1182503Y518668D01*
X1185835Y515336D01*
X1192500D01*
X1187502D01*
Y522000D01*
X1184169Y505339D02*
X1182503Y507005D01*
Y510337D01*
X1184169Y512003D01*
X1190834D01*
X1192500Y510337D01*
Y507005D01*
X1190834Y505339D01*
X1184169Y495342D02*
X1182503Y497008D01*
Y500340D01*
X1184169Y502006D01*
X1185835D01*
X1187502Y500340D01*
Y497008D01*
X1189168Y495342D01*
X1190834D01*
X1192500Y497008D01*
Y500340D01*
X1190834Y502006D01*
X1192500Y485345D02*
Y492010D01*
X1185835Y485345D01*
X1184169D01*
X1182503Y487011D01*
Y490344D01*
X1184169Y492010D01*
X1192500Y674500D02*
X1185835D01*
X1182503Y671168D01*
X1185835Y667835D01*
X1192500D01*
X1187502D01*
Y674500D01*
X1184169Y657839D02*
X1182503Y659505D01*
Y662837D01*
X1184169Y664503D01*
X1190834D01*
X1192500Y662837D01*
Y659505D01*
X1190834Y657839D01*
X1184169Y647842D02*
X1182503Y649508D01*
Y652840D01*
X1184169Y654507D01*
X1185835D01*
X1187502Y652840D01*
Y649508D01*
X1189168Y647842D01*
X1190834D01*
X1192500Y649508D01*
Y652840D01*
X1190834Y654507D01*
X1192500Y644510D02*
Y641177D01*
Y642843D01*
X1182503D01*
X1184169Y644510D01*
M02*
