G04 Layer_Color=8421504*
%FSLAX44Y44*%
%MOMM*%
G71*
G01*
G75*
%ADD10R,1.6000X0.8000*%
%ADD11R,0.6000X1.6000*%
%ADD12R,1.0000X2.0000*%
%ADD13R,0.8000X1.6000*%
%ADD14R,5.0000X1.2000*%
%ADD15R,8.0000X1.2000*%
%ADD16R,11.0000X11.0000*%
%ADD17R,1.2000X5.0000*%
%ADD18R,1.2000X8.0000*%
%ADD19R,11.0000X11.0000*%
%ADD20R,4.0000X3.0000*%
D10*
X597500Y359500D02*
D03*
Y340500D02*
D03*
X400000Y574500D02*
D03*
Y555500D02*
D03*
Y359500D02*
D03*
Y340500D02*
D03*
X820000Y753000D02*
D03*
Y772000D02*
D03*
Y565500D02*
D03*
Y584500D02*
D03*
Y530500D02*
D03*
Y549500D02*
D03*
X598000Y574500D02*
D03*
Y555500D02*
D03*
X265000Y363000D02*
D03*
Y382000D02*
D03*
Y308000D02*
D03*
Y327000D02*
D03*
Y540500D02*
D03*
Y559500D02*
D03*
Y595500D02*
D03*
Y614500D02*
D03*
X1170000Y260500D02*
D03*
Y279500D02*
D03*
X598000Y609500D02*
D03*
Y590500D02*
D03*
D11*
X365000Y744250D02*
D03*
X375000D02*
D03*
X385000D02*
D03*
X395000D02*
D03*
X405000D02*
D03*
X415000D02*
D03*
X425000D02*
D03*
X435000D02*
D03*
D12*
X352500Y765750D02*
D03*
X447500D02*
D03*
D13*
X365500Y720000D02*
D03*
X384500D02*
D03*
X419500D02*
D03*
X400500D02*
D03*
X870500Y647500D02*
D03*
X889500D02*
D03*
X884500Y455000D02*
D03*
X865500D02*
D03*
X884500Y477500D02*
D03*
X865500D02*
D03*
X1004500Y647500D02*
D03*
X985500D02*
D03*
X1004500Y625000D02*
D03*
X985500D02*
D03*
X865500Y320000D02*
D03*
X884500D02*
D03*
D14*
X862250Y754000D02*
D03*
Y737000D02*
D03*
Y703000D02*
D03*
Y686000D02*
D03*
Y584000D02*
D03*
Y567000D02*
D03*
Y533000D02*
D03*
Y516000D02*
D03*
D15*
X877250Y720000D02*
D03*
Y550000D02*
D03*
D16*
X952750Y720000D02*
D03*
Y550000D02*
D03*
D17*
X918500Y339750D02*
D03*
X935500D02*
D03*
X969500D02*
D03*
X986500D02*
D03*
D18*
X952500Y354750D02*
D03*
D19*
Y430250D02*
D03*
D20*
X1085000Y755000D02*
D03*
X1050000Y635000D02*
D03*
X1120000D02*
D03*
Y465000D02*
D03*
X1050000D02*
D03*
X1085000Y585000D02*
D03*
Y415000D02*
D03*
X1050000Y295000D02*
D03*
X1120000D02*
D03*
M02*
