G04 Layer_Color=16711935*
%FSLAX44Y44*%
%MOMM*%
G71*
G01*
G75*
%ADD44R,1.8032X1.0032*%
%ADD47R,1.0032X1.8032*%
%ADD55C,1.7032*%
%ADD56C,3.2032*%
%ADD57C,2.4532*%
%ADD58O,1.7032X2.2032*%
%ADD59R,1.7032X2.2032*%
%ADD60R,2.2032X1.7032*%
%ADD61O,2.2032X1.7032*%
%ADD62R,1.7032X3.4032*%
%ADD63R,3.2032X1.8032*%
%ADD64R,7.2032X8.2032*%
%ADD65R,2.1532X0.7532*%
%ADD66O,2.1532X0.7532*%
%ADD67R,0.7532X2.1532*%
%ADD68O,0.7532X2.1532*%
G36*
X469966Y365257D02*
X470614D01*
Y365127D01*
X471133D01*
Y364997D01*
X471523D01*
Y364868D01*
X471782D01*
Y364738D01*
X472042D01*
Y364608D01*
X472301D01*
Y364478D01*
X472561D01*
Y364348D01*
X472820D01*
Y364219D01*
X472950D01*
Y364089D01*
X473209D01*
Y363959D01*
X473339D01*
Y363829D01*
X473469D01*
Y363700D01*
X473599D01*
Y363570D01*
X473728D01*
Y363440D01*
X473858D01*
Y363310D01*
X473988D01*
Y363181D01*
X474118D01*
Y363051D01*
X474248D01*
Y362921D01*
X474377D01*
Y362662D01*
X474507D01*
Y362532D01*
X474637D01*
Y362272D01*
X474767D01*
Y362013D01*
X474896D01*
Y361883D01*
X475026D01*
Y361494D01*
X475156D01*
Y361234D01*
X475286D01*
Y360845D01*
X475415D01*
Y360326D01*
X475545D01*
Y359677D01*
X475675D01*
Y356952D01*
X475545D01*
Y356174D01*
X475415D01*
Y355654D01*
X475286D01*
Y355135D01*
X475156D01*
Y354746D01*
X475026D01*
Y354487D01*
X474896D01*
Y354097D01*
X474767D01*
Y353838D01*
X474637D01*
Y353578D01*
X474507D01*
Y353319D01*
X474377D01*
Y353189D01*
X474248D01*
Y353059D01*
X473988D01*
Y352929D01*
X473728D01*
Y352800D01*
X473469D01*
Y352670D01*
X473080D01*
Y352540D01*
X472820D01*
Y352411D01*
X472561D01*
Y352670D01*
X472431D01*
Y352800D01*
X472301D01*
Y352929D01*
X472431D01*
Y353189D01*
X472561D01*
Y353319D01*
X472690D01*
Y353578D01*
X472820D01*
Y353838D01*
X472950D01*
Y354097D01*
X473080D01*
Y354357D01*
X473209D01*
Y354616D01*
X473339D01*
Y355006D01*
X473469D01*
Y355395D01*
X473599D01*
Y355914D01*
X473728D01*
Y357471D01*
X473599D01*
Y358120D01*
X473469D01*
Y358509D01*
X473339D01*
Y358899D01*
X473209D01*
Y359158D01*
X473080D01*
Y359417D01*
X472950D01*
Y359547D01*
X472820D01*
Y359807D01*
X472690D01*
Y359936D01*
X472561D01*
Y360066D01*
X472431D01*
Y360196D01*
X472301D01*
Y360326D01*
X472171D01*
Y360456D01*
X472042D01*
Y360585D01*
X471912D01*
Y360715D01*
X471782D01*
Y360845D01*
X471523D01*
Y360975D01*
X471263D01*
Y361104D01*
X471004D01*
Y361234D01*
X470744D01*
Y361364D01*
X470485D01*
Y361494D01*
X470095D01*
Y361623D01*
X469576D01*
Y361753D01*
X468927D01*
Y361883D01*
X468019D01*
Y355265D01*
X467889D01*
Y353968D01*
X467760D01*
Y353189D01*
X467630D01*
Y352670D01*
X467500D01*
Y352281D01*
X467370D01*
Y352151D01*
X465424D01*
Y352281D01*
X464645D01*
Y352411D01*
X464126D01*
Y352540D01*
X463737D01*
Y352670D01*
X463348D01*
Y352800D01*
X463088D01*
Y352929D01*
X462958D01*
Y353059D01*
X462699D01*
Y353189D01*
X462439D01*
Y353319D01*
X462309D01*
Y353448D01*
X462180D01*
Y353578D01*
X462050D01*
Y353708D01*
X461920D01*
Y353838D01*
X461791D01*
Y353968D01*
X461661D01*
Y354097D01*
X461531D01*
Y354357D01*
X461401D01*
Y354487D01*
X461272D01*
Y354746D01*
X461142D01*
Y355006D01*
X461012D01*
Y355395D01*
X460882D01*
Y355654D01*
X460752D01*
Y356174D01*
X460623D01*
Y356952D01*
X460493D01*
Y358899D01*
X460623D01*
Y359547D01*
X460752D01*
Y359936D01*
X460882D01*
Y360326D01*
X461012D01*
Y360585D01*
X461142D01*
Y360845D01*
X461272D01*
Y361104D01*
X461401D01*
Y361364D01*
X461531D01*
Y361623D01*
X461661D01*
Y361883D01*
X461791D01*
Y362142D01*
X461920D01*
Y362272D01*
X462050D01*
Y362532D01*
X462180D01*
Y362662D01*
X462309D01*
Y362921D01*
X462439D01*
Y363051D01*
X462569D01*
Y363310D01*
X462699D01*
Y363440D01*
X462829D01*
Y363700D01*
X462958D01*
Y363829D01*
X463088D01*
Y363959D01*
X463218D01*
Y364089D01*
X463348D01*
Y364219D01*
X463607D01*
Y364348D01*
X463737D01*
Y364478D01*
X463997D01*
Y364608D01*
X464256D01*
Y364738D01*
X464515D01*
Y364868D01*
X464775D01*
Y364997D01*
X465164D01*
Y365127D01*
X465683D01*
Y365257D01*
X466462D01*
Y365387D01*
X469966D01*
Y365257D01*
D02*
G37*
G36*
X475286Y382515D02*
X475156D01*
Y377844D01*
X475286D01*
Y376286D01*
X474118D01*
Y377324D01*
X473988D01*
Y378103D01*
X473858D01*
Y378363D01*
X473728D01*
Y378492D01*
X473080D01*
Y378622D01*
X464905D01*
Y378492D01*
X464645D01*
Y378363D01*
X464386D01*
Y378233D01*
X464256D01*
Y378103D01*
X464126D01*
Y377973D01*
X463997D01*
Y377844D01*
X463867D01*
Y377584D01*
X463737D01*
Y377454D01*
X463607D01*
Y377195D01*
X463477D01*
Y376935D01*
X463348D01*
Y376546D01*
X463218D01*
Y376027D01*
X463088D01*
Y374081D01*
X463218D01*
Y373691D01*
X463348D01*
Y373432D01*
X463477D01*
Y373302D01*
X463607D01*
Y373172D01*
X463737D01*
Y373042D01*
X463867D01*
Y372913D01*
X463997D01*
Y372783D01*
X464256D01*
Y372653D01*
X464515D01*
Y372523D01*
X465035D01*
Y372394D01*
X465683D01*
Y372264D01*
X472820D01*
Y372394D01*
X474377D01*
Y372523D01*
X475026D01*
Y372394D01*
X475156D01*
Y372264D01*
X475286D01*
Y371096D01*
X475156D01*
Y368241D01*
X475286D01*
Y367073D01*
X475156D01*
Y366944D01*
X474248D01*
Y367073D01*
X474118D01*
Y368111D01*
X473988D01*
Y368630D01*
X473858D01*
Y368890D01*
X473599D01*
Y369020D01*
X467240D01*
Y368890D01*
X464905D01*
Y369020D01*
X463997D01*
Y369150D01*
X463477D01*
Y369279D01*
X463088D01*
Y369409D01*
X462829D01*
Y369539D01*
X462569D01*
Y369669D01*
X462309D01*
Y369798D01*
X462180D01*
Y369928D01*
X462050D01*
Y370058D01*
X461791D01*
Y370188D01*
X461661D01*
Y370317D01*
X461531D01*
Y370577D01*
X461401D01*
Y370707D01*
X461272D01*
Y370836D01*
X461142D01*
Y371096D01*
X461012D01*
Y371356D01*
X460882D01*
Y371745D01*
X460752D01*
Y372134D01*
X460623D01*
Y372783D01*
X460493D01*
Y374859D01*
X460623D01*
Y375508D01*
X460752D01*
Y376027D01*
X460882D01*
Y376157D01*
X461012D01*
Y376286D01*
X461142D01*
Y376416D01*
X461272D01*
Y376546D01*
X461401D01*
Y376676D01*
X461531D01*
Y376935D01*
X461661D01*
Y377065D01*
X461791D01*
Y377195D01*
X461920D01*
Y377324D01*
X462050D01*
Y377454D01*
X462180D01*
Y377584D01*
X462309D01*
Y377714D01*
X462439D01*
Y377844D01*
X462569D01*
Y378103D01*
X462699D01*
Y378233D01*
X462829D01*
Y378363D01*
X462958D01*
Y378492D01*
X463088D01*
Y378622D01*
X463218D01*
Y378752D01*
X462439D01*
Y378622D01*
X460623D01*
Y378752D01*
X460493D01*
Y379141D01*
X460623D01*
Y379530D01*
X460752D01*
Y379790D01*
X460882D01*
Y380179D01*
X461012D01*
Y380569D01*
X461142D01*
Y381088D01*
X461272D01*
Y381607D01*
X461401D01*
Y382126D01*
X461531D01*
Y382774D01*
X461661D01*
Y383683D01*
X461791D01*
Y384202D01*
X462958D01*
Y382515D01*
X463088D01*
Y381996D01*
X463348D01*
Y381866D01*
X473469D01*
Y381996D01*
X473728D01*
Y382126D01*
X473858D01*
Y382385D01*
X473988D01*
Y383164D01*
X474118D01*
Y384202D01*
X475286D01*
Y382515D01*
D02*
G37*
G36*
X456081Y390949D02*
X456470D01*
Y390820D01*
X456730D01*
Y390690D01*
X456989D01*
Y390560D01*
X457119D01*
Y390430D01*
X457249D01*
Y390171D01*
X457379D01*
Y390041D01*
X457508D01*
Y389652D01*
X457638D01*
Y388354D01*
X457508D01*
Y388095D01*
X457379D01*
Y387835D01*
X457249D01*
Y387705D01*
X457119D01*
Y387576D01*
X456989D01*
Y387446D01*
X456860D01*
Y387316D01*
X456730D01*
Y387186D01*
X456341D01*
Y387057D01*
X455692D01*
Y386927D01*
X455562D01*
Y387057D01*
X454913D01*
Y387186D01*
X454654D01*
Y387316D01*
X454394D01*
Y387446D01*
X454264D01*
Y387576D01*
X454135D01*
Y387705D01*
X454005D01*
Y387835D01*
X453875D01*
Y388095D01*
X453745D01*
Y388354D01*
X453616D01*
Y389652D01*
X453745D01*
Y390041D01*
X453875D01*
Y390171D01*
X454005D01*
Y390430D01*
X454135D01*
Y390560D01*
X454394D01*
Y390690D01*
X454524D01*
Y390820D01*
X454784D01*
Y390949D01*
X455173D01*
Y391079D01*
X456081D01*
Y390949D01*
D02*
G37*
G36*
X469446Y349945D02*
X470355D01*
Y349815D01*
X470874D01*
Y349686D01*
X471263D01*
Y349556D01*
X471652D01*
Y349426D01*
X471912D01*
Y349296D01*
X472171D01*
Y349166D01*
X472431D01*
Y349037D01*
X472690D01*
Y348907D01*
X472950D01*
Y348777D01*
X473080D01*
Y348647D01*
X473209D01*
Y348518D01*
X473339D01*
Y348388D01*
X473599D01*
Y348258D01*
X473728D01*
Y348128D01*
X473858D01*
Y347999D01*
X473988D01*
Y347869D01*
X474118D01*
Y347609D01*
X474248D01*
Y347480D01*
X474377D01*
Y347350D01*
X474507D01*
Y347090D01*
X474637D01*
Y346960D01*
X474767D01*
Y346701D01*
X474896D01*
Y346441D01*
X475026D01*
Y346182D01*
X475156D01*
Y345793D01*
X475286D01*
Y345403D01*
X475415D01*
Y345014D01*
X475545D01*
Y344235D01*
X475675D01*
Y341511D01*
X475545D01*
Y340732D01*
X475415D01*
Y340213D01*
X475286D01*
Y339824D01*
X475156D01*
Y339434D01*
X475026D01*
Y339045D01*
X474896D01*
Y338786D01*
X474767D01*
Y338526D01*
X474637D01*
Y338267D01*
X474507D01*
Y338007D01*
X474377D01*
Y337747D01*
X474118D01*
Y337618D01*
X473858D01*
Y337488D01*
X473599D01*
Y337358D01*
X473209D01*
Y337229D01*
X472950D01*
Y337099D01*
X472561D01*
Y337229D01*
X472431D01*
Y337358D01*
X472301D01*
Y337618D01*
X472431D01*
Y337747D01*
X472561D01*
Y338007D01*
X472690D01*
Y338137D01*
X472820D01*
Y338396D01*
X472950D01*
Y338656D01*
X473080D01*
Y338915D01*
X473209D01*
Y339305D01*
X473339D01*
Y339564D01*
X473469D01*
Y339953D01*
X473599D01*
Y340602D01*
X473728D01*
Y342030D01*
X473599D01*
Y342808D01*
X473469D01*
Y343198D01*
X473339D01*
Y343457D01*
X473209D01*
Y343846D01*
X473080D01*
Y343976D01*
X472950D01*
Y344235D01*
X472820D01*
Y344365D01*
X472690D01*
Y344625D01*
X472561D01*
Y344755D01*
X472431D01*
Y344884D01*
X472301D01*
Y345014D01*
X472171D01*
Y345144D01*
X472042D01*
Y345274D01*
X471782D01*
Y345403D01*
X471652D01*
Y345533D01*
X471393D01*
Y345663D01*
X471133D01*
Y345793D01*
X470874D01*
Y345922D01*
X470614D01*
Y346052D01*
X470225D01*
Y346182D01*
X469836D01*
Y346312D01*
X469317D01*
Y346441D01*
X468408D01*
Y346571D01*
X468019D01*
Y339953D01*
X467889D01*
Y338526D01*
X467760D01*
Y337877D01*
X467630D01*
Y337358D01*
X467500D01*
Y336839D01*
X467240D01*
Y336709D01*
X466592D01*
Y336839D01*
X465035D01*
Y336969D01*
X464386D01*
Y337099D01*
X463867D01*
Y337229D01*
X463607D01*
Y337358D01*
X463218D01*
Y337488D01*
X462958D01*
Y337618D01*
X462829D01*
Y337747D01*
X462569D01*
Y337877D01*
X462439D01*
Y338007D01*
X462309D01*
Y338137D01*
X462050D01*
Y338267D01*
X461920D01*
Y338396D01*
X461791D01*
Y338656D01*
X461661D01*
Y338786D01*
X461531D01*
Y338915D01*
X461401D01*
Y339175D01*
X461272D01*
Y339434D01*
X461142D01*
Y339694D01*
X461012D01*
Y339953D01*
X460882D01*
Y340343D01*
X460752D01*
Y340862D01*
X460623D01*
Y341640D01*
X460493D01*
Y343587D01*
X460623D01*
Y344235D01*
X460752D01*
Y344625D01*
X460882D01*
Y344884D01*
X461012D01*
Y345274D01*
X461142D01*
Y345533D01*
X461272D01*
Y345793D01*
X461401D01*
Y346052D01*
X461531D01*
Y346312D01*
X461661D01*
Y346441D01*
X461791D01*
Y346701D01*
X461920D01*
Y346960D01*
X462050D01*
Y347090D01*
X462180D01*
Y347350D01*
X462309D01*
Y347480D01*
X462439D01*
Y347739D01*
X462569D01*
Y347869D01*
X462699D01*
Y348128D01*
X462829D01*
Y348258D01*
X462958D01*
Y348388D01*
X463088D01*
Y348518D01*
X463218D01*
Y348647D01*
X463348D01*
Y348777D01*
X463477D01*
Y348907D01*
X463607D01*
Y349037D01*
X463867D01*
Y349166D01*
X464126D01*
Y349296D01*
X464386D01*
Y349426D01*
X464645D01*
Y349556D01*
X465035D01*
Y349686D01*
X465424D01*
Y349815D01*
X466073D01*
Y349945D01*
X467111D01*
Y350075D01*
X469446D01*
Y349945D01*
D02*
G37*
G36*
X456341Y321527D02*
X456600D01*
Y321398D01*
X456860D01*
Y321268D01*
X456989D01*
Y321138D01*
X457119D01*
Y321008D01*
X457249D01*
Y320879D01*
X457379D01*
Y320619D01*
X457508D01*
Y320360D01*
X457638D01*
Y319062D01*
X457508D01*
Y318673D01*
X457379D01*
Y318543D01*
X457249D01*
Y318283D01*
X457119D01*
Y318154D01*
X456989D01*
Y318024D01*
X456730D01*
Y317894D01*
X456470D01*
Y317764D01*
X456211D01*
Y317635D01*
X455043D01*
Y317764D01*
X454784D01*
Y317894D01*
X454524D01*
Y318024D01*
X454264D01*
Y318154D01*
X454135D01*
Y318283D01*
X454005D01*
Y318543D01*
X453875D01*
Y318673D01*
X453745D01*
Y319062D01*
X453616D01*
Y320360D01*
X453745D01*
Y320619D01*
X453875D01*
Y320879D01*
X454005D01*
Y321008D01*
X454135D01*
Y321138D01*
X454264D01*
Y321268D01*
X454394D01*
Y321398D01*
X454654D01*
Y321527D01*
X454913D01*
Y321657D01*
X456341D01*
Y321527D01*
D02*
G37*
G36*
X475286Y321917D02*
X475156D01*
Y317245D01*
X475286D01*
Y315558D01*
X474118D01*
Y316726D01*
X473988D01*
Y317505D01*
X473858D01*
Y317635D01*
X473728D01*
Y317764D01*
X473469D01*
Y317894D01*
X461272D01*
Y317764D01*
X460752D01*
Y317894D01*
X460623D01*
Y318154D01*
X460493D01*
Y318543D01*
X460623D01*
Y318803D01*
X460752D01*
Y319192D01*
X460882D01*
Y319581D01*
X461012D01*
Y319970D01*
X461142D01*
Y320360D01*
X461272D01*
Y320879D01*
X461401D01*
Y321398D01*
X461531D01*
Y322176D01*
X461661D01*
Y322955D01*
X461791D01*
Y323474D01*
X462958D01*
Y321787D01*
X463088D01*
Y321398D01*
X463218D01*
Y321268D01*
X463737D01*
Y321138D01*
X472950D01*
Y321268D01*
X473599D01*
Y321398D01*
X473858D01*
Y321657D01*
X473988D01*
Y322436D01*
X474118D01*
Y323474D01*
X475286D01*
Y321917D01*
D02*
G37*
G36*
Y333725D02*
X475156D01*
Y328664D01*
X475286D01*
Y326848D01*
X474118D01*
Y328145D01*
X473988D01*
Y329183D01*
X473858D01*
Y329443D01*
X473728D01*
Y329573D01*
X472950D01*
Y329702D01*
X465943D01*
Y329573D01*
X465424D01*
Y329443D01*
X465164D01*
Y329313D01*
X464905D01*
Y329183D01*
X464775D01*
Y329054D01*
X464515D01*
Y328924D01*
X464386D01*
Y328664D01*
X464256D01*
Y328535D01*
X464126D01*
Y328405D01*
X463997D01*
Y328145D01*
X463867D01*
Y327756D01*
X463737D01*
Y327107D01*
X463607D01*
Y326329D01*
X463737D01*
Y325680D01*
X463867D01*
Y325420D01*
X463997D01*
Y325290D01*
X464126D01*
Y325161D01*
X464256D01*
Y325031D01*
X464386D01*
Y324901D01*
X464645D01*
Y324771D01*
X464905D01*
Y323993D01*
X462958D01*
Y323863D01*
X461791D01*
Y323733D01*
X460752D01*
Y323863D01*
X460623D01*
Y324512D01*
X460493D01*
Y325939D01*
X460623D01*
Y326458D01*
X460752D01*
Y326848D01*
X460882D01*
Y326977D01*
X461012D01*
Y327237D01*
X461142D01*
Y327367D01*
X461272D01*
Y327626D01*
X461401D01*
Y327756D01*
X461531D01*
Y327886D01*
X461661D01*
Y328016D01*
X461791D01*
Y328145D01*
X461920D01*
Y328275D01*
X462050D01*
Y328405D01*
X462180D01*
Y328535D01*
X462309D01*
Y328664D01*
X462569D01*
Y328794D01*
X462699D01*
Y328924D01*
X462829D01*
Y329054D01*
X462958D01*
Y329183D01*
X463088D01*
Y329313D01*
X463218D01*
Y329443D01*
X463477D01*
Y329573D01*
X463607D01*
Y329702D01*
X463737D01*
Y329832D01*
X462699D01*
Y329702D01*
X461012D01*
Y329573D01*
X460752D01*
Y329702D01*
X460623D01*
Y329962D01*
X460493D01*
Y330351D01*
X460623D01*
Y330611D01*
X460752D01*
Y331000D01*
X460882D01*
Y331259D01*
X461012D01*
Y331778D01*
X461142D01*
Y332168D01*
X461272D01*
Y332687D01*
X461401D01*
Y333206D01*
X461531D01*
Y333855D01*
X461661D01*
Y334763D01*
X461791D01*
Y335412D01*
X462958D01*
Y333595D01*
X463088D01*
Y333076D01*
X463348D01*
Y332946D01*
X473469D01*
Y333076D01*
X473728D01*
Y333206D01*
X473858D01*
Y333465D01*
X473988D01*
Y334244D01*
X474118D01*
Y335412D01*
X475286D01*
Y333725D01*
D02*
G37*
G36*
X479308Y408727D02*
X479957D01*
Y408597D01*
X480346D01*
Y408467D01*
X480606D01*
Y408337D01*
X480865D01*
Y408208D01*
X480995D01*
Y408078D01*
X481255D01*
Y407948D01*
X481384D01*
Y407818D01*
X481514D01*
Y407688D01*
X481644D01*
Y407559D01*
X481774D01*
Y407429D01*
X481903D01*
Y407299D01*
X482033D01*
Y407040D01*
X482163D01*
Y406910D01*
X482293D01*
Y406650D01*
X482422D01*
Y406521D01*
X482552D01*
Y406261D01*
X482682D01*
Y405872D01*
X482812D01*
Y405612D01*
X482942D01*
Y405223D01*
X483071D01*
Y404704D01*
X483201D01*
Y403925D01*
X483331D01*
Y400552D01*
X483201D01*
Y399773D01*
X483071D01*
Y399254D01*
X482942D01*
Y398735D01*
X482812D01*
Y398346D01*
X482682D01*
Y398086D01*
X482552D01*
Y397697D01*
X482422D01*
Y397437D01*
X482293D01*
Y397178D01*
X482163D01*
Y396918D01*
X482033D01*
Y396789D01*
X481903D01*
Y396529D01*
X481774D01*
Y396399D01*
X481644D01*
Y396140D01*
X481514D01*
Y396010D01*
X481384D01*
Y395880D01*
X481255D01*
Y395751D01*
X481125D01*
Y395491D01*
X480995D01*
Y395361D01*
X480865D01*
Y395231D01*
X480736D01*
Y395102D01*
X480476D01*
Y394972D01*
X480346D01*
Y394842D01*
X480216D01*
Y394712D01*
X480087D01*
Y394583D01*
X479827D01*
Y394453D01*
X479568D01*
Y394323D01*
X479438D01*
Y394193D01*
X479178D01*
Y394064D01*
X478789D01*
Y393934D01*
X478400D01*
Y393804D01*
X477881D01*
Y393674D01*
X475805D01*
Y393804D01*
X475286D01*
Y393934D01*
X475026D01*
Y394064D01*
X474767D01*
Y394193D01*
X474637D01*
Y394323D01*
X474377D01*
Y394453D01*
X474248D01*
Y394583D01*
X474118D01*
Y394712D01*
X473988D01*
Y394842D01*
X473858D01*
Y394972D01*
X473728D01*
Y395231D01*
X473599D01*
Y395361D01*
X473469D01*
Y395621D01*
X473339D01*
Y396010D01*
X473209D01*
Y396399D01*
X473080D01*
Y396918D01*
X472950D01*
Y403925D01*
X472820D01*
Y404185D01*
X472690D01*
Y404315D01*
X472561D01*
Y404445D01*
X472042D01*
Y404315D01*
X471782D01*
Y404185D01*
X471652D01*
Y404055D01*
X471523D01*
Y403925D01*
X471393D01*
Y403796D01*
X471263D01*
Y403666D01*
X471133D01*
Y403536D01*
X471004D01*
Y403406D01*
X470874D01*
Y403277D01*
X470744D01*
Y403017D01*
X470874D01*
Y401720D01*
X470744D01*
Y400941D01*
X470614D01*
Y400422D01*
X470485D01*
Y400033D01*
X470355D01*
Y399643D01*
X470225D01*
Y399384D01*
X470095D01*
Y399124D01*
X469966D01*
Y398865D01*
X469836D01*
Y398605D01*
X469706D01*
Y398346D01*
X469576D01*
Y398216D01*
X469446D01*
Y397956D01*
X469317D01*
Y397827D01*
X469187D01*
Y397697D01*
X469057D01*
Y397567D01*
X468927D01*
Y397437D01*
X468798D01*
Y397308D01*
X468668D01*
Y397178D01*
X468538D01*
Y397048D01*
X468408D01*
Y396918D01*
X468279D01*
Y396789D01*
X468149D01*
Y396659D01*
X467889D01*
Y396529D01*
X467760D01*
Y396399D01*
X467500D01*
Y396269D01*
X467240D01*
Y396140D01*
X466851D01*
Y396010D01*
X466332D01*
Y395880D01*
X464515D01*
Y396010D01*
X463867D01*
Y396140D01*
X463477D01*
Y393804D01*
X463348D01*
Y393674D01*
X463218D01*
Y393545D01*
X462958D01*
Y393415D01*
X462699D01*
Y393285D01*
X462569D01*
Y393155D01*
X462309D01*
Y393026D01*
X462180D01*
Y392896D01*
X462958D01*
Y391209D01*
X463088D01*
Y390690D01*
X463348D01*
Y390560D01*
X473469D01*
Y390690D01*
X473728D01*
Y390820D01*
X473858D01*
Y391079D01*
X473988D01*
Y391728D01*
X474118D01*
Y392896D01*
X475286D01*
Y391209D01*
X475156D01*
Y386538D01*
X475286D01*
Y384980D01*
X474118D01*
Y386018D01*
X473988D01*
Y386797D01*
X473858D01*
Y387057D01*
X473728D01*
Y387186D01*
X472950D01*
Y387316D01*
X462439D01*
Y387186D01*
X460752D01*
Y387316D01*
X460623D01*
Y387446D01*
X460493D01*
Y387835D01*
X460623D01*
Y388095D01*
X460752D01*
Y388484D01*
X460882D01*
Y388873D01*
X461012D01*
Y389263D01*
X461142D01*
Y389781D01*
X461272D01*
Y390300D01*
X461401D01*
Y390820D01*
X461531D01*
Y391468D01*
X461661D01*
Y392377D01*
X461791D01*
Y393026D01*
X461531D01*
Y393415D01*
X461661D01*
Y397437D01*
X461531D01*
Y397697D01*
X461401D01*
Y397827D01*
X461272D01*
Y398086D01*
X461142D01*
Y398346D01*
X461012D01*
Y398605D01*
X460882D01*
Y398994D01*
X460752D01*
Y399384D01*
X460623D01*
Y400162D01*
X460493D01*
Y402109D01*
X460623D01*
Y402757D01*
X460752D01*
Y403277D01*
X460882D01*
Y403666D01*
X461012D01*
Y404055D01*
X461142D01*
Y404445D01*
X461272D01*
Y404704D01*
X461401D01*
Y404963D01*
X461531D01*
Y405223D01*
X461661D01*
Y405482D01*
X461791D01*
Y405742D01*
X461920D01*
Y405872D01*
X462050D01*
Y406131D01*
X462180D01*
Y406261D01*
X462309D01*
Y406391D01*
X462439D01*
Y406521D01*
X462569D01*
Y406650D01*
X462699D01*
Y406780D01*
X462829D01*
Y406910D01*
X462958D01*
Y407040D01*
X463088D01*
Y407169D01*
X463348D01*
Y407299D01*
X463477D01*
Y407429D01*
X463737D01*
Y407559D01*
X463997D01*
Y407688D01*
X464256D01*
Y407818D01*
X464645D01*
Y407948D01*
X465035D01*
Y408078D01*
X467500D01*
Y407948D01*
X467889D01*
Y407818D01*
X468279D01*
Y407688D01*
X468538D01*
Y407559D01*
X468668D01*
Y407429D01*
X468927D01*
Y407299D01*
X469057D01*
Y407169D01*
X469187D01*
Y407040D01*
X469317D01*
Y406910D01*
X469446D01*
Y406780D01*
X469576D01*
Y406650D01*
X469706D01*
Y406391D01*
X469836D01*
Y406261D01*
X469966D01*
Y406002D01*
X470095D01*
Y405742D01*
X470225D01*
Y405482D01*
X470355D01*
Y405093D01*
X470485D01*
Y404704D01*
X470614D01*
Y404834D01*
X470744D01*
Y405093D01*
X470874D01*
Y405223D01*
X471004D01*
Y405353D01*
X471133D01*
Y405482D01*
X471263D01*
Y405742D01*
X471393D01*
Y405872D01*
X471523D01*
Y406002D01*
X471652D01*
Y406261D01*
X471782D01*
Y406391D01*
X471912D01*
Y406521D01*
X472042D01*
Y406780D01*
X472171D01*
Y406910D01*
X472431D01*
Y407040D01*
X472690D01*
Y407169D01*
X473339D01*
Y407299D01*
X473858D01*
Y407169D01*
X474377D01*
Y407040D01*
X474637D01*
Y406910D01*
X474767D01*
Y406780D01*
X474896D01*
Y406650D01*
X475026D01*
Y406521D01*
X475156D01*
Y406261D01*
X475286D01*
Y406002D01*
X475415D01*
Y405872D01*
X475545D01*
Y406131D01*
X475675D01*
Y406261D01*
X475805D01*
Y406521D01*
X475934D01*
Y406780D01*
X476064D01*
Y407040D01*
X476194D01*
Y407169D01*
X476324D01*
Y407429D01*
X476454D01*
Y407688D01*
X476583D01*
Y407948D01*
X476713D01*
Y408078D01*
X476843D01*
Y408208D01*
X477102D01*
Y408337D01*
X477232D01*
Y408467D01*
X477492D01*
Y408597D01*
X477881D01*
Y408727D01*
X478530D01*
Y408856D01*
X479308D01*
Y408727D01*
D02*
G37*
G36*
X445348Y462099D02*
X445867D01*
Y461969D01*
X446256D01*
Y461840D01*
X446645D01*
Y461710D01*
X446775D01*
Y461580D01*
X447035D01*
Y461450D01*
X447164D01*
Y461321D01*
X447294D01*
Y461191D01*
X447424D01*
Y461061D01*
X447554D01*
Y460931D01*
X447683D01*
Y460802D01*
X447813D01*
Y460542D01*
X447943D01*
Y460283D01*
X448073D01*
Y459893D01*
X448202D01*
Y459504D01*
X448332D01*
Y457298D01*
X448202D01*
Y456909D01*
X448073D01*
Y456520D01*
X447943D01*
Y456390D01*
X447813D01*
Y456260D01*
X447683D01*
Y456001D01*
X447554D01*
Y455871D01*
X447424D01*
Y455741D01*
X447294D01*
Y455611D01*
X447164D01*
Y455352D01*
X447035D01*
Y455222D01*
X446905D01*
Y455092D01*
X446775D01*
Y454962D01*
X446645D01*
Y454703D01*
X446516D01*
Y454573D01*
X446386D01*
Y454443D01*
X446256D01*
Y454314D01*
X446126D01*
Y454054D01*
X445997D01*
Y453924D01*
X445867D01*
Y453795D01*
X445737D01*
Y453535D01*
X445607D01*
Y453405D01*
X447294D01*
Y453535D01*
X447813D01*
Y453405D01*
X447943D01*
Y452497D01*
X447813D01*
Y449253D01*
X447943D01*
Y448345D01*
X446775D01*
Y449253D01*
X446645D01*
Y449772D01*
X446516D01*
Y450032D01*
X446256D01*
Y450161D01*
X436654D01*
Y450291D01*
X436135D01*
Y450421D01*
X435745D01*
Y450550D01*
X435486D01*
Y450680D01*
X435226D01*
Y450810D01*
X435097D01*
Y450940D01*
X434837D01*
Y451070D01*
X434707D01*
Y451199D01*
X434578D01*
Y451329D01*
X434448D01*
Y451459D01*
X434318D01*
Y451718D01*
X434188D01*
Y451848D01*
X434059D01*
Y452108D01*
X433929D01*
Y452237D01*
X433799D01*
Y452497D01*
X433669D01*
Y452886D01*
X433540D01*
Y453275D01*
X433410D01*
Y453795D01*
X433280D01*
Y454573D01*
X433150D01*
Y456520D01*
X433280D01*
Y457039D01*
X433410D01*
Y457428D01*
X433540D01*
Y457817D01*
X433669D01*
Y458077D01*
X433799D01*
Y458336D01*
X433929D01*
Y458466D01*
X434059D01*
Y458725D01*
X434188D01*
Y458985D01*
X434318D01*
Y459244D01*
X434448D01*
Y459374D01*
X434578D01*
Y459634D01*
X434707D01*
Y459763D01*
X434837D01*
Y460023D01*
X434967D01*
Y460283D01*
X435097D01*
Y460412D01*
X435226D01*
Y460672D01*
X435356D01*
Y460802D01*
X437043D01*
Y460931D01*
X437432D01*
Y460802D01*
X437562D01*
Y460542D01*
X437692D01*
Y459763D01*
X437303D01*
Y459634D01*
X436913D01*
Y459504D01*
X436654D01*
Y459374D01*
X436394D01*
Y459244D01*
X436135D01*
Y459115D01*
X436005D01*
Y458855D01*
X435875D01*
Y458596D01*
X435745D01*
Y458077D01*
X435616D01*
Y457428D01*
X435486D01*
Y456130D01*
X435616D01*
Y455481D01*
X435745D01*
Y455092D01*
X435875D01*
Y454833D01*
X436005D01*
Y454703D01*
X436135D01*
Y454443D01*
X436264D01*
Y454314D01*
X436394D01*
Y454184D01*
X436524D01*
Y454054D01*
X436783D01*
Y453924D01*
X436913D01*
Y453795D01*
X437173D01*
Y453665D01*
X437562D01*
Y453535D01*
X438081D01*
Y453405D01*
X439249D01*
Y453924D01*
X439379D01*
Y454573D01*
X439509D01*
Y455092D01*
X439638D01*
Y455611D01*
X439768D01*
Y456260D01*
X439898D01*
Y456779D01*
X440028D01*
Y457298D01*
X440157D01*
Y457687D01*
X440287D01*
Y458206D01*
X440417D01*
Y458596D01*
X440547D01*
Y458985D01*
X440676D01*
Y459374D01*
X440806D01*
Y459763D01*
X440936D01*
Y460023D01*
X441066D01*
Y460283D01*
X441195D01*
Y460542D01*
X441325D01*
Y460802D01*
X441455D01*
Y460931D01*
X441585D01*
Y461191D01*
X441714D01*
Y461321D01*
X441844D01*
Y461450D01*
X441974D01*
Y461580D01*
X442104D01*
Y461710D01*
X442363D01*
Y461840D01*
X442623D01*
Y461969D01*
X442882D01*
Y462099D01*
X443531D01*
Y462229D01*
X445348D01*
Y462099D01*
D02*
G37*
G36*
X475286Y463615D02*
X475156D01*
Y458555D01*
X475286D01*
Y456738D01*
X474118D01*
Y458036D01*
X473988D01*
Y459074D01*
X473858D01*
Y459333D01*
X473728D01*
Y459463D01*
X473339D01*
Y459593D01*
X465813D01*
Y459463D01*
X465424D01*
Y459333D01*
X465164D01*
Y459203D01*
X464905D01*
Y459074D01*
X464645D01*
Y458944D01*
X464515D01*
Y458814D01*
X464386D01*
Y458684D01*
X464256D01*
Y458425D01*
X464126D01*
Y458295D01*
X463997D01*
Y458036D01*
X463867D01*
Y457646D01*
X463737D01*
Y457127D01*
X463607D01*
Y456219D01*
X463737D01*
Y455700D01*
X463867D01*
Y455311D01*
X463997D01*
Y455181D01*
X464126D01*
Y455051D01*
X464256D01*
Y454921D01*
X464515D01*
Y454791D01*
X464645D01*
Y454662D01*
X464905D01*
Y453883D01*
X462569D01*
Y453753D01*
X461531D01*
Y453624D01*
X460752D01*
Y453883D01*
X460623D01*
Y454402D01*
X460493D01*
Y455959D01*
X460623D01*
Y456349D01*
X460752D01*
Y456738D01*
X460882D01*
Y456997D01*
X461012D01*
Y457127D01*
X461142D01*
Y457387D01*
X461272D01*
Y457517D01*
X461401D01*
Y457646D01*
X461531D01*
Y457776D01*
X461661D01*
Y457906D01*
X461791D01*
Y458036D01*
X461920D01*
Y458165D01*
X462050D01*
Y458295D01*
X462180D01*
Y458425D01*
X462309D01*
Y458555D01*
X462439D01*
Y458684D01*
X462569D01*
Y458814D01*
X462829D01*
Y458944D01*
X462958D01*
Y459074D01*
X463088D01*
Y459203D01*
X463218D01*
Y459333D01*
X463348D01*
Y459463D01*
X463477D01*
Y459593D01*
X463607D01*
Y459722D01*
X462309D01*
Y459593D01*
X460752D01*
Y459722D01*
X460623D01*
Y459852D01*
X460493D01*
Y460242D01*
X460623D01*
Y460501D01*
X460752D01*
Y460890D01*
X460882D01*
Y461280D01*
X461012D01*
Y461669D01*
X461142D01*
Y462058D01*
X461272D01*
Y462577D01*
X461401D01*
Y463096D01*
X461531D01*
Y463875D01*
X461661D01*
Y464783D01*
X461791D01*
Y465302D01*
X462958D01*
Y463485D01*
X463088D01*
Y463096D01*
X463218D01*
Y462966D01*
X463477D01*
Y462837D01*
X473339D01*
Y462966D01*
X473728D01*
Y463096D01*
X473858D01*
Y463356D01*
X473988D01*
Y464134D01*
X474118D01*
Y465302D01*
X475286D01*
Y463615D01*
D02*
G37*
G36*
X469836Y479835D02*
X470485D01*
Y479706D01*
X471004D01*
Y479576D01*
X471393D01*
Y479446D01*
X471782D01*
Y479316D01*
X472042D01*
Y479187D01*
X472301D01*
Y479057D01*
X472561D01*
Y478927D01*
X472690D01*
Y478797D01*
X472950D01*
Y478667D01*
X473080D01*
Y478538D01*
X473339D01*
Y478408D01*
X473469D01*
Y478278D01*
X473599D01*
Y478148D01*
X473728D01*
Y478019D01*
X473858D01*
Y477889D01*
X473988D01*
Y477759D01*
X474118D01*
Y477629D01*
X474248D01*
Y477370D01*
X474377D01*
Y477240D01*
X474507D01*
Y477110D01*
X474637D01*
Y476851D01*
X474767D01*
Y476591D01*
X474896D01*
Y476332D01*
X475026D01*
Y476072D01*
X475156D01*
Y475813D01*
X475286D01*
Y475424D01*
X475415D01*
Y474904D01*
X475545D01*
Y474256D01*
X475675D01*
Y471401D01*
X475545D01*
Y470752D01*
X475415D01*
Y470103D01*
X475286D01*
Y469714D01*
X475156D01*
Y469325D01*
X475026D01*
Y468935D01*
X474896D01*
Y468676D01*
X474767D01*
Y468416D01*
X474637D01*
Y468157D01*
X474507D01*
Y467897D01*
X474377D01*
Y467638D01*
X474118D01*
Y467508D01*
X473728D01*
Y467378D01*
X473469D01*
Y467248D01*
X473209D01*
Y467119D01*
X472950D01*
Y466989D01*
X472561D01*
Y467119D01*
X472431D01*
Y467378D01*
X472301D01*
Y467508D01*
X472431D01*
Y467638D01*
X472561D01*
Y467897D01*
X472690D01*
Y468157D01*
X472820D01*
Y468287D01*
X472950D01*
Y468546D01*
X473080D01*
Y468935D01*
X473209D01*
Y469195D01*
X473339D01*
Y469454D01*
X473469D01*
Y469973D01*
X473599D01*
Y470493D01*
X473728D01*
Y471920D01*
X473599D01*
Y472699D01*
X473469D01*
Y473088D01*
X473339D01*
Y473477D01*
X473209D01*
Y473737D01*
X473080D01*
Y473996D01*
X472950D01*
Y474126D01*
X472820D01*
Y474385D01*
X472690D01*
Y474515D01*
X472561D01*
Y474645D01*
X472431D01*
Y474775D01*
X472301D01*
Y474904D01*
X472171D01*
Y475034D01*
X472042D01*
Y475164D01*
X471912D01*
Y475294D01*
X471652D01*
Y475424D01*
X471523D01*
Y475553D01*
X471263D01*
Y475683D01*
X471004D01*
Y475813D01*
X470744D01*
Y475942D01*
X470355D01*
Y476072D01*
X469966D01*
Y476202D01*
X469446D01*
Y476332D01*
X468668D01*
Y476462D01*
X468019D01*
Y469844D01*
X467889D01*
Y468546D01*
X467760D01*
Y467768D01*
X467630D01*
Y467248D01*
X467500D01*
Y466730D01*
X465294D01*
Y466859D01*
X464515D01*
Y466989D01*
X463997D01*
Y467119D01*
X463607D01*
Y467248D01*
X463348D01*
Y467378D01*
X463088D01*
Y467508D01*
X462829D01*
Y467638D01*
X462699D01*
Y467768D01*
X462439D01*
Y467897D01*
X462309D01*
Y468027D01*
X462180D01*
Y468157D01*
X462050D01*
Y468287D01*
X461920D01*
Y468416D01*
X461791D01*
Y468546D01*
X461661D01*
Y468676D01*
X461531D01*
Y468935D01*
X461401D01*
Y469065D01*
X461272D01*
Y469325D01*
X461142D01*
Y469584D01*
X461012D01*
Y469844D01*
X460882D01*
Y470233D01*
X460752D01*
Y470752D01*
X460623D01*
Y471531D01*
X460493D01*
Y473477D01*
X460623D01*
Y474126D01*
X460752D01*
Y474515D01*
X460882D01*
Y474904D01*
X461012D01*
Y475164D01*
X461142D01*
Y475424D01*
X461272D01*
Y475683D01*
X461401D01*
Y475942D01*
X461531D01*
Y476202D01*
X461661D01*
Y476462D01*
X461791D01*
Y476591D01*
X461920D01*
Y476851D01*
X462050D01*
Y477110D01*
X462180D01*
Y477240D01*
X462309D01*
Y477500D01*
X462439D01*
Y477629D01*
X462569D01*
Y477889D01*
X462699D01*
Y478019D01*
X462829D01*
Y478148D01*
X462958D01*
Y478408D01*
X463088D01*
Y478538D01*
X463218D01*
Y478667D01*
X463477D01*
Y478797D01*
X463607D01*
Y478927D01*
X463737D01*
Y479057D01*
X463997D01*
Y479187D01*
X464256D01*
Y479316D01*
X464515D01*
Y479446D01*
X464905D01*
Y479576D01*
X465294D01*
Y479706D01*
X465943D01*
Y479835D01*
X466721D01*
Y479965D01*
X469836D01*
Y479835D01*
D02*
G37*
G36*
X447943Y445620D02*
X447813D01*
Y440948D01*
X447943D01*
Y439261D01*
X446775D01*
Y440429D01*
X446645D01*
Y441208D01*
X446516D01*
Y441338D01*
X446386D01*
Y441467D01*
X446126D01*
Y441597D01*
X437432D01*
Y441467D01*
X437173D01*
Y441338D01*
X437043D01*
Y441208D01*
X436913D01*
Y441078D01*
X436783D01*
Y440948D01*
X436654D01*
Y440818D01*
X436524D01*
Y440689D01*
X436394D01*
Y440429D01*
X436264D01*
Y440170D01*
X436135D01*
Y439910D01*
X436005D01*
Y439521D01*
X435875D01*
Y439132D01*
X435745D01*
Y437185D01*
X435875D01*
Y436796D01*
X436005D01*
Y436536D01*
X436135D01*
Y436407D01*
X436264D01*
Y436147D01*
X436394D01*
Y436017D01*
X436654D01*
Y435888D01*
X436783D01*
Y435758D01*
X437043D01*
Y435628D01*
X437432D01*
Y435498D01*
X437951D01*
Y435369D01*
X439249D01*
Y435239D01*
X444050D01*
Y435369D01*
X446386D01*
Y435498D01*
X447813D01*
Y435369D01*
X447943D01*
Y434201D01*
X447813D01*
Y431216D01*
X447943D01*
Y430048D01*
X446775D01*
Y431216D01*
X446645D01*
Y431735D01*
X446516D01*
Y431865D01*
X446386D01*
Y431995D01*
X445867D01*
Y432125D01*
X444180D01*
Y431995D01*
X436913D01*
Y432125D01*
X436394D01*
Y432254D01*
X435875D01*
Y432384D01*
X435616D01*
Y432514D01*
X435356D01*
Y432644D01*
X435097D01*
Y432773D01*
X434967D01*
Y432903D01*
X434707D01*
Y433033D01*
X434578D01*
Y433163D01*
X434448D01*
Y433292D01*
X434318D01*
Y433422D01*
X434188D01*
Y433552D01*
X434059D01*
Y433682D01*
X433929D01*
Y433941D01*
X433799D01*
Y434201D01*
X433669D01*
Y434460D01*
X433540D01*
Y434720D01*
X433410D01*
Y435109D01*
X433280D01*
Y435888D01*
X433150D01*
Y437834D01*
X433280D01*
Y438613D01*
X433410D01*
Y439002D01*
X433540D01*
Y439132D01*
X433669D01*
Y439391D01*
X433799D01*
Y439521D01*
X433929D01*
Y439651D01*
X434059D01*
Y439781D01*
X434188D01*
Y439910D01*
X434318D01*
Y440040D01*
X434448D01*
Y440170D01*
X434578D01*
Y440299D01*
X434707D01*
Y440559D01*
X434837D01*
Y440689D01*
X434967D01*
Y440818D01*
X435097D01*
Y440948D01*
X435226D01*
Y441078D01*
X435356D01*
Y441208D01*
X435486D01*
Y441338D01*
X435616D01*
Y441467D01*
X435745D01*
Y441727D01*
X434059D01*
Y441597D01*
X433280D01*
Y441857D01*
X433150D01*
Y442246D01*
X433280D01*
Y442505D01*
X433410D01*
Y442895D01*
X433540D01*
Y443284D01*
X433669D01*
Y443673D01*
X433799D01*
Y444062D01*
X433929D01*
Y444582D01*
X434059D01*
Y445101D01*
X434188D01*
Y445749D01*
X434318D01*
Y446658D01*
X434448D01*
Y447177D01*
X435616D01*
Y445490D01*
X435745D01*
Y445101D01*
X435875D01*
Y444971D01*
X436394D01*
Y444841D01*
X445607D01*
Y444971D01*
X446256D01*
Y445101D01*
X446516D01*
Y445360D01*
X446645D01*
Y446139D01*
X446775D01*
Y447177D01*
X447943D01*
Y445620D01*
D02*
G37*
G36*
X442882Y428102D02*
X443531D01*
Y427972D01*
X444050D01*
Y427842D01*
X444439D01*
Y427713D01*
X444699D01*
Y427583D01*
X444958D01*
Y427453D01*
X445348D01*
Y427323D01*
X445477D01*
Y427194D01*
X445737D01*
Y427064D01*
X445867D01*
Y426934D01*
X446126D01*
Y426804D01*
X446256D01*
Y426675D01*
X446386D01*
Y426545D01*
X446645D01*
Y426415D01*
X446775D01*
Y426285D01*
X446905D01*
Y426026D01*
X447035D01*
Y425896D01*
X447164D01*
Y425766D01*
X447294D01*
Y425636D01*
X447424D01*
Y425377D01*
X447554D01*
Y425247D01*
X447683D01*
Y424988D01*
X447813D01*
Y424728D01*
X447943D01*
Y424339D01*
X448073D01*
Y423950D01*
X448202D01*
Y423431D01*
X448332D01*
Y421095D01*
X448202D01*
Y420446D01*
X448073D01*
Y420057D01*
X447943D01*
Y419927D01*
X447813D01*
Y419797D01*
X447683D01*
Y419538D01*
X447554D01*
Y419408D01*
X447424D01*
Y419278D01*
X447294D01*
Y419148D01*
X447164D01*
Y419019D01*
X447035D01*
Y418889D01*
X446905D01*
Y418759D01*
X446775D01*
Y418500D01*
X446645D01*
Y418370D01*
X446516D01*
Y418240D01*
X446386D01*
Y418110D01*
X446256D01*
Y417981D01*
X446126D01*
Y417721D01*
X445997D01*
Y417591D01*
X445867D01*
Y417462D01*
X445737D01*
Y417332D01*
X445607D01*
Y417072D01*
X447294D01*
Y417202D01*
X447813D01*
Y417072D01*
X447943D01*
Y415775D01*
X447813D01*
Y412660D01*
X447943D01*
Y411493D01*
X446775D01*
Y412531D01*
X446645D01*
Y413309D01*
X446516D01*
Y413569D01*
X446256D01*
Y413699D01*
X445348D01*
Y413828D01*
X427570D01*
Y413699D01*
X425365D01*
Y413828D01*
X425235D01*
Y414477D01*
X425365D01*
Y414866D01*
X425494D01*
Y415126D01*
X425624D01*
Y415515D01*
X425754D01*
Y416034D01*
X425884D01*
Y416423D01*
X426013D01*
Y417072D01*
X426143D01*
Y417591D01*
X426273D01*
Y418370D01*
X426403D01*
Y419278D01*
X426532D01*
Y419408D01*
X427570D01*
Y419278D01*
X427700D01*
Y417332D01*
X427830D01*
Y417202D01*
X427960D01*
Y417072D01*
X434059D01*
Y417202D01*
X433929D01*
Y417462D01*
X433799D01*
Y417721D01*
X433669D01*
Y417981D01*
X433540D01*
Y418370D01*
X433410D01*
Y418759D01*
X433280D01*
Y419408D01*
X433150D01*
Y421354D01*
X433280D01*
Y421874D01*
X433410D01*
Y422263D01*
X433540D01*
Y422652D01*
X433669D01*
Y422911D01*
X433799D01*
Y423171D01*
X433929D01*
Y423431D01*
X434059D01*
Y423560D01*
X434188D01*
Y423820D01*
X434318D01*
Y424079D01*
X434448D01*
Y424339D01*
X434578D01*
Y424469D01*
X434707D01*
Y424728D01*
X434837D01*
Y424988D01*
X434967D01*
Y425117D01*
X435097D01*
Y425377D01*
X435226D01*
Y425507D01*
X435356D01*
Y425766D01*
X435486D01*
Y425896D01*
X435616D01*
Y426156D01*
X435745D01*
Y426285D01*
X435875D01*
Y426415D01*
X436005D01*
Y426545D01*
X436135D01*
Y426804D01*
X436394D01*
Y426934D01*
X436524D01*
Y427064D01*
X436654D01*
Y427194D01*
X436783D01*
Y427323D01*
X437043D01*
Y427453D01*
X437173D01*
Y427583D01*
X437432D01*
Y427713D01*
X437822D01*
Y427842D01*
X438081D01*
Y427972D01*
X438600D01*
Y428102D01*
X439249D01*
Y428232D01*
X442882D01*
Y428102D01*
D02*
G37*
G36*
X475156Y427282D02*
X475286D01*
Y425725D01*
X475156D01*
Y421054D01*
X475286D01*
Y419497D01*
X474118D01*
Y420535D01*
X473988D01*
Y421313D01*
X473858D01*
Y421573D01*
X473599D01*
Y421703D01*
X472820D01*
Y421832D01*
X465035D01*
Y421703D01*
X464645D01*
Y421573D01*
X464515D01*
Y421443D01*
X464256D01*
Y421313D01*
X464126D01*
Y421184D01*
X463997D01*
Y420924D01*
X463867D01*
Y420794D01*
X463737D01*
Y420535D01*
X463607D01*
Y420405D01*
X463477D01*
Y420016D01*
X463348D01*
Y419756D01*
X463218D01*
Y419237D01*
X463088D01*
Y417291D01*
X463218D01*
Y416901D01*
X463348D01*
Y416642D01*
X463477D01*
Y416512D01*
X463607D01*
Y416382D01*
X463737D01*
Y416253D01*
X463867D01*
Y416123D01*
X463997D01*
Y415993D01*
X464256D01*
Y415863D01*
X464515D01*
Y415734D01*
X464905D01*
Y415604D01*
X465554D01*
Y415474D01*
X473080D01*
Y415604D01*
X474507D01*
Y415734D01*
X475026D01*
Y415604D01*
X475156D01*
Y415474D01*
X475286D01*
Y414306D01*
X475156D01*
Y411322D01*
X475286D01*
Y410284D01*
X475156D01*
Y410154D01*
X474118D01*
Y411322D01*
X473988D01*
Y411841D01*
X473858D01*
Y411971D01*
X473728D01*
Y412100D01*
X473469D01*
Y412230D01*
X468279D01*
Y412100D01*
X464645D01*
Y412230D01*
X463867D01*
Y412360D01*
X463348D01*
Y412490D01*
X463088D01*
Y412619D01*
X462829D01*
Y412749D01*
X462569D01*
Y412879D01*
X462309D01*
Y413009D01*
X462180D01*
Y413138D01*
X461920D01*
Y413268D01*
X461791D01*
Y413398D01*
X461661D01*
Y413528D01*
X461531D01*
Y413787D01*
X461401D01*
Y413917D01*
X461272D01*
Y414047D01*
X461142D01*
Y414306D01*
X461012D01*
Y414566D01*
X460882D01*
Y414955D01*
X460752D01*
Y415344D01*
X460623D01*
Y415993D01*
X460493D01*
Y417939D01*
X460623D01*
Y418718D01*
X460752D01*
Y419107D01*
X460882D01*
Y419367D01*
X461012D01*
Y419497D01*
X461142D01*
Y419626D01*
X461272D01*
Y419756D01*
X461401D01*
Y419886D01*
X461531D01*
Y420016D01*
X461661D01*
Y420275D01*
X461791D01*
Y420405D01*
X461920D01*
Y420535D01*
X462050D01*
Y420664D01*
X462180D01*
Y420794D01*
X462309D01*
Y420924D01*
X462439D01*
Y421054D01*
X462569D01*
Y421184D01*
X462699D01*
Y421443D01*
X462829D01*
Y421573D01*
X462958D01*
Y421703D01*
X463088D01*
Y421832D01*
X460623D01*
Y421962D01*
X460493D01*
Y422351D01*
X460623D01*
Y422611D01*
X460752D01*
Y423000D01*
X460882D01*
Y423390D01*
X461012D01*
Y423779D01*
X461142D01*
Y424298D01*
X461272D01*
Y424687D01*
X461401D01*
Y425336D01*
X461531D01*
Y425985D01*
X461661D01*
Y426763D01*
X461791D01*
Y427412D01*
X462829D01*
Y427282D01*
X462958D01*
Y425725D01*
X463088D01*
Y425206D01*
X463348D01*
Y425076D01*
X473469D01*
Y425206D01*
X473728D01*
Y425336D01*
X473858D01*
Y425466D01*
X473988D01*
Y426244D01*
X474118D01*
Y427412D01*
X475156D01*
Y427282D01*
D02*
G37*
G36*
X454784Y445578D02*
X454913D01*
Y444411D01*
X455043D01*
Y443892D01*
X455173D01*
Y443762D01*
X455303D01*
Y443632D01*
X455432D01*
Y443502D01*
X455951D01*
Y443373D01*
X458806D01*
Y443243D01*
X468668D01*
Y443373D01*
X473209D01*
Y443502D01*
X473599D01*
Y443632D01*
X473728D01*
Y443762D01*
X473858D01*
Y443892D01*
X473988D01*
Y444151D01*
X474118D01*
Y444411D01*
X474248D01*
Y444800D01*
X474377D01*
Y444930D01*
X475286D01*
Y443892D01*
X475156D01*
Y432992D01*
X475286D01*
Y429488D01*
X475156D01*
Y429358D01*
X472820D01*
Y429229D01*
X471133D01*
Y429099D01*
X469966D01*
Y429229D01*
X469836D01*
Y430267D01*
X469966D01*
Y430396D01*
X470744D01*
Y430526D01*
X471393D01*
Y430656D01*
X472042D01*
Y430786D01*
X472561D01*
Y430916D01*
X472820D01*
Y431045D01*
X473080D01*
Y431175D01*
X473209D01*
Y431564D01*
X473339D01*
Y432732D01*
X473469D01*
Y435976D01*
X473599D01*
Y439739D01*
X465035D01*
Y434938D01*
X465164D01*
Y434030D01*
X465294D01*
Y433641D01*
X465424D01*
Y433511D01*
X465554D01*
Y433381D01*
X465813D01*
Y433251D01*
X466332D01*
Y433121D01*
X466981D01*
Y432992D01*
X467889D01*
Y431824D01*
X465683D01*
Y431954D01*
X463218D01*
Y431824D01*
X460882D01*
Y431954D01*
X460752D01*
Y432862D01*
X460882D01*
Y432992D01*
X461920D01*
Y433121D01*
X462569D01*
Y433251D01*
X462958D01*
Y433381D01*
X463088D01*
Y433511D01*
X463218D01*
Y433900D01*
X463348D01*
Y435327D01*
X463477D01*
Y437663D01*
X463348D01*
Y439739D01*
X456730D01*
Y439609D01*
X455432D01*
Y437274D01*
X455303D01*
Y435976D01*
X455432D01*
Y433381D01*
X455562D01*
Y432343D01*
X455692D01*
Y431694D01*
X455821D01*
Y431435D01*
X456211D01*
Y431305D01*
X458157D01*
Y431175D01*
X458806D01*
Y430137D01*
X458676D01*
Y430007D01*
X457379D01*
Y429878D01*
X455562D01*
Y429748D01*
X454135D01*
Y429618D01*
X453745D01*
Y429748D01*
X453616D01*
Y431954D01*
X453745D01*
Y444800D01*
X453616D01*
Y446098D01*
X453745D01*
Y446227D01*
X454784D01*
Y445578D01*
D02*
G37*
G36*
X475286Y313223D02*
X475156D01*
Y308551D01*
X475286D01*
Y306994D01*
X475156D01*
Y306864D01*
X474118D01*
Y308032D01*
X473988D01*
Y308811D01*
X473858D01*
Y308941D01*
X473728D01*
Y309070D01*
X473469D01*
Y309200D01*
X464775D01*
Y309070D01*
X464515D01*
Y308941D01*
X464386D01*
Y308811D01*
X464256D01*
Y308681D01*
X464126D01*
Y308551D01*
X463997D01*
Y308422D01*
X463867D01*
Y308292D01*
X463737D01*
Y308032D01*
X463607D01*
Y307773D01*
X463477D01*
Y307513D01*
X463348D01*
Y307124D01*
X463218D01*
Y306735D01*
X463088D01*
Y304788D01*
X463218D01*
Y304399D01*
X463348D01*
Y304139D01*
X463477D01*
Y304010D01*
X463607D01*
Y303750D01*
X463737D01*
Y303620D01*
X463997D01*
Y303491D01*
X464126D01*
Y303361D01*
X464386D01*
Y303231D01*
X464775D01*
Y303102D01*
X465294D01*
Y302972D01*
X466721D01*
Y302842D01*
X471004D01*
Y302972D01*
X473599D01*
Y303102D01*
X475156D01*
Y302972D01*
X475286D01*
Y301804D01*
X475156D01*
Y298819D01*
X475286D01*
Y297652D01*
X474118D01*
Y298819D01*
X473988D01*
Y299338D01*
X473858D01*
Y299468D01*
X473728D01*
Y299598D01*
X473209D01*
Y299728D01*
X470874D01*
Y299598D01*
X464386D01*
Y299728D01*
X463737D01*
Y299857D01*
X463348D01*
Y299987D01*
X462958D01*
Y300117D01*
X462699D01*
Y300247D01*
X462439D01*
Y300376D01*
X462309D01*
Y300506D01*
X462050D01*
Y300636D01*
X461920D01*
Y300766D01*
X461791D01*
Y300896D01*
X461661D01*
Y301025D01*
X461531D01*
Y301155D01*
X461401D01*
Y301415D01*
X461272D01*
Y301544D01*
X461142D01*
Y301804D01*
X461012D01*
Y302063D01*
X460882D01*
Y302323D01*
X460752D01*
Y302712D01*
X460623D01*
Y303491D01*
X460493D01*
Y305437D01*
X460623D01*
Y306216D01*
X460752D01*
Y306605D01*
X460882D01*
Y306735D01*
X461012D01*
Y306994D01*
X461142D01*
Y307124D01*
X461272D01*
Y307254D01*
X461401D01*
Y307384D01*
X461531D01*
Y307513D01*
X461661D01*
Y307643D01*
X461791D01*
Y307773D01*
X461920D01*
Y307903D01*
X462050D01*
Y308162D01*
X462180D01*
Y308292D01*
X462309D01*
Y308422D01*
X462439D01*
Y308551D01*
X462569D01*
Y308681D01*
X462699D01*
Y308811D01*
X462829D01*
Y308941D01*
X462958D01*
Y309070D01*
X463088D01*
Y309330D01*
X461272D01*
Y309200D01*
X460752D01*
Y309330D01*
X460623D01*
Y309460D01*
X460493D01*
Y309849D01*
X460623D01*
Y310109D01*
X460752D01*
Y310498D01*
X460882D01*
Y310887D01*
X461012D01*
Y311276D01*
X461142D01*
Y311666D01*
X461272D01*
Y312185D01*
X461401D01*
Y312704D01*
X461531D01*
Y313482D01*
X461661D01*
Y314261D01*
X461791D01*
Y314780D01*
X462958D01*
Y313093D01*
X463088D01*
Y312704D01*
X463218D01*
Y312574D01*
X463867D01*
Y312444D01*
X472820D01*
Y312574D01*
X473599D01*
Y312704D01*
X473858D01*
Y312963D01*
X473988D01*
Y313742D01*
X474118D01*
Y314780D01*
X475286D01*
Y313223D01*
D02*
G37*
G36*
X651101Y520340D02*
X651416Y520261D01*
X651692Y520182D01*
X651928Y520064D01*
X652124Y519946D01*
X652282Y519828D01*
X652361Y519789D01*
X652400Y519750D01*
X652597Y519474D01*
X652754Y519199D01*
X652872Y518923D01*
X652951Y518687D01*
X652990Y518451D01*
X653029Y518255D01*
Y518136D01*
Y518097D01*
X652990Y517743D01*
X652911Y517428D01*
X652833Y517153D01*
X652715Y516917D01*
X652597Y516759D01*
X652478Y516602D01*
X652439Y516523D01*
X652400Y516484D01*
X652124Y516248D01*
X651849Y516091D01*
X651574Y515973D01*
X651338Y515894D01*
X651101Y515854D01*
X650905Y515815D01*
X650747D01*
X650393Y515854D01*
X650079Y515933D01*
X649803Y516012D01*
X649567Y516130D01*
X649410Y516287D01*
X649252Y516366D01*
X649174Y516445D01*
X649134Y516484D01*
X648898Y516759D01*
X648741Y517035D01*
X648623Y517271D01*
X648544Y517546D01*
X648505Y517743D01*
X648465Y517940D01*
Y518058D01*
Y518097D01*
X648505Y518451D01*
X648583Y518766D01*
X648662Y519041D01*
X648780Y519277D01*
X648938Y519474D01*
X649016Y519632D01*
X649095Y519710D01*
X649134Y519750D01*
X649410Y519946D01*
X649685Y520104D01*
X649921Y520222D01*
X650197Y520300D01*
X650393Y520340D01*
X650590Y520379D01*
X650747D01*
X651101Y520340D01*
D02*
G37*
G36*
X664439Y524786D02*
X664754Y524707D01*
X665029Y524550D01*
X665226Y524392D01*
X665423Y524274D01*
X665541Y524117D01*
X665620Y524038D01*
X665659Y523999D01*
X665856Y523645D01*
X666013Y523291D01*
X666092Y522897D01*
X666170Y522543D01*
X666210Y522228D01*
X666249Y521953D01*
Y521796D01*
Y521717D01*
Y519120D01*
X666210Y518648D01*
X666170Y518255D01*
X666092Y517901D01*
X665974Y517625D01*
X665856Y517389D01*
X665777Y517192D01*
X665738Y517114D01*
X665698Y517074D01*
X665462Y516838D01*
X665226Y516641D01*
X664951Y516523D01*
X664715Y516405D01*
X664518Y516366D01*
X664321Y516327D01*
X664164D01*
X663888Y516366D01*
X663652Y516405D01*
X663298Y516641D01*
X663023Y516996D01*
X662866Y517350D01*
X662747Y517743D01*
X662708Y518097D01*
X662669Y518333D01*
Y518373D01*
Y518412D01*
Y520261D01*
X656885Y517940D01*
X656492Y517782D01*
X656177Y517664D01*
X655901Y517586D01*
X655665Y517507D01*
X655508D01*
X655351Y517468D01*
X655272D01*
X655036Y517507D01*
X654839Y517546D01*
X654485Y517704D01*
X654249Y517901D01*
X654210Y517940D01*
X654170Y517979D01*
X654013Y518176D01*
X653895Y518373D01*
X653737Y518766D01*
Y518923D01*
X653698Y519041D01*
Y519120D01*
Y519160D01*
X653737Y519474D01*
X653777Y519750D01*
X653974Y520261D01*
X654288Y520655D01*
X654642Y521009D01*
X654997Y521284D01*
X655272Y521441D01*
X655508Y521559D01*
X655547Y521599D01*
X655587D01*
X656020Y521796D01*
X662708Y524510D01*
X663259Y524707D01*
X663692Y524786D01*
X663849Y524825D01*
X664085D01*
X664439Y524786D01*
D02*
G37*
G36*
X665266Y541901D02*
X665462Y541861D01*
X665777Y541704D01*
X666013Y541547D01*
X666052Y541468D01*
X666092D01*
X666328Y541074D01*
X666446Y540720D01*
Y540563D01*
X666485Y540445D01*
Y540366D01*
Y540327D01*
X666446Y540012D01*
X666406Y539737D01*
X666170Y539225D01*
X665816Y538792D01*
X665423Y538399D01*
X665029Y538124D01*
X664675Y537927D01*
X664439Y537809D01*
X664400Y537770D01*
X664361D01*
X659836Y535920D01*
X659324Y535684D01*
X658892Y535488D01*
X658498Y535251D01*
X658184Y534976D01*
X657908Y534740D01*
X657672Y534504D01*
X657475Y534307D01*
X657318Y534071D01*
X657121Y533678D01*
X657003Y533363D01*
X656964Y533166D01*
Y533088D01*
X657003Y532655D01*
X657121Y532340D01*
X657279Y532143D01*
X657436Y531986D01*
X657593Y531907D01*
X657751Y531828D01*
X657908D01*
X658223Y531868D01*
X658577Y531986D01*
X658734Y532025D01*
X658852Y532104D01*
X658931Y532143D01*
X658970D01*
X662708Y533638D01*
X663338Y533835D01*
X663574Y533914D01*
X663810Y533953D01*
X663967D01*
X664085Y533992D01*
X664203D01*
X664518Y533953D01*
X664793Y533874D01*
X665029Y533756D01*
X665266Y533638D01*
X665423Y533520D01*
X665541Y533402D01*
X665620Y533324D01*
X665659Y533284D01*
X665856Y533009D01*
X666013Y532694D01*
X666092Y532419D01*
X666170Y532143D01*
X666210Y531868D01*
X666249Y531671D01*
Y531553D01*
Y531514D01*
Y528248D01*
X666210Y527776D01*
X666170Y527343D01*
X666092Y527028D01*
X665974Y526714D01*
X665856Y526478D01*
X665777Y526320D01*
X665738Y526241D01*
X665698Y526202D01*
X665462Y525966D01*
X665226Y525769D01*
X664951Y525651D01*
X664715Y525533D01*
X664518Y525494D01*
X664321Y525455D01*
X664164D01*
X663888Y525494D01*
X663652Y525533D01*
X663298Y525769D01*
X663023Y526124D01*
X662866Y526478D01*
X662747Y526871D01*
X662708Y527225D01*
X662669Y527461D01*
Y527500D01*
Y527540D01*
Y529428D01*
X658380Y527697D01*
X658026Y527540D01*
X657711Y527461D01*
X657397Y527383D01*
X657121Y527304D01*
X656924D01*
X656767Y527265D01*
X656610D01*
X656098Y527304D01*
X655665Y527422D01*
X655311Y527579D01*
X654957Y527776D01*
X654721Y527973D01*
X654524Y528130D01*
X654406Y528248D01*
X654367Y528287D01*
X654052Y528681D01*
X653856Y529114D01*
X653698Y529547D01*
X653580Y529979D01*
X653502Y530333D01*
X653462Y530609D01*
Y530806D01*
Y530884D01*
X653502Y531317D01*
X653620Y531789D01*
X653777Y532261D01*
X653934Y532733D01*
X654092Y533127D01*
X654249Y533442D01*
X654367Y533638D01*
X654406Y533678D01*
Y533717D01*
X646734Y530609D01*
X646341Y530451D01*
X646026Y530373D01*
X645751Y530294D01*
X645554Y530215D01*
X645396D01*
X645239Y530176D01*
X645160D01*
X644924Y530215D01*
X644728Y530255D01*
X644373Y530412D01*
X644137Y530609D01*
X644098Y530648D01*
X644059Y530687D01*
X643901Y530884D01*
X643783Y531081D01*
X643626Y531435D01*
Y531592D01*
X643587Y531710D01*
Y531789D01*
Y531828D01*
X643626Y532104D01*
X643665Y532419D01*
X643783Y532655D01*
X643941Y532891D01*
X644295Y533363D01*
X644728Y533717D01*
X645160Y533992D01*
X645515Y534229D01*
X645672Y534268D01*
X645751Y534347D01*
X645829Y534386D01*
X645869D01*
X663495Y541547D01*
X663967Y541704D01*
X664400Y541822D01*
X664715Y541901D01*
X664951Y541940D01*
X665029D01*
X665266Y541901D01*
D02*
G37*
G36*
X664715Y506609D02*
X664990Y506569D01*
X665226Y506451D01*
X665423Y506333D01*
X665580Y506255D01*
X665698Y506136D01*
X665738Y506097D01*
X665777Y506058D01*
X665934Y505822D01*
X666052Y505546D01*
X666170Y505035D01*
X666210Y504838D01*
X666249Y504641D01*
Y504523D01*
Y504484D01*
Y496340D01*
X666210Y495868D01*
X666170Y495435D01*
X666092Y495081D01*
X665974Y494805D01*
X665856Y494569D01*
X665777Y494372D01*
X665738Y494294D01*
X665698Y494254D01*
X665462Y494018D01*
X665226Y493822D01*
X664951Y493703D01*
X664715Y493586D01*
X664479Y493546D01*
X664282Y493507D01*
X664125D01*
X663849Y493546D01*
X663613Y493586D01*
X663259Y493822D01*
X662983Y494176D01*
X662826Y494569D01*
X662708Y494963D01*
X662669Y495317D01*
X662629Y495553D01*
Y495592D01*
Y495631D01*
Y500510D01*
X655508Y493467D01*
X655154Y493153D01*
X654800Y492877D01*
X654092Y492444D01*
X653423Y492130D01*
X652793Y491933D01*
X652242Y491776D01*
X651810Y491736D01*
X651652Y491697D01*
X650944D01*
X650511Y491776D01*
X649724Y491972D01*
X649055Y492248D01*
X648465Y492523D01*
X648033Y492838D01*
X647679Y493113D01*
X647482Y493310D01*
X647403Y493349D01*
Y493389D01*
X646892Y494058D01*
X646498Y494766D01*
X646223Y495474D01*
X646026Y496182D01*
X645908Y496772D01*
X645869Y497009D01*
Y497244D01*
X645829Y497441D01*
Y497559D01*
Y497638D01*
Y497677D01*
Y498189D01*
X645908Y498661D01*
X646105Y499566D01*
X646380Y500353D01*
X646695Y501022D01*
X647049Y501533D01*
X647324Y501966D01*
X647442Y502084D01*
X647521Y502202D01*
X647560Y502241D01*
X647600Y502281D01*
X647954Y502595D01*
X648308Y502871D01*
X649016Y503343D01*
X649764Y503658D01*
X650433Y503894D01*
X651023Y504012D01*
X651298Y504090D01*
X651495D01*
X651692Y504130D01*
X651928D01*
X652557Y504090D01*
X653147Y504012D01*
X653659Y503854D01*
X654092Y503697D01*
X654446Y503540D01*
X654682Y503382D01*
X654878Y503304D01*
X654918Y503264D01*
X655311Y502910D01*
X655587Y502556D01*
X655823Y502241D01*
X655941Y501887D01*
X656020Y501612D01*
X656059Y501376D01*
X656098Y501218D01*
Y501179D01*
X656059Y500864D01*
X656020Y500589D01*
X655941Y500353D01*
X655823Y500156D01*
X655744Y499999D01*
X655665Y499881D01*
X655626Y499841D01*
X655587Y499802D01*
X655390Y499605D01*
X655154Y499487D01*
X654721Y499330D01*
X654524Y499291D01*
X654367Y499251D01*
X654249D01*
X653816Y499330D01*
X653423Y499448D01*
X653226Y499526D01*
X653108Y499566D01*
X653029Y499645D01*
X652990D01*
X652439Y499881D01*
X651967Y499999D01*
X651810D01*
X651692Y500038D01*
X651574D01*
X651259Y499999D01*
X650983Y499959D01*
X650551Y499723D01*
X650393Y499645D01*
X650275Y499526D01*
X650197Y499487D01*
X650157Y499448D01*
X649960Y499212D01*
X649803Y498936D01*
X649685Y498700D01*
X649606Y498464D01*
X649567Y498268D01*
X649528Y498110D01*
Y497992D01*
Y497953D01*
X649567Y497638D01*
X649606Y497363D01*
X649724Y497127D01*
X649803Y496890D01*
X649921Y496733D01*
X650039Y496615D01*
X650079Y496536D01*
X650118Y496497D01*
X650354Y496300D01*
X650590Y496143D01*
X650826Y496025D01*
X651023Y495946D01*
X651219Y495907D01*
X651377Y495868D01*
X651495D01*
X651810Y495907D01*
X652124Y495985D01*
X652400Y496104D01*
X652675Y496261D01*
X652872Y496418D01*
X653029Y496536D01*
X653147Y496615D01*
X653187Y496654D01*
X662669Y505861D01*
X662983Y506136D01*
X663298Y506333D01*
X663574Y506451D01*
X663849Y506530D01*
X664085Y506609D01*
X664242Y506648D01*
X664400D01*
X664715Y506609D01*
D02*
G37*
G36*
X655311Y457388D02*
X656059Y457231D01*
X656728Y457034D01*
X657279Y456759D01*
X657711Y456523D01*
X658026Y456326D01*
X658223Y456169D01*
X658301Y456129D01*
X658774Y455579D01*
X659128Y455028D01*
X659364Y454438D01*
X659521Y453848D01*
X659639Y453336D01*
X659679Y452943D01*
X659718Y452785D01*
Y452667D01*
Y452628D01*
Y452588D01*
Y452077D01*
X662787Y454123D01*
X663220Y454398D01*
X663652Y454595D01*
X664007Y454752D01*
X664282Y454831D01*
X664557Y454910D01*
X664715Y454949D01*
X664872D01*
X665108Y454910D01*
X665344Y454870D01*
X665698Y454674D01*
X665934Y454516D01*
X665974Y454477D01*
X666013Y454438D01*
X666170Y454241D01*
X666289Y454005D01*
X666406Y453611D01*
X666446Y453454D01*
X666485Y453297D01*
Y453218D01*
Y453179D01*
X666406Y452628D01*
X666289Y452195D01*
X666210Y452038D01*
X666170Y451920D01*
X666092Y451880D01*
Y451841D01*
X665895Y451644D01*
X665698Y451408D01*
X665187Y451015D01*
X664951Y450818D01*
X664754Y450700D01*
X664597Y450621D01*
X664557Y450582D01*
X655980Y445152D01*
X655115Y444680D01*
X654328Y444326D01*
X653580Y444051D01*
X652911Y443893D01*
X652321Y443775D01*
X651888Y443736D01*
X651731Y443697D01*
X651534D01*
X650629Y443775D01*
X649842Y443972D01*
X649134Y444208D01*
X648544Y444523D01*
X648072Y444837D01*
X647718Y445074D01*
X647521Y445270D01*
X647442Y445349D01*
X646892Y445979D01*
X646498Y446687D01*
X646223Y447395D01*
X646026Y448064D01*
X645908Y448654D01*
X645869Y448890D01*
Y449126D01*
X645829Y449323D01*
Y449441D01*
Y449520D01*
Y449559D01*
X645869Y450149D01*
X645947Y450700D01*
X646065Y451251D01*
X646223Y451762D01*
X646656Y452667D01*
X647088Y453454D01*
X647364Y453808D01*
X647560Y454123D01*
X647796Y454359D01*
X647993Y454595D01*
X648151Y454752D01*
X648269Y454870D01*
X648347Y454949D01*
X648387Y454988D01*
X648898Y455421D01*
X649410Y455775D01*
X649960Y456129D01*
X650472Y456405D01*
X650983Y456641D01*
X651495Y456838D01*
X652439Y457113D01*
X652872Y457231D01*
X653265Y457310D01*
X653620Y457349D01*
X653895Y457388D01*
X654170Y457428D01*
X654485D01*
X655311Y457388D01*
D02*
G37*
G36*
X665187Y471789D02*
X665384Y471749D01*
X665738Y471592D01*
X665974Y471435D01*
X666013Y471356D01*
X666052D01*
X666210Y471159D01*
X666289Y470962D01*
X666446Y470569D01*
Y470411D01*
X666485Y470294D01*
Y470215D01*
Y470176D01*
X666446Y469861D01*
X666367Y469585D01*
X666289Y469310D01*
X666131Y469074D01*
X665777Y468641D01*
X665344Y468248D01*
X664911Y467972D01*
X664557Y467736D01*
X664400Y467657D01*
X664282Y467618D01*
X664242Y467579D01*
X664203D01*
X648741Y461323D01*
X648308Y461166D01*
X647954Y461087D01*
X647757Y461048D01*
X647679D01*
X647403Y461087D01*
X647128Y461126D01*
X646734Y461362D01*
X646459Y461677D01*
X646262Y462031D01*
X646144Y462385D01*
X646105Y462700D01*
X646065Y462936D01*
Y462975D01*
Y463015D01*
Y466320D01*
X646105Y466792D01*
X646144Y467225D01*
X646262Y467579D01*
X646341Y467854D01*
X646459Y468090D01*
X646577Y468248D01*
X646616Y468366D01*
X646656Y468405D01*
X646892Y468641D01*
X647128Y468798D01*
X647403Y468956D01*
X647639Y469035D01*
X647875Y469074D01*
X648072Y469113D01*
X648229D01*
X648505Y469074D01*
X648741Y469035D01*
X649095Y468798D01*
X649370Y468444D01*
X649528Y468051D01*
X649646Y467697D01*
X649685Y467343D01*
X649724Y467107D01*
Y467067D01*
Y467028D01*
Y465887D01*
X663377Y471435D01*
X663810Y471592D01*
X664242Y471710D01*
X664597Y471789D01*
X664872Y471828D01*
X664951D01*
X665187Y471789D01*
D02*
G37*
G36*
X661764Y490792D02*
X662629Y490635D01*
X663338Y490399D01*
X663967Y490123D01*
X664439Y489887D01*
X664793Y489651D01*
X664990Y489494D01*
X665069Y489415D01*
X665580Y488825D01*
X665974Y488156D01*
X666210Y487448D01*
X666406Y486818D01*
X666525Y486228D01*
X666564Y485756D01*
X666603Y485559D01*
Y485441D01*
Y485363D01*
Y485323D01*
X666564Y484772D01*
X666525Y484221D01*
X666289Y483238D01*
X666013Y482372D01*
X665659Y481585D01*
X665305Y480995D01*
X665147Y480720D01*
X664990Y480523D01*
X664872Y480366D01*
X664793Y480248D01*
X664754Y480169D01*
X664715Y480130D01*
X664321Y479736D01*
X663928Y479343D01*
X663023Y478595D01*
X662118Y477966D01*
X661213Y477454D01*
X660426Y477021D01*
X660072Y476825D01*
X659757Y476707D01*
X659521Y476589D01*
X659324Y476510D01*
X659206Y476431D01*
X659167D01*
X657829Y475920D01*
X656531Y475566D01*
X655311Y475290D01*
X654761Y475212D01*
X654249Y475133D01*
X653777Y475054D01*
X653344Y475015D01*
X652951Y474976D01*
X652636D01*
X652400Y474936D01*
X652046D01*
X651023Y475015D01*
X650157Y475172D01*
X649370Y475408D01*
X648701Y475644D01*
X648190Y475920D01*
X647836Y476156D01*
X647600Y476313D01*
X647521Y476392D01*
X647206Y476667D01*
X646970Y476982D01*
X646537Y477572D01*
X646223Y478241D01*
X646026Y478831D01*
X645908Y479382D01*
X645869Y479854D01*
X645829Y480012D01*
Y480130D01*
Y480208D01*
Y480248D01*
X645869Y480759D01*
X645908Y481271D01*
X646183Y482254D01*
X646537Y483159D01*
X646931Y483907D01*
X647324Y484576D01*
X647521Y484851D01*
X647679Y485048D01*
X647836Y485244D01*
X647954Y485363D01*
X647993Y485441D01*
X648033Y485480D01*
X648898Y486307D01*
X649842Y487054D01*
X650787Y487723D01*
X651731Y488274D01*
X652164Y488510D01*
X652557Y488746D01*
X652911Y488904D01*
X653226Y489061D01*
X653462Y489179D01*
X653659Y489258D01*
X653777Y489336D01*
X653816D01*
X655154Y489848D01*
X656452Y490241D01*
X657633Y490477D01*
X658184Y490595D01*
X658656Y490674D01*
X659128Y490753D01*
X659560Y490792D01*
X659915Y490831D01*
X660229D01*
X660465Y490871D01*
X660820D01*
X661764Y490792D01*
D02*
G37*
G36*
X666289Y563698D02*
X666918Y563619D01*
X667548Y563501D01*
X668098Y563344D01*
X668649Y563186D01*
X669121Y562950D01*
X669593Y562753D01*
X669987Y562517D01*
X670380Y562281D01*
X670695Y562084D01*
X670971Y561848D01*
X671207Y561691D01*
X671403Y561534D01*
X671521Y561416D01*
X671600Y561337D01*
X671639Y561298D01*
X672072Y560825D01*
X672426Y560314D01*
X672741Y559803D01*
X673016Y559291D01*
X673213Y558779D01*
X673410Y558229D01*
X673685Y557245D01*
X673803Y556812D01*
X673882Y556380D01*
X673921Y555986D01*
X673961Y555671D01*
X674000Y555396D01*
Y555199D01*
Y555081D01*
Y555042D01*
X673961Y554137D01*
X673843Y553271D01*
X673685Y552445D01*
X673449Y551698D01*
X673174Y550989D01*
X672898Y550320D01*
X672584Y549730D01*
X672230Y549179D01*
X671915Y548668D01*
X671600Y548235D01*
X671325Y547881D01*
X671049Y547566D01*
X670813Y547330D01*
X670656Y547173D01*
X670538Y547055D01*
X670498Y547015D01*
X670026Y546622D01*
X669515Y546268D01*
X669003Y545993D01*
X668492Y545717D01*
X667980Y545481D01*
X667508Y545324D01*
X666603Y545048D01*
X666170Y544969D01*
X665777Y544891D01*
X665462Y544851D01*
X665147Y544812D01*
X664911Y544773D01*
X664597D01*
X663967Y544812D01*
X663338Y544891D01*
X662708Y545009D01*
X662118Y545166D01*
X660977Y545599D01*
X660465Y545796D01*
X659993Y546032D01*
X659560Y546307D01*
X659206Y546504D01*
X658852Y546740D01*
X658577Y546937D01*
X658341Y547094D01*
X658184Y547212D01*
X658065Y547291D01*
X658026Y547330D01*
X656964Y548196D01*
X655036Y549691D01*
Y548038D01*
Y547409D01*
X654997Y546858D01*
X654957Y546307D01*
X654878Y545796D01*
X654800Y545363D01*
X654721Y544969D01*
X654642Y544576D01*
X654524Y544261D01*
X654446Y543986D01*
X654367Y543711D01*
X654210Y543356D01*
X654092Y543120D01*
X654052Y543042D01*
X653698Y542530D01*
X653344Y542137D01*
X652951Y541743D01*
X652557Y541428D01*
X652164Y541153D01*
X651731Y540917D01*
X651338Y540760D01*
X650944Y540602D01*
X650197Y540406D01*
X649921Y540327D01*
X649646Y540288D01*
X649410Y540248D01*
X648662D01*
X648229Y540327D01*
X647442Y540524D01*
X646774Y540799D01*
X646183Y541114D01*
X645751Y541468D01*
X645396Y541743D01*
X645200Y541940D01*
X645121Y541979D01*
Y542019D01*
X644610Y542727D01*
X644216Y543435D01*
X643941Y544222D01*
X643783Y544930D01*
X643665Y545560D01*
X643626Y545835D01*
Y546071D01*
X643587Y546268D01*
Y546425D01*
Y546504D01*
Y546543D01*
X643626Y547212D01*
X643665Y547881D01*
X643941Y549101D01*
X644256Y550163D01*
X644452Y550635D01*
X644649Y551107D01*
X644885Y551501D01*
X645082Y551855D01*
X645239Y552170D01*
X645396Y552406D01*
X645554Y552602D01*
X645672Y552760D01*
X645711Y552839D01*
X645751Y552878D01*
X646144Y553350D01*
X646577Y553743D01*
X647049Y554137D01*
X647482Y554452D01*
X647915Y554727D01*
X648387Y554963D01*
X649213Y555356D01*
X649960Y555632D01*
X650275Y555711D01*
X650551Y555789D01*
X650787Y555829D01*
X650944D01*
X651062Y555868D01*
X651101D01*
Y558661D01*
X651141Y559173D01*
X651180Y559606D01*
X651298Y559999D01*
X651416Y560314D01*
X651534Y560589D01*
X651613Y560747D01*
X651692Y560865D01*
X651731Y560904D01*
X651967Y561180D01*
X652282Y561376D01*
X652557Y561494D01*
X652833Y561573D01*
X653108Y561652D01*
X653305Y561691D01*
X653502D01*
X653777Y561652D01*
X654013Y561612D01*
X654210Y561494D01*
X654406Y561337D01*
X654642Y560983D01*
X654839Y560550D01*
X654957Y560157D01*
X654997Y559803D01*
X655036Y559645D01*
Y559527D01*
Y559488D01*
Y559448D01*
Y555002D01*
X655547Y554727D01*
X656059Y554373D01*
X656570Y553979D01*
X657042Y553625D01*
X657436Y553311D01*
X657790Y552996D01*
X657987Y552839D01*
X658026Y552760D01*
X658065D01*
X658931Y552012D01*
X659679Y551383D01*
X660308Y550871D01*
X660820Y550478D01*
X661213Y550202D01*
X661488Y550006D01*
X661685Y549927D01*
X661724Y549888D01*
X662157Y549652D01*
X662629Y549494D01*
X663062Y549337D01*
X663495Y549258D01*
X663849Y549219D01*
X664125Y549179D01*
X664754D01*
X665187Y549258D01*
X665934Y549455D01*
X666603Y549730D01*
X667154Y550006D01*
X667626Y550320D01*
X667980Y550596D01*
X668216Y550793D01*
X668256Y550832D01*
X668295Y550871D01*
X668610Y551186D01*
X668846Y551501D01*
X669279Y552170D01*
X669554Y552839D01*
X669790Y553429D01*
X669908Y553979D01*
X669948Y554373D01*
X669987Y554530D01*
Y554648D01*
Y554727D01*
Y554766D01*
X669948Y555514D01*
X669790Y556143D01*
X669593Y556734D01*
X669318Y557206D01*
X669082Y557599D01*
X668885Y557914D01*
X668728Y558071D01*
X668689Y558150D01*
X668177Y558583D01*
X667665Y558898D01*
X667115Y559134D01*
X666603Y559291D01*
X666170Y559370D01*
X665816Y559409D01*
X665580Y559448D01*
X665502D01*
X665029Y559409D01*
X664597Y559330D01*
X664164Y559212D01*
X663810Y559055D01*
X663495Y558937D01*
X663220Y558819D01*
X663062Y558740D01*
X663023Y558701D01*
X662590Y558386D01*
X662197Y558071D01*
X661842Y557757D01*
X661567Y557481D01*
X661331Y557206D01*
X661174Y557009D01*
X661095Y556852D01*
X661056Y556812D01*
X660229Y555475D01*
X659915Y555042D01*
X659600Y554727D01*
X659285Y554491D01*
X659010Y554334D01*
X658774Y554255D01*
X658538Y554176D01*
X658380D01*
X658065Y554216D01*
X657829Y554255D01*
X657397Y554452D01*
X657239Y554570D01*
X657121Y554688D01*
X657082Y554727D01*
X657042Y554766D01*
X656885Y555002D01*
X656728Y555238D01*
X656610Y555711D01*
X656570Y555907D01*
X656531Y556065D01*
Y556183D01*
Y556222D01*
X656610Y556852D01*
X656767Y557520D01*
X657042Y558150D01*
X657318Y558701D01*
X657633Y559212D01*
X657908Y559566D01*
X657987Y559724D01*
X658065Y559842D01*
X658144Y559881D01*
Y559921D01*
X658734Y560589D01*
X659324Y561180D01*
X659954Y561691D01*
X660583Y562124D01*
X661213Y562478D01*
X661803Y562793D01*
X662433Y563068D01*
X662983Y563265D01*
X663534Y563422D01*
X664046Y563540D01*
X664479Y563619D01*
X664872Y563658D01*
X665187Y563698D01*
X665423Y563737D01*
X665620D01*
X666289Y563698D01*
D02*
G37*
G36*
X661724Y631488D02*
X662197Y631449D01*
X663102Y631174D01*
X663888Y630859D01*
X664518Y630426D01*
X664990Y630033D01*
X665344Y629718D01*
X665541Y629442D01*
X665620Y629403D01*
Y629364D01*
X665738Y629167D01*
X665816Y628931D01*
X665974Y628380D01*
X666092Y627790D01*
X666170Y627200D01*
X666210Y626649D01*
X666249Y626177D01*
Y625980D01*
Y625862D01*
Y625783D01*
Y625744D01*
Y625154D01*
X666210Y624642D01*
X666170Y624210D01*
X666131Y623856D01*
X666092Y623541D01*
X666052Y623344D01*
X666013Y623226D01*
Y623187D01*
X665895Y622832D01*
X665777Y622518D01*
X665620Y622242D01*
X665462Y621967D01*
X665305Y621731D01*
X665187Y621573D01*
X665108Y621455D01*
X665069Y621416D01*
X664636Y620944D01*
X664203Y620550D01*
X663731Y620196D01*
X663298Y619882D01*
X662905Y619646D01*
X662590Y619488D01*
X662393Y619370D01*
X662315Y619331D01*
X661685Y619055D01*
X661016Y618859D01*
X660426Y618701D01*
X659915Y618623D01*
X659482Y618544D01*
X659128Y618505D01*
X658813D01*
X657987Y618583D01*
X657239Y618741D01*
X656570Y619016D01*
X656020Y619291D01*
X655587Y619567D01*
X655272Y619842D01*
X655075Y620000D01*
X654997Y620078D01*
X654485Y620669D01*
X654092Y621337D01*
X653816Y621967D01*
X653659Y622596D01*
X653541Y623147D01*
X653502Y623580D01*
X653462Y623737D01*
Y623856D01*
Y623934D01*
Y623974D01*
X653502Y624524D01*
X653541Y625075D01*
X653659Y625587D01*
X653816Y626098D01*
X654170Y627003D01*
X654603Y627790D01*
X654800Y628105D01*
X655036Y628419D01*
X655233Y628656D01*
X655390Y628892D01*
X655547Y629049D01*
X655626Y629167D01*
X655705Y629246D01*
X655744Y629285D01*
X656177Y629678D01*
X656649Y630033D01*
X657082Y630308D01*
X657554Y630583D01*
X658026Y630780D01*
X658459Y630977D01*
X659324Y631252D01*
X660072Y631410D01*
X660387Y631449D01*
X660662Y631488D01*
X660859Y631528D01*
X661174D01*
X661724Y631488D01*
D02*
G37*
G36*
X653383Y655921D02*
X654170Y655764D01*
X654878Y655528D01*
X655469Y655253D01*
X655980Y655016D01*
X656334Y654780D01*
X656570Y654623D01*
X656610Y654544D01*
X656649D01*
X656964Y654269D01*
X657200Y653993D01*
X657633Y653364D01*
X657947Y652813D01*
X658144Y652262D01*
X658301Y651751D01*
X658341Y651397D01*
X658380Y651239D01*
Y651121D01*
Y651082D01*
Y651043D01*
X658341Y650649D01*
X658301Y650334D01*
X658184Y650020D01*
X658065Y649744D01*
X657987Y649548D01*
X657869Y649390D01*
X657829Y649311D01*
X657790Y649272D01*
X657554Y649036D01*
X657318Y648839D01*
X657042Y648721D01*
X656806Y648603D01*
X656610Y648564D01*
X656452Y648524D01*
X656295D01*
X655901Y648564D01*
X655587Y648721D01*
X655311Y648918D01*
X655075Y649154D01*
X654918Y649390D01*
X654800Y649587D01*
X654761Y649744D01*
X654721Y649784D01*
X654564Y650138D01*
X654406Y650452D01*
X654210Y650728D01*
X654013Y650964D01*
X653580Y651318D01*
X653147Y651554D01*
X652715Y651711D01*
X652400Y651790D01*
X652164Y651830D01*
X652085D01*
X651456Y651790D01*
X650865Y651633D01*
X650314Y651397D01*
X649842Y651161D01*
X649488Y650925D01*
X649174Y650688D01*
X649016Y650531D01*
X648938Y650492D01*
X648465Y649980D01*
X648111Y649469D01*
X647875Y648957D01*
X647679Y648485D01*
X647600Y648092D01*
X647560Y647777D01*
X647521Y647580D01*
Y647502D01*
X647560Y647148D01*
X647600Y646833D01*
X647718Y646557D01*
X647796Y646321D01*
X647915Y646124D01*
X648033Y645967D01*
X648072Y645888D01*
X648111Y645849D01*
X648347Y645613D01*
X648583Y645456D01*
X648820Y645298D01*
X649055Y645220D01*
X649252Y645180D01*
X649370Y645141D01*
X649528D01*
X649921Y645180D01*
X650433Y645298D01*
X650983Y645456D01*
X651534Y645613D01*
X652006Y645810D01*
X652439Y645967D01*
X652597Y646046D01*
X652715Y646085D01*
X652793Y646124D01*
X652833D01*
X663338Y650374D01*
X663810Y650571D01*
X664282Y650728D01*
X664675Y650807D01*
X664833Y650846D01*
X665029D01*
X665266Y650807D01*
X665502Y650767D01*
X665856Y650571D01*
X666013Y650492D01*
X666131Y650413D01*
X666170Y650374D01*
X666210Y650334D01*
X666367Y650138D01*
X666485Y649902D01*
X666603Y649469D01*
X666643Y649311D01*
X666682Y649154D01*
Y649075D01*
Y649036D01*
X666643Y648721D01*
X666564Y648407D01*
X666446Y648092D01*
X666289Y647816D01*
X665895Y647344D01*
X665462Y646951D01*
X665029Y646636D01*
X664636Y646439D01*
X664479Y646361D01*
X664361Y646282D01*
X664282Y646243D01*
X664242D01*
X655901Y642820D01*
X667626Y638492D01*
X668256Y638216D01*
X668807Y637941D01*
X669239Y637665D01*
X669554Y637390D01*
X669829Y637193D01*
X669987Y637036D01*
X670066Y636918D01*
X670105Y636879D01*
X670302Y636485D01*
X670459Y636013D01*
X670577Y635502D01*
X670656Y634990D01*
X670695Y634557D01*
X670734Y634164D01*
Y634006D01*
Y633888D01*
Y633849D01*
Y633810D01*
Y628341D01*
X670695Y627829D01*
X670616Y627357D01*
X670538Y626964D01*
X670380Y626649D01*
X670262Y626413D01*
X670184Y626216D01*
X670105Y626098D01*
X670066Y626059D01*
X669790Y625783D01*
X669515Y625587D01*
X669239Y625429D01*
X668964Y625351D01*
X668728Y625272D01*
X668531Y625233D01*
X668334D01*
X668059Y625272D01*
X667784Y625351D01*
X667587Y625429D01*
X667390Y625587D01*
X667115Y625980D01*
X666918Y626373D01*
X666800Y626806D01*
X666761Y627200D01*
X666721Y627357D01*
Y627436D01*
Y627514D01*
Y627554D01*
Y632905D01*
X666682Y633416D01*
X666525Y633849D01*
X666328Y634164D01*
X666131Y634439D01*
X665895Y634636D01*
X665738Y634754D01*
X665580Y634833D01*
X665541Y634872D01*
X656098Y638334D01*
X647915Y630465D01*
X647403Y630033D01*
X646970Y629678D01*
X646577Y629442D01*
X646223Y629285D01*
X645947Y629206D01*
X645711Y629128D01*
X645554D01*
X645278Y629167D01*
X645003Y629206D01*
X644610Y629403D01*
X644452Y629521D01*
X644334Y629600D01*
X644295Y629639D01*
X644256Y629678D01*
X644059Y629875D01*
X643941Y630111D01*
X643783Y630505D01*
X643744Y630701D01*
X643705Y630859D01*
Y630938D01*
Y630977D01*
X643783Y631410D01*
X643941Y631842D01*
X644177Y632275D01*
X644452Y632669D01*
X644728Y633023D01*
X644964Y633298D01*
X645121Y633456D01*
X645200Y633534D01*
X654210Y642151D01*
X652833Y641561D01*
X652046Y641285D01*
X651338Y641049D01*
X650708Y640892D01*
X650157Y640813D01*
X649685Y640734D01*
X649331Y640695D01*
X648623D01*
X648190Y640774D01*
X647442Y640970D01*
X646774Y641285D01*
X646183Y641600D01*
X645751Y641915D01*
X645396Y642229D01*
X645200Y642426D01*
X645121Y642466D01*
Y642505D01*
X644570Y643213D01*
X644177Y643961D01*
X643901Y644747D01*
X643705Y645456D01*
X643587Y646085D01*
X643547Y646361D01*
Y646557D01*
X643508Y646754D01*
Y646911D01*
Y646990D01*
Y647029D01*
X643547Y647698D01*
X643626Y648328D01*
X643744Y648957D01*
X643941Y649548D01*
X644373Y650610D01*
X644610Y651082D01*
X644846Y651515D01*
X645121Y651947D01*
X645357Y652302D01*
X645593Y652577D01*
X645790Y652852D01*
X645987Y653049D01*
X646105Y653206D01*
X646183Y653285D01*
X646223Y653325D01*
X646734Y653797D01*
X647246Y654190D01*
X647796Y654544D01*
X648347Y654859D01*
X648859Y655134D01*
X649370Y655331D01*
X650354Y655646D01*
X650826Y655764D01*
X651219Y655843D01*
X651613Y655921D01*
X651928Y655961D01*
X652164Y656000D01*
X652518D01*
X653383Y655921D01*
D02*
G37*
G36*
X479827Y296094D02*
X480216D01*
Y295965D01*
X480476D01*
Y295835D01*
X480736D01*
Y295705D01*
X480995D01*
Y295575D01*
X481125D01*
Y295446D01*
X481255D01*
Y295316D01*
X481514D01*
Y295186D01*
X481644D01*
Y295056D01*
X481774D01*
Y294926D01*
X481903D01*
Y294667D01*
X482033D01*
Y294537D01*
X482163D01*
Y294408D01*
X482293D01*
Y294148D01*
X482422D01*
Y293888D01*
X482552D01*
Y293629D01*
X482682D01*
Y293369D01*
X482812D01*
Y292980D01*
X482942D01*
Y292591D01*
X483071D01*
Y292072D01*
X483201D01*
Y291423D01*
X483331D01*
Y288049D01*
X483201D01*
Y287271D01*
X483071D01*
Y286752D01*
X482942D01*
Y286233D01*
X482812D01*
Y285843D01*
X482682D01*
Y285454D01*
X482552D01*
Y285194D01*
X482422D01*
Y284935D01*
X482293D01*
Y284676D01*
X482163D01*
Y284416D01*
X482033D01*
Y284156D01*
X481903D01*
Y284027D01*
X481774D01*
Y283767D01*
X481644D01*
Y283637D01*
X481514D01*
Y283508D01*
X481384D01*
Y283248D01*
X481255D01*
Y283118D01*
X481125D01*
Y282989D01*
X480995D01*
Y282859D01*
X480865D01*
Y282729D01*
X480736D01*
Y282599D01*
X480606D01*
Y282470D01*
X480476D01*
Y282340D01*
X480216D01*
Y282210D01*
X480087D01*
Y282080D01*
X479957D01*
Y281950D01*
X479697D01*
Y281821D01*
X479438D01*
Y281691D01*
X479178D01*
Y281561D01*
X478919D01*
Y281431D01*
X478530D01*
Y281302D01*
X478140D01*
Y281172D01*
X477102D01*
Y281042D01*
X476454D01*
Y281172D01*
X475675D01*
Y281302D01*
X475286D01*
Y281431D01*
X474896D01*
Y281561D01*
X474767D01*
Y281691D01*
X474507D01*
Y281821D01*
X474377D01*
Y281950D01*
X474248D01*
Y282080D01*
X474118D01*
Y282210D01*
X473988D01*
Y282340D01*
X473858D01*
Y282470D01*
X473728D01*
Y282599D01*
X473599D01*
Y282859D01*
X473469D01*
Y283118D01*
X473339D01*
Y283378D01*
X473209D01*
Y283767D01*
X473080D01*
Y284286D01*
X472950D01*
Y291423D01*
X472820D01*
Y291682D01*
X472690D01*
Y291812D01*
X472431D01*
Y291942D01*
X472171D01*
Y291812D01*
X471912D01*
Y291682D01*
X471652D01*
Y291553D01*
X471523D01*
Y291423D01*
X471393D01*
Y291293D01*
X471263D01*
Y291164D01*
X471133D01*
Y291034D01*
X471004D01*
Y290904D01*
X470874D01*
Y290644D01*
X470744D01*
Y290385D01*
X470874D01*
Y289217D01*
X470744D01*
Y288309D01*
X470614D01*
Y287790D01*
X470485D01*
Y287400D01*
X470355D01*
Y287141D01*
X470225D01*
Y286752D01*
X470095D01*
Y286492D01*
X469966D01*
Y286233D01*
X469836D01*
Y286103D01*
X469706D01*
Y285843D01*
X469576D01*
Y285584D01*
X469446D01*
Y285454D01*
X469317D01*
Y285324D01*
X469187D01*
Y285065D01*
X469057D01*
Y284935D01*
X468927D01*
Y284805D01*
X468798D01*
Y284676D01*
X468668D01*
Y284546D01*
X468538D01*
Y284416D01*
X468279D01*
Y284286D01*
X468149D01*
Y284156D01*
X468019D01*
Y284027D01*
X467760D01*
Y283897D01*
X467630D01*
Y283767D01*
X467240D01*
Y283637D01*
X466981D01*
Y283508D01*
X466592D01*
Y283378D01*
X464256D01*
Y283508D01*
X463737D01*
Y283637D01*
X463477D01*
Y281172D01*
X463218D01*
Y281042D01*
X463088D01*
Y280912D01*
X462829D01*
Y280783D01*
X462569D01*
Y280653D01*
X462439D01*
Y280523D01*
X462180D01*
Y280393D01*
X461661D01*
Y280523D01*
X461531D01*
Y280783D01*
X461661D01*
Y284935D01*
X461531D01*
Y285065D01*
X461401D01*
Y285324D01*
X461272D01*
Y285454D01*
X461142D01*
Y285714D01*
X461012D01*
Y286103D01*
X460882D01*
Y286362D01*
X460752D01*
Y286881D01*
X460623D01*
Y287660D01*
X460493D01*
Y289477D01*
X460623D01*
Y290255D01*
X460752D01*
Y290774D01*
X460882D01*
Y291164D01*
X461012D01*
Y291553D01*
X461142D01*
Y291942D01*
X461272D01*
Y292201D01*
X461401D01*
Y292461D01*
X461531D01*
Y292721D01*
X461661D01*
Y292980D01*
X461791D01*
Y293110D01*
X461920D01*
Y293369D01*
X462050D01*
Y293499D01*
X462180D01*
Y293629D01*
X462309D01*
Y293888D01*
X462439D01*
Y294018D01*
X462569D01*
Y294148D01*
X462699D01*
Y294278D01*
X462829D01*
Y294408D01*
X463088D01*
Y294537D01*
X463218D01*
Y294667D01*
X463348D01*
Y294797D01*
X463607D01*
Y294926D01*
X463737D01*
Y295056D01*
X463997D01*
Y295186D01*
X464386D01*
Y295316D01*
X464775D01*
Y295446D01*
X465294D01*
Y295575D01*
X467370D01*
Y295446D01*
X467760D01*
Y295316D01*
X468149D01*
Y295186D01*
X468408D01*
Y295056D01*
X468668D01*
Y294926D01*
X468798D01*
Y294797D01*
X469057D01*
Y294667D01*
X469187D01*
Y294537D01*
X469317D01*
Y294408D01*
X469446D01*
Y294278D01*
X469576D01*
Y294018D01*
X469706D01*
Y293888D01*
X469836D01*
Y293759D01*
X469966D01*
Y293499D01*
X470095D01*
Y293240D01*
X470225D01*
Y292980D01*
X470355D01*
Y292591D01*
X470485D01*
Y292201D01*
X470614D01*
Y292331D01*
X470744D01*
Y292461D01*
X470874D01*
Y292721D01*
X471004D01*
Y292850D01*
X471133D01*
Y292980D01*
X471263D01*
Y293110D01*
X471393D01*
Y293369D01*
X471523D01*
Y293499D01*
X471652D01*
Y293629D01*
X471782D01*
Y293888D01*
X471912D01*
Y294018D01*
X472042D01*
Y294278D01*
X472301D01*
Y294408D01*
X472561D01*
Y294537D01*
X472820D01*
Y294667D01*
X474377D01*
Y294537D01*
X474637D01*
Y294408D01*
X474767D01*
Y294278D01*
X474896D01*
Y294148D01*
X475026D01*
Y294018D01*
X475156D01*
Y293759D01*
X475286D01*
Y293499D01*
X475415D01*
Y293369D01*
X475545D01*
Y293499D01*
X475675D01*
Y293759D01*
X475805D01*
Y294018D01*
X475934D01*
Y294278D01*
X476064D01*
Y294408D01*
X476194D01*
Y294667D01*
X476324D01*
Y294926D01*
X476454D01*
Y295186D01*
X476583D01*
Y295446D01*
X476713D01*
Y295575D01*
X476973D01*
Y295705D01*
X477102D01*
Y295835D01*
X477362D01*
Y295965D01*
X477621D01*
Y296094D01*
X478011D01*
Y296224D01*
X479827D01*
Y296094D01*
D02*
G37*
G36*
X663928Y617442D02*
X664361Y617364D01*
X664754Y617285D01*
X665069Y617127D01*
X665305Y617010D01*
X665502Y616931D01*
X665620Y616852D01*
X665659Y616813D01*
X665934Y616537D01*
X666131Y616223D01*
X666289Y615908D01*
X666367Y615632D01*
X666446Y615357D01*
X666485Y615160D01*
Y615003D01*
Y614964D01*
X666406Y614492D01*
X666249Y614059D01*
X666013Y613665D01*
X665738Y613311D01*
X665462Y613036D01*
X665226Y612839D01*
X665069Y612682D01*
X664990Y612642D01*
X660151Y609298D01*
X663141Y609809D01*
X663338Y609849D01*
X663731D01*
X664164Y609809D01*
X664518Y609731D01*
X664872Y609613D01*
X665147Y609495D01*
X665384Y609377D01*
X665541Y609259D01*
X665659Y609180D01*
X665698Y609141D01*
X665974Y608865D01*
X666170Y608550D01*
X666289Y608236D01*
X666367Y607960D01*
X666446Y607724D01*
X666485Y607488D01*
Y607370D01*
Y607331D01*
X666406Y606859D01*
X666249Y606386D01*
X666013Y605954D01*
X665738Y605600D01*
X665462Y605285D01*
X665226Y605009D01*
X665069Y604852D01*
X664990Y604813D01*
X657239Y598675D01*
X656806Y598321D01*
X656374Y598085D01*
X656020Y597888D01*
X655744Y597770D01*
X655508Y597691D01*
X655351Y597652D01*
X655193D01*
X654918Y597691D01*
X654682Y597731D01*
X654288Y597888D01*
X654170Y598006D01*
X654052Y598085D01*
X654013Y598124D01*
X653974Y598163D01*
X653816Y598360D01*
X653659Y598557D01*
X653541Y598911D01*
X653502Y599108D01*
X653462Y599226D01*
Y599304D01*
Y599344D01*
X653502Y599777D01*
X653659Y600170D01*
X653856Y600564D01*
X654092Y600878D01*
X654367Y601114D01*
X654564Y601350D01*
X654721Y601468D01*
X654761Y601508D01*
X655154Y601823D01*
X660151Y605639D01*
X656059Y605206D01*
X655901Y605167D01*
X655469D01*
X655154Y605206D01*
X654839Y605246D01*
X654603Y605364D01*
X654406Y605442D01*
X654249Y605560D01*
X654131Y605678D01*
X654052Y605718D01*
X654013Y605757D01*
X653816Y605993D01*
X653698Y606229D01*
X653541Y606701D01*
X653502Y606937D01*
X653462Y607095D01*
Y607213D01*
Y607252D01*
Y607528D01*
X653541Y607803D01*
X653737Y608314D01*
X654013Y608787D01*
X654288Y609180D01*
X654603Y609495D01*
X654878Y609770D01*
X655075Y609927D01*
X655115Y609967D01*
X655154D01*
X660387Y613626D01*
X655783Y613154D01*
X655547Y613114D01*
X654839D01*
X654603Y613193D01*
X654170Y613350D01*
X653856Y613626D01*
X653659Y613901D01*
X653541Y614177D01*
X653502Y614452D01*
X653462Y614609D01*
Y614688D01*
X653502Y615042D01*
X653580Y615357D01*
X653698Y615672D01*
X653816Y615908D01*
X653974Y616105D01*
X654092Y616223D01*
X654170Y616301D01*
X654210Y616341D01*
X654485Y616537D01*
X654839Y616695D01*
X655508Y616892D01*
X655783Y616970D01*
X656020D01*
X656177Y617010D01*
X656256D01*
X663141Y617482D01*
X663456D01*
X663928Y617442D01*
D02*
G37*
G36*
X665266Y589626D02*
X665462Y589586D01*
X665777Y589429D01*
X666013Y589272D01*
X666052Y589193D01*
X666092D01*
X666328Y588799D01*
X666446Y588406D01*
Y588249D01*
X666485Y588131D01*
Y588052D01*
Y588013D01*
X666446Y587698D01*
X666406Y587383D01*
X666131Y586871D01*
X665816Y586439D01*
X665384Y586045D01*
X664990Y585770D01*
X664675Y585573D01*
X664400Y585455D01*
X664361Y585416D01*
X664321D01*
X659560Y583488D01*
X659128Y583291D01*
X658734Y583055D01*
X658380Y582819D01*
X658065Y582622D01*
X657829Y582386D01*
X657633Y582150D01*
X657318Y581717D01*
X657121Y581324D01*
X657042Y581009D01*
X657003Y580812D01*
Y580734D01*
X657042Y580380D01*
X657160Y580144D01*
X657279Y579947D01*
X657318Y579908D01*
X657554Y579711D01*
X657751Y579593D01*
X657908Y579553D01*
X657987D01*
X658262Y579593D01*
X658538Y579711D01*
X658774Y579790D01*
X658852Y579829D01*
X658892D01*
X662472Y581245D01*
X662866Y581403D01*
X663180Y581481D01*
X663495Y581560D01*
X663692Y581639D01*
X663888D01*
X664007Y581678D01*
X664125D01*
X664479Y581639D01*
X664754Y581560D01*
X665029Y581481D01*
X665226Y581324D01*
X665423Y581206D01*
X665541Y581127D01*
X665620Y581049D01*
X665659Y581009D01*
X665856Y580734D01*
X666013Y580458D01*
X666092Y580183D01*
X666170Y579947D01*
X666210Y579711D01*
X666249Y579514D01*
Y579396D01*
Y579357D01*
Y575894D01*
X666210Y575422D01*
X666170Y575029D01*
X666092Y574675D01*
X665974Y574399D01*
X665856Y574163D01*
X665777Y573966D01*
X665738Y573888D01*
X665698Y573848D01*
X665462Y573612D01*
X665226Y573416D01*
X664951Y573298D01*
X664715Y573180D01*
X664518Y573140D01*
X664321Y573101D01*
X664164D01*
X663888Y573140D01*
X663652Y573180D01*
X663298Y573416D01*
X663023Y573770D01*
X662866Y574163D01*
X662747Y574557D01*
X662708Y574911D01*
X662669Y575147D01*
Y575186D01*
Y575225D01*
Y577193D01*
X658262Y575422D01*
X657633Y575186D01*
X657357Y575107D01*
X657082Y575068D01*
X656885Y575029D01*
X656610D01*
X656137Y575068D01*
X655705Y575186D01*
X655311Y575344D01*
X654997Y575540D01*
X654721Y575737D01*
X654524Y575894D01*
X654406Y576012D01*
X654367Y576052D01*
X654052Y576445D01*
X653856Y576878D01*
X653698Y577311D01*
X653580Y577704D01*
X653502Y578058D01*
X653462Y578334D01*
Y578531D01*
Y578609D01*
X653502Y579199D01*
X653659Y579790D01*
X653895Y580340D01*
X654131Y580852D01*
X654406Y581324D01*
X654603Y581639D01*
X654761Y581875D01*
X654839Y581914D01*
Y581954D01*
X654446Y582189D01*
X654170Y582426D01*
X653974Y582740D01*
X653856Y583016D01*
X653737Y583291D01*
X653698Y583527D01*
Y583685D01*
Y583724D01*
X653777Y584275D01*
X653934Y584747D01*
X654210Y585101D01*
X654485Y585416D01*
X654800Y585652D01*
X655075Y585809D01*
X655233Y585888D01*
X655311Y585927D01*
X663495Y589232D01*
X663928Y589429D01*
X664361Y589547D01*
X664715Y589626D01*
X664951Y589665D01*
X665029D01*
X665266Y589626D01*
D02*
G37*
G36*
X651101Y593993D02*
X651416Y593914D01*
X651692Y593835D01*
X651928Y593717D01*
X652124Y593600D01*
X652282Y593481D01*
X652361Y593442D01*
X652400Y593403D01*
X652597Y593127D01*
X652754Y592852D01*
X652872Y592576D01*
X652951Y592340D01*
X652990Y592104D01*
X653029Y591908D01*
Y591790D01*
Y591750D01*
X652990Y591396D01*
X652911Y591081D01*
X652833Y590806D01*
X652715Y590570D01*
X652597Y590413D01*
X652478Y590255D01*
X652439Y590177D01*
X652400Y590137D01*
X652124Y589901D01*
X651849Y589744D01*
X651574Y589626D01*
X651338Y589547D01*
X651101Y589508D01*
X650905Y589468D01*
X650747D01*
X650393Y589508D01*
X650079Y589586D01*
X649803Y589665D01*
X649567Y589783D01*
X649410Y589940D01*
X649252Y590019D01*
X649174Y590098D01*
X649134Y590137D01*
X648898Y590413D01*
X648741Y590688D01*
X648623Y590924D01*
X648544Y591199D01*
X648505Y591396D01*
X648465Y591593D01*
Y591711D01*
Y591750D01*
X648505Y592104D01*
X648583Y592419D01*
X648662Y592695D01*
X648780Y592931D01*
X648938Y593127D01*
X649016Y593285D01*
X649095Y593363D01*
X649134Y593403D01*
X649410Y593600D01*
X649685Y593757D01*
X649921Y593875D01*
X650197Y593954D01*
X650393Y593993D01*
X650590Y594032D01*
X650747D01*
X651101Y593993D01*
D02*
G37*
G36*
X664439Y598439D02*
X664754Y598360D01*
X665029Y598203D01*
X665226Y598045D01*
X665423Y597927D01*
X665541Y597770D01*
X665620Y597691D01*
X665659Y597652D01*
X665856Y597298D01*
X666013Y596944D01*
X666092Y596550D01*
X666170Y596196D01*
X666210Y595882D01*
X666249Y595606D01*
Y595449D01*
Y595370D01*
Y592773D01*
X666210Y592301D01*
X666170Y591908D01*
X666092Y591554D01*
X665974Y591278D01*
X665856Y591042D01*
X665777Y590845D01*
X665738Y590767D01*
X665698Y590727D01*
X665462Y590491D01*
X665226Y590294D01*
X664951Y590177D01*
X664715Y590059D01*
X664518Y590019D01*
X664321Y589980D01*
X664164D01*
X663888Y590019D01*
X663652Y590059D01*
X663298Y590294D01*
X663023Y590649D01*
X662866Y591003D01*
X662747Y591396D01*
X662708Y591750D01*
X662669Y591986D01*
Y592026D01*
Y592065D01*
Y593914D01*
X656885Y591593D01*
X656492Y591436D01*
X656177Y591317D01*
X655901Y591239D01*
X655665Y591160D01*
X655508D01*
X655351Y591121D01*
X655272D01*
X655036Y591160D01*
X654839Y591199D01*
X654485Y591357D01*
X654249Y591554D01*
X654210Y591593D01*
X654170Y591632D01*
X654013Y591829D01*
X653895Y592026D01*
X653737Y592419D01*
Y592576D01*
X653698Y592695D01*
Y592773D01*
Y592813D01*
X653737Y593127D01*
X653777Y593403D01*
X653974Y593914D01*
X654288Y594308D01*
X654642Y594662D01*
X654997Y594937D01*
X655272Y595095D01*
X655508Y595213D01*
X655547Y595252D01*
X655587D01*
X656020Y595449D01*
X662708Y598163D01*
X663259Y598360D01*
X663692Y598439D01*
X663849Y598478D01*
X664085D01*
X664439Y598439D01*
D02*
G37*
G36*
X436264Y536063D02*
X436135D01*
Y535284D01*
X438860D01*
Y535414D01*
X445867D01*
Y535284D01*
X446256D01*
Y535154D01*
X446645D01*
Y535025D01*
X446905D01*
Y534895D01*
X447035D01*
Y534765D01*
X447294D01*
Y534635D01*
X447424D01*
Y534506D01*
X447554D01*
Y534376D01*
X447683D01*
Y534246D01*
X447813D01*
Y533987D01*
X447943D01*
Y533727D01*
X448073D01*
Y533338D01*
X448202D01*
Y532948D01*
X448332D01*
Y530743D01*
X448202D01*
Y530094D01*
X448073D01*
Y529705D01*
X447943D01*
Y529575D01*
X447683D01*
Y529445D01*
X447554D01*
Y529315D01*
X447424D01*
Y529185D01*
X447294D01*
Y529056D01*
X447164D01*
Y528926D01*
X447035D01*
Y528796D01*
X446905D01*
Y528666D01*
X446775D01*
Y528537D01*
X446645D01*
Y528407D01*
X446516D01*
Y528277D01*
X446386D01*
Y528147D01*
X446256D01*
Y528018D01*
X446126D01*
Y527888D01*
X445997D01*
Y528018D01*
X445737D01*
Y528147D01*
X445607D01*
Y528666D01*
X445737D01*
Y528926D01*
X445867D01*
Y529445D01*
X445997D01*
Y530743D01*
X445867D01*
Y531132D01*
X445737D01*
Y531391D01*
X445607D01*
Y531521D01*
X445477D01*
Y531651D01*
X445348D01*
Y531781D01*
X445088D01*
Y531910D01*
X444699D01*
Y532040D01*
X444050D01*
Y532170D01*
X436264D01*
Y531262D01*
X436135D01*
Y529315D01*
X436264D01*
Y528407D01*
X436135D01*
Y528277D01*
X435875D01*
Y528147D01*
X434967D01*
Y528018D01*
X434318D01*
Y528147D01*
X434188D01*
Y528666D01*
X434318D01*
Y532040D01*
X430555D01*
Y531910D01*
X429257D01*
Y531781D01*
X428349D01*
Y531910D01*
X428219D01*
Y532040D01*
X428090D01*
Y532429D01*
X428219D01*
Y532689D01*
X428349D01*
Y532948D01*
X428479D01*
Y533078D01*
X428609D01*
Y533338D01*
X428738D01*
Y533597D01*
X428868D01*
Y533857D01*
X428998D01*
Y534116D01*
X429128D01*
Y534506D01*
X429257D01*
Y534765D01*
X429387D01*
Y535154D01*
X429517D01*
Y535414D01*
X430295D01*
Y535284D01*
X434318D01*
Y535544D01*
X434448D01*
Y535803D01*
X434578D01*
Y536063D01*
X434707D01*
Y536322D01*
X434837D01*
Y536582D01*
X434967D01*
Y536841D01*
X435097D01*
Y537101D01*
X435226D01*
Y537360D01*
X435356D01*
Y537620D01*
X435486D01*
Y537750D01*
X436264D01*
Y536063D01*
D02*
G37*
G36*
X447943Y526071D02*
X447813D01*
Y521011D01*
X447943D01*
Y519194D01*
X446775D01*
Y520491D01*
X446645D01*
Y521530D01*
X446516D01*
Y521789D01*
X446386D01*
Y521919D01*
X445867D01*
Y522049D01*
X438470D01*
Y521919D01*
X438081D01*
Y521789D01*
X437822D01*
Y521659D01*
X437562D01*
Y521530D01*
X437303D01*
Y521400D01*
X437173D01*
Y521270D01*
X437043D01*
Y521140D01*
X436913D01*
Y520881D01*
X436783D01*
Y520751D01*
X436654D01*
Y520491D01*
X436524D01*
Y520102D01*
X436394D01*
Y519583D01*
X436264D01*
Y518675D01*
X436394D01*
Y518026D01*
X436524D01*
Y517766D01*
X436654D01*
Y517637D01*
X436783D01*
Y517507D01*
X436913D01*
Y517377D01*
X437043D01*
Y517248D01*
X437303D01*
Y517118D01*
X437562D01*
Y516339D01*
X435226D01*
Y516209D01*
X434188D01*
Y516080D01*
X433410D01*
Y516339D01*
X433280D01*
Y516858D01*
X433150D01*
Y518415D01*
X433280D01*
Y518805D01*
X433410D01*
Y519194D01*
X433540D01*
Y519453D01*
X433669D01*
Y519583D01*
X433799D01*
Y519843D01*
X433929D01*
Y519972D01*
X434059D01*
Y520102D01*
X434188D01*
Y520232D01*
X434318D01*
Y520362D01*
X434448D01*
Y520491D01*
X434578D01*
Y520621D01*
X434707D01*
Y520751D01*
X434837D01*
Y520881D01*
X434967D01*
Y521011D01*
X435097D01*
Y521140D01*
X435226D01*
Y521270D01*
X435486D01*
Y521400D01*
X435616D01*
Y521530D01*
X435745D01*
Y521659D01*
X435875D01*
Y521789D01*
X436005D01*
Y521919D01*
X436135D01*
Y522049D01*
X436264D01*
Y522178D01*
X434967D01*
Y522049D01*
X433410D01*
Y522178D01*
X433280D01*
Y522308D01*
X433150D01*
Y522697D01*
X433280D01*
Y522957D01*
X433410D01*
Y523346D01*
X433540D01*
Y523736D01*
X433669D01*
Y524125D01*
X433799D01*
Y524514D01*
X433929D01*
Y525033D01*
X434059D01*
Y525552D01*
X434188D01*
Y526331D01*
X434318D01*
Y527239D01*
X434448D01*
Y527758D01*
X435616D01*
Y525941D01*
X435745D01*
Y525552D01*
X435875D01*
Y525422D01*
X436135D01*
Y525293D01*
X445997D01*
Y525422D01*
X446386D01*
Y525552D01*
X446516D01*
Y525812D01*
X446645D01*
Y526590D01*
X446775D01*
Y527758D01*
X447943D01*
Y526071D01*
D02*
G37*
G36*
X419465Y545332D02*
X408425D01*
Y545192D01*
X408285D01*
Y545052D01*
X408145D01*
Y544913D01*
X408006D01*
Y544633D01*
X407866D01*
Y544493D01*
X407726D01*
Y544214D01*
X407586D01*
Y543934D01*
X407447D01*
Y543515D01*
X407307D01*
Y541419D01*
X407447D01*
Y540860D01*
X407586D01*
Y540440D01*
X407726D01*
Y540021D01*
X407866D01*
Y539742D01*
X408006D01*
Y539322D01*
X408145D01*
Y539043D01*
X401577D01*
Y540161D01*
X401717D01*
Y540860D01*
X401856D01*
Y541419D01*
X401996D01*
Y541838D01*
X402136D01*
Y542118D01*
X402276D01*
Y542537D01*
X402416D01*
Y542816D01*
X402555D01*
Y543096D01*
X402695D01*
Y543375D01*
X402835D01*
Y543515D01*
X402975D01*
Y543795D01*
X403114D01*
Y543934D01*
X403254D01*
Y544074D01*
X403394D01*
Y544353D01*
X403534D01*
Y544493D01*
X403673D01*
Y544633D01*
X403813D01*
Y544773D01*
X403953D01*
Y544913D01*
X404232D01*
Y545052D01*
X404372D01*
Y545192D01*
X404512D01*
Y545332D01*
X401996D01*
Y551621D01*
X419465D01*
Y545332D01*
D02*
G37*
G36*
X441714Y550466D02*
X443012D01*
Y550336D01*
X443661D01*
Y550207D01*
X444050D01*
Y550077D01*
X444439D01*
Y549947D01*
X444699D01*
Y549817D01*
X444958D01*
Y549688D01*
X445218D01*
Y549558D01*
X445477D01*
Y549428D01*
X445607D01*
Y549298D01*
X445867D01*
Y549169D01*
X445997D01*
Y549039D01*
X446126D01*
Y548909D01*
X446256D01*
Y548779D01*
X446386D01*
Y548649D01*
X446516D01*
Y548520D01*
X446645D01*
Y548390D01*
X446775D01*
Y548260D01*
X446905D01*
Y548130D01*
X447035D01*
Y548001D01*
X447164D01*
Y547741D01*
X447294D01*
Y547611D01*
X447424D01*
Y547352D01*
X447554D01*
Y547092D01*
X447683D01*
Y546833D01*
X447813D01*
Y546444D01*
X447943D01*
Y546054D01*
X448073D01*
Y545665D01*
X448202D01*
Y545016D01*
X448332D01*
Y542161D01*
X448202D01*
Y541253D01*
X448073D01*
Y540734D01*
X447943D01*
Y540345D01*
X447813D01*
Y539956D01*
X447683D01*
Y539566D01*
X447554D01*
Y539307D01*
X447424D01*
Y539047D01*
X447294D01*
Y538918D01*
X447035D01*
Y538788D01*
X446645D01*
Y538658D01*
X446256D01*
Y538528D01*
X445997D01*
Y538398D01*
X445477D01*
Y538528D01*
X445348D01*
Y538788D01*
X445477D01*
Y538918D01*
X445607D01*
Y539177D01*
X445737D01*
Y539436D01*
X445867D01*
Y539826D01*
X445997D01*
Y540215D01*
X446126D01*
Y540604D01*
X446256D01*
Y541383D01*
X446386D01*
Y542681D01*
X446256D01*
Y543329D01*
X446126D01*
Y543719D01*
X445997D01*
Y543978D01*
X445867D01*
Y544238D01*
X445737D01*
Y544497D01*
X445607D01*
Y544757D01*
X445477D01*
Y544886D01*
X445348D01*
Y545016D01*
X445218D01*
Y545146D01*
X445088D01*
Y545276D01*
X444958D01*
Y545406D01*
X444829D01*
Y545535D01*
X444699D01*
Y545665D01*
X444569D01*
Y545795D01*
X444310D01*
Y545924D01*
X444180D01*
Y546054D01*
X443920D01*
Y546184D01*
X443661D01*
Y546314D01*
X443401D01*
Y546444D01*
X443142D01*
Y546573D01*
X442752D01*
Y546703D01*
X442363D01*
Y546833D01*
X441974D01*
Y546963D01*
X441325D01*
Y547092D01*
X440287D01*
Y547222D01*
X438341D01*
Y547092D01*
X437692D01*
Y546963D01*
X437303D01*
Y546833D01*
X436913D01*
Y546703D01*
X436783D01*
Y546573D01*
X436524D01*
Y546444D01*
X436394D01*
Y546314D01*
X436135D01*
Y546184D01*
X436005D01*
Y546054D01*
X435875D01*
Y545795D01*
X435745D01*
Y545665D01*
X435616D01*
Y545406D01*
X435486D01*
Y545146D01*
X435356D01*
Y544757D01*
X435226D01*
Y544108D01*
X435097D01*
Y543329D01*
X435226D01*
Y542681D01*
X435356D01*
Y542161D01*
X435486D01*
Y541902D01*
X435616D01*
Y541513D01*
X435745D01*
Y541253D01*
X435875D01*
Y541123D01*
X436005D01*
Y540864D01*
X436135D01*
Y540734D01*
X436264D01*
Y540475D01*
X436524D01*
Y540345D01*
X437173D01*
Y540215D01*
X438341D01*
Y539047D01*
X437562D01*
Y538918D01*
X436394D01*
Y538788D01*
X435486D01*
Y538658D01*
X434707D01*
Y538528D01*
X433929D01*
Y538658D01*
X433799D01*
Y538788D01*
X433669D01*
Y539177D01*
X433540D01*
Y539566D01*
X433410D01*
Y540215D01*
X433280D01*
Y541123D01*
X433150D01*
Y543459D01*
X433280D01*
Y543978D01*
X433410D01*
Y544367D01*
X433540D01*
Y544627D01*
X433669D01*
Y544886D01*
X433799D01*
Y545146D01*
X433929D01*
Y545406D01*
X434059D01*
Y545665D01*
X434188D01*
Y545924D01*
X434318D01*
Y546054D01*
X434448D01*
Y546314D01*
X434578D01*
Y546573D01*
X434707D01*
Y546833D01*
X434837D01*
Y546963D01*
X434967D01*
Y547222D01*
X435097D01*
Y547482D01*
X435226D01*
Y547611D01*
X435356D01*
Y547871D01*
X435486D01*
Y548130D01*
X435616D01*
Y548260D01*
X435745D01*
Y548390D01*
X435875D01*
Y548520D01*
X436005D01*
Y548779D01*
X436135D01*
Y548909D01*
X436264D01*
Y549039D01*
X436524D01*
Y549169D01*
X436654D01*
Y549298D01*
X436783D01*
Y549428D01*
X437043D01*
Y549558D01*
X437173D01*
Y549688D01*
X437432D01*
Y549817D01*
X437692D01*
Y549947D01*
X437951D01*
Y550077D01*
X438341D01*
Y550207D01*
X438860D01*
Y550336D01*
X439509D01*
Y550466D01*
X440806D01*
Y550596D01*
X441714D01*
Y550466D01*
D02*
G37*
G36*
X447943Y514263D02*
X447813D01*
Y509592D01*
X447943D01*
Y508034D01*
X446775D01*
Y509073D01*
X446645D01*
Y509851D01*
X446516D01*
Y510111D01*
X446256D01*
Y510240D01*
X445088D01*
Y510370D01*
X436135D01*
Y510240D01*
X433669D01*
Y510111D01*
X433410D01*
Y510370D01*
X433280D01*
Y510500D01*
X433150D01*
Y510889D01*
X433280D01*
Y511149D01*
X433410D01*
Y511538D01*
X433540D01*
Y511927D01*
X433669D01*
Y512317D01*
X433799D01*
Y512706D01*
X433929D01*
Y513225D01*
X434059D01*
Y513874D01*
X434188D01*
Y514523D01*
X434318D01*
Y515301D01*
X434448D01*
Y515820D01*
X435616D01*
Y514263D01*
X435745D01*
Y513744D01*
X435875D01*
Y513614D01*
X436913D01*
Y513484D01*
X444829D01*
Y513614D01*
X446256D01*
Y513744D01*
X446516D01*
Y514003D01*
X446645D01*
Y514782D01*
X446775D01*
Y515820D01*
X447943D01*
Y514263D01*
D02*
G37*
G36*
X428609Y514003D02*
X429128D01*
Y513874D01*
X429387D01*
Y513744D01*
X429517D01*
Y513614D01*
X429647D01*
Y513484D01*
X429776D01*
Y513355D01*
X429906D01*
Y513225D01*
X430036D01*
Y512965D01*
X430166D01*
Y512706D01*
X430295D01*
Y511408D01*
X430166D01*
Y511019D01*
X430036D01*
Y510889D01*
X429906D01*
Y510759D01*
X429776D01*
Y510500D01*
X429517D01*
Y510370D01*
X429387D01*
Y510240D01*
X429128D01*
Y510111D01*
X428738D01*
Y509981D01*
X427830D01*
Y510111D01*
X427441D01*
Y510240D01*
X427181D01*
Y510370D01*
X427052D01*
Y510500D01*
X426922D01*
Y510630D01*
X426792D01*
Y510759D01*
X426662D01*
Y510889D01*
X426532D01*
Y511149D01*
X426403D01*
Y511408D01*
X426273D01*
Y512706D01*
X426403D01*
Y512965D01*
X426532D01*
Y513225D01*
X426662D01*
Y513355D01*
X426792D01*
Y513484D01*
X426922D01*
Y513614D01*
X427052D01*
Y513744D01*
X427181D01*
Y513874D01*
X427441D01*
Y514003D01*
X427960D01*
Y514133D01*
X428609D01*
Y514003D01*
D02*
G37*
G36*
X483461Y523824D02*
X483331D01*
Y521359D01*
X483461D01*
Y518634D01*
X482422D01*
Y518764D01*
X482293D01*
Y520191D01*
X482163D01*
Y520580D01*
X482033D01*
Y520840D01*
X481644D01*
Y520969D01*
X475026D01*
Y520840D01*
X475156D01*
Y520710D01*
X475286D01*
Y520321D01*
X475415D01*
Y519931D01*
X475545D01*
Y519412D01*
X475675D01*
Y517206D01*
X475545D01*
Y516687D01*
X475415D01*
Y516298D01*
X475286D01*
Y516039D01*
X475156D01*
Y515909D01*
X475026D01*
Y515649D01*
X474896D01*
Y515519D01*
X474767D01*
Y515390D01*
X474637D01*
Y515130D01*
X474507D01*
Y515000D01*
X474377D01*
Y514871D01*
X474248D01*
Y514611D01*
X474118D01*
Y514481D01*
X473988D01*
Y514222D01*
X473858D01*
Y514092D01*
X473728D01*
Y513962D01*
X473599D01*
Y513703D01*
X473469D01*
Y513443D01*
X473339D01*
Y513313D01*
X473209D01*
Y513054D01*
X473080D01*
Y512924D01*
X472950D01*
Y512665D01*
X472820D01*
Y512535D01*
X472690D01*
Y512405D01*
X472561D01*
Y512146D01*
X472431D01*
Y512016D01*
X472301D01*
Y511886D01*
X472171D01*
Y511756D01*
X471912D01*
Y511627D01*
X471782D01*
Y511497D01*
X471652D01*
Y511367D01*
X471393D01*
Y511237D01*
X471133D01*
Y511108D01*
X470874D01*
Y510978D01*
X470614D01*
Y510848D01*
X470355D01*
Y510718D01*
X470095D01*
Y510589D01*
X469706D01*
Y510459D01*
X469317D01*
Y510329D01*
X468798D01*
Y510199D01*
X468019D01*
Y510070D01*
X465813D01*
Y510199D01*
X465035D01*
Y510329D01*
X464515D01*
Y510459D01*
X464126D01*
Y510589D01*
X463737D01*
Y510718D01*
X463477D01*
Y510848D01*
X463218D01*
Y510978D01*
X462958D01*
Y511108D01*
X462829D01*
Y511237D01*
X462569D01*
Y511367D01*
X462439D01*
Y511497D01*
X462309D01*
Y511627D01*
X462180D01*
Y511756D01*
X462050D01*
Y511886D01*
X461920D01*
Y512016D01*
X461791D01*
Y512146D01*
X461661D01*
Y512275D01*
X461531D01*
Y512405D01*
X461401D01*
Y512665D01*
X461272D01*
Y512794D01*
X461142D01*
Y513054D01*
X461012D01*
Y513313D01*
X460882D01*
Y513703D01*
X460752D01*
Y514092D01*
X460623D01*
Y514741D01*
X460493D01*
Y516558D01*
X460623D01*
Y517206D01*
X460752D01*
Y517725D01*
X460882D01*
Y518115D01*
X461012D01*
Y518374D01*
X461142D01*
Y518504D01*
X461272D01*
Y518764D01*
X461401D01*
Y518893D01*
X461531D01*
Y519023D01*
X461661D01*
Y519153D01*
X461791D01*
Y519282D01*
X461920D01*
Y519412D01*
X462050D01*
Y519542D01*
X462180D01*
Y519802D01*
X462309D01*
Y519931D01*
X462439D01*
Y520061D01*
X462569D01*
Y520191D01*
X462699D01*
Y520321D01*
X462829D01*
Y520450D01*
X462958D01*
Y520580D01*
X463088D01*
Y520710D01*
X463218D01*
Y520840D01*
X463348D01*
Y520969D01*
X463477D01*
Y521099D01*
X461791D01*
Y520969D01*
X460752D01*
Y521099D01*
X460623D01*
Y521229D01*
X460493D01*
Y521488D01*
X460623D01*
Y521878D01*
X460752D01*
Y522267D01*
X460882D01*
Y522527D01*
X461012D01*
Y523046D01*
X461142D01*
Y523435D01*
X461272D01*
Y523954D01*
X461401D01*
Y524473D01*
X461531D01*
Y525122D01*
X461661D01*
Y526030D01*
X461791D01*
Y526549D01*
X462958D01*
Y524862D01*
X463088D01*
Y524473D01*
X463218D01*
Y524343D01*
X463607D01*
Y524213D01*
X481255D01*
Y524343D01*
X481903D01*
Y524473D01*
X482033D01*
Y524603D01*
X482163D01*
Y525122D01*
X482293D01*
Y526679D01*
X482422D01*
Y526809D01*
X483461D01*
Y523824D01*
D02*
G37*
G36*
X419465Y532055D02*
X407586D01*
Y531916D01*
X407447D01*
Y531776D01*
X407307D01*
Y531636D01*
X407167D01*
Y531496D01*
X407027D01*
Y531357D01*
X406888D01*
Y531217D01*
X406748D01*
Y530937D01*
X406608D01*
Y530798D01*
X406468D01*
Y530658D01*
X406329D01*
Y530378D01*
X406189D01*
Y529959D01*
X406049D01*
Y528841D01*
X406189D01*
Y528562D01*
X406329D01*
Y528282D01*
X406468D01*
Y528142D01*
X406748D01*
Y528002D01*
X406888D01*
Y527863D01*
X407307D01*
Y527723D01*
X419465D01*
Y521434D01*
X405490D01*
Y521574D01*
X404931D01*
Y521713D01*
X404512D01*
Y521853D01*
X404232D01*
Y521993D01*
X403953D01*
Y522133D01*
X403673D01*
Y522273D01*
X403534D01*
Y522412D01*
X403254D01*
Y522552D01*
X403114D01*
Y522692D01*
X402975D01*
Y522832D01*
X402835D01*
Y522971D01*
X402695D01*
Y523111D01*
X402555D01*
Y523391D01*
X402416D01*
Y523530D01*
X402276D01*
Y523810D01*
X402136D01*
Y524089D01*
X401996D01*
Y524369D01*
X401856D01*
Y524788D01*
X401717D01*
Y525347D01*
X401577D01*
Y527583D01*
X401717D01*
Y528142D01*
X401856D01*
Y528562D01*
X401996D01*
Y528841D01*
X402136D01*
Y529120D01*
X402276D01*
Y529400D01*
X402416D01*
Y529679D01*
X402555D01*
Y529959D01*
X402695D01*
Y530099D01*
X402835D01*
Y530378D01*
X402975D01*
Y530518D01*
X403114D01*
Y530658D01*
X403254D01*
Y530937D01*
X403394D01*
Y531077D01*
X403534D01*
Y531217D01*
X403673D01*
Y531357D01*
X403813D01*
Y531496D01*
X403953D01*
Y531636D01*
X404092D01*
Y531776D01*
X404232D01*
Y531916D01*
X404372D01*
Y532055D01*
X401996D01*
Y538344D01*
X419465D01*
Y532055D01*
D02*
G37*
G36*
X466462Y591948D02*
X467240D01*
Y591819D01*
X467760D01*
Y591689D01*
X468279D01*
Y591559D01*
X468668D01*
Y591429D01*
X468927D01*
Y591300D01*
X469317D01*
Y591170D01*
X469576D01*
Y591040D01*
X469836D01*
Y590910D01*
X470095D01*
Y590781D01*
X470225D01*
Y590651D01*
X470485D01*
Y590521D01*
X470744D01*
Y590391D01*
X470874D01*
Y590262D01*
X471133D01*
Y590132D01*
X471263D01*
Y590002D01*
X471393D01*
Y589872D01*
X471652D01*
Y589743D01*
X471782D01*
Y589613D01*
X471912D01*
Y589483D01*
X472042D01*
Y589353D01*
X472171D01*
Y589224D01*
X472301D01*
Y589094D01*
X472431D01*
Y588964D01*
X472561D01*
Y588834D01*
X472690D01*
Y588704D01*
X472820D01*
Y588575D01*
X472950D01*
Y588315D01*
X473080D01*
Y588185D01*
X473209D01*
Y588056D01*
X473339D01*
Y587796D01*
X473469D01*
Y587666D01*
X473599D01*
Y587537D01*
X473728D01*
Y587277D01*
X473858D01*
Y587018D01*
X473988D01*
Y586888D01*
X474118D01*
Y586628D01*
X474248D01*
Y586369D01*
X474377D01*
Y586109D01*
X474507D01*
Y585850D01*
X474637D01*
Y585460D01*
X474767D01*
Y585201D01*
X474896D01*
Y584812D01*
X475026D01*
Y584422D01*
X475156D01*
Y583903D01*
X475286D01*
Y583384D01*
X475415D01*
Y582735D01*
X475545D01*
Y581827D01*
X475675D01*
Y578324D01*
X475545D01*
Y577285D01*
X475415D01*
Y576507D01*
X475286D01*
Y575988D01*
X475156D01*
Y575469D01*
X475026D01*
Y575079D01*
X474896D01*
Y574690D01*
X474767D01*
Y574301D01*
X474637D01*
Y573912D01*
X474507D01*
Y573652D01*
X474377D01*
Y573263D01*
X474248D01*
Y573003D01*
X473988D01*
Y572874D01*
X473728D01*
Y572744D01*
X473339D01*
Y572614D01*
X472950D01*
Y572484D01*
X472690D01*
Y572355D01*
X472171D01*
Y572614D01*
X472042D01*
Y572874D01*
X472171D01*
Y573133D01*
X472301D01*
Y573263D01*
X472431D01*
Y573522D01*
X472561D01*
Y573782D01*
X472690D01*
Y574041D01*
X472820D01*
Y574431D01*
X472950D01*
Y574690D01*
X473080D01*
Y575079D01*
X473209D01*
Y575469D01*
X473339D01*
Y575988D01*
X473469D01*
Y576637D01*
X473599D01*
Y577545D01*
X473728D01*
Y579751D01*
X473599D01*
Y580659D01*
X473469D01*
Y581308D01*
X473339D01*
Y581827D01*
X473209D01*
Y582216D01*
X473080D01*
Y582606D01*
X472950D01*
Y582865D01*
X472820D01*
Y583255D01*
X472690D01*
Y583514D01*
X472561D01*
Y583644D01*
X472431D01*
Y583903D01*
X472301D01*
Y584163D01*
X472171D01*
Y584292D01*
X472042D01*
Y584552D01*
X471912D01*
Y584682D01*
X471782D01*
Y584812D01*
X471652D01*
Y585071D01*
X471523D01*
Y585201D01*
X471393D01*
Y585331D01*
X471263D01*
Y585460D01*
X471133D01*
Y585590D01*
X471004D01*
Y585720D01*
X470874D01*
Y585850D01*
X470744D01*
Y585979D01*
X470614D01*
Y586109D01*
X470355D01*
Y586239D01*
X470225D01*
Y586369D01*
X470095D01*
Y586498D01*
X469836D01*
Y586628D01*
X469706D01*
Y586758D01*
X469446D01*
Y586888D01*
X469317D01*
Y587018D01*
X469057D01*
Y587147D01*
X468798D01*
Y587277D01*
X468538D01*
Y587407D01*
X468279D01*
Y587537D01*
X467889D01*
Y587666D01*
X467500D01*
Y587796D01*
X467111D01*
Y587926D01*
X466721D01*
Y588056D01*
X466073D01*
Y588185D01*
X465294D01*
Y588315D01*
X462050D01*
Y588185D01*
X461401D01*
Y588056D01*
X460882D01*
Y587926D01*
X460493D01*
Y587796D01*
X460104D01*
Y587666D01*
X459714D01*
Y587537D01*
X459455D01*
Y587407D01*
X459195D01*
Y587277D01*
X458936D01*
Y587147D01*
X458676D01*
Y587018D01*
X458417D01*
Y586888D01*
X458287D01*
Y586758D01*
X458027D01*
Y586628D01*
X457898D01*
Y586498D01*
X457768D01*
Y586369D01*
X457638D01*
Y586239D01*
X457379D01*
Y586109D01*
X457249D01*
Y585979D01*
X457119D01*
Y585850D01*
X456989D01*
Y585720D01*
X456860D01*
Y585590D01*
X456730D01*
Y585460D01*
X456600D01*
Y585201D01*
X456470D01*
Y585071D01*
X456341D01*
Y584941D01*
X456211D01*
Y584682D01*
X456081D01*
Y584552D01*
X455951D01*
Y584292D01*
X455821D01*
Y584033D01*
X455692D01*
Y583773D01*
X455562D01*
Y583514D01*
X455432D01*
Y583125D01*
X455303D01*
Y582865D01*
X455173D01*
Y582346D01*
X455043D01*
Y581697D01*
X454913D01*
Y580530D01*
X454784D01*
Y579621D01*
X454913D01*
Y578453D01*
X455043D01*
Y577675D01*
X455173D01*
Y577156D01*
X455303D01*
Y576766D01*
X455432D01*
Y576377D01*
X455562D01*
Y576118D01*
X455692D01*
Y575858D01*
X455821D01*
Y575599D01*
X455951D01*
Y575339D01*
X456081D01*
Y575079D01*
X456211D01*
Y574950D01*
X456341D01*
Y574690D01*
X456470D01*
Y574561D01*
X456600D01*
Y574431D01*
X456860D01*
Y574301D01*
X458157D01*
Y574171D01*
X459195D01*
Y573003D01*
X459066D01*
Y572874D01*
X457379D01*
Y572744D01*
X456341D01*
Y572614D01*
X455692D01*
Y572484D01*
X455043D01*
Y572355D01*
X454394D01*
Y572614D01*
X454264D01*
Y573003D01*
X454135D01*
Y573522D01*
X454005D01*
Y574041D01*
X453875D01*
Y574561D01*
X453745D01*
Y575339D01*
X453616D01*
Y575988D01*
X453486D01*
Y576896D01*
X453356D01*
Y578194D01*
X453226D01*
Y581308D01*
X453356D01*
Y582476D01*
X453486D01*
Y583125D01*
X453616D01*
Y583773D01*
X453745D01*
Y584292D01*
X453875D01*
Y584682D01*
X454005D01*
Y585071D01*
X454135D01*
Y585460D01*
X454264D01*
Y585720D01*
X454394D01*
Y585979D01*
X454524D01*
Y586239D01*
X454654D01*
Y586498D01*
X454784D01*
Y586758D01*
X454913D01*
Y587018D01*
X455043D01*
Y587277D01*
X455173D01*
Y587407D01*
X455303D01*
Y587666D01*
X455432D01*
Y587796D01*
X455562D01*
Y588056D01*
X455692D01*
Y588185D01*
X455821D01*
Y588315D01*
X455951D01*
Y588445D01*
X456081D01*
Y588704D01*
X456211D01*
Y588834D01*
X456341D01*
Y588964D01*
X456470D01*
Y589094D01*
X456600D01*
Y589224D01*
X456730D01*
Y589353D01*
X456860D01*
Y589483D01*
X457119D01*
Y589613D01*
X457249D01*
Y589743D01*
X457379D01*
Y589872D01*
X457508D01*
Y590002D01*
X457768D01*
Y590132D01*
X457898D01*
Y590262D01*
X458027D01*
Y590391D01*
X458287D01*
Y590521D01*
X458546D01*
Y590651D01*
X458676D01*
Y590781D01*
X458936D01*
Y590910D01*
X459195D01*
Y591040D01*
X459455D01*
Y591170D01*
X459844D01*
Y591300D01*
X460104D01*
Y591429D01*
X460493D01*
Y591559D01*
X460882D01*
Y591689D01*
X461401D01*
Y591819D01*
X461920D01*
Y591948D01*
X462699D01*
Y592078D01*
X466462D01*
Y591948D01*
D02*
G37*
G36*
X409683Y593407D02*
X410521D01*
Y593267D01*
X411220D01*
Y593127D01*
X411779D01*
Y592988D01*
X412198D01*
Y592848D01*
X412617D01*
Y592708D01*
X413037D01*
Y592568D01*
X413316D01*
Y592429D01*
X413596D01*
Y592289D01*
X413875D01*
Y592149D01*
X414155D01*
Y592009D01*
X414434D01*
Y591870D01*
X414714D01*
Y591730D01*
X414993D01*
Y591590D01*
X415133D01*
Y591450D01*
X415413D01*
Y591311D01*
X415552D01*
Y591171D01*
X415692D01*
Y591031D01*
X415972D01*
Y590891D01*
X416111D01*
Y590752D01*
X416251D01*
Y590612D01*
X416391D01*
Y590472D01*
X416530D01*
Y590332D01*
X416670D01*
Y590193D01*
X416810D01*
Y590053D01*
X416950D01*
Y589913D01*
X417090D01*
Y589773D01*
X417229D01*
Y589634D01*
X417369D01*
Y589494D01*
X417509D01*
Y589354D01*
X417649D01*
Y589214D01*
X417788D01*
Y588935D01*
X417928D01*
Y588795D01*
X418068D01*
Y588655D01*
X418208D01*
Y588376D01*
X418347D01*
Y588096D01*
X418487D01*
Y587957D01*
X418627D01*
Y587677D01*
X418767D01*
Y587397D01*
X418906D01*
Y587118D01*
X419046D01*
Y586838D01*
X419186D01*
Y586419D01*
X419326D01*
Y586140D01*
X419465D01*
Y585720D01*
X419605D01*
Y585162D01*
X419745D01*
Y584463D01*
X419885D01*
Y583484D01*
X420024D01*
Y581668D01*
X419885D01*
Y580130D01*
X419745D01*
Y579292D01*
X419605D01*
Y578733D01*
X419465D01*
Y578174D01*
X419326D01*
Y577755D01*
X419186D01*
Y577475D01*
X419046D01*
Y577056D01*
X418906D01*
Y576776D01*
X418767D01*
Y576497D01*
X418627D01*
Y576217D01*
X418487D01*
Y576077D01*
X418347D01*
Y575798D01*
X418208D01*
Y575518D01*
X418068D01*
Y575379D01*
X417928D01*
Y575239D01*
X417788D01*
Y574959D01*
X417649D01*
Y574820D01*
X417509D01*
Y574680D01*
X417369D01*
Y574540D01*
X417229D01*
Y574400D01*
X417090D01*
Y574261D01*
X416950D01*
Y574121D01*
X416810D01*
Y573981D01*
X416670D01*
Y573842D01*
X416530D01*
Y573702D01*
X416391D01*
Y573562D01*
X416111D01*
Y573422D01*
X415972D01*
Y573282D01*
X415832D01*
Y573143D01*
X415552D01*
Y573003D01*
X415273D01*
Y572863D01*
X415133D01*
Y572723D01*
X414854D01*
Y572584D01*
X414574D01*
Y572444D01*
X414295D01*
Y572304D01*
X414015D01*
Y572164D01*
X413736D01*
Y572025D01*
X413456D01*
Y571885D01*
X413037D01*
Y571745D01*
X412617D01*
Y571605D01*
X412198D01*
Y571466D01*
X411779D01*
Y571326D01*
X411499D01*
Y571605D01*
X411360D01*
Y572164D01*
X411220D01*
Y572863D01*
X411080D01*
Y573562D01*
X410940D01*
Y574121D01*
X410801D01*
Y574820D01*
X410661D01*
Y575379D01*
X410521D01*
Y576077D01*
X410382D01*
Y576776D01*
X410661D01*
Y576916D01*
X411080D01*
Y577056D01*
X411499D01*
Y577196D01*
X411919D01*
Y577335D01*
X412198D01*
Y577475D01*
X412478D01*
Y577615D01*
X412617D01*
Y577755D01*
X412897D01*
Y577894D01*
X413037D01*
Y578034D01*
X413316D01*
Y578174D01*
X413456D01*
Y578313D01*
X413596D01*
Y578453D01*
X413736D01*
Y578593D01*
X413875D01*
Y578733D01*
X414015D01*
Y578873D01*
X414155D01*
Y579152D01*
X414295D01*
Y579292D01*
X414434D01*
Y579571D01*
X414574D01*
Y579851D01*
X414714D01*
Y580270D01*
X414854D01*
Y581109D01*
X414993D01*
Y581668D01*
X414854D01*
Y582646D01*
X414714D01*
Y583065D01*
X414574D01*
Y583345D01*
X414434D01*
Y583624D01*
X414295D01*
Y583904D01*
X414155D01*
Y584043D01*
X414015D01*
Y584183D01*
X413875D01*
Y584323D01*
X413736D01*
Y584463D01*
X413596D01*
Y584603D01*
X413456D01*
Y584742D01*
X413176D01*
Y584882D01*
X412897D01*
Y585022D01*
X412757D01*
Y585162D01*
X412338D01*
Y585301D01*
X412058D01*
Y585441D01*
X411639D01*
Y585581D01*
X411080D01*
Y585720D01*
X410382D01*
Y585860D01*
X409263D01*
Y586000D01*
X404651D01*
Y585860D01*
X403534D01*
Y585720D01*
X402835D01*
Y585581D01*
X402276D01*
Y585441D01*
X401856D01*
Y585301D01*
X401577D01*
Y585162D01*
X401297D01*
Y585022D01*
X401018D01*
Y584882D01*
X400738D01*
Y584742D01*
X400599D01*
Y584603D01*
X400459D01*
Y584463D01*
X400319D01*
Y584323D01*
X400179D01*
Y584183D01*
X400040D01*
Y584043D01*
X399900D01*
Y583904D01*
X399760D01*
Y583624D01*
X399620D01*
Y583345D01*
X399481D01*
Y582925D01*
X399341D01*
Y581109D01*
X399481D01*
Y580689D01*
X399620D01*
Y580410D01*
X399760D01*
Y580130D01*
X399900D01*
Y579991D01*
X400040D01*
Y579851D01*
X400179D01*
Y579711D01*
X400319D01*
Y579571D01*
X400459D01*
Y579432D01*
X400599D01*
Y579292D01*
X400878D01*
Y579152D01*
X401018D01*
Y579012D01*
X401297D01*
Y578873D01*
X401577D01*
Y578733D01*
X401996D01*
Y578593D01*
X402416D01*
Y578453D01*
X402975D01*
Y578313D01*
X403534D01*
Y576916D01*
X403394D01*
Y575099D01*
X403254D01*
Y573143D01*
X403114D01*
Y571605D01*
X402136D01*
Y571745D01*
X401577D01*
Y571885D01*
X401018D01*
Y572025D01*
X400599D01*
Y572164D01*
X400179D01*
Y572304D01*
X399900D01*
Y572444D01*
X399620D01*
Y572584D01*
X399341D01*
Y572723D01*
X399061D01*
Y572863D01*
X398782D01*
Y573003D01*
X398642D01*
Y573143D01*
X398363D01*
Y573282D01*
X398223D01*
Y573422D01*
X397943D01*
Y573562D01*
X397804D01*
Y573702D01*
X397664D01*
Y573842D01*
X397524D01*
Y573981D01*
X397384D01*
Y574121D01*
X397105D01*
Y574261D01*
X396965D01*
Y574400D01*
X396825D01*
Y574680D01*
X396686D01*
Y574820D01*
X396546D01*
Y574959D01*
X396406D01*
Y575099D01*
X396266D01*
Y575239D01*
X396127D01*
Y575518D01*
X395987D01*
Y575658D01*
X395847D01*
Y575938D01*
X395707D01*
Y576077D01*
X395568D01*
Y576357D01*
X395428D01*
Y576637D01*
X395288D01*
Y576916D01*
X395148D01*
Y577196D01*
X395009D01*
Y577615D01*
X394869D01*
Y578034D01*
X394729D01*
Y578453D01*
X394589D01*
Y579012D01*
X394450D01*
Y579711D01*
X394310D01*
Y583764D01*
X394450D01*
Y584463D01*
X394589D01*
Y585022D01*
X394729D01*
Y585581D01*
X394869D01*
Y586000D01*
X395009D01*
Y586419D01*
X395148D01*
Y586699D01*
X395288D01*
Y586978D01*
X395428D01*
Y587258D01*
X395568D01*
Y587537D01*
X395707D01*
Y587817D01*
X395847D01*
Y588096D01*
X395987D01*
Y588236D01*
X396127D01*
Y588516D01*
X396266D01*
Y588655D01*
X396406D01*
Y588935D01*
X396546D01*
Y589075D01*
X396686D01*
Y589214D01*
X396825D01*
Y589494D01*
X396965D01*
Y589634D01*
X397105D01*
Y589773D01*
X397245D01*
Y589913D01*
X397384D01*
Y590053D01*
X397524D01*
Y590193D01*
X397664D01*
Y590332D01*
X397804D01*
Y590472D01*
X397943D01*
Y590612D01*
X398083D01*
Y590752D01*
X398363D01*
Y590891D01*
X398502D01*
Y591031D01*
X398642D01*
Y591171D01*
X398782D01*
Y591311D01*
X399061D01*
Y591450D01*
X399201D01*
Y591590D01*
X399481D01*
Y591730D01*
X399760D01*
Y591870D01*
X399900D01*
Y592009D01*
X400179D01*
Y592149D01*
X400459D01*
Y592289D01*
X400738D01*
Y592429D01*
X401158D01*
Y592568D01*
X401437D01*
Y592708D01*
X401856D01*
Y592848D01*
X402276D01*
Y592988D01*
X402695D01*
Y593127D01*
X403254D01*
Y593267D01*
X403953D01*
Y593407D01*
X404931D01*
Y593547D01*
X409683D01*
Y593407D01*
D02*
G37*
G36*
X427441Y593028D02*
X427570D01*
Y591860D01*
X427700D01*
Y591341D01*
X427830D01*
Y591081D01*
X428090D01*
Y590951D01*
X428479D01*
Y590822D01*
X430166D01*
Y590692D01*
X443272D01*
Y590822D01*
X445997D01*
Y590951D01*
X446386D01*
Y591211D01*
X446516D01*
Y591341D01*
X446645D01*
Y591600D01*
X446775D01*
Y591860D01*
X446905D01*
Y592119D01*
X447035D01*
Y592249D01*
X447164D01*
Y592379D01*
X447943D01*
Y591341D01*
X447813D01*
Y580441D01*
X447943D01*
Y576937D01*
X447813D01*
Y576808D01*
X445867D01*
Y576678D01*
X444050D01*
Y576548D01*
X442493D01*
Y577716D01*
X442623D01*
Y577846D01*
X443531D01*
Y577975D01*
X444180D01*
Y578105D01*
X444829D01*
Y578235D01*
X445218D01*
Y578365D01*
X445607D01*
Y578494D01*
X445737D01*
Y578624D01*
X445867D01*
Y579013D01*
X445997D01*
Y580181D01*
X446126D01*
Y583425D01*
X446256D01*
Y587188D01*
X437692D01*
Y582387D01*
X437822D01*
Y581479D01*
X437951D01*
Y581090D01*
X438081D01*
Y580830D01*
X438470D01*
Y580700D01*
X438860D01*
Y580571D01*
X439509D01*
Y580441D01*
X440417D01*
Y580311D01*
X440547D01*
Y579273D01*
X433410D01*
Y580311D01*
X433540D01*
Y580441D01*
X434707D01*
Y580571D01*
X435226D01*
Y580700D01*
X435616D01*
Y580830D01*
X435745D01*
Y580960D01*
X435875D01*
Y581349D01*
X436005D01*
Y582776D01*
X436135D01*
Y585112D01*
X436005D01*
Y587188D01*
X430036D01*
Y587059D01*
X428090D01*
Y584723D01*
X427960D01*
Y583425D01*
X428090D01*
Y580830D01*
X428219D01*
Y579792D01*
X428349D01*
Y579143D01*
X428479D01*
Y578884D01*
X428738D01*
Y578754D01*
X429906D01*
Y578624D01*
X431463D01*
Y577586D01*
X431334D01*
Y577456D01*
X430295D01*
Y577327D01*
X428609D01*
Y577197D01*
X427052D01*
Y577067D01*
X426403D01*
Y577197D01*
X426273D01*
Y579403D01*
X426403D01*
Y592249D01*
X426273D01*
Y593547D01*
X427441D01*
Y593028D01*
D02*
G37*
G36*
X447943Y573434D02*
X447813D01*
Y568633D01*
X447943D01*
Y567076D01*
X446775D01*
Y568114D01*
X446645D01*
Y568892D01*
X446516D01*
Y569152D01*
X446386D01*
Y569281D01*
X445867D01*
Y569411D01*
X426662D01*
Y569281D01*
X425365D01*
Y569541D01*
X425235D01*
Y570060D01*
X425365D01*
Y570449D01*
X425494D01*
Y570839D01*
X425624D01*
Y571228D01*
X425754D01*
Y571617D01*
X425884D01*
Y572136D01*
X426013D01*
Y572655D01*
X426143D01*
Y573304D01*
X426273D01*
Y573953D01*
X426403D01*
Y574861D01*
X426532D01*
Y574991D01*
X427570D01*
Y574861D01*
X427700D01*
Y572915D01*
X427830D01*
Y572785D01*
X428090D01*
Y572655D01*
X445997D01*
Y572785D01*
X446386D01*
Y572915D01*
X446516D01*
Y573174D01*
X446645D01*
Y573953D01*
X446775D01*
Y574991D01*
X447943D01*
Y573434D01*
D02*
G37*
G36*
X411360Y570907D02*
X412757D01*
Y570767D01*
X413456D01*
Y570627D01*
X414015D01*
Y570487D01*
X414434D01*
Y570348D01*
X414714D01*
Y570208D01*
X415133D01*
Y570068D01*
X415413D01*
Y569928D01*
X415692D01*
Y569789D01*
X415832D01*
Y569649D01*
X416111D01*
Y569509D01*
X416391D01*
Y569369D01*
X416530D01*
Y569230D01*
X416670D01*
Y569090D01*
X416950D01*
Y568950D01*
X417090D01*
Y568810D01*
X417229D01*
Y568671D01*
X417369D01*
Y568531D01*
X417509D01*
Y568391D01*
X417649D01*
Y568251D01*
X417788D01*
Y568112D01*
X417928D01*
Y567972D01*
X418068D01*
Y567692D01*
X418208D01*
Y567553D01*
X418347D01*
Y567273D01*
X418487D01*
Y567133D01*
X418627D01*
Y566854D01*
X418767D01*
Y566574D01*
X418906D01*
Y566435D01*
X419046D01*
Y566015D01*
X419186D01*
Y565736D01*
X419326D01*
Y565317D01*
X419465D01*
Y564897D01*
X419605D01*
Y564338D01*
X419745D01*
Y563779D01*
X419885D01*
Y562522D01*
X420024D01*
Y560844D01*
X419885D01*
Y559587D01*
X419745D01*
Y558888D01*
X419605D01*
Y558469D01*
X419465D01*
Y558049D01*
X419326D01*
Y557630D01*
X419186D01*
Y557351D01*
X419046D01*
Y556931D01*
X418906D01*
Y556652D01*
X418767D01*
Y556512D01*
X418627D01*
Y556233D01*
X418487D01*
Y555953D01*
X418347D01*
Y555813D01*
X418208D01*
Y555674D01*
X418068D01*
Y555394D01*
X417928D01*
Y555254D01*
X417788D01*
Y555115D01*
X417649D01*
Y554975D01*
X417509D01*
Y554835D01*
X417369D01*
Y554695D01*
X417229D01*
Y554556D01*
X417090D01*
Y554416D01*
X416950D01*
Y554276D01*
X416810D01*
Y554136D01*
X416530D01*
Y553997D01*
X416391D01*
Y553857D01*
X416111D01*
Y553717D01*
X415972D01*
Y553577D01*
X415692D01*
Y553438D01*
X415413D01*
Y553298D01*
X415133D01*
Y553158D01*
X414854D01*
Y553018D01*
X414574D01*
Y552878D01*
X414155D01*
Y552739D01*
X413736D01*
Y552599D01*
X413037D01*
Y552459D01*
X412198D01*
Y552319D01*
X409263D01*
Y552459D01*
X408425D01*
Y552599D01*
X407866D01*
Y552739D01*
X407447D01*
Y552878D01*
X407027D01*
Y553018D01*
X406748D01*
Y553158D01*
X406468D01*
Y553298D01*
X406189D01*
Y553438D01*
X405909D01*
Y553577D01*
X405630D01*
Y553717D01*
X405490D01*
Y553857D01*
X405211D01*
Y553997D01*
X405071D01*
Y554136D01*
X404791D01*
Y554276D01*
X404651D01*
Y554416D01*
X404512D01*
Y554556D01*
X404372D01*
Y554695D01*
X404232D01*
Y554835D01*
X404092D01*
Y554975D01*
X403953D01*
Y555115D01*
X403813D01*
Y555254D01*
X403673D01*
Y555394D01*
X403534D01*
Y555674D01*
X403394D01*
Y555813D01*
X403254D01*
Y555953D01*
X403114D01*
Y556233D01*
X402975D01*
Y556372D01*
X402835D01*
Y556652D01*
X402695D01*
Y556931D01*
X402555D01*
Y557211D01*
X402416D01*
Y557490D01*
X402276D01*
Y557910D01*
X402136D01*
Y558329D01*
X401996D01*
Y558748D01*
X401856D01*
Y559307D01*
X401717D01*
Y560146D01*
X401577D01*
Y563220D01*
X401717D01*
Y564059D01*
X401856D01*
Y564618D01*
X401996D01*
Y565037D01*
X402136D01*
Y565456D01*
X402276D01*
Y565876D01*
X402416D01*
Y566155D01*
X402555D01*
Y566435D01*
X402695D01*
Y566714D01*
X402835D01*
Y566994D01*
X402975D01*
Y567133D01*
X403114D01*
Y567413D01*
X403254D01*
Y567553D01*
X403394D01*
Y567692D01*
X403534D01*
Y567972D01*
X403673D01*
Y568112D01*
X403813D01*
Y568251D01*
X403953D01*
Y568391D01*
X404092D01*
Y568531D01*
X404232D01*
Y568671D01*
X404372D01*
Y568810D01*
X404512D01*
Y568950D01*
X404791D01*
Y569090D01*
X404931D01*
Y569230D01*
X405071D01*
Y569369D01*
X405350D01*
Y569509D01*
X405490D01*
Y569649D01*
X405770D01*
Y569789D01*
X406049D01*
Y569928D01*
X406189D01*
Y570068D01*
X406608D01*
Y570208D01*
X406888D01*
Y570348D01*
X407307D01*
Y570487D01*
X407726D01*
Y570627D01*
X408145D01*
Y570767D01*
X408844D01*
Y570907D01*
X410242D01*
Y571046D01*
X411360D01*
Y570907D01*
D02*
G37*
G36*
X475286Y552242D02*
X475156D01*
Y547570D01*
X475286D01*
Y546013D01*
X474118D01*
Y547051D01*
X473988D01*
Y547830D01*
X473858D01*
Y548089D01*
X473728D01*
Y548219D01*
X473080D01*
Y548349D01*
X464905D01*
Y548219D01*
X464645D01*
Y548089D01*
X464386D01*
Y547960D01*
X464256D01*
Y547830D01*
X464126D01*
Y547700D01*
X463997D01*
Y547570D01*
X463867D01*
Y547311D01*
X463737D01*
Y547181D01*
X463607D01*
Y546922D01*
X463477D01*
Y546662D01*
X463348D01*
Y546273D01*
X463218D01*
Y545754D01*
X463088D01*
Y543937D01*
X463218D01*
Y543677D01*
X463348D01*
Y543418D01*
X463477D01*
Y543158D01*
X463607D01*
Y543029D01*
X463737D01*
Y542899D01*
X463867D01*
Y542769D01*
X463997D01*
Y542639D01*
X464256D01*
Y542510D01*
X464515D01*
Y542380D01*
X464905D01*
Y542250D01*
X465943D01*
Y542120D01*
X471133D01*
Y542250D01*
X473599D01*
Y542380D01*
X473858D01*
Y542639D01*
X473988D01*
Y543418D01*
X474118D01*
Y544586D01*
X475156D01*
Y544456D01*
X475286D01*
Y542899D01*
X475156D01*
Y538228D01*
X475286D01*
Y536670D01*
X474118D01*
Y537709D01*
X473988D01*
Y538487D01*
X473858D01*
Y538747D01*
X473599D01*
Y538876D01*
X472690D01*
Y539006D01*
X465035D01*
Y538876D01*
X464775D01*
Y538747D01*
X464515D01*
Y538617D01*
X464386D01*
Y538487D01*
X464256D01*
Y538357D01*
X464126D01*
Y538228D01*
X463997D01*
Y538098D01*
X463867D01*
Y537968D01*
X463737D01*
Y537709D01*
X463607D01*
Y537579D01*
X463477D01*
Y537319D01*
X463348D01*
Y536930D01*
X463218D01*
Y536541D01*
X463088D01*
Y534724D01*
X463218D01*
Y534335D01*
X463348D01*
Y534075D01*
X463477D01*
Y533945D01*
X463607D01*
Y533816D01*
X463737D01*
Y533686D01*
X463867D01*
Y533556D01*
X463997D01*
Y533426D01*
X464126D01*
Y533297D01*
X464386D01*
Y533167D01*
X464775D01*
Y533037D01*
X465294D01*
Y532907D01*
X466592D01*
Y532778D01*
X471393D01*
Y532907D01*
X473728D01*
Y533037D01*
X475156D01*
Y532907D01*
X475286D01*
Y531740D01*
X475156D01*
Y528755D01*
X475286D01*
Y527587D01*
X474118D01*
Y528755D01*
X473988D01*
Y529274D01*
X473858D01*
Y529404D01*
X473728D01*
Y529534D01*
X473209D01*
Y529663D01*
X471393D01*
Y529534D01*
X464256D01*
Y529663D01*
X463737D01*
Y529793D01*
X463218D01*
Y529923D01*
X462958D01*
Y530053D01*
X462699D01*
Y530182D01*
X462439D01*
Y530312D01*
X462309D01*
Y530442D01*
X462050D01*
Y530572D01*
X461920D01*
Y530701D01*
X461791D01*
Y530831D01*
X461661D01*
Y530961D01*
X461531D01*
Y531091D01*
X461401D01*
Y531350D01*
X461272D01*
Y531480D01*
X461142D01*
Y531740D01*
X461012D01*
Y531999D01*
X460882D01*
Y532259D01*
X460752D01*
Y532778D01*
X460623D01*
Y533426D01*
X460493D01*
Y535503D01*
X460623D01*
Y536151D01*
X460752D01*
Y536411D01*
X460882D01*
Y536541D01*
X461012D01*
Y536670D01*
X461142D01*
Y536800D01*
X461272D01*
Y536930D01*
X461401D01*
Y537060D01*
X461531D01*
Y537189D01*
X461661D01*
Y537319D01*
X461791D01*
Y537449D01*
X461920D01*
Y537709D01*
X462050D01*
Y537838D01*
X462180D01*
Y537968D01*
X462309D01*
Y538098D01*
X462439D01*
Y538228D01*
X462569D01*
Y538357D01*
X462699D01*
Y538487D01*
X462829D01*
Y538617D01*
X462958D01*
Y538747D01*
X463088D01*
Y538876D01*
X463218D01*
Y539006D01*
X463348D01*
Y539136D01*
X463477D01*
Y539266D01*
X463088D01*
Y539395D01*
X462829D01*
Y539525D01*
X462569D01*
Y539655D01*
X462309D01*
Y539785D01*
X462180D01*
Y539914D01*
X462050D01*
Y540044D01*
X461791D01*
Y540174D01*
X461661D01*
Y540304D01*
X461531D01*
Y540563D01*
X461401D01*
Y540693D01*
X461272D01*
Y540823D01*
X461142D01*
Y541082D01*
X461012D01*
Y541342D01*
X460882D01*
Y541601D01*
X460752D01*
Y541991D01*
X460623D01*
Y542639D01*
X460493D01*
Y544586D01*
X460623D01*
Y545235D01*
X460752D01*
Y545754D01*
X460882D01*
Y545883D01*
X461012D01*
Y546013D01*
X461142D01*
Y546143D01*
X461272D01*
Y546273D01*
X461401D01*
Y546403D01*
X461531D01*
Y546662D01*
X461661D01*
Y546792D01*
X461791D01*
Y546922D01*
X461920D01*
Y547051D01*
X462050D01*
Y547181D01*
X462180D01*
Y547311D01*
X462309D01*
Y547441D01*
X462439D01*
Y547570D01*
X462569D01*
Y547830D01*
X462699D01*
Y547960D01*
X462829D01*
Y548089D01*
X462958D01*
Y548219D01*
X463088D01*
Y548349D01*
X463218D01*
Y548479D01*
X462439D01*
Y548349D01*
X460623D01*
Y548479D01*
X460493D01*
Y548868D01*
X460623D01*
Y549257D01*
X460752D01*
Y549517D01*
X460882D01*
Y549906D01*
X461012D01*
Y550295D01*
X461142D01*
Y550814D01*
X461272D01*
Y551333D01*
X461401D01*
Y551852D01*
X461531D01*
Y552501D01*
X461661D01*
Y553410D01*
X461791D01*
Y553929D01*
X462958D01*
Y552242D01*
X463088D01*
Y551723D01*
X463348D01*
Y551593D01*
X473469D01*
Y551723D01*
X473728D01*
Y551852D01*
X473858D01*
Y552112D01*
X473988D01*
Y552891D01*
X474118D01*
Y553929D01*
X475286D01*
Y552242D01*
D02*
G37*
G36*
X469836Y569889D02*
X470485D01*
Y569759D01*
X471004D01*
Y569630D01*
X471393D01*
Y569500D01*
X471782D01*
Y569370D01*
X472042D01*
Y569240D01*
X472301D01*
Y569111D01*
X472561D01*
Y568981D01*
X472820D01*
Y568851D01*
X472950D01*
Y568721D01*
X473209D01*
Y568591D01*
X473339D01*
Y568462D01*
X473469D01*
Y568332D01*
X473599D01*
Y568202D01*
X473728D01*
Y568073D01*
X473858D01*
Y567943D01*
X473988D01*
Y567813D01*
X474118D01*
Y567683D01*
X474248D01*
Y567553D01*
X474377D01*
Y567294D01*
X474507D01*
Y567164D01*
X474637D01*
Y566905D01*
X474767D01*
Y566775D01*
X474896D01*
Y566515D01*
X475026D01*
Y566256D01*
X475156D01*
Y565867D01*
X475286D01*
Y565477D01*
X475415D01*
Y564958D01*
X475545D01*
Y564310D01*
X475675D01*
Y561585D01*
X475545D01*
Y560936D01*
X475415D01*
Y560546D01*
X475286D01*
Y560157D01*
X475156D01*
Y559768D01*
X475026D01*
Y559508D01*
X474896D01*
Y559249D01*
X474767D01*
Y558989D01*
X474637D01*
Y558730D01*
X474507D01*
Y558470D01*
X474377D01*
Y558340D01*
X474248D01*
Y558211D01*
X474118D01*
Y557951D01*
X473988D01*
Y557821D01*
X473858D01*
Y557692D01*
X473728D01*
Y557562D01*
X473599D01*
Y557432D01*
X473469D01*
Y557302D01*
X473339D01*
Y557173D01*
X473209D01*
Y557043D01*
X473080D01*
Y556913D01*
X472950D01*
Y556783D01*
X472820D01*
Y556654D01*
X472561D01*
Y556524D01*
X472431D01*
Y556394D01*
X472171D01*
Y556264D01*
X471912D01*
Y556134D01*
X471782D01*
Y556005D01*
X471523D01*
Y555875D01*
X471133D01*
Y555745D01*
X470744D01*
Y555616D01*
X470355D01*
Y555486D01*
X469836D01*
Y555356D01*
X469057D01*
Y555226D01*
X466981D01*
Y555356D01*
X466073D01*
Y555486D01*
X465554D01*
Y555616D01*
X465164D01*
Y555745D01*
X464775D01*
Y555875D01*
X464515D01*
Y556005D01*
X464126D01*
Y556134D01*
X463867D01*
Y556264D01*
X463737D01*
Y556394D01*
X463477D01*
Y556524D01*
X463348D01*
Y556654D01*
X463088D01*
Y556783D01*
X462958D01*
Y556913D01*
X462829D01*
Y557043D01*
X462569D01*
Y557173D01*
X462439D01*
Y557302D01*
X462309D01*
Y557432D01*
X462180D01*
Y557692D01*
X462050D01*
Y557821D01*
X461920D01*
Y557951D01*
X461791D01*
Y558081D01*
X461661D01*
Y558340D01*
X461531D01*
Y558600D01*
X461401D01*
Y558730D01*
X461272D01*
Y558989D01*
X461142D01*
Y559379D01*
X461012D01*
Y559638D01*
X460882D01*
Y560027D01*
X460752D01*
Y560676D01*
X460623D01*
Y561455D01*
X460493D01*
Y563661D01*
X460623D01*
Y564569D01*
X460752D01*
Y565088D01*
X460882D01*
Y565477D01*
X461012D01*
Y565737D01*
X461142D01*
Y566126D01*
X461272D01*
Y566386D01*
X461401D01*
Y566645D01*
X461531D01*
Y566775D01*
X461661D01*
Y567034D01*
X461791D01*
Y567164D01*
X461920D01*
Y567294D01*
X462050D01*
Y567553D01*
X462180D01*
Y567683D01*
X462309D01*
Y567813D01*
X462439D01*
Y567943D01*
X462569D01*
Y568073D01*
X462699D01*
Y568202D01*
X462829D01*
Y568332D01*
X463088D01*
Y568462D01*
X463218D01*
Y568591D01*
X463348D01*
Y568721D01*
X463607D01*
Y568851D01*
X463737D01*
Y568981D01*
X463997D01*
Y569111D01*
X464256D01*
Y569240D01*
X464515D01*
Y569370D01*
X464905D01*
Y569500D01*
X465294D01*
Y569630D01*
X465683D01*
Y569759D01*
X466202D01*
Y569889D01*
X466981D01*
Y570019D01*
X469836D01*
Y569889D01*
D02*
G37*
G36*
X441714Y565648D02*
X442882D01*
Y565518D01*
X443401D01*
Y565389D01*
X443920D01*
Y565259D01*
X444180D01*
Y565129D01*
X444569D01*
Y564999D01*
X444829D01*
Y564870D01*
X445088D01*
Y564740D01*
X445348D01*
Y564610D01*
X445477D01*
Y564480D01*
X445737D01*
Y564351D01*
X445867D01*
Y564221D01*
X445997D01*
Y564091D01*
X446126D01*
Y563961D01*
X446256D01*
Y563831D01*
X446386D01*
Y563702D01*
X446516D01*
Y563572D01*
X446645D01*
Y563442D01*
X446775D01*
Y563312D01*
X446905D01*
Y563183D01*
X447035D01*
Y563053D01*
X447164D01*
Y562793D01*
X447294D01*
Y562534D01*
X447424D01*
Y562404D01*
X447554D01*
Y562145D01*
X447683D01*
Y561885D01*
X447813D01*
Y561496D01*
X447943D01*
Y561106D01*
X448073D01*
Y560588D01*
X448202D01*
Y559939D01*
X448332D01*
Y557214D01*
X448202D01*
Y556435D01*
X448073D01*
Y555916D01*
X447943D01*
Y555397D01*
X447813D01*
Y555137D01*
X447683D01*
Y554748D01*
X447554D01*
Y554489D01*
X447424D01*
Y554100D01*
X447294D01*
Y553840D01*
X447164D01*
Y553710D01*
X447035D01*
Y553451D01*
X446905D01*
Y553321D01*
X446645D01*
Y553191D01*
X446256D01*
Y553061D01*
X445997D01*
Y552932D01*
X445737D01*
Y552802D01*
X445477D01*
Y552672D01*
X445348D01*
Y552802D01*
X445218D01*
Y552932D01*
X445088D01*
Y553061D01*
X444958D01*
Y553191D01*
X445088D01*
Y553451D01*
X445218D01*
Y553580D01*
X445348D01*
Y553840D01*
X445477D01*
Y554100D01*
X445607D01*
Y554359D01*
X445737D01*
Y554618D01*
X445867D01*
Y554878D01*
X445997D01*
Y555267D01*
X446126D01*
Y555657D01*
X446256D01*
Y556305D01*
X446386D01*
Y557733D01*
X446256D01*
Y558382D01*
X446126D01*
Y558901D01*
X445997D01*
Y559160D01*
X445867D01*
Y559420D01*
X445737D01*
Y559679D01*
X445607D01*
Y559939D01*
X445477D01*
Y560069D01*
X445348D01*
Y560198D01*
X445218D01*
Y560458D01*
X445088D01*
Y560588D01*
X444958D01*
Y560717D01*
X444699D01*
Y560847D01*
X444569D01*
Y560977D01*
X444439D01*
Y561106D01*
X444180D01*
Y561236D01*
X444050D01*
Y561366D01*
X443791D01*
Y561496D01*
X443531D01*
Y561626D01*
X443142D01*
Y561755D01*
X442882D01*
Y561885D01*
X442363D01*
Y562015D01*
X441714D01*
Y562145D01*
X440676D01*
Y555527D01*
X440547D01*
Y554229D01*
X440417D01*
Y553580D01*
X440287D01*
Y552932D01*
X440157D01*
Y552542D01*
X440028D01*
Y552413D01*
X438470D01*
Y552542D01*
X437432D01*
Y552672D01*
X436913D01*
Y552802D01*
X436524D01*
Y552932D01*
X436135D01*
Y553061D01*
X435875D01*
Y553191D01*
X435616D01*
Y553321D01*
X435356D01*
Y553451D01*
X435226D01*
Y553580D01*
X434967D01*
Y553710D01*
X434837D01*
Y553840D01*
X434707D01*
Y553970D01*
X434578D01*
Y554100D01*
X434448D01*
Y554229D01*
X434318D01*
Y554489D01*
X434188D01*
Y554618D01*
X434059D01*
Y554878D01*
X433929D01*
Y555008D01*
X433799D01*
Y555267D01*
X433669D01*
Y555657D01*
X433540D01*
Y556046D01*
X433410D01*
Y556565D01*
X433280D01*
Y557343D01*
X433150D01*
Y559290D01*
X433280D01*
Y559809D01*
X433410D01*
Y560198D01*
X433540D01*
Y560588D01*
X433669D01*
Y560977D01*
X433799D01*
Y561236D01*
X433929D01*
Y561496D01*
X434059D01*
Y561755D01*
X434188D01*
Y561885D01*
X434318D01*
Y562145D01*
X434448D01*
Y562404D01*
X434578D01*
Y562664D01*
X434707D01*
Y562793D01*
X434837D01*
Y563053D01*
X434967D01*
Y563183D01*
X435097D01*
Y563442D01*
X435226D01*
Y563572D01*
X435356D01*
Y563831D01*
X435486D01*
Y563961D01*
X435616D01*
Y564091D01*
X435745D01*
Y564221D01*
X435875D01*
Y564351D01*
X436005D01*
Y564480D01*
X436135D01*
Y564610D01*
X436394D01*
Y564740D01*
X436524D01*
Y564870D01*
X436783D01*
Y564999D01*
X437043D01*
Y565129D01*
X437432D01*
Y565259D01*
X437822D01*
Y565389D01*
X438211D01*
Y565518D01*
X438989D01*
Y565648D01*
X440417D01*
Y565778D01*
X441714D01*
Y565648D01*
D02*
G37*
G36*
X419465Y494881D02*
X394729D01*
Y501170D01*
X419465D01*
Y494881D01*
D02*
G37*
G36*
X463607Y488919D02*
X463477D01*
Y488270D01*
X468279D01*
Y488400D01*
X472820D01*
Y488270D01*
X473469D01*
Y488140D01*
X473858D01*
Y488010D01*
X474118D01*
Y487881D01*
X474377D01*
Y487751D01*
X474507D01*
Y487621D01*
X474637D01*
Y487491D01*
X474767D01*
Y487361D01*
X474896D01*
Y487232D01*
X475026D01*
Y487102D01*
X475156D01*
Y486842D01*
X475286D01*
Y486713D01*
X475415D01*
Y486323D01*
X475545D01*
Y485804D01*
X475675D01*
Y483598D01*
X475545D01*
Y482950D01*
X475415D01*
Y482690D01*
X475286D01*
Y482560D01*
X475156D01*
Y482430D01*
X475026D01*
Y482301D01*
X474896D01*
Y482171D01*
X474637D01*
Y482041D01*
X474507D01*
Y481912D01*
X474377D01*
Y481782D01*
X474248D01*
Y481652D01*
X474118D01*
Y481522D01*
X473988D01*
Y481393D01*
X473858D01*
Y481263D01*
X473728D01*
Y481133D01*
X473599D01*
Y481003D01*
X473469D01*
Y480873D01*
X473209D01*
Y481003D01*
X473080D01*
Y481133D01*
X472950D01*
Y481522D01*
X473080D01*
Y481782D01*
X473209D01*
Y482301D01*
X473339D01*
Y483728D01*
X473209D01*
Y483988D01*
X473080D01*
Y484247D01*
X472950D01*
Y484377D01*
X472820D01*
Y484507D01*
X472690D01*
Y484636D01*
X472561D01*
Y484766D01*
X472301D01*
Y484896D01*
X471782D01*
Y485026D01*
X463607D01*
Y484117D01*
X463477D01*
Y482171D01*
X463607D01*
Y481263D01*
X463477D01*
Y481133D01*
X462699D01*
Y481003D01*
X461920D01*
Y480873D01*
X461661D01*
Y481003D01*
X461531D01*
Y481652D01*
X461661D01*
Y485026D01*
X459066D01*
Y484896D01*
X457119D01*
Y484766D01*
X456211D01*
Y484636D01*
X455692D01*
Y484766D01*
X455562D01*
Y484896D01*
X455432D01*
Y485415D01*
X455562D01*
Y485545D01*
X455692D01*
Y485804D01*
X455821D01*
Y486064D01*
X455951D01*
Y486323D01*
X456081D01*
Y486583D01*
X456211D01*
Y486842D01*
X456341D01*
Y487102D01*
X456470D01*
Y487361D01*
X456600D01*
Y487751D01*
X456730D01*
Y488140D01*
X456860D01*
Y488270D01*
X461661D01*
Y488400D01*
X461791D01*
Y488659D01*
X461920D01*
Y488919D01*
X462050D01*
Y489178D01*
X462180D01*
Y489438D01*
X462309D01*
Y489697D01*
X462439D01*
Y490086D01*
X462569D01*
Y490346D01*
X462699D01*
Y490605D01*
X463607D01*
Y488919D01*
D02*
G37*
G36*
X441974Y506737D02*
X443012D01*
Y506607D01*
X443661D01*
Y506477D01*
X444050D01*
Y506348D01*
X444439D01*
Y506218D01*
X444699D01*
Y506088D01*
X444958D01*
Y505958D01*
X445218D01*
Y505829D01*
X445477D01*
Y505699D01*
X445607D01*
Y505569D01*
X445867D01*
Y505439D01*
X445997D01*
Y505309D01*
X446126D01*
Y505180D01*
X446256D01*
Y505050D01*
X446386D01*
Y504920D01*
X446516D01*
Y504790D01*
X446645D01*
Y504661D01*
X446775D01*
Y504531D01*
X446905D01*
Y504401D01*
X447035D01*
Y504271D01*
X447164D01*
Y504012D01*
X447294D01*
Y503882D01*
X447424D01*
Y503623D01*
X447554D01*
Y503363D01*
X447683D01*
Y503104D01*
X447813D01*
Y502714D01*
X447943D01*
Y502325D01*
X448073D01*
Y501936D01*
X448202D01*
Y501287D01*
X448332D01*
Y498432D01*
X448202D01*
Y497654D01*
X448073D01*
Y497005D01*
X447943D01*
Y496615D01*
X447813D01*
Y496226D01*
X447683D01*
Y495837D01*
X447554D01*
Y495577D01*
X447424D01*
Y495318D01*
X447294D01*
Y495188D01*
X446905D01*
Y495058D01*
X446645D01*
Y494929D01*
X446256D01*
Y494799D01*
X445997D01*
Y494669D01*
X445477D01*
Y494799D01*
X445348D01*
Y495058D01*
X445477D01*
Y495318D01*
X445607D01*
Y495448D01*
X445737D01*
Y495837D01*
X445867D01*
Y496096D01*
X445997D01*
Y496486D01*
X446126D01*
Y496875D01*
X446256D01*
Y497654D01*
X446386D01*
Y498951D01*
X446256D01*
Y499600D01*
X446126D01*
Y499989D01*
X445997D01*
Y500379D01*
X445867D01*
Y500508D01*
X445737D01*
Y500768D01*
X445607D01*
Y501027D01*
X445477D01*
Y501157D01*
X445348D01*
Y501287D01*
X445218D01*
Y501417D01*
X445088D01*
Y501546D01*
X444958D01*
Y501676D01*
X444829D01*
Y501806D01*
X444699D01*
Y501936D01*
X444569D01*
Y502066D01*
X444310D01*
Y502195D01*
X444180D01*
Y502325D01*
X443920D01*
Y502455D01*
X443791D01*
Y502584D01*
X443531D01*
Y502714D01*
X443142D01*
Y502844D01*
X442882D01*
Y502974D01*
X442493D01*
Y503104D01*
X441974D01*
Y503233D01*
X441325D01*
Y503363D01*
X440417D01*
Y503493D01*
X438341D01*
Y503363D01*
X437692D01*
Y503233D01*
X437303D01*
Y503104D01*
X436913D01*
Y502974D01*
X436654D01*
Y502844D01*
X436524D01*
Y502714D01*
X436264D01*
Y502584D01*
X436135D01*
Y502455D01*
X436005D01*
Y502325D01*
X435875D01*
Y502066D01*
X435745D01*
Y501936D01*
X435616D01*
Y501676D01*
X435486D01*
Y501417D01*
X435356D01*
Y501027D01*
X435226D01*
Y500379D01*
X435097D01*
Y499600D01*
X435226D01*
Y498951D01*
X435356D01*
Y498432D01*
X435486D01*
Y498173D01*
X435616D01*
Y497783D01*
X435745D01*
Y497524D01*
X435875D01*
Y497394D01*
X436005D01*
Y497135D01*
X436135D01*
Y497005D01*
X436264D01*
Y496875D01*
X436394D01*
Y496745D01*
X436524D01*
Y496615D01*
X437173D01*
Y496486D01*
X438341D01*
Y495318D01*
X437432D01*
Y495188D01*
X436264D01*
Y495058D01*
X435486D01*
Y494929D01*
X434707D01*
Y494799D01*
X433929D01*
Y494929D01*
X433799D01*
Y495058D01*
X433669D01*
Y495448D01*
X433540D01*
Y495967D01*
X433410D01*
Y496486D01*
X433280D01*
Y497394D01*
X433150D01*
Y499730D01*
X433280D01*
Y500249D01*
X433410D01*
Y500638D01*
X433540D01*
Y500898D01*
X433669D01*
Y501157D01*
X433799D01*
Y501417D01*
X433929D01*
Y501676D01*
X434059D01*
Y501936D01*
X434188D01*
Y502195D01*
X434318D01*
Y502325D01*
X434448D01*
Y502584D01*
X434578D01*
Y502844D01*
X434707D01*
Y503104D01*
X434837D01*
Y503233D01*
X434967D01*
Y503493D01*
X435097D01*
Y503752D01*
X435226D01*
Y503882D01*
X435356D01*
Y504142D01*
X435486D01*
Y504401D01*
X435616D01*
Y504531D01*
X435745D01*
Y504661D01*
X435875D01*
Y504920D01*
X436005D01*
Y505050D01*
X436135D01*
Y505180D01*
X436264D01*
Y505309D01*
X436394D01*
Y505439D01*
X436654D01*
Y505569D01*
X436783D01*
Y505699D01*
X436913D01*
Y505829D01*
X437173D01*
Y505958D01*
X437432D01*
Y506088D01*
X437692D01*
Y506218D01*
X437951D01*
Y506348D01*
X438341D01*
Y506477D01*
X438730D01*
Y506607D01*
X439379D01*
Y506737D01*
X440547D01*
Y506867D01*
X441974D01*
Y506737D01*
D02*
G37*
G36*
X419465Y486356D02*
X394729D01*
Y492645D01*
X419465D01*
Y486356D01*
D02*
G37*
G36*
X445737Y492982D02*
X446126D01*
Y492853D01*
X446516D01*
Y492723D01*
X446775D01*
Y492593D01*
X446905D01*
Y492463D01*
X447164D01*
Y492333D01*
X447294D01*
Y492204D01*
X447424D01*
Y492074D01*
X447554D01*
Y491944D01*
X447683D01*
Y491685D01*
X447813D01*
Y491555D01*
X447943D01*
Y491295D01*
X448073D01*
Y490906D01*
X448202D01*
Y490387D01*
X448332D01*
Y488311D01*
X448202D01*
Y487792D01*
X448073D01*
Y487532D01*
X447943D01*
Y487273D01*
X447813D01*
Y487143D01*
X447683D01*
Y487013D01*
X447554D01*
Y486884D01*
X447424D01*
Y486624D01*
X447294D01*
Y486494D01*
X447164D01*
Y486365D01*
X447035D01*
Y486235D01*
X446905D01*
Y486105D01*
X446775D01*
Y485845D01*
X446645D01*
Y485716D01*
X446516D01*
Y485586D01*
X446386D01*
Y485456D01*
X446256D01*
Y485197D01*
X446126D01*
Y485067D01*
X445997D01*
Y484937D01*
X445867D01*
Y484678D01*
X445737D01*
Y484548D01*
X445607D01*
Y484418D01*
X445477D01*
Y484288D01*
X446126D01*
Y484418D01*
X447943D01*
Y483380D01*
X447813D01*
Y480266D01*
X447943D01*
Y479228D01*
X446775D01*
Y480266D01*
X446645D01*
Y480785D01*
X446516D01*
Y480914D01*
X446386D01*
Y481044D01*
X445997D01*
Y481174D01*
X436394D01*
Y481304D01*
X436005D01*
Y481433D01*
X435616D01*
Y481563D01*
X435356D01*
Y481693D01*
X435226D01*
Y481823D01*
X434967D01*
Y481953D01*
X434837D01*
Y482082D01*
X434707D01*
Y482212D01*
X434578D01*
Y482342D01*
X434448D01*
Y482472D01*
X434318D01*
Y482601D01*
X434188D01*
Y482861D01*
X434059D01*
Y482991D01*
X433929D01*
Y483250D01*
X433799D01*
Y483510D01*
X433669D01*
Y483769D01*
X433540D01*
Y484159D01*
X433410D01*
Y484678D01*
X433280D01*
Y485456D01*
X433150D01*
Y487532D01*
X433280D01*
Y488051D01*
X433410D01*
Y488441D01*
X433540D01*
Y488700D01*
X433669D01*
Y488960D01*
X433799D01*
Y489219D01*
X433929D01*
Y489479D01*
X434059D01*
Y489738D01*
X434188D01*
Y489868D01*
X434318D01*
Y490127D01*
X434448D01*
Y490387D01*
X434578D01*
Y490517D01*
X434707D01*
Y490776D01*
X434837D01*
Y491036D01*
X434967D01*
Y491166D01*
X435097D01*
Y491425D01*
X435226D01*
Y491555D01*
X435356D01*
Y491685D01*
X435745D01*
Y491814D01*
X437562D01*
Y491425D01*
X437692D01*
Y490776D01*
X437432D01*
Y490647D01*
X437043D01*
Y490517D01*
X436783D01*
Y490387D01*
X436524D01*
Y490257D01*
X436264D01*
Y490127D01*
X436005D01*
Y489868D01*
X435875D01*
Y489479D01*
X435745D01*
Y489089D01*
X435616D01*
Y488311D01*
X435486D01*
Y487143D01*
X435616D01*
Y486494D01*
X435745D01*
Y486105D01*
X435875D01*
Y485845D01*
X436005D01*
Y485586D01*
X436135D01*
Y485456D01*
X436264D01*
Y485326D01*
X436394D01*
Y485197D01*
X436524D01*
Y485067D01*
X436654D01*
Y484937D01*
X436913D01*
Y484807D01*
X437173D01*
Y484678D01*
X437432D01*
Y484548D01*
X437822D01*
Y484418D01*
X438730D01*
Y484288D01*
X439249D01*
Y484937D01*
X439379D01*
Y485456D01*
X439509D01*
Y486105D01*
X439638D01*
Y486624D01*
X439768D01*
Y487143D01*
X439898D01*
Y487662D01*
X440028D01*
Y488181D01*
X440157D01*
Y488700D01*
X440287D01*
Y489219D01*
X440417D01*
Y489608D01*
X440547D01*
Y489998D01*
X440676D01*
Y490387D01*
X440806D01*
Y490647D01*
X440936D01*
Y491036D01*
X441066D01*
Y491295D01*
X441195D01*
Y491555D01*
X441325D01*
Y491685D01*
X441455D01*
Y491944D01*
X441585D01*
Y492074D01*
X441714D01*
Y492333D01*
X441844D01*
Y492463D01*
X441974D01*
Y492593D01*
X442234D01*
Y492723D01*
X442363D01*
Y492853D01*
X442623D01*
Y492982D01*
X443142D01*
Y493112D01*
X445737D01*
Y492982D01*
D02*
G37*
G36*
X462958Y506696D02*
X463088D01*
Y506177D01*
X463477D01*
Y506047D01*
X471912D01*
Y505917D01*
X472690D01*
Y505787D01*
X473080D01*
Y505658D01*
X473469D01*
Y505528D01*
X473728D01*
Y505398D01*
X473988D01*
Y505268D01*
X474118D01*
Y505139D01*
X474248D01*
Y505009D01*
X474377D01*
Y504879D01*
X474507D01*
Y504749D01*
X474637D01*
Y504620D01*
X474767D01*
Y504490D01*
X474896D01*
Y504360D01*
X475026D01*
Y504100D01*
X475156D01*
Y503841D01*
X475286D01*
Y503582D01*
X475415D01*
Y503192D01*
X475545D01*
Y502673D01*
X475675D01*
Y500208D01*
X475545D01*
Y499818D01*
X475415D01*
Y499429D01*
X475286D01*
Y499299D01*
X475156D01*
Y499040D01*
X475026D01*
Y498910D01*
X474896D01*
Y498780D01*
X474767D01*
Y498651D01*
X474637D01*
Y498521D01*
X474507D01*
Y498391D01*
X474377D01*
Y498261D01*
X474248D01*
Y498002D01*
X474118D01*
Y497872D01*
X473988D01*
Y497742D01*
X473858D01*
Y497612D01*
X473728D01*
Y497483D01*
X473599D01*
Y497353D01*
X473469D01*
Y497223D01*
X473339D01*
Y496964D01*
X473209D01*
Y496834D01*
X473080D01*
Y496704D01*
X475026D01*
Y496834D01*
X475156D01*
Y496704D01*
X475286D01*
Y495666D01*
X475156D01*
Y492292D01*
X475286D01*
Y491124D01*
X474118D01*
Y492422D01*
X473988D01*
Y493071D01*
X473858D01*
Y493201D01*
X473599D01*
Y493330D01*
X472820D01*
Y493460D01*
X464515D01*
Y493330D01*
X461531D01*
Y493201D01*
X460882D01*
Y493330D01*
X460752D01*
Y493460D01*
X460623D01*
Y493720D01*
X460493D01*
Y493979D01*
X460623D01*
Y494369D01*
X460752D01*
Y494628D01*
X460882D01*
Y495017D01*
X461012D01*
Y495407D01*
X461142D01*
Y495926D01*
X461272D01*
Y496445D01*
X461401D01*
Y496964D01*
X461531D01*
Y497612D01*
X461661D01*
Y498521D01*
X461791D01*
Y499040D01*
X462958D01*
Y497353D01*
X463088D01*
Y496834D01*
X463348D01*
Y496704D01*
X471133D01*
Y496834D01*
X471523D01*
Y496964D01*
X471652D01*
Y497093D01*
X471912D01*
Y497223D01*
X472042D01*
Y497353D01*
X472171D01*
Y497612D01*
X472301D01*
Y497742D01*
X472431D01*
Y497872D01*
X472561D01*
Y498132D01*
X472690D01*
Y498391D01*
X472820D01*
Y498651D01*
X472950D01*
Y499040D01*
X473080D01*
Y499689D01*
X473209D01*
Y500337D01*
X473080D01*
Y500986D01*
X472950D01*
Y501376D01*
X472820D01*
Y501635D01*
X472690D01*
Y501765D01*
X472561D01*
Y501895D01*
X472431D01*
Y502024D01*
X472301D01*
Y502154D01*
X472171D01*
Y502284D01*
X471912D01*
Y502414D01*
X471652D01*
Y502543D01*
X471133D01*
Y502673D01*
X470485D01*
Y502803D01*
X464905D01*
Y502673D01*
X461531D01*
Y502543D01*
X460882D01*
Y502673D01*
X460752D01*
Y502803D01*
X460623D01*
Y503062D01*
X460493D01*
Y503322D01*
X460623D01*
Y503711D01*
X460752D01*
Y503971D01*
X460882D01*
Y504360D01*
X461012D01*
Y504749D01*
X461142D01*
Y505268D01*
X461272D01*
Y505787D01*
X461401D01*
Y506306D01*
X461531D01*
Y506955D01*
X461661D01*
Y507864D01*
X461791D01*
Y508383D01*
X462958D01*
Y506696D01*
D02*
G37*
G36*
X411919Y520456D02*
X413037D01*
Y520316D01*
X413596D01*
Y520176D01*
X414155D01*
Y520037D01*
X414574D01*
Y519897D01*
X414854D01*
Y519757D01*
X415133D01*
Y519617D01*
X415413D01*
Y519478D01*
X415692D01*
Y519338D01*
X415972D01*
Y519198D01*
X416251D01*
Y519058D01*
X416391D01*
Y518918D01*
X416530D01*
Y518779D01*
X416810D01*
Y518639D01*
X416950D01*
Y518499D01*
X417090D01*
Y518359D01*
X417229D01*
Y518220D01*
X417369D01*
Y518080D01*
X417509D01*
Y517940D01*
X417649D01*
Y517800D01*
X417788D01*
Y517661D01*
X417928D01*
Y517521D01*
X418068D01*
Y517381D01*
X418208D01*
Y517102D01*
X418347D01*
Y516962D01*
X418487D01*
Y516683D01*
X418627D01*
Y516543D01*
X418767D01*
Y516263D01*
X418906D01*
Y515984D01*
X419046D01*
Y515704D01*
X419186D01*
Y515285D01*
X419326D01*
Y515005D01*
X419465D01*
Y514586D01*
X419605D01*
Y514027D01*
X419745D01*
Y513328D01*
X419885D01*
Y512071D01*
X420024D01*
Y510393D01*
X419885D01*
Y508996D01*
X419745D01*
Y508297D01*
X419605D01*
Y507738D01*
X419465D01*
Y507319D01*
X419326D01*
Y506900D01*
X419186D01*
Y506480D01*
X419046D01*
Y506201D01*
X418906D01*
Y505922D01*
X418767D01*
Y505642D01*
X418627D01*
Y505362D01*
X418487D01*
Y505223D01*
X418347D01*
Y504943D01*
X418208D01*
Y504803D01*
X418068D01*
Y504524D01*
X417928D01*
Y504384D01*
X417788D01*
Y504244D01*
X417649D01*
Y503965D01*
X417509D01*
Y503825D01*
X417369D01*
Y503685D01*
X417229D01*
Y503546D01*
X417090D01*
Y503406D01*
X416950D01*
Y503266D01*
X416810D01*
Y503126D01*
X416670D01*
Y502987D01*
X416530D01*
Y502847D01*
X416251D01*
Y502707D01*
X416111D01*
Y502567D01*
X415972D01*
Y502428D01*
X415832D01*
Y502288D01*
X415552D01*
Y502148D01*
X415413D01*
Y502008D01*
X415133D01*
Y502148D01*
X414993D01*
Y502428D01*
X414854D01*
Y502707D01*
X414714D01*
Y503126D01*
X414574D01*
Y503406D01*
X414434D01*
Y503685D01*
X414295D01*
Y503965D01*
X414155D01*
Y504384D01*
X414015D01*
Y504664D01*
X413875D01*
Y504943D01*
X413736D01*
Y505223D01*
X413596D01*
Y505502D01*
X413456D01*
Y505922D01*
X413316D01*
Y506201D01*
X413456D01*
Y506341D01*
X413736D01*
Y506480D01*
X413875D01*
Y506620D01*
X414155D01*
Y506760D01*
X414295D01*
Y506900D01*
X414434D01*
Y507039D01*
X414574D01*
Y507179D01*
X414714D01*
Y507319D01*
X414854D01*
Y507459D01*
X414993D01*
Y507738D01*
X415133D01*
Y507878D01*
X415273D01*
Y508158D01*
X415413D01*
Y508437D01*
X415552D01*
Y508856D01*
X415692D01*
Y509276D01*
X415832D01*
Y510952D01*
X415692D01*
Y511512D01*
X415552D01*
Y511791D01*
X415413D01*
Y512071D01*
X415273D01*
Y512350D01*
X415133D01*
Y512490D01*
X414993D01*
Y512769D01*
X414854D01*
Y512909D01*
X414714D01*
Y513049D01*
X414574D01*
Y513189D01*
X414295D01*
Y513328D01*
X414155D01*
Y513468D01*
X413875D01*
Y513608D01*
X413596D01*
Y513748D01*
X413316D01*
Y513887D01*
X412757D01*
Y514027D01*
X411919D01*
Y502008D01*
X409683D01*
Y502148D01*
X408704D01*
Y502288D01*
X408145D01*
Y502428D01*
X407586D01*
Y502567D01*
X407167D01*
Y502707D01*
X406748D01*
Y502847D01*
X406468D01*
Y502987D01*
X406049D01*
Y503126D01*
X405909D01*
Y503266D01*
X405630D01*
Y503406D01*
X405350D01*
Y503546D01*
X405211D01*
Y503685D01*
X404931D01*
Y503825D01*
X404791D01*
Y503965D01*
X404512D01*
Y504105D01*
X404372D01*
Y504244D01*
X404232D01*
Y504384D01*
X404092D01*
Y504524D01*
X403953D01*
Y504664D01*
X403813D01*
Y504803D01*
X403673D01*
Y504943D01*
X403534D01*
Y505083D01*
X403394D01*
Y505362D01*
X403254D01*
Y505502D01*
X403114D01*
Y505642D01*
X402975D01*
Y505922D01*
X402835D01*
Y506201D01*
X402695D01*
Y506480D01*
X402555D01*
Y506760D01*
X402416D01*
Y507039D01*
X402276D01*
Y507319D01*
X402136D01*
Y507738D01*
X401996D01*
Y508158D01*
X401856D01*
Y508856D01*
X401717D01*
Y509695D01*
X401577D01*
Y512769D01*
X401717D01*
Y513608D01*
X401856D01*
Y514167D01*
X401996D01*
Y514726D01*
X402136D01*
Y515145D01*
X402276D01*
Y515425D01*
X402416D01*
Y515704D01*
X402555D01*
Y515984D01*
X402695D01*
Y516263D01*
X402835D01*
Y516543D01*
X402975D01*
Y516683D01*
X403114D01*
Y516962D01*
X403254D01*
Y517102D01*
X403394D01*
Y517381D01*
X403534D01*
Y517521D01*
X403673D01*
Y517661D01*
X403813D01*
Y517800D01*
X403953D01*
Y517940D01*
X404092D01*
Y518080D01*
X404232D01*
Y518220D01*
X404372D01*
Y518359D01*
X404512D01*
Y518499D01*
X404651D01*
Y518639D01*
X404791D01*
Y518779D01*
X405071D01*
Y518918D01*
X405211D01*
Y519058D01*
X405490D01*
Y519198D01*
X405630D01*
Y519338D01*
X405909D01*
Y519478D01*
X406189D01*
Y519617D01*
X406468D01*
Y519757D01*
X406748D01*
Y519897D01*
X407167D01*
Y520037D01*
X407586D01*
Y520176D01*
X408006D01*
Y520316D01*
X408565D01*
Y520456D01*
X409543D01*
Y520596D01*
X411919D01*
Y520456D01*
D02*
G37*
G36*
X447943Y476762D02*
X447813D01*
Y472091D01*
X447943D01*
Y470534D01*
X447813D01*
Y470404D01*
X446775D01*
Y471572D01*
X446645D01*
Y472350D01*
X446516D01*
Y472480D01*
X446386D01*
Y472610D01*
X446126D01*
Y472740D01*
X425884D01*
Y472610D01*
X425494D01*
Y472740D01*
X425365D01*
Y472869D01*
X425235D01*
Y473518D01*
X425365D01*
Y473778D01*
X425494D01*
Y474167D01*
X425624D01*
Y474556D01*
X425754D01*
Y474945D01*
X425884D01*
Y475465D01*
X426013D01*
Y475984D01*
X426143D01*
Y476632D01*
X426273D01*
Y477411D01*
X426403D01*
Y478319D01*
X427700D01*
Y476373D01*
X427830D01*
Y476243D01*
X427960D01*
Y476113D01*
X428479D01*
Y475984D01*
X445477D01*
Y476113D01*
X446256D01*
Y476243D01*
X446516D01*
Y476503D01*
X446645D01*
Y477281D01*
X446775D01*
Y478319D01*
X447943D01*
Y476762D01*
D02*
G37*
%LPC*%
G36*
X466592Y362013D02*
X465813D01*
Y361883D01*
X464905D01*
Y361753D01*
X464515D01*
Y361623D01*
X464126D01*
Y361494D01*
X463737D01*
Y361364D01*
X463477D01*
Y361234D01*
X463218D01*
Y361104D01*
X463088D01*
Y360975D01*
X462829D01*
Y360845D01*
X462699D01*
Y360715D01*
X462569D01*
Y360585D01*
X462439D01*
Y360456D01*
X462309D01*
Y360196D01*
X462180D01*
Y359936D01*
X462050D01*
Y359677D01*
X461920D01*
Y359288D01*
X461791D01*
Y358120D01*
X461920D01*
Y357601D01*
X462050D01*
Y357341D01*
X462180D01*
Y357082D01*
X462309D01*
Y356822D01*
X462439D01*
Y356693D01*
X462569D01*
Y356563D01*
X462699D01*
Y356433D01*
X462958D01*
Y356303D01*
X463088D01*
Y356174D01*
X463348D01*
Y356044D01*
X463607D01*
Y355914D01*
X463867D01*
Y355784D01*
X464386D01*
Y355654D01*
X465035D01*
Y355525D01*
X466592D01*
Y356433D01*
X466721D01*
Y360196D01*
X466592D01*
Y362013D01*
D02*
G37*
G36*
Y346571D02*
X465294D01*
Y346441D01*
X464645D01*
Y346312D01*
X464256D01*
Y346182D01*
X463867D01*
Y346052D01*
X463607D01*
Y345922D01*
X463348D01*
Y345793D01*
X463088D01*
Y345663D01*
X462958D01*
Y345533D01*
X462829D01*
Y345403D01*
X462699D01*
Y345274D01*
X462569D01*
Y345144D01*
X462439D01*
Y345014D01*
X462309D01*
Y344884D01*
X462180D01*
Y344625D01*
X462050D01*
Y344365D01*
X461920D01*
Y343846D01*
X461791D01*
Y342678D01*
X461920D01*
Y342159D01*
X462050D01*
Y341900D01*
X462180D01*
Y341640D01*
X462309D01*
Y341511D01*
X462439D01*
Y341381D01*
X462569D01*
Y341251D01*
X462699D01*
Y341121D01*
X462829D01*
Y340992D01*
X462958D01*
Y340862D01*
X463218D01*
Y340732D01*
X463477D01*
Y340602D01*
X463737D01*
Y340472D01*
X464126D01*
Y340343D01*
X464645D01*
Y340213D01*
X465683D01*
Y340083D01*
X466592D01*
Y340992D01*
X466721D01*
Y344884D01*
X466592D01*
Y346571D01*
D02*
G37*
G36*
X479178Y406002D02*
X477881D01*
Y405872D01*
X477492D01*
Y405742D01*
X477102D01*
Y405612D01*
X476973D01*
Y405482D01*
X476713D01*
Y405353D01*
X476583D01*
Y405223D01*
X476454D01*
Y405093D01*
X476324D01*
Y404834D01*
X476194D01*
Y404704D01*
X476064D01*
Y404574D01*
X475934D01*
Y404315D01*
X475805D01*
Y404185D01*
X475675D01*
Y403666D01*
X475545D01*
Y401979D01*
X475415D01*
Y399643D01*
X475545D01*
Y398735D01*
X475675D01*
Y398346D01*
X475805D01*
Y397956D01*
X475934D01*
Y397697D01*
X476064D01*
Y397437D01*
X476194D01*
Y397308D01*
X476324D01*
Y397178D01*
X476454D01*
Y397048D01*
X476583D01*
Y396918D01*
X476713D01*
Y396789D01*
X477102D01*
Y396659D01*
X477492D01*
Y396529D01*
X478530D01*
Y396659D01*
X479049D01*
Y396789D01*
X479438D01*
Y396918D01*
X479697D01*
Y397048D01*
X479957D01*
Y397178D01*
X480087D01*
Y397308D01*
X480346D01*
Y397437D01*
X480476D01*
Y397567D01*
X480606D01*
Y397697D01*
X480736D01*
Y397827D01*
X480865D01*
Y398086D01*
X480995D01*
Y398216D01*
X481125D01*
Y398475D01*
X481255D01*
Y398605D01*
X481384D01*
Y398865D01*
X481514D01*
Y399254D01*
X481644D01*
Y399514D01*
X481774D01*
Y400033D01*
X481903D01*
Y400681D01*
X482033D01*
Y403017D01*
X481903D01*
Y403536D01*
X481774D01*
Y403925D01*
X481644D01*
Y404185D01*
X481514D01*
Y404445D01*
X481384D01*
Y404574D01*
X481255D01*
Y404834D01*
X481125D01*
Y404963D01*
X480995D01*
Y405093D01*
X480865D01*
Y405223D01*
X480736D01*
Y405353D01*
X480476D01*
Y405482D01*
X480346D01*
Y405612D01*
X480087D01*
Y405742D01*
X479697D01*
Y405872D01*
X479178D01*
Y406002D01*
D02*
G37*
G36*
X465424Y405093D02*
X464645D01*
Y404963D01*
X463997D01*
Y404834D01*
X463607D01*
Y404704D01*
X463348D01*
Y404574D01*
X463088D01*
Y404445D01*
X462958D01*
Y404315D01*
X462829D01*
Y404185D01*
X462699D01*
Y404055D01*
X462569D01*
Y403925D01*
X462439D01*
Y403796D01*
X462309D01*
Y403536D01*
X462180D01*
Y403277D01*
X462050D01*
Y402757D01*
X461920D01*
Y401720D01*
X462050D01*
Y401330D01*
X462180D01*
Y401071D01*
X462309D01*
Y400811D01*
X462439D01*
Y400681D01*
X462569D01*
Y400552D01*
X462699D01*
Y400292D01*
X462958D01*
Y400162D01*
X463088D01*
Y400033D01*
X463218D01*
Y399903D01*
X463477D01*
Y399773D01*
X463737D01*
Y399643D01*
X463997D01*
Y399514D01*
X464256D01*
Y399384D01*
X464645D01*
Y399254D01*
X465294D01*
Y399124D01*
X467500D01*
Y399254D01*
X467889D01*
Y399384D01*
X468149D01*
Y399514D01*
X468279D01*
Y399643D01*
X468538D01*
Y399773D01*
X468668D01*
Y399903D01*
X468798D01*
Y400033D01*
X468927D01*
Y400292D01*
X469057D01*
Y400422D01*
X469187D01*
Y400681D01*
X469317D01*
Y401071D01*
X469446D01*
Y401849D01*
X469576D01*
Y402368D01*
X469446D01*
Y402887D01*
X469317D01*
Y403147D01*
X469187D01*
Y403277D01*
X469057D01*
Y403536D01*
X468927D01*
Y403666D01*
X468798D01*
Y403796D01*
X468668D01*
Y403925D01*
X468538D01*
Y404055D01*
X468408D01*
Y404185D01*
X468149D01*
Y404315D01*
X467889D01*
Y404445D01*
X467630D01*
Y404574D01*
X467370D01*
Y404704D01*
X466981D01*
Y404834D01*
X466462D01*
Y404963D01*
X465424D01*
Y405093D01*
D02*
G37*
G36*
X444439Y458855D02*
X443012D01*
Y458725D01*
X442752D01*
Y458596D01*
X442493D01*
Y458466D01*
X442363D01*
Y458336D01*
X442234D01*
Y458206D01*
X442104D01*
Y458077D01*
X441974D01*
Y457817D01*
X441844D01*
Y457558D01*
X441714D01*
Y457428D01*
X441585D01*
Y457039D01*
X441455D01*
Y456779D01*
X441325D01*
Y456390D01*
X441195D01*
Y456001D01*
X441066D01*
Y455611D01*
X440936D01*
Y455092D01*
X440806D01*
Y454703D01*
X440676D01*
Y454184D01*
X440547D01*
Y453535D01*
X440417D01*
Y453405D01*
X444050D01*
Y453535D01*
X444180D01*
Y453665D01*
X444310D01*
Y453795D01*
X444439D01*
Y453924D01*
X444569D01*
Y454054D01*
X444699D01*
Y454314D01*
X444829D01*
Y454443D01*
X444958D01*
Y454573D01*
X445088D01*
Y454703D01*
X445218D01*
Y454833D01*
X445348D01*
Y455092D01*
X445477D01*
Y455352D01*
X445607D01*
Y455481D01*
X445737D01*
Y455741D01*
X445867D01*
Y456260D01*
X445997D01*
Y457298D01*
X445867D01*
Y457687D01*
X445737D01*
Y457947D01*
X445607D01*
Y458077D01*
X445477D01*
Y458206D01*
X445348D01*
Y458336D01*
X445218D01*
Y458466D01*
X445088D01*
Y458596D01*
X444829D01*
Y458725D01*
X444439D01*
Y458855D01*
D02*
G37*
G36*
X466592Y476591D02*
X466073D01*
Y476462D01*
X465164D01*
Y476332D01*
X464515D01*
Y476202D01*
X464126D01*
Y476072D01*
X463867D01*
Y475942D01*
X463477D01*
Y475813D01*
X463348D01*
Y475683D01*
X463088D01*
Y475553D01*
X462958D01*
Y475424D01*
X462699D01*
Y475294D01*
X462569D01*
Y475164D01*
X462439D01*
Y474904D01*
X462309D01*
Y474775D01*
X462180D01*
Y474515D01*
X462050D01*
Y474256D01*
X461920D01*
Y473737D01*
X461791D01*
Y472569D01*
X461920D01*
Y472179D01*
X462050D01*
Y471790D01*
X462180D01*
Y471660D01*
X462309D01*
Y471401D01*
X462439D01*
Y471271D01*
X462569D01*
Y471141D01*
X462699D01*
Y471012D01*
X462829D01*
Y470882D01*
X463088D01*
Y470752D01*
X463218D01*
Y470622D01*
X463477D01*
Y470493D01*
X463867D01*
Y470363D01*
X464256D01*
Y470233D01*
X464775D01*
Y470103D01*
X466073D01*
Y469973D01*
X466592D01*
Y470882D01*
X466721D01*
Y474775D01*
X466592D01*
Y476591D01*
D02*
G37*
G36*
X440806Y425117D02*
X439509D01*
Y424988D01*
X438600D01*
Y424858D01*
X438081D01*
Y424728D01*
X437562D01*
Y424598D01*
X437303D01*
Y424469D01*
X437043D01*
Y424339D01*
X436783D01*
Y424209D01*
X436524D01*
Y424079D01*
X436394D01*
Y423950D01*
X436264D01*
Y423820D01*
X436005D01*
Y423690D01*
X435875D01*
Y423560D01*
X435745D01*
Y423301D01*
X435616D01*
Y423171D01*
X435486D01*
Y423041D01*
X435356D01*
Y422782D01*
X435226D01*
Y422522D01*
X435097D01*
Y422133D01*
X434967D01*
Y421354D01*
X434837D01*
Y420835D01*
X434967D01*
Y420057D01*
X435097D01*
Y419668D01*
X435226D01*
Y419278D01*
X435356D01*
Y419019D01*
X435486D01*
Y418759D01*
X435616D01*
Y418500D01*
X435745D01*
Y418370D01*
X435875D01*
Y418110D01*
X436005D01*
Y417981D01*
X436135D01*
Y417851D01*
X436264D01*
Y417721D01*
X436394D01*
Y417591D01*
X436524D01*
Y417462D01*
X436654D01*
Y417332D01*
X436783D01*
Y417202D01*
X437043D01*
Y417072D01*
X442882D01*
Y417202D01*
X443401D01*
Y417332D01*
X443661D01*
Y417462D01*
X443920D01*
Y417591D01*
X444180D01*
Y417721D01*
X444439D01*
Y417851D01*
X444569D01*
Y417981D01*
X444699D01*
Y418110D01*
X444829D01*
Y418240D01*
X444958D01*
Y418370D01*
X445088D01*
Y418500D01*
X445218D01*
Y418629D01*
X445348D01*
Y418889D01*
X445477D01*
Y419019D01*
X445607D01*
Y419278D01*
X445737D01*
Y419668D01*
X445867D01*
Y420057D01*
X445997D01*
Y421354D01*
X445867D01*
Y421874D01*
X445737D01*
Y422263D01*
X445607D01*
Y422522D01*
X445477D01*
Y422652D01*
X445348D01*
Y422911D01*
X445218D01*
Y423041D01*
X445088D01*
Y423171D01*
X444958D01*
Y423301D01*
X444829D01*
Y423431D01*
X444699D01*
Y423560D01*
X444569D01*
Y423690D01*
X444439D01*
Y423820D01*
X444310D01*
Y423950D01*
X444050D01*
Y424079D01*
X443920D01*
Y424209D01*
X443661D01*
Y424339D01*
X443401D01*
Y424469D01*
X443142D01*
Y424598D01*
X442752D01*
Y424728D01*
X442363D01*
Y424858D01*
X441844D01*
Y424988D01*
X440806D01*
Y425117D01*
D02*
G37*
G36*
X463218Y421962D02*
X463088D01*
Y421832D01*
X463218D01*
Y421962D01*
D02*
G37*
G36*
X654406Y453415D02*
X654249D01*
X653620Y453375D01*
X653029Y453218D01*
X652518Y453021D01*
X652006Y452825D01*
X651613Y452588D01*
X651298Y452431D01*
X651101Y452274D01*
X651023Y452234D01*
X650511Y451801D01*
X650118Y451369D01*
X649842Y450936D01*
X649646Y450582D01*
X649528Y450267D01*
X649488Y449992D01*
X649449Y449834D01*
Y449795D01*
X649488Y449480D01*
X649528Y449205D01*
X649646Y448969D01*
X649764Y448733D01*
X649882Y448575D01*
X649960Y448457D01*
X650039Y448379D01*
X650079Y448339D01*
X650314Y448143D01*
X650551Y447985D01*
X650826Y447906D01*
X651062Y447828D01*
X651259Y447788D01*
X651416Y447749D01*
X651574D01*
X652203Y447788D01*
X652793Y447946D01*
X653344Y448143D01*
X653816Y448339D01*
X654249Y448575D01*
X654524Y448772D01*
X654721Y448929D01*
X654800Y448969D01*
X655311Y449402D01*
X655665Y449874D01*
X655941Y450267D01*
X656098Y450661D01*
X656216Y451015D01*
X656256Y451251D01*
X656295Y451408D01*
Y451487D01*
X656256Y451801D01*
X656216Y452038D01*
X656020Y452470D01*
X655901Y452628D01*
X655823Y452746D01*
X655783Y452825D01*
X655744Y452864D01*
X655508Y453061D01*
X655272Y453179D01*
X654761Y453336D01*
X654564Y453375D01*
X654406Y453415D01*
D02*
G37*
G36*
X660544Y486897D02*
X660347D01*
X659797Y486858D01*
X659206Y486779D01*
X658616Y486700D01*
X658065Y486582D01*
X657593Y486464D01*
X657200Y486346D01*
X657042Y486307D01*
X656924D01*
X656885Y486267D01*
X656846D01*
X656059Y485992D01*
X655351Y485717D01*
X654682Y485441D01*
X654092Y485205D01*
X653580Y484969D01*
X653226Y484772D01*
X652990Y484654D01*
X652911Y484615D01*
X652282Y484221D01*
X651731Y483867D01*
X651259Y483513D01*
X650865Y483159D01*
X650511Y482805D01*
X650236Y482490D01*
X650000Y482176D01*
X649803Y481861D01*
X649685Y481625D01*
X649567Y481349D01*
X649410Y480995D01*
Y480838D01*
X649370Y480720D01*
Y480681D01*
Y480641D01*
X649410Y480326D01*
X649488Y480051D01*
X649606Y479815D01*
X649764Y479579D01*
X650197Y479264D01*
X650629Y479067D01*
X651101Y478910D01*
X651534Y478871D01*
X651692Y478831D01*
X651928D01*
X652597Y478871D01*
X653265Y478949D01*
X653934Y479067D01*
X654564Y479185D01*
X655075Y479303D01*
X655508Y479421D01*
X655665Y479461D01*
X655783Y479500D01*
X655862Y479539D01*
X655901D01*
X656728Y479815D01*
X657515Y480090D01*
X658184Y480366D01*
X658774Y480641D01*
X659285Y480877D01*
X659639Y481074D01*
X659875Y481192D01*
X659915Y481231D01*
X659954D01*
X660465Y481546D01*
X660938Y481900D01*
X661331Y482215D01*
X661685Y482530D01*
X661961Y482844D01*
X662197Y483159D01*
X662393Y483435D01*
X662551Y483710D01*
X662787Y484221D01*
X662905Y484576D01*
Y484733D01*
X662944Y484851D01*
Y484890D01*
Y484930D01*
X662905Y485244D01*
X662826Y485520D01*
X662708Y485795D01*
X662590Y485992D01*
X662472Y486149D01*
X662354Y486267D01*
X662275Y486346D01*
X662236Y486385D01*
X661961Y486543D01*
X661646Y486661D01*
X661016Y486818D01*
X660741Y486858D01*
X660544Y486897D01*
D02*
G37*
G36*
X651101Y551658D02*
X650590Y551579D01*
X650118Y551383D01*
X649724Y551147D01*
X649331Y550871D01*
X649055Y550596D01*
X648820Y550360D01*
X648662Y550202D01*
X648623Y550124D01*
X648229Y549573D01*
X647954Y549022D01*
X647757Y548471D01*
X647639Y547960D01*
X647521Y547527D01*
X647482Y547212D01*
Y546976D01*
Y546897D01*
Y546504D01*
X647560Y546150D01*
X647639Y545835D01*
X647718Y545560D01*
X647796Y545363D01*
X647875Y545206D01*
X647915Y545127D01*
X647954Y545088D01*
X648151Y544851D01*
X648347Y544694D01*
X648544Y544537D01*
X648741Y544458D01*
X648898Y544419D01*
X649055Y544379D01*
X649174D01*
X649528Y544419D01*
X649803Y544537D01*
X650079Y544694D01*
X650275Y544891D01*
X650629Y545442D01*
X650865Y546032D01*
X650983Y546661D01*
X651062Y547212D01*
X651101Y547409D01*
Y547566D01*
Y547684D01*
Y547724D01*
Y551658D01*
D02*
G37*
G36*
X660898Y627554D02*
X660820D01*
X660269Y627514D01*
X659797Y627397D01*
X659364Y627239D01*
X658970Y627042D01*
X658616Y626885D01*
X658380Y626728D01*
X658223Y626610D01*
X658184Y626570D01*
X657790Y626177D01*
X657475Y625823D01*
X657279Y625429D01*
X657121Y625115D01*
X657042Y624800D01*
X656964Y624564D01*
Y624406D01*
Y624367D01*
X657003Y624052D01*
X657042Y623777D01*
X657160Y623541D01*
X657239Y623344D01*
X657357Y623187D01*
X657475Y623029D01*
X657515Y622990D01*
X657554Y622951D01*
X657790Y622754D01*
X658026Y622636D01*
X658538Y622478D01*
X658734Y622439D01*
X658892Y622400D01*
X659049D01*
X659639Y622439D01*
X660190Y622557D01*
X660702Y622754D01*
X661134Y622951D01*
X661488Y623187D01*
X661724Y623344D01*
X661921Y623501D01*
X661961Y623541D01*
X662197Y623816D01*
X662393Y624131D01*
X662511Y624446D01*
X662629Y624721D01*
X662669Y624996D01*
X662708Y625233D01*
Y625390D01*
Y625429D01*
X662669Y625783D01*
X662629Y626138D01*
X662551Y626413D01*
X662393Y626649D01*
X662118Y627042D01*
X661764Y627279D01*
X661410Y627436D01*
X661095Y627514D01*
X660898Y627554D01*
D02*
G37*
G36*
X466202Y292461D02*
X464126D01*
Y292331D01*
X463737D01*
Y292201D01*
X463348D01*
Y292072D01*
X463218D01*
Y291942D01*
X462958D01*
Y291812D01*
X462829D01*
Y291682D01*
X462699D01*
Y291553D01*
X462569D01*
Y291423D01*
X462439D01*
Y291164D01*
X462309D01*
Y290904D01*
X462180D01*
Y290644D01*
X462050D01*
Y290255D01*
X461920D01*
Y289087D01*
X462050D01*
Y288698D01*
X462180D01*
Y288438D01*
X462309D01*
Y288309D01*
X462439D01*
Y288049D01*
X462569D01*
Y287920D01*
X462699D01*
Y287790D01*
X462829D01*
Y287660D01*
X462958D01*
Y287530D01*
X463218D01*
Y287400D01*
X463348D01*
Y287271D01*
X463607D01*
Y287141D01*
X463867D01*
Y287011D01*
X464126D01*
Y286881D01*
X464515D01*
Y286752D01*
X465035D01*
Y286622D01*
X465943D01*
Y286492D01*
X466981D01*
Y286622D01*
X467630D01*
Y286752D01*
X467889D01*
Y286881D01*
X468149D01*
Y287011D01*
X468408D01*
Y287141D01*
X468538D01*
Y287271D01*
X468668D01*
Y287400D01*
X468798D01*
Y287530D01*
X468927D01*
Y287660D01*
X469057D01*
Y287920D01*
X469187D01*
Y288179D01*
X469317D01*
Y288568D01*
X469446D01*
Y289347D01*
X469576D01*
Y289736D01*
X469446D01*
Y290255D01*
X469317D01*
Y290515D01*
X469187D01*
Y290774D01*
X469057D01*
Y290904D01*
X468927D01*
Y291164D01*
X468798D01*
Y291293D01*
X468668D01*
Y291423D01*
X468408D01*
Y291553D01*
X468279D01*
Y291682D01*
X468149D01*
Y291812D01*
X467889D01*
Y291942D01*
X467630D01*
Y292072D01*
X467240D01*
Y292201D01*
X466851D01*
Y292331D01*
X466202D01*
Y292461D01*
D02*
G37*
G36*
X478919Y293499D02*
X478140D01*
Y293369D01*
X477621D01*
Y293240D01*
X477232D01*
Y293110D01*
X476973D01*
Y292980D01*
X476843D01*
Y292850D01*
X476713D01*
Y292721D01*
X476583D01*
Y292591D01*
X476454D01*
Y292461D01*
X476324D01*
Y292331D01*
X476194D01*
Y292201D01*
X476064D01*
Y291942D01*
X475934D01*
Y291812D01*
X475805D01*
Y291553D01*
X475675D01*
Y291164D01*
X475545D01*
Y289477D01*
X475415D01*
Y287141D01*
X475545D01*
Y286233D01*
X475675D01*
Y285714D01*
X475805D01*
Y285454D01*
X475934D01*
Y285194D01*
X476064D01*
Y284935D01*
X476194D01*
Y284805D01*
X476324D01*
Y284546D01*
X476583D01*
Y284416D01*
X476713D01*
Y284286D01*
X476973D01*
Y284156D01*
X477232D01*
Y284027D01*
X478789D01*
Y284156D01*
X479178D01*
Y284286D01*
X479568D01*
Y284416D01*
X479827D01*
Y284546D01*
X479957D01*
Y284676D01*
X480216D01*
Y284805D01*
X480346D01*
Y284935D01*
X480476D01*
Y285065D01*
X480606D01*
Y285194D01*
X480736D01*
Y285324D01*
X480865D01*
Y285454D01*
X480995D01*
Y285714D01*
X481125D01*
Y285843D01*
X481255D01*
Y286103D01*
X481384D01*
Y286362D01*
X481514D01*
Y286622D01*
X481644D01*
Y287011D01*
X481774D01*
Y287530D01*
X481903D01*
Y288179D01*
X482033D01*
Y290515D01*
X481903D01*
Y290904D01*
X481774D01*
Y291293D01*
X481644D01*
Y291553D01*
X481514D01*
Y291812D01*
X481384D01*
Y292072D01*
X481255D01*
Y292201D01*
X481125D01*
Y292331D01*
X480995D01*
Y292461D01*
X480865D01*
Y292591D01*
X480736D01*
Y292721D01*
X480606D01*
Y292850D01*
X480476D01*
Y292980D01*
X480216D01*
Y293110D01*
X479957D01*
Y293240D01*
X479568D01*
Y293369D01*
X478919D01*
Y293499D01*
D02*
G37*
G36*
X471782Y521099D02*
X465554D01*
Y520969D01*
X465164D01*
Y520840D01*
X464905D01*
Y520710D01*
X464775D01*
Y520580D01*
X464515D01*
Y520450D01*
X464386D01*
Y520321D01*
X464256D01*
Y520061D01*
X464126D01*
Y519931D01*
X463997D01*
Y519802D01*
X463867D01*
Y519542D01*
X463737D01*
Y519412D01*
X463607D01*
Y519153D01*
X463477D01*
Y518893D01*
X463348D01*
Y518634D01*
X463218D01*
Y518115D01*
X463088D01*
Y516168D01*
X463218D01*
Y515779D01*
X463348D01*
Y515519D01*
X463477D01*
Y515260D01*
X463607D01*
Y515000D01*
X463737D01*
Y514871D01*
X463867D01*
Y514741D01*
X463997D01*
Y514611D01*
X464126D01*
Y514481D01*
X464256D01*
Y514352D01*
X464386D01*
Y514222D01*
X464515D01*
Y514092D01*
X464775D01*
Y513962D01*
X465035D01*
Y513833D01*
X465294D01*
Y513703D01*
X465554D01*
Y513573D01*
X466073D01*
Y513443D01*
X466721D01*
Y513313D01*
X469317D01*
Y513443D01*
X470095D01*
Y513573D01*
X470485D01*
Y513703D01*
X470874D01*
Y513833D01*
X471263D01*
Y513962D01*
X471523D01*
Y514092D01*
X471782D01*
Y514222D01*
X472042D01*
Y514352D01*
X472171D01*
Y514481D01*
X472431D01*
Y514611D01*
X472561D01*
Y514741D01*
X472690D01*
Y514871D01*
X472820D01*
Y515000D01*
X472950D01*
Y515130D01*
X473080D01*
Y515260D01*
X473209D01*
Y515519D01*
X473339D01*
Y515779D01*
X473469D01*
Y516039D01*
X473599D01*
Y516298D01*
X473728D01*
Y516817D01*
X473858D01*
Y518115D01*
X473728D01*
Y518764D01*
X473599D01*
Y519153D01*
X473469D01*
Y519412D01*
X473339D01*
Y519672D01*
X473209D01*
Y519931D01*
X473080D01*
Y520061D01*
X472950D01*
Y520191D01*
X472820D01*
Y520321D01*
X472690D01*
Y520450D01*
X472561D01*
Y520580D01*
X472431D01*
Y520710D01*
X472301D01*
Y520840D01*
X472042D01*
Y520969D01*
X471782D01*
Y521099D01*
D02*
G37*
G36*
X411919Y564478D02*
X409683D01*
Y564338D01*
X408425D01*
Y564198D01*
X407866D01*
Y564059D01*
X407307D01*
Y563919D01*
X407027D01*
Y563779D01*
X406748D01*
Y563639D01*
X406608D01*
Y563500D01*
X406468D01*
Y563360D01*
X406329D01*
Y563220D01*
X406189D01*
Y563080D01*
X406049D01*
Y562941D01*
X405909D01*
Y562661D01*
X405770D01*
Y561963D01*
X405630D01*
Y561264D01*
X405770D01*
Y560705D01*
X405909D01*
Y560425D01*
X406049D01*
Y560146D01*
X406189D01*
Y560006D01*
X406329D01*
Y559866D01*
X406468D01*
Y559726D01*
X406608D01*
Y559587D01*
X406888D01*
Y559447D01*
X407167D01*
Y559307D01*
X407586D01*
Y559167D01*
X408006D01*
Y559028D01*
X408844D01*
Y558888D01*
X412757D01*
Y559028D01*
X413456D01*
Y559167D01*
X414015D01*
Y559307D01*
X414295D01*
Y559447D01*
X414714D01*
Y559587D01*
X414854D01*
Y559726D01*
X414993D01*
Y559866D01*
X415273D01*
Y560146D01*
X415413D01*
Y560285D01*
X415552D01*
Y560565D01*
X415692D01*
Y560844D01*
X415832D01*
Y562382D01*
X415692D01*
Y562801D01*
X415552D01*
Y563080D01*
X415413D01*
Y563220D01*
X415273D01*
Y563360D01*
X415133D01*
Y563500D01*
X414993D01*
Y563639D01*
X414714D01*
Y563779D01*
X414434D01*
Y563919D01*
X414155D01*
Y564059D01*
X413736D01*
Y564198D01*
X413176D01*
Y564338D01*
X411919D01*
Y564478D01*
D02*
G37*
G36*
X469057Y566515D02*
X466202D01*
Y566386D01*
X465294D01*
Y566256D01*
X464775D01*
Y566126D01*
X464256D01*
Y565996D01*
X463997D01*
Y565867D01*
X463607D01*
Y565737D01*
X463477D01*
Y565607D01*
X463218D01*
Y565477D01*
X463088D01*
Y565348D01*
X462829D01*
Y565218D01*
X462699D01*
Y565088D01*
X462569D01*
Y564958D01*
X462439D01*
Y564699D01*
X462309D01*
Y564569D01*
X462180D01*
Y564310D01*
X462050D01*
Y563920D01*
X461920D01*
Y563401D01*
X461791D01*
Y562233D01*
X461920D01*
Y561844D01*
X462050D01*
Y561455D01*
X462180D01*
Y561195D01*
X462309D01*
Y561065D01*
X462439D01*
Y560936D01*
X462569D01*
Y560676D01*
X462699D01*
Y560546D01*
X462829D01*
Y560417D01*
X463088D01*
Y560287D01*
X463218D01*
Y560157D01*
X463348D01*
Y560027D01*
X463607D01*
Y559898D01*
X463737D01*
Y559768D01*
X463997D01*
Y559638D01*
X464256D01*
Y559508D01*
X464645D01*
Y559379D01*
X465035D01*
Y559249D01*
X465424D01*
Y559119D01*
X465943D01*
Y558989D01*
X466592D01*
Y558859D01*
X467889D01*
Y558730D01*
X469836D01*
Y558859D01*
X470874D01*
Y558989D01*
X471393D01*
Y559119D01*
X471782D01*
Y559249D01*
X472171D01*
Y559379D01*
X472431D01*
Y559508D01*
X472690D01*
Y559638D01*
X472950D01*
Y559768D01*
X473080D01*
Y559898D01*
X473209D01*
Y560027D01*
X473339D01*
Y560157D01*
X473469D01*
Y560287D01*
X473599D01*
Y560417D01*
X473728D01*
Y560546D01*
X473858D01*
Y560806D01*
X473988D01*
Y560936D01*
X474118D01*
Y561325D01*
X474248D01*
Y561714D01*
X474377D01*
Y563271D01*
X474248D01*
Y563661D01*
X474118D01*
Y563920D01*
X473988D01*
Y564180D01*
X473858D01*
Y564310D01*
X473728D01*
Y564569D01*
X473599D01*
Y564699D01*
X473469D01*
Y564828D01*
X473339D01*
Y564958D01*
X473209D01*
Y565088D01*
X472950D01*
Y565218D01*
X472820D01*
Y565348D01*
X472690D01*
Y565477D01*
X472431D01*
Y565607D01*
X472171D01*
Y565737D01*
X471912D01*
Y565867D01*
X471523D01*
Y565996D01*
X471133D01*
Y566126D01*
X470614D01*
Y566256D01*
X470095D01*
Y566386D01*
X469057D01*
Y566515D01*
D02*
G37*
G36*
X439249Y562274D02*
X438211D01*
Y562145D01*
X437432D01*
Y562015D01*
X437043D01*
Y561885D01*
X436654D01*
Y561755D01*
X436394D01*
Y561626D01*
X436135D01*
Y561496D01*
X435875D01*
Y561366D01*
X435616D01*
Y561236D01*
X435486D01*
Y561106D01*
X435356D01*
Y560977D01*
X435226D01*
Y560847D01*
X435097D01*
Y560717D01*
X434967D01*
Y560458D01*
X434837D01*
Y560328D01*
X434707D01*
Y559939D01*
X434578D01*
Y559549D01*
X434448D01*
Y558382D01*
X434578D01*
Y557863D01*
X434707D01*
Y557603D01*
X434837D01*
Y557343D01*
X434967D01*
Y557214D01*
X435097D01*
Y556954D01*
X435226D01*
Y556824D01*
X435486D01*
Y556695D01*
X435616D01*
Y556565D01*
X435745D01*
Y556435D01*
X436005D01*
Y556305D01*
X436264D01*
Y556176D01*
X436654D01*
Y556046D01*
X437173D01*
Y555916D01*
X437951D01*
Y555786D01*
X439249D01*
Y556695D01*
X439379D01*
Y560458D01*
X439249D01*
Y562274D01*
D02*
G37*
G36*
X444180Y489868D02*
X443272D01*
Y489738D01*
X442752D01*
Y489608D01*
X442623D01*
Y489479D01*
X442363D01*
Y489349D01*
X442234D01*
Y489219D01*
X442104D01*
Y488960D01*
X441974D01*
Y488830D01*
X441844D01*
Y488570D01*
X441714D01*
Y488311D01*
X441585D01*
Y488051D01*
X441455D01*
Y487662D01*
X441325D01*
Y487403D01*
X441195D01*
Y487013D01*
X441066D01*
Y486494D01*
X440936D01*
Y486105D01*
X440806D01*
Y485586D01*
X440676D01*
Y485067D01*
X440547D01*
Y484548D01*
X440417D01*
Y484288D01*
X443920D01*
Y484418D01*
X444050D01*
Y484548D01*
X444180D01*
Y484678D01*
X444310D01*
Y484807D01*
X444439D01*
Y484937D01*
X444569D01*
Y485067D01*
X444699D01*
Y485197D01*
X444829D01*
Y485326D01*
X444958D01*
Y485586D01*
X445088D01*
Y485716D01*
X445218D01*
Y485845D01*
X445348D01*
Y486105D01*
X445477D01*
Y486235D01*
X445607D01*
Y486494D01*
X445737D01*
Y486754D01*
X445867D01*
Y487143D01*
X445997D01*
Y488311D01*
X445867D01*
Y488700D01*
X445737D01*
Y488960D01*
X445607D01*
Y489089D01*
X445477D01*
Y489219D01*
X445348D01*
Y489349D01*
X445218D01*
Y489479D01*
X444958D01*
Y489608D01*
X444699D01*
Y489738D01*
X444180D01*
Y489868D01*
D02*
G37*
G36*
X408565Y513748D02*
X407447D01*
Y513608D01*
X407027D01*
Y513468D01*
X406608D01*
Y513328D01*
X406468D01*
Y513189D01*
X406189D01*
Y513049D01*
X406049D01*
Y512909D01*
X405909D01*
Y512769D01*
X405770D01*
Y512490D01*
X405630D01*
Y512350D01*
X405490D01*
Y511931D01*
X405350D01*
Y510254D01*
X405490D01*
Y509974D01*
X405630D01*
Y509695D01*
X405770D01*
Y509555D01*
X405909D01*
Y509415D01*
X406049D01*
Y509276D01*
X406189D01*
Y509136D01*
X406329D01*
Y508996D01*
X406608D01*
Y508856D01*
X406888D01*
Y508717D01*
X407447D01*
Y508577D01*
X408565D01*
Y513748D01*
D02*
G37*
%LPD*%
D44*
X265000Y402000D02*
D03*
Y383000D02*
D03*
Y347000D02*
D03*
Y328000D02*
D03*
X480000Y772000D02*
D03*
Y753000D02*
D03*
X502500Y772000D02*
D03*
Y753000D02*
D03*
X1042000Y429500D02*
D03*
Y448500D02*
D03*
X1170000Y299500D02*
D03*
Y280500D02*
D03*
X265000Y579500D02*
D03*
Y560500D02*
D03*
Y634500D02*
D03*
Y615500D02*
D03*
D47*
X988000Y322500D02*
D03*
X1007000D02*
D03*
X544500Y770000D02*
D03*
X525500D02*
D03*
X525500Y747500D02*
D03*
X544500D02*
D03*
X544500Y725000D02*
D03*
X525500D02*
D03*
X544500Y702500D02*
D03*
X525500D02*
D03*
X544500Y657500D02*
D03*
X525500D02*
D03*
X525500Y680000D02*
D03*
X544500D02*
D03*
X677000Y725000D02*
D03*
X658000D02*
D03*
X658000Y702500D02*
D03*
X677000D02*
D03*
X677000Y680000D02*
D03*
X658000D02*
D03*
X1019500Y477500D02*
D03*
X1000500D02*
D03*
X1019500Y455000D02*
D03*
X1000500D02*
D03*
X1019500Y432500D02*
D03*
X1000500D02*
D03*
D55*
X1237500Y727500D02*
D03*
X1187500D02*
D03*
Y575000D02*
D03*
X1237500D02*
D03*
X747500Y692500D02*
D03*
X797500D02*
D03*
Y482500D02*
D03*
X747500D02*
D03*
X1237500Y425000D02*
D03*
X1187500D02*
D03*
D56*
X705000Y720000D02*
D03*
X790000Y762500D02*
D03*
D57*
X1253000Y675000D02*
D03*
Y627000D02*
D03*
Y523000D02*
D03*
Y477000D02*
D03*
X1200000Y325000D02*
D03*
Y270000D02*
D03*
D58*
X708000Y758600D02*
D03*
X682600D02*
D03*
X657200D02*
D03*
X631800D02*
D03*
X606400D02*
D03*
X733400D02*
D03*
X758800D02*
D03*
X733400Y276000D02*
D03*
X758800D02*
D03*
X784200D02*
D03*
X926440D02*
D03*
X901040D02*
D03*
X875640D02*
D03*
D59*
X581000Y758600D02*
D03*
X809600Y276000D02*
D03*
X850240D02*
D03*
D60*
X327000D02*
D03*
X372500Y680000D02*
D03*
Y465000D02*
D03*
X570000Y680000D02*
D03*
Y465000D02*
D03*
X733000Y629100D02*
D03*
X535000D02*
D03*
X733000Y414100D02*
D03*
X535000D02*
D03*
D61*
X327000Y301400D02*
D03*
Y326800D02*
D03*
Y352200D02*
D03*
Y377600D02*
D03*
Y403000D02*
D03*
Y428400D02*
D03*
Y453800D02*
D03*
Y479200D02*
D03*
Y504600D02*
D03*
Y530000D02*
D03*
Y555400D02*
D03*
Y580800D02*
D03*
Y606200D02*
D03*
Y631600D02*
D03*
Y657000D02*
D03*
Y682400D02*
D03*
Y707800D02*
D03*
X301600Y276000D02*
D03*
Y301400D02*
D03*
Y326800D02*
D03*
Y352200D02*
D03*
Y377600D02*
D03*
Y403000D02*
D03*
Y428400D02*
D03*
Y453800D02*
D03*
Y479200D02*
D03*
Y504600D02*
D03*
Y530000D02*
D03*
Y555400D02*
D03*
Y580800D02*
D03*
Y606200D02*
D03*
Y631600D02*
D03*
Y657000D02*
D03*
Y682400D02*
D03*
Y707800D02*
D03*
X499500Y502200D02*
D03*
Y527600D02*
D03*
Y680000D02*
D03*
Y654600D02*
D03*
Y629200D02*
D03*
Y603800D02*
D03*
Y578400D02*
D03*
Y553000D02*
D03*
X372500D02*
D03*
Y578400D02*
D03*
Y603800D02*
D03*
Y629200D02*
D03*
Y654600D02*
D03*
Y527600D02*
D03*
Y502200D02*
D03*
Y287200D02*
D03*
Y312600D02*
D03*
Y439600D02*
D03*
Y414200D02*
D03*
Y388800D02*
D03*
Y363400D02*
D03*
Y338000D02*
D03*
X499500D02*
D03*
Y363400D02*
D03*
Y388800D02*
D03*
Y414200D02*
D03*
Y439600D02*
D03*
Y465000D02*
D03*
Y312600D02*
D03*
Y287200D02*
D03*
X570000Y502200D02*
D03*
Y527600D02*
D03*
Y654600D02*
D03*
Y629200D02*
D03*
Y603800D02*
D03*
Y578400D02*
D03*
Y553000D02*
D03*
X697000D02*
D03*
Y578400D02*
D03*
Y603800D02*
D03*
Y629200D02*
D03*
Y654600D02*
D03*
Y680000D02*
D03*
Y527600D02*
D03*
Y502200D02*
D03*
Y287200D02*
D03*
Y312600D02*
D03*
Y465000D02*
D03*
Y439600D02*
D03*
Y414200D02*
D03*
Y388800D02*
D03*
Y363400D02*
D03*
Y338000D02*
D03*
X570000D02*
D03*
Y363400D02*
D03*
Y388800D02*
D03*
Y414200D02*
D03*
Y439600D02*
D03*
Y312600D02*
D03*
Y287200D02*
D03*
X733000Y552900D02*
D03*
Y578300D02*
D03*
Y603700D02*
D03*
X535000Y552900D02*
D03*
Y578300D02*
D03*
Y603700D02*
D03*
X733000Y337900D02*
D03*
Y363300D02*
D03*
Y388700D02*
D03*
X535000Y337900D02*
D03*
Y363300D02*
D03*
Y388700D02*
D03*
D62*
X797500Y650000D02*
D03*
X767500D02*
D03*
X797500Y610000D02*
D03*
X767500D02*
D03*
X797500Y570000D02*
D03*
X767500D02*
D03*
X797500Y530000D02*
D03*
X767500D02*
D03*
X800000Y445000D02*
D03*
X770000D02*
D03*
X800000Y405000D02*
D03*
X770000D02*
D03*
X800000Y365000D02*
D03*
X770000D02*
D03*
X800000Y325000D02*
D03*
X770000D02*
D03*
X1145000Y340000D02*
D03*
X1115000D02*
D03*
X1145000Y380000D02*
D03*
X1115000D02*
D03*
X1145000Y420000D02*
D03*
X1115000D02*
D03*
X1145000Y510000D02*
D03*
X1115000D02*
D03*
X1145000Y550000D02*
D03*
X1115000D02*
D03*
X1145000Y590000D02*
D03*
X1115000D02*
D03*
X1145000Y680000D02*
D03*
X1115000D02*
D03*
X1145000Y720000D02*
D03*
X1115000D02*
D03*
X1145000Y760000D02*
D03*
X1115000D02*
D03*
D63*
X1036000Y727900D02*
D03*
Y682100D02*
D03*
Y587900D02*
D03*
Y542100D02*
D03*
X913500Y427900D02*
D03*
Y382100D02*
D03*
D64*
X972500Y705000D02*
D03*
Y565000D02*
D03*
X850000Y405000D02*
D03*
D65*
X1173500Y350950D02*
D03*
D66*
Y363650D02*
D03*
Y376350D02*
D03*
Y389050D02*
D03*
X1226500Y350950D02*
D03*
Y363650D02*
D03*
Y376350D02*
D03*
Y389050D02*
D03*
D67*
X1168450Y516500D02*
D03*
Y669000D02*
D03*
D68*
X1181150Y516500D02*
D03*
X1193850D02*
D03*
X1206550D02*
D03*
X1168450Y463500D02*
D03*
X1181150D02*
D03*
X1193850D02*
D03*
X1206550D02*
D03*
X1181150Y669000D02*
D03*
X1193850D02*
D03*
X1206550D02*
D03*
X1168450Y616000D02*
D03*
X1181150D02*
D03*
X1193850D02*
D03*
X1206550D02*
D03*
M02*
