G04 Layer_Color=128*
%FSLAX44Y44*%
%MOMM*%
G71*
G01*
G75*
%ADD10R,1.6000X0.8000*%
%ADD12R,0.8000X1.6000*%
%ADD34O,0.5500X1.9500*%
%ADD35R,0.5500X1.9500*%
%ADD36O,1.9500X0.5500*%
%ADD37R,1.9500X0.5500*%
%ADD38R,1.5000X3.2000*%
%ADD39R,7.0000X8.0000*%
%ADD40R,3.0000X1.6000*%
D10*
X265000Y615500D02*
D03*
Y634500D02*
D03*
Y560500D02*
D03*
Y579500D02*
D03*
X1170000Y280500D02*
D03*
Y299500D02*
D03*
X1042000Y448500D02*
D03*
Y429500D02*
D03*
X502500Y753000D02*
D03*
Y772000D02*
D03*
X480000Y753000D02*
D03*
Y772000D02*
D03*
X265000Y328000D02*
D03*
Y347000D02*
D03*
Y383000D02*
D03*
Y402000D02*
D03*
D12*
X1000500Y432500D02*
D03*
X1019500D02*
D03*
X1000500Y455000D02*
D03*
X1019500D02*
D03*
X1000500Y477500D02*
D03*
X1019500D02*
D03*
X658000Y680000D02*
D03*
X677000D02*
D03*
X677000Y702500D02*
D03*
X658000D02*
D03*
X658000Y725000D02*
D03*
X677000D02*
D03*
X544500Y680000D02*
D03*
X525500D02*
D03*
X525500Y657500D02*
D03*
X544500D02*
D03*
X525500Y702500D02*
D03*
X544500D02*
D03*
X525500Y725000D02*
D03*
X544500D02*
D03*
X544500Y747500D02*
D03*
X525500D02*
D03*
X525500Y770000D02*
D03*
X544500D02*
D03*
X1007000Y322500D02*
D03*
X988000D02*
D03*
D34*
X1206550Y616000D02*
D03*
X1193850D02*
D03*
X1181150D02*
D03*
X1168450D02*
D03*
X1206550Y669000D02*
D03*
X1193850D02*
D03*
X1181150D02*
D03*
X1206550Y463500D02*
D03*
X1193850D02*
D03*
X1181150D02*
D03*
X1168450D02*
D03*
X1206550Y516500D02*
D03*
X1193850D02*
D03*
X1181150D02*
D03*
D35*
X1168450Y669000D02*
D03*
Y516500D02*
D03*
D36*
X1226500Y389050D02*
D03*
Y376350D02*
D03*
Y363650D02*
D03*
Y350950D02*
D03*
X1173500Y389050D02*
D03*
Y376350D02*
D03*
Y363650D02*
D03*
D37*
Y350950D02*
D03*
D38*
X1115000Y760000D02*
D03*
X1145000D02*
D03*
X1115000Y720000D02*
D03*
X1145000D02*
D03*
X1115000Y680000D02*
D03*
X1145000D02*
D03*
X1115000Y590000D02*
D03*
X1145000D02*
D03*
X1115000Y550000D02*
D03*
X1145000D02*
D03*
X1115000Y510000D02*
D03*
X1145000D02*
D03*
X1115000Y420000D02*
D03*
X1145000D02*
D03*
X1115000Y380000D02*
D03*
X1145000D02*
D03*
X1115000Y340000D02*
D03*
X1145000D02*
D03*
X770000Y325000D02*
D03*
X800000D02*
D03*
X770000Y365000D02*
D03*
X800000D02*
D03*
X770000Y405000D02*
D03*
X800000D02*
D03*
X770000Y445000D02*
D03*
X800000D02*
D03*
X767500Y530000D02*
D03*
X797500D02*
D03*
X767500Y570000D02*
D03*
X797500D02*
D03*
X767500Y610000D02*
D03*
X797500D02*
D03*
X767500Y650000D02*
D03*
X797500D02*
D03*
D39*
X850000Y405000D02*
D03*
X972500Y565000D02*
D03*
Y705000D02*
D03*
D40*
X913500Y382100D02*
D03*
Y427900D02*
D03*
X1036000Y542100D02*
D03*
Y587900D02*
D03*
Y682100D02*
D03*
Y727900D02*
D03*
M02*
