G04 Layer_Color=255*
%FSLAX44Y44*%
%MOMM*%
G71*
G01*
G75*
%ADD10R,1.6000X0.8000*%
%ADD13R,0.8000X1.6000*%
%ADD25C,1.5000*%
%ADD26C,3.0000*%
%ADD27C,2.2500*%
%ADD28O,1.5000X2.0000*%
%ADD29R,1.5000X2.0000*%
%ADD30R,2.0000X1.5000*%
%ADD31O,2.0000X1.5000*%
%ADD34R,1.5000X3.2000*%
%ADD35R,3.0000X1.6000*%
%ADD36R,7.0000X8.0000*%
%ADD37R,1.9500X0.5500*%
%ADD38O,1.9500X0.5500*%
%ADD39R,0.5500X1.9500*%
%ADD40O,0.5500X1.9500*%
D10*
X265000Y402000D02*
D03*
Y383000D02*
D03*
Y347000D02*
D03*
Y328000D02*
D03*
X480000Y772000D02*
D03*
Y753000D02*
D03*
X502500Y772000D02*
D03*
Y753000D02*
D03*
X1042000Y429500D02*
D03*
Y448500D02*
D03*
X1170000Y299500D02*
D03*
Y280500D02*
D03*
X265000Y579500D02*
D03*
Y560500D02*
D03*
Y634500D02*
D03*
Y615500D02*
D03*
D13*
X988000Y322500D02*
D03*
X1007000D02*
D03*
X544500Y770000D02*
D03*
X525500D02*
D03*
X525500Y747500D02*
D03*
X544500D02*
D03*
X544500Y725000D02*
D03*
X525500D02*
D03*
X544500Y702500D02*
D03*
X525500D02*
D03*
X544500Y657500D02*
D03*
X525500D02*
D03*
X525500Y680000D02*
D03*
X544500D02*
D03*
X677000Y725000D02*
D03*
X658000D02*
D03*
X658000Y702500D02*
D03*
X677000D02*
D03*
X677000Y680000D02*
D03*
X658000D02*
D03*
X1019500Y477500D02*
D03*
X1000500D02*
D03*
X1019500Y455000D02*
D03*
X1000500D02*
D03*
X1019500Y432500D02*
D03*
X1000500D02*
D03*
D25*
X1237500Y727500D02*
D03*
X1187500D02*
D03*
Y575000D02*
D03*
X1237500D02*
D03*
X747500Y692500D02*
D03*
X797500D02*
D03*
Y482500D02*
D03*
X747500D02*
D03*
X1237500Y425000D02*
D03*
X1187500D02*
D03*
D26*
X705000Y720000D02*
D03*
X790000Y762500D02*
D03*
D27*
X1253000Y675000D02*
D03*
Y627000D02*
D03*
Y523000D02*
D03*
Y477000D02*
D03*
X1200000Y325000D02*
D03*
Y270000D02*
D03*
D28*
X708000Y758600D02*
D03*
X682600D02*
D03*
X657200D02*
D03*
X631800D02*
D03*
X606400D02*
D03*
X733400D02*
D03*
X758800D02*
D03*
X733400Y276000D02*
D03*
X758800D02*
D03*
X784200D02*
D03*
X926440D02*
D03*
X901040D02*
D03*
X875640D02*
D03*
D29*
X581000Y758600D02*
D03*
X809600Y276000D02*
D03*
X850240D02*
D03*
D30*
X327000D02*
D03*
X372500Y680000D02*
D03*
Y465000D02*
D03*
X570000Y680000D02*
D03*
Y465000D02*
D03*
X733000Y629100D02*
D03*
X535000D02*
D03*
X733000Y414100D02*
D03*
X535000D02*
D03*
D31*
X327000Y301400D02*
D03*
Y326800D02*
D03*
Y352200D02*
D03*
Y377600D02*
D03*
Y403000D02*
D03*
Y428400D02*
D03*
Y453800D02*
D03*
Y479200D02*
D03*
Y504600D02*
D03*
Y530000D02*
D03*
Y555400D02*
D03*
Y580800D02*
D03*
Y606200D02*
D03*
Y631600D02*
D03*
Y657000D02*
D03*
Y682400D02*
D03*
Y707800D02*
D03*
X301600Y276000D02*
D03*
Y301400D02*
D03*
Y326800D02*
D03*
Y352200D02*
D03*
Y377600D02*
D03*
Y403000D02*
D03*
Y428400D02*
D03*
Y453800D02*
D03*
Y479200D02*
D03*
Y504600D02*
D03*
Y530000D02*
D03*
Y555400D02*
D03*
Y580800D02*
D03*
Y606200D02*
D03*
Y631600D02*
D03*
Y657000D02*
D03*
Y682400D02*
D03*
Y707800D02*
D03*
X499500Y502200D02*
D03*
Y527600D02*
D03*
Y680000D02*
D03*
Y654600D02*
D03*
Y629200D02*
D03*
Y603800D02*
D03*
Y578400D02*
D03*
Y553000D02*
D03*
X372500D02*
D03*
Y578400D02*
D03*
Y603800D02*
D03*
Y629200D02*
D03*
Y654600D02*
D03*
Y527600D02*
D03*
Y502200D02*
D03*
Y287200D02*
D03*
Y312600D02*
D03*
Y439600D02*
D03*
Y414200D02*
D03*
Y388800D02*
D03*
Y363400D02*
D03*
Y338000D02*
D03*
X499500D02*
D03*
Y363400D02*
D03*
Y388800D02*
D03*
Y414200D02*
D03*
Y439600D02*
D03*
Y465000D02*
D03*
Y312600D02*
D03*
Y287200D02*
D03*
X570000Y502200D02*
D03*
Y527600D02*
D03*
Y654600D02*
D03*
Y629200D02*
D03*
Y603800D02*
D03*
Y578400D02*
D03*
Y553000D02*
D03*
X697000D02*
D03*
Y578400D02*
D03*
Y603800D02*
D03*
Y629200D02*
D03*
Y654600D02*
D03*
Y680000D02*
D03*
Y527600D02*
D03*
Y502200D02*
D03*
Y287200D02*
D03*
Y312600D02*
D03*
Y465000D02*
D03*
Y439600D02*
D03*
Y414200D02*
D03*
Y388800D02*
D03*
Y363400D02*
D03*
Y338000D02*
D03*
X570000D02*
D03*
Y363400D02*
D03*
Y388800D02*
D03*
Y414200D02*
D03*
Y439600D02*
D03*
Y312600D02*
D03*
Y287200D02*
D03*
X733000Y552900D02*
D03*
Y578300D02*
D03*
Y603700D02*
D03*
X535000Y552900D02*
D03*
Y578300D02*
D03*
Y603700D02*
D03*
X733000Y337900D02*
D03*
Y363300D02*
D03*
Y388700D02*
D03*
X535000Y337900D02*
D03*
Y363300D02*
D03*
Y388700D02*
D03*
D34*
X797500Y650000D02*
D03*
X767500D02*
D03*
X797500Y610000D02*
D03*
X767500D02*
D03*
X797500Y570000D02*
D03*
X767500D02*
D03*
X797500Y530000D02*
D03*
X767500D02*
D03*
X800000Y445000D02*
D03*
X770000D02*
D03*
X800000Y405000D02*
D03*
X770000D02*
D03*
X800000Y365000D02*
D03*
X770000D02*
D03*
X800000Y325000D02*
D03*
X770000D02*
D03*
X1145000Y340000D02*
D03*
X1115000D02*
D03*
X1145000Y380000D02*
D03*
X1115000D02*
D03*
X1145000Y420000D02*
D03*
X1115000D02*
D03*
X1145000Y510000D02*
D03*
X1115000D02*
D03*
X1145000Y550000D02*
D03*
X1115000D02*
D03*
X1145000Y590000D02*
D03*
X1115000D02*
D03*
X1145000Y680000D02*
D03*
X1115000D02*
D03*
X1145000Y720000D02*
D03*
X1115000D02*
D03*
X1145000Y760000D02*
D03*
X1115000D02*
D03*
D35*
X1036000Y727900D02*
D03*
Y682100D02*
D03*
Y587900D02*
D03*
Y542100D02*
D03*
X913500Y427900D02*
D03*
Y382100D02*
D03*
D36*
X972500Y705000D02*
D03*
Y565000D02*
D03*
X850000Y405000D02*
D03*
D37*
X1173500Y350950D02*
D03*
D38*
Y363650D02*
D03*
Y376350D02*
D03*
Y389050D02*
D03*
X1226500Y350950D02*
D03*
Y363650D02*
D03*
Y376350D02*
D03*
Y389050D02*
D03*
D39*
X1168450Y516500D02*
D03*
Y669000D02*
D03*
D40*
X1181150Y516500D02*
D03*
X1193850D02*
D03*
X1206550D02*
D03*
X1168450Y463500D02*
D03*
X1181150D02*
D03*
X1193850D02*
D03*
X1206550D02*
D03*
X1181150Y669000D02*
D03*
X1193850D02*
D03*
X1206550D02*
D03*
X1168450Y616000D02*
D03*
X1181150D02*
D03*
X1193850D02*
D03*
X1206550D02*
D03*
M02*
