G04 Layer_Color=8388736*
%FSLAX44Y44*%
%MOMM*%
G71*
G01*
G75*
%ADD44R,1.8032X1.0032*%
%ADD45R,0.8032X1.8032*%
%ADD46R,1.2032X2.2032*%
%ADD47R,1.0032X1.8032*%
%ADD48R,5.2032X1.4032*%
%ADD49R,8.2032X1.4032*%
%ADD50R,11.2032X11.2032*%
%ADD51R,1.4032X5.2032*%
%ADD52R,1.4032X8.2032*%
%ADD53R,11.2032X11.2032*%
%ADD54R,4.2032X3.2032*%
%ADD55C,1.7032*%
%ADD56C,3.2032*%
%ADD57C,2.4532*%
%ADD58O,1.7032X2.2032*%
%ADD59R,1.7032X2.2032*%
%ADD60R,2.2032X1.7032*%
%ADD61O,2.2032X1.7032*%
G36*
X842532Y378746D02*
X833368D01*
Y378348D01*
X832172D01*
Y377949D01*
X831774D01*
Y377551D01*
X831375D01*
Y375957D01*
X831774D01*
Y375160D01*
X832172D01*
Y374762D01*
X832571D01*
Y374363D01*
X842532D01*
Y369581D01*
X828586D01*
Y374363D01*
X830180D01*
Y373965D01*
X830579D01*
Y374762D01*
X830180D01*
Y375558D01*
X829781D01*
Y375957D01*
X829383D01*
Y376355D01*
X828985D01*
Y377152D01*
X828586D01*
Y378348D01*
X828188D01*
Y380340D01*
X828586D01*
Y381535D01*
X828985D01*
Y381934D01*
X829383D01*
Y382332D01*
X829781D01*
Y382731D01*
X830579D01*
Y383129D01*
X842532D01*
Y378746D01*
D02*
G37*
G36*
Y362409D02*
X828586D01*
Y367191D01*
X842532D01*
Y362409D01*
D02*
G37*
G36*
X836555Y405841D02*
X838149D01*
Y406240D01*
X838548D01*
Y406638D01*
X839345D01*
Y407037D01*
X839743D01*
Y407834D01*
X840142D01*
Y411021D01*
X839743D01*
Y411818D01*
X839345D01*
Y412217D01*
X838946D01*
Y412615D01*
X838548D01*
Y413014D01*
X838149D01*
Y413412D01*
X838548D01*
Y414209D01*
X838946D01*
Y415006D01*
X839345D01*
Y415803D01*
X840142D01*
Y415405D01*
X840540D01*
Y415006D01*
X840938D01*
Y414608D01*
X841337D01*
Y414209D01*
X841735D01*
Y413412D01*
X842134D01*
Y412615D01*
X842532D01*
Y411420D01*
X842931D01*
Y405841D01*
X842532D01*
Y405045D01*
X842134D01*
Y404248D01*
X841735D01*
Y403451D01*
X841337D01*
Y403052D01*
X840938D01*
Y402654D01*
X840540D01*
Y402255D01*
X839743D01*
Y401857D01*
X838946D01*
Y401458D01*
X837751D01*
Y401060D01*
X833368D01*
Y401458D01*
X832172D01*
Y401857D01*
X831774D01*
Y402255D01*
X830977D01*
Y402654D01*
X830579D01*
Y403052D01*
X830180D01*
Y403451D01*
X829781D01*
Y403849D01*
X829383D01*
Y404646D01*
X828985D01*
Y405443D01*
X828586D01*
Y407037D01*
X828188D01*
Y410224D01*
X828586D01*
Y411818D01*
X828985D01*
Y412615D01*
X829383D01*
Y413412D01*
X829781D01*
Y413811D01*
X830180D01*
Y414209D01*
X830579D01*
Y414608D01*
X831375D01*
Y415006D01*
X831774D01*
Y415405D01*
X832969D01*
Y415803D01*
X834961D01*
Y416201D01*
X836555D01*
Y405841D01*
D02*
G37*
G36*
X839743Y399466D02*
X840142D01*
Y399068D01*
X840540D01*
Y398669D01*
X840938D01*
Y398271D01*
X841337D01*
Y397872D01*
X841735D01*
Y397075D01*
X842134D01*
Y396278D01*
X842532D01*
Y395481D01*
X842931D01*
Y389903D01*
X842532D01*
Y388708D01*
X842134D01*
Y387911D01*
X841735D01*
Y387512D01*
X841337D01*
Y387114D01*
X840938D01*
Y386715D01*
X840540D01*
Y386317D01*
X840142D01*
Y385918D01*
X839345D01*
Y385520D01*
X838149D01*
Y385121D01*
X836555D01*
Y384723D01*
X834961D01*
Y385121D01*
X832969D01*
Y385520D01*
X831774D01*
Y385918D01*
X831375D01*
Y386317D01*
X830977D01*
Y386715D01*
X830180D01*
Y387512D01*
X829781D01*
Y387911D01*
X829383D01*
Y388309D01*
X828985D01*
Y389505D01*
X828586D01*
Y391098D01*
X828188D01*
Y393888D01*
X828586D01*
Y395481D01*
X828985D01*
Y396677D01*
X829383D01*
Y397075D01*
X829781D01*
Y397872D01*
X830180D01*
Y398271D01*
X830977D01*
Y398669D01*
X831375D01*
Y399068D01*
X832172D01*
Y399466D01*
X833368D01*
Y399865D01*
X836555D01*
Y389903D01*
X838548D01*
Y390301D01*
X838946D01*
Y390700D01*
X839345D01*
Y391098D01*
X839743D01*
Y391895D01*
X840142D01*
Y395083D01*
X839743D01*
Y395880D01*
X839345D01*
Y396278D01*
X838946D01*
Y396677D01*
X838149D01*
Y397075D01*
X838548D01*
Y398271D01*
X838946D01*
Y399068D01*
X839345D01*
Y399865D01*
X839743D01*
Y399466D01*
D02*
G37*
G36*
X842532Y339298D02*
X832172D01*
Y338900D01*
X831774D01*
Y338502D01*
X831375D01*
Y336509D01*
X831774D01*
Y336111D01*
X832172D01*
Y335314D01*
X832571D01*
Y334915D01*
X842532D01*
Y330532D01*
X828586D01*
Y334915D01*
X830579D01*
Y335712D01*
X830180D01*
Y336111D01*
X829781D01*
Y336509D01*
X829383D01*
Y337306D01*
X828985D01*
Y338103D01*
X828586D01*
Y338900D01*
X828188D01*
Y340892D01*
X828586D01*
Y342088D01*
X828985D01*
Y342885D01*
X829383D01*
Y343283D01*
X830180D01*
Y343681D01*
X830977D01*
Y344080D01*
X842532D01*
Y339298D01*
D02*
G37*
G36*
Y313000D02*
X822609D01*
Y328142D01*
X826195D01*
Y318578D01*
X830579D01*
Y324555D01*
X834165D01*
Y318578D01*
X838946D01*
Y328540D01*
X842532D01*
Y313000D01*
D02*
G37*
G36*
X826195Y362409D02*
X822609D01*
Y367191D01*
X826195D01*
Y362409D01*
D02*
G37*
G36*
X843728Y360815D02*
X844525D01*
Y360417D01*
X844923D01*
Y360018D01*
X845322D01*
Y359620D01*
X845720D01*
Y359221D01*
X846118D01*
Y358425D01*
X846517D01*
Y357229D01*
X846915D01*
Y355237D01*
X847314D01*
Y349260D01*
X846915D01*
Y347268D01*
X846517D01*
Y346471D01*
X846118D01*
Y345674D01*
X845322D01*
Y345275D01*
X844126D01*
Y345674D01*
X843329D01*
Y346471D01*
X842931D01*
Y347268D01*
X842532D01*
Y348065D01*
X841735D01*
Y346869D01*
X841337D01*
Y346471D01*
X840938D01*
Y346072D01*
X838548D01*
Y346471D01*
X838149D01*
Y346869D01*
X837751D01*
Y347666D01*
X837352D01*
Y348065D01*
X836954D01*
Y349260D01*
X836157D01*
Y348463D01*
X835758D01*
Y347666D01*
X835360D01*
Y347268D01*
X834961D01*
Y346869D01*
X834563D01*
Y346471D01*
X833368D01*
Y346072D01*
X832969D01*
Y346471D01*
X832571D01*
Y346072D01*
X831774D01*
Y346471D01*
X830977D01*
Y346869D01*
X830180D01*
Y347268D01*
X829781D01*
Y347666D01*
X829383D01*
Y348463D01*
X828985D01*
Y349260D01*
X828586D01*
Y350854D01*
X828188D01*
Y354041D01*
X828586D01*
Y356034D01*
X828985D01*
Y357229D01*
X829383D01*
Y357628D01*
X829781D01*
Y358026D01*
X829383D01*
Y358425D01*
X828985D01*
Y359221D01*
X828586D01*
Y360417D01*
X828188D01*
Y361214D01*
X830579D01*
Y360417D01*
X830180D01*
Y359620D01*
X830579D01*
Y358823D01*
X831375D01*
Y359221D01*
X833766D01*
Y358823D01*
X834563D01*
Y358425D01*
X835360D01*
Y357628D01*
X835758D01*
Y357229D01*
X836157D01*
Y356034D01*
X836555D01*
Y351651D01*
X836954D01*
Y350455D01*
X837352D01*
Y350057D01*
X838149D01*
Y350455D01*
X838548D01*
Y351651D01*
X838946D01*
Y356831D01*
X839345D01*
Y358425D01*
X839743D01*
Y359221D01*
X840142D01*
Y360018D01*
X840540D01*
Y360417D01*
X840938D01*
Y360815D01*
X841735D01*
Y361214D01*
X843728D01*
Y360815D01*
D02*
G37*
G36*
X842532Y429351D02*
X842134D01*
Y429749D01*
X828985D01*
Y429351D01*
X828586D01*
Y434132D01*
X842532D01*
Y429351D01*
D02*
G37*
G36*
Y445687D02*
X832969D01*
Y445289D01*
X832172D01*
Y444891D01*
X831774D01*
Y444492D01*
X831375D01*
Y442898D01*
X831774D01*
Y442101D01*
X832172D01*
Y441703D01*
X832571D01*
Y441304D01*
X842532D01*
Y436523D01*
X828586D01*
Y441304D01*
X830180D01*
Y440906D01*
X830579D01*
Y442101D01*
X830180D01*
Y442500D01*
X829781D01*
Y442898D01*
X829383D01*
Y443297D01*
X828985D01*
Y444094D01*
X828586D01*
Y445289D01*
X828188D01*
Y447281D01*
X828586D01*
Y448078D01*
X828985D01*
Y448875D01*
X829383D01*
Y449274D01*
X829781D01*
Y449672D01*
X830977D01*
Y450071D01*
X842532D01*
Y445687D01*
D02*
G37*
G36*
X830579Y466408D02*
X830180D01*
Y465611D01*
X830579D01*
Y464814D01*
X831375D01*
Y465212D01*
X834165D01*
Y464814D01*
X834961D01*
Y464415D01*
X835360D01*
Y464017D01*
X835758D01*
Y463220D01*
X836157D01*
Y462423D01*
X836555D01*
Y457641D01*
X836954D01*
Y456446D01*
X838548D01*
Y458040D01*
X838946D01*
Y462821D01*
X839345D01*
Y464415D01*
X839743D01*
Y465611D01*
X840142D01*
Y466009D01*
X840540D01*
Y466408D01*
X840938D01*
Y466806D01*
X841337D01*
Y467204D01*
X844126D01*
Y466806D01*
X844923D01*
Y466408D01*
X845322D01*
Y466009D01*
X845720D01*
Y465212D01*
X846118D01*
Y464415D01*
X846517D01*
Y463618D01*
X846915D01*
Y461626D01*
X847314D01*
Y455251D01*
X846915D01*
Y453258D01*
X846517D01*
Y452461D01*
X846118D01*
Y452063D01*
X845720D01*
Y451664D01*
X845322D01*
Y451266D01*
X844525D01*
Y451664D01*
X843728D01*
Y452063D01*
X843329D01*
Y452461D01*
X842931D01*
Y453258D01*
X842532D01*
Y454055D01*
X841735D01*
Y452860D01*
X841337D01*
Y452461D01*
X840938D01*
Y452063D01*
X838946D01*
Y452461D01*
X838149D01*
Y452860D01*
X837751D01*
Y453657D01*
X837352D01*
Y454454D01*
X836954D01*
Y455251D01*
X836157D01*
Y454454D01*
X835758D01*
Y453657D01*
X835360D01*
Y453258D01*
X834563D01*
Y452860D01*
X834165D01*
Y452461D01*
X830977D01*
Y452860D01*
X830579D01*
Y453258D01*
X829781D01*
Y454055D01*
X829383D01*
Y454454D01*
X828985D01*
Y455251D01*
X828586D01*
Y456844D01*
X828188D01*
Y460431D01*
X828586D01*
Y462024D01*
X828985D01*
Y463220D01*
X829383D01*
Y463618D01*
X829781D01*
Y464415D01*
X829383D01*
Y464814D01*
X828985D01*
Y465212D01*
X828586D01*
Y466408D01*
X828188D01*
Y467603D01*
X830579D01*
Y466408D01*
D02*
G37*
G36*
X826195Y429351D02*
X825398D01*
Y429749D01*
X823008D01*
Y429351D01*
X822609D01*
Y434132D01*
X826195D01*
Y429351D01*
D02*
G37*
G36*
X832969Y426960D02*
X832571D01*
Y423374D01*
X832969D01*
Y422975D01*
X833368D01*
Y422577D01*
X842532D01*
Y417795D01*
X828586D01*
Y422577D01*
X830180D01*
Y422178D01*
X830977D01*
Y422975D01*
X830579D01*
Y423374D01*
X830180D01*
Y423772D01*
X829781D01*
Y424171D01*
X829383D01*
Y424569D01*
X828985D01*
Y425366D01*
X828586D01*
Y426960D01*
X828188D01*
Y427757D01*
X832969D01*
Y426960D01*
D02*
G37*
%LPC*%
G36*
X834165Y411021D02*
X831774D01*
Y410623D01*
X831375D01*
Y410224D01*
X830977D01*
Y409428D01*
X830579D01*
Y408232D01*
X830977D01*
Y407037D01*
X831375D01*
Y406638D01*
X831774D01*
Y406240D01*
X834165D01*
Y411021D01*
D02*
G37*
G36*
Y395083D02*
X832172D01*
Y394684D01*
X831375D01*
Y394286D01*
X830977D01*
Y393091D01*
X830579D01*
Y391895D01*
X830977D01*
Y391098D01*
X831375D01*
Y390700D01*
X831774D01*
Y390301D01*
X832571D01*
Y389903D01*
X834165D01*
Y395083D01*
D02*
G37*
G36*
X844525Y357229D02*
X843329D01*
Y356831D01*
X842931D01*
Y356034D01*
X842532D01*
Y352846D01*
X842134D01*
Y352448D01*
X842532D01*
Y351252D01*
X842134D01*
Y350854D01*
X842532D01*
Y349260D01*
X842931D01*
Y348862D01*
X843329D01*
Y348463D01*
X844126D01*
Y348862D01*
X844525D01*
Y349260D01*
X844923D01*
Y350455D01*
X845322D01*
Y355237D01*
X844923D01*
Y356432D01*
X844525D01*
Y357229D01*
D02*
G37*
G36*
X833368Y355237D02*
X831774D01*
Y354838D01*
X830977D01*
Y354440D01*
X830579D01*
Y353643D01*
X830180D01*
Y351651D01*
X830579D01*
Y351252D01*
X830977D01*
Y350854D01*
X831375D01*
Y350455D01*
X833766D01*
Y350854D01*
X834165D01*
Y351252D01*
X834563D01*
Y351651D01*
X834961D01*
Y354041D01*
X834563D01*
Y354440D01*
X834165D01*
Y354838D01*
X833368D01*
Y355237D01*
D02*
G37*
G36*
X844525Y463220D02*
X842931D01*
Y462423D01*
X842532D01*
Y459235D01*
X842134D01*
Y458438D01*
X842532D01*
Y457641D01*
X842134D01*
Y457243D01*
X842532D01*
Y455251D01*
X842931D01*
Y454852D01*
X843329D01*
Y454454D01*
X844126D01*
Y454852D01*
X844525D01*
Y455251D01*
X844923D01*
Y456446D01*
X845322D01*
Y461227D01*
X844923D01*
Y462821D01*
X844525D01*
Y463220D01*
D02*
G37*
G36*
X833766Y461227D02*
X831375D01*
Y460829D01*
X830977D01*
Y460431D01*
X830579D01*
Y460032D01*
X830180D01*
Y458040D01*
X830579D01*
Y457243D01*
X830977D01*
Y456844D01*
X831375D01*
Y456446D01*
X833766D01*
Y456844D01*
X834165D01*
Y457243D01*
X834563D01*
Y457641D01*
X834961D01*
Y460032D01*
X834563D01*
Y460431D01*
X834165D01*
Y460829D01*
X833766D01*
Y461227D01*
D02*
G37*
%LPD*%
D44*
X597500Y359500D02*
D03*
Y340500D02*
D03*
X400000Y574500D02*
D03*
Y555500D02*
D03*
Y359500D02*
D03*
Y340500D02*
D03*
X820000Y753000D02*
D03*
Y772000D02*
D03*
Y565500D02*
D03*
Y584500D02*
D03*
Y530500D02*
D03*
Y549500D02*
D03*
X598000Y574500D02*
D03*
Y555500D02*
D03*
X265000Y363000D02*
D03*
Y382000D02*
D03*
Y308000D02*
D03*
Y327000D02*
D03*
Y540500D02*
D03*
Y559500D02*
D03*
Y595500D02*
D03*
Y614500D02*
D03*
X1170000Y260500D02*
D03*
Y279500D02*
D03*
X598000Y609500D02*
D03*
Y590500D02*
D03*
D45*
X365000Y744250D02*
D03*
X375000D02*
D03*
X385000D02*
D03*
X395000D02*
D03*
X405000D02*
D03*
X415000D02*
D03*
X425000D02*
D03*
X435000D02*
D03*
D46*
X352500Y765750D02*
D03*
X447500D02*
D03*
D47*
X365500Y720000D02*
D03*
X384500D02*
D03*
X419500D02*
D03*
X400500D02*
D03*
X870500Y647500D02*
D03*
X889500D02*
D03*
X884500Y455000D02*
D03*
X865500D02*
D03*
X884500Y477500D02*
D03*
X865500D02*
D03*
X1004500Y647500D02*
D03*
X985500D02*
D03*
X1004500Y625000D02*
D03*
X985500D02*
D03*
X865500Y320000D02*
D03*
X884500D02*
D03*
D48*
X862250Y754000D02*
D03*
Y737000D02*
D03*
Y703000D02*
D03*
Y686000D02*
D03*
Y584000D02*
D03*
Y567000D02*
D03*
Y533000D02*
D03*
Y516000D02*
D03*
D49*
X877250Y720000D02*
D03*
Y550000D02*
D03*
D50*
X952750Y720000D02*
D03*
Y550000D02*
D03*
D51*
X918500Y339750D02*
D03*
X935500D02*
D03*
X969500D02*
D03*
X986500D02*
D03*
D52*
X952500Y354750D02*
D03*
D53*
Y430250D02*
D03*
D54*
X1085000Y755000D02*
D03*
X1050000Y635000D02*
D03*
X1120000D02*
D03*
Y465000D02*
D03*
X1050000D02*
D03*
X1085000Y585000D02*
D03*
Y415000D02*
D03*
X1050000Y295000D02*
D03*
X1120000D02*
D03*
D55*
X1237500Y727500D02*
D03*
X1187500D02*
D03*
Y575000D02*
D03*
X1237500D02*
D03*
X747500Y692500D02*
D03*
X797500D02*
D03*
Y482500D02*
D03*
X747500D02*
D03*
X1237500Y425000D02*
D03*
X1187500D02*
D03*
D56*
X705000Y720000D02*
D03*
X790000Y762500D02*
D03*
D57*
X1253000Y675000D02*
D03*
Y627000D02*
D03*
Y523000D02*
D03*
Y477000D02*
D03*
X1200000Y325000D02*
D03*
Y270000D02*
D03*
D58*
X708000Y758600D02*
D03*
X682600D02*
D03*
X657200D02*
D03*
X631800D02*
D03*
X606400D02*
D03*
X733400D02*
D03*
X758800D02*
D03*
X733400Y276000D02*
D03*
X758800D02*
D03*
X784200D02*
D03*
X926440D02*
D03*
X901040D02*
D03*
X875640D02*
D03*
D59*
X581000Y758600D02*
D03*
X809600Y276000D02*
D03*
X850240D02*
D03*
D60*
X327000D02*
D03*
X372500Y680000D02*
D03*
Y465000D02*
D03*
X570000Y680000D02*
D03*
Y465000D02*
D03*
X733000Y629100D02*
D03*
X535000D02*
D03*
X733000Y414100D02*
D03*
X535000D02*
D03*
D61*
X327000Y301400D02*
D03*
Y326800D02*
D03*
Y352200D02*
D03*
Y377600D02*
D03*
Y403000D02*
D03*
Y428400D02*
D03*
Y453800D02*
D03*
Y479200D02*
D03*
Y504600D02*
D03*
Y530000D02*
D03*
Y555400D02*
D03*
Y580800D02*
D03*
Y606200D02*
D03*
Y631600D02*
D03*
Y657000D02*
D03*
Y682400D02*
D03*
Y707800D02*
D03*
X301600Y276000D02*
D03*
Y301400D02*
D03*
Y326800D02*
D03*
Y352200D02*
D03*
Y377600D02*
D03*
Y403000D02*
D03*
Y428400D02*
D03*
Y453800D02*
D03*
Y479200D02*
D03*
Y504600D02*
D03*
Y530000D02*
D03*
Y555400D02*
D03*
Y580800D02*
D03*
Y606200D02*
D03*
Y631600D02*
D03*
Y657000D02*
D03*
Y682400D02*
D03*
Y707800D02*
D03*
X499500Y502200D02*
D03*
Y527600D02*
D03*
Y680000D02*
D03*
Y654600D02*
D03*
Y629200D02*
D03*
Y603800D02*
D03*
Y578400D02*
D03*
Y553000D02*
D03*
X372500D02*
D03*
Y578400D02*
D03*
Y603800D02*
D03*
Y629200D02*
D03*
Y654600D02*
D03*
Y527600D02*
D03*
Y502200D02*
D03*
Y287200D02*
D03*
Y312600D02*
D03*
Y439600D02*
D03*
Y414200D02*
D03*
Y388800D02*
D03*
Y363400D02*
D03*
Y338000D02*
D03*
X499500D02*
D03*
Y363400D02*
D03*
Y388800D02*
D03*
Y414200D02*
D03*
Y439600D02*
D03*
Y465000D02*
D03*
Y312600D02*
D03*
Y287200D02*
D03*
X570000Y502200D02*
D03*
Y527600D02*
D03*
Y654600D02*
D03*
Y629200D02*
D03*
Y603800D02*
D03*
Y578400D02*
D03*
Y553000D02*
D03*
X697000D02*
D03*
Y578400D02*
D03*
Y603800D02*
D03*
Y629200D02*
D03*
Y654600D02*
D03*
Y680000D02*
D03*
Y527600D02*
D03*
Y502200D02*
D03*
Y287200D02*
D03*
Y312600D02*
D03*
Y465000D02*
D03*
Y439600D02*
D03*
Y414200D02*
D03*
Y388800D02*
D03*
Y363400D02*
D03*
Y338000D02*
D03*
X570000D02*
D03*
Y363400D02*
D03*
Y388800D02*
D03*
Y414200D02*
D03*
Y439600D02*
D03*
Y312600D02*
D03*
Y287200D02*
D03*
X733000Y552900D02*
D03*
Y578300D02*
D03*
Y603700D02*
D03*
X535000Y552900D02*
D03*
Y578300D02*
D03*
Y603700D02*
D03*
X733000Y337900D02*
D03*
Y363300D02*
D03*
Y388700D02*
D03*
X535000Y337900D02*
D03*
Y363300D02*
D03*
Y388700D02*
D03*
M02*
