G04 Layer_Color=128*
%FSLAX44Y44*%
%MOMM*%
G71*
G01*
G75*
%ADD10R,1.6000X0.8000*%
%ADD13R,0.8000X1.6000*%
%ADD34R,1.5000X3.2000*%
%ADD35R,3.0000X1.6000*%
%ADD36R,7.0000X8.0000*%
%ADD37R,1.9500X0.5500*%
%ADD38O,1.9500X0.5500*%
%ADD39R,0.5500X1.9500*%
%ADD40O,0.5500X1.9500*%
D10*
X265000Y402000D02*
D03*
Y383000D02*
D03*
Y347000D02*
D03*
Y328000D02*
D03*
X480000Y772000D02*
D03*
Y753000D02*
D03*
X502500Y772000D02*
D03*
Y753000D02*
D03*
X1042000Y429500D02*
D03*
Y448500D02*
D03*
X1170000Y299500D02*
D03*
Y280500D02*
D03*
X265000Y579500D02*
D03*
Y560500D02*
D03*
Y634500D02*
D03*
Y615500D02*
D03*
D13*
X988000Y322500D02*
D03*
X1007000D02*
D03*
X544500Y770000D02*
D03*
X525500D02*
D03*
X525500Y747500D02*
D03*
X544500D02*
D03*
X544500Y725000D02*
D03*
X525500D02*
D03*
X544500Y702500D02*
D03*
X525500D02*
D03*
X544500Y657500D02*
D03*
X525500D02*
D03*
X525500Y680000D02*
D03*
X544500D02*
D03*
X677000Y725000D02*
D03*
X658000D02*
D03*
X658000Y702500D02*
D03*
X677000D02*
D03*
X677000Y680000D02*
D03*
X658000D02*
D03*
X1019500Y477500D02*
D03*
X1000500D02*
D03*
X1019500Y455000D02*
D03*
X1000500D02*
D03*
X1019500Y432500D02*
D03*
X1000500D02*
D03*
D34*
X797500Y650000D02*
D03*
X767500D02*
D03*
X797500Y610000D02*
D03*
X767500D02*
D03*
X797500Y570000D02*
D03*
X767500D02*
D03*
X797500Y530000D02*
D03*
X767500D02*
D03*
X800000Y445000D02*
D03*
X770000D02*
D03*
X800000Y405000D02*
D03*
X770000D02*
D03*
X800000Y365000D02*
D03*
X770000D02*
D03*
X800000Y325000D02*
D03*
X770000D02*
D03*
X1145000Y340000D02*
D03*
X1115000D02*
D03*
X1145000Y380000D02*
D03*
X1115000D02*
D03*
X1145000Y420000D02*
D03*
X1115000D02*
D03*
X1145000Y510000D02*
D03*
X1115000D02*
D03*
X1145000Y550000D02*
D03*
X1115000D02*
D03*
X1145000Y590000D02*
D03*
X1115000D02*
D03*
X1145000Y680000D02*
D03*
X1115000D02*
D03*
X1145000Y720000D02*
D03*
X1115000D02*
D03*
X1145000Y760000D02*
D03*
X1115000D02*
D03*
D35*
X1036000Y727900D02*
D03*
Y682100D02*
D03*
Y587900D02*
D03*
Y542100D02*
D03*
X913500Y427900D02*
D03*
Y382100D02*
D03*
D36*
X972500Y705000D02*
D03*
Y565000D02*
D03*
X850000Y405000D02*
D03*
D37*
X1173500Y350950D02*
D03*
D38*
Y363650D02*
D03*
Y376350D02*
D03*
Y389050D02*
D03*
X1226500Y350950D02*
D03*
Y363650D02*
D03*
Y376350D02*
D03*
Y389050D02*
D03*
D39*
X1168450Y516500D02*
D03*
Y669000D02*
D03*
D40*
X1181150Y516500D02*
D03*
X1193850D02*
D03*
X1206550D02*
D03*
X1168450Y463500D02*
D03*
X1181150D02*
D03*
X1193850D02*
D03*
X1206550D02*
D03*
X1181150Y669000D02*
D03*
X1193850D02*
D03*
X1206550D02*
D03*
X1168450Y616000D02*
D03*
X1181150D02*
D03*
X1193850D02*
D03*
X1206550D02*
D03*
M02*
