G04 Layer_Physical_Order=1*
G04 Layer_Color=255*
%FSLAX44Y44*%
%MOMM*%
G71*
G01*
G75*
%ADD10R,1.6000X0.8000*%
%ADD11R,4.0000X3.0000*%
%ADD12R,0.8000X1.6000*%
%ADD13R,11.0000X11.0000*%
%ADD14R,1.2000X5.0000*%
%ADD15R,1.2000X8.0000*%
%ADD16R,11.0000X11.0000*%
%ADD17R,5.0000X1.2000*%
%ADD18R,8.0000X1.2000*%
%ADD19R,1.0000X2.0000*%
%ADD20R,0.6000X1.6000*%
%ADD21C,0.5000*%
%ADD22C,0.2032*%
%ADD23C,2.3000*%
%ADD24C,1.7500*%
%ADD25C,2.0000*%
%ADD26C,3.0000*%
%ADD27C,1.5000*%
%ADD28R,2.0000X1.5000*%
%ADD29O,2.0000X1.5000*%
%ADD30R,1.5000X2.0000*%
%ADD31O,1.5000X2.0000*%
%ADD32C,0.6000*%
G36*
X1265851Y488000D02*
X1190590D01*
Y530927D01*
X1214831Y555169D01*
X1215393Y556009D01*
X1215590Y557000D01*
Y564000D01*
X1265851D01*
Y488000D01*
D02*
G37*
G36*
X1213000Y607000D02*
X1213000Y557000D01*
X1188000Y532000D01*
Y463970D01*
X1186730Y463845D01*
X1186629Y464351D01*
X1186369Y465662D01*
X1185144Y467494D01*
X1183312Y468718D01*
X1181150Y469148D01*
X1178988Y468718D01*
X1177156Y467494D01*
X1175931Y465662D01*
X1175501Y463500D01*
X1175931Y461338D01*
X1177156Y459506D01*
X1178988Y458281D01*
X1181150Y457851D01*
X1183312Y458281D01*
X1185144Y459506D01*
X1186369Y461338D01*
X1186629Y462649D01*
X1186730Y463155D01*
X1188000Y463030D01*
Y449590D01*
X1106000D01*
X1105009Y449393D01*
X1104421Y449000D01*
X1087000D01*
Y450689D01*
X1087393Y451276D01*
X1087590Y452267D01*
Y567410D01*
X1105000D01*
X1105991Y567607D01*
X1106831Y568169D01*
X1107393Y569009D01*
X1107590Y570000D01*
Y600000D01*
X1107393Y600991D01*
X1106831Y601831D01*
X1106000Y602387D01*
Y607000D01*
X1213000Y607000D01*
D02*
G37*
G36*
X1265851Y566590D02*
X1215590D01*
X1215590Y567860D01*
X1215590Y607000D01*
X1215393Y607991D01*
X1214831Y608831D01*
X1213991Y609393D01*
X1213000Y609590D01*
X1188000D01*
Y613867D01*
X1188254Y613892D01*
X1188618Y614003D01*
X1188991Y614077D01*
X1189098Y614148D01*
X1189221Y614186D01*
X1189515Y614427D01*
X1189831Y614638D01*
X1189903Y614745D01*
X1190002Y614827D01*
X1190181Y615162D01*
X1190393Y615479D01*
X1190418Y615605D01*
X1190478Y615718D01*
X1190516Y616096D01*
X1190590Y616470D01*
Y635410D01*
X1265851D01*
Y566590D01*
D02*
G37*
G36*
X1063000Y771579D02*
X1062607Y770991D01*
X1062410Y770000D01*
Y740000D01*
X1062607Y739009D01*
X1063000Y738421D01*
Y738000D01*
X1063421D01*
X1064009Y737607D01*
X1065000Y737410D01*
X1085000D01*
Y615139D01*
X1021628D01*
X1012000Y624767D01*
Y658000D01*
X1008951D01*
X1008500Y658090D01*
X1000500D01*
X1000049Y658000D01*
X989951D01*
X989500Y658090D01*
X982590D01*
Y662410D01*
X982393Y663401D01*
X981831Y664241D01*
X981000Y664797D01*
Y665000D01*
X980000D01*
X980000Y665000D01*
X898000D01*
X897139Y665836D01*
Y703000D01*
X897000Y703697D01*
Y743421D01*
X897393Y744009D01*
X897590Y745000D01*
Y765897D01*
X898219Y766838D01*
X898649Y769000D01*
X898219Y771162D01*
X897590Y772103D01*
Y783351D01*
X1063000D01*
Y771579D01*
D02*
G37*
G36*
X980000Y657552D02*
X979669Y657331D01*
X979107Y656491D01*
X978910Y655500D01*
Y639500D01*
X979107Y638509D01*
X979669Y637669D01*
X980000Y637448D01*
Y635052D01*
X979669Y634831D01*
X979107Y633991D01*
X978910Y633000D01*
Y617000D01*
X979107Y616009D01*
X979669Y615169D01*
X980000Y614948D01*
Y607590D01*
X897750D01*
X896759Y607393D01*
X895919Y606831D01*
X895357Y605991D01*
X895160Y605000D01*
Y576000D01*
X812590D01*
Y578921D01*
X812540Y579172D01*
Y579427D01*
X812442Y579662D01*
X812393Y579912D01*
X812251Y580125D01*
X812153Y580360D01*
X812047Y580519D01*
X812000Y580755D01*
Y588245D01*
X812047Y588481D01*
X812153Y588640D01*
X812251Y588875D01*
X812393Y589087D01*
X812442Y589338D01*
X812540Y589573D01*
Y589828D01*
X812590Y590079D01*
Y612410D01*
X883000D01*
X883991Y612607D01*
X884831Y613169D01*
X885393Y614009D01*
X885590Y615000D01*
Y636000D01*
X898000D01*
Y662410D01*
X980000D01*
Y657552D01*
D02*
G37*
G36*
X999509Y614607D02*
X1000500Y614410D01*
X1007822D01*
X1015866Y606366D01*
X1017533Y605252D01*
X1019500Y604861D01*
X1063000D01*
Y601579D01*
X1062607Y600991D01*
X1062410Y600000D01*
Y570000D01*
X1062607Y569009D01*
X1063169Y568169D01*
X1064009Y567607D01*
X1065000Y567410D01*
X1085000D01*
Y452267D01*
X1077871Y445139D01*
X1018139D01*
Y490000D01*
X1017748Y491967D01*
X1016634Y493634D01*
X1014967Y494748D01*
X1013000Y495139D01*
X897590D01*
Y524000D01*
X897393Y524991D01*
X897000Y525579D01*
Y574182D01*
X897553Y575009D01*
X897750Y576000D01*
Y604745D01*
X897792Y604958D01*
X898005Y605000D01*
X980000D01*
X980991Y605197D01*
X981831Y605759D01*
X982393Y606599D01*
X982590Y607590D01*
Y614410D01*
X989500D01*
X990491Y614607D01*
X991079Y615000D01*
X998921D01*
X999509Y614607D01*
D02*
G37*
G36*
X1213000Y370000D02*
X1158000D01*
Y251649D01*
X942590D01*
Y311000D01*
X960000D01*
Y312697D01*
X960331Y312919D01*
X960893Y313759D01*
X961090Y314750D01*
Y372410D01*
X978000D01*
Y365201D01*
X977910Y364750D01*
Y314750D01*
X978000Y314299D01*
Y311000D01*
X992410D01*
X992607Y310009D01*
X993169Y309169D01*
X994009Y308607D01*
X995000Y308410D01*
X1012927Y308410D01*
X1027410Y293927D01*
Y280000D01*
X1027607Y279009D01*
X1028169Y278169D01*
X1029009Y277607D01*
X1030000Y277410D01*
X1075000D01*
X1075991Y277607D01*
X1076831Y278169D01*
X1077393Y279009D01*
X1077590Y280000D01*
Y397410D01*
X1105000D01*
X1105991Y397607D01*
X1106831Y398169D01*
X1107393Y399009D01*
X1107590Y400000D01*
Y430000D01*
X1107393Y430991D01*
X1106831Y431831D01*
X1106000Y432387D01*
Y447000D01*
X1213000D01*
Y370000D01*
D02*
G37*
G36*
X1265851Y254500D02*
X1265851Y253933D01*
X1265416Y252885D01*
X1264615Y252083D01*
X1263567Y251649D01*
X1160590D01*
Y272230D01*
X1161860Y272938D01*
X1162000Y272910D01*
X1178000D01*
X1178451Y273000D01*
X1181000D01*
Y284410D01*
X1265851D01*
Y254500D01*
D02*
G37*
G36*
X1007861Y440000D02*
X1008252Y438033D01*
X1009366Y436366D01*
X1011033Y435252D01*
X1013000Y434861D01*
X1035514D01*
X1035900Y433591D01*
X1035006Y432994D01*
X1033781Y431162D01*
X1033352Y429000D01*
X1033781Y426838D01*
X1035006Y425006D01*
X1036838Y423781D01*
X1039000Y423352D01*
X1041162Y423781D01*
X1042000Y424342D01*
X1042838Y423781D01*
X1045000Y423352D01*
X1047162Y423781D01*
X1048994Y425006D01*
X1050219Y426838D01*
X1050648Y429000D01*
X1050219Y431162D01*
X1048994Y432994D01*
X1048100Y433591D01*
X1048486Y434861D01*
X1064000D01*
Y432387D01*
X1063169Y431831D01*
X1062607Y430991D01*
X1062410Y430000D01*
Y400000D01*
X1062607Y399009D01*
X1063169Y398169D01*
X1064009Y397607D01*
X1065000Y397410D01*
X1075000D01*
Y280000D01*
X1030000D01*
X1030000Y295000D01*
X1014000Y311000D01*
X995000Y311000D01*
Y314299D01*
X995090Y314750D01*
Y364750D01*
X995000Y365201D01*
Y375000D01*
X928070D01*
X927991Y375053D01*
X927000Y375250D01*
X897755D01*
X897190Y375362D01*
X897000Y375441D01*
Y484733D01*
X897129Y484861D01*
X1007861D01*
Y440000D01*
D02*
G37*
G36*
X1265851Y370590D02*
X1231784D01*
X1231411Y370516D01*
X1231032Y370478D01*
X1230919Y370418D01*
X1230793Y370393D01*
X1230476Y370181D01*
X1230141Y370002D01*
X1230059Y369903D01*
X1229952Y369831D01*
X1229741Y369515D01*
X1229500Y369221D01*
X1229412Y369057D01*
X1228662Y368869D01*
X1226500Y369299D01*
X1224338Y368869D01*
X1223588Y369057D01*
X1223500Y369221D01*
X1223259Y369515D01*
X1223047Y369831D01*
X1222941Y369903D01*
X1222859Y370002D01*
X1222524Y370181D01*
X1222207Y370393D01*
X1222081Y370418D01*
X1221968Y370478D01*
X1221589Y370516D01*
X1221216Y370590D01*
X1215590D01*
Y447000D01*
X1215393Y447991D01*
X1214831Y448831D01*
X1213991Y449393D01*
X1213000Y449590D01*
X1190590D01*
Y463030D01*
X1190516Y463403D01*
X1190506Y463500D01*
X1190516Y463596D01*
X1190590Y463970D01*
Y485410D01*
X1265851D01*
Y370590D01*
D02*
G37*
G36*
Y287000D02*
X1160590D01*
Y367410D01*
X1213000D01*
X1213991Y367607D01*
X1214579Y368000D01*
X1221216D01*
X1221895Y366730D01*
X1221282Y365812D01*
X1220852Y363650D01*
X1221282Y361488D01*
X1222506Y359656D01*
X1224338Y358431D01*
X1226500Y358002D01*
X1228662Y358431D01*
X1230494Y359656D01*
X1231719Y361488D01*
X1232149Y363650D01*
X1231719Y365812D01*
X1231105Y366730D01*
X1231784Y368000D01*
X1265851D01*
Y287000D01*
D02*
G37*
G36*
X1263567Y783351D02*
X1264615Y782916D01*
X1265417Y782115D01*
X1265851Y781067D01*
X1265851Y780500D01*
Y780500D01*
Y780500D01*
Y638000D01*
X1190590D01*
Y693927D01*
X1214831Y718169D01*
X1215393Y719009D01*
X1215590Y720000D01*
X1215590Y783351D01*
X1263000D01*
X1263567Y783351D01*
D02*
G37*
G36*
X832366Y733366D02*
X834000Y732275D01*
X834000Y694000D01*
X886861Y694000D01*
Y658090D01*
X885500D01*
X885049Y658000D01*
X883000D01*
Y655951D01*
X882910Y655500D01*
Y639500D01*
X883000Y639049D01*
Y615000D01*
X810000D01*
Y590079D01*
X809607Y589491D01*
X809410Y588500D01*
Y580500D01*
X809607Y579509D01*
X810000Y578921D01*
Y571079D01*
X809607Y570491D01*
X809410Y569500D01*
Y561500D01*
X809607Y560509D01*
X810000Y559921D01*
Y555079D01*
X809607Y554491D01*
X809410Y553500D01*
Y545500D01*
X809607Y544509D01*
X810169Y543669D01*
X811009Y543107D01*
X812000Y542910D01*
X819323D01*
X832866Y529366D01*
X834533Y528252D01*
X834660Y528227D01*
Y527000D01*
X834857Y526009D01*
X835419Y525169D01*
X836259Y524607D01*
X837250Y524410D01*
X839090D01*
X839500Y524000D01*
X895000Y524000D01*
Y495139D01*
X893034Y494748D01*
X891366Y493634D01*
X888733Y491000D01*
X857500D01*
X857500Y485000D01*
X857500Y442500D01*
X892500Y442500D01*
X892500Y332000D01*
X877000Y332000D01*
Y305000D01*
X750000Y305000D01*
X750000Y431000D01*
X711000D01*
X711000Y452000D01*
X688000Y452000D01*
X667000Y431000D01*
X582338Y431000D01*
X580858Y434000D01*
X581270Y434537D01*
X582282Y436979D01*
X582627Y439600D01*
X582282Y442221D01*
X581270Y444663D01*
X579661Y446761D01*
X577563Y448370D01*
X575121Y449382D01*
X572500Y449727D01*
X567500D01*
X564879Y449382D01*
X562437Y448370D01*
X560339Y446761D01*
X558730Y444663D01*
X557718Y442221D01*
X557373Y439600D01*
X557718Y436979D01*
X558730Y434537D01*
X559142Y434000D01*
X557662Y431000D01*
X513000D01*
Y450000D01*
X490000Y450000D01*
X471000Y431000D01*
X385000D01*
Y438638D01*
X385127Y439600D01*
X385000Y440563D01*
Y457048D01*
X385090Y457500D01*
Y472500D01*
X385000Y472952D01*
X385000Y501238D01*
X385127Y502200D01*
X385000Y503162D01*
Y526638D01*
X385127Y527600D01*
X385000Y528562D01*
Y550861D01*
X389537D01*
X389607Y550509D01*
X390169Y549669D01*
X391009Y549107D01*
X392000Y548910D01*
X408000D01*
X408991Y549107D01*
X409831Y549669D01*
X410393Y550509D01*
X410590Y551500D01*
Y578500D01*
X410393Y579491D01*
X409831Y580331D01*
X408991Y580893D01*
X408000Y581090D01*
X392000D01*
X391009Y580893D01*
X390169Y580331D01*
X389751Y579706D01*
X385000D01*
Y602838D01*
X385127Y603800D01*
X385000Y604762D01*
Y628238D01*
X385127Y629200D01*
X385000Y630162D01*
X385000Y653638D01*
X385127Y654600D01*
X385000Y655562D01*
Y672049D01*
X385090Y672500D01*
Y687500D01*
X385000Y687951D01*
Y707500D01*
X410000D01*
Y730000D01*
X457500D01*
X457500Y746000D01*
X606198D01*
X606400Y745973D01*
X606602Y746000D01*
X631598D01*
X631800Y745973D01*
X632002Y746000D01*
X656998D01*
X657200Y745973D01*
X657402Y746000D01*
X682398D01*
X682600Y745973D01*
X682802Y746000D01*
X707798D01*
X708000Y745973D01*
X708202Y746000D01*
X733198D01*
X733400Y745973D01*
X733602Y746000D01*
X758598D01*
X758800Y745973D01*
X759002Y746000D01*
X783970D01*
X786562Y745214D01*
X790000Y744875D01*
X793438Y745214D01*
X796030Y746000D01*
X819733D01*
X832366Y733366D01*
D02*
G37*
G36*
X255000Y783351D02*
X255000Y783351D01*
X255000Y783351D01*
X895000Y783351D01*
Y745000D01*
X888829D01*
X888241Y745393D01*
X887250Y745590D01*
X837250D01*
X836259Y745393D01*
X835671Y745000D01*
X835267D01*
X832000Y748267D01*
Y760000D01*
X809000D01*
Y748590D01*
X796030D01*
X795657Y748515D01*
X795278Y748478D01*
X792931Y747766D01*
X790000Y747477D01*
X787069Y747766D01*
X784722Y748478D01*
X784343Y748515D01*
X783970Y748590D01*
X767293D01*
X766667Y749860D01*
X767570Y751037D01*
X768582Y753479D01*
X768927Y756100D01*
Y761100D01*
X768582Y763721D01*
X767570Y766163D01*
X765961Y768261D01*
X763863Y769870D01*
X761421Y770882D01*
X758800Y771227D01*
X756179Y770882D01*
X753737Y769870D01*
X751639Y768261D01*
X750030Y766163D01*
X749018Y763721D01*
X748673Y761100D01*
Y756100D01*
X749018Y753479D01*
X750030Y751037D01*
X750933Y749860D01*
X750307Y748590D01*
X741893D01*
X741267Y749860D01*
X742170Y751037D01*
X743182Y753479D01*
X743527Y756100D01*
Y761100D01*
X743182Y763721D01*
X742170Y766163D01*
X740561Y768261D01*
X738463Y769870D01*
X736021Y770882D01*
X733400Y771227D01*
X730779Y770882D01*
X728337Y769870D01*
X726239Y768261D01*
X724630Y766163D01*
X723618Y763721D01*
X723273Y761100D01*
Y756100D01*
X723618Y753479D01*
X724630Y751037D01*
X725533Y749860D01*
X724907Y748590D01*
X716493D01*
X715867Y749860D01*
X716770Y751037D01*
X717782Y753479D01*
X718127Y756100D01*
Y761100D01*
X717782Y763721D01*
X716770Y766163D01*
X715161Y768261D01*
X713063Y769870D01*
X710621Y770882D01*
X708000Y771227D01*
X705379Y770882D01*
X702937Y769870D01*
X700839Y768261D01*
X699230Y766163D01*
X698218Y763721D01*
X697873Y761100D01*
Y756100D01*
X698218Y753479D01*
X699230Y751037D01*
X700133Y749860D01*
X699507Y748590D01*
X691093D01*
X690467Y749860D01*
X691370Y751037D01*
X692382Y753479D01*
X692727Y756100D01*
Y761100D01*
X692382Y763721D01*
X691370Y766163D01*
X689761Y768261D01*
X687663Y769870D01*
X685221Y770882D01*
X682600Y771227D01*
X679979Y770882D01*
X677537Y769870D01*
X675439Y768261D01*
X673830Y766163D01*
X672818Y763721D01*
X672473Y761100D01*
Y756100D01*
X672818Y753479D01*
X673830Y751037D01*
X674733Y749860D01*
X674107Y748590D01*
X665693D01*
X665067Y749860D01*
X665970Y751037D01*
X666982Y753479D01*
X667327Y756100D01*
Y761100D01*
X666982Y763721D01*
X665970Y766163D01*
X664361Y768261D01*
X662263Y769870D01*
X659821Y770882D01*
X657200Y771227D01*
X654579Y770882D01*
X652137Y769870D01*
X650039Y768261D01*
X648430Y766163D01*
X647418Y763721D01*
X647073Y761100D01*
Y756100D01*
X647418Y753479D01*
X648430Y751037D01*
X649333Y749860D01*
X648707Y748590D01*
X640293D01*
X639667Y749860D01*
X640570Y751037D01*
X641582Y753479D01*
X641927Y756100D01*
Y761100D01*
X641582Y763721D01*
X640570Y766163D01*
X638961Y768261D01*
X636863Y769870D01*
X634421Y770882D01*
X631800Y771227D01*
X629179Y770882D01*
X626737Y769870D01*
X624639Y768261D01*
X623030Y766163D01*
X622018Y763721D01*
X621673Y761100D01*
Y756100D01*
X622018Y753479D01*
X623030Y751037D01*
X623933Y749860D01*
X623307Y748590D01*
X614893D01*
X614267Y749860D01*
X615170Y751037D01*
X616182Y753479D01*
X616527Y756100D01*
Y761100D01*
X616182Y763721D01*
X615170Y766163D01*
X613561Y768261D01*
X611463Y769870D01*
X609021Y770882D01*
X606400Y771227D01*
X603779Y770882D01*
X601337Y769870D01*
X599239Y768261D01*
X597630Y766163D01*
X596618Y763721D01*
X596273Y761100D01*
Y756100D01*
X596618Y753479D01*
X597630Y751037D01*
X598533Y749860D01*
X597907Y748590D01*
X591098D01*
X591090Y748600D01*
Y768600D01*
X590893Y769591D01*
X590331Y770431D01*
X589491Y770993D01*
X588500Y771190D01*
X573500D01*
X572509Y770993D01*
X571669Y770431D01*
X571107Y769591D01*
X570910Y768600D01*
Y748600D01*
X570902Y748590D01*
X457500D01*
X456509Y748393D01*
X455669Y747831D01*
X455107Y746991D01*
X454910Y746000D01*
X454910Y732590D01*
X439128D01*
X438991Y733857D01*
X439831Y734419D01*
X440393Y735259D01*
X440590Y736250D01*
Y743954D01*
X440648Y744250D01*
X440590Y744546D01*
Y752250D01*
X440545Y752474D01*
X441057Y752943D01*
X441671Y753325D01*
X442500Y753160D01*
X452500D01*
X453491Y753357D01*
X454331Y753919D01*
X454893Y754759D01*
X455090Y755750D01*
Y775750D01*
X454893Y776741D01*
X454331Y777581D01*
X453491Y778143D01*
X452500Y778340D01*
X442500D01*
X441509Y778143D01*
X440669Y777581D01*
X440107Y776741D01*
X439910Y775750D01*
Y755750D01*
X439955Y755526D01*
X439443Y755057D01*
X438829Y754675D01*
X438000Y754840D01*
X432000D01*
X431009Y754643D01*
X430169Y754081D01*
X429831D01*
X428991Y754643D01*
X428000Y754840D01*
X422000D01*
X421009Y754643D01*
X420169Y754081D01*
X419831D01*
X418991Y754643D01*
X418000Y754840D01*
X412000D01*
X411009Y754643D01*
X410169Y754081D01*
X409831D01*
X408991Y754643D01*
X408000Y754840D01*
X402000D01*
X401009Y754643D01*
X400169Y754081D01*
X399831D01*
X398991Y754643D01*
X398000Y754840D01*
X392000D01*
X391009Y754643D01*
X390169Y754081D01*
X389607Y753241D01*
X389410Y752250D01*
Y744546D01*
X389352Y744250D01*
X389410Y743954D01*
Y736250D01*
X389607Y735259D01*
X390169Y734419D01*
X391009Y733857D01*
X392000Y733660D01*
X398000D01*
X398991Y733857D01*
X399831Y734419D01*
X400169D01*
X401009Y733857D01*
X402000Y733660D01*
X408000D01*
X408991Y733857D01*
X409831Y734419D01*
X409979D01*
X410568Y733860D01*
X410061Y732590D01*
X410000D01*
X409009Y732393D01*
X408169Y731831D01*
X407607Y730991D01*
X407410Y730000D01*
X406079D01*
X405491Y730393D01*
X404500Y730590D01*
X396500D01*
X395509Y730393D01*
X394669Y729831D01*
X394107Y728991D01*
X393910Y728000D01*
Y725139D01*
X391090D01*
Y728000D01*
X390893Y728991D01*
X390331Y729831D01*
X389491Y730393D01*
X388500Y730590D01*
X380500D01*
X379509Y730393D01*
X378669Y729831D01*
X378107Y728991D01*
X377910Y728000D01*
Y712000D01*
X378107Y711009D01*
X378669Y710169D01*
X379509Y709607D01*
X380500Y709410D01*
X381694D01*
X381968Y709134D01*
X382538Y708140D01*
X382410Y707500D01*
Y700000D01*
Y690090D01*
X362500D01*
X361509Y689893D01*
X360745Y689382D01*
X350881Y699247D01*
X349753Y700000D01*
X349705Y700033D01*
X348317Y700309D01*
X348317Y700309D01*
X290683D01*
X290683Y700309D01*
X289296Y700033D01*
X289247Y700000D01*
X288119Y699247D01*
X288119Y699247D01*
X278436Y689564D01*
X277650Y688388D01*
X277374Y687000D01*
X277374Y687000D01*
Y652200D01*
X277374Y652200D01*
X277650Y650813D01*
X278436Y649636D01*
X290799Y637274D01*
X290330Y636663D01*
X289318Y634221D01*
X288973Y631600D01*
X289318Y628979D01*
X290330Y626537D01*
X291939Y624439D01*
X294037Y622830D01*
X296479Y621818D01*
X299100Y621473D01*
X304100D01*
X306721Y621818D01*
X309163Y622830D01*
X311261Y624439D01*
X312870Y626537D01*
X313613Y628330D01*
X314987D01*
X315730Y626537D01*
X317339Y624439D01*
X319437Y622830D01*
X321879Y621818D01*
X324500Y621473D01*
X329500D01*
X332121Y621818D01*
X334563Y622830D01*
X336661Y624439D01*
X338270Y626537D01*
X339282Y628979D01*
X339627Y631600D01*
X339282Y634221D01*
X338270Y636663D01*
X336661Y638761D01*
X334563Y640370D01*
X332121Y641382D01*
X329500Y641727D01*
X324500D01*
X321879Y641382D01*
X319437Y640370D01*
X317339Y638761D01*
X315730Y636663D01*
X314987Y634870D01*
X313613D01*
X312870Y636663D01*
X311261Y638761D01*
X309163Y640370D01*
X306721Y641382D01*
X304100Y641727D01*
X299100D01*
X296892Y641436D01*
X284626Y653702D01*
Y667188D01*
X285799Y667673D01*
X290799Y662674D01*
X290330Y662063D01*
X289318Y659621D01*
X288973Y657000D01*
X289318Y654379D01*
X290330Y651937D01*
X291939Y649839D01*
X294037Y648230D01*
X296479Y647218D01*
X299100Y646873D01*
X304100D01*
X306721Y647218D01*
X309163Y648230D01*
X311261Y649839D01*
X312870Y651937D01*
X313613Y653730D01*
X314987D01*
X315730Y651937D01*
X317339Y649839D01*
X319437Y648230D01*
X321879Y647218D01*
X324500Y646873D01*
X329500D01*
X331708Y647164D01*
X345374Y633498D01*
Y601900D01*
X345374Y601900D01*
X345650Y600513D01*
X346436Y599336D01*
X361699Y584074D01*
X361230Y583463D01*
X360218Y581021D01*
X359873Y578400D01*
X360218Y575779D01*
X361230Y573337D01*
X362839Y571239D01*
X364937Y569630D01*
X367379Y568618D01*
X370000Y568273D01*
X372500D01*
Y563127D01*
X370000D01*
X367379Y562782D01*
X364937Y561770D01*
X362839Y560161D01*
X361230Y558063D01*
X360218Y555621D01*
X359873Y553000D01*
X360218Y550379D01*
X361230Y547937D01*
X362839Y545839D01*
X364937Y544230D01*
X367379Y543218D01*
X370000Y542873D01*
X375000D01*
X377621Y543218D01*
X380063Y544230D01*
X381140Y545056D01*
X382410Y544430D01*
Y536170D01*
X381140Y535544D01*
X380063Y536370D01*
X377621Y537382D01*
X375000Y537727D01*
X370000D01*
X367792Y537436D01*
X353626Y551602D01*
Y583200D01*
X353350Y584588D01*
X352564Y585764D01*
X352564Y585764D01*
X337801Y600526D01*
X338270Y601137D01*
X339282Y603579D01*
X339627Y606200D01*
X339282Y608821D01*
X338270Y611263D01*
X336661Y613361D01*
X334563Y614970D01*
X332121Y615982D01*
X329500Y616327D01*
X324500D01*
X321879Y615982D01*
X319437Y614970D01*
X317339Y613361D01*
X315730Y611263D01*
X314987Y609470D01*
X313613D01*
X312870Y611263D01*
X311261Y613361D01*
X309163Y614970D01*
X306721Y615982D01*
X304100Y616327D01*
X299100D01*
X296479Y615982D01*
X294037Y614970D01*
X291939Y613361D01*
X290330Y611263D01*
X289318Y608821D01*
X288973Y606200D01*
X289318Y603579D01*
X290330Y601137D01*
X291939Y599039D01*
X294037Y597430D01*
X296479Y596418D01*
X299100Y596073D01*
X304100D01*
X306721Y596418D01*
X309163Y597430D01*
X311261Y599039D01*
X312870Y601137D01*
X313613Y602930D01*
X314987D01*
X315730Y601137D01*
X317339Y599039D01*
X319437Y597430D01*
X321879Y596418D01*
X324500Y596073D01*
X329500D01*
X331708Y596364D01*
X346374Y581698D01*
Y550100D01*
X346374Y550100D01*
X346650Y548713D01*
X347436Y547536D01*
X361699Y533274D01*
X361230Y532663D01*
X360218Y530221D01*
X359873Y527600D01*
X360218Y524979D01*
X361230Y522537D01*
X362839Y520439D01*
X364937Y518830D01*
X367379Y517818D01*
X370000Y517473D01*
X375000D01*
X377621Y517818D01*
X380063Y518830D01*
X381140Y519656D01*
X382410Y519030D01*
Y510770D01*
X381140Y510144D01*
X380063Y510970D01*
X377621Y511982D01*
X375000Y512327D01*
X370000D01*
X367379Y511982D01*
X364937Y510970D01*
X362839Y509361D01*
X361230Y507263D01*
X360218Y504821D01*
X359873Y502200D01*
X360218Y499579D01*
X361230Y497137D01*
X362839Y495039D01*
X364937Y493430D01*
X367379Y492418D01*
X370000Y492073D01*
X375000D01*
X377621Y492418D01*
X380063Y493430D01*
X381140Y494256D01*
X382410Y493630D01*
X382410Y475090D01*
X362500D01*
X361509Y474893D01*
X360669Y474331D01*
X360107Y473491D01*
X359910Y472500D01*
Y468626D01*
X342702D01*
X337801Y473526D01*
X338270Y474137D01*
X339282Y476579D01*
X339627Y479200D01*
X339282Y481821D01*
X338270Y484263D01*
X336661Y486361D01*
X334563Y487970D01*
X332121Y488982D01*
X329500Y489327D01*
X324500D01*
X321879Y488982D01*
X319437Y487970D01*
X317339Y486361D01*
X315730Y484263D01*
X314987Y482470D01*
X313613D01*
X312870Y484263D01*
X311261Y486361D01*
X309163Y487970D01*
X306721Y488982D01*
X304100Y489327D01*
X299100D01*
X296479Y488982D01*
X294037Y487970D01*
X291939Y486361D01*
X290330Y484263D01*
X289318Y481821D01*
X288973Y479200D01*
X289318Y476579D01*
X290330Y474137D01*
X291939Y472039D01*
X294037Y470430D01*
X296479Y469418D01*
X299100Y469073D01*
X304100D01*
X306721Y469418D01*
X309163Y470430D01*
X311261Y472039D01*
X312870Y474137D01*
X313613Y475930D01*
X314987D01*
X315730Y474137D01*
X317339Y472039D01*
X319437Y470430D01*
X321879Y469418D01*
X324500Y469073D01*
X329500D01*
X331708Y469364D01*
X338636Y462436D01*
X338636Y462436D01*
X339813Y461650D01*
X341200Y461374D01*
X341200Y461374D01*
X359910D01*
Y457500D01*
X360107Y456509D01*
X360669Y455669D01*
X361509Y455107D01*
X362500Y454910D01*
X382410D01*
Y448170D01*
X381140Y447544D01*
X380063Y448370D01*
X377621Y449382D01*
X375000Y449727D01*
X370000D01*
X367379Y449382D01*
X364937Y448370D01*
X362839Y446761D01*
X361230Y444663D01*
X360218Y442221D01*
X359873Y439600D01*
X360218Y436979D01*
X361230Y434537D01*
X362839Y432439D01*
X364937Y430830D01*
X367379Y429818D01*
X370000Y429473D01*
X375000D01*
X377621Y429818D01*
X380063Y430830D01*
X381140Y431656D01*
X382410Y431030D01*
Y431000D01*
X382607Y430009D01*
X383169Y429169D01*
X384009Y428607D01*
X385000Y428410D01*
X471000D01*
X471991Y428607D01*
X472831Y429169D01*
X491073Y447410D01*
X510410Y447410D01*
Y431000D01*
X510607Y430009D01*
X510860Y429631D01*
X510266Y428361D01*
X499500D01*
X495835Y427879D01*
X492419Y426464D01*
X489487Y424213D01*
X487236Y421281D01*
X485821Y417865D01*
X485339Y414200D01*
X485821Y410535D01*
X487236Y407119D01*
X489487Y404187D01*
X491994Y402262D01*
X492089Y401996D01*
Y401004D01*
X491994Y400738D01*
X489487Y398814D01*
X487236Y395881D01*
X485821Y392465D01*
X485339Y388800D01*
X485821Y385135D01*
X487236Y381719D01*
X489487Y378787D01*
X491994Y376862D01*
X492089Y376596D01*
Y375604D01*
X491994Y375338D01*
X489487Y373414D01*
X487236Y370481D01*
X485821Y367065D01*
X485339Y363400D01*
X485821Y359735D01*
X487236Y356319D01*
X489487Y353387D01*
X491994Y351462D01*
X492089Y351197D01*
Y350204D01*
X491994Y349938D01*
X489487Y348013D01*
X487236Y345081D01*
X485821Y341665D01*
X485339Y338000D01*
X485821Y334335D01*
X487236Y330919D01*
X489487Y327987D01*
X492419Y325736D01*
X495835Y324321D01*
X498302Y323997D01*
X498218Y322727D01*
X497000D01*
X494379Y322382D01*
X491937Y321370D01*
X489839Y319761D01*
X488230Y317663D01*
X487218Y315221D01*
X486873Y312600D01*
X487218Y309979D01*
X488230Y307537D01*
X489839Y305439D01*
X491937Y303830D01*
X494379Y302818D01*
X497000Y302473D01*
X502000D01*
X504621Y302818D01*
X507063Y303830D01*
X509161Y305439D01*
X510770Y307537D01*
X511782Y309979D01*
X512127Y312600D01*
X511782Y315221D01*
X510770Y317663D01*
X509161Y319761D01*
X507063Y321370D01*
X504621Y322382D01*
X503199Y322569D01*
X503282Y323839D01*
X534900D01*
X538565Y324321D01*
X541981Y325736D01*
X544913Y327987D01*
X547164Y330919D01*
X548579Y334335D01*
X549061Y338000D01*
X548579Y341665D01*
X547164Y345081D01*
X544913Y348013D01*
X542406Y349938D01*
X542312Y350204D01*
Y351197D01*
X542406Y351462D01*
X544913Y353387D01*
X547164Y356319D01*
X548579Y359735D01*
X549061Y363400D01*
X548579Y367065D01*
X547164Y370481D01*
X544913Y373414D01*
X542406Y375338D01*
X542312Y375604D01*
Y376596D01*
X542406Y376862D01*
X544913Y378787D01*
X547164Y381719D01*
X548579Y385135D01*
X549061Y388800D01*
X548579Y392465D01*
X547164Y395881D01*
X544913Y398814D01*
X542406Y400738D01*
X542312Y401004D01*
Y401996D01*
X542406Y402262D01*
X544684Y404010D01*
X545000D01*
X545991Y404207D01*
X546831Y404769D01*
X547393Y405609D01*
X547590Y406600D01*
Y408148D01*
X548579Y410535D01*
X549061Y414200D01*
X548579Y417865D01*
X547590Y420253D01*
Y421600D01*
X547393Y422591D01*
X546831Y423431D01*
X545991Y423993D01*
X545000Y424190D01*
X544932D01*
X544913Y424213D01*
X541981Y426464D01*
X540348Y427140D01*
X540601Y428410D01*
X557662D01*
X558076Y428493D01*
X558495Y428548D01*
X558569Y428591D01*
X558653Y428607D01*
X559005Y428842D01*
X559370Y429053D01*
X559422Y429121D01*
X559494Y429169D01*
X559728Y429520D01*
X559985Y429855D01*
X560564Y431029D01*
X561801Y431318D01*
X562437Y430830D01*
X564879Y429818D01*
X567500Y429473D01*
X572500D01*
X575121Y429818D01*
X577563Y430830D01*
X578199Y431318D01*
X579436Y431029D01*
X580015Y429855D01*
X580272Y429520D01*
X580506Y429169D01*
X580578Y429121D01*
X580630Y429053D01*
X580995Y428842D01*
X581347Y428607D01*
X581431Y428591D01*
X581505Y428548D01*
X581924Y428493D01*
X582338Y428410D01*
X667000Y428410D01*
X667991Y428607D01*
X668831Y429169D01*
X668831Y429169D01*
X689072Y449410D01*
X708410Y449410D01*
X708410Y431000D01*
X708607Y430009D01*
X708860Y429631D01*
X708266Y428361D01*
X697000D01*
X693335Y427879D01*
X689919Y426464D01*
X686987Y424213D01*
X684736Y421281D01*
X683321Y417865D01*
X682839Y414200D01*
X683321Y410535D01*
X684736Y407119D01*
X686987Y404187D01*
X689494Y402262D01*
X689588Y401996D01*
Y401004D01*
X689494Y400738D01*
X686987Y398814D01*
X684736Y395881D01*
X683321Y392465D01*
X682839Y388800D01*
X683321Y385135D01*
X684736Y381719D01*
X686987Y378787D01*
X689494Y376862D01*
X689588Y376596D01*
Y375604D01*
X689494Y375338D01*
X686987Y373414D01*
X684736Y370481D01*
X683321Y367065D01*
X682839Y363400D01*
X683321Y359735D01*
X684736Y356319D01*
X686987Y353387D01*
X689494Y351462D01*
X689588Y351197D01*
Y350204D01*
X689494Y349938D01*
X686987Y348013D01*
X684736Y345081D01*
X683321Y341665D01*
X682839Y338000D01*
X683321Y334335D01*
X684736Y330919D01*
X686987Y327987D01*
X689919Y325736D01*
X693335Y324321D01*
X695801Y323997D01*
X695718Y322727D01*
X694500D01*
X691879Y322382D01*
X689437Y321370D01*
X687339Y319761D01*
X685730Y317663D01*
X684718Y315221D01*
X684373Y312600D01*
X684718Y309979D01*
X685730Y307537D01*
X686270Y306833D01*
X687339Y305439D01*
X689437Y303830D01*
X691879Y302818D01*
X694500Y302473D01*
X699500D01*
X702121Y302818D01*
X704563Y303830D01*
X706661Y305439D01*
X708270Y307537D01*
X709282Y309979D01*
X709627Y312600D01*
X709282Y315221D01*
X708270Y317663D01*
X706661Y319761D01*
X704563Y321370D01*
X702121Y322382D01*
X700698Y322569D01*
D01*
X700782Y323839D01*
X732900D01*
X734124Y324000D01*
X746140D01*
X747410Y322900D01*
Y305000D01*
X747607Y304009D01*
X748000Y303421D01*
Y303000D01*
X748421D01*
X749009Y302607D01*
X750000Y302410D01*
X877000Y302410D01*
X877991Y302607D01*
X878579Y303000D01*
X895000D01*
Y331549D01*
X895090Y332000D01*
Y372693D01*
X896360Y372957D01*
X896509Y372857D01*
X897500Y372660D01*
X927000D01*
Y365201D01*
X926910Y364750D01*
Y314750D01*
X927000Y314299D01*
Y311000D01*
X940000D01*
Y251649D01*
X255000D01*
X254333Y251649D01*
X253102Y252160D01*
X252160Y253102D01*
X251649Y254333D01*
Y255000D01*
Y320000D01*
X276000D01*
Y334000D01*
X251649D01*
Y375000D01*
X276000D01*
Y389000D01*
X251649D01*
X251649Y552500D01*
X276000D01*
Y566500D01*
X251649D01*
Y607500D01*
X276000D01*
Y621500D01*
X251649D01*
Y700309D01*
Y780000D01*
X251649Y780000D01*
X251649Y780000D01*
X251649Y780667D01*
X252160Y781898D01*
X253102Y782840D01*
X254333Y783351D01*
X255000Y783351D01*
D02*
G37*
G36*
X1213000Y720000D02*
X1188000Y695000D01*
Y616470D01*
X1186730Y616344D01*
X1186369Y618162D01*
X1185144Y619994D01*
X1183312Y621218D01*
X1181150Y621648D01*
X1178988Y621218D01*
X1177156Y619994D01*
X1175931Y618162D01*
X1175501Y616000D01*
X1175931Y613838D01*
X1177156Y612006D01*
X1177872Y611527D01*
X1178179Y609801D01*
X1178027Y609590D01*
X1106000Y609590D01*
X1105009Y609393D01*
X1104169Y608831D01*
X1103613Y608000D01*
X1087000D01*
Y613560D01*
X1087393Y614148D01*
X1087590Y615139D01*
Y737410D01*
X1105000D01*
X1105991Y737607D01*
X1106831Y738169D01*
X1107393Y739009D01*
X1107590Y740000D01*
Y770000D01*
X1107393Y770991D01*
X1106831Y771831D01*
X1106000Y772387D01*
Y783351D01*
X1213000D01*
X1213000Y720000D01*
D02*
G37*
%LPC*%
G36*
X1237500Y737627D02*
X1234879Y737282D01*
X1232437Y736270D01*
X1230339Y734661D01*
X1228730Y732563D01*
X1227718Y730121D01*
X1227373Y727500D01*
X1227718Y724879D01*
X1228730Y722437D01*
X1230339Y720339D01*
X1232437Y718730D01*
X1234879Y717718D01*
X1237500Y717373D01*
X1240121Y717718D01*
X1242563Y718730D01*
X1244661Y720339D01*
X1246270Y722437D01*
X1247282Y724879D01*
X1247627Y727500D01*
X1247282Y730121D01*
X1246270Y732563D01*
X1244661Y734661D01*
X1242563Y736270D01*
X1240121Y737282D01*
X1237500Y737627D01*
D02*
G37*
G36*
X658000Y730648D02*
X655838Y730219D01*
X654006Y728994D01*
X652781Y727162D01*
X652352Y725000D01*
X652781Y722838D01*
X654006Y721006D01*
X655838Y719781D01*
X658000Y719352D01*
X660162Y719781D01*
X661994Y721006D01*
X663219Y722838D01*
X663649Y725000D01*
X663219Y727162D01*
X661994Y728994D01*
X660162Y730219D01*
X658000Y730648D01*
D02*
G37*
G36*
X699500Y664727D02*
X694500D01*
X691879Y664382D01*
X689437Y663370D01*
X687339Y661761D01*
X685730Y659663D01*
X684718Y657221D01*
X684373Y654600D01*
X684718Y651979D01*
X685730Y649537D01*
X687339Y647439D01*
X689437Y645830D01*
X691029Y645171D01*
X691298Y642349D01*
X691216Y642001D01*
X689919Y641464D01*
X686987Y639213D01*
X684736Y636281D01*
X683321Y632865D01*
X682839Y629200D01*
X683321Y625535D01*
X684736Y622119D01*
X686987Y619187D01*
X688024Y618391D01*
Y614609D01*
X686987Y613814D01*
X684736Y610881D01*
X683321Y607465D01*
X682839Y603800D01*
X683321Y600135D01*
X684736Y596719D01*
X686987Y593787D01*
X688024Y592991D01*
Y589209D01*
X686987Y588414D01*
X684736Y585481D01*
X683321Y582065D01*
X682839Y578400D01*
X683321Y574735D01*
X684736Y571319D01*
X686987Y568387D01*
X688024Y567591D01*
Y563809D01*
X686987Y563013D01*
X684736Y560081D01*
X683321Y556665D01*
X682839Y553000D01*
X683321Y549335D01*
X684736Y545919D01*
X686987Y542987D01*
X689919Y540736D01*
X691216Y540199D01*
X691298Y539851D01*
X691029Y537029D01*
X689437Y536370D01*
X687339Y534761D01*
X685730Y532663D01*
X684718Y530221D01*
X684373Y527600D01*
X684718Y524979D01*
X685730Y522537D01*
X687339Y520439D01*
X689437Y518830D01*
X691879Y517818D01*
X694500Y517473D01*
X699500D01*
X702121Y517818D01*
X704563Y518830D01*
X706661Y520439D01*
X708270Y522537D01*
X709282Y524979D01*
X709627Y527600D01*
X709282Y530221D01*
X708270Y532663D01*
X706661Y534761D01*
X705256Y535839D01*
X706058Y538839D01*
X732900D01*
X736565Y539321D01*
X739981Y540736D01*
X742913Y542987D01*
X745164Y545919D01*
X746579Y549335D01*
X747061Y553000D01*
X746579Y556665D01*
X745164Y560081D01*
X742913Y563013D01*
X741876Y563809D01*
Y567591D01*
X742913Y568387D01*
X745164Y571319D01*
X746579Y574735D01*
X747061Y578400D01*
X746579Y582065D01*
X745164Y585481D01*
X742913Y588414D01*
X741876Y589209D01*
Y592991D01*
X742913Y593787D01*
X745164Y596719D01*
X746579Y600135D01*
X747061Y603800D01*
X746579Y607465D01*
X745164Y610881D01*
X742913Y613814D01*
X741876Y614609D01*
Y616345D01*
X743000Y619010D01*
X743991Y619207D01*
X744831Y619769D01*
X745393Y620609D01*
X745590Y621600D01*
Y623148D01*
X746579Y625535D01*
X747061Y629200D01*
X746579Y632865D01*
X745590Y635253D01*
Y636600D01*
X745393Y637591D01*
X744831Y638431D01*
X743991Y638993D01*
X743000Y639190D01*
X742932D01*
X742913Y639213D01*
X739981Y641464D01*
X736565Y642879D01*
X732900Y643361D01*
X706058D01*
X705256Y646361D01*
X706661Y647439D01*
X708270Y649537D01*
X709282Y651979D01*
X709627Y654600D01*
X709282Y657221D01*
X708270Y659663D01*
X706661Y661761D01*
X704563Y663370D01*
X702121Y664382D01*
X699500Y664727D01*
D02*
G37*
G36*
X572500Y537727D02*
X567500D01*
X564879Y537382D01*
X562437Y536370D01*
X560339Y534761D01*
X558730Y532663D01*
X557718Y530221D01*
X557373Y527600D01*
X557718Y524979D01*
X558730Y522537D01*
X560339Y520439D01*
X562437Y518830D01*
X564879Y517818D01*
X567500Y517473D01*
X572500D01*
X575121Y517818D01*
X577563Y518830D01*
X579661Y520439D01*
X581270Y522537D01*
X582282Y524979D01*
X582627Y527600D01*
X582282Y530221D01*
X581270Y532663D01*
X579661Y534761D01*
X577563Y536370D01*
X575121Y537382D01*
X572500Y537727D01*
D02*
G37*
G36*
X502000Y664727D02*
X497000D01*
X494379Y664382D01*
X491937Y663370D01*
X489839Y661761D01*
X488230Y659663D01*
X487218Y657221D01*
X486873Y654600D01*
X487218Y651979D01*
X488230Y649537D01*
X489839Y647439D01*
X491937Y645830D01*
X493699Y645100D01*
X494036Y642907D01*
X493858Y641919D01*
X492519Y641364D01*
X489587Y639114D01*
X487336Y636181D01*
X485921Y632765D01*
X485439Y629100D01*
X485921Y625435D01*
X487336Y622019D01*
X489587Y619087D01*
X490508Y618379D01*
Y614598D01*
X489487Y613814D01*
X487236Y610881D01*
X485821Y607465D01*
X485339Y603800D01*
X485821Y600135D01*
X487236Y596719D01*
X489487Y593787D01*
X490524Y592991D01*
Y589209D01*
X489487Y588414D01*
X487236Y585481D01*
X485821Y582065D01*
X485339Y578400D01*
X485821Y574735D01*
X487236Y571319D01*
X489487Y568387D01*
X490524Y567591D01*
Y563809D01*
X489487Y563013D01*
X487236Y560081D01*
X485821Y556665D01*
X485339Y553000D01*
X485821Y549335D01*
X487236Y545919D01*
X489487Y542987D01*
X492419Y540736D01*
X493716Y540199D01*
X493798Y539851D01*
X493529Y537029D01*
X491937Y536370D01*
X489839Y534761D01*
X488230Y532663D01*
X487218Y530221D01*
X486873Y527600D01*
X487218Y524979D01*
X488230Y522537D01*
X489839Y520439D01*
X491937Y518830D01*
X494379Y517818D01*
X497000Y517473D01*
X502000D01*
X504621Y517818D01*
X507063Y518830D01*
X509161Y520439D01*
X510770Y522537D01*
X511782Y524979D01*
X512127Y527600D01*
X511782Y530221D01*
X510770Y532663D01*
X509161Y534761D01*
X507756Y535839D01*
X508558Y538839D01*
X534900D01*
X538565Y539321D01*
X541981Y540736D01*
X544913Y542987D01*
X547164Y545919D01*
X548579Y549335D01*
X549061Y553000D01*
X548579Y556665D01*
X547164Y560081D01*
X544913Y563013D01*
X543876Y563809D01*
Y567591D01*
X544913Y568387D01*
X547164Y571319D01*
X548579Y574735D01*
X549061Y578400D01*
X548579Y582065D01*
X547164Y585481D01*
X544913Y588414D01*
X543876Y589209D01*
Y592991D01*
X544913Y593787D01*
X547164Y596719D01*
X548579Y600135D01*
X549061Y603800D01*
X548579Y607465D01*
X547164Y610881D01*
X544913Y613814D01*
X543992Y614521D01*
Y616392D01*
X545000Y619010D01*
X545991Y619207D01*
X546831Y619769D01*
X547393Y620609D01*
X547590Y621600D01*
Y622806D01*
X548679Y625435D01*
X549161Y629100D01*
X548679Y632765D01*
X547590Y635394D01*
Y636600D01*
X547393Y637591D01*
X546831Y638431D01*
X545991Y638993D01*
X545000Y639190D01*
X544914D01*
X542081Y641364D01*
X538665Y642779D01*
X535000Y643261D01*
X508414D01*
X508059Y643937D01*
X507625Y646261D01*
X509161Y647439D01*
X510770Y649537D01*
X511782Y651979D01*
X512127Y654600D01*
X511782Y657221D01*
X510770Y659663D01*
X509161Y661761D01*
X507063Y663370D01*
X504621Y664382D01*
X502000Y664727D01*
D02*
G37*
G36*
X572500Y613927D02*
X567500D01*
X564879Y613582D01*
X562437Y612570D01*
X560339Y610961D01*
X558730Y608863D01*
X557718Y606421D01*
X557373Y603800D01*
X557718Y601179D01*
X558730Y598737D01*
X560339Y596639D01*
X562437Y595030D01*
X564879Y594018D01*
X567500Y593673D01*
X572500D01*
X575121Y594018D01*
X577563Y595030D01*
X579661Y596639D01*
X581270Y598737D01*
X582282Y601179D01*
X582627Y603800D01*
X582282Y606421D01*
X581270Y608863D01*
X579661Y610961D01*
X577563Y612570D01*
X575121Y613582D01*
X572500Y613927D01*
D02*
G37*
G36*
X606000Y616090D02*
X590000D01*
X589009Y615893D01*
X588169Y615331D01*
X587607Y614491D01*
X587410Y613500D01*
Y605500D01*
X587492Y605090D01*
X587605Y595480D01*
X587410Y594500D01*
Y586500D01*
X587607Y585509D01*
X587725Y585333D01*
X587757Y582618D01*
X585411Y580231D01*
X582310Y580802D01*
X582282Y581021D01*
X581270Y583463D01*
X579661Y585561D01*
X577563Y587170D01*
X575121Y588182D01*
X572500Y588527D01*
X567500D01*
X564879Y588182D01*
X562437Y587170D01*
X560339Y585561D01*
X558730Y583463D01*
X557718Y581021D01*
X557373Y578400D01*
X557718Y575779D01*
X558730Y573337D01*
X560339Y571239D01*
X562437Y569630D01*
X564879Y568618D01*
X567500Y568273D01*
X572500D01*
X572936Y568331D01*
X575672Y566236D01*
X575773Y565106D01*
X573682Y562971D01*
X572500Y563127D01*
X567500D01*
X564879Y562782D01*
X562437Y561770D01*
X560339Y560161D01*
X558730Y558063D01*
X557718Y555621D01*
X557373Y553000D01*
X557718Y550379D01*
X558730Y547937D01*
X560339Y545839D01*
X562437Y544230D01*
X564879Y543218D01*
X567500Y542873D01*
X572500D01*
X575121Y543218D01*
X577563Y544230D01*
X579661Y545839D01*
X581270Y547937D01*
X582274Y550361D01*
X587706D01*
X588169Y549669D01*
X589009Y549107D01*
X590000Y548910D01*
X606000D01*
X606991Y549107D01*
X607831Y549669D01*
X608393Y550509D01*
X608590Y551500D01*
Y559500D01*
X608393Y560491D01*
X608090Y560944D01*
Y569056D01*
X608393Y569509D01*
X608590Y570500D01*
Y578500D01*
X608393Y579491D01*
X608090Y579944D01*
Y585056D01*
X608393Y585509D01*
X608590Y586500D01*
Y594500D01*
X608393Y595491D01*
X608090Y595944D01*
Y604056D01*
X608393Y604509D01*
X608590Y605500D01*
Y613500D01*
X608393Y614491D01*
X607831Y615331D01*
X606991Y615893D01*
X606000Y616090D01*
D02*
G37*
G36*
X572500Y639327D02*
X567500D01*
X564879Y638982D01*
X562437Y637970D01*
X560339Y636361D01*
X558730Y634263D01*
X557718Y631821D01*
X557373Y629200D01*
X557718Y626579D01*
X558730Y624137D01*
X560339Y622039D01*
X562437Y620430D01*
X564879Y619418D01*
X567500Y619073D01*
X572500D01*
X575121Y619418D01*
X577563Y620430D01*
X579661Y622039D01*
X581270Y624137D01*
X582282Y626579D01*
X582627Y629200D01*
X582282Y631821D01*
X581270Y634263D01*
X579661Y636361D01*
X577563Y637970D01*
X575121Y638982D01*
X572500Y639327D01*
D02*
G37*
G36*
X580000Y690090D02*
X560000D01*
X559009Y689893D01*
X558169Y689331D01*
X557607Y688491D01*
X557410Y687500D01*
Y672500D01*
X557607Y671509D01*
X558169Y670669D01*
X559009Y670107D01*
X560000Y669910D01*
X580000D01*
X580991Y670107D01*
X581831Y670669D01*
X582393Y671509D01*
X582590Y672500D01*
Y687500D01*
X582393Y688491D01*
X581831Y689331D01*
X580991Y689893D01*
X580000Y690090D01*
D02*
G37*
G36*
Y475090D02*
X560000D01*
X559009Y474893D01*
X558169Y474331D01*
X557607Y473491D01*
X557410Y472500D01*
Y457500D01*
X557607Y456509D01*
X558169Y455669D01*
X559009Y455107D01*
X560000Y454910D01*
X580000D01*
X580991Y455107D01*
X581831Y455669D01*
X582393Y456509D01*
X582590Y457500D01*
Y472500D01*
X582393Y473491D01*
X581831Y474331D01*
X580991Y474893D01*
X580000Y475090D01*
D02*
G37*
G36*
X747500Y702627D02*
X744879Y702282D01*
X742437Y701270D01*
X740339Y699661D01*
X738730Y697563D01*
X737718Y695121D01*
X737373Y692500D01*
X737718Y689879D01*
X738730Y687437D01*
X740339Y685339D01*
X742437Y683730D01*
X744879Y682718D01*
X747500Y682373D01*
X750121Y682718D01*
X752563Y683730D01*
X754661Y685339D01*
X756270Y687437D01*
X757282Y689879D01*
X757627Y692500D01*
X757282Y695121D01*
X756270Y697563D01*
X754661Y699661D01*
X752563Y701270D01*
X750121Y702282D01*
X747500Y702627D01*
D02*
G37*
G36*
X572500Y512327D02*
X567500D01*
X564879Y511982D01*
X562437Y510970D01*
X560339Y509361D01*
X558730Y507263D01*
X557718Y504821D01*
X557373Y502200D01*
X557718Y499579D01*
X558730Y497137D01*
X560339Y495039D01*
X562437Y493430D01*
X564879Y492418D01*
X567500Y492073D01*
X572500D01*
X575121Y492418D01*
X577563Y493430D01*
X579661Y495039D01*
X581270Y497137D01*
X582282Y499579D01*
X582627Y502200D01*
X582282Y504821D01*
X581270Y507263D01*
X579661Y509361D01*
X577563Y510970D01*
X575121Y511982D01*
X572500Y512327D01*
D02*
G37*
G36*
X699500D02*
X694500D01*
X691879Y511982D01*
X689437Y510970D01*
X687339Y509361D01*
X685730Y507263D01*
X684718Y504821D01*
X684373Y502200D01*
X684718Y499579D01*
X685730Y497137D01*
X687339Y495039D01*
X689437Y493430D01*
X691879Y492418D01*
X694500Y492073D01*
X699500D01*
X702121Y492418D01*
X704563Y493430D01*
X706661Y495039D01*
X708270Y497137D01*
X709282Y499579D01*
X709627Y502200D01*
X709282Y504821D01*
X708270Y507263D01*
X706661Y509361D01*
X704563Y510970D01*
X702121Y511982D01*
X699500Y512327D01*
D02*
G37*
G36*
X502000D02*
X497000D01*
X494379Y511982D01*
X491937Y510970D01*
X489839Y509361D01*
X488230Y507263D01*
X487218Y504821D01*
X486873Y502200D01*
X487218Y499579D01*
X488230Y497137D01*
X489839Y495039D01*
X491937Y493430D01*
X494379Y492418D01*
X497000Y492073D01*
X502000D01*
X504621Y492418D01*
X507063Y493430D01*
X509161Y495039D01*
X510770Y497137D01*
X511782Y499579D01*
X512127Y502200D01*
X511782Y504821D01*
X510770Y507263D01*
X509161Y509361D01*
X507063Y510970D01*
X504621Y511982D01*
X502000Y512327D01*
D02*
G37*
G36*
X747500Y492627D02*
X744879Y492282D01*
X742437Y491270D01*
X740339Y489661D01*
X738730Y487563D01*
X737718Y485121D01*
X737373Y482500D01*
X737718Y479879D01*
X738730Y477437D01*
X740339Y475339D01*
X742437Y473730D01*
X744879Y472718D01*
X747500Y472373D01*
X750121Y472718D01*
X752563Y473730D01*
X754661Y475339D01*
X756270Y477437D01*
X757282Y479879D01*
X757627Y482500D01*
X757282Y485121D01*
X756270Y487563D01*
X754661Y489661D01*
X752563Y491270D01*
X750121Y492282D01*
X747500Y492627D01*
D02*
G37*
G36*
X572500Y664727D02*
X567500D01*
X564879Y664382D01*
X562437Y663370D01*
X560339Y661761D01*
X558730Y659663D01*
X557718Y657221D01*
X557373Y654600D01*
X557718Y651979D01*
X558730Y649537D01*
X560339Y647439D01*
X562437Y645830D01*
X564879Y644818D01*
X567500Y644473D01*
X572500D01*
X575121Y644818D01*
X577563Y645830D01*
X579661Y647439D01*
X581270Y649537D01*
X582282Y651979D01*
X582627Y654600D01*
X582282Y657221D01*
X581270Y659663D01*
X579661Y661761D01*
X577563Y663370D01*
X575121Y664382D01*
X572500Y664727D01*
D02*
G37*
G36*
Y373527D02*
X567500D01*
X564879Y373182D01*
X562437Y372170D01*
X560339Y370561D01*
X558730Y368463D01*
X557718Y366021D01*
X557373Y363400D01*
X557718Y360779D01*
X558730Y358337D01*
X560339Y356239D01*
X562437Y354630D01*
X564879Y353618D01*
X567500Y353273D01*
X570000D01*
Y348127D01*
X567500D01*
X564879Y347782D01*
X562437Y346770D01*
X560339Y345161D01*
X558730Y343063D01*
X557718Y340621D01*
X557373Y338000D01*
X557718Y335379D01*
X558730Y332937D01*
X560339Y330839D01*
X562437Y329230D01*
X564879Y328218D01*
X567500Y327873D01*
X572500D01*
X575121Y328218D01*
X577563Y329230D01*
X579661Y330839D01*
X581270Y332937D01*
X582274Y335361D01*
X587206D01*
X587669Y334669D01*
X588509Y334107D01*
X589500Y333910D01*
X605500D01*
X606491Y334107D01*
X607331Y334669D01*
X607893Y335509D01*
X608090Y336500D01*
Y344500D01*
X608090Y344500D01*
Y355500D01*
X608090Y355500D01*
Y363500D01*
X607893Y364491D01*
X607331Y365331D01*
X606491Y365893D01*
X605500Y366090D01*
X589500D01*
X588509Y365893D01*
X587669Y365331D01*
X587139Y364539D01*
X582477D01*
X582282Y366021D01*
X581270Y368463D01*
X579661Y370561D01*
X577563Y372170D01*
X575121Y373182D01*
X572500Y373527D01*
D02*
G37*
G36*
Y322727D02*
X567500D01*
X564879Y322382D01*
X562437Y321370D01*
X560339Y319761D01*
X558730Y317663D01*
X557718Y315221D01*
X557373Y312600D01*
X557718Y309979D01*
X558730Y307537D01*
X560339Y305439D01*
X562437Y303830D01*
X564879Y302818D01*
X567500Y302473D01*
X572500D01*
X575121Y302818D01*
X577563Y303830D01*
X579661Y305439D01*
X581270Y307537D01*
X582282Y309979D01*
X582627Y312600D01*
X582282Y315221D01*
X581270Y317663D01*
X579661Y319761D01*
X577563Y321370D01*
X575121Y322382D01*
X572500Y322727D01*
D02*
G37*
G36*
X329500Y413127D02*
X324500D01*
X321879Y412782D01*
X319437Y411770D01*
X317339Y410161D01*
X315730Y408063D01*
X314987Y406270D01*
X313613D01*
X312870Y408063D01*
X311261Y410161D01*
X309163Y411770D01*
X306721Y412782D01*
X304100Y413127D01*
X299100D01*
X296479Y412782D01*
X294037Y411770D01*
X291939Y410161D01*
X290330Y408063D01*
X289318Y405621D01*
X288973Y403000D01*
X289318Y400379D01*
X290330Y397937D01*
X291939Y395839D01*
X294037Y394230D01*
X296479Y393218D01*
X299100Y392873D01*
X304100D01*
X306721Y393218D01*
X309163Y394230D01*
X311261Y395839D01*
X312870Y397937D01*
X313613Y399730D01*
X314987D01*
X315730Y397937D01*
X317339Y395839D01*
X319437Y394230D01*
X321879Y393218D01*
X324500Y392873D01*
X329500D01*
X331708Y393164D01*
X355000Y369873D01*
Y301075D01*
X355000Y301074D01*
X355276Y299687D01*
X356062Y298511D01*
X361699Y292874D01*
X361230Y292263D01*
X360218Y289821D01*
X359873Y287200D01*
X360218Y284579D01*
X360836Y283087D01*
X359760Y282368D01*
X353626Y288502D01*
Y354600D01*
X353350Y355988D01*
X352564Y357164D01*
X352564Y357164D01*
X337801Y371926D01*
X338270Y372537D01*
X339282Y374979D01*
X339627Y377600D01*
X339282Y380221D01*
X338270Y382663D01*
X336661Y384761D01*
X334563Y386370D01*
X332121Y387382D01*
X329500Y387727D01*
X324500D01*
X321879Y387382D01*
X319437Y386370D01*
X317339Y384761D01*
X315730Y382663D01*
X314987Y380870D01*
X313613D01*
X312870Y382663D01*
X311261Y384761D01*
X309163Y386370D01*
X306721Y387382D01*
X304100Y387727D01*
X299100D01*
X296479Y387382D01*
X294037Y386370D01*
X291939Y384761D01*
X290330Y382663D01*
X289318Y380221D01*
X288973Y377600D01*
X289318Y374979D01*
X290330Y372537D01*
X291939Y370439D01*
X294037Y368830D01*
X296479Y367818D01*
X299100Y367473D01*
X304100D01*
X306721Y367818D01*
X309163Y368830D01*
X311261Y370439D01*
X312870Y372537D01*
X313613Y374330D01*
X314987D01*
X315730Y372537D01*
X317339Y370439D01*
X319437Y368830D01*
X321879Y367818D01*
X324500Y367473D01*
X329500D01*
X331708Y367764D01*
X346374Y353098D01*
Y287000D01*
X346374Y287000D01*
X346650Y285613D01*
X347436Y284436D01*
X363436Y268436D01*
X363436Y268436D01*
X364613Y267650D01*
X366000Y267374D01*
X553800D01*
X553800Y267374D01*
X555187Y267650D01*
X556364Y268436D01*
X565292Y277364D01*
X567500Y277073D01*
X572500D01*
X575121Y277418D01*
X577563Y278430D01*
X579661Y280039D01*
X581270Y282137D01*
X582282Y284579D01*
X582627Y287200D01*
X582282Y289821D01*
X581270Y292263D01*
X579661Y294361D01*
X577563Y295970D01*
X575121Y296982D01*
X572500Y297327D01*
X567500D01*
X564879Y296982D01*
X562437Y295970D01*
X560339Y294361D01*
X558730Y292263D01*
X557718Y289821D01*
X557373Y287200D01*
X557718Y284579D01*
X558730Y282137D01*
X559199Y281526D01*
X552298Y274626D01*
X367502D01*
X365168Y276960D01*
X365887Y278036D01*
X367379Y277418D01*
X370000Y277073D01*
X375000D01*
X377621Y277418D01*
X380063Y278430D01*
X382161Y280039D01*
X383770Y282137D01*
X384782Y284579D01*
X385127Y287200D01*
X384782Y289821D01*
X383770Y292263D01*
X382161Y294361D01*
X380063Y295970D01*
X377621Y296982D01*
X375000Y297327D01*
X370000D01*
X367792Y297036D01*
X362251Y302576D01*
Y304290D01*
X363521Y304916D01*
X364937Y303830D01*
X367379Y302818D01*
X370000Y302473D01*
X375000D01*
X377621Y302818D01*
X380063Y303830D01*
X382161Y305439D01*
X383770Y307537D01*
X384782Y309979D01*
X385127Y312600D01*
X384782Y315221D01*
X383770Y317663D01*
X382161Y319761D01*
X380063Y321370D01*
X377621Y322382D01*
X375000Y322727D01*
X370000D01*
X367379Y322382D01*
X364937Y321370D01*
X363521Y320284D01*
X362251Y320910D01*
Y329690D01*
X363521Y330316D01*
X364937Y329230D01*
X367379Y328218D01*
X370000Y327873D01*
X375000D01*
X377621Y328218D01*
X380063Y329230D01*
X382161Y330839D01*
X383770Y332937D01*
X384782Y335379D01*
X384845Y335861D01*
X389537D01*
X389607Y335509D01*
X390169Y334669D01*
X391009Y334107D01*
X392000Y333910D01*
X408000D01*
X408991Y334107D01*
X409831Y334669D01*
X410393Y335509D01*
X410590Y336500D01*
Y363500D01*
X410393Y364491D01*
X409831Y365331D01*
X408991Y365893D01*
X408000Y366090D01*
X392000D01*
X391009Y365893D01*
X390169Y365331D01*
X389639Y364539D01*
X384977D01*
X384782Y366021D01*
X383770Y368463D01*
X382161Y370561D01*
X380063Y372170D01*
X377621Y373182D01*
X375000Y373527D01*
X370000D01*
X367379Y373182D01*
X364937Y372170D01*
X363521Y371084D01*
X362947Y371215D01*
X362193Y371666D01*
X361975Y372762D01*
X361189Y373938D01*
X361189Y373938D01*
X337801Y397326D01*
X338270Y397937D01*
X339282Y400379D01*
X339627Y403000D01*
X339282Y405621D01*
X338270Y408063D01*
X336661Y410161D01*
X334563Y411770D01*
X332121Y412782D01*
X329500Y413127D01*
D02*
G37*
G36*
Y362327D02*
X324500D01*
X321879Y361982D01*
X319437Y360970D01*
X317339Y359361D01*
X315730Y357263D01*
X314987Y355470D01*
X313613D01*
X312870Y357263D01*
X311261Y359361D01*
X309163Y360970D01*
X306721Y361982D01*
X304100Y362327D01*
X299100D01*
X296479Y361982D01*
X294037Y360970D01*
X291939Y359361D01*
X290330Y357263D01*
X289318Y354821D01*
X288973Y352200D01*
X289318Y349579D01*
X290330Y347137D01*
X291939Y345039D01*
X294037Y343430D01*
X296479Y342418D01*
X299100Y342073D01*
X304100D01*
X306721Y342418D01*
X309163Y343430D01*
X311261Y345039D01*
X312870Y347137D01*
X313613Y348930D01*
X314987D01*
X315730Y347137D01*
X317339Y345039D01*
X319437Y343430D01*
X321879Y342418D01*
X324500Y342073D01*
X329500D01*
X332121Y342418D01*
X334563Y343430D01*
X336661Y345039D01*
X338270Y347137D01*
X339282Y349579D01*
X339627Y352200D01*
X339282Y354821D01*
X338270Y357263D01*
X336661Y359361D01*
X334563Y360970D01*
X332121Y361982D01*
X329500Y362327D01*
D02*
G37*
G36*
X375000Y424327D02*
X370000D01*
X367379Y423982D01*
X364937Y422970D01*
X362839Y421361D01*
X361230Y419263D01*
X360218Y416821D01*
X359873Y414200D01*
X360218Y411579D01*
X361230Y409137D01*
X362839Y407039D01*
X364937Y405430D01*
X367379Y404418D01*
X370000Y404073D01*
X375000D01*
X377621Y404418D01*
X380063Y405430D01*
X382161Y407039D01*
X383770Y409137D01*
X384782Y411579D01*
X385127Y414200D01*
X384782Y416821D01*
X383770Y419263D01*
X382161Y421361D01*
X380063Y422970D01*
X377621Y423982D01*
X375000Y424327D01*
D02*
G37*
G36*
X572500D02*
X567500D01*
X564879Y423982D01*
X562437Y422970D01*
X560339Y421361D01*
X558730Y419263D01*
X557718Y416821D01*
X557373Y414200D01*
X557718Y411579D01*
X558730Y409137D01*
X560339Y407039D01*
X562437Y405430D01*
X564879Y404418D01*
X567500Y404073D01*
X572500D01*
X575121Y404418D01*
X577563Y405430D01*
X579661Y407039D01*
X581270Y409137D01*
X582282Y411579D01*
X582627Y414200D01*
X582282Y416821D01*
X581270Y419263D01*
X579661Y421361D01*
X577563Y422970D01*
X575121Y423982D01*
X572500Y424327D01*
D02*
G37*
G36*
X875640Y288627D02*
X873019Y288282D01*
X870577Y287270D01*
X868479Y285661D01*
X866870Y283563D01*
X865858Y281121D01*
X865513Y278500D01*
Y273500D01*
X865858Y270879D01*
X866870Y268437D01*
X868479Y266339D01*
X870577Y264730D01*
X873019Y263718D01*
X875640Y263373D01*
X878261Y263718D01*
X880703Y264730D01*
X882801Y266339D01*
X884410Y268437D01*
X885422Y270879D01*
X885767Y273500D01*
Y278500D01*
X885422Y281121D01*
X884410Y283563D01*
X882801Y285661D01*
X880703Y287270D01*
X878261Y288282D01*
X875640Y288627D01*
D02*
G37*
G36*
X901040D02*
X898419Y288282D01*
X895977Y287270D01*
X893879Y285661D01*
X892270Y283563D01*
X891258Y281121D01*
X890913Y278500D01*
Y273500D01*
X891258Y270879D01*
X892270Y268437D01*
X893879Y266339D01*
X895977Y264730D01*
X898419Y263718D01*
X901040Y263373D01*
X903661Y263718D01*
X906103Y264730D01*
X908201Y266339D01*
X909810Y268437D01*
X910822Y270879D01*
X911167Y273500D01*
Y278500D01*
X910822Y281121D01*
X909810Y283563D01*
X908201Y285661D01*
X906103Y287270D01*
X903661Y288282D01*
X901040Y288627D01*
D02*
G37*
G36*
X784200D02*
X781579Y288282D01*
X779137Y287270D01*
X777039Y285661D01*
X775430Y283563D01*
X774418Y281121D01*
X774073Y278500D01*
Y273500D01*
X774418Y270879D01*
X775430Y268437D01*
X777039Y266339D01*
X779137Y264730D01*
X781579Y263718D01*
X784200Y263373D01*
X786821Y263718D01*
X789263Y264730D01*
X791361Y266339D01*
X792970Y268437D01*
X793982Y270879D01*
X794327Y273500D01*
Y278500D01*
X793982Y281121D01*
X792970Y283563D01*
X791361Y285661D01*
X789263Y287270D01*
X786821Y288282D01*
X784200Y288627D01*
D02*
G37*
G36*
X733400D02*
X730779Y288282D01*
X728337Y287270D01*
X726239Y285661D01*
X724630Y283563D01*
X723618Y281121D01*
X723273Y278500D01*
Y273500D01*
X723618Y270879D01*
X724630Y268437D01*
X726239Y266339D01*
X728337Y264730D01*
X730779Y263718D01*
X733400Y263373D01*
X736021Y263718D01*
X738463Y264730D01*
X740561Y266339D01*
X742170Y268437D01*
X743182Y270879D01*
X743527Y273500D01*
Y278500D01*
X743182Y281121D01*
X742170Y283563D01*
X740561Y285661D01*
X738463Y287270D01*
X736021Y288282D01*
X733400Y288627D01*
D02*
G37*
G36*
X758800D02*
X756179Y288282D01*
X753737Y287270D01*
X751639Y285661D01*
X750030Y283563D01*
X749018Y281121D01*
X748673Y278500D01*
Y273500D01*
X749018Y270879D01*
X750030Y268437D01*
X751639Y266339D01*
X753737Y264730D01*
X756179Y263718D01*
X758800Y263373D01*
X761421Y263718D01*
X763863Y264730D01*
X765961Y266339D01*
X767570Y268437D01*
X768582Y270879D01*
X768927Y273500D01*
Y278500D01*
X768582Y281121D01*
X767570Y283563D01*
X765961Y285661D01*
X763863Y287270D01*
X761421Y288282D01*
X758800Y288627D01*
D02*
G37*
G36*
X572500Y398927D02*
X567500D01*
X564879Y398582D01*
X562437Y397570D01*
X560339Y395961D01*
X558730Y393863D01*
X557718Y391421D01*
X557373Y388800D01*
X557718Y386179D01*
X558730Y383737D01*
X560339Y381639D01*
X562437Y380030D01*
X564879Y379018D01*
X567500Y378673D01*
X572500D01*
X575121Y379018D01*
X577563Y380030D01*
X579661Y381639D01*
X581270Y383737D01*
X581865Y385174D01*
X609698D01*
X627374Y367498D01*
Y280502D01*
X610498Y263626D01*
X362502D01*
X344626Y281502D01*
Y312800D01*
X344626Y312800D01*
X344350Y314188D01*
X343564Y315364D01*
X343564Y315364D01*
X337801Y321126D01*
X338270Y321737D01*
X339282Y324179D01*
X339627Y326800D01*
X339282Y329421D01*
X338270Y331863D01*
X336661Y333961D01*
X334563Y335570D01*
X332121Y336582D01*
X329500Y336927D01*
X324500D01*
X321879Y336582D01*
X319437Y335570D01*
X317339Y333961D01*
X315730Y331863D01*
X314987Y330070D01*
X313613D01*
X312870Y331863D01*
X311261Y333961D01*
X309163Y335570D01*
X306721Y336582D01*
X304100Y336927D01*
X299100D01*
X296479Y336582D01*
X294037Y335570D01*
X291939Y333961D01*
X290330Y331863D01*
X289318Y329421D01*
X288973Y326800D01*
X289318Y324179D01*
X290330Y321737D01*
X291939Y319639D01*
X294037Y318030D01*
X296479Y317018D01*
X299100Y316673D01*
X304100D01*
X306721Y317018D01*
X309163Y318030D01*
X311261Y319639D01*
X312870Y321737D01*
X313613Y323530D01*
X314987D01*
X315730Y321737D01*
X317339Y319639D01*
X319437Y318030D01*
X321879Y317018D01*
X324500Y316673D01*
X329500D01*
X331708Y316964D01*
X337374Y311298D01*
Y309614D01*
X336104Y308988D01*
X334563Y310170D01*
X332121Y311182D01*
X329500Y311527D01*
X324500D01*
X321879Y311182D01*
X319437Y310170D01*
X317339Y308561D01*
X315730Y306463D01*
X314987Y304670D01*
X313613D01*
X312870Y306463D01*
X311261Y308561D01*
X309163Y310170D01*
X306721Y311182D01*
X304100Y311527D01*
X299100D01*
X296479Y311182D01*
X294037Y310170D01*
X291939Y308561D01*
X290330Y306463D01*
X289318Y304021D01*
X288973Y301400D01*
X289318Y298779D01*
X290330Y296337D01*
X291939Y294239D01*
X294037Y292630D01*
X296479Y291618D01*
X299100Y291273D01*
X304100D01*
X306721Y291618D01*
X309163Y292630D01*
X311261Y294239D01*
X312870Y296337D01*
X313613Y298130D01*
X314987D01*
X315730Y296337D01*
X317339Y294239D01*
X319437Y292630D01*
X321879Y291618D01*
X324500Y291273D01*
X329500D01*
X332121Y291618D01*
X334563Y292630D01*
X336104Y293813D01*
X337374Y293186D01*
Y286397D01*
X337000Y286090D01*
X317000D01*
X316009Y285893D01*
X315169Y285331D01*
X314607Y284491D01*
X314410Y283500D01*
Y280663D01*
X313140Y280411D01*
X312870Y281063D01*
X311261Y283161D01*
X309163Y284770D01*
X306721Y285782D01*
X304100Y286127D01*
X299100D01*
X296479Y285782D01*
X294037Y284770D01*
X291939Y283161D01*
X290330Y281063D01*
X289318Y278621D01*
X288973Y276000D01*
X289318Y273379D01*
X290330Y270937D01*
X291939Y268839D01*
X294037Y267230D01*
X296479Y266218D01*
X299100Y265873D01*
X304100D01*
X306721Y266218D01*
X309163Y267230D01*
X311261Y268839D01*
X312870Y270937D01*
X313140Y271589D01*
X314410Y271337D01*
Y268500D01*
X314607Y267509D01*
X315169Y266669D01*
X316009Y266107D01*
X317000Y265910D01*
X337000D01*
X337991Y266107D01*
X338831Y266669D01*
X339393Y267509D01*
X339590Y268500D01*
Y274623D01*
X340763Y275109D01*
X358436Y257436D01*
X358436Y257436D01*
X359613Y256650D01*
X361000Y256374D01*
X361000Y256374D01*
X612000D01*
X612000Y256374D01*
X613387Y256650D01*
X614564Y257436D01*
X633564Y276436D01*
X634350Y277612D01*
X634626Y279000D01*
X634626Y279000D01*
Y369000D01*
X634626Y369000D01*
X634350Y370387D01*
X633564Y371564D01*
X633564Y371564D01*
X613764Y391364D01*
X612588Y392150D01*
X611200Y392426D01*
X611200Y392426D01*
X581865D01*
X581270Y393863D01*
X579661Y395961D01*
X577563Y397570D01*
X575121Y398582D01*
X572500Y398927D01*
D02*
G37*
G36*
X357500Y778340D02*
X347500D01*
X346509Y778143D01*
X345669Y777581D01*
X345107Y776741D01*
X344910Y775750D01*
Y755750D01*
X345107Y754759D01*
X345669Y753919D01*
X346509Y753357D01*
X347500Y753160D01*
X357500D01*
X358491Y753357D01*
X359331Y753919D01*
X359893Y754759D01*
X360090Y755750D01*
Y775750D01*
X359893Y776741D01*
X359331Y777581D01*
X358491Y778143D01*
X357500Y778340D01*
D02*
G37*
G36*
X857740Y288590D02*
X842740D01*
X841749Y288393D01*
X840909Y287831D01*
X840347Y286991D01*
X840150Y286000D01*
Y266000D01*
X840347Y265009D01*
X840909Y264169D01*
X841749Y263607D01*
X842740Y263410D01*
X857740D01*
X858731Y263607D01*
X859571Y264169D01*
X860133Y265009D01*
X860330Y266000D01*
Y286000D01*
X860133Y286991D01*
X859571Y287831D01*
X858731Y288393D01*
X857740Y288590D01*
D02*
G37*
G36*
X926440Y288627D02*
X923819Y288282D01*
X921377Y287270D01*
X919279Y285661D01*
X917670Y283563D01*
X916658Y281121D01*
X916313Y278500D01*
Y273500D01*
X916658Y270879D01*
X917670Y268437D01*
X919279Y266339D01*
X921377Y264730D01*
X923819Y263718D01*
X926440Y263373D01*
X929061Y263718D01*
X931503Y264730D01*
X933601Y266339D01*
X935210Y268437D01*
X936222Y270879D01*
X936567Y273500D01*
Y278500D01*
X936222Y281121D01*
X935210Y283563D01*
X933601Y285661D01*
X931503Y287270D01*
X929061Y288282D01*
X926440Y288627D01*
D02*
G37*
G36*
X817100Y288590D02*
X802100D01*
X801109Y288393D01*
X800269Y287831D01*
X799707Y286991D01*
X799510Y286000D01*
Y266000D01*
X799707Y265009D01*
X800269Y264169D01*
X801109Y263607D01*
X802100Y263410D01*
X817100D01*
X818091Y263607D01*
X818931Y264169D01*
X819493Y265009D01*
X819690Y266000D01*
Y286000D01*
X819493Y286991D01*
X818931Y287831D01*
X818091Y288393D01*
X817100Y288590D01*
D02*
G37*
G36*
X329500Y540127D02*
X324500D01*
X321879Y539782D01*
X319437Y538770D01*
X317339Y537161D01*
X315730Y535063D01*
X314987Y533270D01*
X313613D01*
X312870Y535063D01*
X311261Y537161D01*
X309163Y538770D01*
X306721Y539782D01*
X304100Y540127D01*
X299100D01*
X296479Y539782D01*
X294037Y538770D01*
X291939Y537161D01*
X290330Y535063D01*
X289318Y532621D01*
X288973Y530000D01*
X289318Y527379D01*
X290330Y524937D01*
X291939Y522839D01*
X294037Y521230D01*
X296479Y520218D01*
X299100Y519873D01*
X304100D01*
X306721Y520218D01*
X309163Y521230D01*
X311261Y522839D01*
X312870Y524937D01*
X313613Y526730D01*
X314987D01*
X315730Y524937D01*
X317339Y522839D01*
X319437Y521230D01*
X321879Y520218D01*
X324500Y519873D01*
X329500D01*
X332121Y520218D01*
X334563Y521230D01*
X336661Y522839D01*
X338270Y524937D01*
X339282Y527379D01*
X339627Y530000D01*
X339282Y532621D01*
X338270Y535063D01*
X336661Y537161D01*
X334563Y538770D01*
X332121Y539782D01*
X329500Y540127D01*
D02*
G37*
G36*
Y514727D02*
X324500D01*
X321879Y514382D01*
X319437Y513370D01*
X317339Y511761D01*
X315730Y509663D01*
X314987Y507870D01*
X313613D01*
X312870Y509663D01*
X311261Y511761D01*
X309163Y513370D01*
X306721Y514382D01*
X304100Y514727D01*
X299100D01*
X296479Y514382D01*
X294037Y513370D01*
X291939Y511761D01*
X290330Y509663D01*
X289318Y507221D01*
X288973Y504600D01*
X289318Y501979D01*
X290330Y499537D01*
X291939Y497439D01*
X294037Y495830D01*
X296479Y494818D01*
X299100Y494473D01*
X304100D01*
X306721Y494818D01*
X309163Y495830D01*
X311261Y497439D01*
X312870Y499537D01*
X313613Y501330D01*
X314987D01*
X315730Y499537D01*
X317339Y497439D01*
X319437Y495830D01*
X321879Y494818D01*
X324500Y494473D01*
X329500D01*
X332121Y494818D01*
X334563Y495830D01*
X336661Y497439D01*
X338270Y499537D01*
X339282Y501979D01*
X339627Y504600D01*
X339282Y507221D01*
X338270Y509663D01*
X336661Y511761D01*
X334563Y513370D01*
X332121Y514382D01*
X329500Y514727D01*
D02*
G37*
G36*
Y590927D02*
X324500D01*
X321879Y590582D01*
X319437Y589570D01*
X317339Y587961D01*
X315730Y585863D01*
X314987Y584070D01*
X313613D01*
X312870Y585863D01*
X311261Y587961D01*
X309163Y589570D01*
X306721Y590582D01*
X304100Y590927D01*
X299100D01*
X296479Y590582D01*
X294037Y589570D01*
X291939Y587961D01*
X290330Y585863D01*
X289318Y583421D01*
X288973Y580800D01*
X289318Y578179D01*
X290330Y575737D01*
X291939Y573639D01*
X294037Y572030D01*
X296479Y571018D01*
X299100Y570673D01*
X304100D01*
X306721Y571018D01*
X309163Y572030D01*
X311261Y573639D01*
X312870Y575737D01*
X313613Y577530D01*
X314987D01*
X315730Y575737D01*
X317339Y573639D01*
X319437Y572030D01*
X321879Y571018D01*
X324500Y570673D01*
X329500D01*
X332121Y571018D01*
X334563Y572030D01*
X336661Y573639D01*
X338270Y575737D01*
X339282Y578179D01*
X339627Y580800D01*
X339282Y583421D01*
X338270Y585863D01*
X336661Y587961D01*
X334563Y589570D01*
X332121Y590582D01*
X329500Y590927D01*
D02*
G37*
G36*
Y565527D02*
X324500D01*
X321879Y565182D01*
X319437Y564170D01*
X317339Y562561D01*
X315730Y560463D01*
X314987Y558670D01*
X313613D01*
X312870Y560463D01*
X311261Y562561D01*
X309163Y564170D01*
X306721Y565182D01*
X304100Y565527D01*
X299100D01*
X296479Y565182D01*
X294037Y564170D01*
X291939Y562561D01*
X290330Y560463D01*
X289318Y558021D01*
X288973Y555400D01*
X289318Y552779D01*
X290330Y550337D01*
X291939Y548239D01*
X294037Y546630D01*
X296479Y545618D01*
X299100Y545273D01*
X304100D01*
X306721Y545618D01*
X309163Y546630D01*
X311261Y548239D01*
X312870Y550337D01*
X313613Y552130D01*
X314987D01*
X315730Y550337D01*
X317339Y548239D01*
X319437Y546630D01*
X321879Y545618D01*
X324500Y545273D01*
X329500D01*
X332121Y545618D01*
X334563Y546630D01*
X336661Y548239D01*
X338270Y550337D01*
X339282Y552779D01*
X339627Y555400D01*
X339282Y558021D01*
X338270Y560463D01*
X336661Y562561D01*
X334563Y564170D01*
X332121Y565182D01*
X329500Y565527D01*
D02*
G37*
G36*
Y463927D02*
X324500D01*
X321879Y463582D01*
X319437Y462570D01*
X317339Y460961D01*
X315730Y458863D01*
X314987Y457070D01*
X313613D01*
X312870Y458863D01*
X311261Y460961D01*
X309163Y462570D01*
X306721Y463582D01*
X304100Y463927D01*
X299100D01*
X296479Y463582D01*
X294037Y462570D01*
X291939Y460961D01*
X290330Y458863D01*
X289318Y456421D01*
X288973Y453800D01*
X289318Y451179D01*
X290330Y448737D01*
X291939Y446639D01*
X294037Y445030D01*
X296479Y444018D01*
X299100Y443673D01*
X304100D01*
X306721Y444018D01*
X309163Y445030D01*
X311261Y446639D01*
X312870Y448737D01*
X313613Y450530D01*
X314987D01*
X315730Y448737D01*
X317339Y446639D01*
X319437Y445030D01*
X321879Y444018D01*
X324500Y443673D01*
X329500D01*
X331708Y443964D01*
X346374Y429298D01*
Y411300D01*
X346374Y411300D01*
X346650Y409912D01*
X347436Y408736D01*
X361699Y394474D01*
X361230Y393863D01*
X360218Y391421D01*
X359873Y388800D01*
X360218Y386179D01*
X361230Y383737D01*
X362839Y381639D01*
X364937Y380030D01*
X367379Y379018D01*
X370000Y378673D01*
X375000D01*
X377621Y379018D01*
X380063Y380030D01*
X382161Y381639D01*
X383770Y383737D01*
X384782Y386179D01*
X385127Y388800D01*
X384782Y391421D01*
X383770Y393863D01*
X382161Y395961D01*
X380063Y397570D01*
X377621Y398582D01*
X375000Y398927D01*
X370000D01*
X367792Y398636D01*
X353626Y412802D01*
Y430800D01*
X353350Y432188D01*
X352564Y433364D01*
X352564Y433364D01*
X337801Y448126D01*
X338270Y448737D01*
X339282Y451179D01*
X339627Y453800D01*
X339282Y456421D01*
X338270Y458863D01*
X336661Y460961D01*
X334563Y462570D01*
X332121Y463582D01*
X329500Y463927D01*
D02*
G37*
G36*
Y438527D02*
X324500D01*
X321879Y438182D01*
X319437Y437170D01*
X317339Y435561D01*
X315730Y433463D01*
X314987Y431670D01*
X313613D01*
X312870Y433463D01*
X311261Y435561D01*
X309163Y437170D01*
X306721Y438182D01*
X304100Y438527D01*
X299100D01*
X296479Y438182D01*
X294037Y437170D01*
X291939Y435561D01*
X290330Y433463D01*
X289318Y431021D01*
X288973Y428400D01*
X289318Y425779D01*
X290330Y423337D01*
X291939Y421239D01*
X294037Y419630D01*
X296479Y418618D01*
X299100Y418273D01*
X304100D01*
X306721Y418618D01*
X309163Y419630D01*
X311261Y421239D01*
X312870Y423337D01*
X313613Y425130D01*
X314987D01*
X315730Y423337D01*
X317339Y421239D01*
X319437Y419630D01*
X321879Y418618D01*
X324500Y418273D01*
X329500D01*
X332121Y418618D01*
X334563Y419630D01*
X336661Y421239D01*
X338270Y423337D01*
X339282Y425779D01*
X339627Y428400D01*
X339282Y431021D01*
X338270Y433463D01*
X336661Y435561D01*
X334563Y437170D01*
X332121Y438182D01*
X329500Y438527D01*
D02*
G37*
%LPD*%
D10*
X598000Y590500D02*
D03*
Y609500D02*
D03*
X1170000Y279500D02*
D03*
Y260500D02*
D03*
X265000Y614500D02*
D03*
Y595500D02*
D03*
Y559500D02*
D03*
Y540500D02*
D03*
Y327000D02*
D03*
Y308000D02*
D03*
Y382000D02*
D03*
Y363000D02*
D03*
X598000Y555500D02*
D03*
Y574500D02*
D03*
X820000Y549500D02*
D03*
Y530500D02*
D03*
Y584500D02*
D03*
Y565500D02*
D03*
Y772000D02*
D03*
Y753000D02*
D03*
X400000Y340500D02*
D03*
Y359500D02*
D03*
Y555500D02*
D03*
Y574500D02*
D03*
X597500Y340500D02*
D03*
Y359500D02*
D03*
D11*
X1120000Y295000D02*
D03*
X1050000D02*
D03*
X1085000Y415000D02*
D03*
Y585000D02*
D03*
X1050000Y465000D02*
D03*
X1120000D02*
D03*
Y635000D02*
D03*
X1050000D02*
D03*
X1085000Y755000D02*
D03*
D12*
X884500Y320000D02*
D03*
X865500D02*
D03*
X985500Y625000D02*
D03*
X1004500D02*
D03*
X985500Y647500D02*
D03*
X1004500D02*
D03*
X865500Y477500D02*
D03*
X884500D02*
D03*
X865500Y455000D02*
D03*
X884500D02*
D03*
X889500Y647500D02*
D03*
X870500D02*
D03*
X400500Y720000D02*
D03*
X419500D02*
D03*
X384500D02*
D03*
X365500D02*
D03*
D13*
X952500Y430250D02*
D03*
D14*
X986500Y339750D02*
D03*
X969500D02*
D03*
X935500D02*
D03*
X918500D02*
D03*
D15*
X952500Y354750D02*
D03*
D16*
X952750Y550000D02*
D03*
Y720000D02*
D03*
D17*
X862250Y516000D02*
D03*
Y533000D02*
D03*
Y567000D02*
D03*
Y584000D02*
D03*
Y686000D02*
D03*
Y703000D02*
D03*
Y737000D02*
D03*
Y754000D02*
D03*
D18*
X877250Y550000D02*
D03*
Y720000D02*
D03*
D19*
X447500Y765750D02*
D03*
X352500D02*
D03*
D20*
X435000Y744250D02*
D03*
X425000D02*
D03*
X415000D02*
D03*
X405000D02*
D03*
X395000D02*
D03*
X385000D02*
D03*
X375000D02*
D03*
X365000D02*
D03*
D21*
X797500Y388000D02*
Y482500D01*
Y610000D02*
Y692500D01*
Y530000D02*
Y610000D01*
X701000Y716000D02*
X705000Y720000D01*
X535500Y716000D02*
X701000D01*
X499500Y680000D02*
X535500Y716000D01*
X570000Y359400D02*
X593600D01*
X372500D02*
X396100D01*
X371500Y574568D02*
X395100D01*
X1105000Y465000D02*
X1120000D01*
X1080000Y440000D02*
X1105000Y465000D01*
X1013000Y440000D02*
X1080000D01*
X985500Y625000D02*
Y647500D01*
X1115000Y635000D02*
X1120000D01*
X1090000Y610000D02*
X1115000Y635000D01*
X1019500Y610000D02*
X1090000D01*
X1004500Y625000D02*
X1019500Y610000D01*
X1004500Y625000D02*
Y647500D01*
X1013000Y440000D02*
Y490000D01*
X895000D02*
X1013000D01*
X884500Y479500D02*
X895000Y490000D01*
X884500Y477500D02*
Y479500D01*
Y455000D02*
Y477500D01*
X865500Y455000D02*
Y477500D01*
X820000Y584500D02*
X861750D01*
X820000Y565500D02*
X821500Y567000D01*
X862250D01*
X820000Y549500D02*
X836500Y533000D01*
X862250D01*
X384500Y720000D02*
X400500D01*
X572500Y340500D02*
X597500D01*
X570000Y338000D02*
X572500Y340500D01*
X372500Y341000D02*
X397500D01*
X820000Y772000D02*
X844250D01*
X799500D02*
X820000D01*
X844250D02*
X862250Y754000D01*
X790000Y762500D02*
X799500Y772000D01*
X889500Y647500D02*
X892000Y650000D01*
Y703000D01*
X862250D02*
X892000D01*
X820000Y753000D02*
X836000Y737000D01*
X862250D01*
X572500Y555500D02*
X598000D01*
X570000Y553000D02*
X572500Y555500D01*
X573900Y574500D02*
X598000D01*
X570000Y578400D02*
X573900Y574500D01*
X372500Y556000D02*
X397500D01*
X598000Y574500D02*
Y590500D01*
X797500Y388000D02*
X865500Y320000D01*
X820000Y530500D02*
X834500Y516000D01*
X862250D01*
X828750Y482500D02*
X862250Y516000D01*
X797500Y482500D02*
X828750D01*
X697000Y465000D02*
X780000D01*
X797500Y482500D01*
X870500Y647500D02*
Y677750D01*
X862250Y686000D02*
X870500Y677750D01*
X804000Y686000D02*
X862250D01*
X797500Y692500D02*
X804000Y686000D01*
X770000Y720000D02*
X797500Y692500D01*
X705000Y720000D02*
X770000D01*
X697000Y680000D02*
X705000Y688000D01*
Y720000D01*
X419500Y720000D02*
X459500Y680000D01*
X499500D01*
X437500Y618000D02*
X499500Y680000D01*
X437500Y500000D02*
Y618000D01*
Y500000D02*
X472500Y465000D01*
X499500D01*
D22*
X315000Y669000D02*
X337000D01*
X301600Y682400D02*
X315000Y669000D01*
X345000Y650000D02*
Y661000D01*
X337000Y669000D02*
X345000Y661000D01*
X327000Y403000D02*
X358626Y371374D01*
Y301074D02*
Y371374D01*
Y301074D02*
X372500Y287200D01*
X327000Y326800D02*
X341000Y312800D01*
Y280000D02*
Y312800D01*
Y280000D02*
X361000Y260000D01*
X327000Y377600D02*
X350000Y354600D01*
Y287000D02*
Y354600D01*
Y287000D02*
X366000Y271000D01*
X361000Y260000D02*
X612000D01*
X348317Y696683D02*
X365000Y680000D01*
X290683Y696683D02*
X348317D01*
X281000Y687000D02*
X290683Y696683D01*
X365000Y680000D02*
X372500D01*
Y654600D02*
Y657500D01*
X337000Y693000D02*
X372500Y657500D01*
X293000Y693000D02*
X337000D01*
X281000Y652200D02*
Y687000D01*
X286000Y672600D02*
Y686000D01*
X293000Y693000D01*
X281000Y652200D02*
X301600Y631600D01*
X286000Y672600D02*
X301600Y657000D01*
X631000Y279000D02*
Y369000D01*
X611200Y388800D02*
X631000Y369000D01*
X570000Y388800D02*
X611200D01*
X612000Y260000D02*
X631000Y279000D01*
X553800Y271000D02*
X570000Y287200D01*
X366000Y271000D02*
X553800D01*
X350000Y411300D02*
X372500Y388800D01*
X350000Y411300D02*
Y430800D01*
X327000Y453800D02*
X350000Y430800D01*
X341200Y465000D02*
X372500D01*
X327000Y479200D02*
X341200Y465000D01*
X350000Y550100D02*
X372500Y527600D01*
X350000Y550100D02*
Y583200D01*
X327000Y606200D02*
X350000Y583200D01*
X345000Y650000D02*
X356000Y639000D01*
Y620300D02*
Y639000D01*
Y620300D02*
X372500Y603800D01*
Y629200D02*
Y633500D01*
X356000Y650000D02*
X372500Y633500D01*
X356000Y650000D02*
Y661000D01*
X334600Y682400D02*
X356000Y661000D01*
X327000Y682400D02*
X334600D01*
X349000Y601900D02*
X372500Y578400D01*
X349000Y601900D02*
Y635000D01*
X327000Y657000D02*
X349000Y635000D01*
D23*
X697000Y338000D02*
X732900D01*
X697000Y363400D02*
X732900D01*
X697000Y388800D02*
X732900D01*
X697000Y414200D02*
X732900D01*
X499500Y338000D02*
X534900D01*
X499500Y363400D02*
X534900D01*
X499500Y388800D02*
X534900D01*
X499500Y414200D02*
X534900D01*
X697000Y553000D02*
X732900D01*
X697000Y578400D02*
X732900D01*
X697000Y603800D02*
X732900D01*
X697000Y629200D02*
X732900D01*
X499500Y553000D02*
X534900D01*
X499500Y578400D02*
X534900D01*
X499500Y603800D02*
X534900D01*
X499600Y629100D02*
X535000D01*
D24*
X499500Y629200D02*
X499600Y629100D01*
D25*
X1200000Y270000D02*
D03*
Y325000D02*
D03*
X1252500Y475000D02*
D03*
Y525000D02*
D03*
Y625000D02*
D03*
Y677500D02*
D03*
D26*
X790000Y762500D02*
D03*
X705000Y720000D02*
D03*
D27*
X1187500Y425000D02*
D03*
X1237500D02*
D03*
X1187500Y575000D02*
D03*
X1237500D02*
D03*
X1187500Y727500D02*
D03*
X1237500D02*
D03*
X797500Y482500D02*
D03*
X747500D02*
D03*
X797500Y692500D02*
D03*
X747500D02*
D03*
D28*
X535000Y414100D02*
D03*
X733000D02*
D03*
X535000Y629100D02*
D03*
X733000D02*
D03*
X570000Y465000D02*
D03*
Y680000D02*
D03*
X372500Y465000D02*
D03*
Y680000D02*
D03*
X327000Y276000D02*
D03*
D29*
X535000Y388700D02*
D03*
Y363300D02*
D03*
Y337900D02*
D03*
X733000Y388700D02*
D03*
Y363300D02*
D03*
Y337900D02*
D03*
X535000Y603700D02*
D03*
Y578300D02*
D03*
Y552900D02*
D03*
X733000Y603700D02*
D03*
Y578300D02*
D03*
Y552900D02*
D03*
X570000Y287200D02*
D03*
Y312600D02*
D03*
Y439600D02*
D03*
Y414200D02*
D03*
Y388800D02*
D03*
Y363400D02*
D03*
Y338000D02*
D03*
X697000D02*
D03*
Y363400D02*
D03*
Y388800D02*
D03*
Y414200D02*
D03*
Y439600D02*
D03*
Y465000D02*
D03*
Y312600D02*
D03*
Y287200D02*
D03*
Y502200D02*
D03*
Y527600D02*
D03*
Y680000D02*
D03*
Y654600D02*
D03*
Y629200D02*
D03*
Y603800D02*
D03*
Y578400D02*
D03*
Y553000D02*
D03*
X570000D02*
D03*
Y578400D02*
D03*
Y603800D02*
D03*
Y629200D02*
D03*
Y654600D02*
D03*
Y527600D02*
D03*
Y502200D02*
D03*
X499500Y287200D02*
D03*
Y312600D02*
D03*
Y465000D02*
D03*
Y439600D02*
D03*
Y414200D02*
D03*
Y388800D02*
D03*
Y363400D02*
D03*
Y338000D02*
D03*
X372500D02*
D03*
Y363400D02*
D03*
Y388800D02*
D03*
Y414200D02*
D03*
Y439600D02*
D03*
Y312600D02*
D03*
Y287200D02*
D03*
Y502200D02*
D03*
Y527600D02*
D03*
Y654600D02*
D03*
Y629200D02*
D03*
Y603800D02*
D03*
Y578400D02*
D03*
Y553000D02*
D03*
X499500D02*
D03*
Y578400D02*
D03*
Y603800D02*
D03*
Y629200D02*
D03*
Y654600D02*
D03*
Y680000D02*
D03*
Y527600D02*
D03*
Y502200D02*
D03*
X301600Y707800D02*
D03*
Y682400D02*
D03*
Y657000D02*
D03*
Y631600D02*
D03*
Y606200D02*
D03*
Y580800D02*
D03*
Y555400D02*
D03*
Y530000D02*
D03*
Y504600D02*
D03*
Y479200D02*
D03*
Y453800D02*
D03*
Y428400D02*
D03*
Y403000D02*
D03*
Y377600D02*
D03*
Y352200D02*
D03*
Y326800D02*
D03*
Y301400D02*
D03*
Y276000D02*
D03*
X327000Y707800D02*
D03*
Y682400D02*
D03*
Y657000D02*
D03*
Y631600D02*
D03*
Y606200D02*
D03*
Y580800D02*
D03*
Y555400D02*
D03*
Y530000D02*
D03*
Y504600D02*
D03*
Y479200D02*
D03*
Y453800D02*
D03*
Y428400D02*
D03*
Y403000D02*
D03*
Y377600D02*
D03*
Y352200D02*
D03*
Y326800D02*
D03*
Y301400D02*
D03*
D30*
X850240Y276000D02*
D03*
X809600D02*
D03*
X581000Y758600D02*
D03*
D31*
X875640Y276000D02*
D03*
X901040D02*
D03*
X926440D02*
D03*
X784200D02*
D03*
X758800D02*
D03*
X733400D02*
D03*
X758800Y758600D02*
D03*
X733400D02*
D03*
X606400D02*
D03*
X631800D02*
D03*
X657200D02*
D03*
X682600D02*
D03*
X708000D02*
D03*
D32*
X1174000Y357000D02*
D03*
X1184000D02*
D03*
X1164000D02*
D03*
X1200000Y671000D02*
D03*
Y661000D02*
D03*
Y681000D02*
D03*
Y517000D02*
D03*
Y507000D02*
D03*
Y527000D02*
D03*
X893000Y769000D02*
D03*
X823000Y594000D02*
D03*
X833000D02*
D03*
Y769000D02*
D03*
X843000Y594000D02*
D03*
X883000D02*
D03*
X873000D02*
D03*
X853000D02*
D03*
X863000D02*
D03*
X863000Y769000D02*
D03*
X853000D02*
D03*
X873000D02*
D03*
X883000D02*
D03*
X843000D02*
D03*
X862250Y686000D02*
D03*
Y516000D02*
D03*
X797500Y610000D02*
D03*
Y530000D02*
D03*
X800000Y405000D02*
D03*
X800000Y325000D02*
D03*
X822000Y375000D02*
D03*
X876000D02*
D03*
Y436000D02*
D03*
X822000D02*
D03*
X606000Y777000D02*
D03*
X561000Y772000D02*
D03*
X988000Y322500D02*
D03*
X1170000Y279500D02*
D03*
X405000Y744250D02*
D03*
X658000Y725000D02*
D03*
X435000Y744250D02*
D03*
X425000D02*
D03*
X415000D02*
D03*
X395000D02*
D03*
X820000Y565500D02*
D03*
X865500Y477500D02*
D03*
X884500Y320000D02*
D03*
X1046000Y296000D02*
D03*
Y307000D02*
D03*
X1057000D02*
D03*
Y296000D02*
D03*
X1045000Y629000D02*
D03*
X1056000D02*
D03*
X1115000D02*
D03*
X1126000D02*
D03*
X1115000Y640000D02*
D03*
X1126000D02*
D03*
X1045000D02*
D03*
X1056000D02*
D03*
X1115000Y459000D02*
D03*
Y470000D02*
D03*
X1126000D02*
D03*
Y459000D02*
D03*
X1045000D02*
D03*
Y470000D02*
D03*
X1056000D02*
D03*
Y459000D02*
D03*
X1115000Y288000D02*
D03*
Y299000D02*
D03*
X1126000D02*
D03*
Y288000D02*
D03*
X991000Y272000D02*
D03*
Y283000D02*
D03*
X1002000D02*
D03*
Y272000D02*
D03*
X949000Y685000D02*
D03*
X960000D02*
D03*
X949000Y707000D02*
D03*
X960000D02*
D03*
X949000Y696000D02*
D03*
X960000D02*
D03*
Y567000D02*
D03*
X949000Y578000D02*
D03*
Y567000D02*
D03*
Y589000D02*
D03*
X960000D02*
D03*
X265000Y327000D02*
D03*
Y614500D02*
D03*
Y559500D02*
D03*
Y382000D02*
D03*
X598000Y609500D02*
D03*
X1045000Y429000D02*
D03*
X1039000D02*
D03*
X920000Y432000D02*
D03*
Y421000D02*
D03*
Y410000D02*
D03*
Y388000D02*
D03*
Y399000D02*
D03*
X909000D02*
D03*
Y388000D02*
D03*
Y410000D02*
D03*
Y421000D02*
D03*
Y432000D02*
D03*
X960000Y600000D02*
D03*
Y578000D02*
D03*
Y556000D02*
D03*
X949000D02*
D03*
Y600000D02*
D03*
X960000Y740000D02*
D03*
Y729000D02*
D03*
Y718000D02*
D03*
X949000D02*
D03*
Y729000D02*
D03*
Y740000D02*
D03*
X985500Y647500D02*
D03*
X862250Y737000D02*
D03*
X1226500Y363650D02*
D03*
X1181150Y616000D02*
D03*
Y463500D02*
D03*
X935000Y337000D02*
D03*
M02*
