G04 Layer_Physical_Order=2*
G04 Layer_Color=36540*
%FSLAX44Y44*%
%MOMM*%
G71*
G01*
G75*
%ADD22C,0.2032*%
%ADD24C,1.7500*%
%ADD25C,2.0000*%
%ADD26C,3.0000*%
%ADD27C,1.5000*%
%ADD28R,2.0000X1.5000*%
%ADD29O,2.0000X1.5000*%
%ADD32C,0.6000*%
%ADD33C,2.0000*%
G36*
X1085000Y617590D02*
X996000D01*
X996000Y658000D01*
X897000Y658000D01*
Y765015D01*
X898219Y766838D01*
X898649Y769000D01*
X898219Y771162D01*
X897000Y772985D01*
Y783351D01*
X1085000D01*
Y617590D01*
D02*
G37*
G36*
X1210410Y721073D02*
X1188169Y698831D01*
X1187607Y697991D01*
X1187410Y697000D01*
Y638000D01*
X1187607Y637009D01*
X1188000Y636421D01*
Y616470D01*
X1186730Y616345D01*
X1186629Y616851D01*
X1186369Y618162D01*
X1185144Y619994D01*
X1183312Y621218D01*
X1181150Y621648D01*
X1178988Y621218D01*
X1177156Y619994D01*
X1175931Y618162D01*
X1175501Y616000D01*
X1175931Y613838D01*
X1177156Y612006D01*
X1178988Y610781D01*
X1181150Y610351D01*
X1183312Y610781D01*
X1185144Y612006D01*
X1186369Y613838D01*
X1186629Y615149D01*
X1186730Y615655D01*
X1188000Y615530D01*
Y608000D01*
X1087590D01*
Y615000D01*
X1087393Y615991D01*
X1087190Y616295D01*
X1087393Y616599D01*
X1087590Y617590D01*
Y783351D01*
X1210410D01*
Y721073D01*
D02*
G37*
G36*
X1265851Y566590D02*
X1215590D01*
X1215590Y607000D01*
X1215393Y607991D01*
X1214831Y608831D01*
X1213991Y609393D01*
X1213000Y609590D01*
X1190590D01*
Y615530D01*
X1190516Y615903D01*
X1190506Y616000D01*
X1190516Y616096D01*
X1190590Y616470D01*
Y635410D01*
X1265851D01*
Y566590D01*
D02*
G37*
G36*
X507141Y661174D02*
X507504Y660722D01*
X507559Y660303D01*
X507586Y659882D01*
X507624Y659805D01*
X507635Y659720D01*
X507846Y659354D01*
X508033Y658976D01*
X508508Y658357D01*
X509258Y656545D01*
X509515Y654600D01*
X509258Y652655D01*
X508508Y650843D01*
X507314Y649286D01*
X505757Y648092D01*
X503945Y647342D01*
X501830Y647063D01*
X497170D01*
X495055Y647342D01*
X493243Y648092D01*
X491686Y649286D01*
X490492Y650843D01*
X489742Y652655D01*
X489486Y654600D01*
X489742Y656545D01*
X490492Y658357D01*
X490967Y658976D01*
X491153Y659354D01*
X491365Y659720D01*
X491376Y659805D01*
X491414Y659882D01*
X491441Y660303D01*
X491496Y660722D01*
X491859Y661174D01*
X492549Y661691D01*
X506451D01*
X507141Y661174D01*
D02*
G37*
G36*
X1263567Y783351D02*
X1264615Y782916D01*
X1265417Y782115D01*
X1265851Y781067D01*
X1265851Y780500D01*
Y780500D01*
Y780500D01*
Y638000D01*
X1190000D01*
Y697000D01*
X1213000Y720000D01*
Y783351D01*
X1263000D01*
X1263567Y783351D01*
D02*
G37*
G36*
X255000Y783351D02*
X255000Y783351D01*
X255000Y783351D01*
X894410Y783351D01*
Y772985D01*
X894460Y772735D01*
Y772480D01*
X894558Y772244D01*
X894607Y771994D01*
X894749Y771782D01*
X894847Y771546D01*
X895779Y770151D01*
X896008Y769000D01*
X895779Y767849D01*
X894847Y766453D01*
X894749Y766218D01*
X894607Y766006D01*
X894558Y765755D01*
X894460Y765520D01*
Y765265D01*
X894410Y765015D01*
Y658000D01*
X894607Y657009D01*
X895169Y656169D01*
X896009Y655607D01*
X897000Y655410D01*
X993410Y655410D01*
X993410Y617590D01*
X897000Y617590D01*
X896009Y617393D01*
X895169Y616831D01*
X894607Y615991D01*
X894410Y615000D01*
Y590000D01*
X823149D01*
X822290Y590864D01*
X822075Y591009D01*
X821892Y591192D01*
X820873Y591873D01*
X820160Y592940D01*
X819983Y593117D01*
X819844Y593326D01*
X817421Y595765D01*
X817881Y667082D01*
X817880Y667086D01*
X817881Y667091D01*
X817786Y667576D01*
X817690Y668075D01*
X817688Y668078D01*
X817687Y668082D01*
X817412Y668495D01*
X817134Y668918D01*
X817561Y669324D01*
X817563Y669327D01*
X817740Y669542D01*
X817831Y669636D01*
X817887Y669719D01*
X817958Y669801D01*
X818171Y670046D01*
X818249Y670183D01*
X818301Y670339D01*
X818393Y670476D01*
X818460Y670814D01*
X818569Y671142D01*
X818558Y671306D01*
X818590Y671467D01*
Y705000D01*
X818393Y705991D01*
X817831Y706831D01*
X783831Y740831D01*
X782991Y741393D01*
X782000Y741590D01*
X441297D01*
X440372Y742860D01*
X440648Y744250D01*
X440219Y746412D01*
X438994Y748244D01*
X437162Y749469D01*
X435000Y749899D01*
X432838Y749469D01*
X431006Y748244D01*
X430635Y747689D01*
X429365D01*
X428994Y748244D01*
X427162Y749469D01*
X425000Y749899D01*
X422838Y749469D01*
X421006Y748244D01*
X420635Y747689D01*
X419365D01*
X418994Y748244D01*
X417162Y749469D01*
X415000Y749899D01*
X412838Y749469D01*
X411006Y748244D01*
X410635Y747689D01*
X409365D01*
X408994Y748244D01*
X407162Y749469D01*
X405000Y749899D01*
X402838Y749469D01*
X401006Y748244D01*
X400635Y747689D01*
X399365D01*
X398994Y748244D01*
X397162Y749469D01*
X395000Y749899D01*
X392838Y749469D01*
X391006Y748244D01*
X389781Y746412D01*
X389352Y744250D01*
X389781Y742088D01*
X391006Y740256D01*
X392838Y739031D01*
X395000Y738602D01*
X397162Y739031D01*
X398994Y740256D01*
X399365Y740811D01*
X400635D01*
X401006Y740256D01*
X402838Y739031D01*
X405000Y738602D01*
X407162Y739031D01*
X408994Y740256D01*
X409365Y740811D01*
X410635D01*
X411006Y740256D01*
X412838Y739031D01*
X415000Y738602D01*
X415429Y738687D01*
X416410Y737881D01*
Y672626D01*
X386900D01*
X386900Y672626D01*
X386360Y672518D01*
X385090Y673478D01*
Y687500D01*
X384893Y688491D01*
X384331Y689331D01*
X383491Y689893D01*
X382500Y690090D01*
X362500D01*
X361509Y689893D01*
X360669Y689331D01*
X360107Y688491D01*
X359910Y687500D01*
Y672500D01*
X360038Y671860D01*
X359469Y670866D01*
X359194Y670590D01*
X332357Y670590D01*
X332101Y670539D01*
X331840Y670537D01*
X331610Y670441D01*
X331366Y670393D01*
X331149Y670247D01*
X330908Y670146D01*
X330733Y669969D01*
X330526Y669831D01*
X330381Y669614D01*
X330197Y669428D01*
X330103Y669198D01*
X329965Y668991D01*
X329914Y668735D01*
X329815Y668493D01*
X329579Y667274D01*
X328309Y667127D01*
X324500D01*
X321879Y666782D01*
X319437Y665770D01*
X317339Y664161D01*
X315730Y662063D01*
X314987Y660270D01*
X313613D01*
X312870Y662063D01*
X311261Y664161D01*
X309163Y665770D01*
X306721Y666782D01*
X304100Y667127D01*
X300291D01*
X299021Y667274D01*
X298785Y668493D01*
X298686Y668735D01*
X298635Y668991D01*
X298497Y669198D01*
X298403Y669428D01*
X298219Y669614D01*
X298074Y669831D01*
X297867Y669969D01*
X297692Y670146D01*
X297451Y670247D01*
X297234Y670393D01*
X296990Y670441D01*
X296760Y670537D01*
X296499Y670539D01*
X296243Y670590D01*
X251649D01*
X251649Y671860D01*
Y780000D01*
X251649Y780000D01*
X251649Y780000D01*
X251649Y780667D01*
X252160Y781898D01*
X253102Y782840D01*
X254333Y783351D01*
X255000Y783351D01*
D02*
G37*
G36*
X1265851Y488000D02*
X1188000D01*
Y532000D01*
X1213000Y557000D01*
Y564000D01*
X1265851D01*
Y488000D01*
D02*
G37*
G36*
X1221216Y368000D02*
X1221895Y366730D01*
X1221282Y365812D01*
X1220852Y363650D01*
X1221282Y361488D01*
X1222506Y359656D01*
X1224338Y358431D01*
X1226500Y358002D01*
X1228662Y358431D01*
X1230494Y359656D01*
X1231719Y361488D01*
X1232149Y363650D01*
X1231719Y365812D01*
X1231105Y366730D01*
X1231784Y368000D01*
X1242000D01*
Y287000D01*
X1158000Y287000D01*
Y368000D01*
X1221216Y368000D01*
D02*
G37*
G36*
X1265851Y370000D02*
Y254500D01*
X1265851Y253933D01*
X1265416Y252885D01*
X1264615Y252083D01*
X1263567Y251649D01*
X1160590D01*
Y273000D01*
X1181000D01*
Y284410D01*
X1242000Y284410D01*
X1242991Y284607D01*
X1243831Y285169D01*
X1244393Y286009D01*
X1244590Y287000D01*
Y368000D01*
X1244393Y368991D01*
X1243831Y369831D01*
X1243579Y370000D01*
X1242991Y370393D01*
X1242000Y370590D01*
X1231784D01*
X1231411Y370516D01*
X1231032Y370478D01*
X1230919Y370418D01*
X1230793Y370393D01*
X1230476Y370181D01*
X1230141Y370002D01*
X1230139Y370000D01*
X1230059Y369903D01*
X1229953Y369831D01*
X1229741Y369515D01*
X1229500Y369221D01*
X1229412Y369057D01*
X1228662Y368869D01*
X1226500Y369299D01*
X1224338Y368869D01*
X1223588Y369057D01*
X1223500Y369221D01*
X1223259Y369515D01*
X1223047Y369831D01*
X1222941Y369903D01*
X1222859Y370002D01*
X1222524Y370181D01*
X1222207Y370393D01*
X1222081Y370418D01*
X1221968Y370478D01*
X1221589Y370516D01*
X1221216Y370590D01*
X1215590D01*
D01*
Y447000D01*
X1215393Y447991D01*
X1214831Y448831D01*
X1213991Y449393D01*
X1213000Y449590D01*
X1190590D01*
Y463030D01*
X1190516Y463403D01*
X1190506Y463500D01*
X1190516Y463596D01*
X1190590Y463970D01*
Y485410D01*
X1265851D01*
Y370000D01*
D02*
G37*
G36*
X296243Y668000D02*
X296479Y666782D01*
X294037Y665770D01*
X291939Y664161D01*
X290330Y662063D01*
X289318Y659621D01*
X288973Y657000D01*
X289318Y654379D01*
X290330Y651937D01*
X291939Y649839D01*
X294037Y648230D01*
X296479Y647218D01*
X299100Y646873D01*
X304100D01*
X306721Y647218D01*
X309163Y648230D01*
X311261Y649839D01*
X312870Y651937D01*
X313613Y653730D01*
X314987D01*
X315730Y651937D01*
X317339Y649839D01*
X319437Y648230D01*
X321879Y647218D01*
X324500Y646873D01*
X329500D01*
X332121Y647218D01*
X334563Y648230D01*
X336661Y649839D01*
X338270Y651937D01*
X339282Y654379D01*
X339627Y657000D01*
X339282Y659621D01*
X338270Y662063D01*
X336661Y664161D01*
X334563Y665770D01*
X332121Y666782D01*
X332357Y668000D01*
X379113Y668000D01*
X379599Y666827D01*
X377208Y664436D01*
X375000Y664727D01*
X370000D01*
X367379Y664382D01*
X364937Y663370D01*
X362839Y661761D01*
X361230Y659663D01*
X360218Y657221D01*
X359873Y654600D01*
X360218Y651979D01*
X361230Y649537D01*
X362839Y647439D01*
X364937Y645830D01*
X367379Y644818D01*
X370000Y644473D01*
X375000D01*
X377621Y644818D01*
X380063Y645830D01*
X382161Y647439D01*
X383770Y649537D01*
X384782Y651979D01*
X385127Y654600D01*
X384782Y657221D01*
X383770Y659663D01*
X383301Y660274D01*
X388402Y665374D01*
X401888D01*
X402374Y664201D01*
X377208Y639036D01*
X375000Y639327D01*
X370000D01*
X367379Y638982D01*
X364937Y637970D01*
X362839Y636361D01*
X361230Y634263D01*
X360218Y631821D01*
X359873Y629200D01*
X360218Y626579D01*
X361230Y624137D01*
X362839Y622039D01*
X364937Y620430D01*
X367379Y619418D01*
X370000Y619073D01*
X375000D01*
X377621Y619418D01*
X380063Y620430D01*
X382161Y622039D01*
X383770Y624137D01*
X384782Y626579D01*
X385127Y629200D01*
X384782Y631821D01*
X383770Y634263D01*
X383301Y634874D01*
X410119Y661691D01*
X488350D01*
X488912Y660552D01*
X488230Y659663D01*
X487218Y657221D01*
X486873Y654600D01*
X487218Y651979D01*
X488230Y649537D01*
X489839Y647439D01*
X491937Y645830D01*
X494379Y644818D01*
X497000Y644473D01*
X502000D01*
X504621Y644818D01*
X507063Y645830D01*
X509161Y647439D01*
X510770Y649537D01*
X511782Y651979D01*
X512127Y654600D01*
X511782Y657221D01*
X510770Y659663D01*
X510088Y660552D01*
X510650Y661691D01*
X532381D01*
X559199Y634874D01*
X558730Y634263D01*
X557718Y631821D01*
X557373Y629200D01*
X557718Y626579D01*
X558730Y624137D01*
X560339Y622039D01*
X562437Y620430D01*
X564879Y619418D01*
X567500Y619073D01*
X572500D01*
X575121Y619418D01*
X577563Y620430D01*
X579661Y622039D01*
X581270Y624137D01*
X582282Y626579D01*
X582627Y629200D01*
X582282Y631821D01*
X581270Y634263D01*
X579661Y636361D01*
X577563Y637970D01*
X575121Y638982D01*
X572500Y639327D01*
X567500D01*
X565292Y639036D01*
X540126Y664201D01*
X540612Y665374D01*
X554098D01*
X559199Y660274D01*
X558730Y659663D01*
X557718Y657221D01*
X557373Y654600D01*
X557718Y651979D01*
X558730Y649537D01*
X560339Y647439D01*
X562437Y645830D01*
X564879Y644818D01*
X567500Y644473D01*
X572500D01*
X575121Y644818D01*
X577563Y645830D01*
X579661Y647439D01*
X581270Y649537D01*
X582282Y651979D01*
X582627Y654600D01*
X582282Y657221D01*
X581270Y659663D01*
X579661Y661761D01*
X577563Y663370D01*
X575121Y664382D01*
X572500Y664727D01*
X567500D01*
X565292Y664436D01*
X562901Y666827D01*
X563387Y668000D01*
X576872D01*
X649374Y595498D01*
Y518502D01*
X614498Y483626D01*
X580412D01*
X579926Y484799D01*
X616564Y521436D01*
X616564Y521436D01*
X617350Y522612D01*
X617626Y524000D01*
X617626Y524000D01*
Y585000D01*
X617626Y585000D01*
X617350Y586387D01*
X616564Y587564D01*
X616564Y587564D01*
X597764Y606364D01*
X596587Y607150D01*
X595200Y607426D01*
X595200Y607426D01*
X581865D01*
X581270Y608863D01*
X579661Y610961D01*
X577563Y612570D01*
X575121Y613582D01*
X572500Y613927D01*
X567500D01*
X564879Y613582D01*
X562437Y612570D01*
X560339Y610961D01*
X558730Y608863D01*
X557718Y606421D01*
X557373Y603800D01*
X557718Y601179D01*
X558730Y598737D01*
X560339Y596639D01*
X562437Y595030D01*
X564879Y594018D01*
X567500Y593673D01*
X572500D01*
X575121Y594018D01*
X577563Y595030D01*
X579661Y596639D01*
X581270Y598737D01*
X581865Y600174D01*
X593698D01*
X610374Y583498D01*
Y525502D01*
X583094Y498221D01*
X582017Y498941D01*
X582282Y499579D01*
X582627Y502200D01*
X582282Y504821D01*
X581270Y507263D01*
X579661Y509361D01*
X577563Y510970D01*
X575121Y511982D01*
X572500Y512327D01*
X567500D01*
X564879Y511982D01*
X562437Y510970D01*
X560339Y509361D01*
X558730Y507263D01*
X557718Y504821D01*
X557373Y502200D01*
X557718Y499579D01*
X558730Y497137D01*
X559199Y496526D01*
X554298Y491626D01*
X506026D01*
X505773Y492896D01*
X507063Y493430D01*
X509161Y495039D01*
X510770Y497137D01*
X511782Y499579D01*
X512127Y502200D01*
X511782Y504821D01*
X510770Y507263D01*
X509161Y509361D01*
X507063Y510970D01*
X504621Y511982D01*
X502000Y512327D01*
X497000D01*
X494379Y511982D01*
X491937Y510970D01*
X489839Y509361D01*
X488230Y507263D01*
X487218Y504821D01*
X486873Y502200D01*
X487218Y499579D01*
X488230Y497137D01*
X489839Y495039D01*
X491937Y493430D01*
X493227Y492896D01*
X492974Y491626D01*
X379026D01*
X378773Y492896D01*
X380063Y493430D01*
X382161Y495039D01*
X383770Y497137D01*
X384782Y499579D01*
X385127Y502200D01*
X384782Y504821D01*
X383770Y507263D01*
X382161Y509361D01*
X380063Y510970D01*
X377621Y511982D01*
X375000Y512327D01*
X370000D01*
X367379Y511982D01*
X364937Y510970D01*
X362839Y509361D01*
X361230Y507263D01*
X360218Y504821D01*
X359873Y502200D01*
X359911Y501918D01*
X358772Y501356D01*
X356626Y503502D01*
Y554800D01*
X356626Y554800D01*
X356350Y556188D01*
X355564Y557364D01*
X355564Y557364D01*
X337801Y575126D01*
X338270Y575737D01*
X339282Y578179D01*
X339627Y580800D01*
X339282Y583421D01*
X338270Y585863D01*
X336661Y587961D01*
X334563Y589570D01*
X332121Y590582D01*
X329500Y590927D01*
X324500D01*
X321879Y590582D01*
X319437Y589570D01*
X317339Y587961D01*
X315730Y585863D01*
X314987Y584070D01*
X313613D01*
X312870Y585863D01*
X311261Y587961D01*
X309163Y589570D01*
X306721Y590582D01*
X304100Y590927D01*
X299100D01*
X296479Y590582D01*
X294037Y589570D01*
X291939Y587961D01*
X290330Y585863D01*
X289318Y583421D01*
X288973Y580800D01*
X289318Y578179D01*
X290330Y575737D01*
X291939Y573639D01*
X294037Y572030D01*
X296479Y571018D01*
X299100Y570673D01*
X304100D01*
X306721Y571018D01*
X309163Y572030D01*
X311261Y573639D01*
X312870Y575737D01*
X313613Y577530D01*
X314987D01*
X315730Y575737D01*
X317339Y573639D01*
X319437Y572030D01*
X321879Y571018D01*
X324500Y570673D01*
X329500D01*
X331708Y570964D01*
X349374Y553298D01*
Y514140D01*
X348104Y513755D01*
X347564Y514564D01*
X337801Y524326D01*
X338270Y524937D01*
X339282Y527379D01*
X339627Y530000D01*
X339282Y532621D01*
X338270Y535063D01*
X336661Y537161D01*
X334563Y538770D01*
X332121Y539782D01*
X329500Y540127D01*
X324500D01*
X321879Y539782D01*
X319437Y538770D01*
X317339Y537161D01*
X315730Y535063D01*
X314987Y533270D01*
X313613D01*
X312870Y535063D01*
X311261Y537161D01*
X309163Y538770D01*
X306721Y539782D01*
X304100Y540127D01*
X299100D01*
X296479Y539782D01*
X294037Y538770D01*
X291939Y537161D01*
X290330Y535063D01*
X289318Y532621D01*
X288973Y530000D01*
X289318Y527379D01*
X290330Y524937D01*
X291939Y522839D01*
X294037Y521230D01*
X296479Y520218D01*
X299100Y519873D01*
X304100D01*
X306721Y520218D01*
X309163Y521230D01*
X311261Y522839D01*
X312870Y524937D01*
X313613Y526730D01*
X314987D01*
X315730Y524937D01*
X317339Y522839D01*
X319437Y521230D01*
X321879Y520218D01*
X324500Y519873D01*
X329500D01*
X331708Y520164D01*
X341374Y510498D01*
Y498000D01*
X341374Y498000D01*
X341586Y496938D01*
X340489Y496238D01*
X337801Y498926D01*
X338270Y499537D01*
X339282Y501979D01*
X339627Y504600D01*
X339282Y507221D01*
X338270Y509663D01*
X336661Y511761D01*
X334563Y513370D01*
X332121Y514382D01*
X329500Y514727D01*
X324500D01*
X321879Y514382D01*
X319437Y513370D01*
X317339Y511761D01*
X315730Y509663D01*
X314987Y507870D01*
X313613D01*
X312870Y509663D01*
X311261Y511761D01*
X309163Y513370D01*
X306721Y514382D01*
X304100Y514727D01*
X299100D01*
X296479Y514382D01*
X294037Y513370D01*
X291939Y511761D01*
X290330Y509663D01*
X289318Y507221D01*
X288973Y504600D01*
X289318Y501979D01*
X290330Y499537D01*
X291939Y497439D01*
X294037Y495830D01*
X296479Y494818D01*
X299100Y494473D01*
X304100D01*
X306721Y494818D01*
X309163Y495830D01*
X311261Y497439D01*
X312870Y499537D01*
X313613Y501330D01*
X314987D01*
X315730Y499537D01*
X317339Y497439D01*
X319437Y495830D01*
X321879Y494818D01*
X324500Y494473D01*
X329500D01*
X331708Y494764D01*
X349036Y477436D01*
X349036Y477436D01*
X350213Y476650D01*
X351600Y476374D01*
X402487D01*
X402974Y475201D01*
X386360Y458587D01*
X385090Y459113D01*
Y472500D01*
X384893Y473491D01*
X384331Y474331D01*
X383491Y474893D01*
X382500Y475090D01*
X362500D01*
X361509Y474893D01*
X360669Y474331D01*
X360107Y473491D01*
X359910Y472500D01*
Y457500D01*
X360107Y456509D01*
X360669Y455669D01*
X361509Y455107D01*
X362500Y454910D01*
X380887D01*
X381413Y453640D01*
X377208Y449436D01*
X375000Y449727D01*
X370000D01*
X367379Y449382D01*
X364937Y448370D01*
X362839Y446761D01*
X361230Y444663D01*
X360218Y442221D01*
X359873Y439600D01*
X360218Y436979D01*
X361230Y434537D01*
X362839Y432439D01*
X364937Y430830D01*
X367379Y429818D01*
X370000Y429473D01*
X375000D01*
X377621Y429818D01*
X380063Y430830D01*
X382161Y432439D01*
X383770Y434537D01*
X384782Y436979D01*
X385127Y439600D01*
X384782Y442221D01*
X383770Y444663D01*
X383301Y445274D01*
X410402Y472374D01*
X488403D01*
X489029Y471104D01*
X488230Y470063D01*
X487218Y467621D01*
X486873Y465000D01*
X487218Y462379D01*
X488230Y459937D01*
X489839Y457839D01*
X491069Y456896D01*
X490638Y455626D01*
X483000D01*
X483000Y455626D01*
X481613Y455350D01*
X480436Y454564D01*
X480436Y454564D01*
X448436Y422564D01*
X447650Y421387D01*
X447374Y420000D01*
X447374Y420000D01*
Y305502D01*
X419498Y277626D01*
X381101D01*
X380670Y278896D01*
X382161Y280039D01*
X383770Y282137D01*
X384782Y284579D01*
X385127Y287200D01*
X384782Y289821D01*
X383770Y292263D01*
X382161Y294361D01*
X380063Y295970D01*
X377621Y296982D01*
X375000Y297327D01*
X370000D01*
X367379Y296982D01*
X364937Y295970D01*
X362839Y294361D01*
X361230Y292263D01*
X360218Y289821D01*
X359873Y287200D01*
X360218Y284579D01*
X360836Y283087D01*
X359760Y282368D01*
X339460Y302668D01*
X339282Y304021D01*
X338270Y306463D01*
X336661Y308561D01*
X334563Y310170D01*
X332121Y311182D01*
X329500Y311527D01*
X324500D01*
X321879Y311182D01*
X319437Y310170D01*
X317339Y308561D01*
X315730Y306463D01*
X314987Y304670D01*
X313613D01*
X312870Y306463D01*
X311261Y308561D01*
X309163Y310170D01*
X306721Y311182D01*
X304100Y311527D01*
X299100D01*
X296479Y311182D01*
X294037Y310170D01*
X291939Y308561D01*
X290330Y306463D01*
X289318Y304021D01*
X288973Y301400D01*
X289318Y298779D01*
X290330Y296337D01*
X291939Y294239D01*
X294037Y292630D01*
X296479Y291618D01*
X299100Y291273D01*
X304100D01*
X306308Y291564D01*
X312436Y285436D01*
X312436Y285436D01*
X313612Y284650D01*
X315000Y284374D01*
X315000Y284374D01*
X337498D01*
X359436Y262436D01*
X359436Y262436D01*
X360612Y261650D01*
X362000Y261374D01*
X586000D01*
X586000Y261374D01*
X587388Y261650D01*
X588564Y262436D01*
X621502Y295374D01*
X686749D01*
X687143Y294104D01*
X685730Y292263D01*
X684718Y289821D01*
X684373Y287200D01*
X684718Y284579D01*
X685730Y282137D01*
X687339Y280039D01*
X689437Y278430D01*
X691879Y277418D01*
X694500Y277073D01*
X699500D01*
X702121Y277418D01*
X704563Y278430D01*
X706661Y280039D01*
X708270Y282137D01*
X709282Y284579D01*
X709627Y287200D01*
X709282Y289821D01*
X708270Y292263D01*
X706857Y294104D01*
X707252Y295374D01*
X897000D01*
X897000Y295374D01*
X898388Y295650D01*
X899564Y296436D01*
X934565Y331438D01*
X935000Y331352D01*
X937162Y331782D01*
X938994Y333006D01*
X940219Y334838D01*
X940648Y337000D01*
X940219Y339162D01*
X938994Y340994D01*
X937162Y342219D01*
X935000Y342649D01*
X932838Y342219D01*
X931006Y340994D01*
X929781Y339162D01*
X929352Y337000D01*
X929438Y336565D01*
X895498Y302626D01*
X620000D01*
X618613Y302350D01*
X617436Y301564D01*
X617436Y301564D01*
X584498Y268626D01*
X364199D01*
X363847Y269104D01*
X364489Y270374D01*
X421000D01*
X421000Y270374D01*
X422388Y270650D01*
X423564Y271436D01*
X453564Y301436D01*
X453564Y301436D01*
X454350Y302612D01*
X454626Y304000D01*
Y418498D01*
X484502Y448374D01*
X489856D01*
X490287Y447104D01*
X489839Y446761D01*
X488230Y444663D01*
X487218Y442221D01*
X486873Y439600D01*
X487218Y436979D01*
X488230Y434537D01*
X489839Y432439D01*
X491937Y430830D01*
X494379Y429818D01*
X497000Y429473D01*
X502000D01*
X504621Y429818D01*
X507063Y430830D01*
X509161Y432439D01*
X510770Y434537D01*
X511782Y436979D01*
X512127Y439600D01*
X511782Y442221D01*
X510770Y444663D01*
X509161Y446761D01*
X508713Y447104D01*
X509144Y448374D01*
X557000D01*
X557000Y448374D01*
X558387Y448650D01*
X559564Y449436D01*
X565038Y454910D01*
X578387D01*
X578913Y453640D01*
X574708Y449436D01*
X572500Y449727D01*
X567500D01*
X564879Y449382D01*
X562437Y448370D01*
X560339Y446761D01*
X558730Y444663D01*
X557718Y442221D01*
X557373Y439600D01*
X557718Y436979D01*
X558730Y434537D01*
X560339Y432439D01*
X562437Y430830D01*
X564879Y429818D01*
X567500Y429473D01*
X572500D01*
X575121Y429818D01*
X577563Y430830D01*
X579661Y432439D01*
X581270Y434537D01*
X582282Y436979D01*
X582627Y439600D01*
X582282Y442221D01*
X581270Y444663D01*
X580801Y445274D01*
X589564Y454036D01*
X589564Y454036D01*
X590350Y455213D01*
X590626Y456600D01*
Y471000D01*
X590626Y471000D01*
X590350Y472388D01*
X589564Y473564D01*
X587926Y475201D01*
X588413Y476374D01*
X616000D01*
X616000Y476374D01*
X617388Y476650D01*
X618564Y477436D01*
X655564Y514436D01*
X656350Y515612D01*
X656626Y517000D01*
X656626Y517000D01*
Y597000D01*
X656350Y598387D01*
X655564Y599564D01*
X655564Y599564D01*
X588301Y666827D01*
X588787Y668000D01*
X814396Y668000D01*
X815291Y667099D01*
X814824Y594705D01*
X818007Y591501D01*
X819006Y590006D01*
X820453Y589039D01*
X822479Y587000D01*
X899000Y587000D01*
X1051000Y435000D01*
Y357000D01*
X945649Y251649D01*
X255000D01*
X254333Y251649D01*
X253102Y252160D01*
X252160Y253102D01*
X251649Y254333D01*
Y255000D01*
X251649Y668000D01*
X296243D01*
D02*
G37*
G36*
X1213000Y607000D02*
X1213000Y566590D01*
X1212009Y566393D01*
X1211169Y565831D01*
X1210607Y564991D01*
X1210410Y564000D01*
Y558073D01*
X1186169Y533831D01*
X1185607Y532991D01*
X1185410Y532000D01*
Y488000D01*
X1185607Y487009D01*
X1186169Y486169D01*
X1187009Y485607D01*
X1188000Y485410D01*
Y463970D01*
X1186730Y463845D01*
X1186629Y464351D01*
X1186369Y465662D01*
X1185144Y467494D01*
X1183312Y468718D01*
X1181150Y469148D01*
X1178988Y468718D01*
X1177156Y467494D01*
X1175931Y465662D01*
X1175501Y463500D01*
X1175931Y461338D01*
X1177156Y459506D01*
X1178988Y458281D01*
X1181150Y457851D01*
X1183312Y458281D01*
X1185144Y459506D01*
X1186369Y461338D01*
X1186629Y462649D01*
X1186730Y463155D01*
X1188000Y463030D01*
Y449590D01*
X1087590Y449590D01*
Y605410D01*
X1188000D01*
X1188991Y605607D01*
X1189831Y606169D01*
X1190387Y607000D01*
X1213000D01*
D02*
G37*
G36*
X1085000Y615000D02*
Y443000D01*
X1046662Y443000D01*
X900831Y588831D01*
X899991Y589393D01*
X899000Y589590D01*
X897000D01*
Y615000D01*
X1085000Y615000D01*
D02*
G37*
G36*
X1213000Y370590D02*
X1158000Y370590D01*
X1157009Y370393D01*
X1156169Y369831D01*
X1155607Y368991D01*
X1155410Y368000D01*
Y287000D01*
X1155607Y286009D01*
X1156169Y285169D01*
X1157009Y284607D01*
X1158000Y284410D01*
Y251649D01*
X950971D01*
X950485Y252823D01*
X1052831Y355169D01*
X1053393Y356009D01*
X1053590Y357000D01*
Y435000D01*
X1053393Y435991D01*
X1052831Y436831D01*
X1052831Y436831D01*
X1050425Y439237D01*
X1050911Y440410D01*
X1085000Y440410D01*
X1085991Y440607D01*
X1086831Y441169D01*
X1087393Y442009D01*
X1087590Y443000D01*
Y447000D01*
X1213000Y447000D01*
Y370590D01*
D02*
G37*
G36*
X816000Y705000D02*
Y671467D01*
X815922Y671330D01*
X815089Y670648D01*
X814730Y670524D01*
X814404Y670590D01*
X814400Y670589D01*
X814396Y670590D01*
X588787Y670590D01*
X587796Y670393D01*
X586956Y669831D01*
X585375Y669752D01*
X582590Y672538D01*
Y687500D01*
X582393Y688491D01*
X581831Y689331D01*
X580991Y689893D01*
X580000Y690090D01*
X560000D01*
X559009Y689893D01*
X558169Y689331D01*
X557607Y688491D01*
X557410Y687500D01*
Y673478D01*
X556140Y672518D01*
X555600Y672626D01*
X555600Y672626D01*
X419000D01*
Y739000D01*
X422996D01*
X425000Y738602D01*
X427004Y739000D01*
X432996D01*
X435000Y738602D01*
X437004Y739000D01*
X782000D01*
X816000Y705000D01*
D02*
G37*
%LPC*%
G36*
X1237500Y737627D02*
X1234879Y737282D01*
X1232437Y736270D01*
X1230339Y734661D01*
X1228730Y732563D01*
X1227718Y730121D01*
X1227373Y727500D01*
X1227718Y724879D01*
X1228730Y722437D01*
X1230339Y720339D01*
X1232437Y718730D01*
X1234879Y717718D01*
X1237500Y717373D01*
X1240121Y717718D01*
X1242563Y718730D01*
X1244661Y720339D01*
X1246270Y722437D01*
X1247282Y724879D01*
X1247627Y727500D01*
X1247282Y730121D01*
X1246270Y732563D01*
X1244661Y734661D01*
X1242563Y736270D01*
X1240121Y737282D01*
X1237500Y737627D01*
D02*
G37*
G36*
X708000Y771227D02*
X705379Y770882D01*
X702937Y769870D01*
X700839Y768261D01*
X699230Y766163D01*
X698218Y763721D01*
X697873Y761100D01*
Y756100D01*
X698218Y753479D01*
X699230Y751037D01*
X700839Y748939D01*
X702937Y747330D01*
X705379Y746318D01*
X708000Y745973D01*
X710621Y746318D01*
X713063Y747330D01*
X715161Y748939D01*
X716770Y751037D01*
X717782Y753479D01*
X718127Y756100D01*
Y761100D01*
X717782Y763721D01*
X716770Y766163D01*
X715161Y768261D01*
X713063Y769870D01*
X710621Y770882D01*
X708000Y771227D01*
D02*
G37*
G36*
X733400D02*
X730779Y770882D01*
X728337Y769870D01*
X726239Y768261D01*
X724630Y766163D01*
X723618Y763721D01*
X723273Y761100D01*
Y756100D01*
X723618Y753479D01*
X724630Y751037D01*
X726239Y748939D01*
X728337Y747330D01*
X730779Y746318D01*
X733400Y745973D01*
X736021Y746318D01*
X738463Y747330D01*
X740561Y748939D01*
X742170Y751037D01*
X743182Y753479D01*
X743527Y756100D01*
Y761100D01*
X743182Y763721D01*
X742170Y766163D01*
X740561Y768261D01*
X738463Y769870D01*
X736021Y770882D01*
X733400Y771227D01*
D02*
G37*
G36*
X758800D02*
X756179Y770882D01*
X753737Y769870D01*
X751639Y768261D01*
X750030Y766163D01*
X749018Y763721D01*
X748673Y761100D01*
Y756100D01*
X749018Y753479D01*
X750030Y751037D01*
X751639Y748939D01*
X753737Y747330D01*
X756179Y746318D01*
X758800Y745973D01*
X761421Y746318D01*
X763863Y747330D01*
X765961Y748939D01*
X767570Y751037D01*
X768582Y753479D01*
X768927Y756100D01*
Y761100D01*
X768582Y763721D01*
X767570Y766163D01*
X765961Y768261D01*
X763863Y769870D01*
X761421Y770882D01*
X758800Y771227D01*
D02*
G37*
G36*
X588500Y771190D02*
X573500D01*
X572509Y770993D01*
X571669Y770431D01*
X571107Y769591D01*
X570910Y768600D01*
Y748600D01*
X571107Y747609D01*
X571669Y746769D01*
X572509Y746207D01*
X573500Y746010D01*
X588500D01*
X589491Y746207D01*
X590331Y746769D01*
X590893Y747609D01*
X591090Y748600D01*
Y768600D01*
X590893Y769591D01*
X590331Y770431D01*
X589491Y770993D01*
X588500Y771190D01*
D02*
G37*
G36*
X862250Y742648D02*
X860088Y742219D01*
X858256Y740994D01*
X857031Y739162D01*
X856601Y737000D01*
X857031Y734838D01*
X858256Y733006D01*
X860088Y731781D01*
X862250Y731351D01*
X862685Y731438D01*
X880374Y713748D01*
Y656128D01*
X880374Y656127D01*
X880650Y654740D01*
X881436Y653564D01*
X890064Y644936D01*
X890064Y644936D01*
X891240Y644150D01*
X892627Y643874D01*
X981260D01*
X981506Y643506D01*
X983338Y642281D01*
X985500Y641852D01*
X987662Y642281D01*
X989494Y643506D01*
X990719Y645338D01*
X991149Y647500D01*
X990719Y649662D01*
X989494Y651494D01*
X987662Y652719D01*
X985500Y653148D01*
X983338Y652719D01*
X981506Y651494D01*
X981260Y651126D01*
X894129D01*
X887626Y657629D01*
Y715250D01*
X887626Y715250D01*
X887350Y716637D01*
X886564Y717814D01*
X886564Y717814D01*
X867812Y736565D01*
X867898Y737000D01*
X867468Y739162D01*
X866244Y740994D01*
X864412Y742219D01*
X862250Y742648D01*
D02*
G37*
G36*
X329500Y692527D02*
X324500D01*
X321879Y692182D01*
X319437Y691170D01*
X317339Y689561D01*
X315730Y687463D01*
X314987Y685670D01*
X313613D01*
X312870Y687463D01*
X311261Y689561D01*
X309163Y691170D01*
X306721Y692182D01*
X304100Y692527D01*
X299100D01*
X296479Y692182D01*
X294037Y691170D01*
X291939Y689561D01*
X290330Y687463D01*
X289318Y685021D01*
X288973Y682400D01*
X289318Y679779D01*
X290330Y677337D01*
X291939Y675239D01*
X294037Y673630D01*
X296479Y672618D01*
X299100Y672273D01*
X304100D01*
X306721Y672618D01*
X309163Y673630D01*
X311261Y675239D01*
X312870Y677337D01*
X313613Y679130D01*
X314987D01*
X315730Y677337D01*
X317339Y675239D01*
X319437Y673630D01*
X321879Y672618D01*
X324500Y672273D01*
X329500D01*
X332121Y672618D01*
X334563Y673630D01*
X336661Y675239D01*
X338270Y677337D01*
X339282Y679779D01*
X339627Y682400D01*
X339282Y685021D01*
X338270Y687463D01*
X336661Y689561D01*
X334563Y691170D01*
X332121Y692182D01*
X329500Y692527D01*
D02*
G37*
G36*
X862250Y691649D02*
X860088Y691219D01*
X858256Y689994D01*
X857031Y688162D01*
X856601Y686000D01*
X857031Y683838D01*
X858256Y682006D01*
X860088Y680781D01*
X862250Y680351D01*
X864412Y680781D01*
X866244Y682006D01*
X867468Y683838D01*
X867898Y686000D01*
X867468Y688162D01*
X866244Y689994D01*
X864412Y691219D01*
X862250Y691649D01*
D02*
G37*
G36*
X657200Y771227D02*
X654579Y770882D01*
X652137Y769870D01*
X650039Y768261D01*
X648430Y766163D01*
X647418Y763721D01*
X647073Y761100D01*
Y756100D01*
X647418Y753479D01*
X648430Y751037D01*
X650039Y748939D01*
X652137Y747330D01*
X654579Y746318D01*
X657200Y745973D01*
X659821Y746318D01*
X662263Y747330D01*
X664361Y748939D01*
X665970Y751037D01*
X666982Y753479D01*
X667327Y756100D01*
Y761100D01*
X666982Y763721D01*
X665970Y766163D01*
X664361Y768261D01*
X662263Y769870D01*
X659821Y770882D01*
X657200Y771227D01*
D02*
G37*
G36*
X631800D02*
X629179Y770882D01*
X626737Y769870D01*
X624639Y768261D01*
X623030Y766163D01*
X622018Y763721D01*
X621673Y761100D01*
Y756100D01*
X622018Y753479D01*
X623030Y751037D01*
X624639Y748939D01*
X626737Y747330D01*
X629179Y746318D01*
X631800Y745973D01*
X634421Y746318D01*
X636863Y747330D01*
X638961Y748939D01*
X640570Y751037D01*
X641582Y753479D01*
X641927Y756100D01*
Y761100D01*
X641582Y763721D01*
X640570Y766163D01*
X638961Y768261D01*
X636863Y769870D01*
X634421Y770882D01*
X631800Y771227D01*
D02*
G37*
G36*
X682600D02*
X679979Y770882D01*
X677537Y769870D01*
X675439Y768261D01*
X673830Y766163D01*
X672818Y763721D01*
X672473Y761100D01*
Y756100D01*
X672818Y753479D01*
X673830Y751037D01*
X675439Y748939D01*
X677537Y747330D01*
X679979Y746318D01*
X682600Y745973D01*
X685221Y746318D01*
X687663Y747330D01*
X689761Y748939D01*
X691370Y751037D01*
X692382Y753479D01*
X692727Y756100D01*
Y761100D01*
X692382Y763721D01*
X691370Y766163D01*
X689761Y768261D01*
X687663Y769870D01*
X685221Y770882D01*
X682600Y771227D01*
D02*
G37*
G36*
X606400D02*
X603779Y770882D01*
X601337Y769870D01*
X599239Y768261D01*
X597630Y766163D01*
X596618Y763721D01*
X596273Y761100D01*
Y756100D01*
X596618Y753479D01*
X597630Y751037D01*
X599239Y748939D01*
X601337Y747330D01*
X603779Y746318D01*
X606400Y745973D01*
X609021Y746318D01*
X611463Y747330D01*
X613561Y748939D01*
X615170Y751037D01*
X616182Y753479D01*
X616527Y756100D01*
Y761100D01*
X616182Y763721D01*
X615170Y766163D01*
X613561Y768261D01*
X611463Y769870D01*
X609021Y770882D01*
X606400Y771227D01*
D02*
G37*
G36*
X876000Y380648D02*
X873838Y380219D01*
X872006Y378994D01*
X870781Y377162D01*
X870351Y375000D01*
X870781Y372838D01*
X872006Y371006D01*
X873838Y369781D01*
X876000Y369352D01*
X878162Y369781D01*
X879994Y371006D01*
X881219Y372838D01*
X881648Y375000D01*
X881219Y377162D01*
X879994Y378994D01*
X878162Y380219D01*
X876000Y380648D01*
D02*
G37*
G36*
X822000D02*
X819838Y380219D01*
X818006Y378994D01*
X816781Y377162D01*
X816351Y375000D01*
X816781Y372838D01*
X818006Y371006D01*
X819838Y369781D01*
X822000Y369352D01*
X824162Y369781D01*
X825994Y371006D01*
X827219Y372838D01*
X827648Y375000D01*
X827219Y377162D01*
X825994Y378994D01*
X824162Y380219D01*
X822000Y380648D01*
D02*
G37*
G36*
X537500Y398827D02*
X532500D01*
X529879Y398482D01*
X527437Y397470D01*
X525339Y395861D01*
X523730Y393763D01*
X522718Y391321D01*
X522373Y388700D01*
X522718Y386079D01*
X523730Y383637D01*
X525339Y381539D01*
X527437Y379930D01*
X529879Y378918D01*
X532500Y378573D01*
X537500D01*
X540121Y378918D01*
X542563Y379930D01*
X544661Y381539D01*
X546270Y383637D01*
X547282Y386079D01*
X547627Y388700D01*
X547282Y391321D01*
X546270Y393763D01*
X544661Y395861D01*
X542563Y397470D01*
X540121Y398482D01*
X537500Y398827D01*
D02*
G37*
G36*
X265000Y387649D02*
X262838Y387219D01*
X261006Y385994D01*
X259781Y384162D01*
X259352Y382000D01*
X259781Y379838D01*
X261006Y378006D01*
X262838Y376781D01*
X265000Y376352D01*
X267162Y376781D01*
X268994Y378006D01*
X270219Y379838D01*
X270649Y382000D01*
X270219Y384162D01*
X268994Y385994D01*
X267162Y387219D01*
X265000Y387649D01*
D02*
G37*
G36*
X329500Y362327D02*
X324500D01*
X321879Y361982D01*
X319437Y360970D01*
X317339Y359361D01*
X315730Y357263D01*
X314987Y355470D01*
X313613D01*
X312870Y357263D01*
X311261Y359361D01*
X309163Y360970D01*
X306721Y361982D01*
X304100Y362327D01*
X299100D01*
X296479Y361982D01*
X294037Y360970D01*
X291939Y359361D01*
X290330Y357263D01*
X289318Y354821D01*
X288973Y352200D01*
X289318Y349579D01*
X290330Y347137D01*
X291939Y345039D01*
X294037Y343430D01*
X296479Y342418D01*
X299100Y342073D01*
X304100D01*
X306721Y342418D01*
X309163Y343430D01*
X311261Y345039D01*
X312870Y347137D01*
X313613Y348930D01*
X314987D01*
X315730Y347137D01*
X317339Y345039D01*
X319437Y343430D01*
X321879Y342418D01*
X324500Y342073D01*
X329500D01*
X332121Y342418D01*
X334563Y343430D01*
X336661Y345039D01*
X338270Y347137D01*
X339282Y349579D01*
X339627Y352200D01*
X339282Y354821D01*
X338270Y357263D01*
X336661Y359361D01*
X334563Y360970D01*
X332121Y361982D01*
X329500Y362327D01*
D02*
G37*
G36*
X375000Y373527D02*
X370000D01*
X367379Y373182D01*
X364937Y372170D01*
X362839Y370561D01*
X361230Y368463D01*
X360218Y366021D01*
X359873Y363400D01*
X360218Y360779D01*
X361230Y358337D01*
X362839Y356239D01*
X364937Y354630D01*
X367379Y353618D01*
X370000Y353273D01*
X375000D01*
X377621Y353618D01*
X380063Y354630D01*
X382161Y356239D01*
X383770Y358337D01*
X384782Y360779D01*
X385127Y363400D01*
X384782Y366021D01*
X383770Y368463D01*
X382161Y370561D01*
X380063Y372170D01*
X377621Y373182D01*
X375000Y373527D01*
D02*
G37*
G36*
X735500Y373427D02*
X730500D01*
X727879Y373082D01*
X725437Y372070D01*
X723339Y370461D01*
X721730Y368363D01*
X720718Y365921D01*
X720373Y363300D01*
X720718Y360679D01*
X721730Y358237D01*
X723339Y356139D01*
X725437Y354530D01*
X727879Y353518D01*
X730500Y353173D01*
X735500D01*
X738121Y353518D01*
X740563Y354530D01*
X742661Y356139D01*
X744270Y358237D01*
X745282Y360679D01*
X745627Y363300D01*
X745282Y365921D01*
X744270Y368363D01*
X742661Y370461D01*
X740563Y372070D01*
X738121Y373082D01*
X735500Y373427D01*
D02*
G37*
G36*
X537500D02*
X532500D01*
X529879Y373082D01*
X527437Y372070D01*
X525339Y370461D01*
X523730Y368363D01*
X522718Y365921D01*
X522373Y363300D01*
X522718Y360679D01*
X523730Y358237D01*
X525339Y356139D01*
X527437Y354530D01*
X529879Y353518D01*
X532500Y353173D01*
X537500D01*
X540121Y353518D01*
X542563Y354530D01*
X544661Y356139D01*
X546270Y358237D01*
X547282Y360679D01*
X547627Y363300D01*
X547282Y365921D01*
X546270Y368363D01*
X544661Y370461D01*
X542563Y372070D01*
X540121Y373082D01*
X537500Y373427D01*
D02*
G37*
G36*
X699500Y373527D02*
X694500D01*
X691879Y373182D01*
X689437Y372170D01*
X687339Y370561D01*
X685730Y368463D01*
X684718Y366021D01*
X684373Y363400D01*
X684718Y360779D01*
X685730Y358337D01*
X687339Y356239D01*
X689437Y354630D01*
X691879Y353618D01*
X694500Y353273D01*
X699500D01*
X702121Y353618D01*
X704563Y354630D01*
X706661Y356239D01*
X708270Y358337D01*
X709282Y360779D01*
X709627Y363400D01*
X709282Y366021D01*
X708270Y368463D01*
X706661Y370561D01*
X704563Y372170D01*
X702121Y373182D01*
X699500Y373527D01*
D02*
G37*
G36*
X572500D02*
X567500D01*
X564879Y373182D01*
X562437Y372170D01*
X560339Y370561D01*
X558730Y368463D01*
X557718Y366021D01*
X557373Y363400D01*
X557718Y360779D01*
X558730Y358337D01*
X560339Y356239D01*
X562437Y354630D01*
X564879Y353618D01*
X567500Y353273D01*
X572500D01*
X575121Y353618D01*
X577563Y354630D01*
X579661Y356239D01*
X581270Y358337D01*
X582282Y360779D01*
X582627Y363400D01*
X582282Y366021D01*
X581270Y368463D01*
X579661Y370561D01*
X577563Y372170D01*
X575121Y373182D01*
X572500Y373527D01*
D02*
G37*
G36*
X502000D02*
X497000D01*
X494379Y373182D01*
X491937Y372170D01*
X489839Y370561D01*
X488230Y368463D01*
X487218Y366021D01*
X486873Y363400D01*
X487218Y360779D01*
X488230Y358337D01*
X489839Y356239D01*
X491937Y354630D01*
X494379Y353618D01*
X497000Y353273D01*
X502000D01*
X504621Y353618D01*
X507063Y354630D01*
X509161Y356239D01*
X510770Y358337D01*
X511782Y360779D01*
X512127Y363400D01*
X511782Y366021D01*
X510770Y368463D01*
X509161Y370561D01*
X507063Y372170D01*
X504621Y373182D01*
X502000Y373527D01*
D02*
G37*
G36*
X735500Y398827D02*
X730500D01*
X727879Y398482D01*
X725437Y397470D01*
X723339Y395861D01*
X721730Y393763D01*
X720718Y391321D01*
X720373Y388700D01*
X720718Y386079D01*
X721730Y383637D01*
X723339Y381539D01*
X725437Y379930D01*
X727879Y378918D01*
X730500Y378573D01*
X735500D01*
X738121Y378918D01*
X740563Y379930D01*
X742661Y381539D01*
X744270Y383637D01*
X745282Y386079D01*
X745627Y388700D01*
X745282Y391321D01*
X744270Y393763D01*
X742661Y395861D01*
X740563Y397470D01*
X738121Y398482D01*
X735500Y398827D01*
D02*
G37*
G36*
X502000Y424327D02*
X497000D01*
X494379Y423982D01*
X491937Y422970D01*
X489839Y421361D01*
X488230Y419263D01*
X487218Y416821D01*
X486873Y414200D01*
X487218Y411579D01*
X488230Y409137D01*
X489839Y407039D01*
X491937Y405430D01*
X494379Y404418D01*
X497000Y404073D01*
X502000D01*
X504621Y404418D01*
X507063Y405430D01*
X509161Y407039D01*
X510770Y409137D01*
X511782Y411579D01*
X512127Y414200D01*
X511782Y416821D01*
X510770Y419263D01*
X509161Y421361D01*
X507063Y422970D01*
X504621Y423982D01*
X502000Y424327D01*
D02*
G37*
G36*
X375000D02*
X370000D01*
X367379Y423982D01*
X364937Y422970D01*
X362839Y421361D01*
X361230Y419263D01*
X360218Y416821D01*
X359873Y414200D01*
X360218Y411579D01*
X361230Y409137D01*
X362839Y407039D01*
X364937Y405430D01*
X367379Y404418D01*
X370000Y404073D01*
X375000D01*
X377621Y404418D01*
X380063Y405430D01*
X382161Y407039D01*
X383770Y409137D01*
X384782Y411579D01*
X385127Y414200D01*
X384782Y416821D01*
X383770Y419263D01*
X382161Y421361D01*
X380063Y422970D01*
X377621Y423982D01*
X375000Y424327D01*
D02*
G37*
G36*
X743000Y424190D02*
X723000D01*
X722009Y423993D01*
X721169Y423431D01*
X720607Y422591D01*
X720410Y421600D01*
Y406600D01*
X720607Y405609D01*
X721169Y404769D01*
X722009Y404207D01*
X723000Y404010D01*
X743000D01*
X743991Y404207D01*
X744831Y404769D01*
X745393Y405609D01*
X745590Y406600D01*
Y421600D01*
X745393Y422591D01*
X744831Y423431D01*
X743991Y423993D01*
X743000Y424190D01*
D02*
G37*
G36*
X329500Y413127D02*
X324500D01*
X321879Y412782D01*
X319437Y411770D01*
X317339Y410161D01*
X315730Y408063D01*
X314987Y406270D01*
X313613D01*
X312870Y408063D01*
X311261Y410161D01*
X309163Y411770D01*
X306721Y412782D01*
X304100Y413127D01*
X299100D01*
X296479Y412782D01*
X294037Y411770D01*
X291939Y410161D01*
X290330Y408063D01*
X289318Y405621D01*
X288973Y403000D01*
X289318Y400379D01*
X290330Y397937D01*
X291939Y395839D01*
X294037Y394230D01*
X296479Y393218D01*
X299100Y392873D01*
X304100D01*
X306721Y393218D01*
X309163Y394230D01*
X311261Y395839D01*
X312870Y397937D01*
X313613Y399730D01*
X314987D01*
X315730Y397937D01*
X317339Y395839D01*
X319437Y394230D01*
X321879Y393218D01*
X324500Y392873D01*
X329500D01*
X332121Y393218D01*
X334563Y394230D01*
X336661Y395839D01*
X338270Y397937D01*
X339282Y400379D01*
X339627Y403000D01*
X339282Y405621D01*
X338270Y408063D01*
X336661Y410161D01*
X334563Y411770D01*
X332121Y412782D01*
X329500Y413127D01*
D02*
G37*
G36*
X699500Y424327D02*
X694500D01*
X691879Y423982D01*
X689437Y422970D01*
X687339Y421361D01*
X685730Y419263D01*
X684718Y416821D01*
X684373Y414200D01*
X684718Y411579D01*
X685730Y409137D01*
X687339Y407039D01*
X689437Y405430D01*
X691879Y404418D01*
X694500Y404073D01*
X699500D01*
X702121Y404418D01*
X704563Y405430D01*
X706661Y407039D01*
X708270Y409137D01*
X709282Y411579D01*
X709627Y414200D01*
X709282Y416821D01*
X708270Y419263D01*
X706661Y421361D01*
X704563Y422970D01*
X702121Y423982D01*
X699500Y424327D01*
D02*
G37*
G36*
X572500D02*
X567500D01*
X564879Y423982D01*
X562437Y422970D01*
X560339Y421361D01*
X558730Y419263D01*
X557718Y416821D01*
X557373Y414200D01*
X557718Y411579D01*
X558730Y409137D01*
X560339Y407039D01*
X562437Y405430D01*
X564879Y404418D01*
X567500Y404073D01*
X572500D01*
X575121Y404418D01*
X577563Y405430D01*
X579661Y407039D01*
X581270Y409137D01*
X582282Y411579D01*
X582627Y414200D01*
X582282Y416821D01*
X581270Y419263D01*
X579661Y421361D01*
X577563Y422970D01*
X575121Y423982D01*
X572500Y424327D01*
D02*
G37*
G36*
X545000Y424190D02*
X525000D01*
X524009Y423993D01*
X523169Y423431D01*
X522607Y422591D01*
X522410Y421600D01*
Y406600D01*
X522607Y405609D01*
X523169Y404769D01*
X524009Y404207D01*
X525000Y404010D01*
X545000D01*
X545991Y404207D01*
X546831Y404769D01*
X547393Y405609D01*
X547590Y406600D01*
Y421600D01*
X547393Y422591D01*
X546831Y423431D01*
X545991Y423993D01*
X545000Y424190D01*
D02*
G37*
G36*
X572500Y398927D02*
X567500D01*
X564879Y398582D01*
X562437Y397570D01*
X560339Y395961D01*
X558730Y393863D01*
X557718Y391421D01*
X557373Y388800D01*
X557718Y386179D01*
X558730Y383737D01*
X560339Y381639D01*
X562437Y380030D01*
X564879Y379018D01*
X567500Y378673D01*
X572500D01*
X575121Y379018D01*
X577563Y380030D01*
X579661Y381639D01*
X581270Y383737D01*
X582282Y386179D01*
X582627Y388800D01*
X582282Y391421D01*
X581270Y393863D01*
X579661Y395961D01*
X577563Y397570D01*
X575121Y398582D01*
X572500Y398927D01*
D02*
G37*
G36*
X502000D02*
X497000D01*
X494379Y398582D01*
X491937Y397570D01*
X489839Y395961D01*
X488230Y393863D01*
X487218Y391421D01*
X486873Y388800D01*
X487218Y386179D01*
X488230Y383737D01*
X489839Y381639D01*
X491937Y380030D01*
X494379Y379018D01*
X497000Y378673D01*
X502000D01*
X504621Y379018D01*
X507063Y380030D01*
X509161Y381639D01*
X510770Y383737D01*
X511782Y386179D01*
X512127Y388800D01*
X511782Y391421D01*
X510770Y393863D01*
X509161Y395961D01*
X507063Y397570D01*
X504621Y398582D01*
X502000Y398927D01*
D02*
G37*
G36*
X375000D02*
X370000D01*
X367379Y398582D01*
X364937Y397570D01*
X362839Y395961D01*
X361230Y393863D01*
X360218Y391421D01*
X359873Y388800D01*
X360218Y386179D01*
X361230Y383737D01*
X362839Y381639D01*
X364937Y380030D01*
X367379Y379018D01*
X370000Y378673D01*
X375000D01*
X377621Y379018D01*
X380063Y380030D01*
X382161Y381639D01*
X383770Y383737D01*
X384782Y386179D01*
X385127Y388800D01*
X384782Y391421D01*
X383770Y393863D01*
X382161Y395961D01*
X380063Y397570D01*
X377621Y398582D01*
X375000Y398927D01*
D02*
G37*
G36*
X800000Y410648D02*
X797838Y410219D01*
X796006Y408994D01*
X794781Y407162D01*
X794352Y405000D01*
X794781Y402838D01*
X796006Y401006D01*
X797838Y399781D01*
X800000Y399352D01*
X802162Y399781D01*
X803994Y401006D01*
X805219Y402838D01*
X805649Y405000D01*
X805219Y407162D01*
X803994Y408994D01*
X802162Y410219D01*
X800000Y410648D01*
D02*
G37*
G36*
X329500Y387727D02*
X324500D01*
X321879Y387382D01*
X319437Y386370D01*
X317339Y384761D01*
X315730Y382663D01*
X314987Y380870D01*
X313613D01*
X312870Y382663D01*
X311261Y384761D01*
X309163Y386370D01*
X306721Y387382D01*
X304100Y387727D01*
X299100D01*
X296479Y387382D01*
X294037Y386370D01*
X291939Y384761D01*
X290330Y382663D01*
X289318Y380221D01*
X288973Y377600D01*
X289318Y374979D01*
X290330Y372537D01*
X291939Y370439D01*
X294037Y368830D01*
X296479Y367818D01*
X299100Y367473D01*
X304100D01*
X306721Y367818D01*
X309163Y368830D01*
X311261Y370439D01*
X312870Y372537D01*
X313613Y374330D01*
X314987D01*
X315730Y372537D01*
X317339Y370439D01*
X319437Y368830D01*
X321879Y367818D01*
X324500Y367473D01*
X329500D01*
X332121Y367818D01*
X334563Y368830D01*
X336661Y370439D01*
X338270Y372537D01*
X339282Y374979D01*
X339627Y377600D01*
X339282Y380221D01*
X338270Y382663D01*
X336661Y384761D01*
X334563Y386370D01*
X332121Y387382D01*
X329500Y387727D01*
D02*
G37*
G36*
X699500Y398927D02*
X694500D01*
X691879Y398582D01*
X689437Y397570D01*
X687339Y395961D01*
X685730Y393863D01*
X684718Y391421D01*
X684373Y388800D01*
X684718Y386179D01*
X685730Y383737D01*
X687339Y381639D01*
X689437Y380030D01*
X691879Y379018D01*
X694500Y378673D01*
X699500D01*
X702121Y379018D01*
X704563Y380030D01*
X706661Y381639D01*
X708270Y383737D01*
X709282Y386179D01*
X709627Y388800D01*
X709282Y391421D01*
X708270Y393863D01*
X706661Y395961D01*
X704563Y397570D01*
X702121Y398582D01*
X699500Y398927D01*
D02*
G37*
G36*
X329500Y336927D02*
X324500D01*
X321879Y336582D01*
X319437Y335570D01*
X317339Y333961D01*
X315730Y331863D01*
X314987Y330070D01*
X313613D01*
X312870Y331863D01*
X311261Y333961D01*
X309163Y335570D01*
X306721Y336582D01*
X304100Y336927D01*
X299100D01*
X296479Y336582D01*
X294037Y335570D01*
X291939Y333961D01*
X290330Y331863D01*
X289318Y329421D01*
X288973Y326800D01*
X289318Y324179D01*
X290330Y321737D01*
X291939Y319639D01*
X294037Y318030D01*
X296479Y317018D01*
X299100Y316673D01*
X304100D01*
X306721Y317018D01*
X309163Y318030D01*
X311261Y319639D01*
X312870Y321737D01*
X313613Y323530D01*
X314987D01*
X315730Y321737D01*
X317339Y319639D01*
X319437Y318030D01*
X321879Y317018D01*
X324500Y316673D01*
X329500D01*
X332121Y317018D01*
X334563Y318030D01*
X336661Y319639D01*
X338270Y321737D01*
X339282Y324179D01*
X339627Y326800D01*
X339282Y329421D01*
X338270Y331863D01*
X336661Y333961D01*
X334563Y335570D01*
X332121Y336582D01*
X329500Y336927D01*
D02*
G37*
G36*
X502000Y297327D02*
X497000D01*
X494379Y296982D01*
X491937Y295970D01*
X489839Y294361D01*
X488230Y292263D01*
X487218Y289821D01*
X486873Y287200D01*
X487218Y284579D01*
X488230Y282137D01*
X489839Y280039D01*
X491937Y278430D01*
X494379Y277418D01*
X497000Y277073D01*
X502000D01*
X504621Y277418D01*
X507063Y278430D01*
X509161Y280039D01*
X510770Y282137D01*
X511782Y284579D01*
X512127Y287200D01*
X511782Y289821D01*
X510770Y292263D01*
X509161Y294361D01*
X507063Y295970D01*
X504621Y296982D01*
X502000Y297327D01*
D02*
G37*
G36*
X857740Y288590D02*
X842740D01*
X841749Y288393D01*
X840909Y287831D01*
X840347Y286991D01*
X840150Y286000D01*
Y266000D01*
X840347Y265009D01*
X840909Y264169D01*
X841749Y263607D01*
X842740Y263410D01*
X857740D01*
X858731Y263607D01*
X859571Y264169D01*
X860133Y265009D01*
X860330Y266000D01*
Y286000D01*
X860133Y286991D01*
X859571Y287831D01*
X858731Y288393D01*
X857740Y288590D01*
D02*
G37*
G36*
X817100D02*
X802100D01*
X801109Y288393D01*
X800269Y287831D01*
X799707Y286991D01*
X799510Y286000D01*
Y266000D01*
X799707Y265009D01*
X800269Y264169D01*
X801109Y263607D01*
X802100Y263410D01*
X817100D01*
X818091Y263607D01*
X818931Y264169D01*
X819493Y265009D01*
X819690Y266000D01*
Y286000D01*
X819493Y286991D01*
X818931Y287831D01*
X818091Y288393D01*
X817100Y288590D01*
D02*
G37*
G36*
X572500Y297327D02*
X567500D01*
X564879Y296982D01*
X562437Y295970D01*
X560339Y294361D01*
X558730Y292263D01*
X557718Y289821D01*
X557373Y287200D01*
X557718Y284579D01*
X558730Y282137D01*
X560339Y280039D01*
X562437Y278430D01*
X564879Y277418D01*
X567500Y277073D01*
X572500D01*
X575121Y277418D01*
X577563Y278430D01*
X579661Y280039D01*
X581270Y282137D01*
X582282Y284579D01*
X582627Y287200D01*
X582282Y289821D01*
X581270Y292263D01*
X579661Y294361D01*
X577563Y295970D01*
X575121Y296982D01*
X572500Y297327D01*
D02*
G37*
G36*
X926440Y288627D02*
X923819Y288282D01*
X921377Y287270D01*
X919279Y285661D01*
X917670Y283563D01*
X916658Y281121D01*
X916313Y278500D01*
Y273500D01*
X916658Y270879D01*
X917670Y268437D01*
X919279Y266339D01*
X921377Y264730D01*
X923819Y263718D01*
X926440Y263373D01*
X929061Y263718D01*
X931503Y264730D01*
X933601Y266339D01*
X935210Y268437D01*
X936222Y270879D01*
X936567Y273500D01*
Y278500D01*
X936222Y281121D01*
X935210Y283563D01*
X933601Y285661D01*
X931503Y287270D01*
X929061Y288282D01*
X926440Y288627D01*
D02*
G37*
G36*
X758800D02*
X756179Y288282D01*
X753737Y287270D01*
X751639Y285661D01*
X750030Y283563D01*
X749018Y281121D01*
X748673Y278500D01*
Y273500D01*
X749018Y270879D01*
X750030Y268437D01*
X751639Y266339D01*
X753737Y264730D01*
X756179Y263718D01*
X758800Y263373D01*
X761421Y263718D01*
X763863Y264730D01*
X765961Y266339D01*
X767570Y268437D01*
X768582Y270879D01*
X768927Y273500D01*
Y278500D01*
X768582Y281121D01*
X767570Y283563D01*
X765961Y285661D01*
X763863Y287270D01*
X761421Y288282D01*
X758800Y288627D01*
D02*
G37*
G36*
X733400D02*
X730779Y288282D01*
X728337Y287270D01*
X726239Y285661D01*
X724630Y283563D01*
X723618Y281121D01*
X723273Y278500D01*
Y273500D01*
X723618Y270879D01*
X724630Y268437D01*
X726239Y266339D01*
X728337Y264730D01*
X730779Y263718D01*
X733400Y263373D01*
X736021Y263718D01*
X738463Y264730D01*
X740561Y266339D01*
X742170Y268437D01*
X743182Y270879D01*
X743527Y273500D01*
Y278500D01*
X743182Y281121D01*
X742170Y283563D01*
X740561Y285661D01*
X738463Y287270D01*
X736021Y288282D01*
X733400Y288627D01*
D02*
G37*
G36*
X901040D02*
X898419Y288282D01*
X895977Y287270D01*
X893879Y285661D01*
X892270Y283563D01*
X891258Y281121D01*
X890913Y278500D01*
Y273500D01*
X891258Y270879D01*
X892270Y268437D01*
X893879Y266339D01*
X895977Y264730D01*
X898419Y263718D01*
X901040Y263373D01*
X903661Y263718D01*
X906103Y264730D01*
X908201Y266339D01*
X909810Y268437D01*
X910822Y270879D01*
X911167Y273500D01*
Y278500D01*
X910822Y281121D01*
X909810Y283563D01*
X908201Y285661D01*
X906103Y287270D01*
X903661Y288282D01*
X901040Y288627D01*
D02*
G37*
G36*
X875640D02*
X873019Y288282D01*
X870577Y287270D01*
X868479Y285661D01*
X866870Y283563D01*
X865858Y281121D01*
X865513Y278500D01*
Y273500D01*
X865858Y270879D01*
X866870Y268437D01*
X868479Y266339D01*
X870577Y264730D01*
X873019Y263718D01*
X875640Y263373D01*
X878261Y263718D01*
X880703Y264730D01*
X882801Y266339D01*
X884410Y268437D01*
X885422Y270879D01*
X885767Y273500D01*
Y278500D01*
X885422Y281121D01*
X884410Y283563D01*
X882801Y285661D01*
X880703Y287270D01*
X878261Y288282D01*
X875640Y288627D01*
D02*
G37*
G36*
X784200D02*
X781579Y288282D01*
X779137Y287270D01*
X777039Y285661D01*
X775430Y283563D01*
X774418Y281121D01*
X774073Y278500D01*
Y273500D01*
X774418Y270879D01*
X775430Y268437D01*
X777039Y266339D01*
X779137Y264730D01*
X781579Y263718D01*
X784200Y263373D01*
X786821Y263718D01*
X789263Y264730D01*
X791361Y266339D01*
X792970Y268437D01*
X793982Y270879D01*
X794327Y273500D01*
Y278500D01*
X793982Y281121D01*
X792970Y283563D01*
X791361Y285661D01*
X789263Y287270D01*
X786821Y288282D01*
X784200Y288627D01*
D02*
G37*
G36*
X375000Y348127D02*
X370000D01*
X367379Y347782D01*
X364937Y346770D01*
X362839Y345161D01*
X361230Y343063D01*
X360218Y340621D01*
X359873Y338000D01*
X360218Y335379D01*
X361230Y332937D01*
X362839Y330839D01*
X364937Y329230D01*
X367379Y328218D01*
X370000Y327873D01*
X375000D01*
X377621Y328218D01*
X380063Y329230D01*
X382161Y330839D01*
X383770Y332937D01*
X384782Y335379D01*
X385127Y338000D01*
X384782Y340621D01*
X383770Y343063D01*
X382161Y345161D01*
X380063Y346770D01*
X377621Y347782D01*
X375000Y348127D01*
D02*
G37*
G36*
X735500Y348027D02*
X730500D01*
X727879Y347682D01*
X725437Y346670D01*
X723339Y345061D01*
X721730Y342963D01*
X720718Y340521D01*
X720373Y337900D01*
X720718Y335279D01*
X721730Y332837D01*
X723339Y330739D01*
X725437Y329130D01*
X727879Y328118D01*
X730500Y327773D01*
X735500D01*
X738121Y328118D01*
X740563Y329130D01*
X742661Y330739D01*
X744270Y332837D01*
X745282Y335279D01*
X745627Y337900D01*
X745282Y340521D01*
X744270Y342963D01*
X742661Y345061D01*
X740563Y346670D01*
X738121Y347682D01*
X735500Y348027D01*
D02*
G37*
G36*
X537500D02*
X532500D01*
X529879Y347682D01*
X527437Y346670D01*
X525339Y345061D01*
X523730Y342963D01*
X522718Y340521D01*
X522373Y337900D01*
X522718Y335279D01*
X523730Y332837D01*
X525339Y330739D01*
X527437Y329130D01*
X529879Y328118D01*
X532500Y327773D01*
X537500D01*
X540121Y328118D01*
X542563Y329130D01*
X544661Y330739D01*
X546270Y332837D01*
X547282Y335279D01*
X547627Y337900D01*
X547282Y340521D01*
X546270Y342963D01*
X544661Y345061D01*
X542563Y346670D01*
X540121Y347682D01*
X537500Y348027D01*
D02*
G37*
G36*
X699500Y348127D02*
X694500D01*
X691879Y347782D01*
X689437Y346770D01*
X687339Y345161D01*
X685730Y343063D01*
X684718Y340621D01*
X684373Y338000D01*
X684718Y335379D01*
X685730Y332937D01*
X687339Y330839D01*
X689437Y329230D01*
X691879Y328218D01*
X694500Y327873D01*
X699500D01*
X702121Y328218D01*
X704563Y329230D01*
X706661Y330839D01*
X708270Y332937D01*
X709282Y335379D01*
X709627Y338000D01*
X709282Y340621D01*
X708270Y343063D01*
X706661Y345161D01*
X704563Y346770D01*
X702121Y347782D01*
X699500Y348127D01*
D02*
G37*
G36*
X572500D02*
X567500D01*
X564879Y347782D01*
X562437Y346770D01*
X560339Y345161D01*
X558730Y343063D01*
X557718Y340621D01*
X557373Y338000D01*
X557718Y335379D01*
X558730Y332937D01*
X560339Y330839D01*
X562437Y329230D01*
X564879Y328218D01*
X567500Y327873D01*
X572500D01*
X575121Y328218D01*
X577563Y329230D01*
X579661Y330839D01*
X581270Y332937D01*
X582282Y335379D01*
X582627Y338000D01*
X582282Y340621D01*
X581270Y343063D01*
X579661Y345161D01*
X577563Y346770D01*
X575121Y347782D01*
X572500Y348127D01*
D02*
G37*
G36*
X502000D02*
X497000D01*
X494379Y347782D01*
X491937Y346770D01*
X489839Y345161D01*
X488230Y343063D01*
X487218Y340621D01*
X486873Y338000D01*
X487218Y335379D01*
X488230Y332937D01*
X489839Y330839D01*
X491937Y329230D01*
X494379Y328218D01*
X497000Y327873D01*
X502000D01*
X504621Y328218D01*
X507063Y329230D01*
X509161Y330839D01*
X510770Y332937D01*
X511782Y335379D01*
X512127Y338000D01*
X511782Y340621D01*
X510770Y343063D01*
X509161Y345161D01*
X507063Y346770D01*
X504621Y347782D01*
X502000Y348127D01*
D02*
G37*
G36*
X265000Y332649D02*
X262838Y332219D01*
X261006Y330994D01*
X259781Y329162D01*
X259352Y327000D01*
X259781Y324838D01*
X261006Y323006D01*
X262838Y321781D01*
X265000Y321352D01*
X267162Y321781D01*
X268994Y323006D01*
X270219Y324838D01*
X270649Y327000D01*
X270219Y329162D01*
X268994Y330994D01*
X267162Y332219D01*
X265000Y332649D01*
D02*
G37*
G36*
X572500Y322727D02*
X567500D01*
X564879Y322382D01*
X562437Y321370D01*
X560339Y319761D01*
X558730Y317663D01*
X557718Y315221D01*
X557373Y312600D01*
X557718Y309979D01*
X558730Y307537D01*
X560339Y305439D01*
X562437Y303830D01*
X564879Y302818D01*
X567500Y302473D01*
X572500D01*
X575121Y302818D01*
X577563Y303830D01*
X579661Y305439D01*
X581270Y307537D01*
X582282Y309979D01*
X582627Y312600D01*
X582282Y315221D01*
X581270Y317663D01*
X579661Y319761D01*
X577563Y321370D01*
X575121Y322382D01*
X572500Y322727D01*
D02*
G37*
G36*
X375000D02*
X370000D01*
X367379Y322382D01*
X364937Y321370D01*
X362839Y319761D01*
X361230Y317663D01*
X360218Y315221D01*
X359873Y312600D01*
X360218Y309979D01*
X361230Y307537D01*
X362839Y305439D01*
X364937Y303830D01*
X367379Y302818D01*
X370000Y302473D01*
X375000D01*
X377621Y302818D01*
X380063Y303830D01*
X382161Y305439D01*
X383770Y307537D01*
X384782Y309979D01*
X385127Y312600D01*
X384782Y315221D01*
X383770Y317663D01*
X382161Y319761D01*
X380063Y321370D01*
X377621Y322382D01*
X375000Y322727D01*
D02*
G37*
G36*
X800000Y330648D02*
X797838Y330219D01*
X796006Y328994D01*
X794781Y327162D01*
X794352Y325000D01*
X794781Y322838D01*
X796006Y321006D01*
X797838Y319781D01*
X800000Y319352D01*
X802162Y319781D01*
X803994Y321006D01*
X805219Y322838D01*
X805648Y325000D01*
X805219Y327162D01*
X803994Y328994D01*
X802162Y330219D01*
X800000Y330648D01*
D02*
G37*
G36*
X988000Y328148D02*
X985838Y327719D01*
X984006Y326494D01*
X982781Y324662D01*
X982352Y322500D01*
X982781Y320338D01*
X984006Y318506D01*
X985838Y317281D01*
X988000Y316852D01*
X990162Y317281D01*
X991994Y318506D01*
X993219Y320338D01*
X993649Y322500D01*
X993219Y324662D01*
X991994Y326494D01*
X990162Y327719D01*
X988000Y328148D01*
D02*
G37*
G36*
X884500Y325648D02*
X882338Y325219D01*
X880506Y323994D01*
X879281Y322162D01*
X878851Y320000D01*
X879281Y317838D01*
X880506Y316006D01*
X882338Y314781D01*
X884500Y314352D01*
X886662Y314781D01*
X888494Y316006D01*
X889718Y317838D01*
X890148Y320000D01*
X889718Y322162D01*
X888494Y323994D01*
X886662Y325219D01*
X884500Y325648D01*
D02*
G37*
G36*
X699500Y449727D02*
X694500D01*
X691879Y449382D01*
X689437Y448370D01*
X687339Y446761D01*
X685730Y444663D01*
X684718Y442221D01*
X684373Y439600D01*
X684718Y436979D01*
X685730Y434537D01*
X687339Y432439D01*
X689437Y430830D01*
X691879Y429818D01*
X694500Y429473D01*
X699500D01*
X702121Y429818D01*
X704563Y430830D01*
X706661Y432439D01*
X708270Y434537D01*
X709282Y436979D01*
X709627Y439600D01*
X709282Y442221D01*
X708270Y444663D01*
X706661Y446761D01*
X704563Y448370D01*
X702121Y449382D01*
X699500Y449727D01*
D02*
G37*
G36*
X502000Y613927D02*
X497000D01*
X494379Y613582D01*
X491937Y612570D01*
X489839Y610961D01*
X488230Y608863D01*
X487218Y606421D01*
X486873Y603800D01*
X487218Y601179D01*
X488230Y598737D01*
X489839Y596639D01*
X491937Y595030D01*
X494379Y594018D01*
X497000Y593673D01*
X502000D01*
X504621Y594018D01*
X507063Y595030D01*
X509161Y596639D01*
X510770Y598737D01*
X511782Y601179D01*
X512127Y603800D01*
X511782Y606421D01*
X510770Y608863D01*
X509161Y610961D01*
X507063Y612570D01*
X504621Y613582D01*
X502000Y613927D01*
D02*
G37*
G36*
X375000D02*
X370000D01*
X367379Y613582D01*
X364937Y612570D01*
X362839Y610961D01*
X361230Y608863D01*
X360218Y606421D01*
X359873Y603800D01*
X360218Y601179D01*
X361230Y598737D01*
X362839Y596639D01*
X364937Y595030D01*
X367379Y594018D01*
X370000Y593673D01*
X375000D01*
X377621Y594018D01*
X380063Y595030D01*
X382161Y596639D01*
X383770Y598737D01*
X384782Y601179D01*
X385127Y603800D01*
X384782Y606421D01*
X383770Y608863D01*
X382161Y610961D01*
X380063Y612570D01*
X377621Y613582D01*
X375000Y613927D01*
D02*
G37*
G36*
X735500Y613827D02*
X730500D01*
X727879Y613482D01*
X725437Y612470D01*
X723339Y610861D01*
X721730Y608763D01*
X720718Y606321D01*
X720373Y603700D01*
X720718Y601079D01*
X721730Y598637D01*
X723339Y596539D01*
X725437Y594930D01*
X727879Y593918D01*
X730500Y593573D01*
X735500D01*
X738121Y593918D01*
X740563Y594930D01*
X742661Y596539D01*
X744270Y598637D01*
X745282Y601079D01*
X745627Y603700D01*
X745282Y606321D01*
X744270Y608763D01*
X742661Y610861D01*
X740563Y612470D01*
X738121Y613482D01*
X735500Y613827D01*
D02*
G37*
G36*
X265000Y620149D02*
X262838Y619719D01*
X261006Y618494D01*
X259781Y616662D01*
X259352Y614500D01*
X259781Y612338D01*
X261006Y610506D01*
X262838Y609282D01*
X265000Y608852D01*
X267162Y609282D01*
X268994Y610506D01*
X270219Y612338D01*
X270649Y614500D01*
X270219Y616662D01*
X268994Y618494D01*
X267162Y619719D01*
X265000Y620149D01*
D02*
G37*
G36*
X797500Y615648D02*
X795338Y615219D01*
X793506Y613994D01*
X792281Y612162D01*
X791852Y610000D01*
X792281Y607838D01*
X793506Y606006D01*
X795338Y604781D01*
X797500Y604352D01*
X799662Y604781D01*
X801494Y606006D01*
X802719Y607838D01*
X803148Y610000D01*
X802719Y612162D01*
X801494Y613994D01*
X799662Y615219D01*
X797500Y615648D01*
D02*
G37*
G36*
X699500Y613927D02*
X694500D01*
X691879Y613582D01*
X689437Y612570D01*
X687339Y610961D01*
X685730Y608863D01*
X684718Y606421D01*
X684373Y603800D01*
X684718Y601179D01*
X685730Y598737D01*
X687339Y596639D01*
X689437Y595030D01*
X691879Y594018D01*
X694500Y593673D01*
X699500D01*
X702121Y594018D01*
X704563Y595030D01*
X706661Y596639D01*
X708270Y598737D01*
X709282Y601179D01*
X709627Y603800D01*
X709282Y606421D01*
X708270Y608863D01*
X706661Y610961D01*
X704563Y612570D01*
X702121Y613582D01*
X699500Y613927D01*
D02*
G37*
G36*
X502000Y588527D02*
X497000D01*
X494379Y588182D01*
X491937Y587170D01*
X489839Y585561D01*
X488230Y583463D01*
X487218Y581021D01*
X486873Y578400D01*
X487218Y575779D01*
X488230Y573337D01*
X489839Y571239D01*
X491937Y569630D01*
X494379Y568618D01*
X497000Y568273D01*
X502000D01*
X504621Y568618D01*
X507063Y569630D01*
X509161Y571239D01*
X510770Y573337D01*
X511782Y575779D01*
X512127Y578400D01*
X511782Y581021D01*
X510770Y583463D01*
X509161Y585561D01*
X507063Y587170D01*
X504621Y588182D01*
X502000Y588527D01*
D02*
G37*
G36*
X375000D02*
X370000D01*
X367379Y588182D01*
X364937Y587170D01*
X362839Y585561D01*
X361230Y583463D01*
X360218Y581021D01*
X359873Y578400D01*
X360218Y575779D01*
X361230Y573337D01*
X362839Y571239D01*
X364937Y569630D01*
X367379Y568618D01*
X370000Y568273D01*
X375000D01*
X377621Y568618D01*
X380063Y569630D01*
X382161Y571239D01*
X383770Y573337D01*
X384782Y575779D01*
X385127Y578400D01*
X384782Y581021D01*
X383770Y583463D01*
X382161Y585561D01*
X380063Y587170D01*
X377621Y588182D01*
X375000Y588527D01*
D02*
G37*
G36*
X735500Y588427D02*
X730500D01*
X727879Y588082D01*
X725437Y587070D01*
X723339Y585461D01*
X721730Y583363D01*
X720718Y580921D01*
X720373Y578300D01*
X720718Y575679D01*
X721730Y573237D01*
X723339Y571139D01*
X725437Y569530D01*
X727879Y568518D01*
X730500Y568173D01*
X735500D01*
X738121Y568518D01*
X740563Y569530D01*
X742661Y571139D01*
X744270Y573237D01*
X745282Y575679D01*
X745627Y578300D01*
X745282Y580921D01*
X744270Y583363D01*
X742661Y585461D01*
X740563Y587070D01*
X738121Y588082D01*
X735500Y588427D01*
D02*
G37*
G36*
X537500Y613827D02*
X532500D01*
X529879Y613482D01*
X527437Y612470D01*
X525339Y610861D01*
X523730Y608763D01*
X522718Y606321D01*
X522373Y603700D01*
X522718Y601079D01*
X523730Y598637D01*
X525339Y596539D01*
X527437Y594930D01*
X529879Y593918D01*
X532500Y593573D01*
X537500D01*
X540121Y593918D01*
X542563Y594930D01*
X544661Y596539D01*
X546270Y598637D01*
X547282Y601079D01*
X547627Y603700D01*
X547282Y606321D01*
X546270Y608763D01*
X544661Y610861D01*
X542563Y612470D01*
X540121Y613482D01*
X537500Y613827D01*
D02*
G37*
G36*
X699500Y588527D02*
X694500D01*
X691879Y588182D01*
X689437Y587170D01*
X687339Y585561D01*
X685730Y583463D01*
X684718Y581021D01*
X684373Y578400D01*
X684718Y575779D01*
X685730Y573337D01*
X687339Y571239D01*
X689437Y569630D01*
X691879Y568618D01*
X694500Y568273D01*
X699500D01*
X702121Y568618D01*
X704563Y569630D01*
X706661Y571239D01*
X708270Y573337D01*
X709282Y575779D01*
X709627Y578400D01*
X709282Y581021D01*
X708270Y583463D01*
X706661Y585561D01*
X704563Y587170D01*
X702121Y588182D01*
X699500Y588527D01*
D02*
G37*
G36*
X572500D02*
X567500D01*
X564879Y588182D01*
X562437Y587170D01*
X560339Y585561D01*
X558730Y583463D01*
X557718Y581021D01*
X557373Y578400D01*
X557718Y575779D01*
X558730Y573337D01*
X560339Y571239D01*
X562437Y569630D01*
X564879Y568618D01*
X567500Y568273D01*
X572500D01*
X575121Y568618D01*
X577563Y569630D01*
X579661Y571239D01*
X581270Y573337D01*
X582282Y575779D01*
X582627Y578400D01*
X582282Y581021D01*
X581270Y583463D01*
X579661Y585561D01*
X577563Y587170D01*
X575121Y588182D01*
X572500Y588527D01*
D02*
G37*
G36*
X329500Y616327D02*
X324500D01*
X321879Y615982D01*
X319437Y614970D01*
X317339Y613361D01*
X315730Y611263D01*
X314987Y609470D01*
X313613D01*
X312870Y611263D01*
X311261Y613361D01*
X309163Y614970D01*
X306721Y615982D01*
X304100Y616327D01*
X299100D01*
X296479Y615982D01*
X294037Y614970D01*
X291939Y613361D01*
X290330Y611263D01*
X289318Y608821D01*
X288973Y606200D01*
X289318Y603579D01*
X290330Y601137D01*
X291939Y599039D01*
X294037Y597430D01*
X296479Y596418D01*
X299100Y596073D01*
X304100D01*
X306721Y596418D01*
X309163Y597430D01*
X311261Y599039D01*
X312870Y601137D01*
X313613Y602930D01*
X314987D01*
X315730Y601137D01*
X317339Y599039D01*
X319437Y597430D01*
X321879Y596418D01*
X324500Y596073D01*
X329500D01*
X332121Y596418D01*
X334563Y597430D01*
X336661Y599039D01*
X338270Y601137D01*
X339282Y603579D01*
X339627Y606200D01*
X339282Y608821D01*
X338270Y611263D01*
X336661Y613361D01*
X334563Y614970D01*
X332121Y615982D01*
X329500Y616327D01*
D02*
G37*
G36*
Y641727D02*
X324500D01*
X321879Y641382D01*
X319437Y640370D01*
X317339Y638761D01*
X315730Y636663D01*
X314987Y634870D01*
X313613D01*
X312870Y636663D01*
X311261Y638761D01*
X309163Y640370D01*
X306721Y641382D01*
X304100Y641727D01*
X299100D01*
X296479Y641382D01*
X294037Y640370D01*
X291939Y638761D01*
X290330Y636663D01*
X289318Y634221D01*
X288973Y631600D01*
X289318Y628979D01*
X290330Y626537D01*
X291939Y624439D01*
X294037Y622830D01*
X296479Y621818D01*
X299100Y621473D01*
X304100D01*
X306721Y621818D01*
X309163Y622830D01*
X311261Y624439D01*
X312870Y626537D01*
X313613Y628330D01*
X314987D01*
X315730Y626537D01*
X317339Y624439D01*
X319437Y622830D01*
X321879Y621818D01*
X324500Y621473D01*
X329500D01*
X332121Y621818D01*
X334563Y622830D01*
X336661Y624439D01*
X338270Y626537D01*
X339282Y628979D01*
X339627Y631600D01*
X339282Y634221D01*
X338270Y636663D01*
X336661Y638761D01*
X334563Y640370D01*
X332121Y641382D01*
X329500Y641727D01*
D02*
G37*
G36*
X699500Y664727D02*
X694500D01*
X691879Y664382D01*
X689437Y663370D01*
X687339Y661761D01*
X685730Y659663D01*
X684718Y657221D01*
X684373Y654600D01*
X684718Y651979D01*
X685730Y649537D01*
X687339Y647439D01*
X689437Y645830D01*
X691879Y644818D01*
X694500Y644473D01*
X699500D01*
X702121Y644818D01*
X704563Y645830D01*
X706661Y647439D01*
X708270Y649537D01*
X709282Y651979D01*
X709627Y654600D01*
X709282Y657221D01*
X708270Y659663D01*
X706661Y661761D01*
X704563Y663370D01*
X702121Y664382D01*
X699500Y664727D01*
D02*
G37*
G36*
X545000Y639190D02*
X525000D01*
X524009Y638993D01*
X523169Y638431D01*
X522607Y637591D01*
X522410Y636600D01*
Y621600D01*
X522607Y620609D01*
X523169Y619769D01*
X524009Y619207D01*
X525000Y619010D01*
X545000D01*
X545991Y619207D01*
X546831Y619769D01*
X547393Y620609D01*
X547590Y621600D01*
Y636600D01*
X547393Y637591D01*
X546831Y638431D01*
X545991Y638993D01*
X545000Y639190D01*
D02*
G37*
G36*
X699500Y639327D02*
X694500D01*
X691879Y638982D01*
X689437Y637970D01*
X687339Y636361D01*
X685730Y634263D01*
X684718Y631821D01*
X684373Y629200D01*
X684718Y626579D01*
X685730Y624137D01*
X687339Y622039D01*
X689437Y620430D01*
X691879Y619418D01*
X694500Y619073D01*
X699500D01*
X702121Y619418D01*
X704563Y620430D01*
X706661Y622039D01*
X708270Y624137D01*
X709282Y626579D01*
X709627Y629200D01*
X709282Y631821D01*
X708270Y634263D01*
X706661Y636361D01*
X704563Y637970D01*
X702121Y638982D01*
X699500Y639327D01*
D02*
G37*
G36*
X502000D02*
X497000D01*
X494379Y638982D01*
X491937Y637970D01*
X489839Y636361D01*
X488230Y634263D01*
X487218Y631821D01*
X486873Y629200D01*
X487218Y626579D01*
X488230Y624137D01*
X489839Y622039D01*
X491937Y620430D01*
X494379Y619418D01*
X497000Y619073D01*
X502000D01*
X504621Y619418D01*
X507063Y620430D01*
X509161Y622039D01*
X510770Y624137D01*
X511782Y626579D01*
X512127Y629200D01*
X511782Y631821D01*
X510770Y634263D01*
X509161Y636361D01*
X507063Y637970D01*
X504621Y638982D01*
X502000Y639327D01*
D02*
G37*
G36*
X743000Y639190D02*
X723000D01*
X722009Y638993D01*
X721169Y638431D01*
X720607Y637591D01*
X720410Y636600D01*
Y621600D01*
X720607Y620609D01*
X721169Y619769D01*
X722009Y619207D01*
X723000Y619010D01*
X743000D01*
X743991Y619207D01*
X744831Y619769D01*
X745393Y620609D01*
X745590Y621600D01*
Y636600D01*
X745393Y637591D01*
X744831Y638431D01*
X743991Y638993D01*
X743000Y639190D01*
D02*
G37*
G36*
X537500Y588427D02*
X532500D01*
X529879Y588082D01*
X527437Y587070D01*
X525339Y585461D01*
X523730Y583363D01*
X522718Y580921D01*
X522373Y578300D01*
X522718Y575679D01*
X523730Y573237D01*
X525339Y571139D01*
X527437Y569530D01*
X529879Y568518D01*
X532500Y568173D01*
X537500D01*
X540121Y568518D01*
X542563Y569530D01*
X544661Y571139D01*
X546270Y573237D01*
X547282Y575679D01*
X547627Y578300D01*
X547282Y580921D01*
X546270Y583363D01*
X544661Y585461D01*
X542563Y587070D01*
X540121Y588082D01*
X537500Y588427D01*
D02*
G37*
G36*
X797500Y493887D02*
X794553Y493499D01*
X791806Y492362D01*
X789448Y490552D01*
X774882Y475986D01*
X756593D01*
X756031Y477125D01*
X756270Y477437D01*
X757282Y479879D01*
X757627Y482500D01*
X757282Y485121D01*
X756270Y487563D01*
X754661Y489661D01*
X752563Y491270D01*
X750121Y492282D01*
X747500Y492627D01*
X744879Y492282D01*
X742437Y491270D01*
X740339Y489661D01*
X738730Y487563D01*
X737718Y485121D01*
X737373Y482500D01*
X737718Y479879D01*
X738730Y477437D01*
X738969Y477125D01*
X738407Y475986D01*
X699979D01*
X699947Y475999D01*
X697000Y476387D01*
X694053Y475999D01*
X691306Y474862D01*
X690407Y474172D01*
X689437Y473770D01*
X687339Y472161D01*
X685730Y470063D01*
X684718Y467621D01*
X684373Y465000D01*
X684718Y462379D01*
X685730Y459937D01*
X687339Y457839D01*
X688839Y456688D01*
X688948Y456547D01*
X691306Y454737D01*
X694053Y453600D01*
X697000Y453212D01*
X779599D01*
X782546Y453600D01*
X785293Y454737D01*
X787651Y456547D01*
X805552Y474448D01*
X807362Y476806D01*
X808499Y479553D01*
X808887Y482500D01*
X808499Y485447D01*
X807362Y488194D01*
X805552Y490552D01*
X803194Y492362D01*
X800447Y493499D01*
X797500Y493887D01*
D02*
G37*
G36*
X865500Y483148D02*
X863338Y482719D01*
X861506Y481494D01*
X860282Y479662D01*
X859852Y477500D01*
X860282Y475338D01*
X861506Y473506D01*
X863338Y472281D01*
X865500Y471852D01*
X867662Y472281D01*
X869494Y473506D01*
X870719Y475338D01*
X871149Y477500D01*
X870719Y479662D01*
X869494Y481494D01*
X867662Y482719D01*
X865500Y483148D01*
D02*
G37*
G36*
X699500Y512327D02*
X694500D01*
X691879Y511982D01*
X689437Y510970D01*
X687339Y509361D01*
X685730Y507263D01*
X684718Y504821D01*
X684373Y502200D01*
X684718Y499579D01*
X685730Y497137D01*
X687339Y495039D01*
X689437Y493430D01*
X691879Y492418D01*
X694500Y492073D01*
X699500D01*
X702121Y492418D01*
X704563Y493430D01*
X706661Y495039D01*
X708270Y497137D01*
X709282Y499579D01*
X709627Y502200D01*
X709282Y504821D01*
X708270Y507263D01*
X706661Y509361D01*
X704563Y510970D01*
X702121Y511982D01*
X699500Y512327D01*
D02*
G37*
G36*
X329500Y489327D02*
X324500D01*
X321879Y488982D01*
X319437Y487970D01*
X317339Y486361D01*
X315730Y484263D01*
X314987Y482470D01*
X313613D01*
X312870Y484263D01*
X311261Y486361D01*
X309163Y487970D01*
X306721Y488982D01*
X304100Y489327D01*
X299100D01*
X296479Y488982D01*
X294037Y487970D01*
X291939Y486361D01*
X290330Y484263D01*
X289318Y481821D01*
X288973Y479200D01*
X289318Y476579D01*
X290330Y474137D01*
X291939Y472039D01*
X294037Y470430D01*
X296479Y469418D01*
X299100Y469073D01*
X304100D01*
X306721Y469418D01*
X309163Y470430D01*
X311261Y472039D01*
X312870Y474137D01*
X313613Y475930D01*
X314987D01*
X315730Y474137D01*
X317339Y472039D01*
X319437Y470430D01*
X321879Y469418D01*
X324500Y469073D01*
X329500D01*
X332121Y469418D01*
X334563Y470430D01*
X336661Y472039D01*
X338270Y474137D01*
X339282Y476579D01*
X339627Y479200D01*
X339282Y481821D01*
X338270Y484263D01*
X336661Y486361D01*
X334563Y487970D01*
X332121Y488982D01*
X329500Y489327D01*
D02*
G37*
G36*
Y438527D02*
X324500D01*
X321879Y438182D01*
X319437Y437170D01*
X317339Y435561D01*
X315730Y433463D01*
X314987Y431670D01*
X313613D01*
X312870Y433463D01*
X311261Y435561D01*
X309163Y437170D01*
X306721Y438182D01*
X304100Y438527D01*
X299100D01*
X296479Y438182D01*
X294037Y437170D01*
X291939Y435561D01*
X290330Y433463D01*
X289318Y431021D01*
X288973Y428400D01*
X289318Y425779D01*
X290330Y423337D01*
X291939Y421239D01*
X294037Y419630D01*
X296479Y418618D01*
X299100Y418273D01*
X304100D01*
X306721Y418618D01*
X309163Y419630D01*
X311261Y421239D01*
X312870Y423337D01*
X313613Y425130D01*
X314987D01*
X315730Y423337D01*
X317339Y421239D01*
X319437Y419630D01*
X321879Y418618D01*
X324500Y418273D01*
X329500D01*
X332121Y418618D01*
X334563Y419630D01*
X336661Y421239D01*
X338270Y423337D01*
X339282Y425779D01*
X339627Y428400D01*
X339282Y431021D01*
X338270Y433463D01*
X336661Y435561D01*
X334563Y437170D01*
X332121Y438182D01*
X329500Y438527D01*
D02*
G37*
G36*
X876000Y441648D02*
X873838Y441218D01*
X872006Y439994D01*
X870781Y438162D01*
X870351Y436000D01*
X870781Y433838D01*
X872006Y432006D01*
X873838Y430781D01*
X876000Y430351D01*
X878162Y430781D01*
X879994Y432006D01*
X881219Y433838D01*
X881648Y436000D01*
X881219Y438162D01*
X879994Y439994D01*
X878162Y441218D01*
X876000Y441648D01*
D02*
G37*
G36*
X822000D02*
X819838Y441218D01*
X818006Y439994D01*
X816781Y438162D01*
X816351Y436000D01*
X816781Y433838D01*
X818006Y432006D01*
X819838Y430781D01*
X822000Y430351D01*
X824162Y430781D01*
X825994Y432006D01*
X827219Y433838D01*
X827648Y436000D01*
X827219Y438162D01*
X825994Y439994D01*
X824162Y441218D01*
X822000Y441648D01*
D02*
G37*
G36*
X329500Y463927D02*
X324500D01*
X321879Y463582D01*
X319437Y462570D01*
X317339Y460961D01*
X315730Y458863D01*
X314987Y457070D01*
X313613D01*
X312870Y458863D01*
X311261Y460961D01*
X309163Y462570D01*
X306721Y463582D01*
X304100Y463927D01*
X299100D01*
X296479Y463582D01*
X294037Y462570D01*
X291939Y460961D01*
X290330Y458863D01*
X289318Y456421D01*
X288973Y453800D01*
X289318Y451179D01*
X290330Y448737D01*
X291939Y446639D01*
X294037Y445030D01*
X296479Y444018D01*
X299100Y443673D01*
X304100D01*
X306721Y444018D01*
X309163Y445030D01*
X311261Y446639D01*
X312870Y448737D01*
X313613Y450530D01*
X314987D01*
X315730Y448737D01*
X317339Y446639D01*
X319437Y445030D01*
X321879Y444018D01*
X324500Y443673D01*
X329500D01*
X332121Y444018D01*
X334563Y445030D01*
X336661Y446639D01*
X338270Y448737D01*
X339282Y451179D01*
X339627Y453800D01*
X339282Y456421D01*
X338270Y458863D01*
X336661Y460961D01*
X334563Y462570D01*
X332121Y463582D01*
X329500Y463927D01*
D02*
G37*
G36*
X920000Y437649D02*
X917838Y437219D01*
X916006Y435994D01*
X915264Y434883D01*
X913736D01*
X912994Y435994D01*
X911162Y437219D01*
X909000Y437649D01*
X906838Y437219D01*
X905006Y435994D01*
X903782Y434162D01*
X903352Y432000D01*
X903782Y429838D01*
X905006Y428006D01*
X906117Y427264D01*
Y425736D01*
X905006Y424994D01*
X903782Y423162D01*
X903352Y421000D01*
X903782Y418838D01*
X905006Y417006D01*
X906117Y416264D01*
Y414736D01*
X905006Y413994D01*
X903782Y412162D01*
X903352Y410000D01*
X903782Y407838D01*
X905006Y406006D01*
X906117Y405264D01*
Y403736D01*
X905006Y402994D01*
X903782Y401162D01*
X903352Y399000D01*
X903782Y396838D01*
X905006Y395006D01*
X906117Y394264D01*
Y392736D01*
X905006Y391994D01*
X903782Y390162D01*
X903352Y388000D01*
X903782Y385838D01*
X905006Y384006D01*
X906838Y382781D01*
X909000Y382351D01*
X911162Y382781D01*
X912994Y384006D01*
X913736Y385117D01*
X915264D01*
X916006Y384006D01*
X917838Y382781D01*
X920000Y382351D01*
X922162Y382781D01*
X923994Y384006D01*
X925219Y385838D01*
X925648Y388000D01*
X925219Y390162D01*
X923994Y391994D01*
X922883Y392736D01*
Y394264D01*
X923994Y395006D01*
X925219Y396838D01*
X925648Y399000D01*
X925219Y401162D01*
X923994Y402994D01*
X922883Y403736D01*
Y405264D01*
X923994Y406006D01*
X925219Y407838D01*
X925648Y410000D01*
X925219Y412162D01*
X923994Y413994D01*
X922883Y414736D01*
Y416264D01*
X923994Y417006D01*
X925219Y418838D01*
X925648Y421000D01*
X925219Y423162D01*
X923994Y424994D01*
X922883Y425736D01*
Y427264D01*
X923994Y428006D01*
X925219Y429838D01*
X925648Y432000D01*
X925219Y434162D01*
X923994Y435994D01*
X922162Y437219D01*
X920000Y437649D01*
D02*
G37*
G36*
X848250Y542648D02*
X848250Y542648D01*
X797500D01*
X794226Y542217D01*
X791176Y540954D01*
X788556Y538944D01*
X786546Y536324D01*
X785283Y533274D01*
X784852Y530000D01*
X785283Y526726D01*
X786546Y523676D01*
X788556Y521056D01*
X791176Y519046D01*
X794226Y517783D01*
X797500Y517352D01*
X843011D01*
X853306Y507056D01*
X855926Y505046D01*
X858976Y503783D01*
X862250Y503352D01*
X865524Y503783D01*
X868574Y505046D01*
X871194Y507056D01*
X873204Y509676D01*
X874467Y512726D01*
X874898Y516000D01*
X874467Y519274D01*
X873204Y522324D01*
X871194Y524944D01*
X857194Y538944D01*
X854574Y540954D01*
X851524Y542217D01*
X848250Y542648D01*
D02*
G37*
G36*
X265000Y565149D02*
X262838Y564719D01*
X261006Y563494D01*
X259781Y561662D01*
X259352Y559500D01*
X259781Y557338D01*
X261006Y555506D01*
X262838Y554281D01*
X265000Y553852D01*
X267162Y554281D01*
X268994Y555506D01*
X270219Y557338D01*
X270649Y559500D01*
X270219Y561662D01*
X268994Y563494D01*
X267162Y564719D01*
X265000Y565149D01*
D02*
G37*
G36*
X699500Y563127D02*
X694500D01*
X691879Y562782D01*
X689437Y561770D01*
X687339Y560161D01*
X685730Y558063D01*
X684718Y555621D01*
X684373Y553000D01*
X684718Y550379D01*
X685730Y547937D01*
X687339Y545839D01*
X689437Y544230D01*
X691879Y543218D01*
X694500Y542873D01*
X699500D01*
X702121Y543218D01*
X704563Y544230D01*
X706661Y545839D01*
X708270Y547937D01*
X709282Y550379D01*
X709627Y553000D01*
X709282Y555621D01*
X708270Y558063D01*
X706661Y560161D01*
X704563Y561770D01*
X702121Y562782D01*
X699500Y563127D01*
D02*
G37*
G36*
X572500D02*
X567500D01*
X564879Y562782D01*
X562437Y561770D01*
X560339Y560161D01*
X558730Y558063D01*
X557718Y555621D01*
X557373Y553000D01*
X557718Y550379D01*
X558730Y547937D01*
X560339Y545839D01*
X562437Y544230D01*
X564879Y543218D01*
X567500Y542873D01*
X572500D01*
X575121Y543218D01*
X577563Y544230D01*
X579661Y545839D01*
X581270Y547937D01*
X582282Y550379D01*
X582627Y553000D01*
X582282Y555621D01*
X581270Y558063D01*
X579661Y560161D01*
X577563Y561770D01*
X575121Y562782D01*
X572500Y563127D01*
D02*
G37*
G36*
X820000Y571148D02*
X817838Y570718D01*
X816006Y569494D01*
X814781Y567662D01*
X814352Y565500D01*
X814781Y563338D01*
X816006Y561506D01*
X817838Y560281D01*
X820000Y559851D01*
X822162Y560281D01*
X823994Y561506D01*
X825219Y563338D01*
X825648Y565500D01*
X825219Y567662D01*
X823994Y569494D01*
X822162Y570718D01*
X820000Y571148D01*
D02*
G37*
G36*
X329500Y565527D02*
X324500D01*
X321879Y565182D01*
X319437Y564170D01*
X317339Y562561D01*
X315730Y560463D01*
X314987Y558670D01*
X313613D01*
X312870Y560463D01*
X311261Y562561D01*
X309163Y564170D01*
X306721Y565182D01*
X304100Y565527D01*
X299100D01*
X296479Y565182D01*
X294037Y564170D01*
X291939Y562561D01*
X290330Y560463D01*
X289318Y558021D01*
X288973Y555400D01*
X289318Y552779D01*
X290330Y550337D01*
X291939Y548239D01*
X294037Y546630D01*
X296479Y545618D01*
X299100Y545273D01*
X304100D01*
X306721Y545618D01*
X309163Y546630D01*
X311261Y548239D01*
X312870Y550337D01*
X313613Y552130D01*
X314987D01*
X315730Y550337D01*
X317339Y548239D01*
X319437Y546630D01*
X321879Y545618D01*
X324500Y545273D01*
X329500D01*
X332121Y545618D01*
X334563Y546630D01*
X336661Y548239D01*
X338270Y550337D01*
X339282Y552779D01*
X339627Y555400D01*
X339282Y558021D01*
X338270Y560463D01*
X336661Y562561D01*
X334563Y564170D01*
X332121Y565182D01*
X329500Y565527D01*
D02*
G37*
G36*
X537500Y563027D02*
X532500D01*
X529879Y562682D01*
X527437Y561670D01*
X525339Y560061D01*
X523730Y557963D01*
X522718Y555521D01*
X522373Y552900D01*
X522718Y550279D01*
X523730Y547837D01*
X525339Y545739D01*
X527437Y544130D01*
X529879Y543118D01*
X532500Y542773D01*
X537500D01*
X540121Y543118D01*
X542563Y544130D01*
X544661Y545739D01*
X546270Y547837D01*
X547282Y550279D01*
X547627Y552900D01*
X547282Y555521D01*
X546270Y557963D01*
X544661Y560061D01*
X542563Y561670D01*
X540121Y562682D01*
X537500Y563027D01*
D02*
G37*
G36*
X572500Y537727D02*
X567500D01*
X564879Y537382D01*
X562437Y536370D01*
X560339Y534761D01*
X558730Y532663D01*
X557718Y530221D01*
X557373Y527600D01*
X557718Y524979D01*
X558730Y522537D01*
X560339Y520439D01*
X562437Y518830D01*
X564879Y517818D01*
X567500Y517473D01*
X572500D01*
X575121Y517818D01*
X577563Y518830D01*
X579661Y520439D01*
X581270Y522537D01*
X582282Y524979D01*
X582627Y527600D01*
X582282Y530221D01*
X581270Y532663D01*
X579661Y534761D01*
X577563Y536370D01*
X575121Y537382D01*
X572500Y537727D01*
D02*
G37*
G36*
X375000D02*
X370000D01*
X367379Y537382D01*
X364937Y536370D01*
X362839Y534761D01*
X361230Y532663D01*
X360218Y530221D01*
X359873Y527600D01*
X360218Y524979D01*
X361230Y522537D01*
X362839Y520439D01*
X364937Y518830D01*
X367379Y517818D01*
X370000Y517473D01*
X375000D01*
X377621Y517818D01*
X380063Y518830D01*
X382161Y520439D01*
X383770Y522537D01*
X384782Y524979D01*
X385127Y527600D01*
X384782Y530221D01*
X383770Y532663D01*
X382161Y534761D01*
X380063Y536370D01*
X377621Y537382D01*
X375000Y537727D01*
D02*
G37*
G36*
Y563127D02*
X370000D01*
X367379Y562782D01*
X364937Y561770D01*
X362839Y560161D01*
X361230Y558063D01*
X360218Y555621D01*
X359873Y553000D01*
X360218Y550379D01*
X361230Y547937D01*
X362839Y545839D01*
X364937Y544230D01*
X367379Y543218D01*
X370000Y542873D01*
X375000D01*
X377621Y543218D01*
X380063Y544230D01*
X382161Y545839D01*
X383770Y547937D01*
X384782Y550379D01*
X385127Y553000D01*
X384782Y555621D01*
X383770Y558063D01*
X382161Y560161D01*
X380063Y561770D01*
X377621Y562782D01*
X375000Y563127D01*
D02*
G37*
G36*
X502000D02*
X497000D01*
X494379Y562782D01*
X491937Y561770D01*
X489839Y560161D01*
X488230Y558063D01*
X487218Y555621D01*
X486873Y553000D01*
X487218Y550379D01*
X488230Y547937D01*
X489839Y545839D01*
X491937Y544230D01*
X494379Y543218D01*
X497000Y542873D01*
X502000D01*
X504621Y543218D01*
X507063Y544230D01*
X509161Y545839D01*
X510770Y547937D01*
X511782Y550379D01*
X512127Y553000D01*
X511782Y555621D01*
X510770Y558063D01*
X509161Y560161D01*
X507063Y561770D01*
X504621Y562782D01*
X502000Y563127D01*
D02*
G37*
G36*
X735500Y563027D02*
X730500D01*
X727879Y562682D01*
X725437Y561670D01*
X723339Y560061D01*
X721730Y557963D01*
X720718Y555521D01*
X720373Y552900D01*
X720718Y550279D01*
X721730Y547837D01*
X723339Y545739D01*
X725437Y544130D01*
X727879Y543118D01*
X730500Y542773D01*
X735500D01*
X738121Y543118D01*
X740563Y544130D01*
X742661Y545739D01*
X744270Y547837D01*
X745282Y550279D01*
X745627Y552900D01*
X745282Y555521D01*
X744270Y557963D01*
X742661Y560061D01*
X740563Y561670D01*
X738121Y562682D01*
X735500Y563027D01*
D02*
G37*
%LPD*%
G36*
X701445Y661859D02*
X703257Y661108D01*
X704814Y659914D01*
X706008Y658357D01*
X706758Y656545D01*
X707014Y654600D01*
X706758Y652655D01*
X706008Y650843D01*
X704814Y649286D01*
X703257Y648092D01*
X701445Y647342D01*
X699330Y647063D01*
X694670D01*
X692555Y647342D01*
X690743Y648092D01*
X689186Y649286D01*
X687992Y650843D01*
X687242Y652655D01*
X686985Y654600D01*
X687242Y656545D01*
X687992Y658357D01*
X689186Y659914D01*
X690743Y661108D01*
X692555Y661859D01*
X694670Y662137D01*
X699330D01*
X701445Y661859D01*
D02*
G37*
%LPC*%
G36*
X1057000Y312649D02*
X1054838Y312219D01*
X1053006Y310994D01*
X1052264Y309883D01*
X1050736D01*
X1049994Y310994D01*
X1048162Y312219D01*
X1046000Y312649D01*
X1043838Y312219D01*
X1042006Y310994D01*
X1040781Y309162D01*
X1040351Y307000D01*
X1040781Y304838D01*
X1042006Y303006D01*
X1043117Y302264D01*
Y300736D01*
X1042006Y299994D01*
X1040781Y298162D01*
X1040351Y296000D01*
X1040781Y293838D01*
X1042006Y292006D01*
X1043838Y290781D01*
X1046000Y290352D01*
X1048162Y290781D01*
X1049994Y292006D01*
X1050736Y293117D01*
X1052264D01*
X1053006Y292006D01*
X1054838Y290781D01*
X1057000Y290352D01*
X1059162Y290781D01*
X1060994Y292006D01*
X1062219Y293838D01*
X1062648Y296000D01*
X1062219Y298162D01*
X1060994Y299994D01*
X1059883Y300736D01*
Y302264D01*
X1060994Y303006D01*
X1062219Y304838D01*
X1062648Y307000D01*
X1062219Y309162D01*
X1060994Y310994D01*
X1059162Y312219D01*
X1057000Y312649D01*
D02*
G37*
G36*
X747500Y702627D02*
X744879Y702282D01*
X742437Y701270D01*
X740339Y699661D01*
X738730Y697563D01*
X737718Y695121D01*
X737373Y692500D01*
X737718Y689879D01*
X738730Y687437D01*
X740339Y685339D01*
X742437Y683730D01*
X744879Y682718D01*
X747500Y682373D01*
X750121Y682718D01*
X752563Y683730D01*
X754661Y685339D01*
X756270Y687437D01*
X757282Y689879D01*
X757627Y692500D01*
X757282Y695121D01*
X756270Y697563D01*
X754661Y699661D01*
X752563Y701270D01*
X750121Y702282D01*
X747500Y702627D01*
D02*
G37*
G36*
X658000Y730648D02*
X655838Y730219D01*
X654006Y728994D01*
X652781Y727162D01*
X652352Y725000D01*
X652781Y722838D01*
X654006Y721006D01*
X655838Y719781D01*
X658000Y719352D01*
X660162Y719781D01*
X661994Y721006D01*
X663219Y722838D01*
X663649Y725000D01*
X663219Y727162D01*
X661994Y728994D01*
X660162Y730219D01*
X658000Y730648D01*
D02*
G37*
%LPD*%
G36*
X749445Y699759D02*
X751257Y699008D01*
X752814Y697814D01*
X754008Y696257D01*
X754759Y694445D01*
X755014Y692500D01*
X754759Y690555D01*
X754008Y688743D01*
X752814Y687186D01*
X751257Y685992D01*
X749445Y685242D01*
X747500Y684986D01*
X745555Y685242D01*
X743743Y685992D01*
X742186Y687186D01*
X740992Y688743D01*
X740241Y690555D01*
X739986Y692500D01*
X740241Y694445D01*
X740992Y696257D01*
X742186Y697814D01*
X743743Y699008D01*
X745555Y699759D01*
X747500Y700014D01*
X749445Y699759D01*
D02*
G37*
D22*
X892627Y647500D02*
X985500D01*
X884000Y656127D02*
X892627Y647500D01*
X884000Y656127D02*
Y715250D01*
X862250Y737000D02*
X884000Y715250D01*
X614000Y524000D02*
Y585000D01*
X595200Y603800D02*
X614000Y585000D01*
X570000Y603800D02*
X595200D01*
X339000Y288000D02*
X362000Y265000D01*
X315000Y288000D02*
X339000D01*
X362000Y265000D02*
X586000D01*
X620000Y299000D01*
X301600Y301400D02*
X315000Y288000D01*
X555600Y669000D02*
X570000Y654600D01*
X386900Y669000D02*
X555600D01*
X372500Y654600D02*
X386900Y669000D01*
X533883Y665317D02*
X570000Y629200D01*
X408617Y665317D02*
X533883D01*
X372500Y629200D02*
X408617Y665317D01*
X483000Y452000D02*
X557000D01*
X451000Y420000D02*
X483000Y452000D01*
X557000D02*
X570000Y465000D01*
X582000Y476000D02*
X587000Y471000D01*
Y456600D02*
Y471000D01*
X570000Y439600D02*
X587000Y456600D01*
X408900Y476000D02*
X582000D01*
X372500Y439600D02*
X408900Y476000D01*
X363000Y274000D02*
X421000D01*
X335600Y301400D02*
X363000Y274000D01*
X327000Y301400D02*
X335600D01*
X620000Y299000D02*
X897000D01*
X935000Y337000D01*
X451000Y304000D02*
Y420000D01*
X421000Y274000D02*
X451000Y304000D01*
X359000Y484000D02*
X574000D01*
X345000Y498000D02*
X359000Y484000D01*
X345000Y498000D02*
Y512000D01*
X327000Y530000D02*
X345000Y512000D01*
X570000Y680000D02*
X653000Y597000D01*
Y517000D02*
Y597000D01*
X616000Y480000D02*
X653000Y517000D01*
X351600Y480000D02*
X616000D01*
X327000Y504600D02*
X351600Y480000D01*
X574000Y484000D02*
X614000Y524000D01*
X555800Y488000D02*
X570000Y502200D01*
X367000Y488000D02*
X555800D01*
X353000Y502000D02*
X367000Y488000D01*
X353000Y502000D02*
Y554800D01*
X327000Y580800D02*
X353000Y554800D01*
D24*
X697000Y464599D02*
X779599D01*
X797500Y482500D01*
X697000Y464599D02*
Y465000D01*
D25*
X1200000Y270000D02*
D03*
Y325000D02*
D03*
X1252500Y475000D02*
D03*
Y525000D02*
D03*
Y625000D02*
D03*
Y677500D02*
D03*
D26*
X790000Y762500D02*
D03*
X705000Y720000D02*
D03*
D27*
X1187500Y425000D02*
D03*
X1237500D02*
D03*
X1187500Y575000D02*
D03*
X1237500D02*
D03*
X1187500Y727500D02*
D03*
X797500Y482500D02*
D03*
Y692500D02*
D03*
X747500D02*
D03*
D28*
X570000Y465000D02*
D03*
Y680000D02*
D03*
X327000Y276000D02*
D03*
D29*
X570000Y439600D02*
D03*
X697000Y465000D02*
D03*
Y312600D02*
D03*
Y527600D02*
D03*
Y680000D02*
D03*
Y654600D02*
D03*
X570000Y603800D02*
D03*
Y629200D02*
D03*
Y654600D02*
D03*
Y502200D02*
D03*
X499500Y312600D02*
D03*
X372500Y439600D02*
D03*
Y654600D02*
D03*
Y629200D02*
D03*
X499500Y654600D02*
D03*
Y680000D02*
D03*
Y527600D02*
D03*
X301600Y707800D02*
D03*
Y301400D02*
D03*
Y276000D02*
D03*
X327000Y707800D02*
D03*
Y580800D02*
D03*
Y530000D02*
D03*
Y504600D02*
D03*
Y301400D02*
D03*
D32*
X1174000Y357000D02*
D03*
X1184000D02*
D03*
X1164000D02*
D03*
X1200000Y671000D02*
D03*
Y661000D02*
D03*
Y681000D02*
D03*
Y517000D02*
D03*
Y507000D02*
D03*
Y527000D02*
D03*
X893000Y769000D02*
D03*
X823000Y594000D02*
D03*
X833000D02*
D03*
Y769000D02*
D03*
X843000Y594000D02*
D03*
X883000D02*
D03*
X873000D02*
D03*
X853000D02*
D03*
X863000D02*
D03*
X863000Y769000D02*
D03*
X853000D02*
D03*
X873000D02*
D03*
X883000D02*
D03*
X843000D02*
D03*
X862250Y516000D02*
D03*
X797500Y530000D02*
D03*
X606000Y777000D02*
D03*
X561000Y772000D02*
D03*
X1045000Y629000D02*
D03*
X1056000D02*
D03*
X1115000D02*
D03*
X1126000D02*
D03*
X1115000Y640000D02*
D03*
X1126000D02*
D03*
X1045000D02*
D03*
X1056000D02*
D03*
X1115000Y459000D02*
D03*
Y470000D02*
D03*
X1126000D02*
D03*
Y459000D02*
D03*
X1045000D02*
D03*
Y470000D02*
D03*
X1056000D02*
D03*
Y459000D02*
D03*
X1115000Y288000D02*
D03*
Y299000D02*
D03*
X1126000D02*
D03*
Y288000D02*
D03*
X991000Y272000D02*
D03*
Y283000D02*
D03*
X1002000D02*
D03*
Y272000D02*
D03*
X949000Y685000D02*
D03*
X960000D02*
D03*
X949000Y707000D02*
D03*
X960000D02*
D03*
X949000Y696000D02*
D03*
X960000D02*
D03*
Y567000D02*
D03*
X949000Y578000D02*
D03*
Y567000D02*
D03*
Y589000D02*
D03*
X960000D02*
D03*
X598000Y609500D02*
D03*
X1045000Y429000D02*
D03*
X1039000D02*
D03*
X960000Y600000D02*
D03*
Y578000D02*
D03*
Y556000D02*
D03*
X949000D02*
D03*
Y600000D02*
D03*
X960000Y740000D02*
D03*
Y729000D02*
D03*
Y718000D02*
D03*
X949000D02*
D03*
Y729000D02*
D03*
Y740000D02*
D03*
X985500Y647500D02*
D03*
X862250Y737000D02*
D03*
X935000Y337000D02*
D03*
D33*
X848250Y530000D02*
X862250Y516000D01*
X797500Y530000D02*
X848250D01*
M02*
