G04 Layer_Color=32896*
%FSLAX44Y44*%
%MOMM*%
G71*
G01*
G75*
%ADD41C,0.2540*%
%ADD42C,0.2000*%
%ADD43C,0.2200*%
D41*
X907000Y395000D02*
Y415000D01*
X892000Y405000D02*
X907000Y395000D01*
X892000Y405000D02*
X907000Y415000D01*
X892000Y395000D02*
Y415000D01*
X1029500Y555000D02*
Y575000D01*
X1014500Y565000D02*
X1029500Y555000D01*
X1014500Y565000D02*
X1029500Y575000D01*
X1014500Y555000D02*
Y575000D01*
X1029500Y695000D02*
Y715000D01*
X1014500Y705000D02*
X1029500Y695000D01*
X1014500Y705000D02*
X1029500Y715000D01*
X1014500Y695000D02*
Y715000D01*
D42*
X1157500Y639325D02*
G03*
X1157500Y645675I0J3175D01*
G01*
Y486825D02*
G03*
X1157500Y493175I0J3175D01*
G01*
X1203175Y340000D02*
G03*
X1196825Y340000I-3175J0D01*
G01*
X1157500Y685000D02*
X1217500D01*
Y600000D02*
Y685000D01*
X1157500Y600000D02*
X1217500D01*
X1157500D02*
Y639325D01*
Y645675D02*
Y685000D01*
Y532500D02*
X1217500D01*
Y447500D02*
Y532500D01*
X1157500Y447500D02*
X1217500D01*
X1157500D02*
Y486825D01*
Y493175D02*
Y532500D01*
X1157500Y340000D02*
Y400000D01*
X1242500D01*
Y340000D02*
Y400000D01*
X1203175Y340000D02*
X1242500D01*
X1157500D02*
X1196825D01*
X1103000Y740000D02*
Y780000D01*
X1157000D01*
Y740000D02*
Y780000D01*
X1103000Y740000D02*
X1157000D01*
X1103000Y700000D02*
Y740000D01*
X1157000D01*
Y700000D02*
Y740000D01*
X1103000Y700000D02*
X1157000D01*
X1103000Y660000D02*
Y700000D01*
X1157000D01*
Y660000D02*
Y700000D01*
X1103000Y660000D02*
X1157000D01*
X1103000Y570000D02*
Y610000D01*
X1157000D01*
Y570000D02*
Y610000D01*
X1103000Y570000D02*
X1157000D01*
X1103000Y530000D02*
Y570000D01*
X1157000D01*
Y530000D02*
Y570000D01*
X1103000Y530000D02*
X1157000D01*
X1103000Y490000D02*
Y530000D01*
X1157000D01*
Y490000D02*
Y530000D01*
X1103000Y490000D02*
X1157000D01*
X254000Y608000D02*
X276000D01*
X254000D02*
Y642000D01*
X276000D01*
Y608000D02*
Y642000D01*
X254000Y553000D02*
X276000D01*
X254000D02*
Y587000D01*
X276000D01*
Y553000D02*
Y587000D01*
X1103000Y400000D02*
Y440000D01*
X1157000D01*
Y400000D02*
Y440000D01*
X1103000Y400000D02*
X1157000D01*
X1103000Y360000D02*
Y400000D01*
X1157000D01*
Y360000D02*
Y400000D01*
X1103000Y360000D02*
X1157000D01*
X1103000Y320000D02*
Y360000D01*
X1157000D01*
Y320000D02*
Y360000D01*
X1103000Y320000D02*
X1157000D01*
X1159000Y273000D02*
X1181000D01*
X1159000D02*
Y307000D01*
X1181000D01*
Y273000D02*
Y307000D01*
X1053000Y422000D02*
Y456000D01*
X1031000Y422000D02*
X1053000D01*
X1031000D02*
Y456000D01*
X1053000D01*
X993000Y421500D02*
Y443500D01*
X1027000D01*
Y421500D02*
Y443500D01*
X993000Y421500D02*
X1027000D01*
X993000Y444000D02*
Y466000D01*
X1027000D01*
Y444000D02*
Y466000D01*
X993000Y444000D02*
X1027000D01*
X993000Y466500D02*
Y488500D01*
X1027000D01*
Y466500D02*
Y488500D01*
X993000Y466500D02*
X1027000D01*
X934000Y361000D02*
Y449000D01*
X811000Y361000D02*
X934000D01*
X811000D02*
Y449000D01*
X934000D01*
X1056500Y521000D02*
Y609000D01*
X933500Y521000D02*
X1056500D01*
X933500D02*
Y609000D01*
X1056500D01*
Y661000D02*
Y749000D01*
X933500Y661000D02*
X1056500D01*
X933500D02*
Y749000D01*
X1056500D01*
X758000Y305000D02*
Y345000D01*
X812000D01*
Y305000D02*
Y345000D01*
X758000Y305000D02*
X812000D01*
X758000Y345000D02*
Y385000D01*
X812000D01*
Y345000D02*
Y385000D01*
X758000Y345000D02*
X812000D01*
X758000Y385000D02*
Y425000D01*
X812000D01*
Y385000D02*
Y425000D01*
X758000Y385000D02*
X812000D01*
X758000Y425000D02*
Y465000D01*
X812000D01*
Y425000D02*
Y465000D01*
X758000Y425000D02*
X812000D01*
X755500Y510000D02*
Y550000D01*
X809500D01*
Y510000D02*
Y550000D01*
X755500Y510000D02*
X809500D01*
X755500Y550000D02*
Y590000D01*
X809500D01*
Y550000D02*
Y590000D01*
X755500Y550000D02*
X809500D01*
X755500Y590000D02*
Y630000D01*
X809500D01*
Y590000D02*
Y630000D01*
X755500Y590000D02*
X809500D01*
X755500Y630000D02*
Y670000D01*
X809500D01*
Y630000D02*
Y670000D01*
X755500Y630000D02*
X809500D01*
X650500Y669000D02*
Y691000D01*
X684500D01*
Y669000D02*
Y691000D01*
X650500Y669000D02*
X684500D01*
Y691500D02*
Y713500D01*
X650500Y691500D02*
X684500D01*
X650500D02*
Y713500D01*
X684500D01*
X650500Y714000D02*
Y736000D01*
X684500D01*
Y714000D02*
Y736000D01*
X650500Y714000D02*
X684500D01*
X552000Y669000D02*
Y691000D01*
X518000Y669000D02*
X552000D01*
X518000D02*
Y691000D01*
X552000D01*
X518000Y646500D02*
Y668500D01*
X552000D01*
Y646500D02*
Y668500D01*
X518000Y646500D02*
X552000D01*
X518000Y691500D02*
Y713500D01*
X552000D01*
Y691500D02*
Y713500D01*
X518000Y691500D02*
X552000D01*
X518000Y714000D02*
Y736000D01*
X552000D01*
Y714000D02*
Y736000D01*
X518000Y714000D02*
X552000D01*
Y736500D02*
Y758500D01*
X518000Y736500D02*
X552000D01*
X518000D02*
Y758500D01*
X552000D01*
X518000Y759000D02*
Y781000D01*
X552000D01*
Y759000D02*
Y781000D01*
X518000Y759000D02*
X552000D01*
X491500Y745500D02*
X513500D01*
X491500D02*
Y779500D01*
X513500D01*
Y745500D02*
Y779500D01*
X469000Y745500D02*
X491000D01*
X469000D02*
Y779500D01*
X491000D01*
Y745500D02*
Y779500D01*
X254000Y320500D02*
X276000D01*
X254000D02*
Y354500D01*
X276000D01*
Y320500D02*
Y354500D01*
X254000Y375500D02*
X276000D01*
X254000D02*
Y409500D01*
X276000D01*
Y375500D02*
Y409500D01*
X1014500Y311500D02*
Y333500D01*
X980500Y311500D02*
X1014500D01*
X980500D02*
Y333500D01*
X1014500D01*
X555002Y643748D02*
X556251Y644998D01*
X558750D01*
X560000Y643748D01*
Y638750D01*
X558750Y637500D01*
X556251D01*
X555002Y638750D01*
X547504Y644998D02*
X550003Y643748D01*
X552502Y641249D01*
Y638750D01*
X551253Y637500D01*
X548754D01*
X547504Y638750D01*
Y639999D01*
X548754Y641249D01*
X552502D01*
X515000Y692500D02*
Y699998D01*
X511251D01*
X510002Y698748D01*
Y696249D01*
X511251Y694999D01*
X515000D01*
X512501D02*
X510002Y692500D01*
X502504Y699998D02*
X507502D01*
Y696249D01*
X505003Y697498D01*
X503754D01*
X502504Y696249D01*
Y693750D01*
X503754Y692500D01*
X506253D01*
X507502Y693750D01*
D43*
X1217000Y688000D02*
Y694665D01*
X1213668Y697997D01*
X1210335Y694665D01*
Y688000D01*
Y692998D01*
X1217000D01*
X1200339Y696331D02*
X1202005Y697997D01*
X1205337D01*
X1207003Y696331D01*
Y689666D01*
X1205337Y688000D01*
X1202005D01*
X1200339Y689666D01*
X1190342Y696331D02*
X1192008Y697997D01*
X1195340D01*
X1197006Y696331D01*
Y694665D01*
X1195340Y692998D01*
X1192008D01*
X1190342Y691332D01*
Y689666D01*
X1192008Y688000D01*
X1195340D01*
X1197006Y689666D01*
X1187010Y688000D02*
X1183677D01*
X1185343D01*
Y697997D01*
X1187010Y696331D01*
X1218000Y536000D02*
Y542664D01*
X1214668Y545997D01*
X1211336Y542664D01*
Y536000D01*
Y540998D01*
X1218000D01*
X1201339Y544331D02*
X1203005Y545997D01*
X1206337D01*
X1208003Y544331D01*
Y537666D01*
X1206337Y536000D01*
X1203005D01*
X1201339Y537666D01*
X1191342Y544331D02*
X1193008Y545997D01*
X1196340D01*
X1198006Y544331D01*
Y542664D01*
X1196340Y540998D01*
X1193008D01*
X1191342Y539332D01*
Y537666D01*
X1193008Y536000D01*
X1196340D01*
X1198006Y537666D01*
X1181345Y536000D02*
X1188010D01*
X1181345Y542664D01*
Y544331D01*
X1183011Y545997D01*
X1186344D01*
X1188010Y544331D01*
X1242000Y403000D02*
Y409664D01*
X1238668Y412997D01*
X1235335Y409664D01*
Y403000D01*
Y407998D01*
X1242000D01*
X1225339Y411331D02*
X1227005Y412997D01*
X1230337D01*
X1232003Y411331D01*
Y404666D01*
X1230337Y403000D01*
X1227005D01*
X1225339Y404666D01*
X1215342Y411331D02*
X1217008Y412997D01*
X1220340D01*
X1222006Y411331D01*
Y409664D01*
X1220340Y407998D01*
X1217008D01*
X1215342Y406332D01*
Y404666D01*
X1217008Y403000D01*
X1220340D01*
X1222006Y404666D01*
X1212010Y411331D02*
X1210343Y412997D01*
X1207011D01*
X1205345Y411331D01*
Y409664D01*
X1207011Y407998D01*
X1208677D01*
X1207011D01*
X1205345Y406332D01*
Y404666D01*
X1207011Y403000D01*
X1210343D01*
X1212010Y404666D01*
X638335Y680831D02*
X640002Y682497D01*
X643334D01*
X645000Y680831D01*
Y674166D01*
X643334Y672500D01*
X640002D01*
X638335Y674166D01*
X635003Y672500D02*
X631671D01*
X633337D01*
Y682497D01*
X635003Y680831D01*
X980835Y435831D02*
X982502Y437497D01*
X985834D01*
X987500Y435831D01*
Y429166D01*
X985834Y427500D01*
X982502D01*
X980835Y429166D01*
X970839Y427500D02*
X977503D01*
X970839Y434165D01*
Y435831D01*
X972505Y437497D01*
X975837D01*
X977503Y435831D01*
X980835Y458331D02*
X982502Y459997D01*
X985834D01*
X987500Y458331D01*
Y451666D01*
X985834Y450000D01*
X982502D01*
X980835Y451666D01*
X977503Y458331D02*
X975837Y459997D01*
X972505D01*
X970839Y458331D01*
Y456665D01*
X972505Y454998D01*
X974171D01*
X972505D01*
X970839Y453332D01*
Y451666D01*
X972505Y450000D01*
X975837D01*
X977503Y451666D01*
X980835Y483331D02*
X982502Y484997D01*
X985834D01*
X987500Y483331D01*
Y476666D01*
X985834Y475000D01*
X982502D01*
X980835Y476666D01*
X972505Y475000D02*
Y484997D01*
X977503Y479998D01*
X970839D01*
X563335Y773331D02*
X565002Y774997D01*
X568334D01*
X570000Y773331D01*
Y766666D01*
X568334Y765000D01*
X565002D01*
X563335Y766666D01*
X553339Y774997D02*
X560003D01*
Y769998D01*
X556671Y771665D01*
X555005D01*
X553339Y769998D01*
Y766666D01*
X555005Y765000D01*
X558337D01*
X560003Y766666D01*
X480835Y738331D02*
X482502Y739997D01*
X485834D01*
X487500Y738331D01*
Y731666D01*
X485834Y730000D01*
X482502D01*
X480835Y731666D01*
X477503Y739997D02*
X470839D01*
Y738331D01*
X477503Y731666D01*
Y730000D01*
X835335Y355331D02*
X837002Y356997D01*
X840334D01*
X842000Y355331D01*
Y348666D01*
X840334Y347000D01*
X837002D01*
X835335Y348666D01*
X832003Y347000D02*
X828671D01*
X830337D01*
Y356997D01*
X832003Y355331D01*
X817008Y347000D02*
X823673D01*
X817008Y353665D01*
Y355331D01*
X818674Y356997D01*
X822006D01*
X823673Y355331D01*
X746336Y436331D02*
X748002Y437997D01*
X751334D01*
X753000Y436331D01*
Y429666D01*
X751334Y428000D01*
X748002D01*
X746336Y429666D01*
X743003Y428000D02*
X739671D01*
X741337D01*
Y437997D01*
X743003Y436331D01*
X734673D02*
X733006Y437997D01*
X729674D01*
X728008Y436331D01*
Y434664D01*
X729674Y432998D01*
X731340D01*
X729674D01*
X728008Y431332D01*
Y429666D01*
X729674Y428000D01*
X733006D01*
X734673Y429666D01*
X835835Y463331D02*
X837502Y464997D01*
X840834D01*
X842500Y463331D01*
Y456666D01*
X840834Y455000D01*
X837502D01*
X835835Y456666D01*
X832503Y455000D02*
X829171D01*
X830837D01*
Y464997D01*
X832503Y463331D01*
X819174Y455000D02*
Y464997D01*
X824173Y459998D01*
X817508D01*
X1090835Y750831D02*
X1092502Y752497D01*
X1095834D01*
X1097500Y750831D01*
Y744166D01*
X1095834Y742500D01*
X1092502D01*
X1090835Y744166D01*
X1087503Y742500D02*
X1084171D01*
X1085837D01*
Y752497D01*
X1087503Y750831D01*
X1079173Y744166D02*
X1077506Y742500D01*
X1074174D01*
X1072508Y744166D01*
Y750831D01*
X1074174Y752497D01*
X1077506D01*
X1079173Y750831D01*
Y749165D01*
X1077506Y747498D01*
X1072508D01*
X1090835Y710831D02*
X1092502Y712497D01*
X1095834D01*
X1097500Y710831D01*
Y704166D01*
X1095834Y702500D01*
X1092502D01*
X1090835Y704166D01*
X1080839Y702500D02*
X1087503D01*
X1080839Y709165D01*
Y710831D01*
X1082505Y712497D01*
X1085837D01*
X1087503Y710831D01*
X1077506D02*
X1075840Y712497D01*
X1072508D01*
X1070842Y710831D01*
Y704166D01*
X1072508Y702500D01*
X1075840D01*
X1077506Y704166D01*
Y710831D01*
X1090835Y670831D02*
X1092502Y672497D01*
X1095834D01*
X1097500Y670831D01*
Y664166D01*
X1095834Y662500D01*
X1092502D01*
X1090835Y664166D01*
X1080839Y662500D02*
X1087503D01*
X1080839Y669165D01*
Y670831D01*
X1082505Y672497D01*
X1085837D01*
X1087503Y670831D01*
X1077506Y662500D02*
X1074174D01*
X1075840D01*
Y672497D01*
X1077506Y670831D01*
X1090835Y500831D02*
X1092502Y502497D01*
X1095834D01*
X1097500Y500831D01*
Y494166D01*
X1095834Y492500D01*
X1092502D01*
X1090835Y494166D01*
X1080839Y492500D02*
X1087503D01*
X1080839Y499165D01*
Y500831D01*
X1082505Y502497D01*
X1085837D01*
X1087503Y500831D01*
X1072508Y492500D02*
Y502497D01*
X1077506Y497498D01*
X1070842D01*
X1090835Y540831D02*
X1092502Y542497D01*
X1095834D01*
X1097500Y540831D01*
Y534166D01*
X1095834Y532500D01*
X1092502D01*
X1090835Y534166D01*
X1080839Y532500D02*
X1087503D01*
X1080839Y539165D01*
Y540831D01*
X1082505Y542497D01*
X1085837D01*
X1087503Y540831D01*
X1070842Y542497D02*
X1077506D01*
Y537498D01*
X1074174Y539165D01*
X1072508D01*
X1070842Y537498D01*
Y534166D01*
X1072508Y532500D01*
X1075840D01*
X1077506Y534166D01*
X1090835Y580831D02*
X1092502Y582497D01*
X1095834D01*
X1097500Y580831D01*
Y574166D01*
X1095834Y572500D01*
X1092502D01*
X1090835Y574166D01*
X1080839Y572500D02*
X1087503D01*
X1080839Y579165D01*
Y580831D01*
X1082505Y582497D01*
X1085837D01*
X1087503Y580831D01*
X1070842Y582497D02*
X1074174Y580831D01*
X1077506Y577498D01*
Y574166D01*
X1075840Y572500D01*
X1072508D01*
X1070842Y574166D01*
Y575832D01*
X1072508Y577498D01*
X1077506D01*
X833335Y653331D02*
X835002Y654997D01*
X838334D01*
X840000Y653331D01*
Y646666D01*
X838334Y645000D01*
X835002D01*
X833335Y646666D01*
X830003Y653331D02*
X828337Y654997D01*
X825005D01*
X823339Y653331D01*
Y651665D01*
X825005Y649998D01*
X826671D01*
X825005D01*
X823339Y648332D01*
Y646666D01*
X825005Y645000D01*
X828337D01*
X830003Y646666D01*
X820006Y653331D02*
X818340Y654997D01*
X815008D01*
X813342Y653331D01*
Y646666D01*
X815008Y645000D01*
X818340D01*
X820006Y646666D01*
Y653331D01*
X833335Y613331D02*
X835002Y614997D01*
X838334D01*
X840000Y613331D01*
Y606666D01*
X838334Y605000D01*
X835002D01*
X833335Y606666D01*
X830003Y613331D02*
X828337Y614997D01*
X825005D01*
X823339Y613331D01*
Y611665D01*
X825005Y609998D01*
X826671D01*
X825005D01*
X823339Y608332D01*
Y606666D01*
X825005Y605000D01*
X828337D01*
X830003Y606666D01*
X820006Y605000D02*
X816674D01*
X818340D01*
Y614997D01*
X820006Y613331D01*
X835835Y575831D02*
X837502Y577497D01*
X840834D01*
X842500Y575831D01*
Y569166D01*
X840834Y567500D01*
X837502D01*
X835835Y569166D01*
X832503Y575831D02*
X830837Y577497D01*
X827505D01*
X825839Y575831D01*
Y574165D01*
X827505Y572498D01*
X829171D01*
X827505D01*
X825839Y570832D01*
Y569166D01*
X827505Y567500D01*
X830837D01*
X832503Y569166D01*
X815842Y567500D02*
X822506D01*
X815842Y574165D01*
Y575831D01*
X817508Y577497D01*
X820840D01*
X822506Y575831D01*
X835835Y535831D02*
X837502Y537497D01*
X840834D01*
X842500Y535831D01*
Y529166D01*
X840834Y527500D01*
X837502D01*
X835835Y529166D01*
X832503Y535831D02*
X830837Y537497D01*
X827505D01*
X825839Y535831D01*
Y534165D01*
X827505Y532498D01*
X829171D01*
X827505D01*
X825839Y530832D01*
Y529166D01*
X827505Y527500D01*
X830837D01*
X832503Y529166D01*
X822506Y535831D02*
X820840Y537497D01*
X817508D01*
X815842Y535831D01*
Y534165D01*
X817508Y532498D01*
X819174D01*
X817508D01*
X815842Y530832D01*
Y529166D01*
X817508Y527500D01*
X820840D01*
X822506Y529166D01*
X835335Y340331D02*
X837002Y341997D01*
X840334D01*
X842000Y340331D01*
Y333666D01*
X840334Y332000D01*
X837002D01*
X835335Y333666D01*
X832003Y340331D02*
X830337Y341997D01*
X827005D01*
X825339Y340331D01*
Y338665D01*
X827005Y336998D01*
X828671D01*
X827005D01*
X825339Y335332D01*
Y333666D01*
X827005Y332000D01*
X830337D01*
X832003Y333666D01*
X817008Y332000D02*
Y341997D01*
X822006Y336998D01*
X815342D01*
X1090835Y330831D02*
X1092502Y332497D01*
X1095834D01*
X1097500Y330831D01*
Y324166D01*
X1095834Y322500D01*
X1092502D01*
X1090835Y324166D01*
X1087503Y330831D02*
X1085837Y332497D01*
X1082505D01*
X1080839Y330831D01*
Y329165D01*
X1082505Y327498D01*
X1084171D01*
X1082505D01*
X1080839Y325832D01*
Y324166D01*
X1082505Y322500D01*
X1085837D01*
X1087503Y324166D01*
X1070842Y332497D02*
X1074174Y330831D01*
X1077506Y327498D01*
Y324166D01*
X1075840Y322500D01*
X1072508D01*
X1070842Y324166D01*
Y325832D01*
X1072508Y327498D01*
X1077506D01*
X1090835Y370831D02*
X1092502Y372497D01*
X1095834D01*
X1097500Y370831D01*
Y364166D01*
X1095834Y362500D01*
X1092502D01*
X1090835Y364166D01*
X1087503Y370831D02*
X1085837Y372497D01*
X1082505D01*
X1080839Y370831D01*
Y369165D01*
X1082505Y367498D01*
X1084171D01*
X1082505D01*
X1080839Y365832D01*
Y364166D01*
X1082505Y362500D01*
X1085837D01*
X1087503Y364166D01*
X1077506Y372497D02*
X1070842D01*
Y370831D01*
X1077506Y364166D01*
Y362500D01*
X1090835Y410831D02*
X1092502Y412497D01*
X1095834D01*
X1097500Y410831D01*
Y404166D01*
X1095834Y402500D01*
X1092502D01*
X1090835Y404166D01*
X1087503Y410831D02*
X1085837Y412497D01*
X1082505D01*
X1080839Y410831D01*
Y409165D01*
X1082505Y407498D01*
X1084171D01*
X1082505D01*
X1080839Y405832D01*
Y404166D01*
X1082505Y402500D01*
X1085837D01*
X1087503Y404166D01*
X1077506Y410831D02*
X1075840Y412497D01*
X1072508D01*
X1070842Y410831D01*
Y409165D01*
X1072508Y407498D01*
X1070842Y405832D01*
Y404166D01*
X1072508Y402500D01*
X1075840D01*
X1077506Y404166D01*
Y405832D01*
X1075840Y407498D01*
X1077506Y409165D01*
Y410831D01*
X1075840Y407498D02*
X1072508D01*
X932500Y462497D02*
Y452500D01*
X927502D01*
X925835Y454166D01*
Y460831D01*
X927502Y462497D01*
X932500D01*
X922503D02*
X915839D01*
Y460831D01*
X922503Y454166D01*
Y452500D01*
X1055000Y762497D02*
Y752500D01*
X1050002D01*
X1048335Y754166D01*
Y760831D01*
X1050002Y762497D01*
X1055000D01*
X1045003Y760831D02*
X1043337Y762497D01*
X1040005D01*
X1038339Y760831D01*
Y759165D01*
X1040005Y757498D01*
X1038339Y755832D01*
Y754166D01*
X1040005Y752500D01*
X1043337D01*
X1045003Y754166D01*
Y755832D01*
X1043337Y757498D01*
X1045003Y759165D01*
Y760831D01*
X1043337Y757498D02*
X1040005D01*
X1055000Y622497D02*
Y612500D01*
X1050002D01*
X1048335Y614166D01*
Y620831D01*
X1050002Y622497D01*
X1055000D01*
X1045003Y614166D02*
X1043337Y612500D01*
X1040005D01*
X1038339Y614166D01*
Y620831D01*
X1040005Y622497D01*
X1043337D01*
X1045003Y620831D01*
Y619165D01*
X1043337Y617498D01*
X1038339D01*
X1047336Y468997D02*
X1054000D01*
Y463998D01*
X1050668D01*
X1054000D01*
Y459000D01*
X1044003Y468997D02*
Y459000D01*
X1039005D01*
X1037339Y460666D01*
Y462332D01*
X1039005Y463998D01*
X1044003D01*
X1039005D01*
X1037339Y465664D01*
Y467331D01*
X1039005Y468997D01*
X1044003D01*
X1034006Y459000D02*
X1030674D01*
X1032340D01*
Y468997D01*
X1034006Y467331D01*
X645000Y697500D02*
Y707497D01*
X640002D01*
X638335Y705831D01*
Y702498D01*
X640002Y700832D01*
X645000D01*
X641668D02*
X638335Y697500D01*
X635003D02*
X631671D01*
X633337D01*
Y707497D01*
X635003Y705831D01*
X645000Y720000D02*
Y729997D01*
X640002D01*
X638335Y728331D01*
Y724998D01*
X640002Y723332D01*
X645000D01*
X641668D02*
X638335Y720000D01*
X628339D02*
X635003D01*
X628339Y726665D01*
Y728331D01*
X630005Y729997D01*
X633337D01*
X635003Y728331D01*
X570000Y742500D02*
Y752497D01*
X565002D01*
X563335Y750831D01*
Y747498D01*
X565002Y745832D01*
X570000D01*
X566668D02*
X563335Y742500D01*
X560003Y750831D02*
X558337Y752497D01*
X555005D01*
X553339Y750831D01*
Y749165D01*
X555005Y747498D01*
X556671D01*
X555005D01*
X553339Y745832D01*
Y744166D01*
X555005Y742500D01*
X558337D01*
X560003Y744166D01*
X570000Y720000D02*
Y729997D01*
X565002D01*
X563335Y728331D01*
Y724998D01*
X565002Y723332D01*
X570000D01*
X566668D02*
X563335Y720000D01*
X555005D02*
Y729997D01*
X560003Y724998D01*
X553339D01*
X570000Y700000D02*
Y709997D01*
X565002D01*
X563335Y708331D01*
Y704998D01*
X565002Y703332D01*
X570000D01*
X566668D02*
X563335Y700000D01*
X553339Y709997D02*
X556671Y708331D01*
X560003Y704998D01*
Y701666D01*
X558337Y700000D01*
X555005D01*
X553339Y701666D01*
Y703332D01*
X555005Y704998D01*
X560003D01*
X512500Y730000D02*
Y739997D01*
X507502D01*
X505835Y738331D01*
Y734998D01*
X507502Y733332D01*
X512500D01*
X509168D02*
X505835Y730000D01*
X502503Y739997D02*
X495839D01*
Y738331D01*
X502503Y731666D01*
Y730000D01*
X275000Y590000D02*
Y599997D01*
X270002D01*
X268335Y598331D01*
Y594998D01*
X270002Y593332D01*
X275000D01*
X271668D02*
X268335Y590000D01*
X265003Y598331D02*
X263337Y599997D01*
X260005D01*
X258339Y598331D01*
Y596665D01*
X260005Y594998D01*
X258339Y593332D01*
Y591666D01*
X260005Y590000D01*
X263337D01*
X265003Y591666D01*
Y593332D01*
X263337Y594998D01*
X265003Y596665D01*
Y598331D01*
X263337Y594998D02*
X260005D01*
X275000Y645000D02*
Y654997D01*
X270002D01*
X268335Y653331D01*
Y649998D01*
X270002Y648332D01*
X275000D01*
X271668D02*
X268335Y645000D01*
X265003Y646666D02*
X263337Y645000D01*
X260005D01*
X258339Y646666D01*
Y653331D01*
X260005Y654997D01*
X263337D01*
X265003Y653331D01*
Y651665D01*
X263337Y649998D01*
X258339D01*
X280000Y412500D02*
Y422497D01*
X275002D01*
X273335Y420831D01*
Y417498D01*
X275002Y415832D01*
X280000D01*
X276668D02*
X273335Y412500D01*
X270003D02*
X266671D01*
X268337D01*
Y422497D01*
X270003Y420831D01*
X261673D02*
X260006Y422497D01*
X256674D01*
X255008Y420831D01*
Y419165D01*
X256674Y417498D01*
X258340D01*
X256674D01*
X255008Y415832D01*
Y414166D01*
X256674Y412500D01*
X260006D01*
X261673Y414166D01*
X280000Y357500D02*
Y367497D01*
X275002D01*
X273335Y365831D01*
Y362498D01*
X275002Y360832D01*
X280000D01*
X276668D02*
X273335Y357500D01*
X270003D02*
X266671D01*
X268337D01*
Y367497D01*
X270003Y365831D01*
X256674Y357500D02*
Y367497D01*
X261673Y362498D01*
X255008D01*
X1155000Y307500D02*
X1145003D01*
Y302502D01*
X1146669Y300835D01*
X1150002D01*
X1151668Y302502D01*
Y307500D01*
Y304168D02*
X1155000Y300835D01*
Y297503D02*
Y294171D01*
Y295837D01*
X1145003D01*
X1146669Y297503D01*
Y289173D02*
X1145003Y287506D01*
Y284174D01*
X1146669Y282508D01*
X1148335D01*
X1150002Y284174D01*
X1151668Y282508D01*
X1153334D01*
X1155000Y284174D01*
Y287506D01*
X1153334Y289173D01*
X1151668D01*
X1150002Y287506D01*
X1148335Y289173D01*
X1146669D01*
X1150002Y287506D02*
Y284174D01*
X1013206Y341884D02*
Y351881D01*
X1008208D01*
X1006542Y350215D01*
Y346882D01*
X1008208Y345216D01*
X1013206D01*
X1009874D02*
X1006542Y341884D01*
X996545D02*
X1003209D01*
X996545Y348549D01*
Y350215D01*
X998211Y351881D01*
X1001543D01*
X1003209Y350215D01*
X993212D02*
X991546Y351881D01*
X988214D01*
X986548Y350215D01*
Y343550D01*
X988214Y341884D01*
X991546D01*
X993212Y343550D01*
Y350215D01*
M02*
