G04 Layer_Color=65535*
%FSLAX44Y44*%
%MOMM*%
G71*
G01*
G75*
%ADD41C,0.2540*%
%ADD42C,0.2000*%
%ADD43C,0.2200*%
D41*
X1166250Y268000D02*
X1173750D01*
X1170000Y268250D02*
X1173750Y272000D01*
X1166250D02*
X1170000Y268250D01*
X1166250Y272000D02*
X1173750D01*
X261250Y603000D02*
X268750D01*
X265000Y603250D02*
X268750Y607000D01*
X261250D02*
X265000Y603250D01*
X261250Y607000D02*
X268750D01*
X261250Y548000D02*
X268750D01*
X265000Y548250D02*
X268750Y552000D01*
X261250D02*
X265000Y548250D01*
X261250Y552000D02*
X268750D01*
X261250Y315500D02*
X268750D01*
X265000Y315750D02*
X268750Y319500D01*
X261250D02*
X265000Y315750D01*
X261250Y319500D02*
X268750D01*
X261250Y370500D02*
X268750D01*
X265000Y370750D02*
X268750Y374500D01*
X261250D02*
X265000Y370750D01*
X261250Y374500D02*
X268750D01*
X373000Y716250D02*
Y723750D01*
X373250Y720000D02*
X377000Y716250D01*
X373250Y720000D02*
X377000Y723750D01*
Y716250D02*
Y723750D01*
D42*
X1262500Y425000D02*
G03*
X1262500Y425000I-50000J0D01*
G01*
Y575000D02*
G03*
X1262500Y575000I-50000J0D01*
G01*
Y727500D02*
G03*
X1262500Y727500I-50000J0D01*
G01*
X822500Y482500D02*
G03*
X822500Y482500I-50000J0D01*
G01*
Y692500D02*
G03*
X822500Y692500I-50000J0D01*
G01*
X587000Y583000D02*
X609000D01*
Y617000D01*
X587000D02*
X609000D01*
X587000Y583000D02*
Y617000D01*
X1159000Y253000D02*
Y287000D01*
Y253000D02*
X1181000D01*
Y287000D01*
X1159000D02*
X1181000D01*
X254000Y588000D02*
Y622000D01*
Y588000D02*
X276000D01*
Y622000D01*
X254000D02*
X276000D01*
X254000Y533000D02*
Y567000D01*
Y533000D02*
X276000D01*
Y567000D01*
X254000D02*
X276000D01*
X254000Y300500D02*
Y334500D01*
Y300500D02*
X276000D01*
Y334500D01*
X254000D02*
X276000D01*
X254000Y355500D02*
Y389500D01*
Y355500D02*
X276000D01*
Y389500D01*
X254000D02*
X276000D01*
X587000Y548000D02*
X609000D01*
Y582000D01*
X587000D02*
X609000D01*
X587000Y548000D02*
Y582000D01*
X1203000Y419920D02*
Y430080D01*
X1197920Y425000D02*
X1208080D01*
X1203000Y569920D02*
Y580080D01*
X1197920Y575000D02*
X1208080D01*
X1203000Y722420D02*
Y732580D01*
X1197920Y727500D02*
X1208080D01*
X1014000Y440000D02*
X1156000D01*
Y271000D02*
Y440000D01*
X1014000Y271000D02*
X1156000D01*
X1014000D02*
Y440000D01*
Y441000D02*
Y610000D01*
Y441000D02*
X1156000D01*
Y610000D01*
X1014000D02*
X1156000D01*
X892000Y309000D02*
Y331000D01*
X858000D02*
X892000D01*
X858000Y309000D02*
Y331000D01*
Y309000D02*
X892000D01*
X1014000Y780000D02*
X1156000D01*
Y611000D02*
Y780000D01*
X1014000Y611000D02*
X1156000D01*
X1014000D02*
Y780000D01*
X978000Y614000D02*
Y636000D01*
Y614000D02*
X1012000D01*
Y636000D01*
X978000D02*
X1012000D01*
X978000Y636500D02*
Y658500D01*
Y636500D02*
X1012000D01*
Y658500D01*
X978000D02*
X1012000D01*
X858000Y466500D02*
Y488500D01*
Y466500D02*
X892000D01*
Y488500D01*
X858000D02*
X892000D01*
X858000Y444000D02*
Y466000D01*
Y444000D02*
X892000D01*
Y466000D01*
X858000D02*
X892000D01*
X892500Y310000D02*
Y490000D01*
Y310000D02*
X1012500D01*
Y490000D01*
X892500D02*
X1012500D01*
X518000Y319100D02*
Y432100D01*
Y319100D02*
X552000D01*
Y432100D01*
X518000D02*
X552000D01*
X716000Y319100D02*
Y432100D01*
Y319100D02*
X750000D01*
Y432100D01*
X716000D02*
X750000D01*
X518000Y534100D02*
Y647100D01*
Y534100D02*
X552000D01*
Y647100D01*
X518000D02*
X552000D01*
X716000Y534100D02*
Y647100D01*
Y534100D02*
X750000D01*
Y647100D01*
X716000D02*
X750000D01*
X782000Y477420D02*
Y487580D01*
X776920Y482500D02*
X787080D01*
X809000Y557000D02*
X831000D01*
X809000Y523000D02*
Y557000D01*
Y523000D02*
X831000D01*
Y557000D01*
X809000Y592000D02*
X831000D01*
X809000Y558000D02*
Y592000D01*
Y558000D02*
X831000D01*
Y592000D01*
X832500Y610000D02*
X1012500D01*
X832500Y490000D02*
Y610000D01*
Y490000D02*
X1012500D01*
Y610000D01*
X897000Y636500D02*
Y658500D01*
X863000D02*
X897000D01*
X863000Y636500D02*
Y658500D01*
Y636500D02*
X897000D01*
X782000Y687420D02*
Y697580D01*
X776920Y692500D02*
X787080D01*
X832500Y780000D02*
X1012500D01*
X832500Y660000D02*
Y780000D01*
Y660000D02*
X1012500D01*
Y780000D01*
X809000Y779500D02*
X831000D01*
X809000Y745500D02*
Y779500D01*
Y745500D02*
X831000D01*
Y779500D01*
X557000Y271000D02*
Y481000D01*
Y271000D02*
X710000D01*
Y481000D01*
X557000D02*
X710000D01*
X557000Y696000D02*
X710000D01*
Y486000D02*
Y696000D01*
X557000Y486000D02*
X710000D01*
X557000D02*
Y696000D01*
X359500Y481000D02*
X512500D01*
Y271000D02*
Y481000D01*
X359500Y271000D02*
X512500D01*
X359500D02*
Y481000D01*
X393000Y709000D02*
Y731000D01*
Y709000D02*
X427000D01*
Y731000D01*
X393000D02*
X427000D01*
X358000D02*
X392000D01*
X358000Y709000D02*
Y731000D01*
Y709000D02*
X392000D01*
Y731000D01*
X344000Y780000D02*
X456000D01*
Y731000D02*
Y780000D01*
X344000Y731000D02*
X456000D01*
X344000D02*
Y780000D01*
X359500Y486000D02*
Y696000D01*
Y486000D02*
X512500D01*
Y696000D01*
X359500D02*
X512500D01*
X389000Y333000D02*
X411000D01*
Y367000D01*
X389000D02*
X411000D01*
X389000Y333000D02*
Y367000D01*
Y548000D02*
X411000D01*
Y582000D01*
X389000D02*
X411000D01*
X389000Y548000D02*
Y582000D01*
X586500Y333000D02*
X608500D01*
Y367000D01*
X586500D02*
X608500D01*
X586500Y333000D02*
Y367000D01*
X665000Y740997D02*
Y733000D01*
X668999D01*
X670332Y734333D01*
Y735666D01*
X668999Y736999D01*
X665000D01*
X668999D01*
X670332Y738332D01*
Y739665D01*
X668999Y740997D01*
X665000D01*
X672997Y733000D02*
Y738332D01*
X675663Y740997D01*
X678329Y738332D01*
Y733000D01*
Y736999D01*
X672997D01*
X680995Y740997D02*
X686326D01*
X683661D01*
Y733000D01*
X688992Y736999D02*
X694324D01*
X691658Y739665D02*
Y734333D01*
X746000Y780997D02*
Y773000D01*
X749999D01*
X751332Y774333D01*
Y775666D01*
X749999Y776999D01*
X746000D01*
X749999D01*
X751332Y778332D01*
Y779665D01*
X749999Y780997D01*
X746000D01*
X753997Y773000D02*
Y778332D01*
X756663Y780997D01*
X759329Y778332D01*
Y773000D01*
Y776999D01*
X753997D01*
X761995Y780997D02*
X767327D01*
X764661D01*
Y773000D01*
X769992Y776999D02*
X775324D01*
X255230Y578307D02*
Y570310D01*
X259229D01*
X260562Y571643D01*
Y576974D01*
X259229Y578307D01*
X255230D01*
X263227D02*
X265893D01*
X264560D01*
Y570310D01*
X263227D01*
X265893D01*
X269892D02*
Y578307D01*
X273891D01*
X275224Y576974D01*
Y574309D01*
X273891Y572976D01*
X269892D01*
X272558D02*
X275224Y570310D01*
X277889D02*
X280555D01*
X279222D01*
Y578307D01*
X277889Y576974D01*
X255230Y633171D02*
Y625174D01*
X259229D01*
X260562Y626507D01*
Y631838D01*
X259229Y633171D01*
X255230D01*
X263227D02*
X265893D01*
X264560D01*
Y625174D01*
X263227D01*
X265893D01*
X269892D02*
Y633171D01*
X273891D01*
X275224Y631838D01*
Y629173D01*
X273891Y627840D01*
X269892D01*
X272558D02*
X275224Y625174D01*
X283221D02*
X277889D01*
X283221Y630506D01*
Y631838D01*
X281888Y633171D01*
X279222D01*
X277889Y631838D01*
X255230Y400761D02*
Y392764D01*
X259229D01*
X260562Y394097D01*
Y399428D01*
X259229Y400761D01*
X255230D01*
X263227D02*
X265893D01*
X264560D01*
Y392764D01*
X263227D01*
X265893D01*
X269892D02*
Y400761D01*
X273891D01*
X275224Y399428D01*
Y396763D01*
X273891Y395430D01*
X269892D01*
X272558D02*
X275224Y392764D01*
X277889Y399428D02*
X279222Y400761D01*
X281888D01*
X283221Y399428D01*
Y398096D01*
X281888Y396763D01*
X280555D01*
X281888D01*
X283221Y395430D01*
Y394097D01*
X281888Y392764D01*
X279222D01*
X277889Y394097D01*
X255230Y345897D02*
Y337900D01*
X259229D01*
X260562Y339233D01*
Y344565D01*
X259229Y345897D01*
X255230D01*
X263227D02*
X265893D01*
X264560D01*
Y337900D01*
X263227D01*
X265893D01*
X269892D02*
Y345897D01*
X273891D01*
X275224Y344565D01*
Y341899D01*
X273891Y340566D01*
X269892D01*
X272558D02*
X275224Y337900D01*
X281888D02*
Y345897D01*
X277889Y341899D01*
X283221D01*
X587000Y620000D02*
Y627997D01*
X590999D01*
X592332Y626665D01*
Y623999D01*
X590999Y622666D01*
X587000D01*
X594997Y627997D02*
Y621333D01*
X596330Y620000D01*
X598996D01*
X600329Y621333D01*
Y627997D01*
X602995D02*
Y620000D01*
X608326D01*
X610992Y627997D02*
Y620000D01*
X616324D01*
X618990Y627997D02*
Y621333D01*
X620323Y620000D01*
X622988D01*
X624321Y621333D01*
Y627997D01*
X626987Y620000D02*
Y627997D01*
X630986D01*
X632319Y626665D01*
Y623999D01*
X630986Y622666D01*
X626987D01*
D43*
X909165Y653331D02*
X907498Y654997D01*
X904166D01*
X902500Y653331D01*
Y646666D01*
X904166Y645000D01*
X907498D01*
X909165Y646666D01*
X912497Y645000D02*
X915829D01*
X914163D01*
Y654997D01*
X912497Y653331D01*
X927492Y654997D02*
X920827D01*
Y649998D01*
X924160Y651665D01*
X925826D01*
X927492Y649998D01*
Y646666D01*
X925826Y645000D01*
X922494D01*
X920827Y646666D01*
X796669Y541665D02*
X795003Y539998D01*
Y536666D01*
X796669Y535000D01*
X803334D01*
X805000Y536666D01*
Y539998D01*
X803334Y541665D01*
X805000Y544997D02*
Y548329D01*
Y546663D01*
X795003D01*
X796669Y544997D01*
X795003Y559992D02*
X796669Y556660D01*
X800002Y553327D01*
X803334D01*
X805000Y554994D01*
Y558326D01*
X803334Y559992D01*
X801668D01*
X800002Y558326D01*
Y553327D01*
X1206665Y750831D02*
X1204998Y752497D01*
X1201666D01*
X1200000Y750831D01*
Y744166D01*
X1201666Y742500D01*
X1204998D01*
X1206665Y744166D01*
X1209997Y742500D02*
X1213329D01*
X1211663D01*
Y752497D01*
X1209997Y750831D01*
X1218327Y752497D02*
X1224992D01*
Y750831D01*
X1218327Y744166D01*
Y742500D01*
X1206665Y598331D02*
X1204998Y599997D01*
X1201666D01*
X1200000Y598331D01*
Y591666D01*
X1201666Y590000D01*
X1204998D01*
X1206665Y591666D01*
X1209997Y590000D02*
X1213329D01*
X1211663D01*
Y599997D01*
X1209997Y598331D01*
X1218327D02*
X1219994Y599997D01*
X1223326D01*
X1224992Y598331D01*
Y596665D01*
X1223326Y594998D01*
X1224992Y593332D01*
Y591666D01*
X1223326Y590000D01*
X1219994D01*
X1218327Y591666D01*
Y593332D01*
X1219994Y594998D01*
X1218327Y596665D01*
Y598331D01*
X1219994Y594998D02*
X1223326D01*
X766665Y715831D02*
X764998Y717497D01*
X761666D01*
X760000Y715831D01*
Y709166D01*
X761666Y707500D01*
X764998D01*
X766665Y709166D01*
X776661Y707500D02*
X769997D01*
X776661Y714165D01*
Y715831D01*
X774995Y717497D01*
X771663D01*
X769997Y715831D01*
X779994Y717497D02*
X786658D01*
Y715831D01*
X779994Y709166D01*
Y707500D01*
X766665Y505831D02*
X764998Y507497D01*
X761666D01*
X760000Y505831D01*
Y499166D01*
X761666Y497500D01*
X764998D01*
X766665Y499166D01*
X776661Y497500D02*
X769997D01*
X776661Y504165D01*
Y505831D01*
X774995Y507497D01*
X771663D01*
X769997Y505831D01*
X779994D02*
X781660Y507497D01*
X784992D01*
X786658Y505831D01*
Y504165D01*
X784992Y502498D01*
X786658Y500832D01*
Y499166D01*
X784992Y497500D01*
X781660D01*
X779994Y499166D01*
Y500832D01*
X781660Y502498D01*
X779994Y504165D01*
Y505831D01*
X781660Y502498D02*
X784992D01*
X1206665Y445831D02*
X1204998Y447497D01*
X1201666D01*
X1200000Y445831D01*
Y439166D01*
X1201666Y437500D01*
X1204998D01*
X1206665Y439166D01*
X1216661Y437500D02*
X1209997D01*
X1216661Y444165D01*
Y445831D01*
X1214995Y447497D01*
X1211663D01*
X1209997Y445831D01*
X1219994Y439166D02*
X1221660Y437500D01*
X1224992D01*
X1226658Y439166D01*
Y445831D01*
X1224992Y447497D01*
X1221660D01*
X1219994Y445831D01*
Y444165D01*
X1221660Y442498D01*
X1226658D01*
X954165Y623331D02*
X952498Y624997D01*
X949166D01*
X947500Y623331D01*
Y616666D01*
X949166Y615000D01*
X952498D01*
X954165Y616666D01*
X957497Y623331D02*
X959163Y624997D01*
X962495D01*
X964161Y623331D01*
Y621665D01*
X962495Y619998D01*
X960829D01*
X962495D01*
X964161Y618332D01*
Y616666D01*
X962495Y615000D01*
X959163D01*
X957497Y616666D01*
X967494D02*
X969160Y615000D01*
X972492D01*
X974158Y616666D01*
Y623331D01*
X972492Y624997D01*
X969160D01*
X967494Y623331D01*
Y621665D01*
X969160Y619998D01*
X974158D01*
X834165Y453331D02*
X832498Y454997D01*
X829166D01*
X827500Y453331D01*
Y446666D01*
X829166Y445000D01*
X832498D01*
X834165Y446666D01*
X842495Y445000D02*
Y454997D01*
X837497Y449998D01*
X844161D01*
X847494Y453331D02*
X849160Y454997D01*
X852492D01*
X854158Y453331D01*
Y446666D01*
X852492Y445000D01*
X849160D01*
X847494Y446666D01*
Y453331D01*
X278000Y727997D02*
Y721332D01*
X281332Y718000D01*
X284664Y721332D01*
Y727997D01*
X287997D02*
Y718000D01*
X292995D01*
X294661Y719666D01*
Y721332D01*
X292995Y722998D01*
X287997D01*
X292995D01*
X294661Y724665D01*
Y726331D01*
X292995Y727997D01*
X287997D01*
X297994Y718000D02*
Y724665D01*
X301326Y727997D01*
X304658Y724665D01*
Y718000D01*
Y722998D01*
X297994D01*
X307990Y727997D02*
X314655D01*
X311323D01*
Y718000D01*
X327984Y727997D02*
Y718000D01*
X334648D01*
X344645Y727997D02*
X337981D01*
Y718000D01*
X344645D01*
X337981Y722998D02*
X341313D01*
X347977Y727997D02*
Y718000D01*
X352976D01*
X354642Y719666D01*
Y726331D01*
X352976Y727997D01*
X347977D01*
X1167664Y306331D02*
X1165998Y307997D01*
X1162666D01*
X1161000Y306331D01*
Y299666D01*
X1162666Y298000D01*
X1165998D01*
X1167664Y299666D01*
X1170997Y307997D02*
Y298000D01*
Y302998D01*
X1177661D01*
Y307997D01*
Y298000D01*
X1180993D02*
Y307997D01*
X1185992D01*
X1187658Y306331D01*
Y302998D01*
X1185992Y301332D01*
X1180993D01*
X1184326D02*
X1187658Y298000D01*
X1197655Y306331D02*
X1195989Y307997D01*
X1192656D01*
X1190990Y306331D01*
Y299666D01*
X1192656Y298000D01*
X1195989D01*
X1197655Y299666D01*
Y302998D01*
X1194323D01*
X1210984Y307997D02*
Y298000D01*
X1217648D01*
X1227645Y307997D02*
X1220981D01*
Y298000D01*
X1227645D01*
X1220981Y302998D02*
X1224313D01*
X1230977Y307997D02*
Y298000D01*
X1235976D01*
X1237642Y299666D01*
Y306331D01*
X1235976Y307997D01*
X1230977D01*
X331665Y779997D02*
X328332D01*
X329998D01*
Y771666D01*
X328332Y770000D01*
X326666D01*
X325000Y771666D01*
X334997Y770000D02*
X338329D01*
X336663D01*
Y779997D01*
X334997Y778331D01*
X722165Y660997D02*
X718832D01*
X720498D01*
Y652666D01*
X718832Y651000D01*
X717166D01*
X715500Y652666D01*
X725497Y659331D02*
X727163Y660997D01*
X730495D01*
X732161Y659331D01*
Y657664D01*
X730495Y655998D01*
X728829D01*
X730495D01*
X732161Y654332D01*
Y652666D01*
X730495Y651000D01*
X727163D01*
X725497Y652666D01*
X524165Y445997D02*
X520832D01*
X522498D01*
Y437666D01*
X520832Y436000D01*
X519166D01*
X517500Y437666D01*
X532495Y436000D02*
Y445997D01*
X527497Y440998D01*
X534161D01*
X524165Y660997D02*
X520832D01*
X522498D01*
Y652666D01*
X520832Y651000D01*
X519166D01*
X517500Y652666D01*
X534161Y660997D02*
X527497D01*
Y655998D01*
X530829Y657664D01*
X532495D01*
X534161Y655998D01*
Y652666D01*
X532495Y651000D01*
X529163D01*
X527497Y652666D01*
X722165Y445997D02*
X718832D01*
X720498D01*
Y437666D01*
X718832Y436000D01*
X717166D01*
X715500Y437666D01*
X732161Y445997D02*
X728829Y444331D01*
X725497Y440998D01*
Y437666D01*
X727163Y436000D01*
X730495D01*
X732161Y437666D01*
Y439332D01*
X730495Y440998D01*
X725497D01*
X1022500Y432497D02*
Y422500D01*
X1029165D01*
X1032497D02*
X1035829D01*
X1034163D01*
Y432497D01*
X1032497Y430831D01*
X1020000Y604997D02*
Y595000D01*
X1026665D01*
X1029997Y603331D02*
X1031663Y604997D01*
X1034995D01*
X1036661Y603331D01*
Y601665D01*
X1034995Y599998D01*
X1033329D01*
X1034995D01*
X1036661Y598332D01*
Y596666D01*
X1034995Y595000D01*
X1031663D01*
X1029997Y596666D01*
X1219165Y672497D02*
X1212500D01*
Y667498D01*
X1215832Y669165D01*
X1217498D01*
X1219165Y667498D01*
Y664166D01*
X1217498Y662500D01*
X1214166D01*
X1212500Y664166D01*
X1222497Y672497D02*
Y665832D01*
X1225829Y662500D01*
X1229161Y665832D01*
Y672497D01*
X1232494Y667498D02*
X1239158D01*
X1235826Y670831D02*
Y664166D01*
X1189665Y638997D02*
X1183000D01*
Y633998D01*
X1186332Y635664D01*
X1187998D01*
X1189665Y633998D01*
Y630666D01*
X1187998Y629000D01*
X1184666D01*
X1183000Y630666D01*
X1192997Y638997D02*
Y632332D01*
X1196329Y629000D01*
X1199661Y632332D01*
Y638997D01*
X1219655Y637331D02*
X1217989Y638997D01*
X1214657D01*
X1212990Y637331D01*
Y630666D01*
X1214657Y629000D01*
X1217989D01*
X1219655Y630666D01*
Y633998D01*
X1216323D01*
X1222987Y629000D02*
Y638997D01*
X1229652Y629000D01*
Y638997D01*
X1232984D02*
Y629000D01*
X1237982D01*
X1239648Y630666D01*
Y637331D01*
X1237982Y638997D01*
X1232984D01*
X1206000Y510000D02*
X1209332D01*
X1207666D01*
Y519997D01*
X1206000Y518331D01*
X1220995Y510000D02*
X1214331D01*
X1220995Y516665D01*
Y518331D01*
X1219329Y519997D01*
X1215997D01*
X1214331Y518331D01*
X1224327Y519997D02*
Y513332D01*
X1227660Y510000D01*
X1230992Y513332D01*
Y519997D01*
X1234324Y514998D02*
X1240989D01*
X1237656Y518331D02*
Y511666D01*
X1174000Y479000D02*
X1177332D01*
X1175666D01*
Y488997D01*
X1174000Y487331D01*
X1188995Y479000D02*
X1182331D01*
X1188995Y485664D01*
Y487331D01*
X1187329Y488997D01*
X1183997D01*
X1182331Y487331D01*
X1192327Y488997D02*
Y482332D01*
X1195660Y479000D01*
X1198992Y482332D01*
Y488997D01*
X1218986Y487331D02*
X1217319Y488997D01*
X1213987D01*
X1212321Y487331D01*
Y480666D01*
X1213987Y479000D01*
X1217319D01*
X1218986Y480666D01*
Y483998D01*
X1215653D01*
X1222318Y479000D02*
Y488997D01*
X1228982Y479000D01*
Y488997D01*
X1232315D02*
Y479000D01*
X1237313D01*
X1238979Y480666D01*
Y487331D01*
X1237313Y488997D01*
X1232315D01*
X1172664Y347331D02*
X1170998Y348997D01*
X1167666D01*
X1166000Y347331D01*
Y340666D01*
X1167666Y339000D01*
X1170998D01*
X1172664Y340666D01*
X1175997Y348997D02*
Y339000D01*
Y343998D01*
X1182661D01*
Y348997D01*
Y339000D01*
X1185994D02*
Y345664D01*
X1189326Y348997D01*
X1192658Y345664D01*
Y339000D01*
Y343998D01*
X1185994D01*
X1195990Y339000D02*
Y348997D01*
X1200989D01*
X1202655Y347331D01*
Y343998D01*
X1200989Y342332D01*
X1195990D01*
X1199323D02*
X1202655Y339000D01*
X1212652Y347331D02*
X1210985Y348997D01*
X1207653D01*
X1205987Y347331D01*
Y340666D01*
X1207653Y339000D01*
X1210985D01*
X1212652Y340666D01*
Y343998D01*
X1209319D01*
X1222648Y348997D02*
X1215984D01*
Y339000D01*
X1222648D01*
X1215984Y343998D02*
X1219316D01*
X1235977Y348997D02*
X1239310D01*
X1237644D01*
Y339000D01*
X1235977D01*
X1239310D01*
X1244308D02*
Y348997D01*
X1250973Y339000D01*
Y348997D01*
X1254305Y343998D02*
X1260969D01*
X1257637Y347331D02*
Y340666D01*
X1192664Y291331D02*
X1190998Y292997D01*
X1187666D01*
X1186000Y291331D01*
Y284666D01*
X1187666Y283000D01*
X1190998D01*
X1192664Y284666D01*
X1195997Y292997D02*
Y283000D01*
Y287998D01*
X1202661D01*
Y292997D01*
Y283000D01*
X1205993D02*
Y292997D01*
X1210992D01*
X1212658Y291331D01*
Y287998D01*
X1210992Y286332D01*
X1205993D01*
X1209326D02*
X1212658Y283000D01*
X1222655Y291331D02*
X1220989Y292997D01*
X1217656D01*
X1215990Y291331D01*
Y284666D01*
X1217656Y283000D01*
X1220989D01*
X1222655Y284666D01*
Y287998D01*
X1219323D01*
X1242648Y291331D02*
X1240982Y292997D01*
X1237650D01*
X1235984Y291331D01*
Y284666D01*
X1237650Y283000D01*
X1240982D01*
X1242648Y284666D01*
Y287998D01*
X1239316D01*
X1245981Y283000D02*
Y292997D01*
X1252645Y283000D01*
Y292997D01*
X1255977D02*
Y283000D01*
X1260976D01*
X1262642Y284666D01*
Y291331D01*
X1260976Y292997D01*
X1255977D01*
X587000Y534000D02*
Y543997D01*
X591998D01*
X593665Y542331D01*
Y538998D01*
X591998Y537332D01*
X587000D01*
X590332D02*
X593665Y534000D01*
X596997D02*
X600329D01*
X598663D01*
Y543997D01*
X596997Y542331D01*
X605327Y534000D02*
X608660D01*
X606994D01*
Y543997D01*
X605327Y542331D01*
X390144Y375158D02*
Y385155D01*
X395142D01*
X396809Y383489D01*
Y380156D01*
X395142Y378490D01*
X390144D01*
X393476D02*
X396809Y375158D01*
X400141D02*
X403473D01*
X401807D01*
Y385155D01*
X400141Y383489D01*
X415136Y375158D02*
X408471D01*
X415136Y381823D01*
Y383489D01*
X413470Y385155D01*
X410138D01*
X408471Y383489D01*
X390144Y590296D02*
Y600293D01*
X395142D01*
X396809Y598627D01*
Y595294D01*
X395142Y593628D01*
X390144D01*
X393476D02*
X396809Y590296D01*
X400141D02*
X403473D01*
X401807D01*
Y600293D01*
X400141Y598627D01*
X415136Y600293D02*
X408471D01*
Y595294D01*
X411804Y596960D01*
X413470D01*
X415136Y595294D01*
Y591962D01*
X413470Y590296D01*
X410138D01*
X408471Y591962D01*
X587756Y375158D02*
Y385155D01*
X592754D01*
X594421Y383489D01*
Y380156D01*
X592754Y378490D01*
X587756D01*
X591088D02*
X594421Y375158D01*
X597753D02*
X601085D01*
X599419D01*
Y385155D01*
X597753Y383489D01*
X612748Y385155D02*
X609416Y383489D01*
X606083Y380156D01*
Y376824D01*
X607750Y375158D01*
X611082D01*
X612748Y376824D01*
Y378490D01*
X611082Y380156D01*
X606083D01*
X430000Y717500D02*
Y727497D01*
X434998D01*
X436665Y725831D01*
Y722498D01*
X434998Y720832D01*
X430000D01*
X433332D02*
X436665Y717500D01*
X439997D02*
X443329D01*
X441663D01*
Y727497D01*
X439997Y725831D01*
X448327Y727497D02*
X454992D01*
Y725831D01*
X448327Y719166D01*
Y717500D01*
X857500Y335000D02*
Y344997D01*
X862498D01*
X864165Y343331D01*
Y339998D01*
X862498Y338332D01*
X857500D01*
X860832D02*
X864165Y335000D01*
X867497D02*
X870829D01*
X869163D01*
Y344997D01*
X867497Y343331D01*
X875827Y336666D02*
X877494Y335000D01*
X880826D01*
X882492Y336666D01*
Y343331D01*
X880826Y344997D01*
X877494D01*
X875827Y343331D01*
Y341665D01*
X877494Y339998D01*
X882492D01*
X947500Y637500D02*
Y647497D01*
X952498D01*
X954165Y645831D01*
Y642498D01*
X952498Y640832D01*
X947500D01*
X950832D02*
X954165Y637500D01*
X964161D02*
X957497D01*
X964161Y644165D01*
Y645831D01*
X962495Y647497D01*
X959163D01*
X957497Y645831D01*
X967494Y637500D02*
X970826D01*
X969160D01*
Y647497D01*
X967494Y645831D01*
X827500Y467500D02*
Y477497D01*
X832498D01*
X834165Y475831D01*
Y472498D01*
X832498Y470832D01*
X827500D01*
X830832D02*
X834165Y467500D01*
X844161D02*
X837497D01*
X844161Y474165D01*
Y475831D01*
X842495Y477497D01*
X839163D01*
X837497Y475831D01*
X854158Y467500D02*
X847494D01*
X854158Y474165D01*
Y475831D01*
X852492Y477497D01*
X849160D01*
X847494Y475831D01*
X830000Y715000D02*
X820003D01*
Y719998D01*
X821669Y721665D01*
X825002D01*
X826668Y719998D01*
Y715000D01*
Y718332D02*
X830000Y721665D01*
Y731661D02*
Y724997D01*
X823335Y731661D01*
X821669D01*
X820003Y729995D01*
Y726663D01*
X821669Y724997D01*
Y734994D02*
X820003Y736660D01*
Y739992D01*
X821669Y741658D01*
X823335D01*
X825002Y739992D01*
Y738326D01*
Y739992D01*
X826668Y741658D01*
X828334D01*
X830000Y739992D01*
Y736660D01*
X828334Y734994D01*
X805000Y577500D02*
X795003D01*
Y582498D01*
X796669Y584165D01*
X800002D01*
X801668Y582498D01*
Y577500D01*
Y580832D02*
X805000Y584165D01*
Y594161D02*
Y587497D01*
X798335Y594161D01*
X796669D01*
X795003Y592495D01*
Y589163D01*
X796669Y587497D01*
X805000Y602492D02*
X795003D01*
X800002Y597494D01*
Y604158D01*
X594165Y688331D02*
X592498Y689997D01*
X589166D01*
X587500Y688331D01*
Y686665D01*
X589166Y684998D01*
X592498D01*
X594165Y683332D01*
Y681666D01*
X592498Y680000D01*
X589166D01*
X587500Y681666D01*
X597497Y689997D02*
Y680000D01*
X602495D01*
X604161Y681666D01*
Y688331D01*
X602495Y689997D01*
X597497D01*
X607494Y680000D02*
X610826D01*
X609160D01*
Y689997D01*
X607494Y688331D01*
X396665D02*
X394998Y689997D01*
X391666D01*
X390000Y688331D01*
Y686665D01*
X391666Y684998D01*
X394998D01*
X396665Y683332D01*
Y681666D01*
X394998Y680000D01*
X391666D01*
X390000Y681666D01*
X399997Y689997D02*
Y680000D01*
X404995D01*
X406661Y681666D01*
Y688331D01*
X404995Y689997D01*
X399997D01*
X416658Y680000D02*
X409994D01*
X416658Y686665D01*
Y688331D01*
X414992Y689997D01*
X411660D01*
X409994Y688331D01*
X396665Y473331D02*
X394998Y474997D01*
X391666D01*
X390000Y473331D01*
Y471665D01*
X391666Y469998D01*
X394998D01*
X396665Y468332D01*
Y466666D01*
X394998Y465000D01*
X391666D01*
X390000Y466666D01*
X399997Y474997D02*
Y465000D01*
X404995D01*
X406661Y466666D01*
Y473331D01*
X404995Y474997D01*
X399997D01*
X409994Y473331D02*
X411660Y474997D01*
X414992D01*
X416658Y473331D01*
Y471665D01*
X414992Y469998D01*
X413326D01*
X414992D01*
X416658Y468332D01*
Y466666D01*
X414992Y465000D01*
X411660D01*
X409994Y466666D01*
X596665Y473331D02*
X594998Y474997D01*
X591666D01*
X590000Y473331D01*
Y471665D01*
X591666Y469998D01*
X594998D01*
X596665Y468332D01*
Y466666D01*
X594998Y465000D01*
X591666D01*
X590000Y466666D01*
X599997Y474997D02*
Y465000D01*
X604995D01*
X606661Y466666D01*
Y473331D01*
X604995Y474997D01*
X599997D01*
X614992Y465000D02*
Y474997D01*
X609994Y469998D01*
X616658D01*
X837500Y774997D02*
X844165Y765000D01*
Y774997D02*
X837500Y765000D01*
X847497Y774997D02*
Y765000D01*
X854161D01*
X857494D02*
X860826D01*
X859160D01*
Y774997D01*
X857494Y773331D01*
X837500Y604997D02*
X844165Y595000D01*
Y604997D02*
X837500Y595000D01*
X847497Y604997D02*
Y595000D01*
X854161D01*
X864158D02*
X857494D01*
X864158Y601665D01*
Y603331D01*
X862492Y604997D01*
X859160D01*
X857494Y603331D01*
X897503Y315000D02*
X907500Y321665D01*
X897503D02*
X907500Y315000D01*
X897503Y324997D02*
X907500D01*
Y331661D01*
X899169Y334994D02*
X897503Y336660D01*
Y339992D01*
X899169Y341658D01*
X900835D01*
X902502Y339992D01*
Y338326D01*
Y339992D01*
X904168Y341658D01*
X905834D01*
X907500Y339992D01*
Y336660D01*
X905834Y334994D01*
X1020000Y774997D02*
Y765000D01*
X1026665D01*
X1036661D02*
X1029997D01*
X1036661Y771665D01*
Y773331D01*
X1034995Y774997D01*
X1031663D01*
X1029997Y773331D01*
M02*
